<?xml version="1.0" encoding="UTF-8" standalone="no"?>
<!-- Created with Inkscape (http://www.inkscape.org/) -->

<svg
   xmlns:dc="http://purl.org/dc/elements/1.1/"
   xmlns:cc="http://creativecommons.org/ns#"
   xmlns:rdf="http://www.w3.org/1999/02/22-rdf-syntax-ns#"
   xmlns:svg="http://www.w3.org/2000/svg"
   xmlns="http://www.w3.org/2000/svg"
   xmlns:sodipodi="http://sodipodi.sourceforge.net/DTD/sodipodi-0.dtd"
   xmlns:inkscape="http://www.inkscape.org/namespaces/inkscape"
   width="30mm"
   height="30mm"
   viewBox="0 0 30 30"
   version="1.1"
   id="svg8"
   inkscape:version="0.92.3 (3ce5693, 2018-03-11)"
   sodipodi:docname="act_logo.svg">
  <defs
     id="defs2">
    <style
       id="style3713">.a{fill:#f39b00;}.a,.b{fill-rule:evenodd;}.b{fill:#9b9d9f;}</style>
    <style
       id="style3737">.a{fill:#f39b00;}.a,.b{fill-rule:evenodd;}.b{fill:#9b9d9f;}</style>
  </defs>
  <sodipodi:namedview
     id="base"
     pagecolor="#ffffff"
     bordercolor="#666666"
     borderopacity="1.0"
     inkscape:pageopacity="0.0"
     inkscape:pageshadow="2"
     inkscape:zoom="0.35"
     inkscape:cx="216.72898"
     inkscape:cy="151.78569"
     inkscape:document-units="mm"
     inkscape:current-layer="layer1"
     showgrid="false"
     inkscape:window-width="1853"
     inkscape:window-height="1019"
     inkscape:window-x="1433"
     inkscape:window-y="27"
     inkscape:window-maximized="1" />
  <metadata
     id="metadata5">
    <rdf:RDF>
      <cc:Work
         rdf:about="">
        <dc:format>image/svg+xml</dc:format>
        <dc:type
           rdf:resource="http://purl.org/dc/dcmitype/StillImage" />
        <dc:title></dc:title>
      </cc:Work>
    </rdf:RDF>
  </metadata>
  <g
     inkscape:label="Layer 1"
     inkscape:groupmode="layer"
     id="layer1"
     transform="translate(0,-267)">
    <g
       id="g3759"
       transform="matrix(0.2784386,0,0,0.2811735,0.866482,271.0172)">
      <path
         id="path3743"
         d="m 25.44,64.4 -9.9,-0.6 c 2.5,-4.7 5.1,-9.4 7.6,-14.1 0.1,-4.9 0.1,-9.8 0.2,-14.8 h 3.1 c 0.1,1.7 0.2,3.5 0.4,5.2 h 0.8 c 2.5,-5.5 5,-11.1 7.5,-16.6 0.1,-0.6 1.6,-0.6 1.7,0 6.4,13.5 12.7,26.9 19.16,40.5 -2.9,0.1 -6.5,0.1 -9.4,0.2 -3.5,-9 -6.1,-17.9 -9.7,-26.9 -0.2,-0.7 -1.2,-0.7 -1.6,0 -3.3,9 -6.56,18 -9.86,27.1 z m 9.9,-45.1 z m 0,0 A 27.85,27.85 0 1 1 7.54,47.1 27.8,27.8 0 0 1 35.34,19.3 Z"
         class="a"
         inkscape:connector-curvature="0"
         style="fill:#f39b00;fill-rule:evenodd" />
      <path
         id="path3745"
         d="m 85.24,40.6 h 22.5 l -0.1,4.9 c -0.1,-0.1 -0.2,-0.2 -0.3,-0.2 -0.1,0 -0.2,-0.1 -0.3,-0.2 a 3.58,3.58 0 0 0 -1.1,-0.4 4.87,4.87 0 0 0 -1.5,-0.2 h -4.2 l -2.7,15.8 a 12.87,12.87 0 0 0 -0.2,2.5 7.72,7.72 0 0 0 0.2,1.5 v 0 a 0.1,0.1 0 0 1 0.1,0.1 h -10.5 v -0.1 c 0.3,-0.5 0.5,-1 0.8,-1.5 a 18.53,18.53 0 0 0 0.6,-2.5 l 2.7,-15.8 h -4.1 a 7,7 0 0 0 -1.6,0.2 5.64,5.64 0 0 0 -1.2,0.4 c -0.1,0.1 -0.2,0.1 -0.3,0.2 a 0.76,0.76 0 0 0 -0.4,0.2 z m -2.3,0 z m 0,0 v 4.6 c -0.1,-0.1 -0.1,-0.1 -0.2,-0.1 -0.1,0 -0.1,-0.1 -0.2,-0.1 -0.4,-0.1 -0.8,-0.2 -1.3,-0.3 a 9.21,9.21 0 0 0 -1.9,-0.2 h -6.5 a 2.9,2.9 0 0 0 -1.4,0.3 2.33,2.33 0 0 0 -0.7,1.3 l -2.2,12.8 q -0.15,0.9 0.3,1.2 a 1.92,1.92 0 0 0 1.2,0.3 h 5.2 a 28.33,28.33 0 0 0 3.3,-0.1 8.45,8.45 0 0 0 1.7,-0.5 c 0.1,0 0.2,-0.1 0.3,-0.1 0.1,0 0.2,-0.1 0.3,-0.2 l -1.6,4.9 h -14.6 a 5.27,5.27 0 0 1 -4.2,-1.6 q -1.2,-1.65 -0.6,-5.4 l 1.7,-9.8 c 0.4,-2.6 1.2,-4.4 2.5,-5.4 a 6.55,6.55 0 0 1 4.7,-1.6 z"
         class="a"
         inkscape:connector-curvature="0"
         style="fill:#f39b00;fill-rule:evenodd" />
      <path
         id="path3747"
         d="m 16.94,74.3 c -34.8,-25.7 -12,-78.2 32.2,-67.1 0.9,-2.1 1.8,-5.1 2.7,-7.2 3.3,6.5 6.6,13 9.8,19.6 -6.9,1.5 -13.9,2.9 -20.8,4.4 1.3,-2.3 2.5,-5.7 3.8,-8 -37.4,-5.5 -53.5,34.3 -27.7,58.3 z"
         class="b"
         inkscape:connector-curvature="0"
         style="fill:#9b9d9f;fill-rule:evenodd" />
    </g>
  </g>
</svg>
