<?xml version="1.0" encoding="utf-8"?>
<!-- Generator: Adobe Illustrator 21.0.2, SVG Export Plug-In . SVG Version: 6.00 Build 0)  -->
<svg version="1.1" id="Layer_1" xmlns="http://www.w3.org/2000/svg" xmlns:xlink="http://www.w3.org/1999/xlink" x="0px" y="0px"
	 viewBox="0 0 48.6 46.9" style="enable-background:new 0 0 48.6 46.9;" xml:space="preserve">
<style type="text/css">
	.st0{fill:#057EC9;}
</style>
<title>ambetronics</title>
<path class="st0" d="M47.6,44.7l1,2.2H0l1-2.2H47.6z M45,40.2l1.3,2.2H2.2l1.3-2.2H45z M42.8,35.7l1.3,2.2H4.5l1.3-2.2H42.8z
	 M40.5,31.2l1.3,2.2H6.7L8,31.2H40.5z M38.3,26.8l1,2.2h-30l1-2.2H38.3z M31.2,13.3l1.3,2.2H16.1l1.3-2.2L31.2,13.3z M29,8.9l1,2.2
	H18.3l1.3-2.2H29z M26.7,4.4l1,2.2h-6.8l1-2.2L26.7,4.4z M25.4,2.2h-2.2l1-2.2L25.4,2.2z"/>
<polygon class="st0" points="27,24.5 27,46.9 21.5,46.9 21.5,24.5 11.6,24.5 15.1,17.8 33.5,17.8 37,24.5 "/>
</svg>
