<svg id="Layer_1" data-name="Layer 1" xmlns="http://www.w3.org/2000/svg" viewBox="0 0 48.6 46.9"><defs><style>.cls-1{fill:#fff;}</style></defs><title>ambetronics</title><path class="cls-1" d="M48.4,45.9l1,2.2H.8l1-2.2Zm-2.6-4.5,1.3,2.2H3l1.3-2.2Zm-2.2-4.5,1.3,2.2H5.3l1.3-2.2Zm-2.3-4.5,1.3,2.2H7.5l1.3-2.2ZM39.1,28l1,2.2h-30l1-2.2ZM32,14.5l1.3,2.2H16.9l1.3-2.2Zm-2.2-4.4,1,2.2H19.1l1.3-2.2ZM27.5,5.6l1,2.2H21.7l1-2.2ZM26.2,3.4H24l1-2.2Z" transform="translate(-0.8 -1.2)"/><polygon class="cls-1" points="27 24.5 27 46.9 21.5 46.9 21.5 24.5 11.6 24.5 15.1 17.8 33.5 17.8 37 24.5 27 24.5"/></svg>