<?xml version="1.0" encoding="UTF-8" standalone="no"?>
<!-- Generator: Adobe Illustrator 21.0.2, SVG Export Plug-In . SVG Version: 6.00 Build 0)  -->

<svg
   xmlns:dc="http://purl.org/dc/elements/1.1/"
   xmlns:cc="http://creativecommons.org/ns#"
   xmlns:rdf="http://www.w3.org/1999/02/22-rdf-syntax-ns#"
   xmlns:svg="http://www.w3.org/2000/svg"
   xmlns="http://www.w3.org/2000/svg"
   xmlns:sodipodi="http://sodipodi.sourceforge.net/DTD/sodipodi-0.dtd"
   xmlns:inkscape="http://www.inkscape.org/namespaces/inkscape"
   version="1.1"
   id="Layer_1"
   x="0px"
   y="0px"
   viewBox="0 0 165.8 179.7"
   style="enable-background:new 0 0 165.8 179.7;"
   xml:space="preserve"
   sodipodi:docname="green_logo.svg"
   inkscape:version="0.92.3 (unknown)"><metadata
   id="metadata15"><rdf:RDF><cc:Work
       rdf:about=""><dc:format>image/svg+xml</dc:format><dc:type
         rdf:resource="http://purl.org/dc/dcmitype/StillImage" /><dc:title></dc:title></cc:Work></rdf:RDF></metadata><defs
   id="defs13" /><sodipodi:namedview
   pagecolor="#ffffff"
   bordercolor="#666666"
   borderopacity="1"
   objecttolerance="10"
   gridtolerance="10"
   guidetolerance="10"
   inkscape:pageopacity="0"
   inkscape:pageshadow="2"
   inkscape:window-width="958"
   inkscape:window-height="1027"
   id="namedview11"
   showgrid="false"
   inkscape:zoom="1.3133"
   inkscape:cx="69.57479"
   inkscape:cy="89.849998"
   inkscape:window-x="960"
   inkscape:window-y="24"
   inkscape:window-maximized="0"
   inkscape:current-layer="Layer_1" />
<style
   type="text/css"
   id="style2">
	.st0{enable-background:new    ;}
	.st1{fill:#00A859;}
</style>
<g
   class="st0"
   id="g8"
   transform="translate(0,8)"
   style="enable-background:new">
	<path
   class="st1"
   d="m 62.1,117.4 c -2.5,3.6 -6.1,6.4 -10.7,8.2 -4.6,1.8 -9.9,2.7 -15.9,2.7 -6.1,0 -11.6,-1.4 -16.3,-4.3 -4.7,-2.9 -8.4,-6.9 -11,-12.2 -2.6,-5.3 -3.9,-11.4 -4,-18.4 v -6.5 c 0,-11.3 2.6,-20 7.9,-26.2 5.3,-6.2 12.7,-9.3 22.3,-9.3 7.8,0 14.2,2 18.9,6 4.8,4 7.7,9.7 8.8,17 H 52.2 C 50.3,64.5 44.4,59.5 34.4,59.5 c -6.6,0 -11.7,2.3 -15.1,7 -3.4,4.7 -5.2,11.4 -5.2,20.2 v 6.1 c 0,8.4 1.9,15.1 5.8,20.1 3.9,5 9.1,7.4 15.6,7.4 3.7,0 7,-0.4 9.8,-1.2 2.8,-0.8 5.1,-2.2 6.9,-4.2 V 98 H 34.9 v -8.1 h 27.3 v 27.5 z"
   id="path4"
   inkscape:connector-curvature="0"
   style="fill:#00a859" />
	<path
   class="st1"
   d="m 94.8,103.6 1.4,9.9 2.1,-8.9 14.9,-52.3 h 8.4 l 14.5,52.3 2.1,9.1 1.6,-10.1 11.7,-51.2 h 10 l -18.2,74.9 h -9 l -15.5,-54.6 -1.2,-5.7 -1.2,5.7 -16.1,54.6 h -9 L 73.1,52.3 H 83 Z"
   id="path6"
   inkscape:connector-curvature="0"
   style="fill:#00a859" />
</g>
</svg>