<?xml version="1.0" encoding="iso-8859-1"?>
<!-- Generator: Adobe Illustrator 19.0.0, SVG Export Plug-In . SVG Version: 6.00 Build 0)  -->
<svg version="1.1" id="Capa_1" xmlns="http://www.w3.org/2000/svg" xmlns:xlink="http://www.w3.org/1999/xlink" x="0px" y="0px"
	 viewBox="0 0 480 480" style="enable-background:new 0 0 480 480;" xml:space="preserve">
<path style="fill:#4398D1;" d="M472,32H240C125.103,31.977,31.942,125.101,31.919,239.999
	C31.896,354.896,125.02,448.057,239.917,448.08s208.058-93.101,208.081-207.999c0.007-33.45-8.053-66.409-23.495-96.081H472V32z"/>
<circle style="fill:#60AADB;" cx="240" cy="240" r="128"/>
<g>
	<path style="fill:#3E8CC7;" d="M143.376,55.816L85.672,38.504C72.324,34.497,57.854,38.144,48,48
		c-9.856,9.854-13.503,24.324-9.496,37.672l17.312,57.704C75.475,106.005,106.005,75.475,143.376,55.816z"/>
	<path style="fill:#3E8CC7;" d="M336.624,424.184l57.704,17.312c13.348,4.007,27.818,0.36,37.672-9.496
		c9.856-9.854,13.503-24.324,9.496-37.672l-17.312-57.704C404.525,373.995,373.995,404.525,336.624,424.184z"/>
</g>
<circle style="fill:#2A7DB8;" cx="240" cy="240" r="96"/>
<path style="fill:#4398D1;" d="M128,464v-48.8C70.594,378.536,34.801,316.066,32.2,248H32v216H0v16h160v-16H128z"/>
<path style="fill:#3E8CC7;" d="M128,436.192V415.2C70.594,378.536,34.801,316.066,32.2,248H32v96.432
	C48.352,377.432,78.496,420.96,128,436.192L128,436.192z"/>
<path style="fill:#4398D1;" d="M464,0h16v176h-16V0z"/>
<g>
	<path style="fill:#2A7DB8;" d="M400,32h16v112h-16V32z"/>
	<path style="fill:#2A7DB8;" d="M32,432h96v16H32V432z"/>
	<path style="fill:#2A7DB8;" d="M64,64h16v16H64V64z"/>
	<path style="fill:#2A7DB8;" d="M400,400h16v16h-16V400z"/>
</g>
<g>
	<path style="fill:#60AADB;" d="M72,240H56c0.115-101.573,82.427-183.885,184-184v16C147.258,72.101,72.101,147.258,72,240z"/>
	<path style="fill:#60AADB;" d="M256,56h16v16h-16V56z"/>
</g>
<g>
	<path style="fill:#2A7DB8;" d="M184,240h40c-0.004-4.244,1.683-8.315,4.688-11.312L200.4,200.4
		c-7.122-7.121-17.182-10.473-27.152-9.048l-17.416,2.488c-12.266,22.3-15.131,48.572-7.96,72.992L158.4,252.8
		C164.443,244.742,173.928,240,184,240L184,240z"/>
	<path style="fill:#2A7DB8;" d="M240,179.776V224c4.244-0.004,8.315,1.683,11.312,4.688L279.6,200.4
		c7.121-7.122,10.473-17.182,9.048-27.152l-2.488-17.416c-21.754-12.002-47.341-15.014-71.288-8.392l7.44,3.712
		C233.153,156.573,240.001,167.655,240,179.776L240,179.776z"/>
	<path style="fill:#2A7DB8;" d="M240,296v-40c-4.244,0.004-8.315-1.683-11.312-4.688L200.4,279.6
		c-7.121,7.122-10.473,17.182-9.048,27.152l2.488,17.416c22.3,12.266,48.572,15.131,72.992,7.96L252.8,321.6
		C244.742,315.557,240,306.072,240,296L240,296z"/>
	<path style="fill:#2A7DB8;" d="M332.128,213.168L321.6,227.2c-6.043,8.058-15.528,12.8-25.6,12.8h-40
		c0.004,4.244-1.683,8.315-4.688,11.312L279.6,279.6c7.122,7.121,17.182,10.473,27.152,9.048l17.416-2.488
		C336.434,263.86,339.299,237.588,332.128,213.168L332.128,213.168z"/>
</g>
<g>
	<path style="fill:#FDB62F;" d="M200.4,200.4l28.288,28.288c2.997-3.005,7.068-4.692,11.312-4.688v-44.224
		c0.001-12.121-6.847-23.203-17.688-28.624l-7.44-3.712c-25.157,6.822-46.465,23.568-59.04,46.4l17.416-2.488
		C183.218,189.927,193.277,193.279,200.4,200.4L200.4,200.4z"/>
	<path style="fill:#FDB62F;" d="M279.6,200.4l-28.288,28.288c3.005,2.997,4.692,7.068,4.688,11.312h40
		c10.072,0,19.557-4.742,25.6-12.8l10.528-14.032c-7.13-24.443-23.66-45.062-45.968-57.336l2.488,17.416
		C290.073,183.218,286.721,193.277,279.6,200.4z"/>
	<path style="fill:#FDB62F;" d="M200.4,279.6l28.288-28.288c-3.005-2.997-4.692-7.068-4.688-11.312h-40
		c-10.072,0-19.557,4.742-25.6,12.8l-10.528,14.032c7.13,24.443,23.66,45.062,45.968,57.336l-2.488-17.416
		C189.927,296.782,193.279,286.723,200.4,279.6L200.4,279.6z"/>
	<path style="fill:#FDB62F;" d="M279.6,279.6l-28.288-28.288c-2.997,3.005-7.068,4.692-11.312,4.688v40
		c0,10.072,4.742,19.557,12.8,25.6l14.032,10.528c24.445-7.127,45.064-23.658,57.336-45.968l-17.416,2.488
		C296.782,290.073,286.723,286.721,279.6,279.6z"/>
	<circle style="fill:#FDB62F;" cx="240" cy="240" r="16"/>
</g>
<path style="fill:#3E8CC7;" d="M324.472,144c10.429,9.175,19.299,19.982,26.264,32h87.136c-3.552-11.022-8.023-21.727-13.368-32
	H324.472z"/>
<path d="M464,24H240c-33.814-0.025-67.155,7.944-97.304,23.256L88,30.832c-24.274-7.299-49.869,6.462-57.168,30.736
	c-2.592,8.62-2.592,17.812,0,26.432l16.424,54.72C31.947,172.861,23.979,206.194,24,240c0,2.4,0.104,4.744,0.184,7.104
	c-0.081,0.294-0.143,0.594-0.184,0.896v216H0v16h160v-16h-24v-34.76c62.39,34.397,137.755,35.709,201.304,3.504L392,449.168
	c24.274,7.299,49.869-6.462,57.168-30.736c2.592-8.62,2.592-17.812,0-26.432l-16.424-54.72C448.053,307.139,456.021,273.806,456,240
	c-0.027-30.321-6.413-60.3-18.744-88H464v24h16V0h-16V24z M46.168,83.376C41.406,67.59,50.343,50.932,66.13,46.17
	c5.621-1.696,11.617-1.696,17.238-0.002l40.048,12c-1.224,0.8-2.4,1.6-3.584,2.4l-1.12,0.76
	c-22.578,15.306-42.038,34.766-57.344,57.344l-0.76,1.12c-0.8,1.2-1.648,2.4-2.4,3.584L46.168,83.376z M120,464H40v-16h80V464z
	 M120,432H40V321.464c1.984,4.853,4.139,9.621,6.464,14.304l0.344,0.664c2.133,4.267,4.416,8.469,6.848,12.608
	c0.28,0.472,0.536,0.944,0.8,1.416c2.416,4.048,4.963,8.008,7.64,11.88c0.664,0.96,1.36,1.904,2.04,2.864
	c2.133,3.008,4.355,5.957,6.664,8.848c0.8,0.976,1.512,1.96,2.296,2.92c2.68,3.264,5.48,6.4,8.344,9.528
	c1.208,1.312,2.456,2.592,3.704,3.88c2.224,2.288,4.499,4.528,6.824,6.72c1.488,1.408,2.984,2.8,4.52,4.16
	c2.667,2.384,5.395,4.696,8.184,6.936c1.392,1.12,2.792,2.224,4.216,3.312c3.408,2.608,6.864,5.152,10.4,7.56
	c0.232,0.16,0.44,0.336,0.672,0.488L120,432z M433.832,396.624c4.749,15.8-4.21,32.457-20.009,37.206
	c-5.606,1.685-11.584,1.686-17.191,0.002l-40.048-12c1.224-0.8,2.4-1.6,3.584-2.4l1.12-0.76
	c22.578-15.306,42.038-34.766,57.344-57.344l0.76-1.12c0.8-1.2,1.648-2.4,2.4-3.584L433.832,396.624z M440,240
	c0.033,32.832-8.07,65.161-23.584,94.096c-1.896,3.56-3.904,7.032-6,10.448c-0.904,1.472-1.856,2.912-2.792,4.36
	c-1.352,2.08-2.752,4.12-4.176,6.136c-1.973,2.805-4.024,5.557-6.152,8.256c-1.144,1.464-2.28,2.928-3.464,4.36
	c-1.68,2.027-3.403,4.016-5.168,5.968c-0.8,0.872-1.6,1.728-2.4,2.584c-3.232,3.472-6.584,6.824-10.056,10.056
	c-0.856,0.8-1.712,1.6-2.584,2.4c-1.963,1.76-3.952,3.483-5.968,5.168c-1.432,1.184-2.896,2.32-4.36,3.464
	c-2.693,2.133-5.445,4.184-8.256,6.152c-2.016,1.424-4.056,2.824-6.136,4.176c-1.448,0.936-2.888,1.888-4.36,2.792
	c-3.416,2.096-6.888,4.104-10.448,6c-64.527,34.522-142.779,30.929-203.872-9.36c-1.704-1.12-3.376-2.28-5.04-3.448
	c-1.408-0.984-2.824-1.96-4.2-2.984c-1.664-1.24-3.272-2.528-4.888-3.8c-2.48-1.968-4.909-3.987-7.288-6.056
	c-1.264-1.104-2.552-2.2-3.792-3.336c-1.464-1.344-2.888-2.728-4.312-4.112c-1.176-1.144-2.352-2.296-3.496-3.472
	c-1.355-1.376-2.688-2.773-4-4.192c-1.232-1.336-2.4-2.696-3.632-4.064c-1.232-1.368-2.296-2.6-3.408-3.936
	c-2.2-2.648-4.344-5.336-6.4-8.096c-0.448-0.6-0.864-1.224-1.304-1.824c-1.768-2.4-3.504-4.896-5.168-7.4
	c-0.544-0.8-1.056-1.656-1.6-2.48c-1.6-2.448-3.096-4.92-4.552-7.432c-0.408-0.696-0.8-1.384-1.2-2.08
	c-1.712-3.024-3.36-6.08-4.912-9.192l-0.232-0.488c-12.508-25.232-19.529-52.827-20.6-80.968c-0.104-2.568-0.2-5.12-0.2-7.696
	c-0.033-32.832,8.07-65.161,23.584-94.096c1.896-3.56,3.904-7.032,6-10.448c0.904-1.472,1.856-2.912,2.792-4.36
	c1.352-2.08,2.752-4.12,4.176-6.136c1.973-2.811,4.024-5.563,6.152-8.256c1.144-1.464,2.28-2.928,3.464-4.36
	c1.68-2.027,3.403-4.016,5.168-5.968c0.8-0.872,1.6-1.728,2.4-2.584c3.232-3.472,6.584-6.824,10.056-10.056
	c0.856-0.8,1.712-1.6,2.584-2.4c1.957-1.76,3.947-3.483,5.968-5.168c1.432-1.184,2.896-2.32,4.36-3.464
	c2.693-2.133,5.445-4.184,8.256-6.152c2.016-1.424,4.056-2.824,6.136-4.176c1.448-0.936,2.888-1.888,4.36-2.792
	c3.416-2.096,6.888-4.104,10.448-6C174.839,48.07,207.168,39.967,240,40h160v96h-72v0.496
	C270.642,87.701,184.589,94.642,135.793,152S93.94,295.411,151.297,344.207s143.411,41.854,192.207-15.504
	c43.329-50.932,43.329-125.77,0-176.703h76C433.041,179.357,440.056,209.477,440,240L440,240z M360,240c0,66.274-53.726,120-120,120
	s-120-53.726-120-120s53.726-120,120-120C306.243,120.075,359.925,173.757,360,240z M464,136h-48V40h48V136z"/>
<path d="M320.968,174.88c-1.808-2.24-3.728-4.376-5.704-6.456c-0.392-0.408-0.744-0.848-1.144-1.248
	c-1.68-1.712-3.464-3.312-5.264-4.904c-0.8-0.696-1.52-1.44-2.328-2.12c-1.408-1.176-2.904-2.232-4.368-3.336
	c-1.28-0.96-2.512-1.968-3.832-2.864c-1.16-0.8-2.4-1.472-3.576-2.208c-1.6-0.984-3.104-2.024-4.728-2.912
	c-0.12-0.072-0.248-0.12-0.368-0.184c-0.64-0.352-1.328-0.632-1.976-0.968c-2.288-1.184-4.592-2.344-6.96-3.352
	c-1-0.432-2.056-0.8-3.08-1.168c-2.08-0.8-4.144-1.6-6.272-2.296c-1.208-0.384-2.456-0.664-3.688-1c-1.992-0.552-4-1.12-6.016-1.552
	c-1.376-0.296-2.784-0.48-4.176-0.72c-1.92-0.32-3.832-0.664-5.768-0.88c-1.6-0.184-3.256-0.248-4.888-0.36
	s-3.416-0.232-5.144-0.256c-0.56,0-1.112-0.088-1.68-0.088c-1.52,0-3.008,0.16-4.512,0.232c-1.2,0.056-2.4,0.08-3.608,0.176
	c-2.656,0.208-5.264,0.544-7.856,0.952c-0.584,0.088-1.168,0.16-1.76,0.264c-3.019,0.533-5.989,1.189-8.912,1.968
	c-0.192,0.048-0.384,0.072-0.568,0.12l-0.28,0.088c-3.125,0.864-6.187,1.867-9.184,3.008l-0.8,0.272
	c-2.997,1.168-5.931,2.467-8.8,3.896c-0.248,0.128-0.496,0.232-0.736,0.36c-2.808,1.424-5.528,2.984-8.176,4.648
	c-0.304,0.192-0.608,0.36-0.904,0.552c-2.496,1.6-4.904,3.328-7.248,5.136c-0.432,0.336-0.888,0.64-1.312,0.984
	c-2.096,1.664-4.096,3.44-6.048,5.256c-0.624,0.576-1.264,1.112-1.864,1.696c-1.648,1.6-3.2,3.312-4.744,5.024
	c-0.8,0.896-1.6,1.744-2.4,2.656c-1.232,1.472-2.4,3.032-3.512,4.568c-0.928,1.232-1.904,2.4-2.776,3.712
	c-0.968,1.408-1.808,2.904-2.704,4.368s-1.728,2.64-2.488,4c-0.056,0.104-0.096,0.216-0.152,0.312
	c-1.856,3.437-3.518,6.976-4.976,10.6c-0.408,1-0.736,2.008-1.112,3.016c-1.032,2.792-1.96,5.6-2.76,8.528
	c-0.312,1.144-0.608,2.28-0.888,3.432c-0.688,2.912-1.24,5.864-1.688,8.856c-0.16,1.064-0.36,2.112-0.48,3.2
	c-0.489,4.019-0.742,8.063-0.76,12.112c0,3.048,0.184,6.096,0.464,9.144c0.096,1.128,0.232,2.248,0.36,3.368
	c0.232,1.832,0.52,3.656,0.8,5.472c0.384,2.192,0.848,4.352,1.368,6.488c0.368,1.528,0.72,3.056,1.16,4.576l0.08,0.24
	c0.856,2.888,1.856,5.712,2.944,8.488c0.144,0.384,0.264,0.8,0.416,1.152c1.184,2.912,2.512,5.752,3.944,8.528
	c0.112,0.208,0.2,0.424,0.304,0.632c1.52,2.891,3.165,5.693,4.936,8.408c0.072,0.112,0.128,0.224,0.2,0.328
	c1.752,2.672,3.632,5.248,5.6,7.752c0.136,0.168,0.256,0.344,0.392,0.512c1.824,2.272,3.776,4.44,5.792,6.552
	c0.352,0.376,0.68,0.8,1.048,1.152c1.712,1.752,3.536,3.384,5.376,5.008c0.744,0.664,1.448,1.376,2.216,2.016
	c1.448,1.216,3,2.312,4.52,3.448c1.224,0.92,2.4,1.896,3.68,2.76s2.472,1.52,3.704,2.288c1.536,0.952,3.032,1.968,4.616,2.84
	c0.104,0.056,0.216,0.096,0.312,0.152c3.437,1.856,6.976,3.518,10.6,4.976c1,0.408,2.008,0.736,3.016,1.112
	c2.792,1.032,5.6,1.96,8.528,2.76c1.144,0.312,2.28,0.608,3.432,0.888c2.912,0.688,5.864,1.24,8.856,1.688
	c1.064,0.16,2.112,0.36,3.2,0.48c4.026,0.5,8.079,0.765,12.136,0.792c3.048,0,6.096-0.184,9.144-0.464
	c1.128-0.096,2.248-0.232,3.368-0.36c1.832-0.232,3.656-0.52,5.472-0.8c2.192-0.384,4.352-0.848,6.488-1.368
	c1.52-0.368,3.048-0.712,4.56-1.152l0.24-0.08c2.88-0.848,5.696-1.848,8.472-2.936c0.384-0.152,0.8-0.272,1.176-0.432
	c2.888-1.168,5.704-2.488,8.456-3.904l0.712-0.344c2.848-1.499,5.611-3.12,8.288-4.864c0.152-0.096,0.304-0.176,0.456-0.28
	c2.616-1.712,5.128-3.552,7.576-5.488c0.224-0.184,0.472-0.344,0.696-0.528c2.2-1.768,4.288-3.656,6.328-5.6
	c0.456-0.424,0.936-0.8,1.384-1.256c1.656-1.6,3.2-3.368,4.752-5.104c0.752-0.8,1.544-1.6,2.264-2.488
	c1.112-1.336,2.12-2.76,3.2-4.152s2.08-2.656,3.032-4.056c0.696-1.024,1.296-2.112,1.96-3.2c1.064-1.696,2.192-3.36,3.2-5.128
	c0.056-0.104,0.096-0.216,0.152-0.32c1.855-3.431,3.514-6.965,4.968-10.584c0.408-1,0.736-2.016,1.112-3.024
	c1.067-2.789,1.987-5.632,2.76-8.528c0.312-1.144,0.608-2.272,0.888-3.424c0.688-2.912,1.24-5.872,1.688-8.872
	c0.16-1.056,0.36-2.096,0.48-3.16c0.478-4.017,0.721-8.059,0.728-12.104c0-3.048-0.184-6.096-0.464-9.144
	c-0.096-1.128-0.232-2.248-0.36-3.368c-0.232-1.832-0.52-3.656-0.8-5.472c-0.384-2.192-0.848-4.352-1.368-6.488
	c-0.368-1.528-0.72-3.056-1.16-4.576l-0.08-0.24c-0.848-2.88-1.848-5.696-2.936-8.472c-0.152-0.384-0.272-0.8-0.432-1.176
	c-1.176-2.896-2.496-5.712-3.92-8.48c-0.112-0.224-0.208-0.464-0.328-0.688c-1.504-2.864-3.136-5.6-4.888-8.336
	c-0.088-0.128-0.16-0.264-0.248-0.4c-1.736-2.64-3.592-5.184-5.552-7.656C321.264,175.288,321.128,175.072,320.968,174.88
	L320.968,174.88z M238.208,152.088c2.288-0.048,4.568,0,6.84,0.168c1.144,0.064,2.304,0.064,3.44,0.176
	c3.201,0.299,6.382,0.78,9.528,1.44c0.848,0.176,1.664,0.44,2.504,0.64c2.4,0.584,4.8,1.224,7.136,2.008
	c1.08,0.36,2.128,0.8,3.2,1.168c2.075,0.779,4.12,1.635,6.136,2.568c0.624,0.288,1.24,0.592,1.864,0.896l1.888,13.232
	c1.052,7.475-1.458,15.011-6.784,20.36l-23.592,23.592c-0.28-0.136-0.568-0.232-0.848-0.352l-0.384-0.16
	c-0.376-0.152-0.736-0.328-1.12-0.464v-37.6c-0.021-2.332-0.246-4.659-0.672-6.952c-0.112-0.64-0.256-1.272-0.4-1.904
	c-0.391-1.741-0.899-3.455-1.52-5.128c-0.192-0.52-0.344-1.04-0.552-1.544c-0.865-2.064-1.901-4.052-3.096-5.944
	c-0.256-0.392-0.56-0.752-0.8-1.144c-1.031-1.498-2.164-2.923-3.392-4.264c-0.208-0.232-0.368-0.512-0.584-0.744
	C237.376,152.136,237.792,152.096,238.208,152.088L238.208,152.088z M233.728,235.288c0.483-0.643,1.063-1.207,1.72-1.672
	c0.451-0.373,0.939-0.7,1.456-0.976c1.98-0.831,4.212-0.831,6.192,0c0.517,0.276,1.005,0.603,1.456,0.976
	c0.712,0.512,1.336,1.136,1.848,1.848c0.373,0.451,0.7,0.939,0.976,1.456c0.831,1.98,0.831,4.212,0,6.192
	c-0.276,0.517-0.603,1.005-0.976,1.456c-0.512,0.712-1.136,1.336-1.848,1.848c-0.451,0.373-0.939,0.7-1.456,0.976
	c-1.98,0.831-4.212,0.831-6.192,0c-0.517-0.276-1.005-0.603-1.456-0.976c-0.657-0.465-1.237-1.029-1.72-1.672
	c-0.431-0.487-0.801-1.024-1.104-1.6c-0.831-1.98-0.831-4.212,0-6.192c0.297-0.603,0.668-1.168,1.104-1.68V235.288z M173.32,182.752
	c2.337-2.7,4.835-5.257,7.48-7.656c0.416-0.376,0.8-0.8,1.24-1.128c6.067-5.317,12.831-9.782,20.104-13.272l0.376-0.176
	c3.746-1.779,7.614-3.287,11.576-4.512l4.64,2.32c8.148,4.037,13.292,12.355,13.264,21.448v37.6
	c-0.384,0.136-0.744,0.312-1.12,0.464l-0.384,0.16c-0.28,0.12-0.568,0.216-0.848,0.352l-23.592-23.592
	c-1.725-1.686-3.599-3.212-5.6-4.56c-0.312-0.216-0.616-0.44-0.936-0.648c-1.928-1.24-3.96-2.31-6.072-3.2
	c-0.36-0.152-0.72-0.288-1.088-0.432c-2.19-0.878-4.451-1.563-6.76-2.048l-0.376-0.056c-2.293-0.427-4.619-0.655-6.952-0.68
	c-0.192,0-0.384-0.064-0.584-0.064s-0.264,0-0.392,0c-1.032,0-2.064,0.096-3.096,0.192c-0.488,0-0.976,0-1.464,0.096
	c0.208-0.224,0.4-0.416,0.584-0.624L173.32,182.752z M153.784,245.952c-0.464,0.536-0.968,1.048-1.4,1.6
	C152.168,245.024,152,242.536,152,240c0.009-3.208,0.193-6.412,0.552-9.6c0.088-0.8,0.256-1.6,0.36-2.352
	c0.336-2.4,0.712-4.8,1.24-7.112c0.208-0.96,0.488-1.888,0.728-2.84c0.544-2.104,1.144-4.192,1.84-6.256
	c0.36-1.072,0.76-2.128,1.168-3.2c0.704-1.848,1.48-3.672,2.312-5.472c0.304-0.664,0.632-1.328,0.952-1.984l13.232-1.888
	c7.475-1.06,15.015,1.452,20.36,6.784l23.592,23.592c-0.128,0.272-0.224,0.56-0.344,0.8l-0.176,0.416
	c-0.152,0.368-0.328,0.728-0.456,1.104H184c-1.545,0.002-3.089,0.093-4.624,0.272c-0.536,0.064-1.056,0.2-1.6,0.28
	c-0.984,0.16-1.976,0.296-2.944,0.528c-0.6,0.144-1.184,0.352-1.784,0.528c-0.872,0.248-1.752,0.472-2.6,0.8
	c-0.616,0.224-1.208,0.512-1.808,0.8c-0.8,0.336-1.6,0.64-2.4,1.032c-0.616,0.304-1.192,0.672-1.792,1.008
	c-0.728,0.408-1.472,0.8-2.176,1.248s-1.144,0.8-1.72,1.24c-0.576,0.44-1.344,0.936-1.984,1.464s-1.048,0.952-1.6,1.432
	s-1.232,1.096-1.8,1.688s-0.912,1.04-1.384,1.584V245.952z M191.664,277.464c-0.296,0.376-0.536,0.8-0.8,1.168
	c-0.624,0.856-1.264,1.704-1.816,2.608c-0.296,0.472-0.528,0.984-0.8,1.472c-0.472,0.8-0.968,1.68-1.376,2.552
	c-0.264,0.56-0.456,1.136-0.688,1.704c-0.352,0.84-0.72,1.68-1.016,2.544c-0.2,0.6-0.336,1.216-0.504,1.824
	c-0.248,0.856-0.52,1.704-0.704,2.584c-0.136,0.64-0.208,1.288-0.312,1.936c-0.144,0.856-0.304,1.712-0.392,2.584
	c-0.064,0.672-0.064,1.352-0.096,2.032c0,0.856-0.104,1.704-0.088,2.552c0,0.704,0.096,1.4,0.144,2.104s0.056,1.448,0.152,2.168
	c-0.216-0.184-0.416-0.384-0.624-0.568c-2.53-2.193-4.934-4.527-7.2-6.992c-0.432-0.464-0.864-0.936-1.288-1.408
	c-4.976-5.623-9.223-11.851-12.64-18.536c-0.176-0.336-0.336-0.688-0.504-1.032c-1.558-3.163-2.923-6.417-4.088-9.744
	c-0.08-0.216-0.168-0.424-0.24-0.648L164.8,257.6c4.546-6.027,11.651-9.579,19.2-9.6h33.36c0.128,0.376,0.304,0.736,0.456,1.104
	l0.176,0.416c0.12,0.272,0.216,0.56,0.344,0.8l-23.592,23.592c-1.093,1.106-2.121,2.273-3.08,3.496V277.464z M246.064,327.744
	c-2.947,0.212-5.903,0.268-8.856,0.168c-1.12,0-2.248-0.088-3.36-0.168c-2.864-0.197-5.712-0.536-8.544-1.016
	c-0.704-0.12-1.424-0.184-2.12-0.32c-3.519-0.688-6.992-1.591-10.4-2.704c-0.712-0.232-1.392-0.52-2.096-0.8
	c-2.667-0.949-5.296-2.029-7.888-3.24c-0.56-0.256-1.104-0.52-1.656-0.8l-1.872-13.264c-1.052-7.475,1.458-15.011,6.784-20.36
	l23.592-23.592c0.28,0.136,0.568,0.232,0.856,0.36l0.376,0.152c0.368,0.152,0.736,0.328,1.12,0.464V296
	c0.002,1.545,0.093,3.089,0.272,4.624c0.064,0.544,0.2,1.064,0.28,1.6c0.16,0.984,0.296,1.968,0.528,2.936
	c0.144,0.616,0.36,1.208,0.536,1.816c0.248,0.864,0.472,1.728,0.8,2.576c0.224,0.616,0.52,1.208,0.8,1.824
	c0.336,0.8,0.648,1.6,1.032,2.4c0.304,0.616,0.672,1.192,1.008,1.792c0.408,0.728,0.8,1.48,1.248,2.184s0.8,1.152,1.248,1.728
	c0.448,0.576,0.936,1.336,1.448,1.968s0.968,1.064,1.456,1.6s1.08,1.224,1.672,1.792s1.08,0.944,1.6,1.416s1.048,0.96,1.6,1.392
	c-0.488,0.008-0.976,0.008-1.448,0.04L246.064,327.744z M306.592,297.392c-2.16,2.499-4.46,4.873-6.888,7.112
	c-0.488,0.456-0.976,0.896-1.472,1.336c-5.608,4.947-11.817,9.167-18.48,12.56l-1.064,0.512c-3.157,1.557-6.405,2.919-9.728,4.08
	c-0.216,0.08-0.424,0.168-0.648,0.24L257.6,315.2c-6.029-4.545-9.581-11.65-9.6-19.2v-33.36c0.384-0.136,0.744-0.312,1.12-0.464
	l0.384-0.16c0.28-0.12,0.568-0.216,0.848-0.352l23.592,23.592c1.725,1.691,3.599,3.222,5.6,4.576l0.88,0.616
	c1.928,1.24,3.959,2.31,6.072,3.2c0.368,0.16,0.728,0.304,1.096,0.448c2.162,0.862,4.394,1.537,6.672,2.016
	c0.232,0.048,0.472,0.072,0.704,0.112c2.311,0.44,4.656,0.673,7.008,0.696h0.32h0.144c1.605-0.002,3.208-0.104,4.8-0.304
	c-0.2,0.272-0.424,0.488-0.632,0.72L306.592,297.392z M326.208,234.192c0.464-0.544,0.96-1.048,1.392-1.6
	c0.216,2.48,0.384,4.968,0.384,7.504c-0.009,3.208-0.193,6.412-0.552,9.6c-0.088,0.8-0.256,1.6-0.368,2.4
	c-0.328,2.4-0.704,4.728-1.224,7.056c-0.216,0.976-0.496,1.928-0.744,2.888c-0.544,2.088-1.128,4.16-1.824,6.2
	c-0.368,1.088-0.8,2.16-1.184,3.2c-0.704,1.84-1.472,3.648-2.296,5.44c-0.312,0.672-0.64,1.328-0.96,1.992L305.6,280.76
	c-7.474,1.047-15.008-1.463-20.36-6.784l-23.592-23.592c0.136-0.28,0.232-0.568,0.352-0.848l0.16-0.384
	c0.152-0.376,0.328-0.736,0.464-1.12H296c1.545-0.002,3.089-0.093,4.624-0.272c0.544-0.064,1.064-0.2,1.6-0.28
	c0.984-0.16,1.968-0.296,2.936-0.528c0.616-0.144,1.208-0.36,1.816-0.536c0.864-0.248,1.728-0.472,2.576-0.8
	c0.616-0.224,1.208-0.52,1.824-0.8c0.8-0.336,1.6-0.648,2.4-1.032c0.616-0.304,1.192-0.672,1.792-1.008
	c0.728-0.408,1.48-0.8,2.184-1.248s1.152-0.8,1.728-1.248s1.336-0.936,1.968-1.448s1.064-0.968,1.6-1.456s1.224-1.08,1.792-1.672
	s0.912-1.056,1.384-1.6L326.208,234.192z M323.224,211.792L315.2,222.4c-4.545,6.029-11.65,9.581-19.2,9.6h-33.36
	c-0.136-0.384-0.312-0.744-0.464-1.12l-0.16-0.384c-0.12-0.28-0.216-0.568-0.352-0.848l23.592-23.592
	c1.089-1.092,2.115-2.246,3.072-3.456c0.36-0.456,0.656-0.952,0.992-1.424c0.56-0.8,1.144-1.536,1.6-2.352
	c0.344-0.552,0.624-1.144,0.936-1.72c0.424-0.8,0.872-1.512,1.24-2.304c0.288-0.616,0.512-1.256,0.76-1.88
	c0.328-0.8,0.672-1.56,0.944-2.4c0.216-0.632,0.36-1.296,0.544-1.944c0.232-0.8,0.488-1.6,0.672-2.464
	c0.144-0.664,0.216-1.336,0.32-2c0.144-0.84,0.304-1.672,0.384-2.52c0.064-0.688,0.064-1.368,0.096-2.056
	c0.04-0.848,0.104-1.688,0.088-2.544c0-0.688-0.096-1.384-0.144-2.08s-0.056-1.456-0.152-2.184c0.24,0.2,0.456,0.424,0.688,0.632
	c2.499,2.16,4.873,4.46,7.112,6.888c0.456,0.488,0.896,0.976,1.336,1.472c4.984,5.617,9.236,11.843,12.656,18.528
	c0.176,0.352,0.336,0.712,0.512,1.064c1.557,3.157,2.919,6.405,4.08,9.728c0.088,0.216,0.208,0.424,0.248,0.648L323.224,211.792z"/>
<path d="M64,64h16v16H64V64z"/>
<path d="M400,400h16v16h-16V400z"/>
<path d="M240,72V56C138.427,56.115,56.115,138.427,56,240h16C72.101,147.258,147.258,72.101,240,72z"/>
<path d="M256,56h16v16h-16V56z"/>
<g>
</g>
<g>
</g>
<g>
</g>
<g>
</g>
<g>
</g>
<g>
</g>
<g>
</g>
<g>
</g>
<g>
</g>
<g>
</g>
<g>
</g>
<g>
</g>
<g>
</g>
<g>
</g>
<g>
</g>
</svg>
