<?xml version="1.0" encoding="utf-8"?>
<!-- Generator: Adobe Illustrator 21.0.2, SVG Export Plug-In . SVG Version: 6.00 Build 0)  -->
<svg version="1.1" id="Layer_1" xmlns="http://www.w3.org/2000/svg" xmlns:xlink="http://www.w3.org/1999/xlink" x="0px" y="0px"
	 viewBox="0 0 35.7 8.3" style="enable-background:new 0 0 35.7 8.3;" xml:space="preserve">
<g>
	<path d="M0,0.2C0.5,0.1,1.2,0,2,0c1,0,1.8,0.2,2.3,0.7C4.7,1.1,5,1.6,5,2.4c0,0.7-0.2,1.3-0.6,1.7C3.8,4.7,2.9,5,1.9,5
		C1.6,5,1.3,5,1,4.9v3.2H0V0.2z M1,4.1c0.2,0.1,0.5,0.1,0.9,0.1c1.3,0,2-0.6,2-1.7c0-1.1-0.8-1.6-1.9-1.6c-0.5,0-0.8,0-1,0.1V4.1z"
		/>
	<path d="M7.4,0.1v4.8c0,1.8,0.8,2.6,1.9,2.6c1.2,0,2-0.8,2-2.6V0.1h1.1v4.7c0,2.5-1.3,3.5-3.1,3.5c-1.7,0-2.9-0.9-2.9-3.5V0.1H7.4z
		"/>
	<path d="M21,4.6c-0.1-1.1-0.1-2.5-0.1-3.5h0c-0.3,0.9-0.6,2-1,3.1l-1.4,3.9h-0.8l-1.3-3.9c-0.4-1.1-0.7-2.2-0.9-3.1h0
		c0,1-0.1,2.4-0.2,3.6l-0.2,3.5h-1l0.6-8.1h1.3L17.2,4c0.3,1,0.6,1.9,0.8,2.7h0C18.3,5.9,18.5,5,18.9,4l1.4-3.9h1.3l0.5,8.1h-1
		L21,4.6z"/>
	<path d="M23.8,0.2C24.3,0.1,25,0,25.8,0c1,0,1.8,0.2,2.3,0.7c0.4,0.4,0.7,1,0.7,1.7c0,0.7-0.2,1.3-0.6,1.7C27.6,4.7,26.7,5,25.7,5
		c-0.3,0-0.6,0-0.8-0.1v3.2h-1V0.2z M24.8,4.1c0.2,0.1,0.5,0.1,0.9,0.1c1.3,0,2-0.6,2-1.7c0-1.1-0.8-1.6-1.9-1.6c-0.5,0-0.8,0-1,0.1
		V4.1z"/>
	<path d="M34.6,1.3L34.6,1.3l-1.4,0.7l-0.2-0.8l1.7-0.9h0.9v7.8h-1V1.3z"/>
</g>
</svg>
