<?xml version="1.0" encoding="utf-8"?>
<!-- Generator: Adobe Illustrator 21.0.2, SVG Export Plug-In . SVG Version: 6.00 Build 0)  -->
<svg version="1.1" id="Layer_1" xmlns="http://www.w3.org/2000/svg" xmlns:xlink="http://www.w3.org/1999/xlink" x="0px" y="0px"
	 viewBox="0 0 1366 1366" style="enable-background:new 0 0 1366 1366;" xml:space="preserve">
<style type="text/css">
	.st0{fill:#35556D;}
	.st1{fill:#FFFFFF;}
	.st2{fill:none;stroke:#717B7F;stroke-width:70;stroke-miterlimit:10;}
	.st3{fill:#6ADD00;}
	.st4{fill:#69A033;}
	.st5{fill:#F92742;}
	.st6{fill:#38474F;}
	.st7{fill:#475A63;}
	.st8{fill:#FAD927;}
	.st9{fill:#FAB600;}
	.st10{fill:#91A3AD;}
</style>
<title>energymeter</title>
<circle class="st0" cx="683" cy="683" r="683"/>
<rect x="226.7" y="279.6" class="st1" width="912.7" height="799.5"/>
<path class="st2" d="M1075.4,1091H290.6c-33.7,0-61-27.3-61-61l0,0l0,0V336c0-33.7,27.3-61,61-61h784.8c33.7,0,61,27.3,61,61v694
	C1136.4,1063.7,1109.1,1091,1075.4,1091L1075.4,1091z"/>
<rect x="343.6" y="390" class="st3" width="658" height="133.2"/>
<rect x="378.3" y="416.9" class="st4" width="40.3" height="77.2"/>
<rect x="457.8" y="416.9" class="st4" width="40.3" height="77.2"/>
<rect x="539.5" y="416.9" class="st4" width="40.3" height="77.2"/>
<circle class="st4" cx="430.3" cy="615.4" r="31.8"/>
<circle class="st5" cx="537.9" cy="615.4" r="31.8"/>
<circle class="st5" cx="648.6" cy="615.4" r="31.8"/>
<circle class="st6" cx="833.2" cy="679.3" r="95.7"/>
<path class="st7" d="M378.6,1057V945c0-13.8,11.2-25,25-25h538c13.8,0,25,11.2,25,25v112H378.6z"/>
<rect x="437.6" y="920" class="st8" width="71" height="137"/>
<rect x="571.6" y="920" class="st8" width="71" height="137"/>
<rect x="706.6" y="920" class="st8" width="71" height="137"/>
<rect x="841.6" y="920" class="st8" width="71" height="137"/>
<circle class="st9" cx="473.6" cy="1025" r="21"/>
<circle class="st9" cx="606.6" cy="1025" r="21"/>
<circle class="st9" cx="742.6" cy="1025" r="21"/>
<circle class="st9" cx="877.6" cy="1025" r="21"/>
<path class="st2" d="M221.6,605c78.9,44.4,69.4,92.5,0,143"/>
<path class="st2" d="M1142.3,748c-78.9-44.4-69.4-92.5,0-143"/>
<circle class="st10" cx="252.6" cy="676" r="31"/>
<circle class="st10" cx="1114.6" cy="676" r="31"/>
<rect x="622.5" y="416.9" class="st4" width="40.3" height="77.2"/>
</svg>
