<svg id="Layer_1" data-name="Layer 1" xmlns="http://www.w3.org/2000/svg" xmlns:xlink="http://www.w3.org/1999/xlink" viewBox="0 0 560 559.92"><defs><style>.cls-1{fill:#35556d;}.cls-2{fill:#00a6ff;}.cls-27,.cls-3,.cls-5{fill:none;}.cls-3{stroke:#fcc200;stroke-width:25px;}.cls-27,.cls-3{stroke-miterlimit:10;}.cls-4{fill:#fff;}.cls-10,.cls-14,.cls-16,.cls-18,.cls-24,.cls-6,.cls-7{opacity:0.2;}.cls-10,.cls-11,.cls-12,.cls-13,.cls-14,.cls-15,.cls-16,.cls-17,.cls-18,.cls-19,.cls-20,.cls-21,.cls-22,.cls-23,.cls-24,.cls-25,.cls-26,.cls-6,.cls-7,.cls-8,.cls-9{isolation:isolate;}.cls-6{fill:url(#linear-gradient);}.cls-7{fill:url(#linear-gradient-2);}.cls-11,.cls-20,.cls-22,.cls-25,.cls-8,.cls-9{opacity:0.7;}.cls-8{fill:url(#linear-gradient-3);}.cls-9{fill:url(#linear-gradient-4);}.cls-10{fill:url(#linear-gradient-5);}.cls-11{fill:url(#linear-gradient-6);}.cls-12,.cls-13,.cls-15,.cls-17,.cls-19,.cls-21,.cls-23,.cls-26{opacity:0.3;}.cls-12{fill:url(#linear-gradient-7);}.cls-13{fill:url(#linear-gradient-8);}.cls-14{fill:url(#linear-gradient-9);}.cls-15{fill:url(#linear-gradient-10);}.cls-16{fill:url(#linear-gradient-11);}.cls-17{fill:url(#linear-gradient-12);}.cls-18{fill:url(#linear-gradient-13);}.cls-19{fill:url(#linear-gradient-14);}.cls-20{fill:url(#linear-gradient-15);}.cls-21{fill:url(#linear-gradient-16);}.cls-22{fill:url(#linear-gradient-17);}.cls-23{fill:url(#linear-gradient-18);}.cls-24{fill:url(#linear-gradient-19);}.cls-25{fill:url(#linear-gradient-20);}.cls-26{fill:url(#linear-gradient-21);}.cls-27{stroke:#f07d28;stroke-width:28px;}.cls-28{fill:#009fe3;}.cls-29{fill:#7fba00;}.cls-30{fill:#fcc200;}.cls-31{fill:#0774a5;}</style><linearGradient id="linear-gradient" x1="-92.62" y1="630.46" x2="-92.83" y2="630.65" gradientTransform="matrix(1717.83, 0, 0, -500.37, 159599.53, 315866.27)" gradientUnits="userSpaceOnUse"><stop offset="0" stop-color="#009ebe"/><stop offset="1" stop-color="#1eb5e0"/></linearGradient><linearGradient id="linear-gradient-2" x1="-92.64" y1="630.44" x2="-92.85" y2="630.63" xlink:href="#linear-gradient"/><linearGradient id="linear-gradient-3" x1="-92.68" y1="630.35" x2="-92.89" y2="630.54" gradientTransform="matrix(1587.71, 0, 0, -510.13, 147507.04, 321991.58)" xlink:href="#linear-gradient"/><linearGradient id="linear-gradient-4" x1="-92.64" y1="630.4" x2="-92.85" y2="630.59" gradientTransform="matrix(1587.71, 0, 0, -510.13, 147507.04, 321991.58)" xlink:href="#linear-gradient"/><linearGradient id="linear-gradient-5" x1="-92.64" y1="630.44" x2="-92.85" y2="630.63" xlink:href="#linear-gradient"/><linearGradient id="linear-gradient-6" x1="-92.64" y1="630.4" x2="-92.85" y2="630.59" gradientTransform="matrix(1587.71, 0, 0, -510.13, 147507.04, 321991.58)" xlink:href="#linear-gradient"/><linearGradient id="linear-gradient-7" x1="-92.65" y1="630.43" x2="-92.86" y2="630.62" gradientTransform="matrix(1401.83, 0, 0, -465.04, 130382.6, 293555.6)" xlink:href="#linear-gradient"/><linearGradient id="linear-gradient-8" x1="-92.74" y1="630.33" x2="-92.95" y2="630.52" gradientTransform="matrix(1401.83, 0, 0, -465.04, 130382.6, 293555.6)" xlink:href="#linear-gradient"/><linearGradient id="linear-gradient-9" x1="-92.61" y1="630.48" x2="-92.82" y2="630.68" xlink:href="#linear-gradient"/><linearGradient id="linear-gradient-10" x1="-92.67" y1="630.41" x2="-92.87" y2="630.6" gradientTransform="matrix(1401.83, 0, 0, -465.04, 130382.6, 293555.6)" xlink:href="#linear-gradient"/><linearGradient id="linear-gradient-11" x1="-92.62" y1="630.46" x2="-92.83" y2="630.65" xlink:href="#linear-gradient"/><linearGradient id="linear-gradient-12" x1="-92.69" y1="630.39" x2="-92.9" y2="630.58" gradientTransform="matrix(1401.83, 0, 0, -465.04, 130382.6, 293555.6)" xlink:href="#linear-gradient"/><linearGradient id="linear-gradient-13" x1="-92.66" y1="630.42" x2="-92.87" y2="630.61" xlink:href="#linear-gradient"/><linearGradient id="linear-gradient-14" x1="-92.73" y1="630.34" x2="-92.94" y2="630.53" gradientTransform="matrix(1401.83, 0, 0, -465.04, 130382.6, 293555.6)" xlink:href="#linear-gradient"/><linearGradient id="linear-gradient-15" x1="-92.67" y1="630.35" x2="-92.88" y2="630.54" gradientTransform="matrix(1587.71, 0, 0, -510.13, 147507.04, 321991.58)" xlink:href="#linear-gradient"/><linearGradient id="linear-gradient-16" x1="-92.75" y1="630.32" x2="-92.96" y2="630.51" gradientTransform="matrix(1401.83, 0, 0, -465.04, 130382.6, 293555.6)" xlink:href="#linear-gradient"/><linearGradient id="linear-gradient-17" x1="-92.61" y1="630.43" x2="-92.82" y2="630.62" gradientTransform="matrix(1587.71, 0, 0, -510.13, 147507.04, 321991.58)" xlink:href="#linear-gradient"/><linearGradient id="linear-gradient-18" x1="-92.67" y1="630.41" x2="-92.88" y2="630.6" gradientTransform="matrix(1401.83, 0, 0, -465.04, 130382.6, 293555.6)" xlink:href="#linear-gradient"/><linearGradient id="linear-gradient-19" x1="-92.65" y1="630.43" x2="-92.86" y2="630.62" xlink:href="#linear-gradient"/><linearGradient id="linear-gradient-20" x1="-92.65" y1="630.39" x2="-92.86" y2="630.58" gradientTransform="matrix(1587.71, 0, 0, -510.13, 147507.04, 321991.58)" xlink:href="#linear-gradient"/><linearGradient id="linear-gradient-21" x1="-92.71" y1="630.36" x2="-92.92" y2="630.55" gradientTransform="matrix(1401.83, 0, 0, -465.04, 130382.6, 293555.6)" xlink:href="#linear-gradient"/></defs><title>flowmeter</title><circle class="cls-1" cx="279.96" cy="279.96" r="279.96"/><path class="cls-2" d="M177.25,336.1V223.56H5.76A283.21,283.21,0,0,0,5.52,336H177.25Z" transform="translate(0 0.01)"/><path class="cls-2" d="M382.67,221.8V334.26H554.72A282.92,282.92,0,0,0,560,280a278.51,278.51,0,0,0-6.08-58.15Z" transform="translate(0 0.01)"/><path class="cls-3" d="M378.1,394.5H183.2A19.46,19.46,0,0,1,163.7,375V180.1a19.46,19.46,0,0,1,19.5-19.5H378.1a19.46,19.46,0,0,1,19.5,19.5h0V375A19.46,19.46,0,0,1,378.1,394.5Z" transform="translate(0 0.01)"/><path class="cls-4" d="M280,160.7a120,120,0,1,0,120,120A120,120,0,0,0,280,160.7Z" transform="translate(0 0.01)"/><path class="cls-5" d="M227.4,347.2c7-.9,14,.7,21.5,4.4,19.8-3.1,34.3-25.4,55.1-25.2a35.46,35.46,0,0,1,18.2,5.1c18.3-12.1,47.6-22.3,80,.7a132.67,132.67,0,1,0-250.6-18c19.1,1.8,44.4,7.8,65.5,25.6A52.62,52.62,0,0,0,227.4,347.2Z" transform="translate(0 0.01)"/><path class="cls-5" d="M294.8,404.1l-74.1-4.8a133.49,133.49,0,0,0,100.2,7.6Z" transform="translate(0 0.01)"/><path class="cls-6" d="M304.4,346.8a95.48,95.48,0,0,1,17.8-15.2,36.55,36.55,0,0,0-18.2-5.2c-20.8-.1-35.3,22.1-55.1,25.2,6.3,3.1,12.8,7.7,20.1,13.7a18.26,18.26,0,0,0,1.6,1.3C288.3,363.7,298.5,353.4,304.4,346.8Z" transform="translate(0 0.01)"/><path class="cls-7" d="M208.6,355.5c6.5-4.8,12.7-7.5,18.9-8.2a61.92,61.92,0,0,1-10.3-7.3c-21-17.8-46.3-23.9-65.5-25.6a134.1,134.1,0,0,0,21.7,45.4A61.65,61.65,0,0,1,208.6,355.5Z" transform="translate(0 0.01)"/><path class="cls-8" d="M213.1,395.3c2.5,1.4,5,2.8,7.5,4.1l74.2,4.8Z" transform="translate(0 0.01)"/><path class="cls-9" d="M248.9,351.7c-7.5-3.7-14.5-5.3-21.5-4.4C235.4,351.7,242.5,352.7,248.9,351.7Z" transform="translate(0 0.01)"/><path class="cls-10" d="M248.9,351.7c-6.5,1-13.5,0-21.5-4.4-6.2.8-12.3,3.5-18.9,8.2a80.72,80.72,0,0,1,16,4.4c19.3,7.5,34.3,8.7,46,6.8l-1.6-1.3C261.8,359.4,255.2,354.8,248.9,351.7Z" transform="translate(0 0.01)"/><path class="cls-11" d="M248.9,351.7c-6.5,1-13.5,0-21.5-4.4-6.2.8-12.3,3.5-18.9,8.2a80.72,80.72,0,0,1,16,4.4c19.3,7.5,34.3,8.7,46,6.8l-1.6-1.3C261.8,359.4,255.2,354.8,248.9,351.7Z" transform="translate(0 0.01)"/><path class="cls-12" d="M322.2,331.6c9.6,5.7,16.9,14.9,26.2,21.7,10.7-3.6,22.1-2.5,36,6.8a21.15,21.15,0,0,0,3-1.6,129.89,129.89,0,0,0,14.8-26.2C369.8,309.3,340.5,319.5,322.2,331.6Z" transform="translate(0 0.01)"/><path class="cls-13" d="M320.8,406.9c1-.3,1.9-.6,2.9-1L294.8,404Z" transform="translate(0 0.01)"/><path class="cls-14" d="M385.6,360.9c.6-.8,1.2-1.6,1.8-2.5a21.86,21.86,0,0,1-3,1.6Z" transform="translate(0 0.01)"/><path class="cls-15" d="M385.6,360.9c.6-.8,1.2-1.6,1.8-2.5a21.86,21.86,0,0,1-3,1.6Z" transform="translate(0 0.01)"/><path class="cls-16" d="M304.4,346.8c-5.9,6.6-16.1,16.9-33.8,19.9,18.1,14.6,31.9,19.8,54.9.8,7.7-6.3,15.1-11.5,22.8-14.1-9.2-6.8-16.6-16-26.2-21.7A93.79,93.79,0,0,0,304.4,346.8Z" transform="translate(0 0.01)"/><path class="cls-17" d="M304.4,346.8c-5.9,6.6-16.1,16.9-33.8,19.9,18.1,14.6,31.9,19.8,54.9.8,7.7-6.3,15.1-11.5,22.8-14.1-9.2-6.8-16.6-16-26.2-21.7A93.79,93.79,0,0,0,304.4,346.8Z" transform="translate(0 0.01)"/><path class="cls-18" d="M208.6,355.5a63.35,63.35,0,0,0-35.2,4.2,148.22,148.22,0,0,0,10.2,12.1c7.3-2.3,14.9-8.6,23.7-15.3Z" transform="translate(0 0.01)"/><path class="cls-19" d="M208.6,355.5a63.35,63.35,0,0,0-35.2,4.2,148.22,148.22,0,0,0,10.2,12.1c7.3-2.3,14.9-8.6,23.7-15.3Z" transform="translate(0 0.01)"/><path class="cls-20" d="M323.7,406l1.2-.4L212.2,394.8l.9.5,81.7,8.8Z" transform="translate(0 0.01)"/><path class="cls-21" d="M323.7,406l1.2-.4L212.2,394.8l.9.5,81.7,8.8Z" transform="translate(0 0.01)"/><path class="cls-22" d="M348.4,353.3c6.9,5.1,14.8,8.9,25.5,8.9a24.5,24.5,0,0,0,10.6-2.1C370.5,350.8,359.1,349.7,348.4,353.3Z" transform="translate(0 0.01)"/><path class="cls-23" d="M348.4,353.3c6.9,5.1,14.8,8.9,25.5,8.9a24.5,24.5,0,0,0,10.6-2.1C370.5,350.8,359.1,349.7,348.4,353.3Z" transform="translate(0 0.01)"/><path class="cls-24" d="M385.6,360.9l-1.2-.8a27.46,27.46,0,0,1-10.6,2.1c-10.7,0-18.6-3.8-25.5-8.9-7.8,2.6-15.1,7.8-22.8,14.1-23,19-36.8,13.8-54.9-.8-11.7,2-26.7.8-46-6.8a80.72,80.72,0,0,0-16-4.4l-1.3,1c-8.8,6.8-16.4,13.1-23.7,15.3a132.48,132.48,0,0,0,28.7,23L325,405.5A131.29,131.29,0,0,0,385.6,360.9Z" transform="translate(0 0.01)"/><path class="cls-25" d="M385.6,360.9l-1.2-.8a27.46,27.46,0,0,1-10.6,2.1c-10.7,0-18.6-3.8-25.5-8.9-7.8,2.6-15.1,7.8-22.8,14.1-23,19-36.8,13.8-54.9-.8-11.7,2-26.7.8-46-6.8a80.72,80.72,0,0,0-16-4.4l-1.3,1c-8.8,6.8-16.4,13.1-23.7,15.3a132.48,132.48,0,0,0,28.7,23L325,405.5A131.29,131.29,0,0,0,385.6,360.9Z" transform="translate(0 0.01)"/><path class="cls-26" d="M385.6,360.9l-1.2-.8a27.46,27.46,0,0,1-10.6,2.1c-10.7,0-18.6-3.8-25.5-8.9-7.8,2.6-15.1,7.8-22.8,14.1-23,19-36.8,13.8-54.9-.8-11.7,2-26.7.8-46-6.8a80.72,80.72,0,0,0-16-4.4l-1.3,1c-8.8,6.8-16.4,13.1-23.7,15.3a132.48,132.48,0,0,0,28.7,23L325,405.5A131.29,131.29,0,0,0,385.6,360.9Z" transform="translate(0 0.01)"/><path class="cls-27" d="M280.7,147.3A132.7,132.7,0,1,0,413.4,280h0c-.1-73.3-59.5-132.7-132.7-132.7" transform="translate(0 0.01)"/><path class="cls-28" d="M245,259.7H209a4,4,0,0,1-4-4v-48a4,4,0,0,1,4-4h36a4,4,0,0,1,4,4v48A4,4,0,0,1,245,259.7Z" transform="translate(0 0.01)"/><path class="cls-28" d="M298,259.7H262a4,4,0,0,1-4-4v-48a4,4,0,0,1,4-4h36a4,4,0,0,1,4,4v48A4,4,0,0,1,298,259.7Z" transform="translate(0 0.01)"/><path class="cls-28" d="M351,259.7H315a4,4,0,0,1-4-4v-48a4,4,0,0,1,4-4h36a4,4,0,0,1,4,4v48A4,4,0,0,1,351,259.7Z" transform="translate(0 0.01)"/><path class="cls-4" d="M217.4,242.3l9.1-7.5c4-3.3,5.6-5.1,5.6-7.8a4.12,4.12,0,0,0-4.4-4.3c-2.1,0-3.6,1-5.4,2.9a3.26,3.26,0,0,1-2.3,1,2.93,2.93,0,0,1-3-2.9v-.1a3.23,3.23,0,0,1,.8-2.1,12.34,12.34,0,0,1,10.4-4.8c6.5,0,10.9,3.8,10.9,9.7v.1c0,5.2-2.7,7.9-8.3,12.3l-5.4,4.3h11.4a2.9,2.9,0,0,1,2.9,2.9h0a2.9,2.9,0,0,1-2.9,2.9H219.4c-2,0-3.6-1.2-3.6-3.2A3.76,3.76,0,0,1,217.4,242.3Z" transform="translate(0 0.01)"/><path class="cls-4" d="M269.6,245.2a3.27,3.27,0,0,1-.4-4.5,3,3,0,0,1,2.5-1.1,3.23,3.23,0,0,1,2.1.8,8.91,8.91,0,0,0,6.4,2.5c2.7,0,4.7-1.6,4.7-4v-.1c0-2.7-2.5-4.2-6.4-4.2h-1.1a2.9,2.9,0,0,1-2.9-2.9,3.78,3.78,0,0,1,1.4-2.7l6.5-6.6H272.3a2.85,2.85,0,0,1-.3-5.7h15.9c2,0,3.4,1.1,3.4,3,0,1.6-.8,2.5-2,3.7l-6.5,6.3c4.4.7,8.7,3,8.7,8.9v.1c0,6-4.4,10.3-11.4,10.3A15.62,15.62,0,0,1,269.6,245.2Z" transform="translate(0 0.01)"/><path class="cls-4" d="M335.6,219.5H322.3a3.2,3.2,0,0,1-3.3-3v-.1a5.23,5.23,0,0,1,1.6-3.7l14-16.3c1.3-1.4,2.2-2.2,4.2-2.2a3.14,3.14,0,0,1,3.2,3.1v16.8h1.8a2.69,2.69,0,0,1,2.7,2.7h0a2.69,2.69,0,0,1-2.7,2.7H342v4a3.16,3.16,0,0,1-3.2,3.2h0a3.2,3.2,0,0,1-3.2-3.1v-4.1Zm0-5.4V203.7l-8.8,10.4Z" transform="translate(0 0.01)"/><path class="cls-4" d="M322.6,268.2a3.26,3.26,0,0,1-1.4-2.6,3.16,3.16,0,0,1,3.2-3.2,3.29,3.29,0,0,1,1.9.6,10,10,0,0,0,6.2,2.2c3.1,0,5.3-1.7,5.3-4.6v-.1c0-2.8-2.4-4.5-5.8-4.5-2.8,0-4,.9-4.9.9a4.94,4.94,0,0,1-3-1.4,3.05,3.05,0,0,1-1.3-2.8l.7-10.9a3.06,3.06,0,0,1,3-2.9h13.9a3,3,0,0,1,3,3,3,3,0,0,1-3,2.9h-11l-.4,5.9a16.11,16.11,0,0,1,4.4-.6c6.2,0,11.1,3,11.1,10.1v.1c0,6.7-4.8,10.9-11.8,10.9A16.27,16.27,0,0,1,322.6,268.2Z" transform="translate(0 0.01)"/><rect class="cls-28" x="317" y="203.71" width="32" height="1"/><rect class="cls-28" x="317" y="258.71" width="32" height="1"/><path class="cls-29" d="M280,371.7a26,26,0,1,1,26-26,25.95,25.95,0,0,1-26,26h0" transform="translate(0 0.01)"/><path class="cls-4" d="M280,353.7a8,8,0,1,1,8-8,8,8,0,0,1-8,8" transform="translate(0 0.01)"/><path class="cls-4" d="M280,322.7h0a2.4,2.4,0,0,0-2.4,2.2L276,342.8a2.37,2.37,0,0,0,2.2,2.6h3.4A2.43,2.43,0,0,0,284,343v-.2l-1.6-17.9A2.4,2.4,0,0,0,280,322.7Z" transform="translate(0 0.01)"/><path class="cls-30" d="M293,280.7a13,13,0,1,1-13-13,13,13,0,0,1,13,13h0" transform="translate(0 0.01)"/><path class="cls-30" d="M336,224.7h0a2.33,2.33,0,0,0-3.2-.1l-55.7,49.6a2.27,2.27,0,0,0-.2,3.3.1.1,0,0,0,.1.1l6,6a2.35,2.35,0,0,0,3.3,0l.1-.1L336,227.8A2.3,2.3,0,0,0,336,224.7Z" transform="translate(0 0.01)"/><path class="cls-31" d="M65,193.4h4a7,7,0,0,1,7,7V359.7a7,7,0,0,1-7,7H65a7,7,0,0,1-7-7V200.4A7,7,0,0,1,65,193.4Z" transform="translate(0 0.01)"/><path class="cls-31" d="M489,193.4h4a7,7,0,0,1,7,7V359.7a7,7,0,0,1-7,7h-4a7,7,0,0,1-7-7V200.4A7,7,0,0,1,489,193.4Z" transform="translate(0 0.01)"/></svg>