<svg id="Layer_1" data-name="Layer 1" xmlns="http://www.w3.org/2000/svg" viewBox="0 0 508 508"><defs><style>.cls-1{fill:#35556d;}.cls-2{fill:#2c846f;}.cls-3{fill:#e6e9ee;}.cls-4{fill:#ff7058;}.cls-5{fill:#ffd05b;}.cls-6{fill:#acb3ba;}.cls-7{fill:#2b3b4e;}</style></defs><title>pressure</title><circle class="cls-1" cx="254" cy="254" r="254"/><path class="cls-2" d="M254,446.8C147.6,446.8,61.2,360.4,61.2,254S147.6,61.2,254,61.2,446.8,147.6,446.8,254,360.4,446.8,254,446.8Z"/><path class="cls-3" d="M406.8,262.8c0-2.8.4-6,.4-8.8a153.2,153.2,0,0,0-306.4,0,64.81,64.81,0,0,0,.4,8.8Z"/><path class="cls-4" d="M204.8,166.4a2.16,2.16,0,0,0-3.2-.8,2.21,2.21,0,0,0-1.2,3.2l42,101.2c.4.4.4,1.2.8,1.6A11,11,0,0,0,262,260Z"/><circle class="cls-5" cx="254" cy="262.8" r="27.6"/><path class="cls-6" d="M254,136h0a5.29,5.29,0,0,1-5.2-5.2V120a5.29,5.29,0,0,1,5.2-5.2h0a5.29,5.29,0,0,1,5.2,5.2v10.8A5.29,5.29,0,0,1,254,136Z"/><path class="cls-6" d="M337.6,170.4h0a5.07,5.07,0,0,1,0-7.2l7.6-7.6a5.07,5.07,0,0,1,7.2,0h0a5.07,5.07,0,0,1,0,7.2l-7.6,7.6C342.4,172.4,339.2,172.4,337.6,170.4Z"/><path class="cls-6" d="M156,156h0a5.07,5.07,0,0,1,7.2,0l7.6,7.6a5.07,5.07,0,0,1,0,7.2h0a5.07,5.07,0,0,1-7.2,0l-7.6-7.6A5.07,5.07,0,0,1,156,156Z"/><path class="cls-6" d="M208.8,144.8h0a4.58,4.58,0,0,1-6.4-2.8l-4-10a4.58,4.58,0,0,1,2.8-6.4h0a4.58,4.58,0,0,1,6.4,2.8l4,10A4.58,4.58,0,0,1,208.8,144.8Z"/><path class="cls-6" d="M363.2,208.8h0a4.58,4.58,0,0,1,2.8-6.4l10-4a4.58,4.58,0,0,1,6.4,2.8h0a4.58,4.58,0,0,1-2.8,6.4l-10,4A4.58,4.58,0,0,1,363.2,208.8Z"/><path class="cls-6" d="M299.2,144.8h0a5.4,5.4,0,0,1-2.8-6.4l4-10a5.41,5.41,0,0,1,6.4-2.8h0a5.4,5.4,0,0,1,2.8,6.4l-4,10A4.58,4.58,0,0,1,299.2,144.8Z"/><path class="cls-6" d="M125.6,200.8h0A5.41,5.41,0,0,1,132,198l10,4a5.4,5.4,0,0,1,2.8,6.4h0a5.4,5.4,0,0,1-6.4,2.8l-10-4C126,206.4,124.8,203.6,125.6,200.8Z"/><circle class="cls-7" cx="254" cy="82.4" r="10"/><circle class="cls-7" cx="254" cy="425.6" r="10"/><circle class="cls-7" cx="425.6" cy="254" r="10"/><circle class="cls-7" cx="82.4" cy="254" r="10"/></svg>