<?xml version="1.0" encoding="iso-8859-1"?>
<!-- Generator: Adobe Illustrator 19.0.0, SVG Export Plug-In . SVG Version: 6.00 Build 0)  -->
<svg version="1.1" id="Layer_1" xmlns="http://www.w3.org/2000/svg" xmlns:xlink="http://www.w3.org/1999/xlink" x="0px" y="0px"
	 viewBox="0 0 256.721 256.721" style="enable-background:new 0 0 256.721 256.721;" xml:space="preserve">
<g>
	<g>
		<g>
			<g id="XMLID_27_">
				<g>
					<path style="fill:#FEDE94;" d="M177.875,216.953v4.716c0,2.163-1.742,3.905-3.875,3.905s-3.875-1.742-3.875-3.905v-4.716
						H177.875z"/>
					<path style="fill:#FEDE94;" d="M129.817,216.953v4.716c0,2.163-1.742,3.905-3.875,3.905s-3.875-1.742-3.875-3.905v-4.716
						H129.817z"/>
					<path style="fill:#FEDE94;" d="M82.72,216.953v4.716c0,2.163-1.712,3.905-3.845,3.905S75,223.832,75,221.669v-4.716H82.72z"/>
					<path style="fill:#505967;" d="M200.613,189.019v11.864c0,0.27-0.21,0.481-0.481,0.481H54.035c-0.27,0-0.481-0.21-0.481-0.481
						v-11.864C53.555,189.019,200.613,189.019,200.613,189.019z"/>
					<path style="fill:#505967;" d="M118.043,152.314c0,5.557,4.475,10.062,10.002,10.062c5.527,0,10.002-4.505,10.002-10.062
						c0-5.557-4.475-10.062-10.002-10.062C122.518,142.252,118.043,146.758,118.043,152.314z M60.013,152.314
						c0,5.557,4.475,10.062,9.972,10.062c5.527,0,10.002-4.505,10.002-10.062c0-5.557-4.475-10.062-10.002-10.062
						C64.488,142.252,60.013,146.758,60.013,152.314z M186.105,162.377c5.527,0,10.002-4.505,10.002-10.062
						c0-5.557-4.475-10.062-10.002-10.062s-10.002,4.505-10.002,10.062C176.103,157.871,180.579,162.377,186.105,162.377z
						 M61.605,134.443h133.542c22.888,0,41.961,16.91,45.505,38.987H16.099C19.644,151.353,38.717,134.443,61.605,134.443z"/>
					<ellipse style="fill:#2D213F;" cx="186.105" cy="152.314" rx="10.002" ry="10.062"/>
					<path style="fill:#2D213F;" d="M158.081,55.237c2.643-3.364,7.539-3.965,10.873-1.292c0.991,0.781,24.45,19.764,22.617,49.5
						c-0.27,4.115-3.664,7.299-7.719,7.299c-0.15,0-0.33,0-0.481-0.03c-4.265-0.27-7.509-3.965-7.269-8.26
						c1.352-21.656-16.55-36.134-16.73-36.254C156.009,63.527,155.438,58.631,158.081,55.237z"/>
					<path style="fill:#EAEEEF;" d="M145.736,57.55c3.124,0,6.037-1.892,7.239-4.986c1.532-3.995-0.451-8.53-4.415-10.092
						l-1.472-0.571c-3.995-1.532-8.47,0.451-10.032,4.475c-1.532,3.995,0.451,8.53,4.445,10.062l1.442,0.571
						C143.874,57.369,144.805,57.55,145.736,57.55z M168.954,53.945c-3.334-2.673-8.23-2.073-10.873,1.292
						c-2.643,3.394-2.073,8.29,1.292,10.963c0.18,0.12,18.082,14.598,16.73,36.254c-0.24,4.295,3.004,7.99,7.269,8.26
						c0.15,0.03,0.33,0.03,0.481,0.03c4.055,0,7.449-3.184,7.719-7.299C193.404,73.709,169.946,54.726,168.954,53.945z
						 M127.084,31.148c40.549,0,73.529,33.22,73.529,74.07v13.937c-1.802-0.18-3.634-0.3-5.467-0.3H61.605
						c-2.733,0-5.407,0.24-8.05,0.601v-14.237C53.555,64.368,86.535,31.148,127.084,31.148z"/>
					<path style="fill:#2D213F;" d="M148.56,42.471c3.965,1.562,5.947,6.097,4.415,10.092c-1.201,3.094-4.115,4.986-7.239,4.986
						c-0.931,0-1.862-0.18-2.793-0.541l-1.442-0.571c-3.995-1.532-5.977-6.067-4.445-10.062c1.562-4.025,6.037-6.007,10.032-4.475
						L148.56,42.471z"/>
					<ellipse style="fill:#2D213F;" cx="128.045" cy="152.314" rx="10.002" ry="10.062"/>
					<path style="fill:#2D213F;" d="M79.987,152.314c0,5.557-4.475,10.062-10.002,10.062c-5.497,0-9.972-4.505-9.972-10.062
						c0-5.557,4.475-10.062,9.972-10.062C75.511,142.252,79.987,146.758,79.987,152.314z"/>
					<path style="fill:#2D213F;" d="M195.146,118.854c1.832,0,3.664,0.12,5.467,0.3v-13.937c0-40.849-32.98-74.07-73.529-74.07
						s-73.529,33.22-73.529,74.07v14.237c2.643-0.36,5.316-0.601,8.05-0.601C61.605,118.854,195.146,118.854,195.146,118.854z
						 M54.035,201.364h146.097c0.27,0,0.481-0.21,0.481-0.481v-11.864H53.555v11.864C53.555,201.153,53.765,201.364,54.035,201.364z
						 M256.721,180.909c0,4.295-3.454,8.11-7.719,8.11h-32.92v11.864c0,8.861-7.149,16.069-15.949,16.069h-6.788v4.716
						c0,10.753-8.681,19.494-19.343,19.494s-19.343-8.741-19.343-19.494v-4.716h-9.341v4.716c0,10.753-8.68,19.494-19.373,19.494
						c-10.663,0-19.343-8.741-19.343-19.494v-4.716h-8.38v4.716c0,10.753-8.681,19.494-19.343,19.494
						c-10.693,0-19.373-8.741-19.373-19.494v-4.716h-5.467c-8.801,0-15.979-7.209-15.979-16.069v-11.864H7.749
						c-4.265,0-7.749-3.484-7.749-7.779c0-26.072,15.739-48.298,38.056-57.64v-18.382c0-49.44,39.948-89.659,89.028-89.659
						s88.998,40.219,88.998,89.659v17.421C239.75,131.319,256.721,154.117,256.721,180.909z M16.099,173.43h224.552
						c-3.544-22.077-22.617-38.987-45.505-38.987H61.605C38.717,134.443,19.644,151.353,16.099,173.43z M177.875,221.668v-4.716
						h-7.749v4.716c0,2.163,1.742,3.905,3.875,3.905C176.133,225.573,177.875,223.831,177.875,221.668z M129.817,221.668v-4.716
						h-7.749v4.716c0,2.163,1.742,3.905,3.875,3.905S129.817,223.831,129.817,221.668z M82.72,221.668v-4.716h-7.719v4.716
						c0,2.163,1.742,3.905,3.875,3.905C81.008,225.573,82.72,223.831,82.72,221.668z"/>
				</g>
			</g>
		</g>
		<path style="fill:#C5CBCF;" d="M183.375,118.854l-92.911-10.75c-10.564-1.222-17.83-11.207-15.745-21.635l8.065-40.327
			c-17.742,13.534-29.228,34.971-29.228,59.076v14.237c2.643-0.36,5.316-0.601,8.05-0.601
			C61.605,118.854,183.375,118.854,183.375,118.854z"/>
		<path style="fill:#454D5B;" d="M92.23,165.212c-2.607-0.147-4.98-1.547-6.371-3.761l-5.899-9.389
			c0.003,0.084,0.024,0.162,0.024,0.249c0,5.557-4.475,10.062-10.002,10.062c-5.497,0-9.972-4.505-9.972-10.062
			c0-5.557,4.475-10.062,9.972-10.062c1.637,0,3.163,0.433,4.526,1.135l-5.62-8.945h-7.284c-22.888,0-41.961,16.91-45.505,38.987
			h221.683L92.23,165.212z"/>
		<path style="fill:#454D5B;" d="M67.594,189.019H53.555v11.864c0,0.27,0.21,0.481,0.481,0.481h122.401
			C138.269,197.792,92.488,192.073,67.594,189.019z"/>
	</g>
</g>
<g>
</g>
<g>
</g>
<g>
</g>
<g>
</g>
<g>
</g>
<g>
</g>
<g>
</g>
<g>
</g>
<g>
</g>
<g>
</g>
<g>
</g>
<g>
</g>
<g>
</g>
<g>
</g>
<g>
</g>
</svg>
