<svg id="Layer_1" data-name="Layer 1" xmlns="http://www.w3.org/2000/svg" viewBox="0 0 768 768"><defs><style>.cls-1{fill:#35556d;}.cls-2{fill:#1b75bc;}.cls-3{fill:#a9e870;}.cls-4{fill:#ff673a;}.cls-5{fill:#13aae5;}.cls-6{fill:#733fc4;}.cls-7{fill:#14a085;}.cls-8{fill:#f29c1f;}.cls-9{fill:#e57e25;}.cls-10{fill:#71c285;}.cls-11{fill:#808b8d;}</style></defs><title>datalogger</title><circle class="cls-1" cx="384" cy="384" r="384"/><path class="cls-2" d="M233,233l-46.21.44A59.36,59.36,0,0,0,128,292.82V535.62A59.36,59.36,0,0,0,187.36,595H580.58a59.36,59.36,0,0,0,59.36-59.36V292.38A59.36,59.36,0,0,0,580.58,233Z"/><polyline class="cls-3" points="176 276.5 176 558.5 590.5 558.5 590.5 276.5"/><circle class="cls-4" cx="232.75" cy="320.53" r="15.25"/><circle class="cls-5" cx="233" cy="413.53" r="15.25"/><circle class="cls-6" cx="233" cy="506.27" r="15.25"/><path class="cls-2" d="M233,233H533.5V198a25,25,0,0,0-25-25H258a25,25,0,0,0-25,25v35"/><rect class="cls-7" x="427.5" y="313" width="45" height="202.5"/><rect class="cls-8" x="360" y="452.5" width="45" height="63"/><rect class="cls-9" x="292.5" y="412" width="45" height="103.5"/><rect class="cls-10" x="495" y="349" width="45" height="166.5"/><path class="cls-11" d="M549,520H288a4.5,4.5,0,1,1,0-9H549a4.5,4.5,0,1,1,0,9Z"/></svg>