<svg id="Layer_1" data-name="Layer 1" xmlns="http://www.w3.org/2000/svg" xmlns:xlink="http://www.w3.org/1999/xlink" viewBox="0 0 320 320"><defs><style>.cls-1{fill:#35556d;}.cls-2{fill:#e1f5fe;}.cls-3{fill:url(#linear-gradient);}.cls-4{fill:#616161;}.cls-5{opacity:0.2;}.cls-6{fill:none;}.cls-7{fill:#424242;}</style><linearGradient id="linear-gradient" x1="167.34" y1="496.88" x2="159.59" y2="634.73" gradientTransform="translate(0 -390)" gradientUnits="userSpaceOnUse"><stop offset="0.6" stop-color="#ef5350"/><stop offset="1" stop-color="#e53935"/></linearGradient></defs><title>temperature</title><circle class="cls-1" cx="160.05" cy="162.81" r="160"/><path class="cls-2" d="M185.87,193.56v-133c0-13.51-10.6-25.56-24.31-25.56h-3.12c-13.51,0-24.52,12.05-24.52,25.56v133c-14.55,8.73-23.28,24.31-23.28,42a49.36,49.36,0,1,0,98.71,0A48.4,48.4,0,0,0,185.87,193.56Z"/><path class="cls-3" d="M173.4,205.2V76.15a13.39,13.39,0,0,0-13.3-13.3h0a13.39,13.39,0,0,0-13.3,13.3V205.2a33.25,33.25,0,1,0,26.6,0Z"/><path class="cls-4" d="M158.65,109.4H133.92V96.1h24.73a6.12,6.12,0,0,1,6.23,6.23v.83A6.25,6.25,0,0,1,158.65,109.4Z"/><path class="cls-4" d="M158.65,147.84H133.92v-13.3h24.73a6.12,6.12,0,0,1,6.23,6.23v.83A6.12,6.12,0,0,1,158.65,147.84Z"/><path class="cls-4" d="M158.65,186.5H133.92V173.2h24.73a6.12,6.12,0,0,1,6.23,6.23v.83A6.25,6.25,0,0,1,158.65,186.5Z"/><g class="cls-5"><path class="cls-6" d="M173.4,205.2V76.15a13.39,13.39,0,0,0-13.3-13.3h0a13.39,13.39,0,0,0-13.3,13.3V205.2a33.25,33.25,0,1,0,26.6,0Z"/></g><g class="cls-5"><path class="cls-7" d="M161.35,41.23c9.77,0,18.29,8.94,18.29,19.33v133a6.46,6.46,0,0,0,3.12,5.4c12.88,7.69,20.37,21.4,20.37,36.58a43.12,43.12,0,1,1-86.24,0A42.2,42.2,0,0,1,137.24,199a6.2,6.2,0,0,0,3.12-5.4v-133c0-10.39,8.31-19.33,18.29-19.33h2.49m.42-6.23h-3.12c-13.51,0-24.52,12.05-24.52,25.56v133c-14.55,8.73-23.28,24.31-23.28,42a49.36,49.36,0,1,0,98.71,0,48.4,48.4,0,0,0-23.48-42v-133c0-13.51-10.6-25.56-24.31-25.56Z"/></g></svg>