<svg id="Layer_1" data-name="Layer 1" xmlns="http://www.w3.org/2000/svg" xmlns:xlink="http://www.w3.org/1999/xlink" viewBox="0 0 320 320"><defs><style>.cls-1{fill:#35556d;}.cls-2{fill:#616161;}.cls-3{fill:#fff;}.cls-4{fill:#34bf8d;}.cls-5{fill:#f4d6a6;}.cls-6{fill:#449cd8;}.cls-7{fill:#efbf48;}.cls-8{fill:#54d1ad;}.cls-9{fill:#fcdd5b;}.cls-10{fill:#fff4c5;}.cls-11{fill:#63b0e5;}.cls-12{fill:#e84b4b;}.cls-13{fill:#c93d3d;}.cls-14{fill:#e1f5fe;}.cls-15{fill:url(#linear-gradient);}.cls-16{opacity:0.2;}.cls-17{fill:none;}.cls-18{fill:#424242;}</style><linearGradient id="linear-gradient" x1="262.08" y1="-203.76" x2="258.23" y2="-272.2" gradientTransform="matrix(1, 0, 0, -1, 0, -68)" gradientUnits="userSpaceOnUse"><stop offset="0.6" stop-color="#ef5350"/><stop offset="1" stop-color="#e53935"/></linearGradient></defs><title>temp_gps</title><circle class="cls-1" cx="160" cy="160" r="160"/><path class="cls-2" d="M249.34,128.49H229.83V118h19.51a4.83,4.83,0,0,1,4.91,4.74q0,.09,0,.18v.65A4.93,4.93,0,0,1,249.34,128.49Z" transform="translate(-0.05 0.19)"/><polygon class="cls-3" points="196.95 100.29 195.72 100.29 159.95 124.96 124.18 100.29 122.95 100.29 69.5 116.74 69.5 227.75 122.95 240.08 159.95 231.86 196.95 240.08 250.4 227.75 250.4 116.74 196.95 100.29"/><polygon class="cls-4" points="238.07 211.3 238.07 219.53 196.95 227.75 196.95 200.61 201.89 196.09 238.07 211.3"/><polygon class="cls-5" points="238.07 161.97 238.07 203.08 207.64 190.33 238.07 161.97"/><polygon class="cls-6" points="238.07 124.96 238.07 149.63 199.01 186.63 196.95 185.81 196.95 112.63 238.07 124.96"/><polygon class="cls-7" points="238.07 149.63 199.01 186.63 196.95 185.81 196.95 188.69 196.95 194.03 196.95 200.61 201.89 196.09 238.07 211.3 238.07 203.08 207.64 190.33 238.07 161.97 238.07 149.63"/><polygon class="cls-8" points="196.95 200.61 196.95 227.75 173.52 222.4 196.95 200.61"/><polygon class="cls-9" points="159.95 170.19 159.95 178.41 192.84 192.39 163.65 220.35 173.52 222.4 196.95 200.61 196.95 194.03 196.95 188.69 196.95 185.81 159.95 170.19"/><polygon class="cls-8" points="192.84 192.39 163.65 220.35 159.95 219.53 159.95 178.41 192.84 192.39"/><polygon class="cls-4" points="159.95 178.41 159.95 219.53 122.95 227.75 122.95 162.79 159.95 178.41"/><polygon class="cls-7" points="159.95 170.19 159.95 178.41 122.95 162.79 122.95 154.56 159.95 170.19"/><polygon class="cls-5" points="159.95 170.19 122.95 154.56 122.95 112.63 159.95 137.3 159.95 170.19"/><polygon class="cls-8" points="122.95 162.79 122.95 227.75 81.83 219.53 81.83 145.52 122.95 162.79"/><polygon class="cls-9" points="122.95 154.56 122.95 162.79 81.83 145.52 81.83 137.3 122.95 154.56"/><polygon class="cls-10" points="122.95 112.63 122.95 154.56 81.83 137.3 81.83 124.96 122.95 112.63"/><polygon class="cls-11" points="187.5 118.79 187.5 118.79 159.95 137.3 159.95 153.74 159.95 157.85 159.95 170.19 196.95 185.81 196.95 112.63 187.5 118.79"/><path class="cls-12" d="M160,54.88a36.85,36.85,0,0,0-37,37,28.49,28.49,0,0,0,1.23,8.22,73,73,0,0,0,8.22,18.5c9.46,15.62,23.44,29.6,27.55,34.95,4.11-4.93,18.09-19.32,27.55-34.95,3.7-6.17,7-12.33,8.22-18.5A30.71,30.71,0,0,0,197,91.88,36.85,36.85,0,0,0,160,54.88Zm0,49.34a12.33,12.33,0,1,1,12.33-12.33A12.11,12.11,0,0,1,160,104.21Z" transform="translate(-0.05 0.19)"/><path class="cls-13" d="M147.67,91.88A12.33,12.33,0,1,0,160,79.54,12.11,12.11,0,0,0,147.67,91.88Zm-8.22,0A20.56,20.56,0,1,1,160,112.44,20.36,20.36,0,0,1,139.44,91.88Z" transform="translate(-0.05 0.19)"/><path class="cls-14" d="M271.28,178.8v-66c0-6.71-5.26-12.69-12.07-12.69h-1.55c-6.71,0-12.17,6-12.17,12.69v66a23.94,23.94,0,0,0-11.56,20.85,24.51,24.51,0,1,0,49,.7q0-.35,0-.7A24,24,0,0,0,271.28,178.8Z" transform="translate(-0.05 0.19)"/><path class="cls-15" d="M265.09,184.57V120.51a6.65,6.65,0,0,0-6.6-6.6h0a6.65,6.65,0,0,0-6.6,6.6v64.07a16.51,16.51,0,1,0,13.21,0Z" transform="translate(-0.05 0.19)"/><path class="cls-2" d="M267,137.93H252.4V130H267a3.63,3.63,0,0,1,3.69,3.56s0,.09,0,.13v.49A3.7,3.7,0,0,1,267,137.93Z" transform="translate(-0.05 0.19)"/><path class="cls-2" d="M267,160.7H252.4v-7.88H267a3.63,3.63,0,0,1,3.69,3.56s0,.09,0,.13V157a3.63,3.63,0,0,1-3.55,3.7Z" transform="translate(-0.05 0.19)"/><g class="cls-16"><path class="cls-17" d="M265.09,184.57V120.51a6.65,6.65,0,0,0-6.6-6.6h0a6.65,6.65,0,0,0-6.6,6.6v64.07a16.51,16.51,0,1,0,13.21,0Z" transform="translate(-0.05 0.19)"/></g><g class="cls-16"><path class="cls-18" d="M259.1,103.17c4.85,0,9.08,4.44,9.08,9.6v66a3.21,3.21,0,0,0,1.55,2.68,20.86,20.86,0,0,1,10.11,18.16,21.41,21.41,0,1,1-42.82,0h0a21,21,0,0,1,10.1-18.14,3.08,3.08,0,0,0,1.55-2.68v-66c0-5.16,4.13-9.6,9.08-9.6H259m.21-3.09h-1.55c-6.71,0-12.17,6-12.17,12.69v66a23.94,23.94,0,0,0-11.56,20.85,24.51,24.51,0,1,0,49,.7q0-.35,0-.7a24,24,0,0,0-11.66-20.85v-66c0-6.71-5.26-12.69-12.07-12.69Z" transform="translate(-0.05 0.19)"/></g></svg>