<?xml version="1.0" encoding="utf-8"?>
<!-- Generator: Adobe Illustrator 21.0.2, SVG Export Plug-In . SVG Version: 6.00 Build 0)  -->
<svg version="1.1" id="Layer_1" xmlns="http://www.w3.org/2000/svg" xmlns:xlink="http://www.w3.org/1999/xlink" x="0px" y="0px"
	 viewBox="0 0 482.2 482.2" style="enable-background:new 0 0 482.2 482.2;" xml:space="preserve">
<style type="text/css">
	.st0{fill:#324A5E;}
	.st1{fill:#FFFFFF;}
	.st2{fill:none;stroke:#FCFCFC;stroke-width:7.65;stroke-miterlimit:10;}
</style>
<circle class="st0" cx="241.1" cy="241.1" r="241.1"/>
<g>
	<g>
		<circle class="st1" cx="210.7" cy="182.1" r="29.3"/>
		<circle class="st1" cx="275.2" cy="210.2" r="17.6"/>
		<circle class="st1" cx="242.9" cy="260.3" r="38.2"/>
		<circle class="st1" cx="146.7" cy="236.9" r="26.9"/>
		<circle class="st1" cx="195.5" cy="229.9" r="15.5"/>
		<circle class="st1" cx="165.8" cy="185.6" r="11"/>
		<circle class="st1" cx="161.2" cy="128.2" r="37.3"/>
		<circle class="st1" cx="228.5" cy="126.8" r="23"/>
		<circle class="st1" cx="307.7" cy="133.7" r="48.3"/>
		<circle class="st1" cx="248.6" cy="158.8" r="11.1"/>
		<circle class="st1" cx="250.8" cy="191" r="8.9"/>
		<circle class="st1" cx="267.6" cy="177.8" r="7.8"/>
		<circle class="st1" cx="334.4" cy="223.8" r="39.4"/>
		<circle class="st1" cx="286.2" cy="238.1" r="7.5"/>
		<circle class="st1" cx="311.6" cy="298.2" r="33.6"/>
		<circle class="st1" cx="172.1" cy="318.7" r="17.1"/>
		<circle class="st1" cx="230.3" cy="337.7" r="34.7"/>
		<circle class="st1" cx="182.6" cy="276.4" r="21.8"/>
		<circle class="st1" cx="108.3" cy="182.1" r="32.8"/>
		<circle class="st1" cx="90" cy="241.5" r="23.1"/>
		<circle class="st1" cx="71.3" cy="210.7" r="7.8"/>
		<circle class="st1" cx="206.4" cy="86.8" r="17.7"/>
		<circle class="st1" cx="177.5" cy="83.6" r="7.8"/>
		<circle class="st1" cx="109.3" cy="133.2" r="11.1"/>
		<circle class="st1" cx="109.4" cy="303.5" r="37.3"/>
		<circle class="st1" cx="150.3" cy="276.3" r="7.5"/>
		<circle class="st1" cx="147" cy="357.8" r="22.7"/>
		<circle class="st1" cx="109.6" cy="355.7" r="11.3"/>
		<circle class="st1" cx="68.6" cy="272" r="11.7"/>
		<circle class="st1" cx="187.6" cy="389.8" r="23.4"/>
		<circle class="st1" cx="184" cy="351.6" r="10.7"/>
		<circle class="st1" cx="152.5" cy="393.3" r="8.3"/>
		<circle class="st1" cx="286.6" cy="352.2" r="20.2"/>
		<circle class="st1" cx="268.3" cy="310.1" r="8.6"/>
		<circle class="st1" cx="227.2" cy="408.2" r="16.4"/>
		<circle class="st1" cx="222.8" cy="381.5" r="8.8"/>
		<circle class="st1" cx="272.1" cy="396.2" r="23.6"/>
		<circle class="st1" cx="251.2" cy="418.9" r="5.7"/>
		<circle class="st1" cx="244.2" cy="380" r="6.7"/>
		<circle class="st1" cx="252.1" cy="82.5" r="24.9"/>
		<circle class="st1" cx="288.3" cy="76.6" r="7.3"/>
		<circle class="st1" cx="373.3" cy="143.7" r="15.1"/>
		<circle class="st1" cx="363.4" cy="117.9" r="7.5"/>
		<circle class="st1" cx="377.3" cy="180" r="17.6"/>
		<circle class="st1" cx="349.4" cy="177.2" r="7.2"/>
		<circle class="st1" cx="401.3" cy="230.6" r="24"/>
		<circle class="st1" cx="406.3" cy="191.6" r="11.6"/>
		<circle class="st1" cx="394.8" cy="159.3" r="6.4"/>
		<circle class="st1" cx="376" cy="265.2" r="14.6"/>
		<circle class="st1" cx="357.2" cy="358.6" r="14.6"/>
		<circle class="st1" cx="373.9" cy="314.5" r="29.5"/>
		<circle class="st1" cx="351.5" cy="275.5" r="9.4"/>
		<circle class="st1" cx="404.1" cy="269.4" r="12.3"/>
		<circle class="st1" cx="407.9" cy="295" r="6.6"/>
		<circle class="st1" cx="335.5" cy="341.8" r="9.9"/>
		<circle class="st1" cx="314.5" cy="344.7" r="6.9"/>
		<circle class="st1" cx="327.1" cy="368.4" r="15.5"/>
		<circle class="st1" cx="310.7" cy="397" r="13.3"/>
		<circle class="st1" cx="303.3" cy="376.8" r="6.6"/>
		<circle class="st1" cx="333.6" cy="393.6" r="6.4"/>
		<circle class="st1" cx="348.9" cy="380.3" r="3.7"/>
		<circle class="st1" cx="379.8" cy="350.9" r="2.5"/>
	</g>
	<circle class="st2" cx="241.1" cy="241.1" r="207.5"/>
</g>
</svg>
