<?xml version="1.0" encoding="UTF-8" standalone="no"?>
<svg
   xmlns:dc="http://purl.org/dc/elements/1.1/"
   xmlns:cc="http://creativecommons.org/ns#"
   xmlns:rdf="http://www.w3.org/1999/02/22-rdf-syntax-ns#"
   xmlns:svg="http://www.w3.org/2000/svg"
   xmlns="http://www.w3.org/2000/svg"
   xmlns:sodipodi="http://sodipodi.sourceforge.net/DTD/sodipodi-0.dtd"
   xmlns:inkscape="http://www.inkscape.org/namespaces/inkscape"
   id="Layer_1"
   data-name="Layer 1"
   viewBox="0 0 320 320"
   version="1.1"
   sodipodi:docname="vehicle_tracker.svg"
   inkscape:version="0.92.3 (2405546, 2018-03-11)">
  <metadata
     id="metadata70">
    <rdf:RDF>
      <cc:Work
         rdf:about="">
        <dc:format>image/svg+xml</dc:format>
        <dc:type
           rdf:resource="http://purl.org/dc/dcmitype/StillImage" />
        <dc:title>temp_gps</dc:title>
      </cc:Work>
    </rdf:RDF>
  </metadata>
  <sodipodi:namedview
     pagecolor="#ffffff"
     bordercolor="#666666"
     borderopacity="1"
     objecttolerance="10"
     gridtolerance="10"
     guidetolerance="10"
     inkscape:pageopacity="0"
     inkscape:pageshadow="2"
     inkscape:window-width="1920"
     inkscape:window-height="1017"
     id="namedview68"
     showgrid="false"
     inkscape:zoom="1.0429825"
     inkscape:cx="198.9068"
     inkscape:cy="103.21701"
     inkscape:window-x="-8"
     inkscape:window-y="-8"
     inkscape:window-maximized="1"
     inkscape:current-layer="Layer_1" />
  <defs
     id="defs9">
    <style
       id="style2">.cls-1{fill:#35556d;}.cls-2{fill:#616161;}.cls-3{fill:#fff;}.cls-4{fill:#34bf8d;}.cls-5{fill:#f4d6a6;}.cls-6{fill:#449cd8;}.cls-7{fill:#efbf48;}.cls-8{fill:#54d1ad;}.cls-9{fill:#fcdd5b;}.cls-10{fill:#fff4c5;}.cls-11{fill:#63b0e5;}.cls-12{fill:#e84b4b;}.cls-13{fill:#c93d3d;}.cls-14{fill:#e1f5fe;}.cls-15{fill:url(#linear-gradient);}.cls-16{opacity:0.2;}.cls-17{fill:none;}.cls-18{fill:#424242;}</style>
    <linearGradient
       id="linear-gradient"
       x1="262.08"
       y1="-203.76"
       x2="258.23"
       y2="-272.2"
       gradientTransform="matrix(1,0,0,-1,518.32068,-62.261525)"
       gradientUnits="userSpaceOnUse">
      <stop
         offset="0.6"
         stop-color="#ef5350"
         id="stop4" />
      <stop
         offset="1"
         stop-color="#e53935"
         id="stop6" />
    </linearGradient>
  </defs>
  <title
     id="title11">temp_gps</title>
  <circle
     class="cls-1"
     cx="160"
     cy="160"
     r="160"
     id="circle13" />
  <path
     class="cls-2"
     d="M249.34,128.49H229.83V118h19.51a4.83,4.83,0,0,1,4.91,4.74q0,.09,0,.18v.65A4.93,4.93,0,0,1,249.34,128.49Z"
     transform="translate(-0.05 0.19)"
     id="path15" />
  <polygon
     class="cls-3"
     points="196.95 100.29 195.72 100.29 159.95 124.96 124.18 100.29 122.95 100.29 69.5 116.74 69.5 227.75 122.95 240.08 159.95 231.86 196.95 240.08 250.4 227.75 250.4 116.74 196.95 100.29"
     id="polygon17" />
  <polygon
     class="cls-4"
     points="238.07 211.3 238.07 219.53 196.95 227.75 196.95 200.61 201.89 196.09 238.07 211.3"
     id="polygon19" />
  <polygon
     class="cls-5"
     points="238.07 161.97 238.07 203.08 207.64 190.33 238.07 161.97"
     id="polygon21" />
  <polygon
     class="cls-6"
     points="238.07 124.96 238.07 149.63 199.01 186.63 196.95 185.81 196.95 112.63 238.07 124.96"
     id="polygon23" />
  <polygon
     class="cls-7"
     points="238.07 149.63 199.01 186.63 196.95 185.81 196.95 188.69 196.95 194.03 196.95 200.61 201.89 196.09 238.07 211.3 238.07 203.08 207.64 190.33 238.07 161.97 238.07 149.63"
     id="polygon25" />
  <polygon
     class="cls-8"
     points="196.95 200.61 196.95 227.75 173.52 222.4 196.95 200.61"
     id="polygon27" />
  <polygon
     class="cls-9"
     points="159.95 170.19 159.95 178.41 192.84 192.39 163.65 220.35 173.52 222.4 196.95 200.61 196.95 194.03 196.95 188.69 196.95 185.81 159.95 170.19"
     id="polygon29" />
  <polygon
     class="cls-8"
     points="192.84 192.39 163.65 220.35 159.95 219.53 159.95 178.41 192.84 192.39"
     id="polygon31" />
  <polygon
     class="cls-4"
     points="159.95 178.41 159.95 219.53 122.95 227.75 122.95 162.79 159.95 178.41"
     id="polygon33" />
  <polygon
     class="cls-7"
     points="159.95 170.19 159.95 178.41 122.95 162.79 122.95 154.56 159.95 170.19"
     id="polygon35" />
  <polygon
     class="cls-5"
     points="159.95 170.19 122.95 154.56 122.95 112.63 159.95 137.3 159.95 170.19"
     id="polygon37" />
  <polygon
     class="cls-8"
     points="122.95 162.79 122.95 227.75 81.83 219.53 81.83 145.52 122.95 162.79"
     id="polygon39" />
  <polygon
     class="cls-9"
     points="122.95 154.56 122.95 162.79 81.83 145.52 81.83 137.3 122.95 154.56"
     id="polygon41" />
  <polygon
     class="cls-10"
     points="122.95 112.63 122.95 154.56 81.83 137.3 81.83 124.96 122.95 112.63"
     id="polygon43" />
  <polygon
     class="cls-11"
     points="187.5 118.79 187.5 118.79 159.95 137.3 159.95 153.74 159.95 157.85 159.95 170.19 196.95 185.81 196.95 112.63 187.5 118.79"
     id="polygon45" />
  <path
     class="cls-12"
     d="M160,54.88a36.85,36.85,0,0,0-37,37,28.49,28.49,0,0,0,1.23,8.22,73,73,0,0,0,8.22,18.5c9.46,15.62,23.44,29.6,27.55,34.95,4.11-4.93,18.09-19.32,27.55-34.95,3.7-6.17,7-12.33,8.22-18.5A30.71,30.71,0,0,0,197,91.88,36.85,36.85,0,0,0,160,54.88Zm0,49.34a12.33,12.33,0,1,1,12.33-12.33A12.11,12.11,0,0,1,160,104.21Z"
     transform="translate(-0.05 0.19)"
     id="path47" />
  <path
     class="cls-13"
     d="M147.67,91.88A12.33,12.33,0,1,0,160,79.54,12.11,12.11,0,0,0,147.67,91.88Zm-8.22,0A20.56,20.56,0,1,1,160,112.44,20.36,20.36,0,0,1,139.44,91.88Z"
     transform="translate(-0.05 0.19)"
     id="path49" />
  <path
     class="cls-14"
     d="m 802.75542,214.24424 v -66 c 0,-6.71 -5.26,-12.69 -12.07,-12.69 h -1.55 c -6.71,0 -12.17,6 -12.17,12.69 v 66 a 23.94,23.94 0 0 0 -11.56,20.85 24.51,24.51 0 1 0 49,0.7 q 0,-0.35 0,-0.7 a 24,24 0 0 0 -11.65,-20.85 z"
     id="path51"
     inkscape:connector-curvature="0"
     style="fill:#e1f5fe" />
  <path
     class="cls-15"
     d="m 783.41068,190.30847 v -64.06 a 6.65,6.65 0 0 0 -6.6,-6.6 v 0 a 6.65,6.65 0 0 0 -6.6,6.6 v 64.07 a 16.51,16.51 0 1 0 13.21,0 z"
     id="path53"
     style="fill:url(#linear-gradient)"
     inkscape:connector-curvature="0" />
  <path
     class="cls-2"
     d="m 691.35678,132.69627 h -14.6 v -7.93 h 14.6 a 3.63,3.63 0 0 1 3.69,3.56 c 0,0 0,0.09 0,0.13 v 0.49 a 3.7,3.7 0 0 1 -3.69,3.75 z"
     id="path55"
     inkscape:connector-curvature="0"
     style="fill:#616161" />
  <path
     class="cls-2"
     d="m 653.39068,156.8222 h -14.6 v -7.88 h 14.6 a 3.63,3.63 0 0 1 3.69,3.56 c 0,0 0,0.09 0,0.13 v 0.49 a 3.63,3.63 0 0 1 -3.55,3.7 z"
     id="path57"
     inkscape:connector-curvature="0"
     style="fill:#616161" />
  <g
     class="cls-16"
     id="g61">
    <path
       class="cls-17"
       d="M265.09,184.57V120.51a6.65,6.65,0,0,0-6.6-6.6h0a6.65,6.65,0,0,0-6.6,6.6v64.07a16.51,16.51,0,1,0,13.21,0Z"
       transform="translate(-0.05 0.19)"
       id="path59" />
  </g>
  <g
     class="cls-16"
     id="g65"
     transform="translate(546.44068,-9.4915254)"
     style="opacity:0.2">
    <path
       class="cls-18"
       d="m 259.1,103.17 c 4.85,0 9.08,4.44 9.08,9.6 v 66 a 3.21,3.21 0 0 0 1.55,2.68 20.86,20.86 0 0 1 10.11,18.16 21.41,21.41 0 1 1 -42.82,0 v 0 a 21,21 0 0 1 10.1,-18.14 3.08,3.08 0 0 0 1.55,-2.68 v -66 c 0,-5.16 4.13,-9.6 9.08,-9.6 H 259 m 0.21,-3.09 h -1.55 c -6.71,0 -12.17,6 -12.17,12.69 v 66 a 23.94,23.94 0 0 0 -11.56,20.85 24.51,24.51 0 1 0 49,0.7 q 0,-0.35 0,-0.7 a 24,24 0 0 0 -11.66,-20.85 v -66 c 0,-6.71 -5.26,-12.69 -12.07,-12.69 z"
       transform="translate(-0.05,0.19)"
       id="path63"
       inkscape:connector-curvature="0"
       style="fill:#424242" />
  </g>
  <g
     id="g944"
     transform="matrix(1.600087,0,0,2.0706276,214.03791,109.30606)">
    <path
       id="path880"
       d="M 41.536,58 H 16.464 C 15.103,58 14,56.897 14,55.536 V 6.464 C 14,5.103 15.103,4 16.464,4 H 41.536 C 42.897,4 44,5.103 44,6.464 V 55.536 C 44,56.897 42.897,58 41.536,58 Z"
       style="fill:#424a60"
       inkscape:connector-curvature="0" />
    <rect
       id="rect882"
       height="4"
       width="10"
       style="fill:#d8a852"
       x="24"
       y="0" />
    <path
       id="path884"
       d="M 36,29 H 32 V 16.068 C 32.012,16.01 31.936,15.976 31.9,16.022 L 22,32 h 5 l 0.002,13.929 c -0.016,0.059 0.06,0.097 0.098,0.05 z"
       style="fill:#efce4a"
       inkscape:connector-curvature="0" />
    <path
       id="path886"
       d="M 41.536,4 H 16.464 C 15.103,4 14,5.103 14,6.464 V 13 H 44 V 6.464 C 44,5.103 42.897,4 41.536,4 Z"
       style="fill:#ea6248"
       inkscape:connector-curvature="0" />
    <g
       id="g888">
</g>
    <g
       id="g890">
</g>
    <g
       id="g892">
</g>
    <g
       id="g894">
</g>
    <g
       id="g896">
</g>
    <g
       id="g898">
</g>
    <g
       id="g900">
</g>
    <g
       id="g902">
</g>
    <g
       id="g904">
</g>
    <g
       id="g906">
</g>
    <g
       id="g908">
</g>
    <g
       id="g910">
</g>
    <g
       id="g912">
</g>
    <g
       id="g914">
</g>
    <g
       id="g916">
</g>
  </g>
</svg>
