<svg id="Layer_2" data-name="Layer 2" xmlns="http://www.w3.org/2000/svg" viewBox="0 0 320 320"><defs><style>.cls-1{fill:#35556d;}.cls-2{fill:#a2a7ac;}.cls-3{fill:#00b1e2;}.cls-4{fill:#36404a;}.cls-5{fill:#d0d2d2;}.cls-6{fill:#fff;}.cls-7{fill:#00a1cc;}.cls-8{fill:#0070cd;}.cls-9{fill:#283138;}</style></defs><title>waterlevel</title><circle class="cls-1" cx="160" cy="160" r="160"/><path class="cls-2" d="M97.41,165.9l.49-73.38a7.06,7.06,0,0,1,7.06-7H215.05a7.06,7.06,0,0,1,7.06,7.06v73.38a7.06,7.06,0,0,1-7.06,7.06H104.47A7.06,7.06,0,0,1,97.41,165.9Z"/><path class="cls-3" d="M161.5,35.15a2.58,2.58,0,0,0-2.78,0L90.56,78.59,79.34,85.75a2.58,2.58,0,0,0,1.39,4.76H239.27a2.58,2.58,0,0,0,1.39-4.76Z"/><polygon class="cls-4" points="205.36 267.26 188.86 173.01 205.36 173.01 222.11 267.26 205.36 267.26"/><polygon class="cls-4" points="131.61 173.01 115.36 267.26 97.36 267.26 114.86 173.01 131.61 173.01"/><rect class="cls-2" x="85.11" y="267.26" width="39.25" height="18" rx="2.17" ry="2.17"/><rect class="cls-2" x="195.11" y="267.26" width="40.75" height="18" rx="2.17" ry="2.17"/><rect class="cls-5" x="97.75" y="115.26" width="124.36" height="34.25"/><circle class="cls-6" cx="160.11" cy="130.26" r="34"/><circle class="cls-2" cx="112.61" cy="132.38" r="5"/><circle class="cls-2" cx="207.38" cy="132.38" r="5"/><polygon class="cls-7" points="90.56 78.59 229.47 78.59 214.49 69.01 105.59 69.01 90.56 78.59"/><polygon class="cls-7" points="125.46 56.35 194.67 56.35 180.69 47.41 139.95 47.11 125.46 56.35"/><path class="cls-8" d="M159.74,151.29a14.52,14.52,0,0,0,14.5-14.5c0-7.83-13.59-25.61-14.17-26.36l-.33-.43-.33.43c-.58.75-14.17,18.53-14.17,26.36A14.52,14.52,0,0,0,159.74,151.29Zm0-39.91,0,39.07"/><path class="cls-4" d="M215.86,217.76H104a6.27,6.27,0,0,1-6.25-6.25h0a6.27,6.27,0,0,1,6.25-6.25H215.86a6.27,6.27,0,0,1,6.25,6.25h0A6.27,6.27,0,0,1,215.86,217.76Z"/><polygon class="cls-9" points="105.77 221.99 123.17 221.99 123.9 217.76 106.56 217.76 105.77 221.99"/><rect class="cls-9" x="152.62" y="217.76" width="15" height="4.23"/><polygon class="cls-9" points="196.7 217.76 197.44 221.99 214.07 221.99 212.61 217.76 196.7 217.76"/><rect class="cls-4" x="152.62" y="173.01" width="15" height="112.25"/></svg>