<?xml version="1.0" encoding="iso-8859-1"?>
<!-- Generator: Adobe Illustrator 19.0.0, SVG Export Plug-In . SVG Version: 6.00 Build 0)  -->
<svg version="1.1" id="Capa_1" xmlns="http://www.w3.org/2000/svg" xmlns:xlink="http://www.w3.org/1999/xlink" x="0px" y="0px"
	 viewBox="0 0 512 512" style="enable-background:new 0 0 512 512;" xml:space="preserve">
<circle style="fill:#FFCD00;" cx="256" cy="256" r="256"/>
<path style="fill:#FF8E00;" d="M512,256c0-7.137-0.306-14.202-0.879-21.191L403.333,127.022L108.667,384.978L234.809,511.12
	c6.989,0.574,14.054,0.88,21.191,0.88C397.385,512,512,397.385,512,256z"/>
<polygon style="fill:#D1E8FF;" points="403.333,200.441 244.48,188.922 256,384.979 403.333,384.979 "/>
<polygon style="fill:#F5F5FF;" points="108.666,200.441 108.666,384.979 256,384.979 256,188.922 "/>
<polygon style="fill:#6283A3;" points="403.333,127.021 256,127.021 244.48,163.731 256,200.441 403.333,200.441 "/>
<rect x="108.67" y="127.02" style="fill:#9ABADB;" width="147.33" height="73.42"/>
<rect x="136.2" y="155.1" style="fill:#FF0099;" width="18.355" height="17.266"/>
<rect x="172.91" y="155.1" style="fill:#FFED94;" width="18.355" height="17.266"/>
<rect x="209.62" y="155.1" style="fill:#0093C4;" width="18.355" height="17.266"/>
<polygon style="fill:#FF0099;" points="256.015,348.298 280.488,348.298 280.488,292.71 244.495,281.19 "/>
<polygon style="fill:#FF68A5;" points="231.541,292.71 231.541,348.298 256.015,348.298 256.015,281.19 "/>
<polygon style="fill:#FF0099;" points="317.198,273.832 317.198,348.298 366.144,348.298 366.144,273.832 341.671,262.312 "/>
<g>
	<rect x="317.2" y="237.12" style="fill:#FF8E00;" width="48.947" height="36.71"/>
	<polygon style="fill:#FF8E00;" points="256.015,237.122 244.495,264.916 256.015,292.71 280.488,292.71 280.488,237.122 	"/>
</g>
<polygon style="fill:#FF68A5;" points="145.856,348.298 194.802,348.298 194.802,311.588 170.329,300.068 145.856,311.588 "/>
<g>
	<rect x="145.86" y="237.12" style="fill:#FFCD00;" width="48.947" height="74.47"/>
	<rect x="231.54" y="237.12" style="fill:#FFCD00;" width="24.473" height="55.59"/>
</g>
<g>
</g>
<g>
</g>
<g>
</g>
<g>
</g>
<g>
</g>
<g>
</g>
<g>
</g>
<g>
</g>
<g>
</g>
<g>
</g>
<g>
</g>
<g>
</g>
<g>
</g>
<g>
</g>
<g>
</g>
</svg>
