<?xml version="1.0" encoding="UTF-8" standalone="no"?>
<svg
   xmlns:dc="http://purl.org/dc/elements/1.1/"
   xmlns:cc="http://creativecommons.org/ns#"
   xmlns:rdf="http://www.w3.org/1999/02/22-rdf-syntax-ns#"
   xmlns:svg="http://www.w3.org/2000/svg"
   xmlns="http://www.w3.org/2000/svg"
   id="svg8"
   version="1.1"
   viewBox="0 0 135.46666 135.46666"
   height="135.46666mm"
   width="135.46666mm">
  <defs
     id="defs2" />
  <metadata
     id="metadata5">
    <rdf:RDF>
      <cc:Work
         rdf:about="">
        <dc:format>image/svg+xml</dc:format>
        <dc:type
           rdf:resource="http://purl.org/dc/dcmitype/StillImage" />
        <dc:title></dc:title>
      </cc:Work>
    </rdf:RDF>
  </metadata>
  <g
     transform="translate(-0.1531275,0.05058735)"
     id="layer1">
    <circle
       id="circle3713"
       r="67.73333"
       cy="67.682747"
       cx="67.886459"
       style="fill:#ffcd00;stroke-width:0.26458332" />
    <g
       transform="matrix(0.26458333,0,0,0.26458333,3.8572943,1.007746)"
       id="g3741">
	<rect
   id="rect3737"
   height="36.709999"
   width="48.946999"
   style="fill:#ff8e00"
   y="237.12"
   x="317.20001" />

	<polygon
   id="polygon3739"
   points="244.495,264.916 256.015,292.71 280.488,292.71 280.488,237.122 256.015,237.122 "
   style="fill:#ff8e00" />

</g>
    <g
       transform="matrix(0.26458333,0,0,0.26458333,0.1531275,-0.05058735)"
       id="g3751">
</g>
    <g
       transform="matrix(0.26458333,0,0,0.26458333,0.1531275,-0.05058735)"
       id="g3753">
</g>
    <g
       transform="matrix(0.26458333,0,0,0.26458333,0.1531275,-0.05058735)"
       id="g3755">
</g>
    <g
       transform="matrix(0.26458333,0,0,0.26458333,0.1531275,-0.05058735)"
       id="g3757">
</g>
    <g
       transform="matrix(0.26458333,0,0,0.26458333,0.1531275,-0.05058735)"
       id="g3759">
</g>
    <g
       transform="matrix(0.26458333,0,0,0.26458333,0.1531275,-0.05058735)"
       id="g3761">
</g>
    <g
       transform="matrix(0.26458333,0,0,0.26458333,0.1531275,-0.05058735)"
       id="g3763">
</g>
    <g
       transform="matrix(0.26458333,0,0,0.26458333,0.1531275,-0.05058735)"
       id="g3765">
</g>
    <g
       transform="matrix(0.26458333,0,0,0.26458333,0.1531275,-0.05058735)"
       id="g3767">
</g>
    <g
       transform="matrix(0.26458333,0,0,0.26458333,0.1531275,-0.05058735)"
       id="g3769">
</g>
    <g
       transform="matrix(0.26458333,0,0,0.26458333,0.1531275,-0.05058735)"
       id="g3771">
</g>
    <g
       transform="matrix(0.26458333,0,0,0.26458333,0.1531275,-0.05058735)"
       id="g3773">
</g>
    <g
       transform="matrix(0.26458333,0,0,0.26458333,0.1531275,-0.05058735)"
       id="g3775">
</g>
    <g
       transform="matrix(0.26458333,0,0,0.26458333,0.1531275,-0.05058735)"
       id="g3777">
</g>
    <g
       transform="matrix(0.26458333,0,0,0.26458333,0.1531275,-0.05058735)"
       id="g3779">
</g>
    <path
       id="path3824"
       class=""
       data-original="#58B8E2"
       d="M 39.640703,118.98193 H 21.08273 c -1.975204,0 -3.575029,-1.58183 -3.575029,-3.53481 V 16.472509 c 0,-1.952981 1.599825,-3.534807 3.575029,-3.534807 h 66.138029 c 1.975204,0 3.575029,1.581826 3.575029,3.534807 v 39.702957 c 0,0.798866 -0.27349,1.572989 -0.773994,2.196882 L 42.441738,117.644 c -0.677468,0.84482 -1.708863,1.33793 -2.801035,1.33793 z"
       style="fill:#58b8e2;stroke-width:0.22217882" />
    <path
       id="path3826"
       class=""
       data-original="#FDC567"
       d="M 83.645731,108.37751 H 24.657758 c -0.986708,0 -1.787514,-0.7918 -1.787514,-1.76741 V 21.77472 c 0,-0.975606 0.800806,-1.767403 1.787514,-1.767403 h 58.987973 c 0.986708,0 1.787514,0.791797 1.787514,1.767403 v 84.83538 c 0,0.97561 -0.800806,1.76741 -1.787514,1.76741 z"
       style="fill:#fdc567;stroke-width:0.22217882" />
    <path
       id="path3828"
       class=""
       data-original="#FD5B60"
       d="M 72.920645,28.844335 H 37.170359 c -1.975204,0 -3.575029,-1.581826 -3.575029,-3.534807 V 12.937702 h 42.900344 v 12.371826 c 0,1.952981 -1.599826,3.534807 -3.575029,3.534807 z"
       style="fill:#fd5b60;stroke-width:0.22217882" />
    <g
       transform="matrix(0.22343929,0,0,0.22092546,17.507701,12.937702)"
       id="g3846">
	<path
   id="path3836"
   data-original="#FEDCA4"
   d="m 80,152 c -2.112,0 -4.152,-0.832 -5.656,-2.344 l -16,-16 11.312,-11.312 9.48,9.48 18.464,-24.624 12.8,9.592 -24,32 c -1.392,1.856 -3.52,3.016 -5.832,3.176 C 80.376,151.992 80.184,152 80,152 Z"
   style="fill:#fedca4" />

	<path
   id="path3838"
   data-original="#FEDCA4"
   d="m 80,208 c -2.112,0 -4.152,-0.832 -5.656,-2.344 l -16,-16 11.312,-11.312 9.48,9.48 18.464,-24.624 12.8,9.592 -24,32 c -1.392,1.856 -3.52,3.016 -5.832,3.176 C 80.376,207.992 80.184,208 80,208 Z"
   style="fill:#fedca4" />

	<path
   id="path3840"
   data-original="#FEDCA4"
   d="m 80,264 c -2.112,0 -4.152,-0.832 -5.656,-2.344 l -16,-16 11.312,-11.312 9.48,9.48 18.464,-24.624 12.8,9.592 -24,32 c -1.392,1.856 -3.52,3.016 -5.832,3.176 C 80.376,263.992 80.184,264 80,264 Z"
   style="fill:#fedca4" />

	<rect
   id="rect3842"
   data-original="#FEDCA4"
   height="16"
   width="128"
   style="fill:#fedca4"
   y="120"
   x="128" />

	<rect
   id="rect3844"
   data-original="#FEDCA4"
   height="16"
   width="32"
   style="fill:#fedca4"
   y="176"
   x="128" />

</g>
    <g
       transform="matrix(0.22343929,0,0,0.22092546,17.507701,12.937702)"
       id="g3854">
	<rect
   id="rect3848"
   class=""
   data-original="#BE4448"
   height="16"
   width="16"
   style="fill:#be4448"
   y="24"
   x="104" />

	<rect
   id="rect3850"
   class=""
   data-original="#BE4448"
   height="16"
   width="16"
   style="fill:#be4448"
   y="24"
   x="216" />

	<rect
   id="rect3852"
   class=""
   data-original="#BE4448"
   height="16"
   width="16"
   style="fill:#be4448"
   y="24"
   x="160" />

</g>
    <path
       id="path3862"
       class=""
       data-original="#BD252A"
       d="M 121.18355,101.30789 H 35.382844 c -1.975203,0 -3.575028,1.58183 -3.575028,3.53481 v 1.7674 c 0,1.95298 1.599825,3.53481 3.575028,3.53481 h 85.800706 c 1.97521,0 3.57503,-1.58183 3.57503,-3.53481 v -1.7674 c 0,-1.95298 -1.59982,-3.53481 -3.57503,-3.53481 z"
       style="fill:#bd252a;stroke-width:0.22217882" />
    <g
       transform="matrix(0.22343929,0,0,0.22092546,17.507701,12.937702)"
       id="g3866"
       style="opacity:0.5">
	<path
   id="path3864"
   class=""
   data-original="#8E1C20"
   d="m 88,424 v -8 c 0,-8.84 7.16,-16 16,-16 H 80 c -8.84,0 -16,7.16 -16,16 v 8 c 0,8.84 7.16,16 16,16 h 24 c -8.84,0 -16,-7.16 -16,-16 z"
   style="fill:#8e1c20" />

</g>
    <g
       transform="matrix(0.22343929,0,0,0.22092546,17.507701,12.937702)"
       id="g3874">
	<path
   id="path3868"
   class=""
   data-original="#FD3238"
   d="M 440.184,302.24 416,288 v 0 L 394.336,224.824 C 387.616,205.224 368.752,192 347.504,192 H 196.496 c -21.248,0 -40.12,13.224 -46.84,32.824 L 128,288 v 0 l -26.352,13.6 C 88.352,308.472 80,322.184 80,337.144 V 400 h 136 112 136 v -61.176 c 0,-15.832 -9.336,-30.176 -23.816,-36.584 z"
   style="fill:#fd3238" />

	<rect
   id="rect3870"
   class=""
   data-original="#FD3238"
   height="16"
   width="40"
   style="fill:#fd3238"
   y="272"
   x="408" />

	<rect
   id="rect3872"
   class=""
   data-original="#FD3238"
   height="16"
   width="40"
   style="fill:#fd3238"
   y="272"
   x="96" />

</g>
    <path
       id="path3876"
       data-original="#C6D1D6"
       d="m 46.10793,76.564234 14.709455,3.534808 H 95.750778 L 110.45847,76.564234 105.61788,62.607048 C 104.11637,58.276909 99.901386,55.35539 95.153748,55.35539 h -33.74112 c -4.747638,0 -8.964385,2.921519 -10.465897,7.251658 z"
       style="fill:#c6d1d6;stroke-width:0.22217882" />
    <g
       transform="matrix(0.22343929,0,0,0.22092546,17.507701,12.937702)"
       id="g3880"
       style="opacity:0.5">
	<path
   id="path3878"
   data-original="#A0B2BA"
   d="m 173.664,224.824 c 6.72,-19.6 25.584,-32.824 46.84,-32.824 h -24 c -21.248,0 -40.12,13.224 -46.84,32.824 L 128,288 l 65.832,16 h 24 L 152,288 Z"
   style="fill:#a0b2ba" />

</g>
    <g
       transform="matrix(0.22343929,0,0,0.22092546,17.507701,12.937702)"
       id="g3884"
       style="opacity:0.5">
	<path
   id="path3882"
   class=""
   data-original="#BE262A"
   d="M 125.648,301.608 144.152,292.056 128,288 101.648,301.608 C 88.352,308.472 80,322.184 80,337.144 V 400 h 24 v -62.856 c 0,-14.96 8.352,-28.672 21.648,-35.536 z"
   style="fill:#be262a" />

</g>
    <path
       id="path3886"
       class=""
       data-original="#5F1315"
       d="m 49.682959,118.98193 h -7.150058 c -1.975203,0 -3.575028,-1.58183 -3.575028,-3.53481 v -5.30221 h 14.300114 v 5.30221 c 0,1.95298 -1.599825,3.53481 -3.575028,3.53481 z"
       style="fill:#5f1315;stroke-width:0.22217882" />
    <path
       id="path3888"
       data-original="#50595D"
       d="m 49.682959,118.98193 h -7.150058 c -1.975203,0 -3.575028,-1.58183 -3.575028,-3.53481 v -5.30221 h 14.300114 v 5.30221 c 0,1.95298 -1.599825,3.53481 -3.575028,3.53481 z"
       style="fill:#50595d;stroke-width:0.22217882" />
    <g
       transform="matrix(0.22343929,0,0,0.22092546,17.507701,12.937702)"
       id="g3892"
       style="opacity:0.5">
	<path
   id="path3890"
   data-original="#414547"
   d="M 112,464 V 440 H 96 v 24 c 0,8.84 7.16,16 16,16 h 16 c -8.84,0 -16,-7.16 -16,-16 z"
   style="fill:#414547" />

</g>
    <path
       id="path3894"
       data-original="#50595D"
       d="m 114.0335,118.98193 h -7.15006 c -1.97521,0 -3.57503,-1.58183 -3.57503,-3.53481 v -5.30221 h 14.30011 v 5.30221 c 0,1.95298 -1.59982,3.53481 -3.57502,3.53481 z"
       style="fill:#50595d;stroke-width:0.22217882" />
    <g
       transform="matrix(0.22343929,0,0,0.22092546,17.507701,12.937702)"
       id="g3900">
	<path
   id="path3896"
   data-original="#FDD38D"
   d="m 408,368 h -72 v -16 c 0,-8.84 7.16,-16 16,-16 h 80 v 8 c 0,13.256 -10.744,24 -24,24 z"
   style="fill:#fdd38d" />

	<path
   id="path3898"
   data-original="#FDD38D"
   d="m 136,368 h 72 v -16 c 0,-8.84 -7.16,-16 -16,-16 h -80 v 8 c 0,13.256 10.744,24 24,24 z"
   style="fill:#fdd38d" />

</g>
    <g
       transform="matrix(0.22343929,0,0,0.22092546,17.507701,12.937702)"
       id="g3906">
	<circle
   id="circle3902"
   class="active-path"
   data-original="#FCB641"
   r="20"
   cy="420"
   cx="148"
   style="fill:#fcb641" />

	<circle
   id="circle3904"
   class="active-path"
   data-original="#FCB641"
   r="20"
   cy="420"
   cx="388"
   style="fill:#fcb641" />

</g>
    <rect
       id="rect3908"
       class=""
       data-original="#FDC567"
       height="12.371826"
       width="25.0252"
       style="fill:#fdc567;stroke-width:0.22217882"
       y="101.30788"
       x="65.770584" />
    <g
       transform="matrix(0.22343929,0,0,0.22092546,17.507701,12.937702)"
       id="g3914">
	<rect
   id="rect3910"
   class=""
   data-original="#BE262A"
   height="16"
   width="80"
   style="fill:#be262a"
   y="328"
   x="232" />

	<rect
   id="rect3912"
   class=""
   data-original="#BE262A"
   height="16"
   width="80"
   style="fill:#be262a"
   y="360"
   x="232" />

</g>
    <rect
       id="rect3916"
       data-original="#A0B2BA"
       height="3.5348074"
       width="10.725086"
       style="fill:#a0b2ba;stroke-width:0.22217882"
       y="60.6576"
       x="72.920647" />
    <g
       transform="matrix(0.22343929,0,0,0.22092546,17.507701,12.937702)"
       id="g3922">
	<path
   id="path3918"
   class="active-path"
   data-original="#FCB641"
   d="M 228.424,272.848 C 225.712,267.424 220.168,264 214.112,264 h -28.216 c -6.064,0 -11.608,3.424 -14.312,8.848 L 160,296.032 192,304 h 48 z"
   style="fill:#fcb641" />

	<path
   id="path3920"
   class="active-path"
   data-original="#FCB641"
   d="M 372.424,272.848 C 369.712,267.424 364.168,264 358.104,264 h -28.216 c -6.064,0 -11.6,3.424 -14.312,8.848 L 304,304 h 48 l 32,-7.968 z"
   style="fill:#fcb641" />

</g>
  </g>
</svg>
