<?xml version="1.0" encoding="utf-8"?>
<!-- Generator: Adobe Illustrator 21.0.2, SVG Export Plug-In . SVG Version: 6.00 Build 0)  -->
<svg version="1.1" id="Layer_1" xmlns="http://www.w3.org/2000/svg" xmlns:xlink="http://www.w3.org/1999/xlink" x="0px" y="0px"
	 viewBox="0 0 600 258.3" style="enable-background:new 0 0 600 258.3;" xml:space="preserve">
<style type="text/css">
	.st0{fill:#B78151;}
	.st1{fill:#6D6D6D;}
</style>
<rect x="325.7" y="62.4" class="st0" width="108.4" height="5.8"/>
<g>
	<path class="st1" d="M311.1,4c1.2-0.2,2.7-0.3,4.3-0.3c2.9,0,5,0.7,6.3,2c1.4,1.3,2.2,3.1,2.2,5.6c0,2.6-0.8,4.6-2.3,6.1
		c-1.5,1.5-3.9,2.3-6.9,2.3c-1.4,0-2.6-0.1-3.7-0.2V4z M313.1,17.8c0.5,0.1,1.3,0.1,2,0.1c4.3,0,6.7-2.4,6.7-6.6c0-3.7-2.1-6-6.3-6
		c-1,0-1.8,0.1-2.4,0.2V17.8z"/>
	<path class="st1" d="M340,11.5c0,5.4-3.3,8.3-7.3,8.3c-4.1,0-7-3.2-7-7.9c0-5,3.1-8.2,7.3-8.2C337.2,3.5,340,6.8,340,11.5z
		 M327.8,11.7c0,3.3,1.8,6.3,5,6.3c3.2,0,5-3,5-6.5c0-3.1-1.6-6.4-5-6.4C329.5,5.2,327.8,8.3,327.8,11.7z"/>
	<path class="st1" d="M356,11.5c0,5.4-3.3,8.3-7.3,8.3c-4.1,0-7-3.2-7-7.9c0-5,3.1-8.2,7.3-8.2C353.2,3.5,356,6.8,356,11.5z
		 M343.8,11.7c0,3.3,1.8,6.3,5,6.3c3.2,0,5-3,5-6.5c0-3.1-1.6-6.4-5-6.4C345.5,5.2,343.8,8.3,343.8,11.7z"/>
	<path class="st1" d="M358.6,4c1-0.2,2.5-0.3,3.9-0.3c2.2,0,3.6,0.4,4.5,1.3c0.8,0.7,1.2,1.8,1.2,3c0,2.1-1.3,3.4-3,4V12
		c1.2,0.4,1.9,1.5,2.3,3.2c0.5,2.2,0.9,3.7,1.2,4.3h-2.1c-0.3-0.4-0.6-1.8-1-3.7c-0.5-2.2-1.3-3-3.1-3h-1.9v6.8h-2V4z M360.6,11.1
		h2.1c2.2,0,3.5-1.2,3.5-3c0-2-1.5-2.9-3.6-2.9c-1,0-1.7,0.1-2,0.2V11.1z"/>
	<path class="st1" d="M370.5,10.1c0-0.9,0.6-1.5,1.4-1.5s1.3,0.6,1.4,1.5c0,0.8-0.5,1.4-1.4,1.4C371.1,11.5,370.5,10.9,370.5,10.1z
		 M370.5,18.3c0-0.9,0.6-1.5,1.4-1.5s1.3,0.6,1.4,1.5c0,0.8-0.5,1.4-1.4,1.4C371.1,19.7,370.5,19.1,370.5,18.3z"/>
	<path class="st1" d="M391.8,18.9c-0.7,0.4-2.2,0.7-4.1,0.7c-4.4,0-7.7-2.8-7.7-7.9c0-4.9,3.3-8.2,8.2-8.2c2,0,3.2,0.4,3.7,0.7
		l-0.5,1.6c-0.8-0.4-1.9-0.7-3.2-0.7c-3.7,0-6.1,2.3-6.1,6.5c0,3.8,2.2,6.3,6,6.3c1.2,0,2.5-0.3,3.3-0.7L391.8,18.9z"/>
	<path class="st1" d="M394.3,3.8h2v14h6.7v1.7h-8.7V3.8z"/>
	<path class="st1" d="M417.8,11.5c0,5.4-3.3,8.3-7.3,8.3c-4.1,0-7-3.2-7-7.9c0-5,3.1-8.2,7.3-8.2C415,3.5,417.8,6.8,417.8,11.5z
		 M405.6,11.7c0,3.3,1.8,6.3,5,6.3c3.2,0,5-3,5-6.5c0-3.1-1.6-6.4-5-6.4C407.3,5.2,405.6,8.3,405.6,11.7z"/>
	<path class="st1" d="M420.1,17c0.9,0.6,2.2,1,3.6,1c2.1,0,3.3-1.1,3.3-2.7c0-1.5-0.8-2.3-3-3.1c-2.6-0.9-4.1-2.2-4.1-4.4
		c0-2.4,2-4.3,5.1-4.3c1.6,0,2.8,0.4,3.5,0.8l-0.6,1.6c-0.5-0.3-1.6-0.7-3-0.7c-2.1,0-3,1.3-3,2.3c0,1.5,1,2.2,3.1,3
		c2.6,1,4,2.3,4,4.6c0,2.4-1.8,4.5-5.5,4.5c-1.5,0-3.2-0.4-4-1L420.1,17z"/>
	<path class="st1" d="M440,12.1h-6.1v5.6h6.8v1.7h-8.8V3.8h8.5v1.7h-6.4v5h6.1V12.1z"/>
</g>
<rect x="325.7" y="57.5" class="st0" width="108.4" height="5.8"/>
<g id="Layer_2_1_">
</g>
</svg>
