<svg version="1.1" id="el_sxSYmvGlA" xmlns="http://www.w3.org/2000/svg" xmlns:xlink="http://www.w3.org/1999/xlink" x="0px" y="0px" viewBox="0 0 600 258" style="enable-background:new 0 0 600 258;" xml:space="preserve"><style>@-webkit-keyframes el_62FQLGDLQR_iDjk295ru_Animation{0%{-webkit-transform: rotate(0deg);transform: rotate(0deg);}100%{-webkit-transform: rotate(1080deg);transform: rotate(1080deg);}}@keyframes el_62FQLGDLQR_iDjk295ru_Animation{0%{-webkit-transform: rotate(0deg);transform: rotate(0deg);}100%{-webkit-transform: rotate(1080deg);transform: rotate(1080deg);}}#el_sxSYmvGlA *{-webkit-animation-duration: 3s;animation-duration: 3s;-webkit-animation-iteration-count: infinite;animation-iteration-count: infinite;-webkit-animation-timing-function: cubic-bezier(0, 0, 1, 1);animation-timing-function: cubic-bezier(0, 0, 1, 1);}#el_W_B40evnLR{fill: #1AB394;}#el_B_RkBkNc1n{fill: #7A7A7A;}#el_uLpG7b5cSU{fill: #7A7A7A;}#el_6LV76GCw7Y{fill: #7A7A7A;}#el_84FO2XJFL7{fill: #7A7A7A;}#el_lOccu47oV5{fill: #7A7A7A;}#el_ifWJGGcM1e{fill: #7A7A7A;}#el_ffXJ520KOp{fill: #7A7A7A;}#el_UJsoamAEzs{fill: #7A7A7A;}#el_YDCbDpyqD3{fill: #7A7A7A;}#el_hSRWZAAAvV{fill: #FFFFFF;}#el_LG9oUgoFxwe{fill: #FFFFFF;}#el_iS3VrzYTzXL{fill: #6D6D6D;}#el_v0tN5lXfzul{fill: #6D6D6D;}#el_bId6TNVBrw7{fill: #6D6D6D;}#el_ZoJa4WNdSr-{fill: #6D6D6D;}#el_GYuYHylH5Vr{fill: #6D6D6D;}#el__bGXlGEMGey{fill: #6D6D6D;}#el_1R6GoeW0gtI{fill: #6D6D6D;}#el_62FQLGDLQR_iDjk295ru{-webkit-animation-name: el_62FQLGDLQR_iDjk295ru_Animation;animation-name: el_62FQLGDLQR_iDjk295ru_Animation;-webkit-transform-origin: 50% 50%;transform-origin: 50% 50%;transform-box: fill-box;}</style>

<path id="el_W_B40evnLR" d="M523.8,22.8c0-10.7,8.7-19.4,19.4-19.4s19.4,8.7,19.4,19.4s-8.7,19.4-19.4,19.4&#10;&#9;C532.5,42.2,523.8,33.5,523.8,22.8z"/>
<g id="el_Rww-DRHBun">
	<path id="el_B_RkBkNc1n" d="M521.1,54.2c-0.4,0.2-1.1,0.4-2.1,0.4c-2.2,0-3.9-1.4-3.9-4c0-2.4,1.7-4.1,4.1-4.1&#10;&#9;&#9;c1,0,1.6,0.2,1.9,0.3l-0.2,0.8c-0.4-0.2-0.9-0.3-1.6-0.3c-1.8,0-3.1,1.2-3.1,3.2c0,1.9,1.1,3.1,3,3.1c0.6,0,1.2-0.1,1.6-0.3&#10;&#9;&#9;L521.1,54.2z"/>
	<path id="el_uLpG7b5cSU" d="M522.4,46.6h1v7h3.3v0.8h-4.4v-7.8H522.4z"/>
	<path id="el_6LV76GCw7Y" d="M534.1,50.5c0,2.7-1.6,4.1-3.6,4.1c-2.1,0-3.5-1.6-3.5-4c0-2.5,1.5-4.1,3.6-4.1&#10;&#9;&#9;C532.7,46.5,534.1,48.2,534.1,50.5z M528,50.6c0,1.7,0.9,3.2,2.5,3.2s2.5-1.5,2.5-3.3c0-1.6-0.8-3.2-2.5-3.2&#10;&#9;&#9;C528.9,47.3,528,48.9,528,50.6z"/>
	<path id="el_84FO2XJFL7" d="M540.9,54.2c-0.4,0.2-1.1,0.4-2.1,0.4c-2.2,0-3.9-1.4-3.9-4c0-2.4,1.7-4.1,4.1-4.1&#10;&#9;&#9;c1,0,1.6,0.2,1.9,0.3l-0.2,0.8c-0.4-0.2-0.9-0.3-1.6-0.3c-1.8,0-3.1,1.2-3.1,3.2c0,1.9,1.1,3.1,3,3.1c0.6,0,1.2-0.1,1.6-0.3&#10;&#9;&#9;L540.9,54.2z"/>
	<path id="el_lOccu47oV5" d="M542.1,46.6h1v3.8l0,0c0.2-0.3,0.4-0.6,0.6-0.8l2.4-2.9h1.3l-2.8,3.3l3.1,4.5h-1.2&#10;&#9;&#9;l-2.6-3.8l-0.7,0.9v3h-1L542.1,46.6L542.1,46.6z"/>
	<path id="el_ifWJGGcM1e" d="M549.9,54.5l-2-7.8h1.1l0.9,4c0.2,1,0.4,2,0.6,2.7l0,0c0.1-0.8,0.4-1.7,0.6-2.7l1-3.9h1.1&#10;&#9;&#9;l1,4c0.2,0.9,0.4,1.9,0.5,2.7l0,0c0.2-0.9,0.4-1.7,0.6-2.7l1-3.9h1l-2.2,7.8H554l-1-4.1c-0.2-1-0.4-1.8-0.5-2.6l0,0&#10;&#9;&#9;c-0.1,0.8-0.3,1.5-0.6,2.6l-1.1,4.1h-0.9V54.5z"/>
	<path id="el_ffXJ520KOp" d="M559.5,46.6v7.8h-1v-7.8H559.5z"/>
	<path id="el_UJsoamAEzs" d="M561.1,53.2c0.5,0.3,1.1,0.5,1.8,0.5c1,0,1.6-0.5,1.6-1.3c0-0.7-0.4-1.1-1.5-1.6&#10;&#9;&#9;c-1.3-0.5-2.1-1.1-2.1-2.2c0-1.2,1-2.1,2.5-2.1c0.8,0,1.4,0.2,1.7,0.4l-0.3,0.8c-0.3-0.1-0.8-0.4-1.5-0.4c-1.1,0-1.5,0.6-1.5,1.2&#10;&#9;&#9;c0,0.7,0.5,1.1,1.6,1.5c1.3,0.5,2,1.1,2,2.3s-0.9,2.3-2.7,2.3c-0.8,0-1.6-0.2-2-0.5L561.1,53.2z"/>
	<path id="el_YDCbDpyqD3" d="M571,50.8h-3v2.8h3.4v0.8H567v-7.8h4.2v0.8H568V50h3V50.8z"/>
</g>
<g id="el_62FQLGDLQR_iDjk295ru" data-animator-group="true" data-animator-type="1"><g id="el_62FQLGDLQR">
	<g id="el_XjEj-UeQCb">
		<g id="el_NjatUOoSXn">
			<path id="el_hSRWZAAAvV" d="M533,29.2v5.6c0,0.8,1,1.3,1.8,0.4v-3.8c4.8,4.6,12.3,4.4,16.9-0.3&#10;&#9;&#9;&#9;&#9;c2.2-2.2,3.4-5.2,3.4-8.3c0-0.8-1-1.3-1.8-0.4l0,0c0.2,5.7-4.4,10.5-10.1,10.5c-2.9,0-5.6-1.2-7.5-3.3l4.5-1.5&#10;&#9;&#9;&#9;&#9;c0.6-1.1-0.2-1.9-1-1.6l-5.5,1.8c-0.3,0.2-0.6,0.5-0.6,0.9C533.1,29.2,533,29.2,533,29.2z"/>
		</g>
	</g>
	<g id="el_rPhnSTCyp2o">
		<g id="el_Xx6pkpHb-4J">
			<path id="el_LG9oUgoFxwe" d="M533.2,23.2L533.2,23.2c-0.2-5.7,4.4-10.5,10.1-10.5c2.9,0,5.6,1.2,7.5,3.3l-4.5,1.5&#10;&#9;&#9;&#9;&#9;c-0.6,1.1,0.2,1.9,1,1.6l5.5-1.8c0.3-0.2,0.6-0.5,0.6-0.9v-6c-0.8-1-1.8-0.4-1.8,0.4v3.4c-4.8-4.6-12.3-4.4-16.9,0.3&#10;&#9;&#9;&#9;&#9;c-2.2,2.2-3.4,5.2-3.4,8.3C531.3,23.6,532.3,24.2,533.2,23.2z"/>
		</g>
	</g>
</g></g>
<g id="el_m0_txtUjVap">
	<path d="M492.9,168.3c1-0.2,2.3-0.3,3.9-0.3c2,0,3.5,0.5,4.4,1.3c0.9,0.7,1.4,1.9,1.4,3.3c0,1.4-0.4,2.5-1.2,3.3&#10;&#9;&#9;c-1.1,1.1-2.8,1.7-4.8,1.7c-0.6,0-1.2,0-1.6-0.1v6.3h-2L492.9,168.3L492.9,168.3z M495,175.8c0.4,0.1,1,0.2,1.7,0.2&#10;&#9;&#9;c2.4,0,3.9-1.2,3.9-3.3s-1.5-3.1-3.7-3.1c-0.9,0-1.6,0.1-1.9,0.2V175.8z" id="el_iS3VrzYTzXL"/>
	<path d="M507.3,168.1v9.3c0,3.5,1.6,5,3.6,5c2.3,0,3.8-1.5,3.8-5v-9.3h2v9.1c0,4.8-2.5,6.8-5.9,6.8&#10;&#9;&#9;c-3.2,0-5.6-1.8-5.6-6.7v-9.2L507.3,168.1L507.3,168.1z" id="el_v0tN5lXfzul"/>
	<path d="M533.5,176.9c-0.1-2.2-0.3-4.8-0.2-6.8h-0.1c-0.5,1.8-1.2,3.8-2,5.9l-2.8,7.6H527l-2.5-7.5&#10;&#9;&#9;c-0.7-2.2-1.4-4.2-1.8-6.1l0,0c0,2-0.2,4.6-0.3,6.9l-0.4,6.7h-1.9l1.1-15.7h2.6l2.7,7.6c0.7,1.9,1.2,3.6,1.6,5.3h0.1&#10;&#9;&#9;c0.4-1.6,1-3.3,1.7-5.3l2.8-7.6h2.6l1,15.7h-2L533.5,176.9z" id="el_bId6TNVBrw7"/>
	<path d="M539,168.3c1-0.2,2.3-0.3,3.9-0.3c2,0,3.5,0.5,4.4,1.3c0.9,0.7,1.4,1.9,1.4,3.3c0,1.4-0.4,2.5-1.2,3.3&#10;&#9;&#9;c-1.1,1.1-2.8,1.7-4.8,1.7c-0.6,0-1.2,0-1.6-0.1v6.3h-2v-15.5H539z M541,175.8c0.4,0.1,1,0.2,1.7,0.2c2.4,0,3.9-1.2,3.9-3.3&#10;&#9;&#9;s-1.5-3.1-3.7-3.1c-0.9,0-1.6,0.1-1.9,0.2V175.8z" id="el_ZoJa4WNdSr-"/>
	<path d="M550.6,174.3c0-0.9,0.6-1.5,1.4-1.5s1.3,0.6,1.4,1.5c0,0.8-0.5,1.4-1.4,1.4&#10;&#9;&#9;C551.1,175.8,550.6,175.2,550.6,174.3z M550.6,182.5c0-0.9,0.6-1.5,1.4-1.5s1.3,0.6,1.4,1.5c0,0.8-0.5,1.4-1.4,1.4&#10;&#9;&#9;C551.1,184,550.6,183.4,550.6,182.5z" id="el_GYuYHylH5Vr"/>
	<path d="M574.2,175.7c0,5.4-3.3,8.3-7.3,8.3c-4.1,0-7-3.2-7-7.9c0-5,3.1-8.2,7.3-8.2&#10;&#9;&#9;C571.5,167.8,574.2,171.1,574.2,175.7z M562.1,176c0,3.3,1.8,6.3,5,6.3s5-3,5-6.5c0-3.1-1.6-6.4-5-6.4&#10;&#9;&#9;C563.8,169.5,562.1,172.6,562.1,176z" id="el__bGXlGEMGey"/>
	<path d="M576.9,183.7V168h2.2l5,7.9c1.2,1.8,2.1,3.5,2.8,5.1l0,0c-0.2-2.1-0.2-4-0.2-6.4V168h1.9v15.7h-2l-5-7.9&#10;&#9;&#9;c-1.1-1.7-2.1-3.5-2.9-5.2h-0.1c0.1,2,0.2,3.9,0.2,6.5v6.7h-1.9V183.7z" id="el_1R6GoeW0gtI"/>
</g>
<script>(function(){var a=document.querySelector('#el_sxSYmvGlA'),b=a.querySelectorAll('style'),c=function(d){b.forEach(function(f){var g=f.textContent;g&amp;&amp;(f.textContent=g.replace(/transform-box:[^;\r\n]*/gi,'transform-box: '+d))})};c('initial'),window.requestAnimationFrame(function(){return c('fill-box')})})();</script></svg>