<svg version="1.1" id="el_GKaXitcAL" xmlns="http://www.w3.org/2000/svg" xmlns:xlink="http://www.w3.org/1999/xlink" x="0px" y="0px" viewBox="0 0 600 258" style="enable-background:new 0 0 600 258;" xml:space="preserve"><style>@-webkit-keyframes el_b-cGaeNel8m_p5q8gQr23_Animation{0%{-webkit-transform: rotate(0deg);transform: rotate(0deg);}100%{-webkit-transform: rotate(-1080deg);transform: rotate(-1080deg);}}@keyframes el_b-cGaeNel8m_p5q8gQr23_Animation{0%{-webkit-transform: rotate(0deg);transform: rotate(0deg);}100%{-webkit-transform: rotate(-1080deg);transform: rotate(-1080deg);}}#el_GKaXitcAL *{-webkit-animation-duration: 3s;animation-duration: 3s;-webkit-animation-iteration-count: infinite;animation-iteration-count: infinite;-webkit-animation-timing-function: cubic-bezier(0, 0, 1, 1);animation-timing-function: cubic-bezier(0, 0, 1, 1);}#el_AowdsRALPw{fill: #1AB394;}#el_yj_-UZG7wY{fill: #7A7A7A;}#el_8cluZOW5rl{fill: #7A7A7A;}#el_RcwopevG6c{fill: #7A7A7A;}#el_ZFEwHbs2n7{fill: #7A7A7A;}#el_oEjRO2Rriy{fill: #7A7A7A;}#el_xPtVmHeJ_B{fill: #7A7A7A;}#el_Q1SGkUa_OF{fill: #7A7A7A;}#el_hCGDsel2BR{fill: #7A7A7A;}#el_unjVuMUSdZ{fill: #7A7A7A;}#el_y2OZEuGIXT{fill: #7A7A7A;}#el_3GBIV8Ngyy{fill: #7A7A7A;}#el_y9T3Kts0FM5{fill: #7A7A7A;}#el_F17OgNsbCVP{fill: #7A7A7A;}#el_fn9rQfBKUC_{fill: #FFFFFF;}#el_IPN2MWIs8sL{fill: #FFFFFF;}#el_-9v6PfV30dj{fill: #6D6D6D;}#el_watuSE5LRmm{fill: #6D6D6D;}#el_rVWYB5efZ4b{fill: #6D6D6D;}#el_auZDNMfLLz-{fill: #6D6D6D;}#el_jMw6T66gIP2{fill: #6D6D6D;}#el_n6_qxrcHefm{fill: #6D6D6D;}#el_9xUAWDPC7KI{fill: #6D6D6D;}#el_b-cGaeNel8m_p5q8gQr23{-webkit-animation-name: el_b-cGaeNel8m_p5q8gQr23_Animation;animation-name: el_b-cGaeNel8m_p5q8gQr23_Animation;-webkit-transform-origin: 50% 50%;transform-origin: 50% 50%;transform-box: fill-box;}</style>

<path id="el_AowdsRALPw" d="M523.8,22.8c0-10.7,8.7-19.4,19.4-19.4s19.4,8.7,19.4,19.4s-8.7,19.4-19.4,19.4&#10;&#9;C532.5,42.2,523.8,33.5,523.8,22.8z"/>
<g id="el_D9mpJRSR2P">
	<path id="el_yj_-UZG7wY" d="M533.1,54.2c-0.4,0.2-1.1,0.4-2.1,0.4c-2.2,0-3.9-1.4-3.9-4c0-2.4,1.7-4.1,4.1-4.1&#10;&#9;&#9;c1,0,1.6,0.2,1.9,0.3l-0.2,0.8c-0.4-0.2-0.9-0.3-1.6-0.3c-1.8,0-3.1,1.2-3.1,3.2c0,1.9,1.1,3.1,3,3.1c0.6,0,1.2-0.1,1.6-0.3&#10;&#9;&#9;L533.1,54.2z"/>
	<path id="el_8cluZOW5rl" d="M534.4,46.6h1v7h3.3v0.8h-4.4v-7.8H534.4z"/>
	<path id="el_RcwopevG6c" d="M546.1,50.5c0,2.7-1.6,4.1-3.6,4.1c-2.1,0-3.5-1.6-3.5-4c0-2.5,1.5-4.1,3.6-4.1&#10;&#9;&#9;C544.7,46.5,546.1,48.2,546.1,50.5z M540,50.6c0,1.7,0.9,3.2,2.5,3.2s2.5-1.5,2.5-3.3c0-1.6-0.8-3.2-2.5-3.2&#10;&#9;&#9;C540.9,47.3,540,48.9,540,50.6z"/>
	<path id="el_ZFEwHbs2n7" d="M552.9,54.2c-0.4,0.2-1.1,0.4-2.1,0.4c-2.2,0-3.9-1.4-3.9-4c0-2.4,1.7-4.1,4.1-4.1&#10;&#9;&#9;c1,0,1.6,0.2,1.9,0.3l-0.2,0.8c-0.4-0.2-0.9-0.3-1.6-0.3c-1.8,0-3.1,1.2-3.1,3.2c0,1.9,1.1,3.1,3,3.1c0.6,0,1.2-0.1,1.6-0.3&#10;&#9;&#9;L552.9,54.2z"/>
	<path id="el_oEjRO2Rriy" d="M554.1,46.6h1v3.8l0,0c0.2-0.3,0.4-0.6,0.6-0.8l2.4-2.9h1.3l-2.8,3.3l3.1,4.5h-1.2&#10;&#9;&#9;l-2.6-3.8l-0.7,0.9v3h-1L554.1,46.6L554.1,46.6z"/>
	<path id="el_xPtVmHeJ_B" d="M561.9,54.5l-2-7.8h1.1l0.9,4c0.2,1,0.4,2,0.6,2.7l0,0c0.1-0.8,0.4-1.7,0.6-2.7l1-3.9h1.1&#10;&#9;&#9;l1,4c0.2,0.9,0.4,1.9,0.5,2.7l0,0c0.2-0.9,0.4-1.7,0.6-2.7l1-3.9h1l-2.2,7.8H566l-1-4.1c-0.2-1-0.4-1.8-0.5-2.6l0,0&#10;&#9;&#9;c-0.1,0.8-0.3,1.5-0.6,2.6l-1.1,4.1h-0.9V54.5z"/>
	<path id="el_Q1SGkUa_OF" d="M571.5,46.6v7.8h-1v-7.8H571.5z"/>
	<path id="el_hCGDsel2BR" d="M573.1,53.2c0.5,0.3,1.1,0.5,1.8,0.5c1,0,1.6-0.5,1.6-1.3c0-0.7-0.4-1.1-1.5-1.6&#10;&#9;&#9;c-1.3-0.5-2.1-1.1-2.1-2.2c0-1.2,1-2.1,2.5-2.1c0.8,0,1.4,0.2,1.7,0.4l-0.3,0.8c-0.3-0.1-0.8-0.4-1.5-0.4c-1.1,0-1.5,0.6-1.5,1.2&#10;&#9;&#9;c0,0.7,0.5,1.1,1.6,1.5c1.3,0.5,2,1.1,2,2.3s-0.9,2.3-2.7,2.3c-0.8,0-1.6-0.2-2-0.5L573.1,53.2z"/>
	<path id="el_unjVuMUSdZ" d="M583,50.8h-3v2.8h3.4v0.8H579v-7.8h4.2v0.8H580V50h3V50.8z"/>
</g>
<g id="el_VuY5Km9oNe">
	<g id="el_6lXoBO0mpG">
		<path id="el_y2OZEuGIXT" d="M504.4,52.1l-0.8,2.5h-1.1l2.7-8.1h1.3l2.7,8.1h-1.1l-0.9-2.5H504.4z M507,51.2l-0.8-2.3&#10;&#9;&#9;&#9;c-0.2-0.5-0.3-1-0.4-1.5l0,0c-0.1,0.5-0.3,1-0.4,1.5l-0.8,2.3H507z"/>
		<path id="el_3GBIV8Ngyy" d="M510.4,54.6v-8.1h1.1l2.6,4.1c0.6,0.9,1.1,1.8,1.4,2.6l0,0c-0.1-1.1-0.1-2.1-0.1-3.3&#10;&#9;&#9;&#9;v-3.4h1v8.1h-1.1l-2.6-4.1c-0.6-0.9-1.1-1.8-1.5-2.7l0,0c0.1,1,0.1,2,0.1,3.3v3.4L510.4,54.6L510.4,54.6z"/>
		<path id="el_y9T3Kts0FM5" d="M519.8,47.4h-2.4v-0.9h6v0.9h-2.5v7.2h-1.1V47.4z"/>
		<path id="el_F17OgNsbCVP" d="M525.3,46.5v8.1h-1v-8.1H525.3z"/>
	</g>
</g>
<g id="el_b-cGaeNel8m_p5q8gQr23" data-animator-group="true" data-animator-type="1"><g id="el_b-cGaeNel8m">
	<g id="el_5rey5yGX4yK">
		<g id="el_EidVHR0wf6Z">
			<path id="el_fn9rQfBKUC_" d="M553.3,29.2c0-0.4-0.3-0.7-0.6-0.9l-5.5-1.8c-0.8-0.3-1.6,0.5-1,1.6l4.5,1.5&#10;&#9;&#9;&#9;&#9;c-1.9,2.1-4.6,3.3-7.5,3.3c-5.7,0-10.3-4.8-10.1-10.5l0,0c-0.8-0.9-1.8-0.4-1.8,0.4c0,3.1,1.2,6.1,3.4,8.3&#10;&#9;&#9;&#9;&#9;c4.6,4.7,12.1,4.9,16.9,0.3v3.8c0.8,0.9,1.8,0.4,1.8-0.4v-5.6H553.3z"/>
		</g>
	</g>
	<g id="el_9-WDhQvbaaM">
		<g id="el_YrUfqorcYRC">
			<path id="el_IPN2MWIs8sL" d="M555.1,22.8c0-3.1-1.2-6.1-3.4-8.3c-4.6-4.7-12.1-4.9-16.9-0.3v-3.4&#10;&#9;&#9;&#9;&#9;c0-0.8-1-1.4-1.8-0.4v6c0,0.4,0.3,0.7,0.6,0.9l5.5,1.8c0.8,0.3,1.6-0.5,1-1.6l-4.5-1.5c1.9-2.1,4.6-3.3,7.5-3.3&#10;&#9;&#9;&#9;&#9;c5.7,0,10.3,4.8,10.1,10.5l0,0C554.1,24.2,555.1,23.6,555.1,22.8z"/>
		</g>
	</g>
</g></g>
<g id="el_j62CE_RZjid">
	<path d="M492.9,168.3c1-0.2,2.3-0.3,3.9-0.3c2,0,3.5,0.5,4.4,1.3c0.9,0.7,1.4,1.9,1.4,3.3c0,1.4-0.4,2.5-1.2,3.3&#10;&#9;&#9;c-1.1,1.1-2.8,1.7-4.8,1.7c-0.6,0-1.2,0-1.6-0.1v6.3h-2V168.3z M495,175.8c0.4,0.1,1,0.2,1.7,0.2c2.4,0,3.9-1.2,3.9-3.3&#10;&#9;&#9;c0-2.1-1.5-3.1-3.7-3.1c-0.9,0-1.6,0.1-1.9,0.2V175.8z" id="el_-9v6PfV30dj"/>
	<path d="M507.3,168.1v9.3c0,3.5,1.6,5,3.6,5c2.3,0,3.8-1.5,3.8-5v-9.3h2v9.1c0,4.8-2.5,6.8-5.9,6.8&#10;&#9;&#9;c-3.2,0-5.6-1.8-5.6-6.7v-9.2H507.3z" id="el_watuSE5LRmm"/>
	<path d="M533.5,176.9c-0.1-2.2-0.3-4.8-0.2-6.8h-0.1c-0.5,1.8-1.2,3.8-2,5.9l-2.8,7.6H527l-2.5-7.5&#10;&#9;&#9;c-0.7-2.2-1.4-4.2-1.8-6.1h0c0,2-0.2,4.6-0.3,6.9l-0.4,6.7h-1.9l1.1-15.7h2.6l2.7,7.6c0.7,1.9,1.2,3.6,1.6,5.3h0.1&#10;&#9;&#9;c0.4-1.6,1-3.3,1.7-5.3l2.8-7.6h2.6l1,15.7h-2L533.5,176.9z" id="el_rVWYB5efZ4b"/>
	<path d="M539,168.3c1-0.2,2.3-0.3,3.9-0.3c2,0,3.5,0.5,4.4,1.3c0.9,0.7,1.4,1.9,1.4,3.3c0,1.4-0.4,2.5-1.2,3.3&#10;&#9;&#9;c-1.1,1.1-2.8,1.7-4.8,1.7c-0.6,0-1.2,0-1.6-0.1v6.3h-2V168.3z M541,175.8c0.4,0.1,1,0.2,1.7,0.2c2.4,0,3.9-1.2,3.9-3.3&#10;&#9;&#9;c0-2.1-1.5-3.1-3.7-3.1c-0.9,0-1.6,0.1-1.9,0.2V175.8z" id="el_auZDNMfLLz-"/>
	<path d="M550.6,174.3c0-0.9,0.6-1.5,1.4-1.5s1.3,0.6,1.4,1.5c0,0.8-0.5,1.4-1.4,1.4&#10;&#9;&#9;C551.1,175.8,550.6,175.2,550.6,174.3z M550.6,182.5c0-0.9,0.6-1.5,1.4-1.5s1.3,0.6,1.4,1.5c0,0.8-0.5,1.4-1.4,1.4&#10;&#9;&#9;C551.1,184,550.6,183.4,550.6,182.5z" id="el_jMw6T66gIP2"/>
	<path d="M574.2,175.7c0,5.4-3.3,8.3-7.3,8.3c-4.1,0-7-3.2-7-7.9c0-5,3.1-8.2,7.3-8.2&#10;&#9;&#9;C571.5,167.8,574.2,171.1,574.2,175.7z M562.1,176c0,3.3,1.8,6.3,5,6.3c3.2,0,5-3,5-6.5c0-3.1-1.6-6.4-5-6.4&#10;&#9;&#9;C563.8,169.5,562.1,172.6,562.1,176z" id="el_n6_qxrcHefm"/>
	<path d="M576.9,183.7v-15.7h2.2l5,7.9c1.2,1.8,2.1,3.5,2.8,5.1l0,0c-0.2-2.1-0.2-4-0.2-6.4v-6.6h1.9v15.7h-2l-5-7.9&#10;&#9;&#9;c-1.1-1.7-2.1-3.5-2.9-5.2l-0.1,0c0.1,2,0.2,3.9,0.2,6.5v6.7H576.9z" id="el_9xUAWDPC7KI"/>
</g>
<script>(function(){var a=document.querySelector('#el_GKaXitcAL'),b=a.querySelectorAll('style'),c=function(d){b.forEach(function(f){var g=f.textContent;g&amp;&amp;(f.textContent=g.replace(/transform-box:[^;\r\n]*/gi,'transform-box: '+d))})};c('initial'),window.requestAnimationFrame(function(){return c('fill-box')})})();</script></svg>