<?xml version="1.0" encoding="utf-8"?>
<!-- Generator: Adobe Illustrator 21.0.2, SVG Export Plug-In . SVG Version: 6.00 Build 0)  -->
<svg version="1.1" id="Layer_1" xmlns="http://www.w3.org/2000/svg" xmlns:xlink="http://www.w3.org/1999/xlink" x="0px" y="0px"
	 viewBox="0 0 600 258.3" style="enable-background:new 0 0 600 258.3;" xml:space="preserve">
<style type="text/css">
	.st0{fill:#7F7F7F;}
	.st1{fill:#6D6D6D;}
</style>
<rect x="137.5" y="221.3" class="st0" width="331.9" height="9.2"/>
<path class="st1" d="M249.1,236.8v6.6h7.6v-6.6h2v15.7h-2v-7.3h-7.6v7.3h-2v-15.7H249.1z"/>
<path class="st1" d="M270.4,245.1h-6.1v5.6h6.8v1.7h-8.8v-15.7h8.5v1.7h-6.4v5h6.1V245.1z"/>
<path class="st1" d="M276.2,247.6l-1.6,4.9h-2.1l5.3-15.7h2.4l5.3,15.7h-2.2l-1.7-4.9H276.2z M281.4,246l-1.5-4.5
	c-0.3-1-0.6-2-0.8-2.9h0c-0.2,0.9-0.5,1.9-0.8,2.8l-1.5,4.5H281.4z"/>
<path class="st1" d="M289.1,238.5h-4.8v-1.7h11.6v1.7h-4.8v13.9h-2V238.5z"/>
<path class="st1" d="M305.8,245.1h-6.1v5.6h6.8v1.7h-8.8v-15.7h8.5v1.7h-6.4v5h6.1V245.1z"/>
<path class="st1" d="M309.1,237c1-0.2,2.5-0.3,3.9-0.3c2.2,0,3.6,0.4,4.5,1.3c0.8,0.7,1.2,1.8,1.2,3c0,2.1-1.3,3.4-3,4v0.1
	c1.2,0.4,1.9,1.5,2.3,3.2c0.5,2.2,0.9,3.7,1.2,4.3h-2.1c-0.3-0.4-0.6-1.8-1-3.7c-0.5-2.2-1.3-3-3.1-3h-1.9v6.8h-2V237z M311.1,244.2
	h2.1c2.2,0,3.5-1.2,3.5-3c0-2-1.5-2.9-3.6-2.9c-1,0-1.7,0.1-2,0.2V244.2z"/>
<path class="st1" d="M321,243.1c0-0.9,0.6-1.5,1.4-1.5s1.3,0.6,1.4,1.5c0,0.8-0.5,1.4-1.4,1.4C321.6,244.5,321,243.9,321,243.1z
	 M321,251.3c0-0.9,0.6-1.5,1.4-1.5s1.3,0.6,1.4,1.5c0,0.8-0.5,1.4-1.4,1.4C321.6,252.7,321,252.1,321,251.3z"/>
<g id="Layer_2_1_">
</g>
<path class="st1" d="M343.8,244.4c0,5.4-3.3,8.3-7.3,8.3c-4.1,0-7-3.2-7-7.9c0-5,3.1-8.2,7.3-8.2
	C341.1,236.5,343.8,239.7,343.8,244.4z M331.7,244.6c0,3.3,1.8,6.3,5,6.3c3.2,0,5-3,5-6.5c0-3.1-1.6-6.4-5-6.4
	C333.4,238.1,331.7,241.2,331.7,244.6z"/>
<path class="st1" d="M346.5,236.7h8.4v1.7h-6.4v5.2h5.9v1.7h-5.9v7.1h-2V236.7z"/>
<path class="st1" d="M357.8,236.7h8.4v1.7h-6.4v5.2h5.9v1.7h-5.9v7.1h-2V236.7z"/>
</svg>
