<?xml version="1.0" encoding="utf-8"?>
<!-- Generator: Adobe Illustrator 21.0.2, SVG Export Plug-In . SVG Version: 6.00 Build 0)  -->
<svg version="1.1" id="Layer_1" xmlns="http://www.w3.org/2000/svg" xmlns:xlink="http://www.w3.org/1999/xlink" x="0px" y="0px"
	 viewBox="0 0 600 258.3" style="enable-background:new 0 0 600 258.3;" xml:space="preserve">
<style type="text/css">
	.st0{fill:#C7C9C7;}
	.st1{fill:#AFB7BC;}
	.st2{fill:#EAEAEA;}
	.st3{fill:#285680;}
	.st4{fill:#4482C3;}
	.st5{fill:#D1D4D1;}
	.st6{fill:#9FC9D3;}
	.st7{fill:#379B94;}
	.st8{fill:#565656;}
</style>
<rect x="112.8" y="123.7" class="st0" width="10.2" height="25.8"/>
<rect x="109.9" y="119.5" class="st1" width="16.1" height="4.4"/>
<path class="st0" d="M122.9,103.9v10.6H113v-14.3c0-4.7,3.8-8.6,8.3-8.6H137v10.2h-12C123.7,101.8,122.8,102.8,122.9,103.9
	L122.9,103.9z"/>
<rect x="111.8" y="114.5" class="st1" width="12.1" height="5"/>
<rect x="109.9" y="134.3" class="st1" width="16.1" height="4.4"/>
<rect x="112.1" y="132.1" class="st0" width="11.7" height="2.2"/>
<rect x="79.1" y="175.5" class="st1" width="5" height="12.1"/>
<rect x="22.9" y="176.6" class="st0" width="55.9" height="10.2"/>
<polygon class="st0" points="131.1,134.8 131.1,230.5 476.1,230.5 476.1,134.8 469.5,134.8 469.5,224.2 137.5,224.2 137.5,134.8 "/>
<polygon class="st2" points="137.5,93 137.5,68 469.4,68 469.4,93 469.4,224.4 137.5,224.4 "/>
<g id="Page-1">
	<g id="_x30_72---Pump-Motor">
		<polygon id="Shape" class="st3" points="535.2,131.4 524.6,131.4 524.6,149.2 535.2,149.2 563.7,149.2 563.7,131.4 		"/>
		<polygon id="Shape_1_" class="st3" points="567.3,92.3 567.3,70.9 526.5,70.9 519.3,70.9 519.3,92.3 		"/>
		<path id="Shape_2_" class="st4" d="M508.5,135V88.7h56.9c12.8,0,23.1,10.4,23.1,23.1S578.2,135,565.4,135H508.5L508.5,135z"/>
		<path id="Shape_3_" class="st5" d="M508.5,106.5h-21.4c-1,0-1.7,0.8-1.7,1.7v7.2c0,1,0.8,1.7,1.7,1.7h21.4V106.5z"/>
		<path id="Shape_4_" class="st3" d="M501.4,127.8v-32c0-4,3.2-7.2,7.2-7.2h1.7V135h-1.7C504.6,135,501.4,131.8,501.4,127.8z"/>
		<path id="Shape_5_" class="st3" d="M522.7,99.4h44.4c1,0,1.7-0.8,1.7-1.7S568,96,567.1,96h-44.4c-1,0-1.7,0.8-1.7,1.7
			S521.8,99.4,522.7,99.4z"/>
		<path id="Shape_6_" class="st3" d="M567.3,124.4h-44.4c-1,0-1.7,0.8-1.7,1.7s0.8,1.7,1.7,1.7h44.4c1,0,1.7-0.8,1.7-1.7
			S568.2,124.4,567.3,124.4z"/>
		<path id="Shape_7_" class="st3" d="M522.7,108.3h44.4c1,0,1.7-0.8,1.7-1.7s-0.8-1.7-1.7-1.7h-44.4c-1,0-1.7,0.8-1.7,1.7
			S521.8,108.3,522.7,108.3z"/>
		<path id="Shape_8_" class="st3" d="M522.7,119h44.4c1,0,1.7-0.8,1.7-1.7c0-1-0.8-1.7-1.7-1.7h-44.4c-1,0-1.7,0.8-1.7,1.7
			C521,118.3,521.8,119,522.7,119z"/>
		<path id="Shape_9_" class="st4" d="M508.5,70.9v-5.3c0-1,0.9-1.8,1.8-1.7H576c1,0,1.8,0.8,1.8,1.7v5.3c0,1-0.9,1.8-1.8,1.7h-65.6
			C509.4,72.8,508.6,72,508.5,70.9z"/>
		<path id="Shape_10_" class="st4" d="M524.6,145.7h-0.7c-0.6,0-1.2,0.3-1.5,0.9c-0.3,0.5-0.4,1.2-0.1,1.7l1.7,3.6
			c0.3,0.6,0.9,1,1.5,1h37.2c0.6,0,1.1-0.3,1.5-0.7l2.7-3.6c0.4-0.6,0.5-1.3,0.2-1.8s-0.9-1-1.5-1L524.6,145.7L524.6,145.7
			L524.6,145.7z"/>
		<path id="Shape_11_" class="st6" d="M574.3,96.8c0.4,0,0.7,0.1,1,0.3c4.9,3.3,7.9,8.8,7.9,14.8c0,5.9-3,11.5-7.9,14.8
			c-0.5,0.4-1.3,0.4-1.8,0.1c-0.6-0.3-1-0.9-1-1.5c0-0.7,0.3-1.3,0.8-1.6c4-2.6,6.3-7.1,6.3-11.8s-2.4-9.2-6.3-11.8
			c-0.7-0.5-1-1.3-0.7-2C572.9,97.2,573.6,96.8,574.3,96.8z"/>
	</g>
</g>
<g id="Layer_3">
	<rect x="155.9" y="117" class="st7" width="7.5" height="28.5"/>
	<rect x="192.5" y="78.4" class="st7" width="7.5" height="28.5"/>
	<rect x="239.4" y="116.5" class="st7" width="7.5" height="28.5"/>
	<rect x="275.9" y="77.9" class="st7" width="7.5" height="28.5"/>
	<rect x="323" y="117" class="st7" width="7.5" height="28.5"/>
	<rect x="359.6" y="78.6" class="st7" width="7.5" height="28.5"/>
	<rect x="406.5" y="116.8" class="st7" width="7.5" height="28.5"/>
	<rect x="443.1" y="78.2" class="st7" width="7.5" height="28.5"/>
	<rect x="136.9" y="106.8" class="st0" width="354.3" height="10.2"/>
</g>
<g id="Layer_2_1_">
</g>
<path id="el_iS3VrzYTzXL" class="st8" d="M492.8,168.3c1-0.2,2.3-0.3,3.9-0.3c2,0,3.5,0.5,4.4,1.3c0.9,0.7,1.4,1.9,1.4,3.3
	c0,1.4-0.4,2.5-1.2,3.3c-1.1,1.1-2.8,1.7-4.8,1.7c-0.6,0-1.2,0-1.6-0.1v6.3h-2L492.8,168.3L492.8,168.3z M494.9,175.8
	c0.4,0.1,1,0.2,1.7,0.2c2.4,0,3.9-1.2,3.9-3.3s-1.5-3.1-3.7-3.1c-0.9,0-1.6,0.1-1.9,0.2V175.8z"/>
<path id="el_v0tN5lXfzul" class="st8" d="M507.2,168.1v9.3c0,3.5,1.6,5,3.6,5c2.3,0,3.8-1.5,3.8-5v-9.3h2v9.1c0,4.8-2.5,6.8-5.9,6.8
	c-3.2,0-5.6-1.8-5.6-6.7v-9.2L507.2,168.1L507.2,168.1z"/>
<path id="el_bId6TNVBrw7" class="st8" d="M533.5,176.9c-0.1-2.2-0.3-4.8-0.2-6.8h-0.1c-0.5,1.8-1.2,3.8-2,5.9l-2.8,7.6H527l-2.5-7.5
	c-0.7-2.2-1.4-4.2-1.8-6.1l0,0c0,2-0.2,4.6-0.3,6.9l-0.4,6.7H520l1.1-15.7h2.6l2.7,7.6c0.7,1.9,1.2,3.6,1.6,5.3h0.1
	c0.4-1.6,1-3.3,1.7-5.3l2.8-7.6h2.6l1,15.7h-2L533.5,176.9z"/>
<path id="el_ZoJa4WNdSr-" class="st8" d="M539,168.3c1-0.2,2.3-0.3,3.9-0.3c2,0,3.5,0.5,4.4,1.3c0.9,0.7,1.4,1.9,1.4,3.3
	c0,1.4-0.4,2.5-1.2,3.3c-1.1,1.1-2.8,1.7-4.8,1.7c-0.6,0-1.2,0-1.6-0.1v6.3h-2v-15.5H539z M541,175.8c0.4,0.1,1,0.2,1.7,0.2
	c2.4,0,3.9-1.2,3.9-3.3s-1.5-3.1-3.7-3.1c-0.9,0-1.6,0.1-1.9,0.2V175.8z"/>
</svg>
