<svg xmlns="http://www.w3.org/2000/svg" viewBox="0 0 600 258" id="el_tZ_igjOw6"><style>@-webkit-keyframes el_Moco0FGkc-_Animation{0%{opacity: 1;}16.67%{opacity: 0.2;}33.33%{opacity: 1;}50%{opacity: 0.2;}66.67%{opacity: 1;}83.33%{opacity: 0.2;}100%{opacity: 1;}}@keyframes el_Moco0FGkc-_Animation{0%{opacity: 1;}16.67%{opacity: 0.2;}33.33%{opacity: 1;}50%{opacity: 0.2;}66.67%{opacity: 1;}83.33%{opacity: 0.2;}100%{opacity: 1;}}#el_tZ_igjOw6 *{-webkit-animation-duration: 3s;animation-duration: 3s;-webkit-animation-iteration-count: infinite;animation-iteration-count: infinite;-webkit-animation-timing-function: cubic-bezier(0, 0, 1, 1);animation-timing-function: cubic-bezier(0, 0, 1, 1);}#el_Moco0FGkc-{fill: #ff9a55;-webkit-animation-name: el_Moco0FGkc-_Animation;animation-name: el_Moco0FGkc-_Animation;opacity: 1;}#el_A_Umfi_mZk{fill: #6d6d6d;}#el_YGCM6HLySD{fill: #6d6d6d;}#el_12UAX7jEjh{fill: #6d6d6d;}#el_x0gvoFgEaL{fill: #6d6d6d;}#el_k3EquPBcf_{fill: #6d6d6d;}#el_a__nR7c81s{fill: #6d6d6d;}#el_ckOiZpcy4l{fill: #6d6d6d;}#el_XwaoXGVY-N{fill: #6d6d6d;}#el_BlFEcfTo6J{fill: #6d6d6d;}</style><defs/><title>GBFERT_HON</title><rect x="137.49" y="221.27" width="331.9" height="9.2" id="el_Moco0FGkc-"/><path d="M249.13,236.82v6.55h7.58v-6.55h2v15.66h-2v-7.34h-7.58v7.34h-2V236.82Z" id="el_A_Umfi_mZk"/><path d="M270.37,245.14h-6.09v5.65h6.79v1.7h-8.81V236.82h8.46v1.7h-6.44v5h6.09Z" id="el_YGCM6HLySD"/><path d="M276.23,247.56l-1.63,4.93h-2.09l5.32-15.66h2.44l5.35,15.66h-2.16l-1.67-4.93Zm5.14-1.58-1.53-4.51c-.35-1-.58-2-.81-2.86h0c-.23.93-.49,1.88-.79,2.83L276.65,246Z" id="el_12UAX7jEjh"/><path d="M289.1,238.54h-4.76v-1.72h11.6v1.72h-4.79v13.94h-2Z" id="el_x0gvoFgEaL"/><path d="M305.78,245.14H299.7v5.65h6.79v1.7h-8.81V236.82h8.46v1.7H299.7v5h6.09Z" id="el_k3EquPBcf_"/><path d="M309.11,237a21.07,21.07,0,0,1,3.88-.33c2.16,0,3.56.39,4.53,1.28a3.9,3.9,0,0,1,1.23,3,4.11,4.11,0,0,1-3,4V245c1.21.42,1.93,1.53,2.3,3.16a24.93,24.93,0,0,0,1.21,4.3h-2.09a20.25,20.25,0,0,1-1-3.74c-.46-2.16-1.3-3-3.14-3h-1.91v6.79h-2Zm2,7.13h2.07c2.16,0,3.53-1.19,3.53-3,0-2-1.46-2.91-3.6-2.93a8.31,8.31,0,0,0-2,.19Z" id="el_a__nR7c81s"/><path d="M321,243.1a1.39,1.39,0,1,1,2.77,0,1.38,1.38,0,1,1-2.77,0Zm0,8.2a1.39,1.39,0,1,1,2.77,0,1.38,1.38,0,1,1-2.77,0Z" id="el_ckOiZpcy4l"/><path d="M344.73,244.49c0,5.39-3.28,8.25-7.27,8.25s-7-3.21-7-7.95c0-5,3.09-8.23,7.27-8.23S344.73,239.85,344.73,244.49Zm-12.15.26c0,3.35,1.81,6.34,5,6.34s5-3,5-6.51c0-3.11-1.63-6.37-5-6.37S332.57,241.31,332.57,244.75Z" id="el_XwaoXGVY-N"/><path d="M347.35,252.49V236.82h2.21l5,7.92a44.4,44.4,0,0,1,2.81,5.09l0,0c-.19-2.09-.23-4-.23-6.44v-6.55h1.91v15.66h-2l-5-7.95a49.71,49.71,0,0,1-2.93-5.23l-.07,0c.12,2,.16,3.86.16,6.46v6.69Z" id="el_BlFEcfTo6J"/><script>(function(){var a=document.querySelector('#el_tZ_igjOw6'),b=a.querySelectorAll('style'),c=function(d){b.forEach(function(f){var g=f.textContent;g&amp;&amp;(f.textContent=g.replace(/transform-box:[^;\r\n]*/gi,'transform-box: '+d))})};c('initial'),window.requestAnimationFrame(function(){return c('fill-box')})})();</script></svg>