<svg version="1.1" id="el_wUuxEBOBD" xmlns="http://www.w3.org/2000/svg" xmlns:xlink="http://www.w3.org/1999/xlink" x="0px" y="0px" viewBox="0 0 600 258" style="enable-background:new 0 0 600 258.3;" xml:space="preserve"><style>@-webkit-keyframes el_CjFGWgDBimT_34vW6x9jK_Animation{0%{-webkit-transform: rotate(0deg);transform: rotate(0deg);}100%{-webkit-transform: rotate(1080deg);transform: rotate(1080deg);}}@keyframes el_CjFGWgDBimT_34vW6x9jK_Animation{0%{-webkit-transform: rotate(0deg);transform: rotate(0deg);}100%{-webkit-transform: rotate(1080deg);transform: rotate(1080deg);}}#el_wUuxEBOBD *{-webkit-animation-duration: 3s;animation-duration: 3s;-webkit-animation-iteration-count: infinite;animation-iteration-count: infinite;-webkit-animation-timing-function: cubic-bezier(0, 0, 1, 1);animation-timing-function: cubic-bezier(0, 0, 1, 1);}#el_ura2RcmqzG{fill: #4499D4;}#el_8Odnu20Sb5{fill: #64A9D9;}#el_0yWzFE5HOw{fill: #3F8EC9;}#el_YLivsT6iCo{fill: #3F8EC9;}#el_jtmL0-EyJs{fill: #2C7FBA;}#el_7MP_bBltAQ{fill: #4499D4;}#el_Nd1Y9aJaBI{fill: #3F8EC9;}#el_obt2V-QvrY{fill: #2C7FBA;}#el_tW1KK6y5N-{fill: #2C7FBA;}#el_XJFhxFvlNK{fill: #2C7FBA;}#el_HZNnEQjrAO{fill: #2C7FBA;}#el_075nfs9nvX{fill: #64A9D9;}#el_9gTaLQNLjn{fill: #64A9D9;}#el_LBz9Inuby4{fill: #2C7FBA;}#el_nzgcxr012K_{fill: #2C7FBA;}#el_LiyRquYPNqM{fill: #2C7FBA;}#el_TyIx2y8EwNC{fill: #2C7FBA;}#el_dz5sU4-LVlU{fill: #FDB62D;}#el_oUXpIvwNZld{fill: #3F8EC9;}#el_Sci1nU_AYoQ{fill: #020202;}#el_A-QZtMb8AiL{fill: #020202;}#el_z2Uo_XkbNKa{fill: #020202;}#el_FTClfH_OB_e{fill: #020202;}#el_9yX9tJlWPAL{fill: #020202;}#el_LD_m_lB2BXR{fill: #FDB62D;}#el_jJpFN6XjV-1{fill: #FDB62D;}#el_I7HTqSpiZ21{fill: #FDB62D;}#el_jn1utLD3sRT{fill: #FDB62D;}#el_di7Ez_e0tLm{fill: #020202;}#el_61rokGrtbwv{fill: #6D6D6D;}#el_tkTQz_oqBUa{fill: #6D6D6D;}#el_kRx03vD7s9R{fill: #6D6D6D;}#el_gnKSPaQzR-p{fill: #6D6D6D;}#el_sSakxs9IVXr{fill: #6D6D6D;}#el_IDfZFwAlV8d{fill: #6D6D6D;}#el_RqqM4cP4sKZ{fill: #6D6D6D;}#el_mV17D1Xuh0e{fill: #6D6D6D;}#el_f81BHiKuicE{fill: #6D6D6D;}#el_CjFGWgDBimT_34vW6x9jK{-webkit-animation-name: el_CjFGWgDBimT_34vW6x9jK_Animation;animation-name: el_CjFGWgDBimT_34vW6x9jK_Animation;-webkit-transform-origin: 50% 50%;transform-origin: 50% 50%;transform-box: fill-box;-webkit-transform: rotate(0deg);transform: rotate(0deg);}</style>

<g id="el_qvIvx8ToIF">
	<path d="M85,186.4h19.4c9.6,0,17.3-7.7,17.3-17.3c0-9.6-7.7-17.3-17.3-17.3S87,159.5,87,169.1c0,2.8,0.7,5.5,1.9,8h-4&#10;&#9;&#9;L85,186.4z" id="el_ura2RcmqzG"/>
	<circle cx="104.4" cy="169.1" r="10.7" id="el_8Odnu20Sb5"/>
	<path d="M112.4,184.5l4.8,1.5c1.6,0.5,3.4-0.5,4-2.1c0.2-0.6,0.2-1.3,0-1.8l-1.5-4.8&#10;&#9;&#9;C118,180.2,115.5,182.8,112.4,184.5z" id="el_0yWzFE5HOw"/>
	<path d="M96.2,153.7l-4.8-1.5c-1.6-0.5-3.4,0.5-4,2.1l0,0c-0.2,0.6-0.2,1.3,0,1.8l1.5,4.8&#10;&#9;&#9;C90.6,157.9,93.1,155.3,96.2,153.7z" id="el_YLivsT6iCo"/>
	<circle cx="104.4" cy="169.1" r="8" id="el_jtmL0-EyJs"/>
	<path d="M113.7,150.4v4.1c4.7,3.1,7.7,8.2,8,13.9l0,0v-18h2.7V149H111v1.4L113.7,150.4z" id="el_7MP_bBltAQ"/>
	<path d="M113.7,152.7v1.7c4.7,3.1,7.7,8.2,8,13.9l0,0v-8C120.3,157.6,117.8,154,113.7,152.7L113.7,152.7z" id="el_Nd1Y9aJaBI"/>
	<path d="M91,186.4h-1.4V177H91V186.4z" id="el_obt2V-QvrY"/>
	<path d="M121.7,153h-8v-1.3h8V153z" id="el_tW1KK6y5N-"/>
	<path d="M119,183.7h-1.4v-1.4h1.4V183.7z" id="el_XJFhxFvlNK"/>
	<path d="M91,155.7h-1.4v-1.4H91V155.7z" id="el_HZNnEQjrAO"/>
	<path d="M118.3,169.1h1.4c0,8.4-6.9,15.3-15.3,15.3V183C112.1,183,118.3,176.8,118.3,169.1z" id="el_075nfs9nvX"/>
	<path d="M103,184.4h-1.4V183h1.4V184.4z" id="el_9gTaLQNLjn"/>
	<path d="M109,169.1h-3.4c0,0.4-0.1,0.7-0.4,1l2.3,2.3c0.6,0.6,1.5,0.9,2.2,0.8l1.5-0.2c1.1-1.8,1.3-4.1,0.7-6.1&#10;&#9;&#9;l-0.9,1.2C110.7,168.7,109.9,169.1,109,169.1L109,169.1z" id="el_LBz9Inuby4"/>
	<path d="M104.4,174.1v-3.7c-0.4,0-0.7-0.1-1-0.4l-2.3,2.3c-0.6,0.6-0.9,1.5-0.8,2.2l0.2,1.5c1.8,1,4,1.3,5.9,0.7&#10;&#9;&#9;l-0.6-0.3C104.9,176.1,104.4,175.1,104.4,174.1L104.4,174.1z" id="el_nzgcxr012K_"/>
	<path d="M104.4,164.4v3.3c0.4,0,0.7,0.1,1,0.4l2.3-2.3c0.6-0.6,0.9-1.5,0.8-2.2l-0.2-1.5c-1.8-1.1-4.1-1.3-6.1-0.7&#10;&#9;&#9;l1.2,0.9C103.9,162.8,104.3,163.6,104.4,164.4z" id="el_LiyRquYPNqM"/>
	<path d="M96.6,171.3l0.9-1.2c0.5-0.7,1.3-1.1,2.1-1.1h3.4c0-0.4,0.1-0.7,0.4-1l-2.3-2.3c-0.6-0.6-1.5-0.9-2.2-0.8&#10;&#9;&#9;l-1.5,0.2C96.2,167.1,96,169.3,96.6,171.3z" id="el_TyIx2y8EwNC"/>
	<circle cx="104.4" cy="169.1" r="1.4" id="el_dz5sU4-LVlU"/>
	<path d="M97.3,177c-0.9-0.8-1.6-1.6-2.2-2.7h-7.3c0.3,0.9,0.7,1.8,1.1,2.7H97.3z" id="el_oUXpIvwNZld"/>
	<path d="M85.7,187.1h18.7c2.8,0,5.6-0.7,8.1-1.9l4.6,1.4c2,0.6,4.2-0.6,4.7-2.5l0,0c0.2-0.7,0.2-1.5,0-2.2l-1.4-4.6&#10;&#9;&#9;c1.3-2.5,1.9-5.3,1.9-8.1c0-0.2,0-0.4,0-0.6v-0.1v-18h2V149h-13.4v1.4h1.9v2.9c-5.2-2.9-11.5-3-16.8-0.3l-4.6-1.4&#10;&#9;&#9;c-2-0.6-4.2,0.6-4.7,2.5l0,0c-0.2,0.7-0.2,1.5,0,2.2l1.4,4.6c-2.4,4.8-2.6,10.6-0.4,15.5h-2.2v-2h-1.4v14.7h1.4L85.7,187.1z&#10;&#9;&#9; M120.4,182.2c0.4,1.4-0.4,2.7-1.6,3.1c-0.5,0.1-1,0.1-1.5,0l-3.4-1l0.3-0.2l0.1-0.1c1.8-1.3,3.5-2.9,4.8-4.7l0.1-0.1l0.2-0.3&#10;&#9;&#9;L120.4,182.2z M114.3,150.4h6.7v1.4h-6.7V150.4z M114.3,153h6.7v9.2c-0.2-0.4-0.4-0.8-0.6-1.2V161c-0.2-0.4-0.4-0.7-0.6-1.1&#10;&#9;&#9;l-0.1-0.1c-0.2-0.3-0.4-0.7-0.7-1c-0.1-0.1-0.1-0.2-0.2-0.2c-0.2-0.3-0.4-0.5-0.6-0.8c-0.1-0.1-0.1-0.2-0.2-0.2&#10;&#9;&#9;c-0.2-0.3-0.5-0.6-0.7-0.8c-0.1-0.1-0.2-0.2-0.3-0.3c-0.2-0.2-0.4-0.4-0.6-0.6c-0.1-0.1-0.3-0.2-0.4-0.4c-0.2-0.2-0.5-0.4-0.7-0.6&#10;&#9;&#9;c-0.1-0.1-0.2-0.2-0.4-0.3c-0.3-0.2-0.6-0.5-0.9-0.7h-0.1L114.3,153z M88.1,156c-0.4-1.4,0.4-2.7,1.6-3.1l0,0c0.5-0.1,1-0.1,1.5,0&#10;&#9;&#9;l3.4,1l-0.3,0.2l-0.1,0.1c-1.8,1.3-3.5,2.9-4.7,4.7l-0.1,0.1l-0.2,0.3L88.1,156z M87.6,169.1c0-2.7,0.7-5.4,1.9-7.8&#10;&#9;&#9;c0.2-0.3,0.3-0.6,0.5-0.9c0.1-0.1,0.2-0.2,0.2-0.4l0.5-0.5c0.2-0.2,0.3-0.5,0.5-0.7c0.1-0.1,0.2-0.3,0.3-0.4&#10;&#9;&#9;c0.1-0.2,0.3-0.3,0.5-0.5l0.2-0.2c0.3-0.3,0.6-0.6,0.9-0.9l0.2-0.2c0.2-0.2,0.3-0.3,0.5-0.5c0.1-0.1,0.2-0.2,0.4-0.3&#10;&#9;&#9;c0.2-0.2,0.5-0.4,0.7-0.5l0.5-0.4c0.1-0.1,0.2-0.2,0.4-0.2c0.3-0.2,0.6-0.3,0.9-0.5c5.4-2.9,11.9-2.6,17,0.8&#10;&#9;&#9;c0.1,0.1,0.3,0.2,0.4,0.3c0.1,0.1,0.2,0.2,0.4,0.3c0.1,0.1,0.3,0.2,0.4,0.3l0.6,0.5c0.1,0.1,0.2,0.2,0.3,0.3&#10;&#9;&#9;c0.1,0.1,0.2,0.2,0.4,0.3c0.1,0.1,0.2,0.2,0.3,0.3c0.1,0.1,0.2,0.2,0.3,0.4c0.1,0.1,0.2,0.2,0.3,0.3l0.3,0.3&#10;&#9;&#9;c0.2,0.2,0.4,0.5,0.6,0.7c0,0.1,0.1,0.1,0.1,0.2c0.2,0.2,0.3,0.4,0.5,0.6c0.1,0.1,0.1,0.1,0.1,0.2c0.1,0.2,0.3,0.4,0.4,0.6l0.1,0.2&#10;&#9;&#9;c0.1,0.3,0.3,0.5,0.4,0.8l0,0c1.1,2.1,1.6,4.5,1.7,6.8c0,0.2,0,0.5,0,0.7c0,2.7-0.7,5.4-1.9,7.8c-0.2,0.3-0.3,0.6-0.5,0.9&#10;&#9;&#9;c-0.1,0.1-0.2,0.3-0.2,0.4l-0.4,0.5c-0.2,0.2-0.3,0.5-0.5,0.7c-0.1,0.1-0.2,0.2-0.3,0.4c-0.1,0.2-0.3,0.3-0.5,0.5l-0.2,0.2&#10;&#9;&#9;c-0.3,0.3-0.6,0.6-0.9,0.9l-0.2,0.2c-0.2,0.2-0.3,0.3-0.5,0.5c-0.1,0.1-0.2,0.2-0.4,0.3c-0.2,0.2-0.5,0.4-0.7,0.5l-0.5,0.4&#10;&#9;&#9;c-0.1,0.1-0.2,0.2-0.4,0.2c-0.3,0.2-0.6,0.3-0.9,0.5c-2.4,1.3-5.1,1.9-7.8,1.9H90.9v-8h6l0,0c4.7,4.1,12,3.5,16.1-1.3&#10;&#9;&#9;c4.1-4.7,3.5-12-1.3-16.1c-4.7-4.1-12-3.5-16.1,1.3c-3.6,4.3-3.6,10.5,0,14.7h-6.4C88.2,174.1,87.6,171.6,87.6,169.1L87.6,169.1z&#10;&#9;&#9; M94.3,169.1c0-5.5,4.5-10,10-10c5.5,0,10,4.5,10,10s-4.5,10-10,10C98.8,179.1,94.3,174.6,94.3,169.1L94.3,169.1z M85.7,177.7h4v8&#10;&#9;&#9;h-4V177.7z" id="el_Sci1nU_AYoQ"/>
	<path d="M119,183.7h-1.4v-1.4h1.4V183.7z" id="el_A-QZtMb8AiL"/>
	<path d="M91,155.7h-1.4v-1.4H91V155.7z" id="el_z2Uo_XkbNKa"/>
	<path d="M104.4,183.1v1.4c8.4,0,15.3-6.9,15.3-15.3h-1.4C118.3,176.8,112,183,104.4,183.1z" id="el_FTClfH_OB_e"/>
	<path d="M103,184.4h-1.4V183h1.4V184.4z" id="el_9yX9tJlWPAL"/>
	<g id="el_CjFGWgDBimT_34vW6x9jK" data-animator-group="true" data-animator-type="1"><g id="el_CjFGWgDBimT">
		<path d="M107.7,172.4l-2.3-2.3c-0.3,0.3-0.6,0.4-1,0.4v3.7c0,1,0.6,1.9,1.5,2.4l0.6,0.3c2.1-0.6,3.9-1.9,4.9-3.9&#10;&#9;&#9;&#9;l-1.5,0.2C109,173.3,108.2,173,107.7,172.4z" id="el_LD_m_lB2BXR"/>
		<path d="M101,172.4l2.3-2.3c-0.3-0.3-0.4-0.6-0.4-1h-3.3c-0.9,0-1.6,0.4-2.1,1.1l-0.9,1.2c0.6,2,1.9,3.8,3.9,4.7&#10;&#9;&#9;&#9;l-0.2-1.5C100.1,173.8,100.4,173,101,172.4z" id="el_jJpFN6XjV-1"/>
		<path d="M107.7,165.8l-2.3,2.3c0.3,0.3,0.4,0.6,0.4,1h3.4c0.9,0,1.6-0.4,2.1-1.1l0.9-1.2c-0.6-2-1.9-3.8-3.9-4.7&#10;&#9;&#9;&#9;l0.2,1.5C108.5,164.3,108.2,165.1,107.7,165.8L107.7,165.8z" id="el_I7HTqSpiZ21"/>
		<path d="M101,165.8l2.3,2.3c0.3-0.3,0.6-0.4,1-0.4v-3.3c0-0.9-0.4-1.6-1.1-2.1l-1.2-0.9c-2,0.6-3.8,1.9-4.7,3.9&#10;&#9;&#9;&#9;l1.5-0.2C99.6,164.9,100.4,165.1,101,165.8z" id="el_jn1utLD3sRT"/>
		<path d="M97.6,174.5c0.2,0.2,0.3,0.4,0.5,0.6l0.1,0.1c0.1,0.1,0.3,0.3,0.5,0.4c0.1,0.1,0.1,0.1,0.2,0.2&#10;&#9;&#9;&#9;c0.1,0.1,0.2,0.2,0.4,0.3c0.1,0.1,0.2,0.2,0.3,0.2c0.1,0.1,0.2,0.1,0.3,0.2c0.1,0.1,0.3,0.2,0.4,0.2l0,0c0.1,0,0.1,0.1,0.2,0.1&#10;&#9;&#9;&#9;c0.2,0.1,0.4,0.2,0.6,0.3l0.3,0.1c0.2,0.1,0.4,0.1,0.5,0.2c0.1,0,0.2,0.1,0.3,0.1c0.2,0.1,0.3,0.1,0.5,0.1c0.1,0,0.2,0,0.4,0.1&#10;&#9;&#9;&#9;c0.2,0,0.3,0.1,0.5,0.1c0.1,0,0.3,0,0.4,0c0.2,0,0.3,0,0.5,0h0.1c0.1,0,0.3,0,0.4,0c0.1,0,0.2,0,0.3,0c0.2,0,0.5-0.1,0.7-0.1h0.2&#10;&#9;&#9;&#9;c0.3-0.1,0.5-0.1,0.8-0.2c0,0,0,0,0.1,0l0,0c0.3-0.1,0.5-0.2,0.8-0.3h0.1c0.3-0.1,0.5-0.2,0.8-0.3c0,0,0,0,0.1,0&#10;&#9;&#9;&#9;c0.2-0.1,0.5-0.3,0.7-0.4l0.1-0.1c0.2-0.1,0.4-0.3,0.6-0.4l0.1-0.1c0.2-0.1,0.3-0.3,0.5-0.5c0-0.1,0.1-0.1,0.2-0.1&#10;&#9;&#9;&#9;c0.1-0.1,0.3-0.3,0.4-0.4l0.2-0.2c0.1-0.1,0.2-0.3,0.3-0.4c0.1-0.1,0.2-0.2,0.2-0.3c0.1-0.1,0.2-0.3,0.2-0.4&#10;&#9;&#9;&#9;c0.1-0.1,0.1-0.2,0.2-0.3l0,0c0.2-0.3,0.3-0.6,0.4-0.9c0-0.1,0.1-0.2,0.1-0.3c0.1-0.2,0.2-0.5,0.2-0.7c0-0.1,0.1-0.2,0.1-0.3&#10;&#9;&#9;&#9;c0.1-0.2,0.1-0.5,0.1-0.8c0-0.1,0-0.2,0-0.3c0-0.3,0.1-0.7,0.1-1s0-0.5,0-0.8c0-0.1,0-0.2,0-0.3c0-0.2-0.1-0.3-0.1-0.5&#10;&#9;&#9;&#9;c0-0.2-0.1-0.4-0.1-0.6c0-0.1-0.1-0.3-0.1-0.4l0,0c-0.1-0.2-0.2-0.5-0.3-0.7v-0.1c-0.1-0.3-0.2-0.5-0.3-0.7c0,0,0,0,0-0.1&#10;&#9;&#9;&#9;c-0.1-0.2-0.3-0.5-0.4-0.7l0,0c-0.2-0.2-0.3-0.5-0.5-0.7v-0.1c-0.2-0.2-0.3-0.4-0.5-0.6l-0.1-0.1c-0.1-0.2-0.3-0.3-0.5-0.4&#10;&#9;&#9;&#9;c-0.1-0.1-0.1-0.1-0.2-0.2c-0.1-0.1-0.3-0.2-0.4-0.3c-0.1-0.1-0.2-0.2-0.3-0.2c-0.1-0.1-0.2-0.1-0.3-0.2s-0.3-0.2-0.4-0.2l0,0&#10;&#9;&#9;&#9;c-0.3-0.2-0.6-0.3-0.9-0.4c-0.1,0-0.2-0.1-0.3-0.1c-0.2-0.1-0.5-0.2-0.7-0.2c-0.1,0-0.2-0.1-0.3-0.1c-0.3-0.1-0.5-0.1-0.8-0.1&#10;&#9;&#9;&#9;c-0.1,0-0.2,0-0.3,0c-0.3,0-0.7-0.1-1-0.1s-0.5,0-0.8,0c-0.1,0-0.2,0-0.3,0c-0.2,0-0.3,0.1-0.5,0.1c-0.2,0-0.4,0.1-0.6,0.1&#10;&#9;&#9;&#9;l-0.4,0.1l0,0c-0.2,0.1-0.5,0.2-0.7,0.3h-0.1c-0.2,0.1-0.5,0.2-0.7,0.3h-0.1c-0.2,0.1-0.5,0.3-0.7,0.4l0,0&#10;&#9;&#9;&#9;c-0.2,0.1-0.4,0.3-0.7,0.5l-0.1,0.1c-0.2,0.2-0.4,0.3-0.5,0.5l-0.1,0.1c-0.1,0.1-0.3,0.3-0.4,0.4c-0.1,0.1-0.1,0.1-0.2,0.2&#10;&#9;&#9;&#9;c-0.1,0.1-0.2,0.2-0.3,0.4c-0.1,0.1-0.2,0.2-0.3,0.3c-0.1,0.1-0.1,0.2-0.2,0.3c-0.1,0.1-0.2,0.3-0.3,0.4l0,0&#10;&#9;&#9;&#9;c-0.2,0.3-0.3,0.6-0.4,0.9l-0.1,0.3c-0.1,0.2-0.2,0.5-0.2,0.7c0,0.1-0.1,0.2-0.1,0.3c-0.1,0.3-0.1,0.5-0.1,0.8c0,0.1,0,0.2,0,0.3&#10;&#9;&#9;&#9;c0,0.3-0.1,0.7-0.1,1s0,0.5,0,0.8c0,0.1,0,0.2,0,0.3c0,0.2,0.1,0.3,0.1,0.5c0,0.2,0.1,0.4,0.1,0.6c0,0.1,0.1,0.3,0.1,0.4l0,0&#10;&#9;&#9;&#9;c0.1,0.2,0.2,0.5,0.3,0.7v0.1c0.1,0.2,0.2,0.5,0.3,0.7c0,0,0,0,0,0.1l0.4,0.7l0,0C97.2,174,97.3,174.2,97.6,174.5&#10;&#9;&#9;&#9;C97.5,174.4,97.6,174.5,97.6,174.5L97.6,174.5z M104.5,176.4c-0.2,0-0.4,0-0.6,0c-0.1,0-0.2,0-0.3,0c-0.3,0-0.5-0.1-0.8-0.1&#10;&#9;&#9;&#9;l-0.2-0.1c-0.2,0-0.4-0.1-0.6-0.2l-0.3-0.1c-0.2-0.1-0.3-0.1-0.5-0.2l-0.2-0.1l-0.2-1.1c-0.1-0.6,0.1-1.3,0.6-1.7l1.9-1.9h0.1l0,0&#10;&#9;&#9;&#9;h0.1v3.2c0,0.2,0,0.4,0.1,0.6c0,0.1,0,0.1,0,0.2c0,0.2,0.1,0.3,0.1,0.4c0,0.1,0,0.1,0.1,0.1c0.1,0.2,0.2,0.4,0.3,0.5l0.1,0.1&#10;&#9;&#9;&#9;C104.4,176.1,104.5,176.3,104.5,176.4C104.6,176.3,104.6,176.4,104.5,176.4L104.5,176.4z M104.9,169.5c-0.1,0.1-0.2,0.2-0.3,0.2&#10;&#9;&#9;&#9;c-0.2,0.1-0.5,0.1-0.7-0.1c-0.1,0-0.1-0.1-0.2-0.2c-0.2-0.2-0.2-0.6,0-0.8c0-0.1,0.1-0.1,0.2-0.2c0.2-0.2,0.4-0.2,0.7-0.1&#10;&#9;&#9;&#9;c0,0,0.1,0,0.1,0.1c0.1,0,0.1,0.1,0.1,0.1l0.1,0.1c0.1,0.2,0.1,0.4,0,0.5C105,169.4,104.9,169.4,104.9,169.5L104.9,169.5z&#10;&#9;&#9;&#9; M109.9,173.8c-0.2,0.2-0.4,0.5-0.6,0.7l-0.1,0.1c-0.5,0.5-1.1,0.8-1.6,1.1l0,0c-0.3,0.2-0.7,0.3-1,0.4l-0.4-0.2&#10;&#9;&#9;&#9;c-0.7-0.4-1.1-1.1-1.1-1.8v-3.1h0.1l0,0h0.1l1.9,1.9c0.2,0.1,0.3,0.3,0.5,0.4l0.1,0.1c0.2,0.1,0.3,0.2,0.5,0.3h0.1&#10;&#9;&#9;&#9;c0.2,0.1,0.4,0.1,0.6,0.2l0,0c0.2,0,0.4,0.1,0.6,0.1h0.1C109.6,173.8,109.7,173.8,109.9,173.8L109.9,173.8L109.9,173.8&#10;&#9;&#9;&#9;L109.9,173.8z M111.5,168.6C111.5,168.5,111.6,168.5,111.5,168.6c0.1,0.1,0.1,0.3,0.1,0.6s0,0.6-0.1,0.8c0,0.1,0,0.1,0,0.2&#10;&#9;&#9;&#9;c0,0.2-0.1,0.4-0.1,0.6c0,0.1,0,0.2-0.1,0.2c-0.1,0.2-0.1,0.4-0.2,0.5c0,0.1-0.1,0.2-0.1,0.3c-0.1,0.2-0.1,0.3-0.2,0.5&#10;&#9;&#9;&#9;c0,0.1-0.1,0.1-0.1,0.2l-1.1,0.2c-0.6,0.1-1.3-0.1-1.7-0.6l-1.9-1.9V170l0,0v-0.1h2.8c0.1,0,0.3,0,0.4,0c0.1,0,0.1,0,0.1,0&#10;&#9;&#9;&#9;c0.1,0,0.2,0,0.3-0.1l0.2-0.1c0.1,0,0.2,0,0.2-0.1c0.1,0,0.1,0,0.2-0.1c0.1,0,0.1-0.1,0.2-0.1c0.1,0,0.1-0.1,0.2-0.1&#10;&#9;&#9;&#9;c0.1,0,0.1-0.1,0.2-0.1c0.1,0,0.1-0.1,0.2-0.1l0.2-0.1l0.1-0.1c0.1-0.1,0.1-0.1,0.2-0.1C111.4,168.7,111.4,168.6,111.5,168.6&#10;&#9;&#9;&#9;L111.5,168.6z M108.3,166L108.3,166c0.2-0.2,0.2-0.2,0.3-0.3l0.1-0.1c0-0.1,0.1-0.1,0.1-0.2c0,0,0-0.1,0.1-0.1&#10;&#9;&#9;&#9;c0-0.1,0.1-0.1,0.1-0.2c0,0,0-0.1,0-0.2s0-0.2,0.1-0.2c0-0.1,0-0.1,0-0.2c0-0.1,0-0.1,0-0.2s0-0.1,0-0.2c0-0.1,0-0.1,0-0.2&#10;&#9;&#9;&#9;c0-0.1,0-0.1,0-0.2s0-0.1,0-0.2l0.1,0.1c0.2,0.2,0.4,0.4,0.6,0.6l0.1,0.1c0.4,0.5,0.8,1,1.1,1.5v0.1c0.1,0.3,0.2,0.5,0.3,0.8&#10;&#9;&#9;&#9;c0,0,0,0,0,0.1l-0.7,0.9c-0.4,0.5-1,0.8-1.5,0.8h-2.8v-0.1l0,0v-0.1l1.9-1.9C108.1,166.1,108.2,166,108.3,166L108.3,166z&#10;&#9;&#9;&#9; M103.8,161.7c0.3,0,0.5,0,0.8,0c0.1,0,0.2,0,0.3,0c0.2,0,0.5,0.1,0.7,0.1c0.1,0,0.1,0,0.2,0c0.3,0.1,0.6,0.1,0.9,0.2&#10;&#9;&#9;&#9;c0.1,0,0.1,0,0.2,0.1c0.2,0.1,0.5,0.2,0.7,0.3l0.1,0.1l0.2,1.1c0.1,0.6-0.1,1.3-0.6,1.7l-1.9,1.9h-0.1l0,0h-0.1v-2.8&#10;&#9;&#9;&#9;c0-0.1,0-0.3,0-0.4c0-0.1,0-0.1,0-0.1l-0.1-0.3l-0.1-0.2c0-0.1,0-0.2-0.1-0.2c0-0.1-0.1-0.1-0.1-0.2s-0.1-0.1-0.1-0.2&#10;&#9;&#9;&#9;s-0.1-0.1-0.1-0.2c0-0.1-0.1-0.1-0.1-0.2s-0.1-0.1-0.1-0.2s-0.1-0.1-0.1-0.2l-0.1-0.1c0-0.1-0.1-0.1-0.1-0.2&#10;&#9;&#9;&#9;C103.9,161.9,103.9,161.9,103.8,161.7C103.7,161.8,103.7,161.7,103.8,161.7L103.8,161.7L103.8,161.7z M98.8,164.2&#10;&#9;&#9;&#9;c0.2-0.2,0.4-0.4,0.6-0.6l0.1-0.1c0.5-0.4,1-0.8,1.5-1.1l0.1-0.1c0.3-0.1,0.5-0.2,0.8-0.3c0,0,0,0,0.1,0l0.9,0.7&#10;&#9;&#9;&#9;c0.5,0.4,0.8,1,0.9,1.5v2.8h-0.1l0,0h-0.1l-1.9-1.9c-0.2-0.1-0.3-0.3-0.5-0.4l-0.1-0.1c-0.2-0.1-0.3-0.2-0.5-0.3h-0.1&#10;&#9;&#9;&#9;c-0.2-0.1-0.4-0.1-0.6-0.2h-0.1c-0.2,0-0.4-0.1-0.6-0.1l0,0C99,164.3,98.9,164.3,98.8,164.2C98.8,164.3,98.8,164.3,98.8,164.2&#10;&#9;&#9;&#9;L98.8,164.2z M97.1,169.6C97.1,169.7,97,169.7,97.1,169.6c-0.1-0.1-0.1-0.3-0.1-0.5c0-0.3,0-0.6,0.1-0.8c0-0.1,0-0.1,0-0.2&#10;&#9;&#9;&#9;c0-0.2,0.1-0.4,0.1-0.6c0-0.1,0-0.2,0.1-0.2c0.1-0.2,0.1-0.4,0.2-0.5c0-0.1,0.1-0.2,0.1-0.3c0.1-0.2,0.1-0.3,0.2-0.5l0.1-0.2&#10;&#9;&#9;&#9;l1.1-0.2c0.6-0.1,1.3,0.1,1.7,0.6l1.9,1.9v0.1l0,0v0.1h-2.8c-0.1,0-0.3,0-0.4,0c-0.1,0-0.1,0-0.1,0l-0.3,0.1l-0.2,0.1&#10;&#9;&#9;&#9;c-0.1,0-0.2,0-0.2,0.1c-0.1,0-0.1,0.1-0.2,0.1c-0.1,0-0.1,0.1-0.2,0.1c-0.1,0-0.1,0.1-0.2,0.1c-0.1,0-0.1,0.1-0.2,0.1l-0.2,0.1&#10;&#9;&#9;&#9;h-0.2l-0.1,0.1c-0.1,0-0.1,0.1-0.2,0.1C97.2,169.5,97.1,169.5,97.1,169.6L97.1,169.6z M97.4,171.4l0.7-0.9c0.4-0.5,1-0.8,1.5-0.8&#10;&#9;&#9;&#9;h2.8v0.1l0,0v0.1l-1.9,1.9c-0.1,0.1-0.2,0.2-0.3,0.3l-0.1,0.1c-0.1,0.1-0.1,0.1-0.1,0.2c0,0.1,0,0.1-0.1,0.1&#10;&#9;&#9;&#9;c0,0.1-0.1,0.1-0.1,0.2c0,0.1,0,0.1-0.1,0.2c0,0.1-0.1,0.1-0.1,0.2s0,0.1-0.1,0.2l-0.1,0.2c0,0.1,0,0.1,0,0.2s0,0.1,0,0.2v0.4&#10;&#9;&#9;&#9;c0,0.1,0,0.1,0,0.2c0,0.1,0,0.1,0,0.2l-0.1-0.1c-0.2-0.2-0.4-0.4-0.6-0.6l-0.1-0.1c-0.4-0.5-0.8-1-1.1-1.5c0,0,0-0.1-0.1-0.1&#10;&#9;&#9;&#9;C97.6,172,97.5,171.8,97.4,171.4C97.4,171.5,97.4,171.4,97.4,171.4L97.4,171.4z" id="el_di7Ez_e0tLm"/>
	</g></g>
</g>
<g id="el_hYcuNLnS-rI">
	<path d="M1.8,200.5c0.9-0.2,2.3-0.3,3.7-0.3c2,0,3.3,0.3,4.3,1.1c0.8,0.6,1.3,1.5,1.3,2.8c0,1.5-1,2.8-2.6,3.4v0&#10;&#9;&#9;c1.5,0.4,3.2,1.6,3.2,3.9c0,1.3-0.5,2.4-1.3,3.1c-1.1,1-2.9,1.5-5.4,1.5c-1.4,0-2.5-0.1-3.1-0.2V200.5z M3.8,206.9h1.8&#10;&#9;&#9;c2.1,0,3.4-1.1,3.4-2.6c0-1.8-1.4-2.6-3.4-2.6c-0.9,0-1.5,0.1-1.8,0.1V206.9z M3.8,214.5c0.4,0.1,1,0.1,1.7,0.1c2.1,0,4-0.8,4-3&#10;&#9;&#9;c0-2.1-1.8-3-4-3H3.8V214.5z" id="el_61rokGrtbwv"/>
	<path d="M14.4,200.3h2v14h6.7v1.7h-8.7V200.3z" id="el_tkTQz_oqBUa"/>
	<path d="M37.8,208c0,5.4-3.3,8.3-7.3,8.3c-4.1,0-7-3.2-7-7.9c0-5,3.1-8.2,7.3-8.2C35,200.1,37.8,203.3,37.8,208z&#10;&#9;&#9; M25.7,208.2c0,3.3,1.8,6.3,5,6.3c3.2,0,5-3,5-6.5c0-3.1-1.6-6.4-5-6.4C27.3,201.7,25.7,204.8,25.7,208.2z" id="el_kRx03vD7s9R"/>
	<path d="M43,216l-4-15.7h2.1l1.9,7.9c0.5,2,0.9,3.9,1.2,5.4h0c0.3-1.6,0.7-3.4,1.3-5.4l2.1-7.9h2.1l1.9,7.9&#10;&#9;&#9;c0.4,1.9,0.9,3.7,1.1,5.4h0c0.3-1.7,0.8-3.5,1.3-5.4l2.1-7.9h2.1L53.7,216h-2.1l-2-8.2c-0.5-2-0.8-3.5-1-5.1h0&#10;&#9;&#9;c-0.3,1.6-0.6,3.1-1.2,5.1l-2.2,8.2H43z" id="el_gnKSPaQzR-p"/>
	<path d="M68.2,208.6h-6.1v5.6h6.8v1.7h-8.8v-15.7h8.5v1.7h-6.4v5h6.1V208.6z" id="el_sSakxs9IVXr"/>
	<path d="M71.5,200.5c1-0.2,2.5-0.3,3.9-0.3c2.2,0,3.6,0.4,4.5,1.3c0.8,0.7,1.2,1.8,1.2,3c0,2.1-1.3,3.4-3,4v0.1&#10;&#9;&#9;c1.2,0.4,1.9,1.5,2.3,3.2c0.5,2.2,0.9,3.7,1.2,4.3h-2.1c-0.3-0.4-0.6-1.8-1-3.7c-0.5-2.2-1.3-3-3.1-3h-1.9v6.8h-2V200.5z&#10;&#9;&#9; M73.5,207.7h2.1c2.2,0,3.5-1.2,3.5-3c0-2-1.5-2.9-3.6-2.9c-1,0-1.7,0.1-2,0.2V207.7z" id="el_IDfZFwAlV8d"/>
	<path d="M83.5,206.6c0-0.9,0.6-1.5,1.4-1.5c0.8,0,1.3,0.6,1.4,1.5c0,0.8-0.5,1.4-1.4,1.4C84,208,83.5,207.4,83.5,206.6&#10;&#9;&#9;z M83.5,214.8c0-0.9,0.6-1.5,1.4-1.5c0.8,0,1.3,0.6,1.4,1.5c0,0.8-0.5,1.4-1.4,1.4C84,216.2,83.5,215.6,83.5,214.8z" id="el_RqqM4cP4sKZ"/>
	<path d="M107.1,208c0,5.4-3.3,8.3-7.3,8.3c-4.1,0-7-3.2-7-7.9c0-5,3.1-8.2,7.3-8.2C104.4,200.1,107.1,203.3,107.1,208z&#10;&#9;&#9; M95,208.2c0,3.3,1.8,6.3,5,6.3c3.2,0,5-3,5-6.5c0-3.1-1.6-6.4-5-6.4C96.7,201.7,95,204.8,95,208.2z" id="el_mV17D1Xuh0e"/>
	<path d="M109.8,216v-15.7h2.2l5,7.9c1.2,1.8,2.1,3.5,2.8,5.1l0,0c-0.2-2.1-0.2-4-0.2-6.4v-6.6h1.9V216h-2l-5-7.9&#10;&#9;&#9;c-1.1-1.7-2.1-3.5-2.9-5.2l-0.1,0c0.1,2,0.2,3.9,0.2,6.5v6.7H109.8z" id="el_f81BHiKuicE"/>
</g>
<g id="el_pHYkageVzxc">
</g>
<script>(function(){var a=document.querySelector('#el_wUuxEBOBD'),b=a.querySelectorAll('style'),c=function(d){b.forEach(function(f){var g=f.textContent;g&amp;&amp;(f.textContent=g.replace(/transform-box:[^;\r\n]*/gi,'transform-box: '+d))})};c('initial'),window.requestAnimationFrame(function(){return c('fill-box')})})();</script></svg>