<?xml version="1.0" encoding="iso-8859-1"?>
<!-- Generator: Adobe Illustrator 19.0.0, SVG Export Plug-In . SVG Version: 6.00 Build 0)  -->
<svg version="1.1" id="Capa_1" xmlns="http://www.w3.org/2000/svg" xmlns:xlink="http://www.w3.org/1999/xlink" x="0px" y="0px"
	 viewBox="0 0 512 512" style="enable-background:new 0 0 512 512;" xml:space="preserve">
<circle style="fill:#FFDA00;" cx="256" cy="256" r="256"/>
<path style="fill:#FFB600;" d="M512,256c0-14.024-1.145-27.779-3.315-41.19L395.547,101.671l-300.69,78.043L64.333,270.7
	L173.13,379.497l-62.99,12.121l19.837,19.837l-6.231,3.851l93.821,93.821C230.104,511.015,242.937,512,256,512
	C397.385,512,512,397.385,512,256z"/>
<g>
	<rect x="64.33" y="205.37" style="fill:#005FF7;" width="35.793" height="65.33"/>
	<path style="fill:#005FF7;" d="M93.181,210.877h-9.779v-16.973c0-10.542,8.388-19.119,18.697-19.119h28.432v10h-28.432
		c-4.918,0-8.918,4.091-8.918,9.119C93.181,193.904,93.181,210.877,93.181,210.877z"/>
</g>
<g>
	<rect x="411.87" y="205.37" style="fill:#0059F7;" width="35.793" height="65.33"/>
	<path style="fill:#0059F7;" d="M428.598,210.877h-9.779v-16.973c0-5.028-4-9.119-8.918-9.119h-28.432v-10h28.432
		c10.309,0,18.697,8.577,18.697,19.119V210.877z"/>
</g>
<path style="fill:#495959;" d="M159.663,422.902h-19.878c-11.452,0-20.735-9.283-20.735-20.735v-53.493
	c0-11.452,9.283-20.735,20.735-20.735h19.878c11.452,0,20.735,9.283,20.735,20.735v53.493
	C180.398,413.619,171.115,422.902,159.663,422.902z"/>
<path style="fill:#3F4A4A;" d="M372.215,423.382h-19.878c-11.452,0-20.735-9.283-20.735-20.735v-53.493
	c0-11.452,9.283-20.735,20.735-20.735h19.878c11.452,0,20.735,9.283,20.735,20.735v53.493
	C392.949,414.099,383.666,423.382,372.215,423.382z"/>
<rect x="110.14" y="134.95" style="fill:#008FF9;" width="291.72" height="250.67"/>
<g>
	<rect x="255.57" y="134.95" style="fill:#005FF7;" width="146.29" height="250.67"/>
	<rect x="110.14" y="273.12" style="fill:#005FF7;" width="291.72" height="118.5"/>
</g>
<rect x="255.57" y="273.12" style="fill:#0059F7;" width="146.29" height="118.5"/>
<rect x="196.91" y="304.62" style="fill:#3F4A4A;" width="118.19" height="12"/>
<rect x="255.57" y="304.62" style="fill:#323C3C;" width="59.52" height="12"/>
<rect x="196.91" y="333.7" style="fill:#3F4A4A;" width="118.19" height="12"/>
<rect x="255.57" y="333.7" style="fill:#323C3C;" width="59.52" height="12"/>
<path style="fill:#005FF7;" d="M369.658,88.618H142.342c-17.785,0-32.203,14.418-32.203,32.203v19.464H401.86v-19.464
	C401.861,103.036,387.443,88.618,369.658,88.618z"/>
<path style="fill:#0059F7;" d="M401.861,120.821c0-17.785-14.418-32.203-32.203-32.203H255.571v51.667H401.86v-19.464H401.861z"/>
<rect x="125.62" y="168.45" style="fill:#87C7FF;" width="115.06" height="92.33"/>
<rect x="268.19" y="168.45" style="fill:#65B1FC;" width="115.06" height="92.33"/>
<path style="fill:#F42727;" d="M188.848,342.951H110.14v-38h41.888c20.335,0,36.82,16.485,36.82,36.82L188.848,342.951
	L188.848,342.951z"/>
<path style="fill:#D30F0F;" d="M401.861,342.951h-78.708v-1.18c0-20.335,16.485-36.82,36.82-36.82h41.888V342.951z"/>
<rect x="196.91" y="111.16" style="fill:#3F4A4A;" width="118.19" height="12"/>
<rect x="255.57" y="111.16" style="fill:#323C3C;" width="59.52" height="12"/>
<g>
</g>
<g>
</g>
<g>
</g>
<g>
</g>
<g>
</g>
<g>
</g>
<g>
</g>
<g>
</g>
<g>
</g>
<g>
</g>
<g>
</g>
<g>
</g>
<g>
</g>
<g>
</g>
<g>
</g>
</svg>
