<?xml version="1.0" encoding="UTF-8" standalone="no"?>
<!-- Generator: Adobe Illustrator 19.0.0, SVG Export Plug-In . SVG Version: 6.00 Build 0)  -->

<svg
   xmlns:dc="http://purl.org/dc/elements/1.1/"
   xmlns:cc="http://creativecommons.org/ns#"
   xmlns:rdf="http://www.w3.org/1999/02/22-rdf-syntax-ns#"
   xmlns:svg="http://www.w3.org/2000/svg"
   xmlns="http://www.w3.org/2000/svg"
   xmlns:sodipodi="http://sodipodi.sourceforge.net/DTD/sodipodi-0.dtd"
   xmlns:inkscape="http://www.inkscape.org/namespaces/inkscape"
   version="1.1"
   id="Capa_1"
   x="0px"
   y="0px"
   viewBox="0 0 383.33301 334.76401"
   xml:space="preserve"
   sodipodi:docname="bus_nobg.svg"
   inkscape:version="0.92.3 (d244b95, 2018-08-02)"
   width="383.33301"
   height="334.76401"><metadata
   id="metadata91"><rdf:RDF><cc:Work
       rdf:about=""><dc:format>image/svg+xml</dc:format><dc:type
         rdf:resource="http://purl.org/dc/dcmitype/StillImage" /><dc:title></dc:title></cc:Work></rdf:RDF></metadata><defs
   id="defs89" /><sodipodi:namedview
   pagecolor="#ffffff"
   bordercolor="#666666"
   borderopacity="1"
   objecttolerance="10"
   gridtolerance="10"
   guidetolerance="10"
   inkscape:pageopacity="0"
   inkscape:pageshadow="2"
   inkscape:window-width="1920"
   inkscape:window-height="1046"
   id="namedview87"
   showgrid="false"
   inkscape:zoom="0.4609375"
   inkscape:cx="191.67"
   inkscape:cy="167.382"
   inkscape:window-x="0"
   inkscape:window-y="0"
   inkscape:window-maximized="1"
   inkscape:current-layer="Capa_1"
   fit-margin-top="0"
   fit-margin-left="0"
   fit-margin-right="0"
   fit-margin-bottom="0" />


<g
   id="g10"
   transform="translate(-64.330002,-88.618)">
	<rect
   x="64.330002"
   y="205.37"
   style="fill:#005ff7"
   width="35.792999"
   height="65.330002"
   id="rect6" />
	<path
   style="fill:#005ff7"
   d="m 93.181,210.877 h -9.779 v -16.973 c 0,-10.542 8.388,-19.119 18.697,-19.119 h 28.432 v 10 h -28.432 c -4.918,0 -8.918,4.091 -8.918,9.119 0,0 0,16.973 0,16.973 z"
   id="path8"
   inkscape:connector-curvature="0" />
</g>
<g
   id="g16"
   transform="translate(-64.330002,-88.618)">
	<rect
   x="411.87"
   y="205.37"
   style="fill:#0059f7"
   width="35.792999"
   height="65.330002"
   id="rect12" />
	<path
   style="fill:#0059f7"
   d="m 428.598,210.877 h -9.779 v -16.973 c 0,-5.028 -4,-9.119 -8.918,-9.119 h -28.432 v -10 h 28.432 c 10.309,0 18.697,8.577 18.697,19.119 z"
   id="path14"
   inkscape:connector-curvature="0" />
</g>
<path
   style="fill:#495959"
   d="m 95.332998,334.284 h -19.878 c -11.452,0 -20.735,-9.283 -20.735,-20.735 v -53.493 c 0,-11.452 9.283,-20.735 20.735,-20.735 h 19.878 c 11.452002,0 20.735002,9.283 20.735002,20.735 v 53.493 c 0,11.452 -9.283,20.735 -20.735002,20.735 z"
   id="path18"
   inkscape:connector-curvature="0" />
<path
   style="fill:#3f4a4a"
   d="m 307.885,334.764 h -19.878 c -11.452,0 -20.735,-9.283 -20.735,-20.735 v -53.493 c 0,-11.452 9.283,-20.735 20.735,-20.735 h 19.878 c 11.452,0 20.735,9.283 20.735,20.735 v 53.493 c -10e-4,11.452 -9.284,20.735 -20.735,20.735 z"
   id="path20"
   inkscape:connector-curvature="0" />
<rect
   x="45.809998"
   y="46.331997"
   style="fill:#008ff9"
   width="291.72"
   height="250.67"
   id="rect22" />
<g
   id="g28"
   transform="translate(-64.330002,-88.618)">
	<rect
   x="255.57001"
   y="134.95"
   style="fill:#005ff7"
   width="146.28999"
   height="250.67"
   id="rect24" />
	<rect
   x="110.14"
   y="273.12"
   style="fill:#005ff7"
   width="291.72"
   height="118.5"
   id="rect26" />
</g>
<rect
   x="191.24001"
   y="184.502"
   style="fill:#0059f7"
   width="146.28999"
   height="118.5"
   id="rect30" />
<rect
   x="132.58"
   y="216.002"
   style="fill:#3f4a4a"
   width="118.19"
   height="12"
   id="rect32" />
<rect
   x="191.24001"
   y="216.002"
   style="fill:#323c3c"
   width="59.52"
   height="12"
   id="rect34" />
<rect
   x="132.58"
   y="245.08202"
   style="fill:#3f4a4a"
   width="118.19"
   height="12"
   id="rect36" />
<rect
   x="191.24001"
   y="245.08202"
   style="fill:#323c3c"
   width="59.52"
   height="12"
   id="rect38" />
<path
   style="fill:#005ff7"
   d="M 305.328,0 H 78.011998 c -17.785,0 -32.203,14.418 -32.203,32.203 V 51.667 H 337.53 V 32.203 C 337.531,14.418 323.113,0 305.328,0 Z"
   id="path40"
   inkscape:connector-curvature="0" />
<path
   style="fill:#0059f7"
   d="M 337.531,32.203 C 337.531,14.418 323.113,0 305.328,0 H 191.241 V 51.667 H 337.53 V 32.203 Z"
   id="path42"
   inkscape:connector-curvature="0" />
<rect
   x="61.290001"
   y="79.832001"
   style="fill:#87c7ff"
   width="115.06"
   height="92.330002"
   id="rect44" />
<rect
   x="203.86"
   y="79.832001"
   style="fill:#65b1fc"
   width="115.06"
   height="92.330002"
   id="rect46" />
<path
   style="fill:#f42727"
   d="M 124.518,254.333 H 45.809998 v -38 h 41.888 c 20.335002,0 36.820002,16.485 36.820002,36.82 z"
   id="path48"
   inkscape:connector-curvature="0" />
<path
   style="fill:#d30f0f"
   d="m 337.531,254.333 h -78.708 v -1.18 c 0,-20.335 16.485,-36.82 36.82,-36.82 h 41.888 z"
   id="path50"
   inkscape:connector-curvature="0" />
<rect
   x="132.58"
   y="22.542004"
   style="fill:#3f4a4a"
   width="118.19"
   height="12"
   id="rect52" />
<rect
   x="191.24001"
   y="22.542004"
   style="fill:#323c3c"
   width="59.52"
   height="12"
   id="rect54" />
<g
   id="g56"
   transform="translate(-64.330002,-88.618)">
</g>
<g
   id="g58"
   transform="translate(-64.330002,-88.618)">
</g>
<g
   id="g60"
   transform="translate(-64.330002,-88.618)">
</g>
<g
   id="g62"
   transform="translate(-64.330002,-88.618)">
</g>
<g
   id="g64"
   transform="translate(-64.330002,-88.618)">
</g>
<g
   id="g66"
   transform="translate(-64.330002,-88.618)">
</g>
<g
   id="g68"
   transform="translate(-64.330002,-88.618)">
</g>
<g
   id="g70"
   transform="translate(-64.330002,-88.618)">
</g>
<g
   id="g72"
   transform="translate(-64.330002,-88.618)">
</g>
<g
   id="g74"
   transform="translate(-64.330002,-88.618)">
</g>
<g
   id="g76"
   transform="translate(-64.330002,-88.618)">
</g>
<g
   id="g78"
   transform="translate(-64.330002,-88.618)">
</g>
<g
   id="g80"
   transform="translate(-64.330002,-88.618)">
</g>
<g
   id="g82"
   transform="translate(-64.330002,-88.618)">
</g>
<g
   id="g84"
   transform="translate(-64.330002,-88.618)">
</g>
</svg>