<?xml version="1.0" encoding="iso-8859-1"?>
<!-- Generator: Adobe Illustrator 19.0.0, SVG Export Plug-In . SVG Version: 6.00 Build 0)  -->
<svg version="1.1" id="Capa_1" xmlns="http://www.w3.org/2000/svg" xmlns:xlink="http://www.w3.org/1999/xlink" x="0px" y="0px"
	 viewBox="0 0 512 512" style="enable-background:new 0 0 512 512;" xml:space="preserve">
<circle style="fill:#EC5353;" cx="256" cy="256" r="256"/>
<path style="fill:#D13135;" d="M507.188,305.564L435,233.377l-13.317,5.28L321.649,138.623l54.698,144.082l-23.055,3.531
	l-117.24-117.24l12.636,96.338l-96.338-96.338L131.319,320.23l-68.145,10.437L244.227,511.72c3.903,0.177,7.826,0.28,11.773,0.28
	C380.426,512,484.102,423.226,507.188,305.564z"/>
<g>
	<path style="fill:#FFFFFF;" d="M151.95,254.211c-6.652,0-12.445-4.917-13.361-11.692l-8.3-61.376
		c-0.999-7.389,4.181-14.188,11.568-15.188c7.398-0.994,14.188,4.182,15.188,11.569l8.3,61.376
		c0.999,7.389-4.181,14.188-11.568,15.188C153.162,254.171,152.553,254.211,151.95,254.211z"/>
	<path style="fill:#FFFFFF;" d="M235.648,254.211c-6.652,0-12.445-4.917-13.361-11.692l-8.3-61.376
		c-0.999-7.389,4.181-14.188,11.568-15.188c7.408-0.994,14.188,4.182,15.188,11.569l8.3,61.376
		c0.999,7.389-4.181,14.188-11.568,15.188C236.86,254.171,236.251,254.211,235.648,254.211z"/>
</g>
<rect x="292.178" y="172.501" transform="matrix(-0.6205 -0.7842 0.7842 -0.6205 408.2091 569.5443)" style="fill:#E89F00;" width="99.469" height="27"/>
<g>
	<path style="fill:#FCD748;" d="M96.059,212.764c-18.162,0-32.885,14.723-32.885,32.885v85.017h398.459v-36.13
		c0-45.161-36.611-81.772-81.772-81.772H96.059z"/>
	<path style="fill:#FCD748;" d="M96.059,212.765c-18.162,0-32.885,14.723-32.885,32.885v85.017h192.398V212.765H96.059z"/>
</g>
<g>
	<path style="fill:#FABF40;" d="M461.632,294.536c0-45.161-36.611-81.771-81.772-81.771H255.571v117.902h206.061L461.632,294.536
		L461.632,294.536z"/>
	<path style="fill:#FABF40;" d="M63.174,288.702v41.965h398.459v-36.13c0-1.964-0.094-3.905-0.23-5.834L63.174,288.702
		L63.174,288.702z"/>
</g>
<path style="fill:#E89F00;" d="M461.632,294.536c0-1.964-0.094-3.905-0.23-5.834H255.571v41.965h206.061L461.632,294.536
	L461.632,294.536z"/>
<circle style="fill:#595959;" cx="131.32" cy="324.59" r="45.38"/>
<circle style="fill:#969696;" cx="131.32" cy="324.59" r="20.648"/>
<circle style="fill:#303030;" cx="393.43" cy="324.59" r="45.38"/>
<circle style="fill:#595959;" cx="393.43" cy="324.59" r="20.648"/>
<path style="fill:#F0F0F0;" d="M446.537,247.228h-32.199c-5.799,0-10.5,4.701-10.5,10.5c0,5.799,4.701,10.5,10.5,10.5h42.944
	C454.714,260.669,451.074,253.61,446.537,247.228z"/>
<g>
</g>
<g>
</g>
<g>
</g>
<g>
</g>
<g>
</g>
<g>
</g>
<g>
</g>
<g>
</g>
<g>
</g>
<g>
</g>
<g>
</g>
<g>
</g>
<g>
</g>
<g>
</g>
<g>
</g>
</svg>
