<?xml version="1.0" encoding="UTF-8" standalone="no"?>
<!-- Created with Inkscape (http://www.inkscape.org/) -->

<svg
   xmlns:dc="http://purl.org/dc/elements/1.1/"
   xmlns:cc="http://creativecommons.org/ns#"
   xmlns:rdf="http://www.w3.org/1999/02/22-rdf-syntax-ns#"
   xmlns:svg="http://www.w3.org/2000/svg"
   xmlns="http://www.w3.org/2000/svg"
   xmlns:sodipodi="http://sodipodi.sourceforge.net/DTD/sodipodi-0.dtd"
   xmlns:inkscape="http://www.inkscape.org/namespaces/inkscape"
   width="210mm"
   height="297mm"
   viewBox="0 0 210 297"
   version="1.1"
   id="svg8"
   inkscape:version="0.92.3 (2405546, 2018-03-11)"
   sodipodi:docname="car.svg">
  <defs
     id="defs2" />
  <sodipodi:namedview
     id="base"
     pagecolor="#ffffff"
     bordercolor="#666666"
     borderopacity="1.0"
     inkscape:pageopacity="0.0"
     inkscape:pageshadow="2"
     inkscape:zoom="0.35"
     inkscape:cx="400"
     inkscape:cy="560"
     inkscape:document-units="mm"
     inkscape:current-layer="layer1"
     showgrid="false"
     inkscape:window-width="1920"
     inkscape:window-height="1017"
     inkscape:window-x="-8"
     inkscape:window-y="-8"
     inkscape:window-maximized="1" />
  <metadata
     id="metadata5">
    <rdf:RDF>
      <cc:Work
         rdf:about="">
        <dc:format>image/svg+xml</dc:format>
        <dc:type
           rdf:resource="http://purl.org/dc/dcmitype/StillImage" />
        <dc:title></dc:title>
      </cc:Work>
    </rdf:RDF>
  </metadata>
  <g
     inkscape:label="Layer 1"
     inkscape:groupmode="layer"
     id="layer1">
    <g
       id="g113"
       transform="matrix(-0.26458333,0,0,-0.26458333,159.95925,194.64385)">
      <g
         id="g14">
	<path
   id="path10"
   d="m 324.282,366.931 74.624,-29.874 c 6.47,-2.586 10.72,-8.851 10.729,-15.824 v -22.584 l -85.353,34.141 z"
   style="fill:#e38100"
   inkscape:connector-curvature="0" />

	<path
   id="path12"
   d="M 187.716,366.931 V 332.79 l -85.353,-34.141 v 22.584 c 0.009,6.973 4.259,13.238 10.729,15.824 z"
   style="fill:#e38100"
   inkscape:connector-curvature="0" />

</g>
      <path
         id="path16"
         d="m 193.051,484.104 29.327,12.564 c 21.475,9.158 45.766,9.158 67.241,0 l 29.327,-12.521 c 33.732,-14.348 54.464,-48.711 51.425,-85.242 l -11.949,-142.933 12.274,-146.68 c 2.868,-34.688 -15.714,-67.625 -46.893,-83.1 l -6.734,-3.354 c -38.46,-19.145 -83.68,-19.145 -122.141,0 l -6.734,3.354 c -31.18,15.475 -49.761,48.412 -46.893,83.1 l 12.274,146.68 -11.949,142.967 c -3.005,36.506 17.719,70.826 51.425,85.165 z"
         style="fill:#ffbc05"
         inkscape:connector-curvature="0" />
      <path
         id="path18"
         d="m 142.223,391.599 c 48.028,63.341 129.489,91.499 206.376,71.33 -8.237,9.116 -18.351,16.345 -29.652,21.176 l -29.327,12.564 c -21.475,9.158 -45.766,9.158 -67.241,0 L 193.052,484.148 C 159.32,469.8 138.588,435.437 141.627,398.906 Z"
         style="fill:#e38100"
         inkscape:connector-curvature="0" />
      <path
         id="path20"
         d="m 322.096,365.071 2.185,-1.425 c 5.275,-3.499 8.177,-9.628 7.545,-15.927 l -7.545,-74.778 H 187.716 l -7.511,74.778 c -0.64,6.291 2.253,12.419 7.511,15.927 l 2.151,1.425 c 40.057,26.604 92.165,26.604 132.229,0 z"
         style="fill:#23aec8"
         inkscape:connector-curvature="0" />
      <path
         id="path22"
         d="m 320.808,365.856 c -39.911,25.785 -91.311,25.478 -130.906,-0.785 l -2.185,-1.425 c -5.275,-3.499 -8.177,-9.628 -7.545,-15.927 l 5.744,-57.187 c 32.758,42.514 81.512,69.733 134.892,75.324 z"
         style="fill:#1967a3"
         inkscape:connector-curvature="0" />
      <path
         id="path24"
         d="M 324.282,153.548 H 187.716 l -6.555,-39.331 c -1.186,-7.118 2.228,-14.22 8.535,-17.728 l 16.55,-9.193 c 30.932,-17.19 68.556,-17.19 99.488,0 l 16.55,9.193 c 6.308,3.508 9.722,10.609 8.535,17.728 z"
         style="fill:#23aec8"
         inkscape:connector-curvature="0" />
      <path
         id="path26"
         d="m 189.705,96.49 8.339,-4.635 c 33.544,29.592 73.668,50.743 117.036,61.693 H 187.716 l -6.555,-39.331 c -1.186,-7.126 2.236,-14.219 8.544,-17.727 z"
         style="fill:#1967a3"
         inkscape:connector-curvature="0" />
      <g
         id="g32">
	
		<rect
   id="rect28"
   height="17.070999"
   width="61.550999"
   style="fill:#555160"
   transform="matrix(-0.5547,0.8321,-0.8321,-0.5547,845.9393,400.5753)"
   y="418.12601"
   x="285" />

	
		<rect
   id="rect30"
   height="61.550999"
   width="17.070999"
   style="fill:#555160"
   transform="matrix(-0.8321,0.5547,-0.5547,-0.8321,596.1896,672.8424)"
   y="395.897"
   x="187.70399" />

</g>
      <path
         id="path34"
         d="M 332.006,264.397 H 180.035 l -8.279,82.46 c -0.964,9.449 3.397,18.658 11.326,23.899 l 2.151,1.425 c 42.881,28.568 98.737,28.568 141.618,0 l 2.159,-1.434 c 7.929,-5.241 12.282,-14.45 11.318,-23.899 z m -12.47,92.121 -2.159,1.434 c -37.171,24.761 -85.584,24.761 -122.755,0 l -2.151,-1.425 c -2.629,-1.75 -4.08,-4.814 -3.764,-7.955 l 6.734,-67.105 H 316.6 l 6.734,67.113 c 0.299,3.142 -1.161,6.197 -3.798,7.938 z"
         inkscape:connector-curvature="0" />
      <path
         id="path36"
         d="m 180.487,162.084 h 151.024 l 7.742,-46.458 c 1.775,-10.678 -3.346,-21.33 -12.803,-26.605 L 309.9,79.828 c -33.476,-18.735 -74.291,-18.735 -107.767,0 l -16.567,9.193 c -9.449,5.275 -14.57,15.918 -12.803,26.596 z m 13.366,-58.143 16.55,-9.193 c 28.329,-15.85 62.863,-15.85 91.191,0 l 16.55,9.193 c 3.15,1.767 4.848,5.318 4.268,8.877 l -5.36,32.195 H 194.946 l -5.369,-32.204 c -0.597,-3.568 1.118,-7.118 4.276,-8.868 z"
         inkscape:connector-curvature="0" />
      <rect
         id="rect38"
         height="61.550999"
         width="17.070999"
         transform="matrix(-0.8321,0.5547,-0.5547,-0.8321,596.1896,672.8424)"
         y="395.897"
         x="187.70399" />
      <rect
         id="rect40"
         height="17.07"
         width="61.556"
         transform="matrix(-0.5549,0.8319,-0.8319,-0.5549,846.2162,400.9294)"
         y="418.302"
         x="285.077" />
      <path
         id="path42"
         d="m 414.423,291.582 c -2.347,-1.588 -5.335,-1.912 -7.963,-0.854 l -35.379,14.152 -4.123,-48.907 12.223,-145.954 C 382.493,71.806 362.016,35.471 327.611,18.52 l -6.743,-3.354 c -40.884,-20.22 -88.853,-20.22 -129.737,0 l -6.734,3.354 c -34.423,16.943 -54.916,53.278 -51.605,91.499 l 12.248,145.954 -4.097,48.942 -35.379,-14.152 c -4.37,-1.767 -9.346,0.341 -11.113,4.711 -0.41,1.007 -0.623,2.083 -0.623,3.175 v 22.584 c -0.034,10.481 6.35,19.913 16.098,23.779 l 26.741,10.695 -3.576,42.489 c -3.363,40.193 19.461,78.004 56.589,93.752 l 29.327,12.521 c 23.626,10.038 50.324,10.038 73.95,0 l 29.327,-12.521 c 37.146,-15.739 59.986,-53.551 56.623,-93.752 l -3.559,-42.489 26.741,-10.695 c 9.739,-3.867 16.115,-13.298 16.081,-23.779 v -22.584 c 0,-2.834 -1.408,-5.48 -3.747,-7.067 z m -277.919,45.672 -20.237,-8.1 c -3.252,-1.28 -5.377,-4.43 -5.369,-7.921 v -9.978 l 25.606,10.242 z m 179.089,138.998 -29.327,12.513 c -19.341,8.22 -41.191,8.22 -60.533,0 l -29.327,-12.513 c -30.343,-12.88 -48.993,-43.786 -46.244,-76.639 L 162.111,255.972 149.812,108.558 C 147.123,77.327 163.861,47.65 191.985,33.806 l 6.743,-3.354 c 36.087,-17.856 78.448,-17.856 114.536,0 l 6.734,3.354 c 28.124,13.844 44.87,43.522 42.182,74.752 l -12.291,147.414 12.018,143.684 c 2.713,32.852 -15.963,63.742 -46.314,76.596 z m 85.506,-155.019 c 0.009,3.491 -2.117,6.64 -5.369,7.921 l -20.237,8.1 v -15.756 l 25.606,-10.242 z"
         inkscape:connector-curvature="0" />
      <g
         id="g44">
</g>
      <g
         id="g46">
</g>
      <g
         id="g48">
</g>
      <g
         id="g50">
</g>
      <g
         id="g52">
</g>
      <g
         id="g54">
</g>
      <g
         id="g56">
</g>
      <g
         id="g58">
</g>
      <g
         id="g60">
</g>
      <g
         id="g62">
</g>
      <g
         id="g64">
</g>
      <g
         id="g66">
</g>
      <g
         id="g68">
</g>
      <g
         id="g70">
</g>
      <g
         id="g72">
</g>
    </g>
  </g>
</svg>
