<?xml version="1.0" encoding="iso-8859-1"?>
<!-- Generator: Adobe Illustrator 19.0.0, SVG Export Plug-In . SVG Version: 6.00 Build 0)  -->
<svg version="1.1" id="Capa_1" xmlns="http://www.w3.org/2000/svg" xmlns:xlink="http://www.w3.org/1999/xlink" x="0px" y="0px"
	 viewBox="0 0 512 512" style="enable-background:new 0 0 512 512;" xml:space="preserve">
<circle style="fill:#2789E1;" cx="256" cy="256" r="256"/>
<path style="fill:#1D67BC;" d="M228.66,510.545C237.644,511.499,246.763,512,256,512c131.521,0,239.858-99.187,254.336-226.836
	l-91.2-91.2l-1.284,2.526l-50.67-50.67L47,323.8l26.845,26.845l-3.409,1.677L228.66,510.545z"/>
<rect x="59.36" y="145.82" style="fill:#EC5353;" width="307.83" height="169.89"/>
<rect x="210.57" y="145.82" style="fill:#D13135;" width="156.61" height="169.89"/>
<polygon style="fill:#FCD748;" points="419.137,193.964 351.635,193.964 351.635,315.713 464.644,315.713 464.644,248.969 "/>
<polygon style="fill:#F0F0F0;" points="409.952,207.37 367.183,207.37 367.183,248.211 443.741,248.211 "/>
<path style="fill:#FFFFFF;" d="M464.644,283.1h-8.389c-6.911,0-12.514-5.603-12.514-12.514l0,0c0-6.911,5.603-12.514,12.514-12.514
	h8.389V283.1z"/>
<rect x="47" y="293.42" style="fill:#F0F0F0;" width="426.5" height="30.38"/>
<rect x="210.57" y="293.42" style="fill:#E0E0E0;" width="262.93" height="30.38"/>
<g>
	<rect x="269.53" y="159" style="fill:#E57676;" width="26" height="134.42"/>
	<rect x="316.51" y="159" style="fill:#E57676;" width="26" height="134.42"/>
</g>
<g>
	<rect x="175.57" y="159" style="fill:#F77979;" width="26" height="134.42"/>
	<rect x="222.55" y="159" style="fill:#F77979;" width="26" height="134.42"/>
	<rect x="81.61" y="159" style="fill:#F77979;" width="26" height="134.42"/>
	<rect x="128.59" y="159" style="fill:#F77979;" width="26" height="134.42"/>
</g>
<circle style="fill:#303030;" cx="427.13" cy="330.55" r="30.38"/>
<g>
	<circle style="fill:#595959;" cx="427.13" cy="330.55" r="13.823"/>
	<circle style="fill:#595959;" cx="91.62" cy="330.55" r="30.38"/>
</g>
<circle style="fill:#969696;" cx="91.62" cy="330.55" r="13.823"/>
<circle style="fill:#595959;" cx="157.88" cy="330.55" r="30.38"/>
<circle style="fill:#969696;" cx="157.88" cy="330.55" r="13.823"/>
<circle style="fill:#303030;" cx="316.51" cy="330.55" r="30.38"/>
<circle style="fill:#595959;" cx="316.51" cy="330.55" r="13.823"/>
<g>
</g>
<g>
</g>
<g>
</g>
<g>
</g>
<g>
</g>
<g>
</g>
<g>
</g>
<g>
</g>
<g>
</g>
<g>
</g>
<g>
</g>
<g>
</g>
<g>
</g>
<g>
</g>
<g>
</g>
</svg>
