<?xml version="1.0" encoding="UTF-8" standalone="no"?>
<!-- Generator: Adobe Illustrator 19.0.0, SVG Export Plug-In . SVG Version: 6.00 Build 0)  -->

<svg
   xmlns:dc="http://purl.org/dc/elements/1.1/"
   xmlns:cc="http://creativecommons.org/ns#"
   xmlns:rdf="http://www.w3.org/1999/02/22-rdf-syntax-ns#"
   xmlns:svg="http://www.w3.org/2000/svg"
   xmlns="http://www.w3.org/2000/svg"
   xmlns:sodipodi="http://sodipodi.sourceforge.net/DTD/sodipodi-0.dtd"
   xmlns:inkscape="http://www.inkscape.org/namespaces/inkscape"
   version="1.1"
   id="Capa_1"
   x="0px"
   y="0px"
   viewBox="0 0 426.5 215.10999"
   xml:space="preserve"
   sodipodi:docname="truck_nobg.svg"
   inkscape:version="0.92.3 (d244b95, 2018-08-02)"
   width="426.5"
   height="215.10999"><metadata
   id="metadata89"><rdf:RDF><cc:Work
       rdf:about=""><dc:format>image/svg+xml</dc:format><dc:type
         rdf:resource="http://purl.org/dc/dcmitype/StillImage" /><dc:title></dc:title></cc:Work></rdf:RDF></metadata><defs
   id="defs87" /><sodipodi:namedview
   pagecolor="#ffffff"
   bordercolor="#666666"
   borderopacity="1"
   objecttolerance="10"
   gridtolerance="10"
   guidetolerance="10"
   inkscape:pageopacity="0"
   inkscape:pageshadow="2"
   inkscape:window-width="1920"
   inkscape:window-height="1046"
   id="namedview85"
   showgrid="false"
   inkscape:zoom="0.4609375"
   inkscape:cx="209"
   inkscape:cy="104.92999"
   inkscape:window-x="0"
   inkscape:window-y="0"
   inkscape:window-maximized="1"
   inkscape:current-layer="Capa_1"
   fit-margin-top="0"
   fit-margin-left="0"
   fit-margin-right="0"
   fit-margin-bottom="0" />


<rect
   x="12.360001"
   y="0"
   style="fill:#ec5353"
   width="307.82999"
   height="169.89"
   id="rect6" />
<rect
   x="163.57001"
   y="0"
   style="fill:#d13135"
   width="156.61"
   height="169.89"
   id="rect8" />
<polygon
   style="fill:#fcd748"
   points="351.635,315.713 464.644,315.713 464.644,248.969 419.137,193.964 351.635,193.964 "
   id="polygon10"
   transform="translate(-47,-145.82001)" />
<polygon
   style="fill:#f0f0f0"
   points="367.183,248.211 443.741,248.211 409.952,207.37 367.183,207.37 "
   id="polygon12"
   transform="translate(-47,-145.82001)" />
<path
   style="fill:#ffffff"
   d="m 417.644,137.27999 h -8.389 c -6.911,0 -12.514,-5.603 -12.514,-12.514 v 0 c 0,-6.911 5.603,-12.514 12.514,-12.514 h 8.389 z"
   id="path14"
   inkscape:connector-curvature="0" />
<rect
   x="0"
   y="147.60001"
   style="fill:#f0f0f0"
   width="426.5"
   height="30.379999"
   id="rect16" />
<rect
   x="163.57001"
   y="147.60001"
   style="fill:#e0e0e0"
   width="262.92999"
   height="30.379999"
   id="rect18" />
<g
   id="g24"
   transform="translate(-47,-145.82001)">
	<rect
   x="269.53"
   y="159"
   style="fill:#e57676"
   width="26"
   height="134.42"
   id="rect20" />
	<rect
   x="316.51001"
   y="159"
   style="fill:#e57676"
   width="26"
   height="134.42"
   id="rect22" />
</g>
<g
   id="g34"
   transform="translate(-47,-145.82001)">
	<rect
   x="175.57001"
   y="159"
   style="fill:#f77979"
   width="26"
   height="134.42"
   id="rect26" />
	<rect
   x="222.55"
   y="159"
   style="fill:#f77979"
   width="26"
   height="134.42"
   id="rect28" />
	<rect
   x="81.610001"
   y="159"
   style="fill:#f77979"
   width="26"
   height="134.42"
   id="rect30" />
	<rect
   x="128.59"
   y="159"
   style="fill:#f77979"
   width="26"
   height="134.42"
   id="rect32" />
</g>
<circle
   style="fill:#303030"
   cx="380.13"
   cy="184.72998"
   r="30.379999"
   id="circle36" />
<g
   id="g42"
   transform="translate(-47,-145.82001)">
	<circle
   style="fill:#595959"
   cx="427.13"
   cy="330.54999"
   r="13.823"
   id="circle38" />
	<circle
   style="fill:#595959"
   cx="91.620003"
   cy="330.54999"
   r="30.379999"
   id="circle40" />
</g>
<circle
   style="fill:#969696"
   cx="44.620003"
   cy="184.72998"
   r="13.823"
   id="circle44" />
<circle
   style="fill:#595959"
   cx="110.88"
   cy="184.72998"
   r="30.379999"
   id="circle46" />
<circle
   style="fill:#969696"
   cx="110.88"
   cy="184.72998"
   r="13.823"
   id="circle48" />
<circle
   style="fill:#303030"
   cx="269.51001"
   cy="184.72998"
   r="30.379999"
   id="circle50" />
<circle
   style="fill:#595959"
   cx="269.51001"
   cy="184.72998"
   r="13.823"
   id="circle52" />
<g
   id="g54"
   transform="translate(-47,-145.82001)">
</g>
<g
   id="g56"
   transform="translate(-47,-145.82001)">
</g>
<g
   id="g58"
   transform="translate(-47,-145.82001)">
</g>
<g
   id="g60"
   transform="translate(-47,-145.82001)">
</g>
<g
   id="g62"
   transform="translate(-47,-145.82001)">
</g>
<g
   id="g64"
   transform="translate(-47,-145.82001)">
</g>
<g
   id="g66"
   transform="translate(-47,-145.82001)">
</g>
<g
   id="g68"
   transform="translate(-47,-145.82001)">
</g>
<g
   id="g70"
   transform="translate(-47,-145.82001)">
</g>
<g
   id="g72"
   transform="translate(-47,-145.82001)">
</g>
<g
   id="g74"
   transform="translate(-47,-145.82001)">
</g>
<g
   id="g76"
   transform="translate(-47,-145.82001)">
</g>
<g
   id="g78"
   transform="translate(-47,-145.82001)">
</g>
<g
   id="g80"
   transform="translate(-47,-145.82001)">
</g>
<g
   id="g82"
   transform="translate(-47,-145.82001)">
</g>
</svg>