<?xml version="1.0" encoding="UTF-8" standalone="no"?>
<svg
   xmlns:dc="http://purl.org/dc/elements/1.1/"
   xmlns:cc="http://creativecommons.org/ns#"
   xmlns:rdf="http://www.w3.org/1999/02/22-rdf-syntax-ns#"
   xmlns:svg="http://www.w3.org/2000/svg"
   xmlns="http://www.w3.org/2000/svg"
   xmlns:sodipodi="http://sodipodi.sourceforge.net/DTD/sodipodi-0.dtd"
   xmlns:inkscape="http://www.inkscape.org/namespaces/inkscape"
   id="Layer_1"
   data-name="Layer 1"
   viewBox="0 0 768 768"
   version="1.1"
   sodipodi:docname="commercial.svg"
   inkscape:version="0.92.3 (unknown)">
  <metadata
     id="metadata963">
    <rdf:RDF>
      <cc:Work
         rdf:about="">
        <dc:format>image/svg+xml</dc:format>
        <dc:type
           rdf:resource="http://purl.org/dc/dcmitype/StillImage" />
        <dc:title>datalogger</dc:title>
      </cc:Work>
    </rdf:RDF>
  </metadata>
  <sodipodi:namedview
     pagecolor="#ffffff"
     bordercolor="#666666"
     borderopacity="1"
     objecttolerance="10"
     gridtolerance="10"
     guidetolerance="10"
     inkscape:pageopacity="0"
     inkscape:pageshadow="2"
     inkscape:window-width="1839"
     inkscape:window-height="1050"
     id="namedview961"
     showgrid="false"
     inkscape:zoom="0.81483008"
     inkscape:cx="374.86332"
     inkscape:cy="250.02096"
     inkscape:window-x="81"
     inkscape:window-y="30"
     inkscape:window-maximized="1"
     inkscape:current-layer="Layer_1" />
  <defs
     id="defs932">
    <style
       id="style930">.cls-1{fill:#35556d;}.cls-2{fill:#1b75bc;}.cls-3{fill:#a9e870;}.cls-4{fill:#ff673a;}.cls-5{fill:#13aae5;}.cls-6{fill:#733fc4;}.cls-7{fill:#14a085;}.cls-8{fill:#f29c1f;}.cls-9{fill:#e57e25;}.cls-10{fill:#71c285;}.cls-11{fill:#808b8d;}</style>
  </defs>
  <title
     id="title934">datalogger</title>
  <circle
     class="cls-1"
     cx="384"
     cy="384"
     r="384"
     id="circle936"
     style="fill:#35556d" />
  <g
     id="g1197"
     transform="translate(128.09555,122.17694)">
    <g
       id="g969">
	<path
   id="path965"
   d="m 58.182,488.727 v -46.545 c 0,-6.982 -4.655,-11.636 -11.636,-11.636 -6.981,0 -11.636,4.655 -11.636,11.636 v 46.545 z"
   style="fill:#da8c36"
   inkscape:connector-curvature="0" />

	<path
   id="path967"
   d="m 477.091,488.727 v -46.545 c 0,-6.982 -4.655,-11.636 -11.636,-11.636 -6.981,0 -11.636,4.655 -11.636,11.636 v 46.545 z"
   style="fill:#da8c36"
   inkscape:connector-curvature="0" />

</g>
    <g
       id="g975">
	<polygon
   id="polygon971"
   points="477.091,430.545 453.818,430.545 453.818,453.818 465.455,453.818 465.455,488.727 477.091,488.727 477.091,453.818 "
   style="fill:#c97629" />

	<polygon
   id="polygon973"
   points="58.182,430.545 34.909,430.545 34.909,453.818 46.545,453.818 46.545,488.727 58.182,488.727 58.182,453.818 "
   style="fill:#c97629" />

</g>
    <path
       id="path977"
       d="m 256,69.818 c -6.982,0 -11.636,-4.655 -11.636,-11.636 V 11.636 C 244.364,4.655 249.018,0 256,0 c 6.982,0 11.636,4.655 11.636,11.636 v 46.545 c 0,6.983 -4.654,11.637 -11.636,11.637 z"
       style="fill:#b0c4d9"
       inkscape:connector-curvature="0" />
    <path
       id="path979"
       d="M 116.364,488.727 V 116.364 c 0,-6.982 4.655,-11.636 11.636,-11.636 h 58.182 c 6.982,0 11.636,-4.655 11.636,-11.636 V 69.818 c 0,-6.982 4.655,-11.636 11.636,-11.636 h 93.091 c 6.982,0 11.636,4.655 11.636,11.636 v 23.273 c 0,6.982 4.655,11.636 11.636,11.636 H 384 c 6.982,0 11.636,4.655 11.636,11.636 v 372.364 z"
       style="fill:#d5e3ef"
       inkscape:connector-curvature="0" />
    <path
       id="path981"
       d="M 349.091,186.182 H 162.909 c -6.982,0 -11.636,-4.655 -11.636,-11.636 v -23.273 c 0,-6.982 4.655,-11.636 11.636,-11.636 h 186.182 c 6.982,0 11.636,4.655 11.636,11.636 v 23.273 c 0,6.981 -4.654,11.636 -11.636,11.636 z"
       style="fill:#4c9cd6"
       inkscape:connector-curvature="0" />
    <g
       id="g987">
	<polygon
   id="polygon983"
   points="244.364,186.182 221.091,186.182 256,139.636 279.273,139.636 "
   style="fill:#70b7e5" />

	<polygon
   id="polygon985"
   points="302.545,186.182 256,186.182 290.909,139.636 337.455,139.636 "
   style="fill:#70b7e5" />

</g>
    <path
       id="path989"
       d="M 349.091,256 H 162.909 c -6.982,0 -11.636,-4.655 -11.636,-11.636 v -23.273 c 0,-6.982 4.655,-11.636 11.636,-11.636 h 186.182 c 6.982,0 11.636,4.655 11.636,11.636 v 23.273 c 0,6.981 -4.654,11.636 -11.636,11.636 z"
       style="fill:#4c9cd6"
       inkscape:connector-curvature="0" />
    <g
       id="g995">
	<polygon
   id="polygon991"
   points="244.364,256 221.091,256 256,209.455 279.273,209.455 "
   style="fill:#70b7e5" />

	<polygon
   id="polygon993"
   points="302.545,256 256,256 290.909,209.455 337.455,209.455 "
   style="fill:#70b7e5" />

</g>
    <path
       id="path997"
       d="M 349.091,325.818 H 162.909 c -6.982,0 -11.636,-4.655 -11.636,-11.636 v -23.273 c 0,-6.982 4.655,-11.636 11.636,-11.636 h 186.182 c 6.982,0 11.636,4.655 11.636,11.636 v 23.273 c 0,6.982 -4.654,11.636 -11.636,11.636 z"
       style="fill:#4c9cd6"
       inkscape:connector-curvature="0" />
    <g
       id="g1003">
	<polygon
   id="polygon999"
   points="244.364,325.818 221.091,325.818 256,279.273 279.273,279.273 "
   style="fill:#70b7e5" />

	<polygon
   id="polygon1001"
   points="302.545,325.818 256,325.818 290.909,279.273 337.455,279.273 "
   style="fill:#70b7e5" />

</g>
    <path
       id="path1005"
       d="M 349.091,395.636 H 162.909 c -6.982,0 -11.636,-4.655 -11.636,-11.636 v -23.273 c 0,-6.982 4.655,-11.636 11.636,-11.636 h 186.182 c 6.982,0 11.636,4.655 11.636,11.636 V 384 c 0,6.982 -4.654,11.636 -11.636,11.636 z"
       style="fill:#4c9cd6"
       inkscape:connector-curvature="0" />
    <g
       id="g1011">
	<polygon
   id="polygon1007"
   points="244.364,395.636 221.091,395.636 256,349.091 279.273,349.091 "
   style="fill:#70b7e5" />

	<polygon
   id="polygon1009"
   points="302.545,395.636 256,395.636 290.909,349.091 337.455,349.091 "
   style="fill:#70b7e5" />

</g>
    <path
       id="path1013"
       d="M 500.364,512 H 11.636 C 4.655,512 0,507.345 0,500.364 0,493.383 4.655,488.728 11.636,488.728 h 488.727 c 6.982,0 11.636,4.655 11.636,11.636 0,6.981 -4.654,11.636 -11.635,11.636 z"
       style="fill:#595a66"
       inkscape:connector-curvature="0" />
    <path
       id="path1015"
       d="m 500.364,407.273 c 0,19.782 -15.127,34.909 -34.909,34.909 -19.782,0 -34.909,-15.127 -34.909,-34.909 0,-19.782 34.909,-58.182 34.909,-58.182 0,0 34.909,38.4 34.909,58.182 z"
       style="fill:#89c763"
       inkscape:connector-curvature="0" />
    <path
       id="path1017"
       d="m 482.909,370.036 c 3.491,8.145 5.818,15.127 5.818,20.945 0,22.109 -15.127,39.564 -34.909,39.564 -6.982,0 -12.8,-2.327 -18.618,-5.818 5.818,10.473 17.455,17.455 30.255,17.455 19.782,0 34.909,-15.127 34.909,-34.909 0,-9.309 -9.309,-24.437 -17.455,-37.237 z"
       style="fill:#71b956"
       inkscape:connector-curvature="0" />
    <path
       id="path1019"
       d="m 81.455,407.273 c 0,19.782 -15.127,34.909 -34.909,34.909 -19.782,0 -34.909,-15.127 -34.909,-34.909 0,-19.782 34.909,-58.182 34.909,-58.182 0,0 34.909,38.4 34.909,58.182 z"
       style="fill:#89c763"
       inkscape:connector-curvature="0" />
    <g
       id="g1027">
	<rect
   id="rect1021"
   height="69.818001"
   width="69.818001"
   style="fill:#4c9cd6"
   y="418.909"
   x="221.091" />

	<path
   id="path1023"
   d="m 349.091,465.455 h -23.273 c -6.982,0 -11.636,-4.655 -11.636,-11.636 v -23.273 c 0,-6.982 4.655,-11.636 11.636,-11.636 h 23.273 c 6.982,0 11.636,4.655 11.636,11.636 v 23.273 c 0,6.981 -4.654,11.636 -11.636,11.636 z"
   style="fill:#4c9cd6"
   inkscape:connector-curvature="0" />

	<path
   id="path1025"
   d="m 186.182,465.455 h -23.273 c -6.982,0 -11.636,-4.655 -11.636,-11.636 v -23.273 c 0,-6.982 4.655,-11.636 11.636,-11.636 h 23.273 c 6.982,0 11.636,4.655 11.636,11.636 v 23.273 c 0,6.981 -4.654,11.636 -11.636,11.636 z"
   style="fill:#4c9cd6"
   inkscape:connector-curvature="0" />

</g>
    <path
       id="path1029"
       d="m 64,370.036 c 3.491,8.145 5.818,15.127 5.818,20.945 0,22.109 -15.127,39.564 -34.909,39.564 -6.982,0 -12.8,-2.327 -18.618,-5.818 5.818,10.473 17.455,17.455 30.255,17.455 19.782,0 34.909,-15.127 34.909,-34.909 0,-9.309 -9.31,-24.437 -17.455,-37.237 z"
       style="fill:#71b956"
       inkscape:connector-curvature="0" />
    <path
       id="path1031"
       d="m 302.545,58.182 h -93.091 c -6.982,0 -11.636,4.655 -11.636,11.636 v 23.273 c 0,6.982 -4.655,11.636 -11.636,11.636 h 139.636 c -6.982,0 -11.636,-4.655 -11.636,-11.636 V 69.818 c 0,-6.982 -4.655,-11.636 -11.637,-11.636 z"
       style="fill:#c9d5e3"
       inkscape:connector-curvature="0" />
    <path
       id="path1033"
       d="M 314.182,93.091 V 69.818 c 0,-6.982 -4.655,-11.636 -11.636,-11.636 h -34.909 c 6.982,0 11.636,4.655 11.636,11.636 v 23.273 c 0,6.982 4.655,11.636 11.636,11.636 h 34.909 c -6.982,0 -11.636,-4.654 -11.636,-11.636 z"
       style="fill:#b0c4d9"
       inkscape:connector-curvature="0" />
    <path
       id="path1035"
       d="M 360.727,151.273 H 151.273 v 0 c 0,-6.982 4.655,-11.636 11.636,-11.636 h 186.182 c 6.982,-0.001 11.636,4.654 11.636,11.636 z"
       style="fill:#3689c9"
       inkscape:connector-curvature="0" />
    <g
       id="g1041">
	<polygon
   id="polygon1037"
   points="269.964,151.273 279.273,139.636 256,139.636 246.691,151.273 "
   style="fill:#4c9cd6" />

	<polygon
   id="polygon1039"
   points="328.145,151.273 337.455,139.636 290.909,139.636 281.6,151.273 "
   style="fill:#4c9cd6" />

</g>
    <path
       id="path1043"
       d="M 360.727,221.091 H 151.273 v 0 c 0,-6.982 4.655,-11.636 11.636,-11.636 h 186.182 c 6.982,0 11.636,4.654 11.636,11.636 z"
       style="fill:#3689c9"
       inkscape:connector-curvature="0" />
    <g
       id="g1049">
	<polygon
   id="polygon1045"
   points="269.964,221.091 279.273,209.455 256,209.455 246.691,221.091 "
   style="fill:#4c9cd6" />

	<polygon
   id="polygon1047"
   points="328.145,221.091 337.455,209.455 290.909,209.455 281.6,221.091 "
   style="fill:#4c9cd6" />

</g>
    <path
       id="path1051"
       d="M 360.727,290.909 H 151.273 v 0 c 0,-6.982 4.655,-11.636 11.636,-11.636 h 186.182 c 6.982,0 11.636,4.654 11.636,11.636 z"
       style="fill:#3689c9"
       inkscape:connector-curvature="0" />
    <g
       id="g1057">
	<polygon
   id="polygon1053"
   points="269.964,290.909 279.273,279.273 256,279.273 246.691,290.909 "
   style="fill:#4c9cd6" />

	<polygon
   id="polygon1055"
   points="328.145,290.909 337.455,279.273 290.909,279.273 281.6,290.909 "
   style="fill:#4c9cd6" />

</g>
    <g
       id="g1065">
	<path
   id="path1059"
   d="M 360.727,360.727 H 151.273 v 0 c 0,-6.982 4.655,-11.636 11.636,-11.636 h 186.182 c 6.982,0 11.636,4.654 11.636,11.636 z"
   style="fill:#3689c9"
   inkscape:connector-curvature="0" />

	<path
   id="path1061"
   d="m 360.727,430.545 h -46.545 v 0 c 0,-6.982 4.655,-11.636 11.636,-11.636 h 23.273 c 6.982,0 11.636,4.655 11.636,11.636 z"
   style="fill:#3689c9"
   inkscape:connector-curvature="0" />

	<path
   id="path1063"
   d="m 197.818,430.545 h -46.545 v 0 c 0,-6.982 4.655,-11.636 11.636,-11.636 h 23.273 c 6.982,0 11.636,4.655 11.636,11.636 z"
   style="fill:#3689c9"
   inkscape:connector-curvature="0" />

</g>
    <g
       id="g1071">
	<polygon
   id="polygon1067"
   points="269.964,360.727 279.273,349.091 256,349.091 246.691,360.727 "
   style="fill:#4c9cd6" />

	<polygon
   id="polygon1069"
   points="328.145,360.727 337.455,349.091 290.909,349.091 281.6,360.727 "
   style="fill:#4c9cd6" />

</g>
    <g
       id="g1077">
	<polygon
   id="polygon1073"
   points="256,418.909 221.091,460.8 221.091,488.727 279.273,418.909 "
   style="fill:#70b7e5" />

	<polygon
   id="polygon1075"
   points="290.909,418.909 232.727,488.727 279.273,488.727 290.909,474.764 "
   style="fill:#70b7e5" />

</g>
    <g
       id="g1083">
	<circle
   id="circle1079"
   r="5.8179998"
   cy="459.63599"
   cx="261.81799"
   style="fill:#1470b8" />

	<circle
   id="circle1081"
   r="5.8179998"
   cy="459.63599"
   cx="250.18201"
   style="fill:#1470b8" />

</g>
    <g
       id="g1085">
</g>
    <g
       id="g1087">
</g>
    <g
       id="g1089">
</g>
    <g
       id="g1091">
</g>
    <g
       id="g1093">
</g>
    <g
       id="g1095">
</g>
    <g
       id="g1097">
</g>
    <g
       id="g1099">
</g>
    <g
       id="g1101">
</g>
    <g
       id="g1103">
</g>
    <g
       id="g1105">
</g>
    <g
       id="g1107">
</g>
    <g
       id="g1109">
</g>
    <g
       id="g1111">
</g>
    <g
       id="g1113">
</g>
  </g>
</svg>
