<?xml version="1.0" encoding="UTF-8" standalone="no"?>
<!-- Generator: Adobe Illustrator 19.0.0, SVG Export Plug-In . SVG Version: 6.00 Build 0)  -->

<svg
   xmlns:dc="http://purl.org/dc/elements/1.1/"
   xmlns:cc="http://creativecommons.org/ns#"
   xmlns:rdf="http://www.w3.org/1999/02/22-rdf-syntax-ns#"
   xmlns:svg="http://www.w3.org/2000/svg"
   xmlns="http://www.w3.org/2000/svg"
   xmlns:sodipodi="http://sodipodi.sourceforge.net/DTD/sodipodi-0.dtd"
   xmlns:inkscape="http://www.inkscape.org/namespaces/inkscape"
   version="1.1"
   id="Capa_1"
   x="0px"
   y="0px"
   viewBox="0 0 768 768"
   xml:space="preserve"
   sodipodi:docname="residence.svg"
   width="768"
   height="768"
   inkscape:version="0.92.3 (unknown)"><metadata
   id="metadata2569"><rdf:RDF><cc:Work
       rdf:about=""><dc:format>image/svg+xml</dc:format><dc:type
         rdf:resource="http://purl.org/dc/dcmitype/StillImage" /><dc:title></dc:title></cc:Work></rdf:RDF></metadata><defs
   id="defs2567"><style
     id="style930">.cls-1{fill:#35556d;}.cls-2{fill:#1b75bc;}.cls-3{fill:#a9e870;}.cls-4{fill:#ff673a;}.cls-5{fill:#13aae5;}.cls-6{fill:#733fc4;}.cls-7{fill:#14a085;}.cls-8{fill:#f29c1f;}.cls-9{fill:#e57e25;}.cls-10{fill:#71c285;}.cls-11{fill:#808b8d;}</style><linearGradient
     id="linearGradient3303"
     gradientUnits="userSpaceOnUse"
     x1="355.7814"
     y1="106.2953"
     x2="423.33139"
     y2="38.735298"
     gradientTransform="matrix(1.0039,0,0,-1.0039,1.3492621,1441.3428)"><stop
       offset="0"
       style="stop-color:#9EB644"
       id="stop2363-3" /><stop
       offset="1"
       style="stop-color:#738611"
       id="stop2365-6" /></linearGradient><linearGradient
     id="linearGradient3307"
     gradientUnits="userSpaceOnUse"
     x1="401.16791"
     y1="64.451797"
     x2="475.948"
     y2="-10.3182"
     gradientTransform="matrix(1.0039,0,0,-1.0039,1.3492621,1441.3428)"><stop
       offset="0"
       style="stop-color:#9EB644"
       id="stop2370-7" /><stop
       offset="1"
       style="stop-color:#738611"
       id="stop2372-5" /></linearGradient><linearGradient
     id="linearGradient3311"
     gradientUnits="userSpaceOnUse"
     x1="254.8141"
     y1="368.83301"
     x2="254.8141"
     y2="-424.31699"
     gradientTransform="matrix(1.0039,0,0,-1.0039,1.3492621,1441.3428)"><stop
       offset="0"
       style="stop-color:#FF931E"
       id="stop2377-3" /><stop
       offset="1"
       style="stop-color:#FF5D00"
       id="stop2379-5" /></linearGradient><linearGradient
     id="linearGradient3315"
     gradientUnits="userSpaceOnUse"
     x1="254.8096"
     y1="427.69299"
     x2="254.8096"
     y2="517.88599"
     gradientTransform="matrix(1.0039,0,0,-1.0039,0.1922,516.5609)"><stop
       offset="0"
       style="stop-color:#FF5D00;stop-opacity:0"
       id="stop2384-6" /><stop
       offset="1"
       style="stop-color:#D54003"
       id="stop2386-2" /></linearGradient><linearGradient
     id="linearGradient3319"
     gradientUnits="userSpaceOnUse"
     x1="254.8096"
     y1="271.58301"
     x2="254.8096"
     y2="361.77301"
     gradientTransform="matrix(1.0039,0,0,-1.0039,0.1922,516.5609)"><stop
       offset="0"
       style="stop-color:#FF5D00;stop-opacity:0"
       id="stop2391-9" /><stop
       offset="1"
       style="stop-color:#D54003"
       id="stop2393-1" /></linearGradient><linearGradient
     id="linearGradient3323"
     gradientUnits="userSpaceOnUse"
     x1="254.8096"
     y1="115.463"
     x2="254.8096"
     y2="205.66299"
     gradientTransform="matrix(1.0039,0,0,-1.0039,0.1922,516.5609)"><stop
       offset="0"
       style="stop-color:#FF5D00;stop-opacity:0"
       id="stop2398-2" /><stop
       offset="1"
       style="stop-color:#D54003"
       id="stop2400-7" /></linearGradient><linearGradient
     id="linearGradient3327"
     gradientUnits="userSpaceOnUse"
     x1="254.8091"
     y1="510.50299"
     x2="254.8091"
     y2="460.08301"
     gradientTransform="matrix(1.0039,0,0,-1.0039,1.3492621,1441.3428)"><stop
       offset="0"
       style="stop-color:#FFE7A5"
       id="stop2405-0" /><stop
       offset="0.966"
       style="stop-color:#FFBF5C"
       id="stop2407-9" /></linearGradient><linearGradient
     id="linearGradient3331"
     gradientUnits="userSpaceOnUse"
     x1="212.7986"
     y1="368.02249"
     x2="115.2686"
     y2="465.54749"
     gradientTransform="matrix(1.0039,0,0,-1.0039,1.3492621,1441.3428)"><stop
       offset="0"
       style="stop-color:#FF5D00;stop-opacity:0"
       id="stop2412-3" /><stop
       offset="1"
       style="stop-color:#D54003"
       id="stop2414-6" /></linearGradient><linearGradient
     id="linearGradient3335"
     gradientUnits="userSpaceOnUse"
     x1="305.64761"
     y1="368.02151"
     x2="208.12759"
     y2="465.54651"
     gradientTransform="matrix(1.0039,0,0,-1.0039,1.3492621,1441.3428)"><stop
       offset="0"
       style="stop-color:#FF5D00;stop-opacity:0"
       id="stop2423-0" /><stop
       offset="1"
       style="stop-color:#D54003"
       id="stop2425-6" /></linearGradient><linearGradient
     id="linearGradient3339"
     gradientUnits="userSpaceOnUse"
     x1="373.9025"
     y1="392.6264"
     x2="305.5325"
     y2="460.9964"
     gradientTransform="matrix(1.0039,0,0,-1.0039,1.3492621,1441.3428)"><stop
       offset="0"
       style="stop-color:#FF5D00;stop-opacity:0"
       id="stop2434-2" /><stop
       offset="1"
       style="stop-color:#D54003"
       id="stop2436-6" /></linearGradient><linearGradient
     id="linearGradient3343"
     gradientUnits="userSpaceOnUse"
     x1="254.8091"
     y1="352.983"
     x2="254.8091"
     y2="302.56299"
     gradientTransform="matrix(1.0039,0,0,-1.0039,1.3492621,1441.3428)"><stop
       offset="0"
       style="stop-color:#FFE7A5"
       id="stop2445-1" /><stop
       offset="0.966"
       style="stop-color:#FFBF5C"
       id="stop2447-8" /></linearGradient><linearGradient
     id="linearGradient3347"
     gradientUnits="userSpaceOnUse"
     x1="212.7991"
     y1="210.50301"
     x2="115.2691"
     y2="308.03299"
     gradientTransform="matrix(1.0039,0,0,-1.0039,1.3492621,1441.3428)"><stop
       offset="0"
       style="stop-color:#FF5D00;stop-opacity:0"
       id="stop2452-7" /><stop
       offset="1"
       style="stop-color:#D54003"
       id="stop2454-9" /></linearGradient><linearGradient
     id="linearGradient3351"
     gradientUnits="userSpaceOnUse"
     x1="305.6481"
     y1="210.50191"
     x2="208.1281"
     y2="308.03201"
     gradientTransform="matrix(1.0039,0,0,-1.0039,1.3492621,1441.3428)"><stop
       offset="0"
       style="stop-color:#FF5D00;stop-opacity:0"
       id="stop2463-2" /><stop
       offset="1"
       style="stop-color:#D54003"
       id="stop2465-0" /></linearGradient><linearGradient
     id="linearGradient3355"
     gradientUnits="userSpaceOnUse"
     x1="373.90131"
     y1="235.1152"
     x2="305.53131"
     y2="303.47519"
     gradientTransform="matrix(1.0039,0,0,-1.0039,1.3492621,1441.3428)"><stop
       offset="0"
       style="stop-color:#FF5D00;stop-opacity:0"
       id="stop2474-2" /><stop
       offset="1"
       style="stop-color:#D54003"
       id="stop2476-3" /></linearGradient><linearGradient
     id="linearGradient3359"
     gradientUnits="userSpaceOnUse"
     x1="254.8091"
     y1="195.463"
     x2="254.8091"
     y2="145.05299"
     gradientTransform="matrix(1.0039,0,0,-1.0039,1.3492621,1441.3428)"><stop
       offset="0"
       style="stop-color:#FFE7A5"
       id="stop2485-7" /><stop
       offset="0.966"
       style="stop-color:#FFBF5C"
       id="stop2487-5" /></linearGradient><linearGradient
     id="linearGradient3363"
     gradientUnits="userSpaceOnUse"
     x1="212.7981"
     y1="52.992001"
     x2="115.2681"
     y2="150.51199"
     gradientTransform="matrix(1.0039,0,0,-1.0039,1.3492621,1441.3428)"><stop
       offset="0"
       style="stop-color:#FF5D00;stop-opacity:0"
       id="stop2492-9" /><stop
       offset="1"
       style="stop-color:#D54003"
       id="stop2494-2" /></linearGradient><linearGradient
     id="linearGradient3367"
     gradientUnits="userSpaceOnUse"
     x1="373.90149"
     y1="77.595398"
     x2="305.53149"
     y2="145.96539"
     gradientTransform="matrix(1.0039,0,0,-1.0039,1.3492621,1441.3428)"><stop
       offset="0"
       style="stop-color:#FF5D00;stop-opacity:0"
       id="stop2503-2" /><stop
       offset="1"
       style="stop-color:#D54003"
       id="stop2505-8" /></linearGradient><linearGradient
     id="linearGradient3371"
     gradientUnits="userSpaceOnUse"
     x1="36.160599"
     y1="55.524502"
     x2="99.800598"
     y2="-8.1055002"
     gradientTransform="matrix(1.0039,0,0,-1.0039,1.3492621,1441.3428)"><stop
       offset="0"
       style="stop-color:#9EB644"
       id="stop2520-9" /><stop
       offset="1"
       style="stop-color:#738611"
       id="stop2522-7" /></linearGradient><linearGradient
     id="linearGradient3375"
     gradientUnits="userSpaceOnUse"
     x1="91.5625"
     y1="41.526402"
     x2="137.7225"
     y2="-4.6336002"
     gradientTransform="matrix(1.0039,0,0,-1.0039,1.3492621,1441.3428)"><stop
       offset="0"
       style="stop-color:#9EB644"
       id="stop2527-3" /><stop
       offset="1"
       style="stop-color:#738611"
       id="stop2529-6" /></linearGradient></defs><sodipodi:namedview
   pagecolor="#ffffff"
   bordercolor="#666666"
   borderopacity="1"
   objecttolerance="10"
   gridtolerance="10"
   guidetolerance="10"
   inkscape:pageopacity="0"
   inkscape:pageshadow="2"
   inkscape:window-width="1839"
   inkscape:window-height="1050"
   id="namedview2565"
   showgrid="false"
   showguides="false"
   inkscape:zoom="0.30556128"
   inkscape:cx="920.39243"
   inkscape:cy="490.85204"
   inkscape:window-x="81"
   inkscape:window-y="30"
   inkscape:window-maximized="1"
   inkscape:current-layer="Capa_1" />
<linearGradient
   id="SVGID_1_"
   gradientUnits="userSpaceOnUse"
   x1="355.7814"
   y1="106.2953"
   x2="423.33139"
   y2="38.735298"
   gradientTransform="matrix(1.0039,0,0,-1.0039,1.3492621,1441.3428)">
	<stop
   offset="0"
   style="stop-color:#9EB644"
   id="stop2363" />
	<stop
   offset="1"
   style="stop-color:#738611"
   id="stop2365" />
</linearGradient>

<linearGradient
   id="SVGID_2_"
   gradientUnits="userSpaceOnUse"
   x1="401.16791"
   y1="64.451797"
   x2="475.948"
   y2="-10.3182"
   gradientTransform="matrix(1.0039,0,0,-1.0039,1.3492621,1441.3428)">
	<stop
   offset="0"
   style="stop-color:#9EB644"
   id="stop2370" />
	<stop
   offset="1"
   style="stop-color:#738611"
   id="stop2372" />
</linearGradient>

<linearGradient
   id="SVGID_3_"
   gradientUnits="userSpaceOnUse"
   x1="254.8141"
   y1="368.83301"
   x2="254.8141"
   y2="-424.31699"
   gradientTransform="matrix(1.0039,0,0,-1.0039,1.3492621,1441.3428)">
	<stop
   offset="0"
   style="stop-color:#FF931E"
   id="stop2377" />
	<stop
   offset="1"
   style="stop-color:#FF5D00"
   id="stop2379" />
</linearGradient>

<linearGradient
   id="SVGID_4_"
   gradientUnits="userSpaceOnUse"
   x1="254.8096"
   y1="427.69299"
   x2="254.8096"
   y2="517.88599"
   gradientTransform="matrix(1.0039,0,0,-1.0039,0.1922,516.5609)">
	<stop
   offset="0"
   style="stop-color:#FF5D00;stop-opacity:0"
   id="stop2384" />
	<stop
   offset="1"
   style="stop-color:#D54003"
   id="stop2386" />
</linearGradient>

<linearGradient
   id="SVGID_5_"
   gradientUnits="userSpaceOnUse"
   x1="254.8096"
   y1="271.58301"
   x2="254.8096"
   y2="361.77301"
   gradientTransform="matrix(1.0039,0,0,-1.0039,0.1922,516.5609)">
	<stop
   offset="0"
   style="stop-color:#FF5D00;stop-opacity:0"
   id="stop2391" />
	<stop
   offset="1"
   style="stop-color:#D54003"
   id="stop2393" />
</linearGradient>

<linearGradient
   id="SVGID_6_"
   gradientUnits="userSpaceOnUse"
   x1="254.8096"
   y1="115.463"
   x2="254.8096"
   y2="205.66299"
   gradientTransform="matrix(1.0039,0,0,-1.0039,0.1922,516.5609)">
	<stop
   offset="0"
   style="stop-color:#FF5D00;stop-opacity:0"
   id="stop2398" />
	<stop
   offset="1"
   style="stop-color:#D54003"
   id="stop2400" />
</linearGradient>

<linearGradient
   id="SVGID_7_"
   gradientUnits="userSpaceOnUse"
   x1="254.8091"
   y1="510.50299"
   x2="254.8091"
   y2="460.08301"
   gradientTransform="matrix(1.0039,0,0,-1.0039,1.3492621,1441.3428)">
	<stop
   offset="0"
   style="stop-color:#FFE7A5"
   id="stop2405" />
	<stop
   offset="0.966"
   style="stop-color:#FFBF5C"
   id="stop2407" />
</linearGradient>

<linearGradient
   id="SVGID_8_"
   gradientUnits="userSpaceOnUse"
   x1="212.7986"
   y1="368.02249"
   x2="115.2686"
   y2="465.54749"
   gradientTransform="matrix(1.0039,0,0,-1.0039,1.3492621,1441.3428)">
	<stop
   offset="0"
   style="stop-color:#FF5D00;stop-opacity:0"
   id="stop2412" />
	<stop
   offset="1"
   style="stop-color:#D54003"
   id="stop2414" />
</linearGradient>



<linearGradient
   id="SVGID_9_"
   gradientUnits="userSpaceOnUse"
   x1="305.64761"
   y1="368.02151"
   x2="208.12759"
   y2="465.54651"
   gradientTransform="matrix(1.0039,0,0,-1.0039,1.3492621,1441.3428)">
	<stop
   offset="0"
   style="stop-color:#FF5D00;stop-opacity:0"
   id="stop2423" />
	<stop
   offset="1"
   style="stop-color:#D54003"
   id="stop2425" />
</linearGradient>



<linearGradient
   id="SVGID_10_"
   gradientUnits="userSpaceOnUse"
   x1="373.9025"
   y1="392.6264"
   x2="305.5325"
   y2="460.9964"
   gradientTransform="matrix(1.0039,0,0,-1.0039,1.3492621,1441.3428)">
	<stop
   offset="0"
   style="stop-color:#FF5D00;stop-opacity:0"
   id="stop2434" />
	<stop
   offset="1"
   style="stop-color:#D54003"
   id="stop2436" />
</linearGradient>



<linearGradient
   id="SVGID_11_"
   gradientUnits="userSpaceOnUse"
   x1="254.8091"
   y1="352.983"
   x2="254.8091"
   y2="302.56299"
   gradientTransform="matrix(1.0039,0,0,-1.0039,1.3492621,1441.3428)">
	<stop
   offset="0"
   style="stop-color:#FFE7A5"
   id="stop2445" />
	<stop
   offset="0.966"
   style="stop-color:#FFBF5C"
   id="stop2447" />
</linearGradient>

<linearGradient
   id="SVGID_12_"
   gradientUnits="userSpaceOnUse"
   x1="212.7991"
   y1="210.50301"
   x2="115.2691"
   y2="308.03299"
   gradientTransform="matrix(1.0039,0,0,-1.0039,1.3492621,1441.3428)">
	<stop
   offset="0"
   style="stop-color:#FF5D00;stop-opacity:0"
   id="stop2452" />
	<stop
   offset="1"
   style="stop-color:#D54003"
   id="stop2454" />
</linearGradient>



<linearGradient
   id="SVGID_13_"
   gradientUnits="userSpaceOnUse"
   x1="305.6481"
   y1="210.50191"
   x2="208.1281"
   y2="308.03201"
   gradientTransform="matrix(1.0039,0,0,-1.0039,1.3492621,1441.3428)">
	<stop
   offset="0"
   style="stop-color:#FF5D00;stop-opacity:0"
   id="stop2463" />
	<stop
   offset="1"
   style="stop-color:#D54003"
   id="stop2465" />
</linearGradient>



<linearGradient
   id="SVGID_14_"
   gradientUnits="userSpaceOnUse"
   x1="373.90131"
   y1="235.1152"
   x2="305.53131"
   y2="303.47519"
   gradientTransform="matrix(1.0039,0,0,-1.0039,1.3492621,1441.3428)">
	<stop
   offset="0"
   style="stop-color:#FF5D00;stop-opacity:0"
   id="stop2474" />
	<stop
   offset="1"
   style="stop-color:#D54003"
   id="stop2476" />
</linearGradient>



<linearGradient
   id="SVGID_15_"
   gradientUnits="userSpaceOnUse"
   x1="254.8091"
   y1="195.463"
   x2="254.8091"
   y2="145.05299"
   gradientTransform="matrix(1.0039,0,0,-1.0039,1.3492621,1441.3428)">
	<stop
   offset="0"
   style="stop-color:#FFE7A5"
   id="stop2485" />
	<stop
   offset="0.966"
   style="stop-color:#FFBF5C"
   id="stop2487" />
</linearGradient>

<linearGradient
   id="SVGID_16_"
   gradientUnits="userSpaceOnUse"
   x1="212.7981"
   y1="52.992001"
   x2="115.2681"
   y2="150.51199"
   gradientTransform="matrix(1.0039,0,0,-1.0039,1.3492621,1441.3428)">
	<stop
   offset="0"
   style="stop-color:#FF5D00;stop-opacity:0"
   id="stop2492" />
	<stop
   offset="1"
   style="stop-color:#D54003"
   id="stop2494" />
</linearGradient>



<linearGradient
   id="SVGID_17_"
   gradientUnits="userSpaceOnUse"
   x1="373.90149"
   y1="77.595398"
   x2="305.53149"
   y2="145.96539"
   gradientTransform="matrix(1.0039,0,0,-1.0039,1.3492621,1441.3428)">
	<stop
   offset="0"
   style="stop-color:#FF5D00;stop-opacity:0"
   id="stop2503" />
	<stop
   offset="1"
   style="stop-color:#D54003"
   id="stop2505" />
</linearGradient>






<linearGradient
   id="SVGID_18_"
   gradientUnits="userSpaceOnUse"
   x1="36.160599"
   y1="55.524502"
   x2="99.800598"
   y2="-8.1055002"
   gradientTransform="matrix(1.0039,0,0,-1.0039,1.3492621,1441.3428)">
	<stop
   offset="0"
   style="stop-color:#9EB644"
   id="stop2520" />
	<stop
   offset="1"
   style="stop-color:#738611"
   id="stop2522" />
</linearGradient>

<linearGradient
   id="SVGID_19_"
   gradientUnits="userSpaceOnUse"
   x1="91.5625"
   y1="41.526402"
   x2="137.7225"
   y2="-4.6336002"
   gradientTransform="matrix(1.0039,0,0,-1.0039,1.3492621,1441.3428)">
	<stop
   offset="0"
   style="stop-color:#9EB644"
   id="stop2527" />
	<stop
   offset="1"
   style="stop-color:#738611"
   id="stop2529" />
</linearGradient>

<g
   id="g2534"
   transform="translate(0,256)">
</g>
<g
   id="g2536"
   transform="translate(0,256)">
</g>
<g
   id="g2538"
   transform="translate(0,256)">
</g>
<g
   id="g2540"
   transform="translate(0,256)">
</g>
<g
   id="g2542"
   transform="translate(0,256)">
</g>
<g
   id="g2544"
   transform="translate(0,256)">
</g>
<g
   id="g2546"
   transform="translate(0,256)">
</g>
<g
   id="g2548"
   transform="translate(0,256)">
</g>
<g
   id="g2550"
   transform="translate(0,256)">
</g>
<g
   id="g2552"
   transform="translate(0,256)">
</g>
<g
   id="g2554"
   transform="translate(0,256)">
</g>
<g
   id="g2556"
   transform="translate(0,256)">
</g>
<g
   id="g2558"
   transform="translate(0,256)">
</g>
<g
   id="g2560"
   transform="translate(0,256)">
</g>
<g
   id="g2562"
   transform="translate(0,256)">
</g>
<circle
   class="cls-1"
   cx="384"
   cy="384"
   r="384"
   id="circle936"
   style="fill:#35556d" /><g
   id="g3095"
   transform="translate(129.01755,-798.95651)"><circle
     id="circle2368"
     r="52.686001"
     cy="1365.6239"
     cx="389.51508"
     style="fill:url(#SVGID_1_)" /><path
     inkscape:connector-curvature="0"
     id="path2375"
     d="m 499.23606,1414.5119 c 0,7.865 -1.488,15.372 -4.204,22.27 h -113.263 c -2.716,-6.898 -4.204,-14.405 -4.204,-22.27 0,-7.659 1.413,-14.98 3.998,-21.727 8.745,-22.878 30.896,-39.109 56.837,-39.109 25.941,0 48.093,16.229 56.837,39.109 2.588,6.747 3.999,14.068 3.999,21.727 z"
     style="fill:url(#SVGID_2_)" /><rect
     id="rect2382"
     height="495.48599"
     width="303.45499"
     style="fill:url(#SVGID_3_)"
     y="941.29291"
     x="105.43506" /><polygon
     transform="translate(1.1570621,924.78192)"
     id="polygon2389"
     points="407.727,109.69 174.645,109.69 104.275,39.322 104.275,16.511 407.727,16.511 "
     style="fill:url(#SVGID_4_)" /><polygon
     transform="translate(1.1570621,924.78192)"
     id="polygon2396"
     points="407.727,266.415 174.645,266.415 104.275,196.045 104.275,173.235 407.727,173.235 "
     style="fill:url(#SVGID_5_)" /><polygon
     transform="translate(1.1570621,924.78192)"
     id="polygon2403"
     points="407.727,423.138 174.645,423.138 104.275,352.769 104.275,329.959 407.727,329.959 "
     style="fill:url(#SVGID_6_)" /><path
     inkscape:connector-curvature="0"
     id="path2410"
     d="m 416.72806,931.45692 v 24.804 c 0,3.686 -2.989,6.675 -6.675,6.675 h -305.791 c -3.686,0 -6.674998,-2.989 -6.674998,-6.675 v -24.804 c 0,-3.686 2.988998,-6.675 6.674998,-6.675 h 305.791 c 3.686,0 6.675,2.989 6.675,6.675 z"
     style="fill:url(#SVGID_7_)" /><path
     inkscape:connector-curvature="0"
     id="path2417"
     d="m 307.87206,1099.4959 h -131.106 l -38.434,-38.434 c -0.01,0 -0.01,-0.01 -0.021,-0.021 -0.198,-0.125 -0.396,-0.26 -0.583,-0.396 -0.021,-0.01 -0.041,-0.031 -0.062,-0.042 -0.167,-0.136 -0.333,-0.271 -0.489,-0.396 -0.198,-0.157 -0.374,-0.323 -0.552,-0.5 -0.167,-0.157 -0.322,-0.312 -0.479,-0.479 -0.167,-0.167 -0.312,-0.343 -0.469,-0.52 -0.157,-0.177 -0.302,-0.364 -0.438,-0.562 -0.136,-0.188 -0.271,-0.386 -0.396,-0.583 -0.26,-0.396 -0.489,-0.812 -0.698,-1.239 -0.198,-0.427 -0.386,-0.874 -0.531,-1.332 -0.083,-0.229 -0.146,-0.458 -0.208,-0.687 -0.114,-0.406 -0.198,-0.812 -0.25,-1.229 -0.031,-0.177 -0.062,-0.354 -0.073,-0.541 -0.021,-0.156 -0.031,-0.322 -0.041,-0.489 -0.01,-0.219 -0.021,-0.437 -0.021,-0.656 v -58.02498 c 0,-6.361 5.174,-11.534 11.534,-11.534 h 41.807 c 0.229,0 0.458,0.01 0.687,0.021 0.167,0.01 0.333,0.021 0.489,0.042 0.177,0.01 0.343,0.031 0.52,0.062 0.208,0.031 0.417,0.062 0.624,0.114 0.208,0.042 0.417,0.083 0.614,0.146 0.24,0.062 0.469,0.124 0.698,0.208 0.458,0.146 0.906,0.333 1.332,0.531 0.427,0.208 0.843,0.437 1.239,0.698 0.208,0.124 0.396,0.26 0.593,0.406 0.177,0.124 0.354,0.271 0.531,0.406 0.219,0.177 0.427,0.364 0.624,0.562 0.146,0.136 0.291,0.281 0.427,0.427 0.157,0.157 0.302,0.323 0.448,0.489 0.021,0.031 0.041,0.062 0.073,0.093 0.281,0.343 0.541,0.698 0.77,1.062 0,0 0.021,0.01 0.021,0.021 l -0.312,0.25 25.192,25.19198 6.912,6.912 6.34,6.34 8.891,8.891 26.806,26.806 6.923,6.923 z"
     style="fill:url(#SVGID_8_)" /><path
     inkscape:connector-curvature="0"
     id="path2419"
     d="m 186.36906,1056.1369 h -41.814 c -2.637,0 -4.775,-2.137 -4.775,-4.775 v -57.99498 c 0,-2.637 2.137,-4.775 4.775,-4.775 h 41.814 c 2.637,0 4.775,2.137 4.775,4.775 v 57.99598 c 0,2.636 -2.138,4.774 -4.775,4.774 z"
     style="fill:#503837" /><path
     inkscape:connector-curvature="0"
     id="path2421"
     d="m 196.78406,988.40692 c -0.212,-0.446 -0.457,-0.88 -0.725,-1.293 l -0.022,-0.011 c -0.234,-0.368 -0.491,-0.725 -0.769,-1.07 -0.033,-0.022 -0.056,-0.056 -0.078,-0.089 -0.145,-0.167 -0.29,-0.334 -0.446,-0.491 -0.134,-0.146 -0.279,-0.29 -0.424,-0.424 -0.201,-0.201 -0.413,-0.391 -0.624,-0.568 -0.179,-0.134 -0.356,-0.279 -0.535,-0.402 -0.201,-0.146 -0.38,-0.279 -0.591,-0.413 -0.391,-0.256 -0.814,-0.479 -1.238,-0.691 -0.424,-0.201 -0.88,-0.391 -1.338,-0.535 -0.223,-0.078 -0.457,-0.146 -0.692,-0.201 -0.201,-0.067 -0.413,-0.111 -0.613,-0.145 -0.212,-0.056 -0.424,-0.089 -0.624,-0.122 -0.179,-0.033 -0.345,-0.044 -0.524,-0.056 -0.156,-0.022 -0.323,-0.033 -0.491,-0.044 -0.223,-0.011 -0.457,-0.022 -0.692,-0.022 h -41.807 c -6.355,0 -11.528,5.173 -11.528,11.539 v 58.02798 c 0,0.212 0.011,0.435 0.022,0.647 0.011,0.167 0.022,0.334 0.033,0.491 0.011,0.19 0.044,0.368 0.078,0.546 0.056,0.413 0.134,0.825 0.245,1.227 0.067,0.234 0.134,0.457 0.212,0.691 0.145,0.457 0.334,0.904 0.535,1.327 0.201,0.424 0.435,0.847 0.692,1.238 0.122,0.201 0.268,0.402 0.402,0.591 0.134,0.19 0.279,0.379 0.435,0.557 0.156,0.179 0.301,0.356 0.468,0.524 0.156,0.168 0.312,0.323 0.479,0.48 0.179,0.168 0.356,0.334 0.546,0.491 0.156,0.134 0.323,0.268 0.491,0.402 0.022,0.011 0.044,0.033 0.067,0.044 0.19,0.134 0.379,0.268 0.579,0.391 0.011,0.011 0.011,0.022 0.022,0.022 1.795,1.171 3.924,1.828 6.221,1.828 h 41.807 c 6.366,0 11.539,-5.173 11.539,-11.528 v -57.99798 c 0.002,-1.773 -0.4,-3.456 -1.112,-4.961 z m -12.398,60.97198 h -37.849 v -54.02598 h 37.849 z"
     style="fill:#ffffff" /><path
     inkscape:connector-curvature="0"
     id="path2428"
     d="m 401.08906,1099.4959 h -131.105 l -38.434,-38.434 c -0.01,0 -0.01,-0.01 -0.021,-0.021 -0.198,-0.125 -0.396,-0.26 -0.583,-0.396 -0.021,-0.01 -0.041,-0.031 -0.062,-0.042 -0.167,-0.136 -0.333,-0.271 -0.489,-0.396 -0.198,-0.157 -0.374,-0.323 -0.552,-0.5 -0.167,-0.157 -0.322,-0.312 -0.479,-0.479 -0.167,-0.167 -0.312,-0.343 -0.469,-0.52 -0.157,-0.177 -0.302,-0.364 -0.438,-0.562 -0.136,-0.188 -0.271,-0.386 -0.396,-0.583 -0.26,-0.396 -0.489,-0.812 -0.698,-1.239 -0.198,-0.427 -0.386,-0.874 -0.531,-1.332 -0.083,-0.229 -0.146,-0.458 -0.208,-0.687 -0.114,-0.406 -0.198,-0.812 -0.25,-1.229 -0.031,-0.177 -0.062,-0.354 -0.073,-0.541 -0.021,-0.156 -0.031,-0.322 -0.041,-0.489 -0.01,-0.219 -0.021,-0.437 -0.021,-0.656 v -58.02498 c 0,-6.361 5.174,-11.534 11.534,-11.534 h 41.807 c 0.229,0 0.458,0.01 0.687,0.021 0.167,0.01 0.333,0.021 0.489,0.042 0.177,0.01 0.343,0.031 0.52,0.062 0.208,0.031 0.417,0.062 0.624,0.114 0.208,0.042 0.417,0.083 0.614,0.146 0.24,0.062 0.469,0.124 0.698,0.208 0.458,0.146 0.906,0.333 1.332,0.531 0.427,0.208 0.843,0.437 1.239,0.698 0.208,0.124 0.396,0.26 0.593,0.406 0.177,0.124 0.354,0.271 0.531,0.406 0.219,0.177 0.427,0.364 0.624,0.562 0.146,0.136 0.291,0.281 0.427,0.427 0.156,0.157 0.302,0.323 0.448,0.489 0.021,0.031 0.041,0.062 0.073,0.093 0.281,0.343 0.541,0.698 0.77,1.062 0,0 0.021,0.01 0.021,0.021 l -0.312,0.25 25.192,25.19198 6.912,6.912 6.34,6.34 8.891,8.891 26.806,26.806 6.923,6.923 z"
     style="fill:url(#SVGID_9_)" /><path
     inkscape:connector-curvature="0"
     id="path2430"
     d="m 279.58606,1056.1369 h -41.814 c -2.637,0 -4.775,-2.137 -4.775,-4.775 v -57.99498 c 0,-2.637 2.137,-4.775 4.775,-4.775 h 41.814 c 2.637,0 4.775,2.137 4.775,4.775 v 57.99598 c 0,2.636 -2.138,4.774 -4.775,4.774 z"
     style="fill:#503837" /><path
     inkscape:connector-curvature="0"
     id="path2432"
     d="m 290.01806,988.42992 c 0,-0.011 -0.011,-0.011 -0.011,-0.022 -0.223,-0.446 -0.468,-0.88 -0.736,-1.293 l -0.022,-0.011 c -0.223,-0.368 -0.491,-0.725 -0.769,-1.07 -0.033,-0.022 -0.044,-0.056 -0.067,-0.089 -0.145,-0.167 -0.29,-0.334 -0.446,-0.491 -0.145,-0.146 -0.29,-0.29 -0.435,-0.424 -0.19,-0.201 -0.402,-0.391 -0.624,-0.568 -0.179,-0.134 -0.356,-0.279 -0.524,-0.402 -0.201,-0.146 -0.391,-0.279 -0.602,-0.413 -0.391,-0.256 -0.802,-0.479 -1.238,-0.691 -0.424,-0.201 -0.869,-0.391 -1.326,-0.535 -0.234,-0.078 -0.457,-0.146 -0.703,-0.201 -0.201,-0.067 -0.402,-0.111 -0.613,-0.145 -0.212,-0.056 -0.413,-0.089 -0.624,-0.122 -0.179,-0.033 -0.345,-0.044 -0.524,-0.056 -0.156,-0.022 -0.323,-0.033 -0.491,-0.044 -0.223,-0.011 -0.457,-0.022 -0.68,-0.022 h -41.807 c -6.366,0 -11.539,5.173 -11.539,11.539 v 58.02798 c 0,0.212 0.011,0.435 0.022,0.647 0.011,0.167 0.022,0.334 0.044,0.491 0.011,0.19 0.044,0.368 0.067,0.546 0.056,0.413 0.145,0.825 0.256,1.227 0.056,0.234 0.122,0.457 0.201,0.691 0.156,0.457 0.334,0.904 0.535,1.327 0.212,0.424 0.435,0.847 0.703,1.238 0.122,0.201 0.256,0.402 0.391,0.591 0.134,0.19 0.279,0.379 0.435,0.557 0.156,0.179 0.301,0.356 0.468,0.524 0.156,0.168 0.312,0.323 0.48,0.48 0.179,0.168 0.356,0.334 0.557,0.491 0.156,0.134 0.323,0.268 0.491,0.402 0.022,0.011 0.033,0.033 0.056,0.044 0.19,0.134 0.391,0.268 0.591,0.391 0.011,0.011 0.011,0.022 0.011,0.022 1.795,1.171 3.924,1.828 6.232,1.828 h 41.807 c 6.355,0 11.528,-5.173 11.528,-11.528 v -57.99898 c -10e-4,-1.761 -0.402,-3.445 -1.094,-4.938 z m -12.419,60.94898 h -37.85 v -54.02598 h 37.849 v 54.02598 z"
     style="fill:#ffffff" /><path
     inkscape:connector-curvature="0"
     id="path2439"
     d="m 408.88406,1014.0819 v 85.409 h -45.686 l -38.429,-38.429 c -0.011,0 -0.011,-0.011 -0.022,-0.022 -0.201,-0.122 -0.402,-0.257 -0.579,-0.391 -0.022,-0.011 -0.044,-0.033 -0.067,-0.044 -0.168,-0.134 -0.334,-0.268 -0.491,-0.402 -0.201,-0.157 -0.367,-0.323 -0.546,-0.491 -0.168,-0.156 -0.323,-0.312 -0.48,-0.48 -0.168,-0.167 -0.312,-0.345 -0.468,-0.524 -0.156,-0.179 -0.301,-0.368 -0.435,-0.557 -0.145,-0.19 -0.279,-0.391 -0.402,-0.591 -0.256,-0.391 -0.491,-0.814 -0.703,-1.238 -0.19,-0.424 -0.379,-0.869 -0.524,-1.327 -0.089,-0.234 -0.145,-0.457 -0.212,-0.691 -0.111,-0.402 -0.201,-0.814 -0.245,-1.227 -0.033,-0.179 -0.067,-0.356 -0.078,-0.546 -0.022,-0.156 -0.033,-0.323 -0.044,-0.491 0,-0.212 -0.011,-0.435 -0.011,-0.647 v -58.02498 c 0,-6.366 5.173,-11.539 11.528,-11.539 h 41.807 c 0.234,0 0.457,0.011 0.692,0.022 0.167,0.011 0.334,0.022 0.491,0.044 0.179,0.011 0.345,0.022 0.513,0.056 0.212,0.033 0.424,0.067 0.624,0.122 0.212,0.033 0.424,0.078 0.624,0.145 0.234,0.055 0.468,0.122 0.691,0.201 0.457,0.145 0.904,0.334 1.338,0.535 0.424,0.212 0.836,0.435 1.238,0.691 0.201,0.134 0.391,0.268 0.591,0.413 0.179,0.122 0.356,0.268 0.535,0.402 0.212,0.179 0.424,0.367 0.624,0.568 0.145,0.134 0.29,0.279 0.424,0.424 0.157,0.156 0.301,0.323 0.446,0.491 0.022,0.033 0.044,0.067 0.078,0.089 0.279,0.345 0.535,0.702 0.769,1.07 l 0.022,0.011 -0.312,0.256 1.037,1.037 24.147,24.15898 z"
     style="fill:url(#SVGID_10_)" /><path
     inkscape:connector-curvature="0"
     id="path2441"
     d="m 372.80306,1056.1369 h -41.814 c -2.637,0 -4.775,-2.137 -4.775,-4.775 v -57.99498 c 0,-2.637 2.137,-4.775 4.775,-4.775 h 41.814 c 2.637,0 4.775,2.137 4.775,4.775 v 57.99598 c 0,2.636 -2.137,4.774 -4.775,4.774 z"
     style="fill:#503837" /><path
     inkscape:connector-curvature="0"
     id="path2443"
     d="m 383.22006,988.40692 c -0.223,-0.446 -0.457,-0.88 -0.725,-1.293 l -0.022,-0.011 c -0.234,-0.368 -0.491,-0.725 -0.769,-1.07 -0.033,-0.022 -0.055,-0.056 -0.078,-0.089 -0.146,-0.167 -0.29,-0.334 -0.446,-0.491 -0.134,-0.146 -0.279,-0.29 -0.424,-0.424 -0.201,-0.201 -0.413,-0.391 -0.624,-0.568 -0.179,-0.134 -0.356,-0.279 -0.535,-0.402 -0.201,-0.146 -0.391,-0.279 -0.591,-0.413 -0.402,-0.256 -0.814,-0.479 -1.238,-0.691 -0.435,-0.201 -0.88,-0.391 -1.338,-0.535 -0.223,-0.078 -0.457,-0.146 -0.691,-0.201 -0.201,-0.067 -0.413,-0.111 -0.624,-0.145 -0.201,-0.056 -0.413,-0.089 -0.624,-0.122 -0.167,-0.033 -0.334,-0.044 -0.513,-0.056 -0.156,-0.022 -0.323,-0.033 -0.491,-0.044 -0.234,-0.011 -0.457,-0.022 -0.692,-0.022 h -41.808 c -6.355,0 -11.528,5.173 -11.528,11.539 v 58.02798 c 0,0.212 0.011,0.435 0.011,0.647 0.011,0.167 0.022,0.334 0.044,0.491 0.011,0.19 0.044,0.368 0.078,0.546 0.044,0.413 0.134,0.825 0.245,1.227 0.067,0.234 0.122,0.457 0.212,0.691 0.145,0.457 0.334,0.904 0.524,1.327 0.212,0.424 0.446,0.847 0.703,1.238 0.122,0.201 0.256,0.402 0.402,0.591 0.134,0.19 0.279,0.379 0.435,0.557 0.156,0.179 0.301,0.356 0.468,0.524 0.156,0.168 0.312,0.323 0.48,0.48 0.179,0.168 0.345,0.334 0.546,0.491 0.156,0.134 0.323,0.268 0.491,0.402 0.022,0.011 0.044,0.033 0.067,0.044 0.179,0.134 0.379,0.268 0.579,0.391 0.011,0.011 0.011,0.022 0.022,0.022 1.784,1.171 3.924,1.828 6.221,1.828 h 41.807 c 6.366,0 11.539,-5.173 11.539,-11.528 v -57.99798 c 0.002,-1.773 -0.41,-3.456 -1.113,-4.961 z m -12.397,60.97198 h -37.849 v -54.02598 h 37.85 z"
     style="fill:#ffffff" /><path
     inkscape:connector-curvature="0"
     id="path2450"
     d="m 416.72806,1089.5909 v 24.804 c 0,3.686 -2.989,6.675 -6.675,6.675 h -305.791 c -3.686,0 -6.674998,-2.989 -6.674998,-6.675 v -24.804 c 0,-3.686 2.988998,-6.675 6.674998,-6.675 h 305.791 c 3.686,0 6.675,2.988 6.675,6.675 z"
     style="fill:url(#SVGID_11_)" /><path
     inkscape:connector-curvature="0"
     id="path2457"
     d="m 307.87206,1257.6299 h -131.106 l -38.434,-38.434 c -0.01,0 -0.01,-0.01 -0.021,-0.021 -0.198,-0.125 -0.396,-0.26 -0.583,-0.396 -0.021,-0.01 -0.041,-0.031 -0.062,-0.042 -0.167,-0.136 -0.333,-0.271 -0.489,-0.396 -0.198,-0.157 -0.374,-0.323 -0.552,-0.5 -0.167,-0.157 -0.322,-0.312 -0.479,-0.479 -0.167,-0.167 -0.312,-0.343 -0.469,-0.52 -0.157,-0.177 -0.302,-0.364 -0.438,-0.562 -0.136,-0.188 -0.271,-0.385 -0.396,-0.583 -0.26,-0.396 -0.489,-0.812 -0.698,-1.239 -0.198,-0.427 -0.386,-0.874 -0.531,-1.332 -0.083,-0.229 -0.146,-0.458 -0.208,-0.687 -0.114,-0.406 -0.198,-0.812 -0.25,-1.229 -0.031,-0.177 -0.062,-0.354 -0.073,-0.541 -0.021,-0.156 -0.031,-0.322 -0.041,-0.489 -0.01,-0.219 -0.021,-0.437 -0.021,-0.656 v -58.026 c 0,-6.361 5.174,-11.534 11.534,-11.534 h 41.807 c 0.229,0 0.458,0.01 0.687,0.021 0.167,0.01 0.333,0.021 0.489,0.042 0.177,0.01 0.343,0.031 0.52,0.062 0.208,0.031 0.417,0.062 0.624,0.114 0.208,0.042 0.417,0.083 0.614,0.146 0.24,0.062 0.469,0.124 0.698,0.208 0.458,0.146 0.906,0.333 1.332,0.531 0.427,0.208 0.843,0.437 1.239,0.698 0.208,0.124 0.396,0.26 0.593,0.406 0.177,0.124 0.354,0.271 0.531,0.406 0.219,0.177 0.427,0.364 0.624,0.562 0.146,0.136 0.291,0.281 0.427,0.427 0.157,0.157 0.302,0.323 0.448,0.489 0.021,0.031 0.041,0.062 0.073,0.093 0.281,0.343 0.541,0.698 0.77,1.062 0,0 0.021,0.01 0.021,0.021 l -0.312,0.25 25.192,25.192 6.912,6.912 6.34,6.34 8.891,8.891 26.806,26.806 6.923,6.923 z"
     style="fill:url(#SVGID_12_)" /><path
     inkscape:connector-curvature="0"
     id="path2459"
     d="m 186.36906,1214.2709 h -41.814 c -2.637,0 -4.775,-2.137 -4.775,-4.775 v -57.996 c 0,-2.637 2.137,-4.775 4.775,-4.775 h 41.814 c 2.637,0 4.775,2.137 4.775,4.775 v 57.996 c 0,2.638 -2.138,4.775 -4.775,4.775 z"
     style="fill:#503837" /><path
     inkscape:connector-curvature="0"
     id="path2461"
     d="m 196.78406,1146.5409 c -0.212,-0.446 -0.457,-0.88 -0.725,-1.293 l -0.022,-0.011 c -0.234,-0.368 -0.491,-0.725 -0.769,-1.07 -0.033,-0.022 -0.056,-0.056 -0.078,-0.089 -0.145,-0.167 -0.29,-0.334 -0.446,-0.491 -0.134,-0.146 -0.279,-0.29 -0.424,-0.424 -0.201,-0.201 -0.413,-0.391 -0.624,-0.568 -0.179,-0.134 -0.356,-0.279 -0.535,-0.402 -0.201,-0.146 -0.38,-0.279 -0.591,-0.413 -0.391,-0.256 -0.814,-0.479 -1.238,-0.691 -0.424,-0.201 -0.88,-0.391 -1.338,-0.535 -0.223,-0.078 -0.457,-0.146 -0.692,-0.201 -0.201,-0.067 -0.413,-0.111 -0.613,-0.145 -0.212,-0.056 -0.424,-0.089 -0.624,-0.122 -0.179,-0.033 -0.345,-0.044 -0.524,-0.056 -0.156,-0.022 -0.323,-0.033 -0.491,-0.044 -0.223,-0.011 -0.457,-0.022 -0.692,-0.022 h -41.807 c -6.355,0 -11.528,5.173 -11.528,11.539 v 58.028 c 0,0.212 0.011,0.435 0.022,0.647 0.011,0.167 0.022,0.334 0.033,0.491 0.011,0.19 0.044,0.368 0.078,0.546 0.056,0.413 0.134,0.825 0.245,1.227 0.067,0.234 0.134,0.457 0.212,0.691 0.145,0.457 0.334,0.904 0.535,1.327 0.201,0.424 0.435,0.847 0.692,1.238 0.122,0.201 0.268,0.402 0.402,0.591 0.134,0.19 0.279,0.379 0.435,0.557 0.156,0.179 0.301,0.356 0.468,0.524 0.156,0.168 0.312,0.323 0.479,0.48 0.179,0.168 0.356,0.334 0.546,0.491 0.156,0.134 0.323,0.268 0.491,0.402 0.022,0.011 0.044,0.033 0.067,0.044 0.19,0.134 0.379,0.268 0.579,0.391 0.011,0.011 0.011,0.022 0.022,0.022 1.795,1.171 3.924,1.828 6.221,1.828 h 41.807 c 6.366,0 11.539,-5.173 11.539,-11.528 v -57.995 c 0.002,-1.775 -0.4,-3.459 -1.112,-4.964 z m -12.398,60.971 h -37.849 v -54.026 h 37.849 z"
     style="fill:#ffffff" /><path
     inkscape:connector-curvature="0"
     id="path2468"
     d="m 401.08906,1257.6299 h -131.105 l -38.434,-38.434 c -0.01,0 -0.01,-0.01 -0.021,-0.021 -0.198,-0.125 -0.396,-0.26 -0.583,-0.396 -0.021,-0.01 -0.041,-0.031 -0.062,-0.042 -0.167,-0.136 -0.333,-0.271 -0.489,-0.396 -0.198,-0.157 -0.374,-0.323 -0.552,-0.5 -0.167,-0.157 -0.322,-0.312 -0.479,-0.479 -0.167,-0.167 -0.312,-0.343 -0.469,-0.52 -0.157,-0.177 -0.302,-0.364 -0.438,-0.562 -0.136,-0.188 -0.271,-0.385 -0.396,-0.583 -0.26,-0.396 -0.489,-0.812 -0.698,-1.239 -0.198,-0.427 -0.386,-0.874 -0.531,-1.332 -0.083,-0.229 -0.146,-0.458 -0.208,-0.687 -0.114,-0.406 -0.198,-0.812 -0.25,-1.229 -0.031,-0.177 -0.062,-0.354 -0.073,-0.541 -0.021,-0.156 -0.031,-0.322 -0.041,-0.489 -0.01,-0.219 -0.021,-0.437 -0.021,-0.656 v -58.026 c 0,-6.361 5.174,-11.534 11.534,-11.534 h 41.807 c 0.229,0 0.458,0.01 0.687,0.021 0.167,0.01 0.333,0.021 0.489,0.042 0.177,0.01 0.343,0.031 0.52,0.062 0.208,0.031 0.417,0.062 0.624,0.114 0.208,0.042 0.417,0.083 0.614,0.146 0.24,0.062 0.469,0.124 0.698,0.208 0.458,0.146 0.906,0.333 1.332,0.531 0.427,0.208 0.843,0.437 1.239,0.698 0.208,0.124 0.396,0.26 0.593,0.406 0.177,0.124 0.354,0.271 0.531,0.406 0.219,0.177 0.427,0.364 0.624,0.562 0.146,0.136 0.291,0.281 0.427,0.427 0.156,0.157 0.302,0.323 0.448,0.489 0.021,0.031 0.041,0.062 0.073,0.093 0.281,0.343 0.541,0.698 0.77,1.062 0,0 0.021,0.01 0.021,0.021 l -0.312,0.25 25.192,25.192 6.912,6.912 6.34,6.34 8.891,8.891 26.806,26.806 6.923,6.923 z"
     style="fill:url(#SVGID_13_)" /><path
     inkscape:connector-curvature="0"
     id="path2470"
     d="m 279.58606,1214.2709 h -41.814 c -2.637,0 -4.775,-2.137 -4.775,-4.775 v -57.996 c 0,-2.637 2.137,-4.775 4.775,-4.775 h 41.814 c 2.637,0 4.775,2.137 4.775,4.775 v 57.996 c 0,2.638 -2.138,4.775 -4.775,4.775 z"
     style="fill:#503837" /><path
     inkscape:connector-curvature="0"
     id="path2472"
     d="m 290.01806,1146.5629 c 0,-0.011 -0.011,-0.011 -0.011,-0.022 -0.223,-0.446 -0.468,-0.88 -0.736,-1.293 l -0.022,-0.011 c -0.223,-0.368 -0.491,-0.725 -0.769,-1.07 -0.033,-0.022 -0.044,-0.056 -0.067,-0.089 -0.145,-0.167 -0.29,-0.334 -0.446,-0.491 -0.145,-0.146 -0.29,-0.29 -0.435,-0.424 -0.19,-0.201 -0.402,-0.391 -0.624,-0.568 -0.179,-0.134 -0.356,-0.279 -0.524,-0.402 -0.201,-0.146 -0.391,-0.279 -0.602,-0.413 -0.391,-0.256 -0.802,-0.479 -1.238,-0.691 -0.424,-0.201 -0.869,-0.391 -1.326,-0.535 -0.234,-0.078 -0.457,-0.146 -0.703,-0.201 -0.201,-0.067 -0.402,-0.111 -0.613,-0.145 -0.212,-0.056 -0.413,-0.089 -0.624,-0.122 -0.179,-0.033 -0.345,-0.044 -0.524,-0.056 -0.156,-0.022 -0.323,-0.033 -0.491,-0.044 -0.223,-0.011 -0.457,-0.022 -0.68,-0.022 h -41.807 c -6.366,0 -11.539,5.173 -11.539,11.539 v 58.028 c 0,0.212 0.011,0.435 0.022,0.647 0.011,0.167 0.022,0.334 0.044,0.491 0.011,0.19 0.044,0.368 0.067,0.546 0.056,0.413 0.145,0.825 0.256,1.227 0.056,0.234 0.122,0.457 0.201,0.691 0.156,0.457 0.334,0.904 0.535,1.327 0.212,0.424 0.435,0.847 0.703,1.238 0.122,0.201 0.256,0.402 0.391,0.591 0.134,0.19 0.279,0.379 0.435,0.557 0.156,0.179 0.301,0.356 0.468,0.524 0.156,0.168 0.312,0.323 0.48,0.48 0.179,0.168 0.356,0.334 0.557,0.491 0.156,0.134 0.323,0.268 0.491,0.402 0.022,0.011 0.033,0.033 0.056,0.044 0.19,0.134 0.391,0.268 0.591,0.391 0.011,0.011 0.011,0.022 0.011,0.022 1.795,1.171 3.924,1.828 6.232,1.828 h 41.807 c 6.355,0 11.528,-5.173 11.528,-11.528 v -57.995 c -10e-4,-1.764 -0.402,-3.448 -1.094,-4.942 z m -12.419,60.949 h -37.85 v -54.026 h 37.849 v 54.026 z"
     style="fill:#ffffff" /><path
     inkscape:connector-curvature="0"
     id="path2479"
     d="m 408.88406,1172.2169 v 85.409 h -45.686 l -38.429,-38.429 c -0.011,0 -0.011,-0.011 -0.022,-0.022 -0.201,-0.122 -0.402,-0.257 -0.579,-0.391 -0.022,-0.011 -0.044,-0.033 -0.067,-0.044 -0.168,-0.134 -0.334,-0.268 -0.491,-0.402 -0.201,-0.157 -0.367,-0.323 -0.546,-0.491 -0.168,-0.156 -0.323,-0.312 -0.48,-0.48 -0.168,-0.167 -0.312,-0.345 -0.468,-0.524 -0.156,-0.179 -0.301,-0.368 -0.435,-0.557 -0.145,-0.19 -0.279,-0.391 -0.402,-0.591 -0.256,-0.391 -0.491,-0.814 -0.703,-1.238 -0.19,-0.424 -0.379,-0.869 -0.524,-1.327 -0.089,-0.234 -0.145,-0.457 -0.212,-0.691 -0.111,-0.402 -0.201,-0.814 -0.245,-1.227 -0.033,-0.179 -0.067,-0.356 -0.078,-0.546 -0.022,-0.156 -0.033,-0.323 -0.044,-0.491 0,-0.212 -0.011,-0.435 -0.011,-0.647 v -58.028 c 0,-6.366 5.173,-11.539 11.528,-11.539 h 41.807 c 0.234,0 0.457,0.011 0.692,0.022 0.167,0.011 0.334,0.022 0.491,0.044 0.179,0.011 0.345,0.022 0.513,0.056 0.212,0.033 0.424,0.067 0.624,0.122 0.212,0.033 0.424,0.078 0.624,0.145 0.234,0.055 0.468,0.122 0.691,0.201 0.457,0.145 0.904,0.334 1.338,0.535 0.424,0.212 0.836,0.435 1.238,0.691 0.201,0.134 0.391,0.268 0.591,0.413 0.179,0.122 0.356,0.268 0.535,0.402 0.212,0.179 0.424,0.367 0.624,0.568 0.145,0.134 0.29,0.279 0.424,0.424 0.157,0.156 0.301,0.323 0.446,0.491 0.022,0.033 0.044,0.067 0.078,0.089 0.279,0.345 0.535,0.702 0.769,1.07 l 0.022,0.011 -0.312,0.256 1.037,1.037 24.147,24.159 z"
     style="fill:url(#SVGID_14_)" /><path
     inkscape:connector-curvature="0"
     id="path2481"
     d="m 372.80306,1214.2709 h -41.814 c -2.637,0 -4.775,-2.137 -4.775,-4.775 v -57.996 c 0,-2.637 2.137,-4.775 4.775,-4.775 h 41.814 c 2.637,0 4.775,2.137 4.775,4.775 v 57.996 c 0,2.638 -2.137,4.775 -4.775,4.775 z"
     style="fill:#503837" /><path
     inkscape:connector-curvature="0"
     id="path2483"
     d="m 383.22006,1146.5409 c -0.223,-0.446 -0.457,-0.88 -0.725,-1.293 l -0.022,-0.011 c -0.234,-0.368 -0.491,-0.725 -0.769,-1.07 -0.033,-0.022 -0.055,-0.056 -0.078,-0.089 -0.146,-0.167 -0.29,-0.334 -0.446,-0.491 -0.134,-0.146 -0.279,-0.29 -0.424,-0.424 -0.201,-0.201 -0.413,-0.391 -0.624,-0.568 -0.179,-0.134 -0.356,-0.279 -0.535,-0.402 -0.201,-0.146 -0.391,-0.279 -0.591,-0.413 -0.402,-0.256 -0.814,-0.479 -1.238,-0.691 -0.435,-0.201 -0.88,-0.391 -1.338,-0.535 -0.223,-0.078 -0.457,-0.146 -0.691,-0.201 -0.201,-0.067 -0.413,-0.111 -0.624,-0.145 -0.201,-0.056 -0.413,-0.089 -0.624,-0.122 -0.167,-0.033 -0.334,-0.044 -0.513,-0.056 -0.156,-0.022 -0.323,-0.033 -0.491,-0.044 -0.234,-0.011 -0.457,-0.022 -0.692,-0.022 h -41.808 c -6.355,0 -11.528,5.173 -11.528,11.539 v 58.028 c 0,0.212 0.011,0.435 0.011,0.647 0.011,0.167 0.022,0.334 0.044,0.491 0.011,0.19 0.044,0.368 0.078,0.546 0.044,0.413 0.134,0.825 0.245,1.227 0.067,0.234 0.122,0.457 0.212,0.691 0.145,0.457 0.334,0.904 0.524,1.327 0.212,0.424 0.446,0.847 0.703,1.238 0.122,0.201 0.256,0.402 0.402,0.591 0.134,0.19 0.279,0.379 0.435,0.557 0.156,0.179 0.301,0.356 0.468,0.524 0.156,0.168 0.312,0.323 0.48,0.48 0.179,0.168 0.345,0.334 0.546,0.491 0.156,0.134 0.323,0.268 0.491,0.402 0.022,0.011 0.044,0.033 0.067,0.044 0.179,0.134 0.379,0.268 0.579,0.391 0.011,0.011 0.011,0.022 0.022,0.022 1.784,1.171 3.924,1.828 6.221,1.828 h 41.807 c 6.366,0 11.539,-5.173 11.539,-11.528 v -57.995 c 0.002,-1.775 -0.41,-3.459 -1.113,-4.964 z m -12.397,60.971 h -37.849 v -54.026 h 37.85 z"
     style="fill:#ffffff" /><path
     inkscape:connector-curvature="0"
     id="path2490"
     d="m 416.72806,1247.7259 v 24.804 c 0,3.686 -2.989,6.675 -6.675,6.675 h -305.791 c -3.686,0 -6.674998,-2.989 -6.674998,-6.675 v -24.804 c 0,-3.686 2.988998,-6.675 6.674998,-6.675 h 305.791 c 3.686,-10e-4 6.675,2.988 6.675,6.675 z"
     style="fill:url(#SVGID_15_)" /><path
     inkscape:connector-curvature="0"
     id="path2497"
     d="m 307.87206,1415.7649 h -131.106 l -38.434,-38.434 c -0.01,0 -0.01,-0.01 -0.021,-0.021 -0.198,-0.125 -0.396,-0.26 -0.583,-0.396 -0.021,-0.01 -0.041,-0.031 -0.062,-0.042 -0.167,-0.136 -0.333,-0.271 -0.489,-0.396 -0.198,-0.157 -0.374,-0.323 -0.552,-0.5 -0.167,-0.157 -0.322,-0.312 -0.479,-0.479 -0.167,-0.167 -0.312,-0.343 -0.469,-0.52 -0.157,-0.177 -0.302,-0.364 -0.438,-0.562 -0.136,-0.188 -0.271,-0.385 -0.396,-0.583 -0.26,-0.396 -0.489,-0.812 -0.698,-1.239 -0.198,-0.427 -0.386,-0.874 -0.531,-1.332 -0.083,-0.229 -0.146,-0.458 -0.208,-0.687 -0.114,-0.406 -0.198,-0.812 -0.25,-1.229 -0.031,-0.177 -0.062,-0.354 -0.073,-0.541 -0.021,-0.156 -0.031,-0.322 -0.041,-0.489 -0.01,-0.219 -0.021,-0.437 -0.021,-0.656 v -58.026 c 0,-6.361 5.174,-11.534 11.534,-11.534 h 41.807 c 0.229,0 0.458,0.01 0.687,0.021 0.167,0.01 0.333,0.021 0.489,0.042 0.177,0.01 0.343,0.031 0.52,0.062 0.208,0.031 0.417,0.062 0.624,0.114 0.208,0.042 0.417,0.083 0.614,0.146 0.24,0.062 0.469,0.124 0.698,0.208 0.458,0.146 0.906,0.333 1.332,0.531 0.427,0.208 0.843,0.437 1.239,0.698 0.208,0.124 0.396,0.26 0.593,0.406 0.177,0.124 0.354,0.271 0.531,0.406 0.219,0.177 0.427,0.364 0.624,0.562 0.146,0.136 0.291,0.281 0.427,0.427 0.157,0.157 0.302,0.323 0.448,0.489 0.021,0.031 0.041,0.062 0.073,0.093 0.281,0.343 0.541,0.698 0.77,1.062 0,0 0.021,0.01 0.021,0.021 l -0.312,0.25 25.192,25.192 6.912,6.912 6.34,6.34 8.891,8.891 26.806,26.806 6.923,6.923 z"
     style="fill:url(#SVGID_16_)" /><path
     inkscape:connector-curvature="0"
     id="path2499"
     d="m 186.36906,1372.4059 h -41.814 c -2.637,0 -4.775,-2.137 -4.775,-4.775 v -57.996 c 0,-2.637 2.137,-4.775 4.775,-4.775 h 41.814 c 2.637,0 4.775,2.137 4.775,4.775 v 57.996 c 0,2.636 -2.138,4.775 -4.775,4.775 z"
     style="fill:#503837" /><path
     inkscape:connector-curvature="0"
     id="path2501"
     d="m 196.78406,1304.6749 c -0.212,-0.446 -0.457,-0.88 -0.725,-1.293 l -0.022,-0.011 c -0.234,-0.368 -0.491,-0.725 -0.769,-1.07 -0.033,-0.022 -0.056,-0.056 -0.078,-0.089 -0.145,-0.167 -0.29,-0.334 -0.446,-0.491 -0.134,-0.146 -0.279,-0.29 -0.424,-0.424 -0.201,-0.201 -0.413,-0.391 -0.624,-0.568 -0.179,-0.134 -0.356,-0.279 -0.535,-0.402 -0.201,-0.146 -0.38,-0.279 -0.591,-0.413 -0.391,-0.256 -0.814,-0.479 -1.238,-0.691 -0.424,-0.201 -0.88,-0.391 -1.338,-0.535 -0.223,-0.078 -0.457,-0.146 -0.692,-0.201 -0.201,-0.067 -0.413,-0.111 -0.613,-0.145 -0.212,-0.056 -0.424,-0.089 -0.624,-0.122 -0.179,-0.033 -0.345,-0.044 -0.524,-0.056 -0.156,-0.022 -0.323,-0.033 -0.491,-0.044 -0.223,-0.011 -0.457,-0.022 -0.692,-0.022 h -41.807 c -6.355,0 -11.528,5.173 -11.528,11.539 v 58.028 c 0,0.212 0.011,0.435 0.022,0.647 0.011,0.167 0.022,0.334 0.033,0.491 0.011,0.19 0.044,0.368 0.078,0.546 0.056,0.413 0.134,0.825 0.245,1.227 0.067,0.234 0.134,0.457 0.212,0.691 0.145,0.457 0.334,0.904 0.535,1.327 0.201,0.424 0.435,0.847 0.692,1.238 0.122,0.201 0.268,0.402 0.402,0.591 0.134,0.189 0.279,0.379 0.435,0.557 0.156,0.179 0.301,0.356 0.468,0.524 0.156,0.168 0.312,0.323 0.479,0.48 0.179,0.168 0.356,0.334 0.546,0.491 0.156,0.134 0.323,0.268 0.491,0.402 0.022,0.011 0.044,0.033 0.067,0.044 0.19,0.134 0.379,0.268 0.579,0.391 0.011,0.011 0.011,0.022 0.022,0.022 1.795,1.171 3.924,1.828 6.221,1.828 h 41.807 c 6.366,0 11.539,-5.173 11.539,-11.528 v -57.995 c 0.002,-1.776 -0.4,-3.458 -1.112,-4.964 z m -12.398,60.971 h -37.849 v -54.026 h 37.849 z"
     style="fill:#ffffff" /><path
     inkscape:connector-curvature="0"
     id="path2508"
     d="m 408.88406,1330.3499 v 85.409 h -45.686 l -38.429,-38.429 c -0.011,0 -0.011,-0.011 -0.022,-0.022 -0.201,-0.122 -0.402,-0.257 -0.579,-0.391 -0.022,-0.011 -0.044,-0.033 -0.067,-0.044 -0.168,-0.134 -0.334,-0.268 -0.491,-0.402 -0.201,-0.157 -0.367,-0.323 -0.546,-0.491 -0.168,-0.156 -0.323,-0.312 -0.48,-0.48 -0.168,-0.167 -0.312,-0.345 -0.468,-0.524 -0.156,-0.179 -0.301,-0.368 -0.435,-0.557 -0.145,-0.19 -0.279,-0.391 -0.402,-0.591 -0.256,-0.391 -0.491,-0.814 -0.703,-1.238 -0.19,-0.424 -0.379,-0.869 -0.524,-1.327 -0.089,-0.234 -0.145,-0.457 -0.212,-0.691 -0.111,-0.402 -0.201,-0.814 -0.245,-1.227 -0.033,-0.179 -0.067,-0.356 -0.078,-0.546 -0.022,-0.156 -0.033,-0.323 -0.044,-0.491 0,-0.212 -0.011,-0.435 -0.011,-0.647 v -58.028 c 0,-6.366 5.173,-11.539 11.528,-11.539 h 41.807 c 0.234,0 0.457,0.011 0.692,0.022 0.167,0.011 0.334,0.022 0.491,0.044 0.179,0.011 0.345,0.022 0.513,0.056 0.212,0.033 0.424,0.067 0.624,0.122 0.212,0.033 0.424,0.078 0.624,0.145 0.234,0.055 0.468,0.122 0.691,0.201 0.457,0.145 0.904,0.334 1.338,0.535 0.424,0.212 0.836,0.435 1.238,0.691 0.201,0.134 0.391,0.268 0.591,0.413 0.179,0.122 0.356,0.268 0.535,0.402 0.212,0.179 0.424,0.367 0.624,0.568 0.145,0.134 0.29,0.279 0.424,0.424 0.157,0.156 0.301,0.323 0.446,0.491 0.022,0.033 0.044,0.067 0.078,0.089 0.279,0.345 0.535,0.702 0.769,1.07 l 0.022,0.011 -0.312,0.256 1.037,1.037 24.147,24.159 z"
     style="fill:url(#SVGID_17_)" /><path
     inkscape:connector-curvature="0"
     id="path2510"
     d="m 372.80306,1372.4059 h -41.814 c -2.637,0 -4.775,-2.137 -4.775,-4.775 v -57.996 c 0,-2.637 2.137,-4.775 4.775,-4.775 h 41.814 c 2.637,0 4.775,2.137 4.775,4.775 v 57.996 c 0,2.636 -2.137,4.775 -4.775,4.775 z"
     style="fill:#503837" /><path
     inkscape:connector-curvature="0"
     id="path2512"
     d="m 383.22006,1304.6749 c -0.223,-0.446 -0.457,-0.88 -0.725,-1.293 l -0.022,-0.011 c -0.234,-0.368 -0.491,-0.725 -0.769,-1.07 -0.033,-0.022 -0.055,-0.056 -0.078,-0.089 -0.146,-0.167 -0.29,-0.334 -0.446,-0.491 -0.134,-0.146 -0.279,-0.29 -0.424,-0.424 -0.201,-0.201 -0.413,-0.391 -0.624,-0.568 -0.179,-0.134 -0.356,-0.279 -0.535,-0.402 -0.201,-0.146 -0.391,-0.279 -0.591,-0.413 -0.402,-0.256 -0.814,-0.479 -1.238,-0.691 -0.435,-0.201 -0.88,-0.391 -1.338,-0.535 -0.223,-0.078 -0.457,-0.146 -0.691,-0.201 -0.201,-0.067 -0.413,-0.111 -0.624,-0.145 -0.201,-0.056 -0.413,-0.089 -0.624,-0.122 -0.167,-0.033 -0.334,-0.044 -0.513,-0.056 -0.156,-0.022 -0.323,-0.033 -0.491,-0.044 -0.234,-0.011 -0.457,-0.022 -0.692,-0.022 h -41.808 c -6.355,0 -11.528,5.173 -11.528,11.539 v 58.028 c 0,0.212 0.011,0.435 0.011,0.647 0.011,0.167 0.022,0.334 0.044,0.491 0.011,0.19 0.044,0.368 0.078,0.546 0.044,0.413 0.134,0.825 0.245,1.227 0.067,0.234 0.122,0.457 0.212,0.691 0.145,0.457 0.334,0.904 0.524,1.327 0.212,0.424 0.446,0.847 0.703,1.238 0.122,0.201 0.256,0.402 0.402,0.591 0.134,0.19 0.279,0.379 0.435,0.557 0.156,0.179 0.301,0.356 0.468,0.524 0.156,0.168 0.312,0.323 0.48,0.48 0.179,0.168 0.345,0.334 0.546,0.491 0.156,0.134 0.323,0.268 0.491,0.402 0.022,0.011 0.044,0.033 0.067,0.044 0.179,0.134 0.379,0.268 0.579,0.391 0.011,0.011 0.011,0.022 0.022,0.022 1.784,1.171 3.924,1.828 6.221,1.828 h 41.807 c 6.366,0 11.539,-5.173 11.539,-11.528 v -57.995 c 0.002,-1.776 -0.41,-3.458 -1.113,-4.964 z m -12.397,60.971 h -37.849 v -54.026 h 37.85 z"
     style="fill:#ffffff" /><path
     inkscape:connector-curvature="0"
     id="path2514"
     d="m 222.41006,1436.7819 v -115.013 c 0,-8.035 6.513,-14.549 14.549,-14.549 h 40.398 c 8.035,0 14.549,6.513 14.549,14.549 v 115.013 z"
     style="fill:#ffbf5c" /><path
     inkscape:connector-curvature="0"
     id="path2516"
     d="m 300.51106,1436.7819 h -17.209 v -110.054 c 0,-5.997 -4.907,-10.904 -10.904,-10.904 h -30.48 c -6.023,0 -10.904,4.882 -10.904,10.904 v 110.054 h -17.209 v -121.434 c 0,-9.241 7.491,-16.733 16.733,-16.733 h 53.24 c 9.241,0 16.733,7.491 16.733,16.733 z"
     style="fill:#ffe7a5" /><circle
     id="circle2518"
     r="7.8470001"
     cy="1375.5929"
     cx="244.82906"
     style="fill:#ffffff" /><path
     inkscape:connector-curvature="0"
     id="path2525"
     d="m 118.62006,1417.8299 c 0,6.693 -1.267,13.081 -3.578,18.952 H 18.656062 c -2.311,-5.871 -3.578,-12.259 -3.578,-18.952 0,-6.517 1.202,-12.749 3.402,-18.489 7.442,-19.47 26.293,-33.281 48.369,-33.281 22.076,0 40.926998,13.812 48.368998,33.281 2.201,5.74 3.402,11.972 3.402,18.489 z"
     style="fill:url(#SVGID_18_)" /><path
     inkscape:connector-curvature="0"
     id="path2532"
     d="m 152.00506,1423.0339 c 0,4.855 -0.919,9.489 -2.595,13.748 H 79.490062 c -1.677,-4.259 -2.595,-8.893 -2.595,-13.748 0,-4.727 0.871,-9.248 2.468,-13.412 5.398,-14.123 19.073,-24.142 35.086998,-24.142 16.014,0 29.689,10.019 35.087,24.142 1.595,4.164 2.468,8.684 2.468,13.412 z"
     style="fill:url(#SVGID_19_)" /></g></svg>