<svg xmlns="http://www.w3.org/2000/svg" viewBox="0 0 512 512" id="BypZXXrWQ"><style>@-webkit-keyframes B1XpWX7HZ7_SkBQXXHZQ_Animation{0%{-webkit-transform: rotate(0deg);transform: rotate(0deg);}100%{-webkit-transform: rotate(360deg);transform: rotate(360deg);}}@keyframes B1XpWX7HZ7_SkBQXXHZQ_Animation{0%{-webkit-transform: rotate(0deg);transform: rotate(0deg);}100%{-webkit-transform: rotate(360deg);transform: rotate(360deg);}}#BypZXXrWQ *{-webkit-animation-duration: 3s;animation-duration: 3s;-webkit-animation-iteration-count: infinite;animation-iteration-count: infinite;-webkit-animation-timing-function: cubic-bezier(0, 0, 1, 1);animation-timing-function: cubic-bezier(0, 0, 1, 1);}#S1W6-QmBbm{fill: #269af2;}#r1GaWmQSbX{fill: #58960f;}#r1NaZXmBb7{fill: #fff;}#rkHpZQQS-X{fill: #fff;}#B1XpWX7HZ7_SkBQXXHZQ{-webkit-animation-name: B1XpWX7HZ7_SkBQXXHZQ_Animation;animation-name: B1XpWX7HZ7_SkBQXXHZQ_Animation;-webkit-transform-origin: 50% 50%;transform-origin: 50% 50%;transform-box: fill-box;-webkit-transform: rotate(0deg);transform: rotate(0deg);}</style><defs/><title>cloud_reco</title><g id="S1x6-XmH-Q" data-name="Layer 1"><path d="M429.38,412.51a82.61,82.61,0,0,0,18.7-163.08,151.34,151.34,0,0,0-283.83-71.72,64.48,64.48,0,0,0-89.5,50.76,92.92,92.92,0,0,0,18.17,184Z" id="S1W6-QmBbm"/><circle cx="265.73" cy="320.67" r="118.33" id="r1GaWmQSbX"/></g><g id="B1XpWX7HZ7_SkBQXXHZQ" data-animator-group="true" data-animator-type="1"><g id="B1XpWX7HZ7" data-name="Layer 2"><path id="r1NaZXmBb7" d="M341.59,255.6l-10,10-1.73-1.91a102.14,102.14,0,0,0-18.47-15.22,90.38,90.38,0,0,0-33.95-12.59,118.68,118.68,0,0,0-19.59-.48,85.61,85.61,0,0,0-77.2,80.88l-.23,4.28h21.34l.4-4.95a61.35,61.35,0,0,1,6.11-22.83,64.25,64.25,0,0,1,57.93-36.39,65.22,65.22,0,0,1,48.36,22.47l1.68,1.9-9.15,9.15-9.16,9.15h53.71v-53.5Z"/><path id="rkHpZQQS-X" d="M329.81,325.48a60.36,60.36,0,0,1-6.11,22.83,63.91,63.91,0,0,1-106.29,13.92l-1.67-1.9,9.15-9.17L234,342H180.43v26.63c0,14.62,0,26.64.24,26.64s4.61-4.38,10-9.72l9.72-9.69,4,3.94a90.79,90.79,0,0,0,50.59,25.72,116.44,116.44,0,0,0,21.53.18,87.8,87.8,0,0,0,42.75-18.27,86.41,86.41,0,0,0,31.37-54.85c.31-1.9.63-5.42.75-7.78l.22-4.24H330.21Z"/></g></g><script>(function(){var a=document.querySelector('#BypZXXrWQ'),b=a.querySelectorAll('style'),c=function(d){b.forEach(function(f){var g=f.textContent;g&amp;&amp;(f.textContent=g.replace(/transform-box:[^;\r\n]*/gi,'transform-box: '+d))})};c('initial'),window.requestAnimationFrame(function(){return c('fill-box')})})();</script></svg>