<?xml version="1.0" encoding="UTF-8" standalone="no"?>
<!-- Generator: Adobe Illustrator 22.0.0, SVG Export Plug-In . SVG Version: 6.00 Build 0)  -->

<svg
   xmlns:dc="http://purl.org/dc/elements/1.1/"
   xmlns:cc="http://creativecommons.org/ns#"
   xmlns:rdf="http://www.w3.org/1999/02/22-rdf-syntax-ns#"
   xmlns:svg="http://www.w3.org/2000/svg"
   xmlns="http://www.w3.org/2000/svg"
   xmlns:sodipodi="http://sodipodi.sourceforge.net/DTD/sodipodi-0.dtd"
   xmlns:inkscape="http://www.inkscape.org/namespaces/inkscape"
   version="1.1"
   id="Layer_1"
   x="0px"
   y="0px"
   viewBox="0 0 1604.3 1101.9"
   style="enable-background:new 0 0 1604.3 1101.9;"
   xml:space="preserve"
   sodipodi:docname="100.svg"
   inkscape:version="0.92.4 (unknown)"><metadata
   id="metadata229"><rdf:RDF><cc:Work
       rdf:about=""><dc:format>image/svg+xml</dc:format><dc:type
         rdf:resource="http://purl.org/dc/dcmitype/StillImage" /></cc:Work></rdf:RDF></metadata><defs
   id="defs227">
	
	
	
	
	
	
	
	
		
	
	
	
</defs><sodipodi:namedview
   pagecolor="#ffffff"
   bordercolor="#666666"
   borderopacity="1"
   objecttolerance="10"
   gridtolerance="10"
   guidetolerance="10"
   inkscape:pageopacity="0"
   inkscape:pageshadow="2"
   inkscape:window-width="1855"
   inkscape:window-height="1056"
   id="namedview225"
   showgrid="false"
   inkscape:zoom="0.27062491"
   inkscape:cx="1764.6697"
   inkscape:cy="449.6343"
   inkscape:window-x="65"
   inkscape:window-y="24"
   inkscape:window-maximized="1"
   inkscape:current-layer="Layer_1" />
<style
   type="text/css"
   id="style2">
	.st0{fill:#AFB7BC;}
	.st1{fill:#C7C9C7;}
	.st2{fill:#FFFFFF;}
	.st3{fill:#353535;}
	.st4{fill:#29ABE2;}
	.st5{fill:#999999;}
	.st6{fill:#5F3930;}
	.st7{opacity:0.15;enable-background:new    ;}
	.st8{fill:#2698C9;}
	.st9{opacity:0.2;fill:#FFFFFF;enable-background:new    ;}
	.st10{fill:#86BAE5;}
	.st11{fill:#515151;}
	.st12{font-family:'ArialMT';}
	.st13{font-size:27.7109px;}
	.st14{fill:none;}
	.st15{fill:#87796F;}
	.st16{fill:#3A312A;}
	.st17{fill:#F16C7A;}
	.st18{fill:#D7E057;}
	.st19{fill:#6B5B51;}
	.st20{fill:#B9BC39;}
	.st21{fill:#28B5F5;}
	.st22{fill:#4EC1F5;}
	.st23{fill:#7FD3F9;}
	.st24{fill:#B1E3FB;}
	.st25{font-family:'MyriadPro-Regular';}
	.st26{font-size:49.316px;}
</style>
<rect
   style="fill:#afb7bc"
   id="rect32"
   height="73.5"
   width="20"
   class="st0"
   y="729.70001"
   x="474.5" /><rect
   style="fill:#afb7bc"
   id="rect36"
   height="73.5"
   width="20"
   class="st0"
   y="726.09998"
   x="728.59998" /><rect
   style="fill:#ffffff;stroke-width:0.99997258"
   id="rect40"
   height="9.7997313"
   width="79.897812"
   class="st2"
   transform="rotate(-65.46737)"
   y="1124.1311"
   x="-362.59747" /><polygon
   style="fill:#ffffff"
   id="polygon42"
   points="914.7,718.1 877,817.7 863.4,814 901.1,714.3 "
   class="st2" />










<g
   id="g211">
	<g
   id="g113">
		<g
   id="g111">
			<rect
   x="519.8"
   y="739.6"
   class="st15"
   width="186.6"
   height="50.1"
   id="rect109" />
		</g>
	</g>
	<g
   id="g119">
		<g
   id="g117">
			<path
   class="st16"
   d="M706.5,738H519.8c-0.9,0-1.6,0.7-1.6,1.6v50.1c0,0.9,0.7,1.6,1.6,1.6h186.6c0.9,0,1.6-0.7,1.6-1.6v-50.1     C708.1,738.7,707.4,738,706.5,738z M704.9,788.1H521.5v-46.9h183.4V788.1L704.9,788.1z"
   id="path115" />
		</g>
	</g>
	<g
   id="g125">
		<g
   id="g123">
			<rect
   x="604.3"
   y="660.7"
   class="st15"
   width="17.8"
   height="24.5"
   id="rect121" />
		</g>
	</g>
	<g
   id="g131">
		<g
   id="g129">
			<path
   class="st16"
   d="M622.1,659.1h-17.8c-0.9,0-1.6,0.7-1.6,1.6v24.5c0,0.9,0.7,1.6,1.6,1.6h17.8c0.9,0,1.6-0.7,1.6-1.6v-24.5     C623.7,659.8,623,659.1,622.1,659.1z M620.5,683.6h-14.6v-21.3h14.6V683.6z"
   id="path127" />
		</g>
	</g>
	<g
   id="g137">
		<g
   id="g135">
			<path
   class="st15"
   d="M645.3,636.9H581c-6.6,0-11.9,5.3-11.9,11.9l0,0c0,6.6,5.3,11.9,11.9,11.9h64.3c6.6,0,11.9-5.3,11.9-11.9     l0,0C657.2,642.2,651.9,636.9,645.3,636.9z"
   id="path133" />
		</g>
	</g>
	<g
   id="g143">
		<g
   id="g141">
			<path
   class="st16"
   d="M645.3,635.3h-37.5c-0.9,0-1.6,0.7-1.6,1.6s0.7,1.6,1.6,1.6h37.5c5.7,0,10.3,4.6,10.3,10.3     s-4.6,10.3-10.3,10.3H581c-5.7,0-10.3-4.6-10.3-10.3s4.6-10.3,10.3-10.3h11.1c0.9,0,1.6-0.7,1.6-1.6s-0.7-1.6-1.6-1.6H581     c-7.4,0-13.5,6-13.5,13.5c0,7.4,6,13.5,13.5,13.5h64.3c7.4,0,13.5-6,13.5-13.5C658.8,641.4,652.7,635.3,645.3,635.3z"
   id="path139" />
		</g>
	</g>
	<g
   id="g149">
		<g
   id="g147">
			<path
   class="st17"
   d="M719.1,723.9c-7,0-12.7,5.7-12.7,12.7v56.1c0,7,5.7,12.7,12.7,12.7s12.7-5.7,12.7-12.7v-56.1     C731.8,729.6,726.1,723.9,719.1,723.9z"
   id="path145" />
		</g>
	</g>
	<g
   id="g155">
		<g
   id="g153">
			<path
   class="st16"
   d="M719.1,722.3c-7.9,0-14.3,6.4-14.3,14.3v56.1c0,7.9,6.4,14.3,14.3,14.3s14.3-6.4,14.3-14.3v-56.1     C733.4,728.7,727,722.3,719.1,722.3z M730.2,792.7c0,6.1-5,11.1-11.1,11.1s-11.1-5-11.1-11.1v-56.1c0-6.1,5-11.1,11.1-11.1     s11.1,5,11.1,11.1V792.7z"
   id="path151" />
		</g>
	</g>
	<g
   id="g161">
		<g
   id="g159">
			<path
   class="st17"
   d="M507.2,723.9c-7,0-12.7,5.7-12.7,12.7v56.1c0,7,5.7,12.7,12.7,12.7s12.7-5.7,12.7-12.7v-56.1     C519.9,729.6,514.2,723.9,507.2,723.9z"
   id="path157" />
		</g>
	</g>
	<g
   id="g167">
		<g
   id="g165">
			<path
   class="st16"
   d="M507.2,722.3c-7.9,0-14.3,6.4-14.3,14.3v17.8c0,0.9,0.7,1.6,1.6,1.6s1.6-0.7,1.6-1.6v-17.8     c0-6.1,5-11.1,11.1-11.1s11.1,5,11.1,11.1v56.1c0,6.1-5,11.1-11.1,11.1s-11.1-5-11.1-11.1v-22.1c0-0.9-0.7-1.6-1.6-1.6     s-1.6,0.7-1.6,1.6v22.1c0,7.9,6.4,14.3,14.3,14.3c7.9,0,14.3-6.4,14.3-14.3v-56.1C521.5,728.7,515.1,722.3,507.2,722.3z"
   id="path163" />
		</g>
	</g>
	<g
   id="g173">
		<g
   id="g171">
			<circle
   class="st18"
   cx="613.2"
   cy="764.6"
   r="67.5"
   id="circle169" />
		</g>
	</g>
	<g
   id="g179">
		<g
   id="g177">
			<path
   class="st16"
   d="M613.2,695.5c-38.1,0-69.2,31-69.2,69.2s31,69.2,69.2,69.2c38.1,0,69.2-31,69.2-69.2     S651.3,695.5,613.2,695.5z M613.2,830.6c-36.4,0-65.9-29.6-65.9-65.9c0-36.4,29.6-65.9,65.9-65.9s65.9,29.6,65.9,65.9     C679.1,801,649.5,830.6,613.2,830.6z"
   id="path175" />
		</g>
	</g>
	<g
   id="g185">
		<g
   id="g183">
			<path
   class="st18"
   d="M634,685.2h-41.7c-5.3,0-9.6,4.3-9.6,9.6v9.5h60.9v-9.5C643.6,689.5,639.3,685.2,634,685.2z"
   id="path181" />
		</g>
	</g>
	<g
   id="g191">
		<g
   id="g189">
			<path
   class="st16"
   d="M634,683.6h-41.7c-6.2,0-11.2,5-11.2,11.2v9.5c0,0.9,0.7,1.6,1.6,1.6h60.9c0.9,0,1.6-0.7,1.6-1.6v-9.5     C645.2,688.7,640.2,683.6,634,683.6z M642,702.8h-57.7v-7.9c0-4.4,3.6-8,8-8H634c4.4,0,8,3.6,8,8V702.8L642,702.8z"
   id="path187" />
		</g>
	</g>
	<g
   id="g197">
		<g
   id="g195">
			<path
   class="st19"
   d="M645.3,638.5h-11.8c5.7,0,10.3,4.6,10.3,10.3s-4.6,10.3-10.3,10.3h11.8c5.7,0,10.3-4.6,10.3-10.3     S651,638.5,645.3,638.5z"
   id="path193" />
		</g>
	</g>
	<g
   id="g203">
		<g
   id="g201">
			<path
   class="st20"
   d="M643.2,706h-11.8c21.3,11,35.9,33.1,35.9,58.7c0,34.4-26.4,62.7-60.1,65.7c1.9,0.2,3.9,0.3,5.9,0.3     c36.4,0,65.9-29.6,65.9-65.9C679.1,739.1,664.5,716.9,643.2,706z"
   id="path199" />
		</g>
	</g>
	<g
   id="g209">
		<g
   id="g207">
			<path
   class="st20"
   d="M634,686.8h-11.8c4.4,0,8,3.6,8,8v7.9H642v-7.9C642,690.4,638.4,686.8,634,686.8z"
   id="path205" />
		</g>
	</g>
</g>

<text
   class="st25 st26"
   id="text222"
   style="font-size:30.70099258px;font-family:MyriadPro-Regular;stroke-width:0.62253612"
   x="550.95685"
   y="774.66931">CLOSED</text>

</svg>