<?xml version="1.0"?>
<svg xmlns="http://www.w3.org/2000/svg" xmlns:xlink="http://www.w3.org/1999/xlink" version="1.1" id="Capa_1" x="0px" y="0px" viewBox="0 0 512 512" style="enable-background:new 0 0 512 512;" xml:space="preserve" width="512px" height="512px" class=""><g><path style="fill:#384949;" d="M256.05,0C153.751,0,67.852,79.501,60.051,180l18.399,30h12.6v-15  c0-43.455,16.99-84.78,47.84-116.363l0.244-0.25l0.25-0.245C171.158,47.097,212.591,30,256.05,30c90.871,0,164.8,74.019,164.8,165  v0.4l-0.389,14.6h10.789l20.601-30C444.05,79.501,358.349,0,256.05,0z" data-original="#384949"/><path style="fill:#293939;" d="M256.05,0v30c90.871,0,164.8,74.019,164.8,165v0.4l-0.389,14.6h10.789l20.601-30  C444.05,79.501,358.349,0,256.05,0z" data-original="#293939" class=""/><path style="fill:#384949;" d="M414.749,223.5l-158.699,3l-160.201,3.001L76.05,456.899l180,1.501l182.999,1.5L414.749,223.5z" data-original="#384949"/><polygon style="fill:#293939;" points="439.049,459.901 256.05,458.401 256.05,226.5 414.749,223.5 " data-original="#293939" class=""/><path style="fill:#2F4050" d="M59.251,180c-0.3,4.799-0.401,9.901-0.401,15v105h91.399V180H59.251z" data-original="#FF3636" class="" data-old_color="#2f4050"/><path style="fill:#FFBD86;" d="M350.251,421.199C332.85,456.599,296.549,482,256.05,482c-37.8,0-72.299-22.4-90.601-54.5  l16.201-38.401l2.399-0.298L196.05,342.6l16.199,7.8c13.5,6.301,28.801,9.6,43.801,9.6c15,0,30.3-3.3,43.801-9.6l16.199-7.8  l12.001,46.201l2.399,0.298L350.251,421.199z" data-original="#FFBD86" class=""/><path style="fill:#0E2231" d="M451.851,180H360.25v120h22.284l4.627,13.5L423.55,300h28.301  C451.851,300,452.151,184.799,451.851,180z" data-original="#CC0000" class="active-path" data-old_color="#0E2130"/><path style="fill:#F6A96C;" d="M350.251,421.199C332.85,456.599,296.549,482,256.05,482V360c15,0,30.3-3.3,43.801-9.6l16.199-7.8  l12.001,46.201l2.399,0.298L350.251,421.199z" data-original="#F6A96C"/><path style="fill:#FED2A4;" d="M390.45,210l0.2,45c0,38.101-16.399,74.399-44.599,99.901c-24.901,22.8-56.1,35.099-89.7,35.099h-0.3  c-4.501,0-8.699-0.3-13.2-0.601c-68.399-6.599-121.8-67.8-121.8-139.499V210l28.801-30h9c35.4,0,68.101-20.4,83.699-51.599  l13.5-27.301l13.5,27.301C285.149,159.6,317.85,180,353.25,180h15.3L390.45,210z" data-original="#FED2A4"/><path style="fill:#FFBD86;" d="M390.45,210l0.2,45c0,38.101-16.399,74.399-44.599,99.901c-24.901,22.8-56.1,35.099-89.7,35.099h-0.3  V101.1l13.5,27.301C285.149,159.6,317.85,180,353.25,180h15.3L390.45,210z" data-original="#FFBD86" class=""/><path style="fill:#384949;" d="M256.05,60c-35.7,0-69.6,14.099-95.7,39.6c-25.201,25.8-39.3,59.7-39.3,95.4v15h37.8  c38.699,0,74.099-17.401,97.2-47.1c23.101,29.7,58.5,47.1,97.2,47.1h37.2l0.4-15C390.85,120.601,330.45,60,256.05,60z" data-original="#384949"/><path style="fill:#293939;" d="M390.85,195l-0.4,15h-37.2c-38.699,0-74.099-17.401-97.2-47.1V60  C330.45,60,390.85,120.601,390.85,195z" data-original="#293939" class=""/><path style="fill:#3E5959" d="M423.55,300c-6,17.401-22.8,30-42.299,30h-109.4v-30H423.55z" data-original="#3E5959" class=""/><path style="fill:#2F4050" d="M481.25,496.399c-0.901-24.3-11-49.699-27.499-68.299c-15.601-16.8-38.401-27.9-64.801-31.501  l-58.5-7.5l-3.9,11.4c-10.5,29.702-38.7,49.501-70.5,49.501c-31.5,0-60-19.799-70.499-49.501l-3.9-11.4l-58.801,7.5  c-26.1,3.602-48.9,14.702-64.2,31.501c-16.5,17.999-26.1,43.4-27.599,67.999L30.149,512H481.85L481.25,496.399z" data-original="#FF3636" class="" data-old_color="#2f4050"/><path style="fill:#0E2231" d="M481.851,512H256.05v-62c31.8,0,60-19.799,70.499-49.501l3.9-11.4l58.5,7.5  c26.4,3.602,49.2,14.702,64.801,31.501c16.5,18.6,26.598,43.999,27.499,68.299L481.851,512z" data-original="#CC0000" class="active-path" data-old_color="#0E2130"/></g> </svg>
