<?xml version="1.0" encoding="iso-8859-1"?>
<!-- Generator: Adobe Illustrator 19.0.0, SVG Export Plug-In . SVG Version: 6.00 Build 0)  -->
<svg version="1.1" id="Capa_1" xmlns="http://www.w3.org/2000/svg" xmlns:xlink="http://www.w3.org/1999/xlink" x="0px" y="0px"
	 viewBox="0 0 512 512" style="enable-background:new 0 0 512 512;" xml:space="preserve">
<path style="fill:#FF5B5B;" d="M437.93,345.023v82.032c0,19.437-15.814,35.241-35.251,35.241H109.311
	c-19.437,0-35.241-15.804-35.241-35.241v-82.032c0-100.318,81.612-181.93,181.93-181.93h0.751
	C356.729,163.504,437.93,244.955,437.93,345.023z"/>
<path style="fill:#FF193D;" d="M437.93,345.023v82.032c0,19.437-15.814,35.241-35.251,35.241H256.751V163.093
	C356.729,163.504,437.93,244.955,437.93,345.023z"/>
<path style="fill:#7C8287;" d="M437.93,363.289v63.766c0,19.437-15.814,35.241-35.251,35.241H109.311
	c-19.437,0-35.241-15.804-35.241-35.241v-63.766H437.93z"/>
<path style="fill:#DCE6EB;" d="M437.93,496.987c0,8.297-6.726,15.013-15.013,15.013H89.083c-8.297,0-15.013-6.716-15.013-15.013
	c0-8.287,6.716-15.013,15.013-15.013h333.833C431.204,481.974,437.93,488.699,437.93,496.987z"/>
<g>
	<path style="fill:#FFB64C;" d="M271.804,15.013v91.47c0,8.287-6.726,15.013-15.013,15.013s-15.013-6.726-15.013-15.013v-91.47
		C241.777,6.726,248.503,0,256.791,0S271.804,6.726,271.804,15.013z"/>
	<path style="fill:#FFB64C;" d="M142.1,153.264c-4.921,0-9.742-2.416-12.615-6.855L82.537,73.912
		c-4.507-6.959-2.519-16.255,4.441-20.762c6.959-4.508,16.254-2.519,20.762,4.441l46.948,72.497
		c4.507,6.959,2.519,16.255-4.441,20.762C147.725,152.483,144.896,153.264,142.1,153.264z"/>
</g>
<path style="fill:#FF9F00;" d="M364.913,153.264c-2.796,0-5.625-0.781-8.147-2.414c-6.96-4.507-8.948-13.803-4.442-20.762
	l46.948-72.497c4.508-6.961,13.802-8.948,20.762-4.441c6.96,4.507,8.948,13.803,4.442,20.762l-46.948,72.497
	C374.654,150.847,369.833,153.264,364.913,153.264z"/>
<path style="fill:#C8D2DC;" d="M437.93,496.987c0,8.297-6.726,15.013-15.013,15.013H256.751v-30.026h166.166
	C431.204,481.974,437.93,488.699,437.93,496.987z"/>
<path style="fill:#596C76;" d="M437.93,363.289v63.766c0,19.437-15.814,35.241-35.251,35.241H256.751v-99.007L437.93,363.289
	L437.93,363.289z"/>
<path style="fill:#FF9F00;" d="M271.804,15.013v91.47c0,8.287-6.726,15.013-15.013,15.013V0C265.078,0,271.804,6.726,271.804,15.013
	z"/>
<g>
</g>
<g>
</g>
<g>
</g>
<g>
</g>
<g>
</g>
<g>
</g>
<g>
</g>
<g>
</g>
<g>
</g>
<g>
</g>
<g>
</g>
<g>
</g>
<g>
</g>
<g>
</g>
<g>
</g>
</svg>
