<?xml version="1.0" encoding="utf-8"?>
<!-- Generator: Adobe Illustrator 22.0.0, SVG Export Plug-In . SVG Version: 6.00 Build 0)  -->
<svg version="1.1" id="Layer_1" xmlns="http://www.w3.org/2000/svg" xmlns:xlink="http://www.w3.org/1999/xlink" x="0px" y="0px"
	 viewBox="0 0 1533.7 1056.2" style="enable-background:new 0 0 1533.7 1056.2;" xml:space="preserve">
<style type="text/css">
	.st0{fill:#28B5F5;}
	.st1{fill:#4EC1F5;}
	.st2{fill:#7FD3F9;}
	.st3{fill:#B1E3FB;}
	.st4{fill:#4399D3;}
	.st5{fill:#62A9DA;}
	.st6{fill:#3F8DC8;}
	.st7{fill:#2C7EB9;}
	.st8{fill:#FDB62E;}
	.st9{fill:#010101;}
	.st10{fill:#AFB7BC;}
	.st11{fill:#C7C9C7;}
	.st12{fill:#FFFFFF;}
	.st13{fill:#353535;}
	.st14{fill:#29ABE2;}
	.st15{fill:#999999;}
	.st16{fill:#5F3930;}
	.st17{opacity:0.15;enable-background:new    ;}
	.st18{fill:#2698C9;}
	.st19{opacity:0.2;fill:#FFFFFF;enable-background:new    ;}
	.st20{fill:#86BAE5;}
	.st21{font-family:'ArialMT';}
	.st22{font-size:25.7118px;}
	.st23{fill:#515151;}
</style>
<g id="Layer_3_1_">
	<path class="st0" d="M-820.6,687.8c406.2-239.2,613.4-361.2,912.2-318.2c66.8,9.6,172.7,32.5,262.6,105.8
		c30.7,25.1,114.1,93.1,114.2,183.4v0.1c0,251.3-293,454.9-654.5,454.9c-338.8,0-617.4-179-651-408.4
		C-838.7,694.7-824.2,689.9-820.6,687.8z"/>
	<path class="st1" d="M-820.9,770.1c202.5-15.8,361.7-51.3,470.4-81.2c190.2-52.3,262.7-97.3,385.3-90.7
		c163.4,8.9,298,103.3,399.9,205c-35.3,54.4-104.9,157.1-234.6,223.1c-108.3,55.1-241.8,87.7-386.3,87.7
		C-492.5,1114-749.6,967.7-820.9,770.1z"/>
	<path class="st2" d="M-740.1,901.4c318.2,88.5,480.7,36.9,570.8-31c50.8-38.3,76.9-80.7,143.1-102.7
		c135.4-45.1,287.6,45.5,396.7,130.8c-41.2,41-107.9,97.9-202.3,143.2c-154.8,74.2-293,72.4-354.3,72.4
		C-419.4,1114-624.1,1029.1-740.1,901.4z"/>
	<path class="st3" d="M-620.9,999c324.8,3.7,622.5-54.7,943.9-54.2C203.1,1048,19.5,1114-186.2,1114
		C-353,1114-505.3,1070.6-620.9,999z"/>
</g>
<g id="Layer_2_1_">
	<g id="Layer_3">
		<path class="st4" d="M722.8,678.3H642c-40,0-72.5,32.4-72.5,72.5s32.4,72.5,72.5,72.5c40,0,72.5-32.4,72.5-72.5
			c0-11.6-2.8-23.1-8.2-33.4h16.5V678.3z"/>
		<circle class="st5" cx="642.1" cy="750.7" r="44.5"/>
		<path class="st6" d="M608.4,686.5l-20.1-6c-7-2-14.3,1.9-16.4,8.9c-0.7,2.5-0.7,5.1,0,7.6l6,20.1
			C584.8,704.1,595.5,693.4,608.4,686.5z"/>
		<path class="st6" d="M675.7,814.8l20.1,6c7,2.1,14.4-1.9,16.4-8.8c0.7-2.5,0.7-5.1,0-7.6l-6-20.1
			C699.4,797.4,688.7,808,675.7,814.8z"/>
		<circle class="st7" cx="642.1" cy="750.7" r="33.4"/>
		<path class="st4" d="M603.1,828.8v-17c-19.9-12.8-32.5-34.5-33.4-58.3h-0.1v75.2h-11.1v5.6h55.8v-5.6H603.1z"/>
		<path class="st6" d="M603.1,819v-7.3c-19.9-12.8-32.5-34.5-33.4-58.3h-0.1v33.7C575.3,798.6,585.8,813.7,603.1,819L603.1,819z"/>
		<path class="st7" d="M697.8,678.3h5.6v39h-5.6V678.3z"/>
		<path class="st7" d="M569.7,817.5h33.4v5.6h-33.4V817.5z"/>
		<path class="st7" d="M580.8,689.4h5.6v5.6h-5.6V689.4z"/>
		<path class="st7" d="M697.8,806.4h5.6v5.6h-5.6V806.4z"/>
		<path class="st5" d="M583.6,750.7H578c0-35.4,28.7-64,64.1-64.1v5.6C609.7,692.3,583.7,718.4,583.6,750.7z"/>
		<path class="st5" d="M647.6,686.6h5.6v5.6h-5.6V686.6z"/>
		<path class="st7" d="M622.5,750.7h13.9c0-1.5,0.6-2.9,1.7-3.9l-9.8-9.8c-2.5-2.5-5.9-3.6-9.5-3.2l-6,0.8
			c-4.3,7.8-5.3,16.9-2.8,25.4l3.7-4.9C615.8,752.3,619,750.7,622.5,750.7L622.5,750.7z"/>
		<path class="st7" d="M642.1,729.8v15.4c1.5,0,2.9,0.6,3.9,1.7l9.8-9.8c2.5-2.5,3.6-6,3.2-9.5l-0.8-6c-7.6-4.2-16.5-5.2-24.9-2.9
			l2.6,1.3C639.7,721.7,642,725.5,642.1,729.8L642.1,729.8z"/>
		<path class="st7" d="M642.1,770.2v-13.9c-1.5,0-2.9-0.6-3.9-1.7l-9.8,9.8c-2.5,2.5-3.6,6-3.2,9.5l0.8,6c7.8,4.3,16.9,5.3,25.4,2.8
			l-4.9-3.7C643.7,777,642.1,773.7,642.1,770.2z"/>
		<path class="st7" d="M674.1,741.4l-3.7,4.9c-2.1,2.8-5.4,4.5-8.9,4.5h-13.9c0,1.5-0.6,2.9-1.7,4l9.8,9.8c2.5,2.5,5.9,3.6,9.5,3.2
			l6-0.8C675.6,759,676.6,749.9,674.1,741.4L674.1,741.4z"/>
		<path class="st8" d="M628.3,736.9l9.8,9.8c1-1,2.5-1.7,3.9-1.7v-15.4c0-4.2-2.4-8.1-6.1-9.9l-2.6-1.3c-8.7,2.4-16.1,8.2-20.6,16.1
			l6-0.8C622.3,733.3,625.8,734.4,628.3,736.9L628.3,736.9z"/>
		<path class="st8" d="M655.9,736.9l-9.8,9.8c1,1,1.7,2.5,1.7,3.9h13.9c3.5,0,6.8-1.7,8.9-4.5l3.7-4.9c-2.5-8.5-8.3-15.7-16.1-19.9
			l0.8,6C659.5,731,658.4,734.4,655.9,736.9z"/>
		<path class="st8" d="M628.3,764.5l9.8-9.8c-1-1-1.7-2.5-1.7-4h-13.9c-3.5,0-6.8,1.7-8.9,4.5l-3.7,4.9c2.5,8.5,8.3,15.7,16.1,19.9
			l-0.8-6C624.7,770.5,625.8,767,628.3,764.5L628.3,764.5z"/>
		<path class="st8" d="M655.9,764.5l-9.8-9.8c-1,1-2.5,1.7-3.9,1.7v13.9c0,3.5,1.7,6.8,4.5,8.9l4.9,3.7c8.5-2.5,15.7-8.3,19.9-16.1
			l-6,0.8C661.9,768.2,658.4,767,655.9,764.5z"/>
		<circle class="st8" cx="642.1" cy="750.7" r="5.6"/>
		<path class="st6" d="M671.5,717.2c3.6,3.2,6.7,7,9.2,11.1h30.3c-1.2-3.8-2.8-7.6-4.6-11.1H671.5z"/>
		<path class="st9" d="M720.1,675.5h-78c-11.8,0-23.4,2.8-33.9,8.1l-19-5.8c-8.4-2.5-17.4,2.2-19.9,10.7c-0.9,3-0.9,6.2,0,9.2
			l5.8,19c-5.3,10.5-8.1,22.1-8.1,33.9c0,0.8,0,1.7,0.1,2.5c0,0.1-0.1,0.2-0.1,0.3v75.2h-8.4v5.6h55.8v-5.6h-8.4v-12.1
			c21.7,12,48,12.4,70.1,1.2l19,5.8c8.4,2.5,17.4-2.2,19.9-10.7c0.9-3,0.9-6.2,0-9.2l-5.8-19c5.3-10.5,8.1-22.1,8.1-33.9
			c0-10.6-2.2-21-6.5-30.6h9.3v8.4h5.6v-61.3h-5.6V675.5z M574.6,696.2c-1.7-5.5,1.5-11.3,7-13c1.9-0.6,4.1-0.6,6,0l13.9,4.2
			c-0.5,0.3-0.8,0.6-1.2,0.8l-0.4,0.3c-7.9,5.3-14.7,12.2-19.9,19.9l-0.3,0.4c-0.3,0.4-0.6,0.8-0.8,1.2L574.6,696.2z M600.3,828.8
			h-27.8v-5.6h27.8V828.8z M600.3,817.5h-27.8V779c0.6,1.7,1.5,3.3,2.2,5l0.1,0.2c0.7,1.5,1.6,3,2.4,4.4l0.3,0.5
			c0.8,1.4,1.8,2.8,2.7,4.2c0.2,0.4,0.5,0.6,0.7,1c0.7,1,1.5,2.1,2.3,3.1c0.3,0.4,0.6,0.7,0.8,1c0.9,1.1,1.9,2.2,2.9,3.3
			c0.5,0.5,0.8,0.9,1.3,1.4c0.7,0.8,1.6,1.6,2.4,2.3c0.6,0.5,1,0.9,1.6,1.5c0.9,0.8,1.9,1.7,2.9,2.4l1.5,1.1
			c1.2,0.9,2.4,1.8,3.6,2.6c0.1,0.1,0.2,0.1,0.3,0.2L600.3,817.5z M709.6,805.3c1.7,5.5-1.5,11.3-7,13c-1.9,0.6-4.1,0.6-6,0
			l-13.9-4.2c0.5-0.3,0.8-0.6,1.3-0.8l0.4-0.3c7.9-5.3,14.7-12.1,19.9-19.9l0.3-0.4c0.3-0.5,0.6-0.8,0.8-1.2L709.6,805.3z
			 M711.7,750.7c0,11.4-2.8,22.7-8.3,32.8c-0.6,1.2-1.4,2.4-2.1,3.6c-0.3,0.6-0.6,1-0.9,1.5c-0.5,0.7-0.9,1.4-1.5,2.1
			c-0.7,1-1.4,1.9-2.1,2.9c-0.4,0.5-0.8,1-1.2,1.5c-0.6,0.7-1.2,1.4-1.8,2.1l-0.8,0.9c-1.1,1.2-2.3,2.4-3.5,3.5l-0.9,0.7
			c-0.7,0.6-1.4,1.2-2.1,1.8c-0.5,0.4-1,0.8-1.5,1.2c-0.9,0.7-1.9,1.5-2.9,2.1c-0.7,0.5-1.4,1-2.1,1.5c-0.5,0.4-1,0.6-1.5,0.9
			c-1.2,0.7-2.4,1.4-3.6,2.1c-22.5,12.1-49.7,10.8-71-3.2c-0.6-0.4-1.2-0.8-1.8-1.2c-0.6-0.4-1-0.7-1.5-1c-0.5-0.3-1.1-0.9-1.7-1.3
			c-0.8-0.7-1.7-1.4-2.5-2.1c-0.5-0.4-0.9-0.7-1.3-1.2c-0.5-0.4-1-0.9-1.5-1.4s-0.8-0.8-1.2-1.2c-0.4-0.4-0.9-0.9-1.4-1.5
			s-0.8-0.9-1.3-1.4s-0.8-0.9-1.2-1.4c-0.7-0.9-1.5-1.9-2.2-2.8l-0.5-0.6c-0.6-0.8-1.2-1.7-1.8-2.6c-0.2-0.3-0.4-0.6-0.6-0.8
			c-0.6-0.8-1.1-1.7-1.6-2.6l-0.5-0.7c-0.6-1-1.2-2.1-1.7-3.2l-0.1-0.2c-4.4-8.8-6.8-18.5-7.1-28.2c0-0.9-0.1-1.8-0.1-2.7
			c0-11.4,2.8-22.7,8.3-32.8c0.6-1.2,1.4-2.4,2.1-3.6c0.3-0.6,0.6-1,0.9-1.5c0.5-0.7,0.9-1.4,1.5-2.1c0.6-0.9,1.4-1.9,2.1-2.9
			c0.4-0.6,0.8-1,1.2-1.5c0.6-0.7,1.2-1.4,1.8-2.1l0.8-0.9c1.1-1.2,2.3-2.4,3.5-3.5l0.9-0.8c0.7-0.6,1.4-1.2,2.1-1.8
			c0.5-0.4,1-0.8,1.5-1.2c0.9-0.7,1.9-1.5,2.9-2.1c0.7-0.5,1.4-1,2.1-1.5c0.5-0.3,1-0.6,1.5-0.9c1.2-0.7,2.4-1.4,3.6-2.1
			c10.1-5.4,21.3-8.3,32.8-8.3h55.8v33.4h-25.1v0.2c-19.9-17-49.9-14.6-66.9,5.4s-14.6,49.9,5.4,66.9c19.9,17,49.9,14.6,66.9-5.4
			c15.1-17.7,15.1-43.8,0-61.5h26.4C709.3,729.6,711.7,740.1,711.7,750.7L711.7,750.7z M683.9,750.7c0,23.1-18.7,41.8-41.8,41.8
			c-23.1,0-41.8-18.7-41.8-41.8c0-23.1,18.7-41.8,41.8-41.8C665.1,708.9,683.9,727.6,683.9,750.7z M720.1,714.4h-16.7V681h16.7
			V714.4z"/>
		<path class="st9" d="M670.2,728c-0.6-0.7-1.3-1.5-1.9-2.2c-0.1-0.2-0.3-0.3-0.4-0.5c-0.6-0.6-1.2-1.1-1.9-1.7
			c-0.3-0.3-0.6-0.5-0.8-0.7c-0.5-0.4-1-0.7-1.5-1.1c-0.6-0.4-0.8-0.7-1.3-1c-0.5-0.3-0.8-0.6-1.2-0.7c-0.6-0.4-1.1-0.7-1.7-1
			l-0.1-0.1c-0.2-0.1-0.5-0.2-0.7-0.4c-0.8-0.4-1.6-0.8-2.4-1.2c-0.4-0.2-0.7-0.3-1.1-0.4c-0.7-0.3-1.5-0.6-2.1-0.8
			c-0.5-0.1-0.8-0.2-1.3-0.4c-0.7-0.2-1.4-0.4-2.1-0.6c-0.5-0.1-0.9-0.2-1.5-0.3c-0.6-0.1-1.3-0.2-2-0.3c-0.6-0.1-1.1-0.1-1.7-0.1
			s-1.2-0.1-1.8-0.1c-0.2,0-0.4,0-0.6,0c-0.6,0-1,0.1-1.6,0.1c-0.6,0-0.8,0-1.3,0.1c-0.9,0.1-1.9,0.2-2.8,0.4l-0.6,0.1
			c-1,0.2-2.1,0.4-3.1,0.7h-0.2h-0.1c-1.1,0.3-2.1,0.6-3.2,1l-0.3,0.1c-1,0.4-2,0.8-3.1,1.4l-0.3,0.1c-1,0.5-1.9,1-2.9,1.6l-0.3,0.2
			c-0.8,0.6-1.7,1.2-2.5,1.8c-0.2,0.1-0.3,0.2-0.5,0.4c-0.7,0.6-1.4,1.2-2.1,1.9c-0.2,0.2-0.5,0.4-0.6,0.6c-0.6,0.6-1.1,1.1-1.7,1.8
			c-0.3,0.3-0.6,0.6-0.8,0.9c-0.5,0.6-0.8,1-1.2,1.6c-0.3,0.5-0.6,0.8-0.9,1.3c-0.3,0.5-0.6,1-0.9,1.5c-0.3,0.6-0.6,0.9-0.8,1.4
			c0,0,0,0.1-0.1,0.1c-0.6,1.2-1.2,2.4-1.8,3.7c-0.2,0.4-0.3,0.7-0.4,1c-0.4,0.9-0.7,1.9-0.9,3c-0.1,0.4-0.2,0.8-0.3,1.2
			c-0.3,1-0.5,2-0.6,3.1c-0.1,0.4-0.1,0.7-0.2,1.1c-0.2,1.4-0.3,2.8-0.3,4.2c0,1,0.1,2.1,0.2,3.2c0,0.4,0.1,0.7,0.1,1.2
			c0.1,0.6,0.2,1.3,0.3,1.9c0.1,0.7,0.3,1.5,0.5,2.2c0.1,0.6,0.3,1,0.4,1.6v0.1c0.3,1,0.6,1.9,1,3c0.1,0.1,0.1,0.3,0.2,0.4
			c0.4,1,0.8,2,1.4,3l0.1,0.2c0.6,1,1.1,1.9,1.8,3l0.1,0.1c0.6,0.9,1.3,1.9,1.9,2.7c0,0.1,0.1,0.1,0.1,0.2c0.6,0.8,1.3,1.6,2,2.3
			c0.1,0.1,0.3,0.3,0.4,0.4c0.6,0.6,1.2,1.2,1.9,1.8c0.3,0.2,0.5,0.5,0.7,0.7c0.5,0.5,1,0.8,1.6,1.2c0.6,0.4,0.8,0.6,1.3,0.9
			c0.5,0.3,0.8,0.6,1.3,0.8c0.5,0.3,1,0.7,1.6,1l0.1,0.1c1.2,0.6,2.4,1.2,3.7,1.8c0.4,0.2,0.7,0.3,1,0.4c0.9,0.4,1.9,0.7,3,0.9
			c0.4,0.1,0.8,0.2,1.2,0.3c1,0.3,2,0.5,3.1,0.6c0.4,0.1,0.7,0.1,1.1,0.2c1.4,0.2,2.8,0.3,4.2,0.3c1,0,2.1-0.1,3.2-0.2l1.2-0.1
			c0.6-0.1,1.3-0.2,1.9-0.3c0.7-0.1,1.5-0.3,2.2-0.5c0.6-0.1,1-0.3,1.6-0.4h0.1c1-0.3,1.9-0.6,3-1l0.4-0.2c1-0.4,1.9-0.8,3-1.4
			l0.3-0.1c1-0.6,1.9-1.1,2.9-1.7l0.2-0.1c0.9-0.6,1.8-1.2,2.6-1.9l0.3-0.2c0.7-0.6,1.5-1.3,2.2-1.9c0.2-0.2,0.3-0.3,0.5-0.5
			c0.6-0.6,1.1-1.2,1.7-1.8c0.3-0.3,0.6-0.6,0.7-0.8c0.4-0.5,0.7-0.9,1.1-1.5c0.4-0.5,0.7-0.9,1-1.4c0.3-0.4,0.5-0.7,0.7-1.1
			c0.4-0.6,0.7-1.2,1.1-1.8c0,0,0-0.1,0.1-0.1c0.6-1.2,1.2-2.4,1.8-3.7c0.2-0.4,0.3-0.7,0.4-1c0.4-0.9,0.6-1.9,0.9-3
			c0.1-0.4,0.2-0.8,0.3-1.2c0.3-1,0.5-2,0.6-3.1c0.1-0.4,0.1-0.7,0.2-1.1c0.2-1.4,0.3-2.8,0.3-4.2c0-1-0.1-2.1-0.2-3.2
			c0-0.4-0.1-0.7-0.1-1.2c-0.1-0.6-0.2-1.3-0.3-1.9c-0.1-0.7-0.3-1.5-0.5-2.2c-0.1-0.6-0.3-1-0.4-1.6v-0.1c-0.3-1-0.6-1.9-1-3
			c-0.1-0.1-0.1-0.3-0.2-0.4c-0.4-1-0.8-1.9-1.4-3l-0.1-0.3c-0.6-1-1.1-1.9-1.7-2.9l-0.1-0.2c-0.6-0.9-1.2-1.9-1.9-2.7
			C670.4,728.2,670.4,728.1,670.2,728L670.2,728z M641.5,720.1c0.8,0,1.6,0,2.4,0.1c0.4,0,0.8,0,1.2,0.1c1.1,0.1,2.2,0.3,3.3,0.5
			c0.3,0.1,0.6,0.2,0.8,0.2c0.8,0.2,1.7,0.5,2.5,0.7c0.4,0.1,0.7,0.3,1.1,0.4c0.7,0.3,1.4,0.6,2.1,0.9l0.6,0.3l0.6,4.6
			c0.4,2.6-0.5,5.2-2.3,7.1l-8.3,8.3c-0.1-0.1-0.2-0.1-0.3-0.1l-0.1-0.1l-0.4-0.2v-13.1c0-0.8-0.1-1.7-0.2-2.4
			c0-0.2-0.1-0.5-0.2-0.6c-0.1-0.6-0.3-1.2-0.6-1.8c-0.1-0.2-0.1-0.4-0.2-0.6c-0.3-0.7-0.6-1.4-1.1-2c-0.1-0.2-0.2-0.3-0.3-0.4
			c-0.4-0.6-0.7-1-1.2-1.5c-0.1-0.1-0.1-0.2-0.2-0.3L641.5,720.1L641.5,720.1z M639.9,749.1c0.2-0.2,0.4-0.5,0.6-0.6
			c0.7-0.6,1.8-0.7,2.7-0.4c0.2,0.1,0.4,0.2,0.5,0.4c0.3,0.2,0.5,0.4,0.6,0.6c0.1,0.2,0.3,0.4,0.4,0.5c0.5,0.8,0.3,1.9-0.4,2.7
			c-0.2,0.3-0.4,0.5-0.6,0.6c-0.2,0.1-0.4,0.3-0.5,0.4c-0.8,0.5-1.9,0.3-2.7-0.4c-0.2-0.2-0.5-0.4-0.6-0.6c-0.2-0.2-0.3-0.4-0.4-0.6
			c-0.3-0.6-0.3-1.5,0-2.1C639.6,749.4,639.8,749.2,639.9,749.1L639.9,749.1z M618.9,730.8c0.8-0.9,1.7-1.9,2.6-2.7
			c0.1-0.1,0.3-0.3,0.5-0.4c2.1-1.9,4.5-3.4,7.1-4.6l0.1-0.1c1.3-0.6,2.7-1.1,4.1-1.6l1.6,0.8c2.9,1.4,4.6,4.3,4.6,7.5v13.1
			l-0.4,0.2l-0.1,0.1c-0.1,0-0.2,0.1-0.3,0.1l-8.3-8.3c-0.6-0.6-1.3-1.1-1.9-1.6l-0.4-0.2c-0.6-0.5-1.4-0.8-2.1-1.1l-0.4-0.2
			c-0.7-0.3-1.6-0.6-2.3-0.7h-0.2c-0.8-0.2-1.6-0.2-2.4-0.2c-0.1,0-0.1,0-0.2,0h-0.2c-0.4,0-0.7,0-1.1,0.1c-0.2,0-0.4,0-0.6,0
			L618.9,730.8L618.9,730.8z M612.1,752.8c-0.2,0.2-0.4,0.4-0.5,0.6c-0.1-0.9-0.1-1.8-0.1-2.6c0-1.1,0.1-2.2,0.2-3.3
			c0-0.3,0.1-0.6,0.1-0.8c0.1-0.8,0.3-1.7,0.5-2.5c0.1-0.4,0.2-0.6,0.3-1c0.2-0.7,0.4-1.5,0.6-2.1c0.1-0.4,0.3-0.7,0.4-1.1
			c0.3-0.6,0.6-1.3,0.8-1.9c0.1-0.2,0.2-0.5,0.4-0.7l4.6-0.6c2.6-0.4,5.2,0.5,7.1,2.3l8.2,8.2c0,0.1-0.1,0.2-0.1,0.3l-0.1,0.2
			c-0.1,0.1-0.1,0.3-0.2,0.4h-11.6c-0.6,0-1.1,0-1.6,0.1c-0.2,0-0.4,0.1-0.6,0.1c-0.4,0.1-0.7,0.1-1,0.2c-0.2,0.1-0.4,0.1-0.6,0.2
			c-0.2,0.1-0.6,0.2-0.9,0.3c-0.2,0.1-0.5,0.2-0.6,0.3c-0.3,0.1-0.6,0.2-0.8,0.4c-0.3,0.1-0.4,0.3-0.6,0.4c-0.2,0.1-0.6,0.3-0.7,0.5
			c-0.2,0.1-0.4,0.3-0.6,0.5c-0.2,0.2-0.5,0.3-0.7,0.6c-0.2,0.2-0.4,0.4-0.6,0.5c-0.2,0.2-0.5,0.4-0.6,0.6
			C612.3,752.4,612.2,752.6,612.1,752.8L612.1,752.8z M625.3,763.7c-0.1,0.1-0.2,0.3-0.3,0.4c-0.2,0.3-0.5,0.6-0.6,0.9
			c-0.1,0.2-0.2,0.4-0.3,0.6c-0.2,0.3-0.4,0.6-0.5,0.9c-0.1,0.2-0.2,0.4-0.3,0.6c-0.1,0.2-0.3,0.6-0.4,0.9c-0.1,0.3-0.1,0.5-0.2,0.6
			c-0.1,0.2-0.2,0.6-0.3,0.9s-0.1,0.5-0.1,0.7c0,0.3-0.1,0.6-0.1,0.9c0,0.4,0,0.5,0,0.7c0,0.2,0,0.6,0,0.9c0,0.3,0,0.5,0.1,0.7
			c0,0.2,0,0.5,0.1,0.7l-0.2-0.2c-0.9-0.7-1.8-1.6-2.5-2.4c-0.2-0.2-0.3-0.4-0.5-0.5c-1.8-1.9-3.2-4.1-4.4-6.5
			c-0.1-0.1-0.1-0.3-0.2-0.4c-0.6-1.1-1-2.2-1.4-3.4l-0.1-0.2l2.8-3.7c1.6-2.1,4.1-3.3,6.7-3.3h11.6c0,0.1,0.1,0.3,0.2,0.4l0.1,0.2
			c0,0.1,0.1,0.2,0.1,0.3l-8.4,8.3C626,762.9,625.6,763.2,625.3,763.7L625.3,763.7L625.3,763.7z M644.2,781.2c-1,0.1-2,0.1-3.1,0.1
			c-0.4,0-0.7,0-1.2-0.1c-1-0.1-1.9-0.2-3-0.4c-0.3,0-0.5-0.1-0.7-0.1c-1.2-0.3-2.4-0.6-3.6-0.9c-0.3-0.1-0.5-0.2-0.7-0.3
			c-0.9-0.4-1.9-0.7-2.8-1.1c-0.2-0.1-0.4-0.2-0.6-0.3l-0.6-4.6c-0.4-2.6,0.6-5.2,2.3-7.1l8.3-8.3c0.1,0.1,0.2,0.1,0.3,0.1l0.1,0.1
			l0.4,0.2v11.6c0,0.6,0,1.1,0.1,1.6c0,0.2,0.1,0.4,0.1,0.6c0.1,0.4,0.1,0.7,0.2,1c0.1,0.2,0.1,0.5,0.2,0.6c0.1,0.2,0.2,0.6,0.3,0.9
			c0.1,0.3,0.2,0.5,0.3,0.6c0.1,0.2,0.2,0.6,0.4,0.8c0.1,0.3,0.3,0.4,0.4,0.6c0.1,0.2,0.3,0.6,0.5,0.7c0.1,0.2,0.3,0.4,0.5,0.6
			c0.2,0.2,0.3,0.5,0.5,0.7c0.2,0.3,0.4,0.4,0.5,0.6c0.2,0.2,0.4,0.5,0.6,0.6c0.2,0.2,0.4,0.4,0.6,0.5c0.2,0.2,0.4,0.4,0.6,0.5
			C644.5,781.2,644.4,781.2,644.2,781.2L644.2,781.2z M665.3,770.7c-0.7,0.8-1.6,1.7-2.4,2.5c-0.2,0.2-0.4,0.3-0.6,0.5
			c-1.9,1.8-4.1,3.2-6.4,4.4l-0.4,0.2c-1.1,0.6-2.2,1-3.3,1.4l-0.2,0.1l-3.7-2.8c-2.1-1.6-3.3-4.1-3.3-6.7v-11.6
			c0.1-0.1,0.3-0.1,0.4-0.2l0.1-0.1c0.1,0,0.2-0.1,0.3-0.1l8.3,8.3c0.6,0.6,1.3,1.1,1.9,1.6l0.3,0.2c0.6,0.5,1.4,0.8,2.1,1.1
			l0.4,0.2c0.7,0.3,1.5,0.6,2.3,0.7h0.3c0.8,0.2,1.7,0.3,2.4,0.3h0.2c0.6,0,1.1,0,1.7-0.1C665.4,770.5,665.4,770.6,665.3,770.7
			L665.3,770.7z M672.1,748.7c0.2-0.2,0.4-0.4,0.5-0.6c0.1,0.8,0.1,1.8,0.1,2.6c0,1.1-0.1,2.2-0.2,3.3c0,0.3-0.1,0.6-0.1,0.8
			c-0.1,0.8-0.3,1.7-0.5,2.5c-0.1,0.4-0.2,0.7-0.3,1c-0.2,0.7-0.4,1.5-0.6,2.1c-0.1,0.4-0.3,0.7-0.4,1.1c-0.3,0.6-0.5,1.3-0.8,1.9
			c-0.1,0.3-0.2,0.5-0.4,0.7l-4.6,0.6c-2.6,0.4-5.2-0.5-7.1-2.3l-8.3-8.3l0.1-0.3l0.1-0.1c0.1-0.1,0.1-0.3,0.2-0.4h11.6
			c0.6,0,1.1,0,1.6-0.1c0.2,0,0.4-0.1,0.6-0.1c0.4-0.1,0.7-0.1,1-0.2c0.2-0.1,0.5-0.1,0.6-0.2c0.3-0.1,0.6-0.2,0.9-0.3
			c0.2-0.1,0.5-0.2,0.6-0.3c0.2-0.1,0.6-0.2,0.8-0.4c0.3-0.1,0.4-0.2,0.6-0.4c0.2-0.1,0.6-0.3,0.7-0.5c0.2-0.1,0.4-0.3,0.6-0.5
			c0.2-0.2,0.5-0.3,0.7-0.5s0.4-0.4,0.6-0.5c0.2-0.2,0.5-0.4,0.6-0.6C671.9,749.1,672,748.9,672.1,748.7L672.1,748.7z M671.1,740.9
			l-2.8,3.7c-1.6,2.1-4.1,3.3-6.7,3.3H650c-0.1-0.1-0.1-0.3-0.2-0.4l-0.1-0.1c0-0.1-0.1-0.2-0.1-0.3l8.3-8.3
			c0.4-0.4,0.7-0.7,1.1-1.2c0.1-0.2,0.2-0.4,0.4-0.5c0.2-0.3,0.4-0.6,0.6-0.8c0.1-0.2,0.2-0.4,0.4-0.6c0.2-0.2,0.3-0.6,0.5-0.8
			c0.1-0.3,0.2-0.5,0.3-0.6c0.1-0.3,0.3-0.6,0.4-0.8c0.1-0.2,0.1-0.5,0.2-0.7c0.1-0.3,0.2-0.6,0.3-0.8c0.1-0.3,0.1-0.5,0.1-0.7
			c0-0.3,0.1-0.6,0.2-0.8c0-0.3,0-0.5,0-0.7s0-0.6,0-0.9s0-0.5-0.1-0.7c0-0.2,0-0.6-0.1-0.7c0.1,0.1,0.2,0.2,0.3,0.2
			c0.8,0.7,1.7,1.6,2.5,2.4l0.5,0.6c1.8,1.9,3.2,4.1,4.5,6.5c0.1,0.1,0.1,0.3,0.2,0.4c0.6,1.1,1,2.2,1.4,3.3
			C671,740.7,671,740.8,671.1,740.9L671.1,740.9z"/>
		<path class="st9" d="M580.8,689.4h5.6v5.6h-5.6V689.4z"/>
		<path class="st9" d="M697.8,806.4h5.6v5.6h-5.6V806.4z"/>
		<path class="st9" d="M642.1,692.2v-5.6c-35.4,0-64,28.7-64.1,64.1h5.6C583.7,718.4,609.8,692.3,642.1,692.2z"/>
		<path class="st9" d="M647.6,686.6h5.6v5.6h-5.6V686.6z"/>
	</g>
</g>
<g id="Layer_1_2_">
	<title>13</title>
	<g id="Layer_2_2_">
		<rect x="283.1" y="925.9" class="st10" width="18.6" height="68.2"/>
		<path class="st11" d="M551.6,935.8H507v49.6h60.5c20.2,0,36.6-18.8,36.6-42v-78.9h-43.1v60.5C560.9,931,556.8,935.8,551.6,935.8z"
			/>
		<rect x="273.8" y="933" class="st11" width="9.3" height="49.6"/>
		<rect x="301.7" y="935.2" class="st10" width="21.3" height="51.1"/>
		<rect x="323" y="939.3" class="st11" width="174.7" height="43.1"/>
	</g>
	<g id="Layer_1_1_">
		<path class="st11" d="M1115,161.2h51.2v-49.6h-69.6c-23.2,0-42,18.8-42,42l0,0v78.9h49.6v-60.5
			C1104.1,166,1108.9,161.2,1115,161.2C1114.9,161.2,1114.9,161.2,1115,161.2z"/>
		<rect x="1165.2" y="111.5" class="st11" width="13.8" height="49.6"/>
		<rect x="1054.6" y="441.6" class="st11" width="49.6" height="9.3"/>
		<rect x="1054.5" y="232.5" class="st11" width="49.6" height="448.2"/>
		<rect x="974.8" y="665.1" class="st10" width="18.6" height="68.2"/>
		<rect x="1045.1" y="584.5" class="st10" width="68.2" height="18.6"/>
		<path class="st11" d="M1044.6,674.4h-51.3V724h69.6c23.2,0,42-18.8,42-42v-78.9h-49.6v60.5
			C1055.3,669.5,1050.6,674.4,1044.6,674.4z"/>
		<rect x="1046.9" y="182.3" class="st10" width="68.2" height="18.6"/>
	</g>
	<rect x="548.5" y="834.3" class="st10" width="68.2" height="18.6"/>
	<rect x="497.7" y="926.6" class="st10" width="18.6" height="68.2"/>
	<rect x="725.7" y="677.5" class="st11" width="249" height="43.1"/>
	<rect x="725.7" y="665" class="st10" width="18.6" height="68.2"/>
	<rect x="1176.7" y="102.2" class="st10" width="18.6" height="68.2"/>
	<rect x="561.1" y="852.9" class="st11" width="43.1" height="68.3"/>
	
		<rect x="841.3" y="694" transform="matrix(0.4152 -0.9097 0.9097 0.4152 -121.8019 1207.5953)" class="st12" width="74.1" height="9.1"/>
	<polygon class="st12" points="850.8,746.5 885.8,654 898.4,657.6 863.4,750 	"/>
	<polygon class="st13" points="850.2,738.3 881,656.5 883.6,657.8 852.7,739.7 	"/>
	<polygon class="st13" points="867.7,739.2 898.5,656.5 901,657.8 870.2,740.6 	"/>
</g>
<g>
	<g>
		<path class="st14" d="M1206.1,397.1h234.7c6.3,0,11.5-0.4,11.5-1v-23c0-0.5-5.1-1-11.5-1h-234.7c-6.3,0-11.5,0.4-11.5,1v23
			C1194.6,396.7,1199.7,397.1,1206.1,397.1z"/>
		<path class="st15" d="M1191.6,111.4h263.6c2.4,0,4.3-1.9,4.3-4.3v-5.7c0-2.4-1.9-4.3-4.3-4.3h-263.6c-2.4,0-4.3,1.9-4.3,4.3v5.7
			C1187.3,109.6,1189.2,111.4,1191.6,111.4z"/>
		<path class="st14" d="M1187.3,87.7h272.1v-3.1c0,2.6-102.7-63.8-129.7-81.4c-3.9-2.5-8.9-2.6-12.9-0.1l-129.6,81.5L1187.3,87.7
			L1187.3,87.7z"/>
		<path class="st15" d="M1191.9,376.7h263c2.5,0,4.5,2,4.5,4.5v21c0,2.5-2,4.5-4.5,4.5h-263c-2.5,0-4.5-2-4.5-4.5v-21
			C1187.3,378.7,1189.4,376.7,1191.9,376.7z"/>
		<path class="st16" d="M1176.8,911.4h293.3l5.4,39.7h14.1l-6.8-49.1l0.1-0.8l-0.2-0.3l-24.5-174.3l1.2-1.4l-1.5-1.1L1417.1,433
			H1403l0.3,1.9l-4.7-4.3l-75.1,55l-75.1-55.4l-5,5l0.3-2.3h-14.1l-65.3,465.5l-3.3,2.8l2.7,3.1l-6.4,46.8h14.1L1176.8,911.4z
			 M1179.7,888.9l21.9-155.9l0,0v3.2h0.8l-0.6,0.6l107.2,69.2L1179.7,888.9z M1322,815.4l133.1,85.6h-266.2L1322,815.4z M1414,566.1
			h-178.1l-2.1-1.5l89.8-65.8l91.1,67L1414,566.1z M1231.7,566.4l1.5-1.1l-1.1,1.1H1231.7z M1400.3,578.1l-75.3,53.7l-75.3-53.7
			H1400.3z M1314.6,638.5l-109.6,77.7l20.8-141v3h2.1L1314.6,638.5z M1324.9,648.4l111.2,79.1h-222.2L1324.9,648.4z M1417,736.2
			l-95,61.1l-95-61.1H1417z M1314.6,492.4l-88.2,64.9l16.5-117.7L1314.6,492.4z M1420.4,557l-88-64.7l71.5-52.5L1420.4,557z
			 M1442.3,714.6l-106.6-75.8l86.2-60.7h1.2L1442.3,714.6z M1467.2,890.8L1335,805.6l107.1-68.8l-0.6-0.6h3.7V735L1467.2,890.8z"/>
		<polygon class="st17" points="1413.6,509 1403.9,439.8 1332.4,492.4 1355.1,509 1337.4,509 1323.5,498.9 1309.7,509 1291.9,509 
			1314.6,492.4 1242.9,439.6 1233.1,509 1219.1,509 1229.6,433.8 1243.7,433.8 1243.4,435.7 1248.5,430.7 1323.5,485.8 
			1398.6,430.7 1403.2,435.4 1403.1,433.8 1417.1,433.8 1427.6,509 		"/>
	</g>
	<path class="st18" d="M1187.3,412.7h272.1v4.1c0-4.1-61,44.3-136.1,44.3l0,0c-75.2,0-136.1-44.3-136.1-44.3L1187.3,412.7
		L1187.3,412.7z"/>
	<path class="st17" d="M1364.2,438.2c8.8-7.9,18.2-16.2,25.7-25.5h69.6v4.1c0-3.8-54.1,38.9-123.3,43.8
		C1346,453.7,1355.4,446.2,1364.2,438.2z"/>
	<path class="st19" d="M1240.2,412.7c8.4,14.5,17.9,30.7,31,41.7c-49.3-12.4-83.9-37.6-83.9-37.6v-4.1H1240.2L1240.2,412.7z"/>
	<path class="st17" d="M1389,384.8c0-4.2,0.6-8.5-1-12.7h46.4c9.8,0,17.8,0.7,17.8,1.5v22c0,0.8-8,1.5-17.8,1.5h-45.3
		C1389.1,393.1,1389,389,1389,384.8z"/>
	<path class="st19" d="M1212.4,103.2h32.1c-0.5,28.6-0.5,57.2-0.6,85.7c-0.4,69.4-0.7,138.8-0.6,208.2h-30.8
		c-9.8,0-17.8-8-17.8-17.8V121C1194.6,111.2,1202.5,103.2,1212.4,103.2z"/>
	<path class="st20" d="M1191.6,111.4h263.6c2.4,0,4.3-1.9,4.3-4.3v-5.7c0-2.4-1.9-4.3-4.3-4.3h-263.6c-2.4,0-4.3,1.9-4.3,4.3v5.7
		C1187.3,109.6,1189.2,111.4,1191.6,111.4z"/>
	<path class="st19" d="M1312.9,5.7c-13.3,17.1-27.3,33.7-41.3,50.1c-7.9,9.3-15.8,18.6-23.4,28c-1,1.2-2,2.5-3.2,3.8h-57.8v-3.1
		L1312.9,5.7z"/>
	<path class="st17" d="M1389.2,87.2c-12.5-22-29.7-41.8-45.2-61.8c-6.2-7.9-12.3-15.9-18.5-23.8c1.5,0.3,2.9,0.8,4.3,1.7
		c27,17.5,129.7,84,129.7,81.4v3.1h-70.1C1389.3,87.5,1389.3,87.3,1389.2,87.2z"/>
	<path class="st20" d="M1191.9,376.7h263c2.5,0,4.5,2,4.5,4.5v21c0,2.5-2,4.5-4.5,4.5h-263c-2.5,0-4.5-2-4.5-4.5v-21
		C1187.3,378.7,1189.4,376.7,1191.9,376.7z"/>
	<path class="st19" d="M1194.4,97.2h50.8c-0.1,4.7-0.2,9.5-0.3,14.3h-50.6c-3.9,0-7.1-3.2-7.1-7.1
		C1187.3,100.4,1190.5,97.2,1194.4,97.2z"/>
	<path class="st17" d="M1389,97.2h63.4c3.9,0,7.1,3.2,7.1,7.1c0,3.9-3.2,7.1-7.1,7.1h-63.1C1389.1,106.7,1389,102,1389,97.2z"/>
	<path class="st17" d="M1390.1,386.4c0-3.2,0-6.5,0-9.7h62.3c3.9,0,7.1,3.2,7.1,7.1v15.9c0,3.9-3.2,7.1-7.1,7.1h-62.3
		C1390.1,400,1390.1,393.2,1390.1,386.4z"/>
	<path class="st19" d="M1194.4,376.7h49.8c-0.1,10-0.1,20-0.1,30.2h-49.7c-3.9,0-7.1-3.2-7.1-7.1v-16
		C1187.3,379.9,1190.5,376.7,1194.4,376.7z"/>
</g>
<text transform="matrix(1 0 0 1 1465.5999 391.7321)" class="st21 st22">0 %</text>
<text transform="matrix(1 0 0 1 1465.6018 325.6809)" class="st23 st21 st22">25%</text>
<text transform="matrix(1 0 0 1 1465.5999 261.823)" class="st23 st21 st22">50%</text>
<text transform="matrix(1 0 0 1 1465.6018 198.1101)" class="st23 st21 st22">75%</text>
<text transform="matrix(1 0 0 1 1465.5999 130.8112)" class="st23 st21 st22">100%</text>
<rect x="1194.8" y="110.1" class="st14" width="1" height="266.6"/>
<rect x="1451.8" y="110.1" class="st14" width="1" height="266.6"/>
</svg>
