<?xml version="1.0" encoding="UTF-8" standalone="no"?>
<!-- Generator: Adobe Illustrator 22.0.0, SVG Export Plug-In . SVG Version: 6.00 Build 0)  -->

<svg
   xmlns:dc="http://purl.org/dc/elements/1.1/"
   xmlns:cc="http://creativecommons.org/ns#"
   xmlns:rdf="http://www.w3.org/1999/02/22-rdf-syntax-ns#"
   xmlns:svg="http://www.w3.org/2000/svg"
   xmlns="http://www.w3.org/2000/svg"
   xmlns:sodipodi="http://sodipodi.sourceforge.net/DTD/sodipodi-0.dtd"
   xmlns:inkscape="http://www.inkscape.org/namespaces/inkscape"
   version="1.1"
   id="Layer_1"
   x="0px"
   y="0px"
   viewBox="0 0 2189 1204.9691"
   xml:space="preserve"
   sodipodi:docname="hot.svg"
   width="2189"
   height="1204.9691"
   inkscape:version="0.92.3 (unknown)"><metadata
   id="metadata238"><rdf:RDF><cc:Work
       rdf:about=""><dc:format>image/svg+xml</dc:format><dc:type
         rdf:resource="http://purl.org/dc/dcmitype/StillImage" /><dc:title></dc:title></cc:Work></rdf:RDF></metadata><defs
   id="defs236" /><sodipodi:namedview
   pagecolor="#ffffff"
   bordercolor="#666666"
   borderopacity="1"
   objecttolerance="10"
   gridtolerance="10"
   guidetolerance="10"
   inkscape:pageopacity="0"
   inkscape:pageshadow="2"
   inkscape:window-width="1839"
   inkscape:window-height="1050"
   id="namedview234"
   showgrid="false"
   fit-margin-bottom="0"
   fit-margin-top="0"
   fit-margin-left="0"
   fit-margin-right="0"
   inkscape:zoom="0.28742807"
   inkscape:cx="1492.325"
   inkscape:cy="489.65593"
   inkscape:window-x="81"
   inkscape:window-y="30"
   inkscape:window-maximized="1"
   inkscape:current-layer="Layer_1" />
<style
   type="text/css"
   id="style2">
	.st0{fill:#C7C9C7;}
	.st1{fill:#4499D4;}
	.st2{fill:#64A9D9;}
	.st3{fill:#3F8EC9;}
	.st4{fill:#2C7FBA;}
	.st5{fill:#FDB62D;}
	.st6{fill:#020202;}
	.st7{fill:#EDE9E8;}
	.st8{fill:#DFD7D5;}
	.st9{fill:#8FE1FF;}
	.st10{fill:#73BCFF;}
	.st11{fill:#3A96FF;}
	.st12{fill:#4E99CF;}
	.st13{fill:#AFB7BC;}
	.st14{fill:#9B9B9B;}
	.st15{fill:#C7CBC7;}
	.st16{fill:none;}
</style>
<g
   id="Layer_4"
   transform="translate(-416.1,-169.5)">
	<g
   id="Layer_2_1_">
		<path
   class="st0"
   d="m 1205.6,581 h 60.9 v -65.8 h -82.7 c -27.6,0 -50,25 -50,55.7 v 104.5 h 59 v -80.2 c 0,-7.8 5.7,-14.2 12.8,-14.2 z"
   id="path4"
   inkscape:connector-curvature="0"
   style="fill:#c7c9c7" />
	</g>
</g>
<g
   id="Layer_1_1_"
   transform="translate(-416.1,-169.5)">
	<g
   id="Layer_2_2_">
		<g
   id="Layer_3_2_">
		</g>
	</g>
	<g
   id="Layer_3">
		<path
   class="st1"
   d="m 976.2,975 112,-0.8 c 55.5,-0.4 100.1,-44.3 99.7,-98.1 -0.4,-53.8 -45.7,-97.1 -101.2,-96.7 -55.5,0.4 -100.1,44.3 -99.7,98.1 0.1,15.6 4.1,31.1 11.7,45 l -22.9,0.2 z"
   id="path10"
   inkscape:connector-curvature="0"
   style="fill:#4499d4" />
		<ellipse
   class="st2"
   cx="1087.5"
   cy="876.79999"
   rx="61.799999"
   ry="59.900002"
   id="ellipse12"
   style="fill:#64a9d9" />
		<path
   class="st3"
   d="m 1134.7,962.8 27.9,7.9 c 9.7,2.8 19.9,-2.7 22.7,-12 1,-3.3 1,-6.9 -0.1,-10.3 l -8.6,-27 c -9.2,17.6 -23.9,32 -41.9,41.4 z"
   id="path14"
   inkscape:connector-curvature="0"
   style="fill:#3f8ec9" />
		<path
   class="st3"
   d="m 1040.2,790.9 -27.9,-7.9 c -9.7,-2.8 -19.9,2.7 -22.6,12 -1,3.3 -1,6.9 0.1,10.2 l 8.6,27 c 9.1,-17.6 23.8,-31.9 41.8,-41.3 z"
   id="path16"
   inkscape:connector-curvature="0"
   style="fill:#3f8ec9" />
		<ellipse
   class="st4"
   cx="1087.5"
   cy="876.79999"
   rx="46.299999"
   ry="44.900002"
   id="ellipse18"
   style="fill:#2c7fba" />
		<path
   class="st1"
   d="m 1140.7,771.6 0.2,22.9 c 27.8,17 45.3,46.1 46.8,78 h 0.1 l -0.7,-101.2 15.4,-0.1 -0.1,-7.4 -77.2,0.5 0.1,7.4 z"
   id="path20"
   inkscape:connector-curvature="0"
   style="fill:#4499d4" />
		<path
   class="st3"
   d="m 1140.8,784.6 0.1,9.8 c 27.8,17 45.3,46.1 46.8,78 h 0.1 l -0.3,-45.1 c -8,-15.5 -22.7,-35.7 -46.7,-42.7 z"
   id="path22"
   inkscape:connector-curvature="0"
   style="fill:#3f8ec9" />
		<path
   class="st4"
   d="m 1010.9,974.8 -7.8,0.1 -0.4,-52.5 7.8,-0.1 z"
   id="path24"
   inkscape:connector-curvature="0"
   style="fill:#2c7fba" />
		<path
   class="st4"
   d="m 1187.2,786.2 -46.3,0.3 -0.1,-7.5 46.3,-0.3 z"
   id="path26"
   inkscape:connector-curvature="0"
   style="fill:#2c7fba" />
		<path
   class="st4"
   d="m 1173,958.7 -7.7,0.1 -0.1,-7.5 7.7,-0.1 z"
   id="path28"
   inkscape:connector-curvature="0"
   style="fill:#2c7fba" />
		<path
   class="st4"
   d="m 1009.7,802.4 -7.8,0.1 -0.1,-7.5 7.8,-0.1 z"
   id="path30"
   inkscape:connector-curvature="0"
   style="fill:#2c7fba" />
		<path
   class="st2"
   d="m 1168.6,876.2 7.8,-0.1 c 0.3,47.6 -39.2,86.4 -88.2,86.7 l -0.1,-7.5 c 44.7,-0.2 80.7,-35.6 80.5,-79.1 z"
   id="path32"
   inkscape:connector-curvature="0"
   style="fill:#64a9d9" />
		<path
   class="st2"
   d="m 1080.3,963.1 -7.8,0.1 -0.1,-7.5 7.8,-0.1 z"
   id="path34"
   inkscape:connector-curvature="0"
   style="fill:#64a9d9" />
		<path
   class="st4"
   d="m 1114.5,876.6 -19.3,0.1 c 0,2 -0.7,3.9 -2.2,5.3 l 13.8,13.1 c 3.4,3.3 8.3,4.8 13.1,4.2 l 8.4,-1.2 c 5.8,-10.5 7.2,-22.8 3.6,-34.2 l -5,6.6 c -2.9,3.9 -7.5,6.1 -12.4,6.1 z"
   id="path36"
   inkscape:connector-curvature="0"
   style="fill:#2c7fba" />
		<path
   class="st4"
   d="m 1087.7,905.1 -0.2,-20.7 c -2,0 -4,-0.7 -5.5,-2.1 l -13.6,13.3 c -3.4,3.3 -5,8 -4.3,12.8 l 1.2,8.2 c 10.5,5.6 22.9,6.9 34.4,3.7 l -3.6,-1.7 c -5,-2.8 -8.4,-8 -8.4,-13.5 z"
   id="path38"
   inkscape:connector-curvature="0"
   style="fill:#2c7fba" />
		<path
   class="st4"
   d="m 1087.3,850.6 0.1,18.8 c 2,0 4,0.7 5.5,2.1 l 13.6,-13.4 c 3.4,-3.3 5,-8 4.3,-12.8 l -1.2,-8.2 c -10.8,-5.7 -23.5,-6.9 -35.3,-3.4 l 6.8,4.9 c 3.8,2.9 6.1,7.3 6.2,12 z"
   id="path40"
   inkscape:connector-curvature="0"
   style="fill:#2c7fba" />
		<path
   class="st4"
   d="m 1043.1,889.7 5,-6.6 c 2.9,-3.8 7.4,-6.1 12.3,-6.1 l 19.3,-0.1 c 0,-2 0.7,-3.9 2.2,-5.3 l -13.8,-13.1 c -3.4,-3.3 -8.3,-4.8 -13.1,-4.2 l -8.4,1.2 c -5.9,10.5 -7.1,22.8 -3.5,34.2 z"
   id="path42"
   inkscape:connector-curvature="0"
   style="fill:#2c7fba" />
		<path
   class="st5"
   d="m 1106.7,895.2 -13.8,-13.1 c -1.4,1.4 -3.4,2.2 -5.4,2.2 l 0.2,20.7 c 0,5.7 3.4,10.8 8.6,13.3 l 3.6,1.7 c 12.1,-3.3 22.4,-11.2 28.3,-22 l -8.4,1.2 c -4.8,0.9 -9.6,-0.7 -13.1,-4 z"
   id="path44"
   inkscape:connector-curvature="0"
   style="fill:#fdb62d" />
		<path
   class="st5"
   d="m 1068.5,895.5 13.6,-13.3 c -1.5,-1.4 -2.3,-3.3 -2.3,-5.3 l -19.3,0.1 c -4.9,0 -9.4,2.3 -12.3,6.1 l -5,6.6 c 3.5,11.4 11.6,21 22.3,26.7 l -1.2,-8.2 c -0.8,-4.6 0.7,-9.4 4.2,-12.7 z"
   id="path46"
   inkscape:connector-curvature="0"
   style="fill:#fdb62d" />
		<path
   class="st5"
   d="m 1106.5,858.1 -13.6,13.4 c 1.5,1.4 2.3,3.3 2.3,5.3 l 19.3,-0.1 c 4.9,0 9.4,-2.3 12.3,-6.1 l 5,-6.6 c -3.5,-11.4 -11.6,-21 -22.3,-26.7 l 1.2,8.2 c 0.8,4.6 -0.9,9.3 -4.2,12.6 z"
   id="path48"
   inkscape:connector-curvature="0"
   style="fill:#fdb62d" />
		<path
   class="st5"
   d="m 1068.2,858.4 13.8,13.2 c 1.4,-1.4 3.4,-2.2 5.4,-2.2 l -0.1,-18.8 c 0,-4.7 -2.4,-9.1 -6.3,-11.9 l -6.8,-4.9 c -11.7,3.4 -21.7,11.3 -27.5,21.7 l 8.4,-1.2 c 4.7,-0.8 9.6,0.8 13.1,4.1 z"
   id="path50"
   inkscape:connector-curvature="0"
   style="fill:#fdb62d" />
		<ellipse
   class="st5"
   cx="1087.5"
   cy="876.79999"
   rx="7.8000002"
   ry="7.5"
   id="ellipse52"
   style="fill:#fdb62d" />
		<path
   class="st3"
   d="m 1047,922 c -5.1,-4.3 -9.4,-9.3 -12.8,-14.9 l -42.1,0.3 c 1.8,5.2 4,10.2 6.5,14.9 z"
   id="path54"
   inkscape:connector-curvature="0"
   style="fill:#3f8ec9" />
		<path
   class="st6"
   d="m 980.1,978.8 108.1,-0.7 c 16.3,-0.1 32.3,-4 46.8,-11.3 l 26.5,7.5 c 11.8,3.3 24.1,-3.2 27.5,-14.6 1.2,-4.1 1.2,-8.3 -0.1,-12.3 l -8.2,-25.6 c 7.3,-14.2 11.1,-29.8 10.9,-45.6 0,-1.1 0,-2.3 -0.1,-3.3 0,-0.1 0.1,-0.3 0.1,-0.4 l -0.7,-101.2 11.7,-0.1 -0.1,-7.4 -77.2,0.5 0.1,7.4 11.6,-0.1 0.1,16.3 c -30.2,-15.9 -66.6,-16.2 -97.2,-1 l -26.5,-7.5 c -11.8,-3.3 -24.1,3.2 -27.5,14.6 -1.2,4.1 -1.2,8.3 0.1,12.3 l 8.1,25.6 c -14,27.2 -14.5,59.1 -1.5,86.8 l -12.9,0.1 -0.1,-11.2 -7.8,0.1 0.6,82.5 7.8,-0.1 z m 201.5,-29.2 c 2.4,7.3 -1.9,15.2 -9.5,17.5 -2.7,0.8 -5.6,0.8 -8.4,0.1 l -19.4,-5.5 1.7,-1.1 0.6,-0.4 c 10.8,-7.2 20.2,-16.4 27.5,-27 l 0.4,-0.6 c 0.4,-0.6 0.8,-1.1 1.2,-1.7 z m -37,-178.1 38.7,-0.3 0.1,7.5 -38.7,0.3 z m 0.1,15 38.7,-0.3 0.4,51.8 c -1,-2.3 -2.1,-4.5 -3.2,-6.7 l -0.2,-0.3 c -1.1,-2 -2.2,-3.9 -3.3,-5.9 -0.1,-0.2 -0.3,-0.5 -0.4,-0.7 -1.2,-1.9 -2.5,-3.8 -3.7,-5.5 -0.3,-0.5 -0.7,-0.8 -1,-1.3 -1.1,-1.4 -2.2,-2.8 -3.2,-4.1 -0.4,-0.5 -0.8,-0.9 -1.1,-1.3 -1.3,-1.5 -2.6,-3 -4.1,-4.4 -0.6,-0.7 -1.2,-1.2 -1.8,-1.8 -1.1,-1 -2.2,-2.2 -3.3,-3.1 -0.7,-0.7 -1.5,-1.3 -2.2,-2 -1.3,-1.1 -2.6,-2.1 -4,-3.2 -0.7,-0.6 -1.4,-1 -2.1,-1.6 -1.7,-1.2 -3.3,-2.4 -5.1,-3.5 l -0.3,-0.2 z M 993.3,804 c -2.4,-7.4 1.9,-15.2 9.6,-17.5 2.7,-0.8 5.6,-0.8 8.4,-0.1 l 19.4,5.5 c -0.6,0.4 -1.2,0.8 -1.7,1.1 l -0.6,0.4 c -10.8,7.2 -20.2,16.4 -27.5,27 l -0.4,0.6 c -0.4,0.6 -0.8,1.1 -1.2,1.7 z m -2.4,73.5 c -0.1,-15.4 3.7,-30.6 11,-44.1 0.9,-1.7 1.8,-3.3 2.9,-4.9 0.5,-0.7 0.9,-1.3 1.3,-2.1 0.7,-0.9 1.3,-1.9 2,-2.8 1,-1.3 1.9,-2.7 3,-3.9 0.6,-0.7 1.1,-1.4 1.6,-2.1 0.8,-0.9 1.6,-1.9 2.5,-2.8 l 1.2,-1.2 c 1.5,-1.6 3.2,-3.2 4.8,-4.7 l 1.3,-1.1 c 1,-0.9 1.9,-1.6 2.9,-2.5 0.7,-0.6 1.4,-1.1 2.1,-1.6 1.3,-1 2.6,-2 4,-2.9 1,-0.7 1.9,-1.3 2.9,-2 0.7,-0.5 1.4,-0.9 2.1,-1.3 1.6,-1 3.3,-1.9 5,-2.9 31.1,-16.4 68.9,-15 98.4,3.8 0.8,0.6 1.7,1 2.4,1.6 0.8,0.6 1.4,0.9 2.1,1.4 0.7,0.5 1.6,1.1 2.3,1.8 1.2,0.9 2.3,1.9 3.5,2.8 0.6,0.6 1.3,1 1.9,1.6 0.6,0.6 1.4,1.3 2.1,1.9 0.7,0.6 1.2,1 1.7,1.6 0.6,0.6 1.3,1.3 2,2 0.7,0.7 1.2,1.2 1.8,1.9 0.6,0.7 1.1,1.2 1.7,1.9 1.1,1.2 2.2,2.5 3.1,3.7 0.2,0.3 0.4,0.6 0.7,0.8 0.9,1.1 1.7,2.3 2.6,3.5 0.3,0.4 0.5,0.8 0.8,1.1 0.8,1.1 1.5,2.3 2.3,3.5 l 0.6,0.9 c 0.8,1.4 1.7,2.8 2.4,4.3 l 0.1,0.2 c 6.1,11.8 9.6,24.7 10.2,38 0,1.2 0.1,2.4 0.1,3.6 0.1,15.4 -3.7,30.6 -11,44.2 -1,1.7 -1.8,3.3 -2.9,4.9 -0.4,0.7 -0.9,1.4 -1.3,2.1 -0.7,0.9 -1.3,1.9 -2,2.8 -1,1.3 -1.9,2.7 -3,3.9 -0.6,0.7 -1.1,1.3 -1.6,2.1 -0.8,0.9 -1.6,1.9 -2.5,2.8 l -1.2,1.2 c -1.5,1.6 -3.2,3.2 -4.8,4.7 l -1.3,1.1 c -1,0.9 -1.9,1.6 -2.9,2.5 -0.7,0.6 -1.4,1.1 -2.1,1.6 -1.3,1 -2.6,2 -4,2.9 -1,0.7 -1.9,1.3 -2.9,2 -0.7,0.5 -1.4,0.9 -2.1,1.3 -1.6,1 -3.3,1.9 -5,2.9 -13.9,7.4 -29.5,11.2 -45.4,11.3 l -77.2,0.5 -0.3,-45 34.9,-0.2 v -0.2 c 27.9,22.6 69.3,19 92.6,-8 23.3,-27 19.6,-67.2 -8.2,-89.8 -27.9,-22.6 -69.3,-19 -92.6,8 -20.7,24 -20.5,59 0.7,82.6 l -36.7,0.3 c -7,-13.2 -10.5,-27.2 -10.6,-41.5 z m 38.6,-0.3 c -0.2,-31 25.5,-56.3 57.6,-56.6 32,-0.2 58.1,24.8 58.3,55.9 0.2,31 -25.5,56.3 -57.5,56.6 -32.1,0.2 -58.2,-24.8 -58.4,-55.9 0,0.1 0,0 0,0 z m -49.8,49.1 23.1,-0.2 0.3,45 -23.1,0.2 z"
   id="path56"
   inkscape:connector-curvature="0"
   style="fill:#020202" />
		<path
   class="st6"
   d="m 1048.5,907.6 c 0.9,1 1.8,2.1 2.7,3 0.2,0.2 0.4,0.4 0.6,0.6 0.8,0.7 1.7,1.5 2.5,2.2 0.4,0.3 0.8,0.7 1.2,1 0.7,0.6 1.4,1 2.1,1.6 0.7,0.6 1.2,0.9 1.9,1.3 0.7,0.4 1.2,0.7 1.8,1 0.8,0.5 1.5,0.9 2.2,1.3 0.1,0 0.1,0.1 0.2,0.1 0.3,0.2 0.7,0.3 1,0.5 1.1,0.6 2.2,1.1 3.4,1.6 0.5,0.2 1,0.4 1.5,0.6 1,0.4 2,0.7 3,1 0.6,0.2 1.2,0.3 1.8,0.5 1,0.3 1.9,0.6 2.9,0.7 0.7,0.2 1.4,0.2 2,0.4 1,0.2 1.8,0.3 2.8,0.4 0.8,0.1 1.6,0.1 2.3,0.2 0.7,0.1 1.7,0.1 2.5,0.1 0.3,0 0.5,0 0.8,0 0.8,0 1.5,-0.1 2.1,-0.1 0.6,0 1.2,0 1.7,-0.1 1.3,-0.1 2.5,-0.3 3.8,-0.5 l 0.9,-0.1 c 1.5,-0.3 2.9,-0.6 4.3,-1 0.1,0 0.2,0 0.3,-0.1 h 0.1 c 1.5,-0.4 3,-0.9 4.5,-1.4 l 0.4,-0.1 c 1.5,-0.6 2.8,-1.2 4.3,-1.8 0.1,-0.1 0.2,-0.1 0.4,-0.2 1.4,-0.7 2.6,-1.4 4,-2.2 l 0.5,-0.3 c 1.2,-0.8 2.3,-1.6 3.5,-2.4 0.2,-0.2 0.4,-0.3 0.7,-0.5 1,-0.8 1.9,-1.6 2.9,-2.5 0.3,-0.3 0.6,-0.6 0.9,-0.8 0.8,-0.8 1.5,-1.5 2.2,-2.4 l 1.2,-1.2 c 0.6,-0.7 1.2,-1.4 1.6,-2.2 0.5,-0.8 1,-1.1 1.3,-1.7 0.4,-0.6 0.9,-1.3 1.2,-2.1 0.4,-0.7 0.9,-1.2 1.2,-1.9 l 0.1,-0.2 c 0.9,-1.6 1.6,-3.3 2.4,-5 0.2,-0.5 0.4,-0.9 0.5,-1.4 0.5,-1.3 1,-2.6 1.3,-4 0.2,-0.6 0.3,-1 0.4,-1.6 0.3,-1.3 0.6,-2.7 0.7,-4.2 0.1,-0.5 0.2,-0.9 0.2,-1.5 0.2,-1.9 0.4,-3.8 0.3,-5.7 0,-1.4 -0.1,-2.8 -0.2,-4.3 0,-0.6 -0.1,-1 -0.2,-1.6 -0.1,-0.8 -0.3,-1.7 -0.4,-2.5 -0.2,-1 -0.4,-2.1 -0.7,-3 -0.2,-0.8 -0.4,-1.4 -0.6,-2.2 v -0.1 c -0.4,-1.3 -0.9,-2.6 -1.5,-3.9 -0.1,-0.2 -0.1,-0.4 -0.2,-0.6 -0.6,-1.3 -1.2,-2.7 -2,-3.9 -0.1,-0.1 -0.1,-0.2 -0.2,-0.3 -0.8,-1.3 -1.6,-2.6 -2.5,-3.9 0,-0.1 -0.1,-0.1 -0.1,-0.2 -0.9,-1.2 -1.8,-2.4 -2.7,-3.6 l -0.2,-0.3 c -0.9,-1 -1.9,-2.1 -2.8,-3 -0.2,-0.2 -0.3,-0.4 -0.5,-0.6 -0.8,-0.8 -1.8,-1.6 -2.6,-2.3 -0.4,-0.3 -0.7,-0.7 -1.1,-0.9 -0.7,-0.6 -1.5,-1.1 -2.1,-1.6 -0.8,-0.6 -1.2,-0.8 -1.8,-1.3 -0.6,-0.4 -1.2,-0.7 -1.8,-1 -0.8,-0.5 -1.5,-0.9 -2.2,-1.3 L 1111,834 c -1.7,-0.8 -3.4,-1.6 -5.2,-2.3 -0.5,-0.2 -1,-0.4 -1.5,-0.5 -1.4,-0.5 -2.7,-0.9 -4.1,-1.3 -0.6,-0.2 -1.1,-0.3 -1.7,-0.4 -1.5,-0.3 -2.8,-0.5 -4.3,-0.7 -0.5,-0.1 -1,-0.2 -1.6,-0.2 -1.9,-0.2 -3.9,-0.4 -5.8,-0.3 -1.5,0 -2.9,0.1 -4.4,0.2 -0.6,0 -1.1,0.1 -1.7,0.2 -0.9,0.1 -1.7,0.3 -2.6,0.4 -1.1,0.2 -2.1,0.4 -3.1,0.7 -0.8,0.2 -1.5,0.4 -2.2,0.6 h -0.1 c -1.4,0.4 -2.7,0.9 -4.1,1.4 -0.2,0.1 -0.4,0.1 -0.6,0.2 -1.4,0.6 -2.7,1.1 -4.1,1.8 l -0.3,0.2 c -1.4,0.7 -2.7,1.4 -4,2.3 -0.1,0 -0.2,0.1 -0.2,0.1 -1.3,0.8 -2.4,1.7 -3.7,2.6 l -0.3,0.3 c -1.1,0.9 -2,1.7 -3,2.7 -0.2,0.2 -0.5,0.4 -0.7,0.6 -0.8,0.8 -1.5,1.6 -2.3,2.4 -0.4,0.4 -0.8,0.8 -1.1,1.1 -0.5,0.7 -1,1.3 -1.5,2 -0.6,0.7 -1,1.2 -1.4,1.9 -0.3,0.5 -0.7,0.9 -1,1.5 -0.5,0.8 -1.1,1.6 -1.5,2.4 0,0.1 0,0.1 -0.1,0.2 -0.9,1.6 -1.6,3.3 -2.4,5 -0.2,0.5 -0.4,0.9 -0.6,1.4 -0.5,1.3 -1,2.6 -1.3,4 -0.2,0.6 -0.3,1 -0.4,1.6 -0.3,1.4 -0.6,2.7 -0.7,4.2 -0.1,0.5 -0.2,0.9 -0.2,1.5 -0.2,1.9 -0.4,3.8 -0.3,5.7 0,1.4 0.1,2.8 0.2,4.2 0,0.6 0.1,1 0.2,1.6 0.1,0.8 0.3,1.7 0.4,2.5 0.2,1 0.4,2.1 0.7,3 0.2,0.8 0.4,1.4 0.6,2.2 v 0.1 c 0.4,1.3 0.9,2.6 1.5,3.9 0.1,0.2 0.1,0.4 0.2,0.6 0.6,1.3 1.3,2.6 2,3.9 0.1,0.1 0.1,0.2 0.2,0.3 0.8,1.3 1.6,2.6 2.4,3.9 0,0.1 0.1,0.1 0.1,0.2 0.9,1.2 1.8,2.4 2.7,3.6 0.3,-0.2 0.4,-0.1 0.4,0.1 z m 40.1,10.4 c -1.1,0 -2.2,0 -3.3,-0.1 -0.6,0 -1.2,0 -1.7,-0.1 -1.6,-0.1 -3.1,-0.4 -4.6,-0.6 -0.4,-0.1 -0.8,-0.2 -1.2,-0.3 -1.2,-0.3 -2.3,-0.5 -3.4,-0.9 -0.5,-0.2 -1.1,-0.4 -1.6,-0.6 -1,-0.4 -1.9,-0.7 -2.9,-1.2 l -0.9,-0.5 -0.9,-6.2 c -0.5,-3.5 0.6,-7.1 3.2,-9.5 l 11.3,-11.1 c 0.1,0.1 0.3,0.1 0.4,0.2 l 0.2,0.1 0.5,0.2 0.1,17.6 c 0,1.1 0.1,2.2 0.3,3.3 0,0.3 0.1,0.6 0.2,0.8 0.2,0.8 0.4,1.6 0.8,2.4 0.1,0.3 0.2,0.5 0.3,0.8 0.4,0.9 0.9,1.9 1.5,2.8 0.1,0.2 0.3,0.4 0.4,0.6 0.5,0.7 1.1,1.4 1.7,2 0.1,0.1 0.2,0.3 0.3,0.4 z m 1.9,-39 c -0.2,0.3 -0.5,0.6 -0.8,0.8 -0.2,0.2 -0.5,0.4 -0.7,0.5 -1.2,0.6 -2.7,0.4 -3.7,-0.4 -0.4,-0.2 -0.7,-0.6 -0.9,-0.8 -1.1,-1.2 -1.1,-3 0,-4.2 0.2,-0.4 0.6,-0.7 0.9,-0.9 1,-0.9 2.5,-1.1 3.7,-0.5 0.3,0.1 0.5,0.3 0.7,0.5 0.3,0.2 0.6,0.5 0.8,0.7 0.2,0.2 0.4,0.5 0.5,0.8 0.4,0.9 0.4,2 0,2.9 -0.1,0.1 -0.3,0.4 -0.5,0.6 z m 29.3,24.4 c -1.2,1.2 -2.3,2.5 -3.6,3.6 -0.2,0.2 -0.4,0.4 -0.6,0.6 -2.9,2.5 -6.2,4.7 -9.7,6.3 l -0.2,0.1 c -1.8,0.9 -3.7,1.5 -5.6,2.1 l -2.2,-1.1 c -3.9,-1.9 -6.5,-5.7 -6.5,-10 l -0.1,-17.6 0.6,-0.2 0.2,-0.1 0.4,-0.2 11.4,10.9 c 0.9,0.7 1.8,1.5 2.7,2.1 l 0.5,0.3 c 1,0.6 2,1 2.9,1.5 l 0.5,0.2 c 1.1,0.4 2.1,0.7 3.3,0.9 h 0.2 c 1.1,0.2 2.2,0.3 3.3,0.3 0.1,0 0.2,0 0.3,0 h 0.2 c 0.5,0 1,0 1.5,-0.1 0.2,0 0.5,0 0.7,0 0,0.3 -0.1,0.3 -0.2,0.4 z m 9.2,-29.6 c 0.2,-0.3 0.5,-0.5 0.7,-0.8 0.1,1.2 0.2,2.4 0.2,3.6 0,1.5 -0.1,3 -0.3,4.5 0,0.4 -0.1,0.8 -0.2,1.1 -0.2,1.1 -0.4,2.3 -0.6,3.3 -0.1,0.5 -0.2,0.8 -0.4,1.3 -0.3,0.9 -0.6,2 -0.9,2.9 -0.2,0.5 -0.4,1 -0.6,1.5 -0.3,0.9 -0.7,1.7 -1.1,2.6 -0.2,0.3 -0.3,0.7 -0.5,0.9 l -6.4,0.9 c -3.6,0.5 -7.3,-0.6 -9.8,-3.1 l -11.4,-10.9 c 0.1,-0.1 0.1,-0.3 0.2,-0.4 l 0.1,-0.2 c 0.1,-0.2 0.2,-0.4 0.2,-0.5 l 16.1,-0.1 c 0.8,0 1.5,0 2.2,-0.1 0.3,0 0.5,-0.1 0.8,-0.1 0.5,-0.1 1,-0.1 1.5,-0.3 0.3,-0.1 0.6,-0.2 0.9,-0.3 0.3,-0.1 0.9,-0.2 1.3,-0.4 0.3,-0.1 0.6,-0.2 0.9,-0.4 0.4,-0.2 0.8,-0.3 1.2,-0.5 0.4,-0.2 0.6,-0.3 0.9,-0.5 0.3,-0.2 0.7,-0.4 1.1,-0.6 0.4,-0.2 0.6,-0.4 0.9,-0.6 0.3,-0.2 0.7,-0.5 1,-0.7 0.3,-0.3 0.5,-0.5 0.8,-0.7 0.3,-0.3 0.6,-0.5 0.9,-0.8 -0.1,-0.1 0.1,-0.3 0.3,-0.6 z m -18.3,-14.7 c 0.1,-0.2 0.3,-0.4 0.4,-0.6 0.3,-0.4 0.6,-0.8 0.9,-1.2 0.1,-0.2 0.3,-0.5 0.4,-0.7 0.2,-0.4 0.5,-0.8 0.7,-1.2 0.1,-0.3 0.2,-0.6 0.3,-0.8 0.1,-0.3 0.4,-0.8 0.5,-1.2 0.2,-0.4 0.2,-0.6 0.2,-0.8 0.1,-0.3 0.2,-0.8 0.3,-1.2 0.1,-0.4 0.1,-0.6 0.2,-0.9 0.1,-0.4 0.2,-0.8 0.2,-1.2 0.1,-0.4 0,-0.7 0,-0.9 0,-0.3 0.1,-0.8 0.1,-1.2 0,-0.5 -0.1,-0.7 -0.1,-0.9 0,-0.3 0,-0.7 -0.1,-1 l 0.3,0.3 c 1.3,1 2.4,2.1 3.5,3.3 l 0.6,0.7 c 2.4,2.6 4.5,5.5 6.2,8.6 0.1,0.2 0.2,0.3 0.2,0.5 0.8,1.5 1.4,3 2,4.5 0,0.1 0.1,0.2 0.1,0.3 l -3.8,5 c -2.2,2.8 -5.6,4.6 -9.2,4.6 l -16.1,0.1 c -0.1,-0.2 -0.2,-0.4 -0.2,-0.5 l -0.1,-0.2 c 0,-0.1 -0.1,-0.3 -0.2,-0.4 l 11.3,-11.1 c 0.3,-0.7 0.8,-1.2 1.4,-1.9 z m -26.5,-23.4 c 1.5,-0.1 2.8,-0.1 4.3,-0.1 0.6,0 1.1,0 1.7,0.1 1.4,0.1 2.7,0.3 4.1,0.4 0.3,0.1 0.7,0.1 1,0.2 1.7,0.3 3.4,0.7 5.1,1.2 0.4,0.1 0.7,0.3 1,0.4 1.3,0.5 2.5,0.9 3.8,1.5 l 0.8,0.4 0.9,6.2 c 0.5,3.5 -0.6,7.1 -3.2,9.5 l -11.3,11.1 -0.4,-0.2 -0.2,-0.1 c -0.2,-0.1 -0.4,-0.2 -0.6,-0.2 l -0.1,-15.6 c 0,-0.8 0,-1.4 -0.1,-2.2 0,-0.3 -0.1,-0.5 -0.1,-0.8 -0.1,-0.5 -0.2,-0.9 -0.3,-1.4 -0.1,-0.3 -0.2,-0.6 -0.3,-0.8 -0.1,-0.4 -0.2,-0.8 -0.4,-1.2 -0.1,-0.3 -0.3,-0.6 -0.4,-0.8 -0.1,-0.3 -0.3,-0.8 -0.5,-1.1 -0.2,-0.4 -0.3,-0.6 -0.5,-0.8 -0.2,-0.3 -0.4,-0.7 -0.6,-1 -0.2,-0.4 -0.4,-0.6 -0.6,-0.8 -0.2,-0.3 -0.5,-0.7 -0.7,-0.9 -0.3,-0.3 -0.5,-0.5 -0.7,-0.7 -0.2,-0.3 -0.5,-0.6 -0.8,-0.8 -0.3,-0.3 -0.5,-0.5 -0.8,-0.7 -0.3,-0.2 -0.5,-0.5 -0.8,-0.7 0.2,-0.1 0.5,-0.1 0.7,-0.1 z m -29.1,14.5 c 1.1,-1.1 2.1,-2.3 3.3,-3.3 l 0.7,-0.7 c 2.7,-2.4 5.7,-4.4 8.9,-5.9 l 0.5,-0.3 c 1.5,-0.8 3.1,-1.3 4.6,-1.9 0.1,0 0.2,-0.1 0.3,-0.1 l 5.2,3.7 c 2.9,2.1 4.7,5.4 4.7,8.9 l 0.1,15.5 c -0.2,0.1 -0.4,0.1 -0.5,0.2 l -0.2,0.1 c -0.1,0.1 -0.3,0.1 -0.4,0.2 l -11.4,-10.9 c -0.9,-0.7 -1.8,-1.5 -2.7,-2.1 l -0.4,-0.3 c -1,-0.6 -2,-1 -2.9,-1.5 l -0.5,-0.2 c -1.1,-0.4 -2.1,-0.7 -3.2,-0.9 h -0.3 c -1.1,-0.2 -2.2,-0.3 -3.4,-0.3 h -0.2 c -0.8,0 -1.6,0 -2.3,0.2 -0.1,-0.1 0,-0.3 0.1,-0.4 z m -9.2,29.6 c -0.2,0.3 -0.5,0.5 -0.7,0.8 -0.1,-1.1 -0.2,-2.4 -0.2,-3.5 0,-1.5 0.1,-3 0.3,-4.5 0,-0.4 0.1,-0.8 0.2,-1.1 0.2,-1.1 0.3,-2.2 0.6,-3.3 0.1,-0.5 0.2,-0.9 0.4,-1.3 0.3,-0.9 0.6,-2 0.9,-2.9 0.2,-0.5 0.4,-1 0.6,-1.5 0.3,-0.9 0.7,-1.7 1.1,-2.6 l 0.5,-0.9 6.4,-0.9 c 3.6,-0.5 7.3,0.6 9.8,3.1 l 11.4,11 c -0.1,0.1 -0.1,0.3 -0.2,0.4 l -0.1,0.2 c -0.1,0.2 -0.2,0.4 -0.2,0.6 l -16.1,0.1 c -0.8,0 -1.5,0 -2.2,0.1 -0.3,0 -0.5,0.1 -0.8,0.1 -0.5,0.1 -1,0.2 -1.5,0.3 -0.3,0.1 -0.6,0.2 -0.9,0.3 -0.4,0.1 -0.9,0.2 -1.3,0.4 -0.3,0.1 -0.6,0.3 -0.9,0.4 -0.3,0.1 -0.8,0.3 -1.2,0.5 -0.4,0.2 -0.6,0.3 -0.9,0.5 -0.3,0.2 -0.7,0.4 -1.1,0.6 -0.3,0.2 -0.6,0.4 -0.9,0.6 -0.3,0.2 -0.7,0.5 -1,0.7 -0.3,0.3 -0.5,0.5 -0.8,0.7 -0.3,0.2 -0.6,0.5 -0.9,0.8 -0.1,-0.1 -0.2,0.1 -0.3,0.3 z m 1.4,10.5 3.8,-5 c 2.2,-2.8 5.6,-4.6 9.2,-4.6 l 16.1,-0.1 c 0.1,0.2 0.2,0.4 0.2,0.6 l 0.1,0.2 c 0.1,0.1 0.1,0.3 0.2,0.4 l -11.3,11.1 c -0.5,0.5 -1.1,1 -1.4,1.6 -0.2,0.2 -0.3,0.5 -0.5,0.7 -0.3,0.4 -0.6,0.8 -0.8,1.1 -0.2,0.4 -0.3,0.6 -0.5,0.8 -0.2,0.3 -0.4,0.8 -0.6,1.1 -0.2,0.4 -0.2,0.6 -0.4,0.9 -0.1,0.3 -0.3,0.8 -0.5,1.1 -0.1,0.4 -0.2,0.6 -0.3,0.9 -0.1,0.4 -0.2,0.8 -0.3,1.1 -0.1,0.4 -0.1,0.7 -0.2,0.9 -0.1,0.3 -0.2,0.8 -0.2,1.1 0,0.4 0,0.7 0,0.9 0,0.3 0,0.8 0,1.2 0.1,0.4 0.1,0.7 0.1,0.9 0,0.3 0,0.7 0.1,1 l -0.3,-0.3 c -1.2,-1 -2.3,-2.1 -3.4,-3.2 -0.2,-0.2 -0.4,-0.5 -0.7,-0.7 -2.4,-2.6 -4.5,-5.5 -6.2,-8.6 -0.1,-0.2 -0.2,-0.3 -0.3,-0.5 -0.8,-1.5 -1.4,-3 -2,-4.5 0.3,0.2 0.3,0.1 0.1,-0.1 z"
   id="path58"
   inkscape:connector-curvature="0"
   style="fill:#020202" />
		<path
   class="st6"
   d="m 1173,958.7 -7.7,0.1 -0.1,-7.5 7.7,-0.1 z"
   id="path60"
   inkscape:connector-curvature="0"
   style="fill:#020202" />
		<path
   class="st6"
   d="m 1009.7,802.4 -7.8,0.1 -0.1,-7.5 7.8,-0.1 z"
   id="path62"
   inkscape:connector-curvature="0"
   style="fill:#020202" />
		<path
   class="st6"
   d="m 1088,955.5 0.1,7.5 c 49.1,-0.4 88.5,-39.2 88.2,-86.7 l -7.8,0.1 c 0.3,43.3 -35.8,78.7 -80.5,79.1 z"
   id="path64"
   inkscape:connector-curvature="0"
   style="fill:#020202" />
		<path
   class="st6"
   d="m 1080.3,963.1 -7.8,0.1 -0.1,-7.5 7.8,-0.1 z"
   id="path66"
   inkscape:connector-curvature="0"
   style="fill:#020202" />
	</g>
</g>
<polygon
   class="st7"
   points="2195,411.9 2195,657.7 2139.1,694.6 1602.8,694.6 1545.8,657.7 1545.8,411.9 "
   id="polygon70"
   style="fill:#ede9e8"
   transform="translate(-416.1,-169.5)" />
<polygon
   class="st8"
   points="2139.1,694.6 1889.4,694.6 1889.4,411.9 2195,411.9 2195,657.7 "
   id="polygon72"
   style="fill:#dfd7d5"
   transform="translate(-416.1,-169.5)" />
<path
   class="st9"
   d="m 1778.9,488.2 v 92.2 l -43.8,33.2 h -561.8 l -43.8,-33.2 v -92.2 c 1.5,1.1 2.7,2.2 4.2,3 13.3,5.9 29.3,3.3 39.6,-6.6 28.2,-27.7 75.8,-27.7 104,0 13.7,13.3 35.8,13.3 49.5,0 28.2,-27.7 74.6,-27.7 102.7,0 11.8,11.4 30.1,12.9 43.8,4.8 1.9,-1.5 3.8,-3 5.7,-4.8 28.2,-27.7 74.6,-27.7 102.7,0 13.3,12.9 36.1,12.9 49.5,0 28.2,-27.7 75.8,-27.7 104,0 9.5,9.2 23.6,12.2 36.1,8.1 3.1,-1.2 5.3,-3.1 7.6,-4.5 z"
   id="path74"
   inkscape:connector-curvature="0"
   style="fill:#8fe1ff" />
<g
   id="g80"
   transform="translate(-416.1,-169.5)">
	<path
   class="st10"
   d="m 2195,657.7 v 92.2 l -43.8,33.2 H 1889.3 V 658.8 c 1.9,-1.5 3.8,-3 5.7,-4.8 28.2,-27.7 74.6,-27.7 102.7,0 13.3,12.9 36.1,12.9 49.5,0 28.2,-27.7 75.8,-27.7 104,0 9.5,9.2 23.6,12.2 36.1,8.1 3.2,-1.1 5.4,-3 7.7,-4.4 z"
   id="path76"
   inkscape:connector-curvature="0"
   style="fill:#73bcff" />
	<path
   class="st10"
   d="m 2195,749.9 c 0,0 0,99.6 0,104.8 h -649.3 c 0,0 0,-98.9 0,-104.8 1.5,1.1 2.7,2.2 4.2,3 13.3,5.9 29.3,3.3 39.6,-6.6 28.2,-27.7 75.8,-27.7 104,0 13.7,13.3 35.8,13.3 49.5,0 28.2,-27.7 74.6,-27.7 102.7,0 11.8,11.4 30.1,12.9 43.8,4.8 1.9,-1.5 3.8,-3 5.7,-4.8 28.2,-27.7 74.6,-27.7 102.7,0 13.3,12.9 36.1,12.9 49.5,0 28.2,-27.7 75.8,-27.7 104,0 9.5,9.2 23.6,12.2 36.1,8.1 3,-1.2 5.2,-3 7.5,-4.5 z"
   id="path78"
   inkscape:connector-curvature="0"
   style="fill:#73bcff" />
</g>
<path
   class="st11"
   d="m 1778.9,580.4 c 0,0 0,99.6 0,104.8 H 1473.3 V 581.5 c 1.9,-1.5 3.8,-3 5.7,-4.8 28.2,-27.7 74.6,-27.7 102.7,0 13.3,12.9 36.1,12.9 49.5,0 28.2,-27.7 75.8,-27.7 104,0 9.5,9.2 23.6,12.2 36.1,8.1 3.1,-1.1 5.3,-2.9 7.6,-4.4 z"
   id="path82"
   inkscape:connector-curvature="0"
   style="fill:#3a96ff" />
<path
   class="st0"
   d="m 379.2,749.9 73.7,0.4 -0.4,63.4 -100,-0.6 c -33.3,-0.2 -60.2,-24.4 -60.1,-54 L 293,658.5 c 19.4,0.1 38.8,0.2 58.3,0.3 0.2,26.5 0.4,53 0.7,79.5 0.9,2 3.7,7.2 9.8,10.4 8.1,4.3 15.7,1.8 17.4,1.2 z"
   id="path84"
   inkscape:connector-curvature="0"
   style="fill:#c7c9c7" />
<path
   class="st12"
   d="m 29.4,513.4 v -14.3 c 0,-27.6 24.5,-50 54.7,-50 h 23.7 v -12 C 91,429.2 79.5,413.2 79.5,394.8 c 0,-26.2 23.3,-47.5 52,-47.5 28.7,0 52,21.3 52,47.5 0,11.8 -4.7,22.6 -12.5,30.9 h 33.6 v -10.5 c 0,-3.5 3.1,-6.3 6.9,-6.3 3.8,0 6.9,2.8 6.9,6.3 v 28.7 c 0,3.5 -3.1,6.3 -6.9,6.3 -3.8,0 -6.9,-2.8 -6.9,-6.3 v -8.8 h -45.7 c -0.6,0.4 -1.3,0.7 -1.9,1.1 V 449 h 23.7 c 30.2,0 54.7,22.4 54.7,50 v 291.9 c 0,27.6 -24.5,50 -54.7,50 H 84.1 c -30.2,0 -54.7,-22.4 -54.7,-50 v -259 M 154.8,425.7 c 10.7,-6.8 17.7,-18.1 17.7,-30.9 0,-20.7 -18.4,-37.5 -41,-37.5 -22.6,0 -41,16.8 -41,37.5 0,12.8 7,24.1 17.7,30.9 h 45.7 c 0,0 0,0 0.1,0 z m 46.3,77.3 h -6.9 v 265.9 h 6.9 z M 132.4,390.5 c -0.7,0 -1.4,0.1 -2.1,0.3 l -22.5,-5.1 18,12.6 c 0.8,2.7 3.4,4.7 6.6,4.7 3.8,0 6.8,-2.8 6.8,-6.2 0,-3.5 -3,-6.3 -6.8,-6.3 z"
   id="path86"
   inkscape:connector-curvature="0"
   style="fill:#4e99cf" />
<rect
   x="718.09998"
   y="499.5"
   class="st0"
   width="59"
   height="94.699997"
   id="rect88"
   style="fill:#c7c9c7" />
<path
   class="st0"
   d="M 351.4,80.100004 V 139.9 H 292.9 V 58.700004 c 0,-27.1 22.2,-49.1 49.5,-49.1 h 93 v 57.9 H 364 c -7,0 -12.6,5.6 -12.6,12.6 z"
   id="path90"
   inkscape:connector-curvature="0"
   style="fill:#c7c9c7" />
<rect
   x="845"
   y="345.70001"
   class="st0"
   width="284.70001"
   height="65.400002"
   id="rect92"
   style="fill:#c7c9c7" />
<rect
   x="292.89999"
   y="137"
   class="st0"
   width="59"
   height="527.09998"
   id="rect94"
   style="fill:#c7c9c7" />
<rect
   x="216.89999"
   y="411.79999"
   class="st13"
   width="8.3999996"
   height="35.599998"
   id="rect96"
   style="fill:#afb7bc" />
<rect
   x="217.30002"
   y="415.79999"
   class="st13"
   width="14.6"
   height="23.6"
   id="rect98"
   style="fill:#afb7bc" />
<rect
   x="2113.3999"
   y="134.20001"
   class="st0"
   width="65.400002"
   height="190.8"
   id="rect100"
   style="fill:#c7c9c7" />
<rect
   x="859.70007"
   y="520.29999"
   class="st0"
   width="270"
   height="7.6999998"
   id="rect102"
   style="fill:#c7c9c7" />
<g
   id="Page-1"
   transform="translate(-416.1,-169.5)">
	<g
   id="thermometer-tool">
		<path
   id="Shape"
   class="st14"
   d="m 2386.1,374.4 h 15.8 c 0.7,0 1.3,-0.5 1.3,-1.1 0,-0.6 -0.6,-1.1 -1.3,-1.1 h -15.8 c -0.7,0 -1.3,0.5 -1.3,1.1 0,0.6 0.5,1.1 1.3,1.1 z"
   inkscape:connector-curvature="0"
   style="fill:#9b9b9b" />
		<path
   id="Shape_1_"
   class="st14"
   d="m 2401.9,376.7 h -7.9 c -0.7,0 -1.3,0.5 -1.3,1.1 0,0.6 0.6,1.1 1.3,1.1 h 7.9 c 0.7,0 1.3,-0.5 1.3,-1.1 0,-0.6 -0.6,-1.1 -1.3,-1.1 z"
   inkscape:connector-curvature="0"
   style="fill:#9b9b9b" />
		<path
   id="Shape_2_"
   class="st14"
   d="m 2386.1,383.5 h 15.8 c 0.7,0 1.3,-0.5 1.3,-1.1 0,-0.6 -0.6,-1.1 -1.3,-1.1 h -15.8 c -0.7,0 -1.3,0.5 -1.3,1.1 0,0.6 0.5,1.1 1.3,1.1 z"
   inkscape:connector-curvature="0"
   style="fill:#9b9b9b" />
		<path
   id="Shape_3_"
   class="st14"
   d="m 2401.9,385.8 h -7.9 c -0.7,0 -1.3,0.5 -1.3,1.1 0,0.6 0.6,1.1 1.3,1.1 h 7.9 c 0.7,0 1.3,-0.5 1.3,-1.1 0,-0.6 -0.6,-1.1 -1.3,-1.1 z"
   inkscape:connector-curvature="0"
   style="fill:#9b9b9b" />
		<path
   id="Shape_4_"
   class="st14"
   d="m 2386.1,392.6 h 15.8 c 0.7,0 1.3,-0.5 1.3,-1.1 0,-0.6 -0.6,-1.1 -1.3,-1.1 h -15.8 c -0.7,0 -1.3,0.5 -1.3,1.1 0,0.6 0.5,1.1 1.3,1.1 z"
   inkscape:connector-curvature="0"
   style="fill:#9b9b9b" />
		<path
   id="Shape_5_"
   class="st14"
   d="m 2401.9,394.9 h -7.9 c -0.7,0 -1.3,0.5 -1.3,1.1 0,0.6 0.6,1.1 1.3,1.1 h 7.9 c 0.7,0 1.3,-0.5 1.3,-1.1 0,-0.6 -0.6,-1.1 -1.3,-1.1 z"
   inkscape:connector-curvature="0"
   style="fill:#9b9b9b" />
		<path
   id="Shape_6_"
   class="st14"
   d="m 2386.1,401.7 h 15.8 c 0.7,0 1.3,-0.5 1.3,-1.1 0,-0.6 -0.6,-1.1 -1.3,-1.1 h -15.8 c -0.7,0 -1.3,0.5 -1.3,1.1 0,0.6 0.5,1.1 1.3,1.1 z"
   inkscape:connector-curvature="0"
   style="fill:#9b9b9b" />
		<path
   id="Shape_7_"
   class="st14"
   d="m 2401.9,404 h -7.9 c -0.7,0 -1.3,0.5 -1.3,1.1 0,0.6 0.6,1.1 1.3,1.1 h 7.9 c 0.7,0 1.3,-0.5 1.3,-1.1 0,-0.6 -0.6,-1.1 -1.3,-1.1 z"
   inkscape:connector-curvature="0"
   style="fill:#9b9b9b" />
		<path
   id="Shape_8_"
   class="st14"
   d="m 2386.1,410.8 h 15.8 c 0.7,0 1.3,-0.5 1.3,-1.1 0,-0.6 -0.6,-1.1 -1.3,-1.1 h -15.8 c -0.7,0 -1.3,0.5 -1.3,1.1 0,0.6 0.5,1.1 1.3,1.1 z"
   inkscape:connector-curvature="0"
   style="fill:#9b9b9b" />
		<path
   id="Shape_9_"
   class="st14"
   d="m 2401.9,413.1 h -7.9 c -0.7,0 -1.3,0.5 -1.3,1.1 0,0.6 0.6,1.1 1.3,1.1 h 7.9 c 0.7,0 1.3,-0.5 1.3,-1.1 0,-0.6 -0.6,-1.1 -1.3,-1.1 z"
   inkscape:connector-curvature="0"
   style="fill:#9b9b9b" />
		<path
   id="Shape_10_"
   class="st14"
   d="m 2386.1,419.9 h 15.8 c 0.7,0 1.3,-0.5 1.3,-1.1 0,-0.6 -0.6,-1.1 -1.3,-1.1 h -15.8 c -0.7,0 -1.3,0.5 -1.3,1.1 0,0.6 0.5,1.1 1.3,1.1 z"
   inkscape:connector-curvature="0"
   style="fill:#9b9b9b" />
		<path
   id="Shape_11_"
   class="st14"
   d="m 2403.2,455.1 v -30.6 c -10,5.4 -10.3,-5.7 -18.4,0 v 30.6 c -6.6,2.9 -11.1,8.8 -11.1,15.7 0,9.7 9.1,17.6 20.3,17.6 11.2,0 20.3,-7.9 20.3,-17.6 0,-6.9 -4.5,-12.8 -11.1,-15.7 z m -0.8,18 c -2.8,0 -5.1,-2 -5.1,-4.4 0,-2.4 2.3,-4.4 5.1,-4.4 2.8,0 5.1,2 5.1,4.4 0,2.4 -2.3,4.4 -5.1,4.4 z"
   inkscape:connector-curvature="0"
   style="fill:#9b9b9b" />
		<path
   id="Shape_12_"
   class="st14"
   d="m 2411.1,451.1 v -81.9 c 0,-6.8 -5.9,-11 -15.4,-11 h -2.8 c -9.6,0 -16,4.4 -16,11 v 81.9 c -6.9,4.5 -11.4,11.6 -11.4,19.7 0,13.6 12.8,24.6 28.5,24.6 15.7,0 28.5,-11 28.5,-24.6 -0.1,-8.1 -4.5,-15.2 -11.4,-19.7 z M 2394,493 c -14.2,0 -25.7,-10 -25.7,-22.2 0,-6.6 3.3,-12.5 8.6,-16.6 0.8,-0.6 1.7,-1.2 2.6,-1.8 v -83.2 c 0,-6.5 7.2,-8.8 13.4,-8.8 h 2.9 c 3,0 12.7,0.6 12.7,8.8 v 83.2 c 0.9,0.5 1.8,1.1 2.6,1.8 5.3,4.1 8.6,10 8.6,16.6 0,12.2 -11.5,22.2 -25.7,22.2 z"
   inkscape:connector-curvature="0"
   style="fill:#9b9b9b" />
	</g>
</g>
<path
   class="st15"
   d="m 1977.1,325.2 c -1.7,0 -3.4,-0.4 -5.1,-1.6 v 25.8 h 10.1 v -25.8 c -1.6,1.2 -3.3,1.6 -5,1.6"
   id="path119"
   inkscape:connector-curvature="0"
   style="fill:#c7cbc7" />

<line
   class="st16"
   x1="1034.3"
   y1="1220.8"
   x2="1034.3"
   y2="1872.3"
   id="line123"
   style="fill:none" />
<line
   class="st16"
   x1="859.70007"
   y1="574.00006"
   x2="859.70007"
   y2="1225.5"
   id="line125"
   style="fill:none" />
<line
   class="st16"
   x1="818.59998"
   y1="542.90009"
   x2="818.59998"
   y2="1194.5"
   id="line127"
   style="fill:none" />
<line
   class="st16"
   x1="1954.0001"
   y1="-1.39999"
   x2="2651.0999"
   y2="-1.39999"
   id="line129"
   style="fill:none" />
<line
   class="st16"
   x1="-516.59998"
   y1="-1.39999"
   x2="140.60001"
   y2="-1.39999"
   id="line131"
   style="fill:none" />
<rect
   x="1778.9"
   y="516.40009"
   class="st0"
   width="270"
   height="7.6999998"
   id="rect133"
   style="fill:#c7c9c7" />
<rect
   x="857.59998"
   y="1035.9"
   class="st0"
   width="377.07608"
   height="7.6999998"
   id="rect135"
   style="fill:#c7c9c7;stroke-width:1.15758383" />
<rect
   x="1642.2469"
   y="1028.3"
   class="st0"
   width="402.45309"
   height="7.6999998"
   id="rect137"
   style="fill:#c7c9c7;stroke-width:1.16880274" />
<rect
   x="858.30005"
   y="520.29999"
   class="st0"
   width="8.3999996"
   height="515.59998"
   id="rect139"
   style="fill:#c7c9c7" />
<rect
   x="2044.7001"
   y="520.29999"
   class="st0"
   width="8.3999996"
   height="515.59998"
   id="rect141"
   style="fill:#c7c9c7" />
<rect
   x="372.60001"
   y="749.79999"
   class="st0"
   width="183"
   height="63.799999"
   id="rect143"
   style="fill:#c7c9c7" />
<rect
   x="1778.9"
   y="348.29999"
   class="st0"
   width="274.10001"
   height="64"
   id="rect145"
   style="fill:#c7c9c7" />
<rect
   x="231.89999"
   y="420.59998"
   class="st0"
   width="60.900002"
   height="14.3"
   id="rect147"
   style="fill:#c7c9c7" />
<rect
   x="425.39999"
   y="9.6000099"
   class="st0"
   width="553.59998"
   height="58.200001"
   id="rect149"
   style="fill:#c7c9c7" />
<rect
   x="1512.3"
   y="9.6000099"
   class="st0"
   width="511.29999"
   height="58.200001"
   id="rect151"
   style="fill:#c7c9c7" />
<path
   class="st0"
   d="m 2113.1,317.1 v -81 h 65.7 V 346 c 0,36.6 -24.9,66.4 -55.6,66.4 h -104.3 c 0,-21.3 0,-42.7 0,-64 27.5,-0.4 54.9,-0.8 82.4,-1.2 4,-2.8 5.2,-2.8 8.5,-9.5 4.2,-9.1 3.1,-15.4 3.3,-20.6 z"
   id="path153"
   inkscape:connector-curvature="0"
   style="fill:#c7c9c7" />
<path
   class="st0"
   d="m 2082.8,68.200004 -81.6,0.1 -0.1,-59 110.7,-0.1 c 36.9,0 66.9,22.3 66.9,49.9 L 2178.8,152.8 c -21.5,0 -43,0 -64.5,0.1 -0.4,-24.7 -0.9,-49.4 -1.3,-73.999996 -1,-1.8 -4.2,-6.7 -11,-9.6 -9,-4 -17.4,-1.7 -19.2,-1.1 z"
   id="path155"
   inkscape:connector-curvature="0"
   style="fill:#c7c9c7" />
<g
   id="g169"
   transform="translate(-416.1,-169.5)">
	<path
   d="m 1517.4,177.5 h -19 v -8 h 46 v 8 h -19 v 54.7 h -8 z"
   id="path157"
   inkscape:connector-curvature="0" />
	<path
   d="m 1539.8,211.3 c 0,-3.1 0.5,-5.9 1.6,-8.6 1.1,-2.7 2.6,-5 4.5,-7 1.9,-2 4.1,-3.6 6.7,-4.7 2.6,-1.2 5.3,-1.7 8.2,-1.7 2.9,0 5.7,0.6 8.2,1.7 2.6,1.2 4.8,2.7 6.7,4.7 1.9,2 3.4,4.3 4.5,7 1.1,2.7 1.6,5.5 1.6,8.6 0,3.1 -0.5,5.9 -1.6,8.6 -1.1,2.7 -2.6,5 -4.5,7 -1.9,2 -4.1,3.5 -6.7,4.7 -2.6,1.2 -5.3,1.7 -8.2,1.7 -2.9,0 -5.7,-0.6 -8.2,-1.7 -2.6,-1.2 -4.8,-2.7 -6.7,-4.7 -1.9,-2 -3.4,-4.3 -4.5,-7 -1,-2.7 -1.6,-5.6 -1.6,-8.6 z m 8,0 c 0,2.1 0.3,4.1 0.9,5.9 0.6,1.8 1.5,3.3 2.6,4.6 1.1,1.3 2.5,2.3 4.1,3 1.6,0.7 3.4,1.1 5.4,1.1 2,0 3.8,-0.4 5.4,-1.1 1.6,-0.7 3,-1.7 4.1,-3 1.1,-1.3 2,-2.8 2.6,-4.6 0.6,-1.8 0.9,-3.8 0.9,-5.9 0,-2.1 -0.3,-4.1 -0.9,-5.9 -0.6,-1.8 -1.5,-3.3 -2.6,-4.6 -1.1,-1.3 -2.5,-2.3 -4.1,-3 -1.6,-0.7 -3.4,-1.1 -5.4,-1.1 -2,0 -3.8,0.4 -5.4,1.1 -1.6,0.7 -3,1.7 -4.1,3 -1.1,1.3 -2,2.8 -2.6,4.6 -0.6,1.8 -0.9,3.7 -0.9,5.9 z"
   id="path159"
   inkscape:connector-curvature="0" />
	<path
   d="m 1616.3,169.6 h 8 v 26 h 30.6 v -26 h 8 v 62.7 h -8 v -28.7 h -30.6 v 28.7 h -8 z"
   id="path161"
   inkscape:connector-curvature="0" />
	<path
   d="m 1674.2,211.3 c 0,-3.1 0.5,-5.9 1.6,-8.6 1.1,-2.7 2.6,-5 4.5,-7 1.9,-2 4.1,-3.6 6.7,-4.7 2.6,-1.2 5.3,-1.7 8.2,-1.7 2.9,0 5.7,0.6 8.2,1.7 2.6,1.2 4.8,2.7 6.7,4.7 1.9,2 3.4,4.3 4.5,7 1.1,2.7 1.6,5.5 1.6,8.6 0,3.1 -0.5,5.9 -1.6,8.6 -1.1,2.7 -2.6,5 -4.5,7 -1.9,2 -4.1,3.5 -6.7,4.7 -2.6,1.2 -5.3,1.7 -8.2,1.7 -2.9,0 -5.7,-0.6 -8.2,-1.7 -2.6,-1.2 -4.8,-2.7 -6.7,-4.7 -1.9,-2 -3.4,-4.3 -4.5,-7 -1.1,-2.7 -1.6,-5.6 -1.6,-8.6 z m 8,0 c 0,2.1 0.3,4.1 0.9,5.9 0.6,1.8 1.5,3.3 2.6,4.6 1.1,1.3 2.5,2.3 4.1,3 1.6,0.7 3.4,1.1 5.4,1.1 2,0 3.8,-0.4 5.4,-1.1 1.6,-0.7 3,-1.7 4.1,-3 1.1,-1.3 2,-2.8 2.6,-4.6 0.6,-1.8 0.9,-3.8 0.9,-5.9 0,-2.1 -0.3,-4.1 -0.9,-5.9 -0.6,-1.8 -1.5,-3.3 -2.6,-4.6 -1.1,-1.3 -2.5,-2.3 -4.1,-3 -1.6,-0.7 -3.4,-1.1 -5.4,-1.1 -2,0 -3.8,0.4 -5.4,1.1 -1.6,0.7 -3,1.7 -4.1,3 -1.1,1.3 -2,2.8 -2.6,4.6 -0.6,1.8 -0.9,3.7 -0.9,5.9 z"
   id="path163"
   inkscape:connector-curvature="0" />
	<path
   d="m 1725.6,190.3 h 7 v 6.6 h 0.2 c 0.2,-0.6 0.6,-1.3 1.3,-2.2 0.7,-0.9 1.6,-1.7 2.7,-2.5 1.1,-0.8 2.4,-1.5 3.8,-2 1.5,-0.6 3.1,-0.8 4.9,-0.8 2.9,0 5.4,0.7 7.4,1.9 2,1.3 3.6,3.2 4.9,5.8 1.3,-2.6 3.1,-4.5 5.4,-5.8 2.3,-1.3 4.7,-1.9 7.1,-1.9 3.1,0 5.6,0.5 7.5,1.6 1.9,1.1 3.5,2.5 4.6,4.2 1.1,1.7 1.9,3.7 2.3,5.9 0.4,2.2 0.6,4.5 0.6,6.9 v 24.4 h -7.5 V 209 c 0,-1.6 -0.1,-3.1 -0.3,-4.6 -0.2,-1.5 -0.6,-2.8 -1.2,-3.9 -0.6,-1.1 -1.5,-2 -2.6,-2.7 -1.1,-0.7 -2.6,-1 -4.4,-1 -3.6,0 -6.2,1.2 -7.7,3.5 -1.6,2.4 -2.3,5.4 -2.3,9.1 v 22.9 h -7.5 v -22 c 0,-2 -0.1,-3.8 -0.3,-5.5 -0.2,-1.7 -0.6,-3.1 -1.2,-4.3 -0.6,-1.2 -1.4,-2.2 -2.5,-2.8 -1.1,-0.7 -2.5,-1 -4.4,-1 -1.3,0 -2.6,0.3 -3.9,0.8 -1.2,0.6 -2.3,1.4 -3.3,2.5 -0.9,1.1 -1.7,2.6 -2.2,4.3 -0.6,1.7 -0.8,3.8 -0.8,6.2 v 21.8 h -7.5 v -42 z"
   id="path165"
   inkscape:connector-curvature="0" />
	<path
   d="m 1802.2,214.2 c 0,1.8 0.4,3.5 1.1,5 0.7,1.5 1.7,2.8 3,3.9 1.2,1.1 2.6,1.9 4.2,2.5 1.6,0.6 3.3,0.9 5,0.9 2.3,0 4.4,-0.6 6.1,-1.7 1.7,-1.2 3.3,-2.7 4.7,-4.6 l 5.7,4.6 c -4.2,5.7 -10,8.6 -17.5,8.6 -3.1,0 -5.9,-0.6 -8.5,-1.7 -2.5,-1.1 -4.7,-2.7 -6.4,-4.6 -1.7,-2 -3.1,-4.3 -4,-7 -0.9,-2.7 -1.4,-5.6 -1.4,-8.7 0,-3.1 0.5,-6 1.5,-8.7 1,-2.7 2.4,-5 4.2,-7 1.8,-2 4,-3.5 6.5,-4.6 2.5,-1.1 5.2,-1.7 8.2,-1.7 3.5,0 6.5,0.7 8.9,1.9 2.4,1.3 4.4,3 6,5.1 1.6,2.1 2.7,4.5 3.4,7.1 0.7,2.6 1,5.3 1,8 v 2.8 h -31.7 z m 23.7,-6.4 c -0.1,-1.8 -0.3,-3.4 -0.8,-4.9 -0.5,-1.5 -1.2,-2.8 -2.1,-3.9 -0.9,-1.1 -2.1,-1.9 -3.5,-2.6 -1.4,-0.6 -3.1,-0.9 -5,-0.9 -1.8,0 -3.5,0.4 -5,1.1 -1.5,0.7 -2.8,1.7 -3.9,2.9 -1.1,1.2 -1.9,2.5 -2.5,3.9 -0.6,1.4 -0.9,2.9 -0.9,4.3 h 23.7 z"
   id="path167"
   inkscape:connector-curvature="0" />
</g>
<g
   id="g205"
   transform="translate(-416.1,-169.5)">
	<path
   d="m 2223,598.3 h -9.8 V 594 h 23.8 v 4.3 h -9.8 V 628 h -4.1 v -29.7 z"
   id="path171"
   inkscape:connector-curvature="0" />
	<path
   d="m 2238.5,618.2 c 0,1 0.2,1.9 0.6,2.7 0.4,0.8 0.9,1.5 1.5,2.1 0.6,0.6 1.4,1 2.2,1.3 0.8,0.3 1.7,0.5 2.6,0.5 1.2,0 2.3,-0.3 3.2,-0.9 0.9,-0.6 1.7,-1.4 2.5,-2.5 l 2.9,2.5 c -2.2,3.1 -5.2,4.7 -9.1,4.7 -1.6,0 -3.1,-0.3 -4.4,-0.9 -1.3,-0.6 -2.4,-1.4 -3.3,-2.5 -0.9,-1.1 -1.6,-2.3 -2.1,-3.8 -0.5,-1.5 -0.7,-3 -0.7,-4.7 0,-1.7 0.3,-3.3 0.8,-4.7 0.5,-1.5 1.3,-2.7 2.2,-3.8 0.9,-1.1 2.1,-1.9 3.3,-2.5 1.3,-0.6 2.7,-0.9 4.2,-0.9 1.8,0 3.3,0.4 4.6,1.1 1.3,0.7 2.3,1.6 3.1,2.8 0.8,1.1 1.4,2.4 1.7,3.8 0.3,1.4 0.5,2.9 0.5,4.3 v 1.5 h -16.3 z m 12.3,-3.5 c 0,-1 -0.2,-1.8 -0.4,-2.6 -0.2,-0.8 -0.6,-1.5 -1.1,-2.1 -0.5,-0.6 -1.1,-1.1 -1.8,-1.4 -0.7,-0.3 -1.6,-0.5 -2.6,-0.5 -1,0 -1.8,0.2 -2.6,0.6 -0.8,0.4 -1.5,0.9 -2,1.6 -0.5,0.6 -1,1.4 -1.3,2.1 -0.3,0.8 -0.5,1.6 -0.5,2.3 z"
   id="path173"
   inkscape:connector-curvature="0" />
	<path
   d="m 2259.6,605.2 h 3.6 v 3.6 h 0.1 c 0.1,-0.3 0.3,-0.7 0.7,-1.2 0.4,-0.5 0.8,-0.9 1.4,-1.4 0.6,-0.4 1.2,-0.8 2,-1.1 0.8,-0.3 1.6,-0.5 2.5,-0.5 1.5,0 2.8,0.4 3.8,1.1 1,0.7 1.9,1.8 2.5,3.2 0.7,-1.4 1.6,-2.5 2.8,-3.2 1.2,-0.7 2.4,-1.1 3.7,-1.1 1.6,0 2.9,0.3 3.9,0.9 1,0.6 1.8,1.3 2.4,2.3 0.6,0.9 1,2 1.2,3.2 0.2,1.2 0.3,2.4 0.3,3.7 v 13.2 h -3.9 v -12.7 c 0,-0.9 -0.1,-1.7 -0.2,-2.5 -0.1,-0.8 -0.3,-1.5 -0.6,-2.1 -0.3,-0.6 -0.8,-1.1 -1.3,-1.5 -0.6,-0.4 -1.3,-0.6 -2.3,-0.6 -1.9,0 -3.2,0.6 -4,1.9 -0.8,1.3 -1.2,2.9 -1.2,4.9 v 12.4 h -3.9 V 616 c 0,-1.1 -0.1,-2.1 -0.2,-3 -0.1,-0.9 -0.3,-1.7 -0.6,-2.3 -0.3,-0.7 -0.7,-1.2 -1.3,-1.5 -0.6,-0.4 -1.3,-0.6 -2.3,-0.6 -0.7,0 -1.4,0.2 -2,0.5 -0.6,0.3 -1.2,0.8 -1.7,1.4 -0.5,0.6 -0.9,1.4 -1.2,2.3 -0.3,0.9 -0.4,2.1 -0.4,3.3 v 11.8 h -3.9 v -22.7 z"
   id="path175"
   inkscape:connector-curvature="0" />
	<path
   d="m 2296.4,605.2 h 3.9 v 3.3 h 0.1 c 0.7,-1.2 1.8,-2.2 3.1,-2.8 1.3,-0.7 2.7,-1 4,-1 1.6,0 3,0.3 4.3,0.9 1.3,0.6 2.4,1.5 3.3,2.5 0.9,1 1.6,2.4 2.1,3.8 0.5,1.4 0.7,3 0.7,4.7 0,1.7 -0.2,3.3 -0.7,4.7 -0.5,1.5 -1.2,2.7 -2.1,3.8 -0.9,1.1 -2,1.9 -3.3,2.5 -1.3,0.6 -2.7,0.9 -4.3,0.9 -1.5,0 -2.9,-0.3 -4.1,-1 -1.2,-0.7 -2.3,-1.6 -3,-2.8 h -0.1 v 16.8 h -3.9 z m 10.6,3.5 c -1,0 -2,0.2 -2.8,0.6 -0.8,0.4 -1.5,0.9 -2.1,1.6 -0.6,0.7 -1,1.5 -1.3,2.5 -0.3,1 -0.5,2 -0.5,3.2 0,1.2 0.2,2.2 0.5,3.2 0.3,1 0.8,1.8 1.3,2.5 0.6,0.7 1.3,1.2 2.1,1.6 0.8,0.4 1.8,0.6 2.8,0.6 1,0 2,-0.2 2.8,-0.6 0.8,-0.4 1.5,-0.9 2.1,-1.6 0.6,-0.7 1,-1.5 1.3,-2.5 0.3,-1 0.5,-2 0.5,-3.2 0,-1.2 -0.2,-2.2 -0.5,-3.2 -0.3,-1 -0.8,-1.8 -1.3,-2.5 -0.6,-0.7 -1.3,-1.2 -2.1,-1.6 -0.8,-0.4 -1.8,-0.6 -2.8,-0.6 z"
   id="path177"
   inkscape:connector-curvature="0" />
	<path
   d="m 2325.7,618.2 c 0,1 0.2,1.9 0.6,2.7 0.4,0.8 0.9,1.5 1.5,2.1 0.6,0.6 1.4,1 2.2,1.3 0.8,0.3 1.7,0.5 2.6,0.5 1.2,0 2.3,-0.3 3.2,-0.9 0.9,-0.6 1.7,-1.4 2.5,-2.5 l 2.9,2.5 c -2.2,3.1 -5.2,4.7 -9.1,4.7 -1.6,0 -3.1,-0.3 -4.4,-0.9 -1.3,-0.6 -2.4,-1.4 -3.3,-2.5 -0.9,-1.1 -1.6,-2.3 -2.1,-3.8 -0.5,-1.5 -0.7,-3 -0.7,-4.7 0,-1.7 0.3,-3.3 0.8,-4.7 0.5,-1.4 1.3,-2.7 2.2,-3.8 0.9,-1.1 2.1,-1.9 3.3,-2.5 1.3,-0.6 2.7,-0.9 4.2,-0.9 1.8,0 3.3,0.4 4.6,1.1 1.3,0.7 2.3,1.6 3.1,2.8 0.8,1.2 1.4,2.4 1.8,3.8 0.4,1.4 0.5,2.9 0.5,4.3 v 1.5 h -16.4 z m 12.3,-3.5 c 0,-1 -0.2,-1.8 -0.4,-2.6 -0.2,-0.8 -0.6,-1.5 -1.1,-2.1 -0.5,-0.6 -1.1,-1.1 -1.8,-1.4 -0.7,-0.3 -1.6,-0.5 -2.6,-0.5 -1,0 -1.8,0.2 -2.6,0.6 -0.8,0.4 -1.5,0.9 -2,1.6 -0.5,0.6 -1,1.4 -1.3,2.1 -0.3,0.8 -0.5,1.6 -0.5,2.3 z"
   id="path179"
   inkscape:connector-curvature="0" />
	<path
   d="m 2346.8,605.2 h 3.9 v 3.5 h 0.1 c 0.3,-0.6 0.6,-1.2 1,-1.7 0.4,-0.5 0.9,-0.9 1.4,-1.3 0.5,-0.4 1.1,-0.6 1.8,-0.8 0.6,-0.2 1.3,-0.3 1.9,-0.3 0.6,0 1.2,0.1 1.7,0.3 l -0.2,4.7 c -0.3,-0.1 -0.6,-0.2 -1,-0.2 -0.3,-0.1 -0.6,-0.1 -1,-0.1 -1.9,0 -3.4,0.6 -4.4,1.8 -1,1.2 -1.5,3 -1.5,5.5 V 628 h -3.9 v -22.8 z"
   id="path181"
   inkscape:connector-curvature="0" />
	<path
   d="m 2362.9,608 c 1.1,-1.1 2.4,-2 3.8,-2.5 1.4,-0.6 2.9,-0.8 4.3,-0.8 1.5,0 2.8,0.2 3.9,0.6 1.1,0.4 2,1 2.7,1.7 0.7,0.7 1.2,1.5 1.5,2.4 0.3,0.9 0.5,1.9 0.5,2.9 v 11.6 c 0,0.8 0,1.5 0,2.2 0,0.7 0.1,1.3 0.1,1.9 h -3.5 c -0.1,-1.2 -0.1,-2.3 -0.1,-3.5 h -0.1 c -0.9,1.5 -1.9,2.5 -3.1,3.1 -1.2,0.6 -2.5,0.9 -4.1,0.9 -1,0 -1.9,-0.1 -2.7,-0.4 -0.9,-0.3 -1.6,-0.7 -2.3,-1.3 -0.6,-0.6 -1.2,-1.3 -1.5,-2.1 -0.4,-0.8 -0.6,-1.8 -0.6,-3 0,-1.5 0.3,-2.7 0.9,-3.7 0.6,-1 1.4,-1.8 2.4,-2.4 1,-0.6 2.2,-1.1 3.6,-1.3 1.4,-0.3 2.8,-0.4 4.4,-0.4 h 2.9 v -1 c 0,-0.6 -0.1,-1.2 -0.3,-1.7 -0.2,-0.6 -0.5,-1.1 -0.9,-1.6 -0.4,-0.5 -0.9,-0.8 -1.5,-1.1 -0.6,-0.3 -1.3,-0.4 -2.2,-0.4 -0.7,0 -1.4,0.1 -2,0.2 -0.6,0.1 -1.1,0.4 -1.5,0.6 -0.5,0.2 -0.9,0.5 -1.3,0.8 -0.4,0.3 -0.7,0.6 -1.1,0.9 z m 10.9,9 c -0.9,0 -1.9,0.1 -2.8,0.2 -1,0.1 -1.8,0.3 -2.6,0.6 -0.8,0.3 -1.4,0.8 -1.9,1.3 -0.5,0.5 -0.8,1.3 -0.8,2.2 0,1.3 0.4,2.3 1.2,2.8 0.8,0.6 1.9,0.9 3.2,0.9 1.1,0 2,-0.2 2.7,-0.6 0.7,-0.4 1.4,-0.9 1.8,-1.6 0.5,-0.6 0.8,-1.4 1,-2.1 0.2,-0.8 0.3,-1.6 0.3,-2.3 V 617 Z"
   id="path183"
   inkscape:connector-curvature="0" />
	<path
   d="m 2396.2,608.9 h -5.6 v 10.3 c 0,0.6 0,1.3 0,1.9 0,0.6 0.1,1.2 0.3,1.7 0.2,0.5 0.5,0.9 0.9,1.2 0.4,0.3 1,0.5 1.7,0.5 0.5,0 0.9,0 1.4,-0.1 0.5,-0.1 0.9,-0.3 1.3,-0.5 v 3.9 c -0.5,0.3 -1.1,0.5 -1.8,0.6 -0.7,0.1 -1.3,0.2 -1.7,0.2 -1.5,0 -2.7,-0.2 -3.5,-0.7 -0.8,-0.5 -1.4,-1.1 -1.8,-1.8 -0.4,-0.7 -0.6,-1.6 -0.7,-2.5 -0.1,-0.9 -0.1,-1.8 -0.1,-2.8 v -11.9 h -4.5 v -3.7 h 4.5 v -6.4 h 3.9 v 6.4 h 5.6 v 3.7 z"
   id="path185"
   inkscape:connector-curvature="0" />
	<path
   d="m 2419.3,627.9 h -3.9 v -3.5 h -0.1 c -0.5,1.2 -1.3,2.2 -2.5,3 -1.2,0.8 -2.6,1.1 -4.2,1.1 -1,0 -2,-0.2 -2.9,-0.5 -0.9,-0.3 -1.7,-0.9 -2.4,-1.6 -0.7,-0.7 -1.2,-1.6 -1.6,-2.7 -0.4,-1.1 -0.6,-2.4 -0.6,-3.9 v -14.6 h 3.9 v 13.4 c 0,1.1 0.1,2 0.4,2.7 0.3,0.8 0.6,1.4 1,1.8 0.4,0.5 0.9,0.8 1.5,1 0.6,0.2 1.1,0.3 1.8,0.3 0.8,0 1.6,-0.1 2.2,-0.4 0.7,-0.3 1.3,-0.7 1.8,-1.4 0.5,-0.6 0.9,-1.4 1.2,-2.4 0.3,-1 0.4,-2.1 0.4,-3.4 v -11.7 h 3.9 v 22.8 z"
   id="path187"
   inkscape:connector-curvature="0" />
	<path
   d="m 2425.2,605.2 h 3.9 v 3.5 h 0.1 c 0.3,-0.6 0.6,-1.2 1,-1.7 0.4,-0.5 0.9,-0.9 1.4,-1.3 0.5,-0.4 1.1,-0.6 1.8,-0.8 0.6,-0.2 1.3,-0.3 1.9,-0.3 0.6,0 1.2,0.1 1.7,0.3 l -0.2,4.7 c -0.3,-0.1 -0.6,-0.2 -1,-0.2 -0.3,-0.1 -0.6,-0.1 -1,-0.1 -1.9,0 -3.4,0.6 -4.4,1.8 -1,1.2 -1.5,3 -1.5,5.5 V 628 h -3.9 v -22.8 z"
   id="path189"
   inkscape:connector-curvature="0" />
	<path
   d="m 2443.3,618.2 c 0,1 0.2,1.9 0.6,2.7 0.4,0.8 0.9,1.5 1.5,2.1 0.6,0.6 1.4,1 2.2,1.3 0.8,0.3 1.7,0.5 2.6,0.5 1.2,0 2.3,-0.3 3.2,-0.9 0.9,-0.6 1.7,-1.4 2.5,-2.5 l 2.9,2.5 c -2.2,3.1 -5.2,4.7 -9.1,4.7 -1.6,0 -3.1,-0.3 -4.4,-0.9 -1.3,-0.6 -2.4,-1.4 -3.3,-2.5 -0.9,-1.1 -1.6,-2.3 -2.1,-3.8 -0.5,-1.5 -0.7,-3 -0.7,-4.7 0,-1.7 0.3,-3.3 0.8,-4.7 0.5,-1.4 1.3,-2.7 2.2,-3.8 0.9,-1.1 2.1,-1.9 3.3,-2.5 1.3,-0.6 2.7,-0.9 4.2,-0.9 1.8,0 3.3,0.4 4.6,1.1 1.3,0.7 2.3,1.6 3.1,2.8 0.8,1.2 1.4,2.4 1.8,3.8 0.4,1.4 0.5,2.9 0.5,4.3 v 1.5 h -16.4 z m 12.3,-3.5 c 0,-1 -0.2,-1.8 -0.4,-2.6 -0.2,-0.8 -0.6,-1.5 -1.1,-2.1 -0.5,-0.6 -1.1,-1.1 -1.8,-1.4 -0.7,-0.3 -1.6,-0.5 -2.6,-0.5 -1,0 -1.8,0.2 -2.6,0.6 -0.8,0.4 -1.5,0.9 -2,1.6 -0.5,0.6 -1,1.4 -1.3,2.1 -0.3,0.8 -0.5,1.6 -0.5,2.3 z"
   id="path191"
   inkscape:connector-curvature="0" />
	<path
   d="m 2478.3,620.8 c 0.7,1.2 1.7,2.2 2.9,2.8 1.2,0.6 2.4,0.9 3.6,0.9 0.7,0 1.4,-0.1 2.1,-0.4 0.7,-0.2 1.4,-0.6 2,-1.1 0.6,-0.5 1.1,-1.1 1.4,-1.8 0.3,-0.7 0.6,-1.5 0.6,-2.4 0,-1.3 -0.4,-2.3 -1.1,-3 -0.7,-0.7 -1.7,-1.3 -2.8,-1.7 -1.1,-0.4 -2.3,-0.9 -3.6,-1.3 -1.3,-0.4 -2.5,-1 -3.6,-1.8 -1.1,-0.8 -2,-1.8 -2.8,-3.1 -0.8,-1.3 -1.1,-3 -1.1,-5.3 0,-1 0.2,-2 0.6,-3.2 0.4,-1.1 1,-2.1 1.8,-3.1 0.8,-0.9 1.9,-1.7 3.2,-2.3 1.3,-0.6 2.9,-0.9 4.7,-0.9 1.7,0 3.3,0.3 4.8,0.8 1.5,0.5 2.9,1.6 4,3.1 l -3.4,3.4 c -0.5,-0.9 -1.3,-1.6 -2.2,-2.2 -1,-0.5 -2,-0.8 -3.2,-0.8 -1.2,0 -2.1,0.2 -2.9,0.5 -0.8,0.3 -1.4,0.8 -1.8,1.3 -0.5,0.5 -0.8,1.1 -1,1.7 -0.2,0.6 -0.3,1.2 -0.3,1.7 0,1.4 0.4,2.5 1.1,3.3 0.7,0.8 1.7,1.4 2.8,1.9 1.1,0.5 2.3,0.9 3.6,1.3 1.3,0.4 2.5,0.9 3.6,1.6 1.1,0.7 2,1.6 2.8,2.8 0.8,1.2 1.1,2.8 1.1,4.8 0,1.6 -0.3,3.1 -0.8,4.4 -0.6,1.3 -1.3,2.4 -2.3,3.3 -1,0.9 -2.1,1.6 -3.4,2.1 -1.3,0.5 -2.7,0.7 -4.1,0.7 -2,0 -3.8,-0.4 -5.6,-1.2 -1.8,-0.8 -3.2,-2 -4.2,-3.6 z"
   id="path193"
   inkscape:connector-curvature="0" />
	<path
   d="m 2503.4,618.2 c 0,1 0.2,1.9 0.6,2.7 0.4,0.8 0.9,1.5 1.5,2.1 0.6,0.6 1.4,1 2.2,1.3 0.8,0.3 1.7,0.5 2.6,0.5 1.2,0 2.3,-0.3 3.2,-0.9 0.9,-0.6 1.7,-1.4 2.5,-2.5 l 2.9,2.5 c -2.2,3.1 -5.2,4.7 -9.1,4.7 -1.6,0 -3.1,-0.3 -4.4,-0.9 -1.3,-0.6 -2.4,-1.4 -3.3,-2.5 -0.9,-1.1 -1.6,-2.3 -2.1,-3.8 -0.5,-1.5 -0.7,-3 -0.7,-4.7 0,-1.7 0.3,-3.3 0.8,-4.7 0.5,-1.4 1.3,-2.7 2.2,-3.8 0.9,-1.1 2.1,-1.9 3.3,-2.5 1.3,-0.6 2.7,-0.9 4.2,-0.9 1.8,0 3.3,0.4 4.6,1.1 1.3,0.7 2.3,1.6 3.1,2.8 0.8,1.2 1.4,2.4 1.8,3.8 0.4,1.4 0.5,2.9 0.5,4.3 v 1.5 h -16.4 z m 12.2,-3.5 c 0,-1 -0.2,-1.8 -0.4,-2.6 -0.2,-0.8 -0.6,-1.5 -1.1,-2.1 -0.5,-0.6 -1.1,-1.1 -1.8,-1.4 -0.7,-0.3 -1.6,-0.5 -2.6,-0.5 -1,0 -1.8,0.2 -2.6,0.6 -0.8,0.4 -1.5,0.9 -2,1.6 -0.5,0.6 -1,1.4 -1.3,2.1 -0.3,0.8 -0.5,1.6 -0.5,2.3 z"
   id="path195"
   inkscape:connector-curvature="0" />
	<path
   d="m 2524.5,605.2 h 3.9 v 3.5 h 0.1 c 0.5,-1.2 1.3,-2.2 2.5,-3 1.2,-0.8 2.6,-1.1 4.2,-1.1 1,0 1.9,0.2 2.8,0.5 0.9,0.3 1.7,0.9 2.4,1.6 0.7,0.7 1.2,1.6 1.6,2.7 0.4,1.1 0.6,2.4 0.6,3.9 v 14.6 h -3.9 v -13.4 c 0,-1.1 -0.1,-2 -0.4,-2.7 -0.3,-0.8 -0.6,-1.4 -1,-1.8 -0.4,-0.4 -0.9,-0.8 -1.5,-1 -0.6,-0.2 -1.1,-0.3 -1.7,-0.3 -0.8,0 -1.6,0.1 -2.2,0.4 -0.7,0.3 -1.3,0.7 -1.8,1.4 -0.5,0.7 -0.9,1.4 -1.2,2.4 -0.3,1 -0.4,2.1 -0.4,3.4 V 628 h -3.9 v -22.8 z"
   id="path197"
   inkscape:connector-curvature="0" />
	<path
   d="m 2559.4,610.9 c -0.5,-0.6 -1,-1.2 -1.7,-1.6 -0.7,-0.4 -1.5,-0.6 -2.5,-0.6 -0.9,0 -1.7,0.2 -2.4,0.6 -0.7,0.4 -1,1.1 -1,1.9 0,0.7 0.2,1.2 0.6,1.6 0.4,0.4 0.8,0.8 1.4,1 0.5,0.3 1.1,0.4 1.7,0.6 0.6,0.1 1.1,0.2 1.6,0.3 0.8,0.2 1.6,0.5 2.4,0.8 0.7,0.3 1.4,0.7 1.9,1.2 0.5,0.5 1,1.1 1.3,1.9 0.3,0.7 0.5,1.6 0.5,2.7 0,1.3 -0.2,2.4 -0.7,3.3 -0.5,0.9 -1.1,1.7 -1.9,2.2 -0.8,0.6 -1.7,1 -2.7,1.2 -1,0.3 -2,0.4 -3,0.4 -1.7,0 -3.2,-0.3 -4.5,-0.9 -1.3,-0.6 -2.4,-1.6 -3.4,-3.2 l 2.9,-2.7 c 0.6,0.7 1.3,1.3 2.1,1.9 0.8,0.5 1.7,0.8 2.9,0.8 0.5,0 1,-0.1 1.5,-0.2 0.5,-0.1 1,-0.3 1.3,-0.5 0.4,-0.2 0.7,-0.5 1,-0.9 0.2,-0.4 0.4,-0.8 0.4,-1.3 0,-0.6 -0.2,-1.2 -0.5,-1.6 -0.4,-0.4 -0.8,-0.7 -1.3,-1 -0.5,-0.2 -1,-0.4 -1.6,-0.6 -0.6,-0.1 -1.1,-0.3 -1.5,-0.4 -0.8,-0.2 -1.6,-0.5 -2.4,-0.8 -0.8,-0.3 -1.4,-0.7 -2,-1.2 -0.6,-0.5 -1,-1.1 -1.4,-1.8 -0.3,-0.7 -0.5,-1.6 -0.5,-2.7 0,-1.2 0.2,-2.2 0.7,-3.1 0.4,-0.9 1,-1.6 1.8,-2.2 0.7,-0.6 1.6,-1 2.5,-1.3 0.9,-0.3 1.9,-0.4 2.8,-0.4 1.4,0 2.7,0.3 4,0.9 1.3,0.6 2.3,1.5 3,2.9 z"
   id="path199"
   inkscape:connector-curvature="0" />
	<path
   d="m 2566.7,616.6 c 0,-1.7 0.3,-3.2 0.8,-4.7 0.6,-1.4 1.3,-2.7 2.3,-3.8 1,-1.1 2.1,-1.9 3.5,-2.6 1.3,-0.6 2.7,-0.9 4.3,-0.9 1.5,0 3,0.3 4.3,0.9 1.3,0.6 2.5,1.5 3.5,2.6 1,1.1 1.8,2.4 2.3,3.8 0.6,1.4 0.8,3 0.8,4.7 0,1.7 -0.3,3.2 -0.8,4.7 -0.6,1.5 -1.3,2.7 -2.3,3.8 -1,1.1 -2.1,1.9 -3.5,2.5 -1.3,0.6 -2.8,0.9 -4.3,0.9 -1.5,0 -3,-0.3 -4.3,-0.9 -1.3,-0.6 -2.5,-1.5 -3.5,-2.5 -1,-1.1 -1.7,-2.3 -2.3,-3.8 -0.6,-1.5 -0.8,-3.1 -0.8,-4.7 z m 4.1,0 c 0,1.2 0.2,2.2 0.5,3.2 0.3,1 0.8,1.8 1.3,2.5 0.6,0.7 1.3,1.2 2.1,1.6 0.8,0.4 1.8,0.6 2.8,0.6 1,0 2,-0.2 2.8,-0.6 0.8,-0.4 1.5,-0.9 2.1,-1.6 0.6,-0.7 1,-1.5 1.3,-2.5 0.3,-1 0.5,-2 0.5,-3.2 0,-1.2 -0.2,-2.2 -0.5,-3.2 -0.3,-1 -0.8,-1.8 -1.3,-2.5 -0.6,-0.7 -1.3,-1.2 -2.1,-1.6 -0.8,-0.4 -1.8,-0.6 -2.8,-0.6 -1,0 -2,0.2 -2.8,0.6 -0.8,0.4 -1.5,0.9 -2.1,1.6 -0.6,0.7 -1,1.5 -1.3,2.5 -0.3,1 -0.5,2 -0.5,3.2 z"
   id="path201"
   inkscape:connector-curvature="0" />
	<path
   d="m 2593.3,605.2 h 3.9 v 3.5 h 0.1 c 0.3,-0.6 0.6,-1.2 1,-1.7 0.4,-0.5 0.9,-0.9 1.4,-1.3 0.5,-0.4 1.1,-0.6 1.8,-0.8 0.6,-0.2 1.3,-0.3 1.9,-0.3 0.6,0 1.2,0.1 1.7,0.3 l -0.2,4.7 c -0.3,-0.1 -0.6,-0.2 -1,-0.2 -0.3,-0.1 -0.6,-0.1 -1,-0.1 -1.9,0 -3.4,0.6 -4.4,1.8 -1,1.2 -1.5,3 -1.5,5.5 V 628 h -3.9 v -22.8 z"
   id="path203"
   inkscape:connector-curvature="0" />
</g>
<g
   id="g231"
   transform="translate(-416.1,-169.5)">
	<path
   d="m 416.1,1040.3 h 10.8 c 2,0 3.6,0.3 4.8,0.9 1.3,0.6 2.3,1.3 3,2.3 0.7,1 1.2,1.9 1.5,3.1 0.3,1.1 0.4,2.2 0.4,3.3 0,1.1 -0.1,2.2 -0.4,3.3 -0.3,1.1 -0.8,2.2 -1.5,3.1 -0.7,0.9 -1.7,1.7 -3,2.3 -1.3,0.6 -2.9,0.9 -4.8,0.9 h -6.6 v 15 h -4.1 v -34.2 z m 4.2,15 h 5.4 c 0.8,0 1.6,-0.1 2.4,-0.2 0.8,-0.1 1.5,-0.4 2.1,-0.8 0.6,-0.4 1.1,-0.9 1.5,-1.7 0.4,-0.7 0.6,-1.7 0.6,-2.8 0,-1.2 -0.2,-2.1 -0.6,-2.8 -0.4,-0.7 -0.9,-1.3 -1.5,-1.7 -0.6,-0.4 -1.3,-0.6 -2.1,-0.8 -0.8,-0.1 -1.6,-0.2 -2.4,-0.2 h -5.4 z"
   id="path207"
   inkscape:connector-curvature="0" />
	<path
   d="m 440.7,1051.5 h 3.9 v 3.5 h 0.1 c 0.3,-0.6 0.6,-1.2 1,-1.7 0.4,-0.5 0.9,-0.9 1.4,-1.3 0.5,-0.4 1.1,-0.6 1.7,-0.8 0.6,-0.2 1.3,-0.3 1.9,-0.3 0.6,0 1.2,0.1 1.7,0.3 l -0.2,4.7 c -0.3,-0.1 -0.6,-0.2 -1,-0.2 -0.3,-0.1 -0.6,-0.1 -1,-0.1 -1.9,0 -3.4,0.6 -4.4,1.8 -1,1.2 -1.5,3 -1.5,5.5 v 11.4 h -3.9 v -22.8 z"
   id="path209"
   inkscape:connector-curvature="0" />
	<path
   d="m 458.9,1064.5 c 0,1 0.2,1.9 0.6,2.7 0.4,0.8 0.9,1.5 1.5,2.1 0.6,0.6 1.4,1 2.2,1.3 0.8,0.3 1.7,0.5 2.6,0.5 1.2,0 2.3,-0.3 3.2,-0.9 0.9,-0.6 1.7,-1.4 2.5,-2.5 l 2.9,2.5 c -2.2,3.1 -5.2,4.7 -9.1,4.7 -1.6,0 -3.1,-0.3 -4.4,-0.9 -1.3,-0.6 -2.4,-1.4 -3.3,-2.5 -0.9,-1.1 -1.6,-2.3 -2.1,-3.8 -0.5,-1.5 -0.7,-3 -0.7,-4.7 0,-1.7 0.3,-3.3 0.8,-4.7 0.5,-1.5 1.3,-2.7 2.2,-3.8 0.9,-1.1 2.1,-1.9 3.3,-2.5 1.3,-0.6 2.7,-0.9 4.2,-0.9 1.8,0 3.3,0.4 4.6,1.1 1.3,0.7 2.3,1.6 3.1,2.8 0.8,1.1 1.4,2.4 1.7,3.8 0.4,1.4 0.5,2.9 0.5,4.3 v 1.5 h -16.3 z m 12.3,-3.5 c 0,-1 -0.2,-1.8 -0.4,-2.6 -0.2,-0.8 -0.6,-1.5 -1.1,-2.1 -0.5,-0.6 -1.1,-1.1 -1.8,-1.4 -0.7,-0.3 -1.6,-0.5 -2.6,-0.5 -1,0 -1.8,0.2 -2.6,0.6 -0.8,0.4 -1.5,0.9 -2,1.6 -0.5,0.6 -1,1.4 -1.3,2.1 -0.3,0.8 -0.5,1.6 -0.5,2.3 z"
   id="path211"
   inkscape:connector-curvature="0" />
	<path
   d="m 490.9,1057.2 c -0.5,-0.6 -1,-1.2 -1.7,-1.6 -0.7,-0.4 -1.5,-0.6 -2.5,-0.6 -0.9,0 -1.7,0.2 -2.4,0.6 -0.7,0.4 -1,1.1 -1,1.9 0,0.7 0.2,1.2 0.6,1.6 0.4,0.4 0.8,0.8 1.4,1 0.5,0.3 1.1,0.4 1.7,0.6 0.6,0.1 1.1,0.2 1.6,0.3 0.8,0.2 1.6,0.5 2.4,0.8 0.7,0.3 1.4,0.7 1.9,1.2 0.5,0.5 1,1.1 1.3,1.9 0.3,0.7 0.5,1.6 0.5,2.7 0,1.3 -0.2,2.4 -0.7,3.3 -0.5,0.9 -1.1,1.7 -1.9,2.2 -0.8,0.6 -1.7,1 -2.7,1.2 -1,0.3 -2,0.4 -3,0.4 -1.7,0 -3.2,-0.3 -4.5,-0.9 -1.3,-0.6 -2.4,-1.6 -3.4,-3.2 l 2.9,-2.7 c 0.6,0.7 1.3,1.3 2.1,1.9 0.8,0.5 1.7,0.8 2.9,0.8 0.5,0 1,-0.1 1.5,-0.2 0.5,-0.1 1,-0.3 1.3,-0.5 0.4,-0.2 0.7,-0.5 1,-0.9 0.2,-0.4 0.4,-0.8 0.4,-1.3 0,-0.6 -0.2,-1.2 -0.5,-1.6 -0.4,-0.4 -0.8,-0.7 -1.3,-1 -0.5,-0.2 -1,-0.4 -1.6,-0.6 -0.6,-0.1 -1.1,-0.3 -1.5,-0.4 -0.8,-0.2 -1.6,-0.5 -2.4,-0.8 -0.7,-0.3 -1.4,-0.7 -2,-1.2 -0.6,-0.5 -1,-1.1 -1.4,-1.8 -0.3,-0.7 -0.5,-1.6 -0.5,-2.7 0,-1.2 0.2,-2.2 0.7,-3.1 0.4,-0.9 1,-1.6 1.8,-2.2 0.7,-0.6 1.6,-1 2.5,-1.3 0.9,-0.3 1.9,-0.4 2.8,-0.4 1.4,0 2.7,0.3 4,0.9 1.3,0.6 2.3,1.5 3,2.9 z"
   id="path213"
   inkscape:connector-curvature="0" />
	<path
   d="m 510,1057.2 c -0.5,-0.6 -1,-1.2 -1.7,-1.6 -0.7,-0.4 -1.5,-0.6 -2.5,-0.6 -0.9,0 -1.7,0.2 -2.4,0.6 -0.7,0.4 -1,1.1 -1,1.9 0,0.7 0.2,1.2 0.6,1.6 0.4,0.4 0.8,0.8 1.4,1 0.5,0.3 1.1,0.4 1.7,0.6 0.6,0.1 1.1,0.2 1.6,0.3 0.8,0.2 1.6,0.5 2.4,0.8 0.7,0.3 1.4,0.7 1.9,1.2 0.5,0.5 1,1.1 1.3,1.9 0.3,0.7 0.5,1.6 0.5,2.7 0,1.3 -0.2,2.4 -0.7,3.3 -0.5,0.9 -1.1,1.7 -1.9,2.2 -0.8,0.6 -1.7,1 -2.7,1.2 -1,0.3 -2,0.4 -3,0.4 -1.7,0 -3.2,-0.3 -4.5,-0.9 -1.3,-0.6 -2.4,-1.6 -3.4,-3.2 l 2.9,-2.7 c 0.6,0.7 1.3,1.3 2.1,1.9 0.8,0.5 1.7,0.8 2.9,0.8 0.5,0 1,-0.1 1.5,-0.2 0.5,-0.1 1,-0.3 1.3,-0.5 0.4,-0.2 0.7,-0.5 1,-0.9 0.2,-0.4 0.4,-0.8 0.4,-1.3 0,-0.6 -0.2,-1.2 -0.5,-1.6 -0.4,-0.4 -0.8,-0.7 -1.3,-1 -0.5,-0.2 -1,-0.4 -1.6,-0.6 -0.6,-0.1 -1.1,-0.3 -1.5,-0.4 -0.8,-0.2 -1.6,-0.5 -2.4,-0.8 -0.7,-0.3 -1.4,-0.7 -2,-1.2 -0.6,-0.5 -1,-1.1 -1.4,-1.8 -0.3,-0.7 -0.5,-1.6 -0.5,-2.7 0,-1.2 0.2,-2.2 0.7,-3.1 0.4,-0.9 1,-1.6 1.8,-2.2 0.7,-0.6 1.6,-1 2.5,-1.3 0.9,-0.3 1.9,-0.4 2.8,-0.4 1.4,0 2.7,0.3 4,0.9 1.3,0.6 2.3,1.5 3,2.9 z"
   id="path215"
   inkscape:connector-curvature="0" />
	<path
   d="m 536.5,1074.3 h -3.9 v -3.5 h -0.1 c -0.5,1.2 -1.3,2.2 -2.5,3 -1.2,0.8 -2.6,1.1 -4.2,1.1 -1,0 -2,-0.2 -2.9,-0.5 -0.9,-0.3 -1.7,-0.9 -2.4,-1.6 -0.7,-0.7 -1.2,-1.6 -1.6,-2.7 -0.4,-1.1 -0.6,-2.4 -0.6,-3.9 v -14.6 h 3.9 v 13.4 c 0,1.1 0.1,2 0.4,2.7 0.3,0.8 0.6,1.4 1,1.8 0.4,0.5 0.9,0.8 1.5,1 0.6,0.2 1.1,0.3 1.7,0.3 0.8,0 1.6,-0.1 2.2,-0.4 0.7,-0.3 1.3,-0.7 1.8,-1.4 0.5,-0.6 0.9,-1.4 1.2,-2.4 0.3,-1 0.4,-2.1 0.4,-3.4 v -11.7 h 3.9 v 22.8 z"
   id="path217"
   inkscape:connector-curvature="0" />
	<path
   d="m 542.3,1051.5 h 3.9 v 3.5 h 0.1 c 0.3,-0.6 0.6,-1.2 1,-1.7 0.4,-0.5 0.9,-0.9 1.4,-1.3 0.5,-0.4 1.1,-0.6 1.7,-0.8 0.6,-0.2 1.3,-0.3 1.9,-0.3 0.6,0 1.2,0.1 1.7,0.3 l -0.2,4.7 c -0.3,-0.1 -0.6,-0.2 -1,-0.2 -0.3,-0.1 -0.6,-0.1 -1,-0.1 -1.9,0 -3.4,0.6 -4.4,1.8 -1,1.2 -1.5,3 -1.5,5.5 v 11.4 H 542 v -22.8 z"
   id="path219"
   inkscape:connector-curvature="0" />
	<path
   d="m 560.5,1064.5 c 0,1 0.2,1.9 0.6,2.7 0.4,0.8 0.9,1.5 1.5,2.1 0.6,0.6 1.4,1 2.2,1.3 0.8,0.3 1.7,0.5 2.6,0.5 1.2,0 2.3,-0.3 3.2,-0.9 0.9,-0.6 1.7,-1.4 2.5,-2.5 l 2.9,2.5 c -2.2,3.1 -5.2,4.7 -9.1,4.7 -1.6,0 -3.1,-0.3 -4.4,-0.9 -1.3,-0.6 -2.4,-1.4 -3.3,-2.5 -0.9,-1.1 -1.6,-2.3 -2.1,-3.8 -0.5,-1.5 -0.7,-3 -0.7,-4.7 0,-1.7 0.3,-3.3 0.8,-4.7 0.5,-1.5 1.3,-2.7 2.2,-3.8 0.9,-1.1 2.1,-1.9 3.3,-2.5 1.3,-0.6 2.7,-0.9 4.2,-0.9 1.8,0 3.3,0.4 4.6,1.1 1.3,0.7 2.3,1.6 3.1,2.8 0.8,1.1 1.4,2.4 1.7,3.8 0.4,1.4 0.5,2.9 0.5,4.3 v 1.5 h -16.3 z m 12.3,-3.5 c 0,-1 -0.2,-1.8 -0.4,-2.6 -0.2,-0.8 -0.6,-1.5 -1.1,-2.1 -0.5,-0.6 -1.1,-1.1 -1.8,-1.4 -0.7,-0.3 -1.6,-0.5 -2.6,-0.5 -1,0 -1.8,0.2 -2.6,0.6 -0.8,0.4 -1.5,0.9 -2,1.6 -0.5,0.6 -1,1.4 -1.3,2.1 -0.3,0.8 -0.5,1.6 -0.5,2.3 z"
   id="path221"
   inkscape:connector-curvature="0" />
	<path
   d="m 601,1044.6 h -9.8 v -4.3 H 615 v 4.3 h -9.8 v 29.7 H 601 Z"
   id="path223"
   inkscape:connector-curvature="0" />
	<path
   d="m 613.7,1054.3 c 1.1,-1.1 2.4,-2 3.8,-2.5 1.4,-0.6 2.9,-0.8 4.3,-0.8 1.5,0 2.8,0.2 3.9,0.6 1.1,0.4 2,1 2.7,1.7 0.7,0.7 1.2,1.5 1.5,2.4 0.3,0.9 0.5,1.9 0.5,2.9 v 11.6 c 0,0.8 0,1.5 0,2.2 0,0.7 0.1,1.3 0.1,1.9 H 627 c -0.1,-1.2 -0.1,-2.3 -0.1,-3.5 h -0.1 c -0.9,1.5 -1.9,2.5 -3.1,3.1 -1.2,0.6 -2.5,0.9 -4.1,0.9 -1,0 -1.9,-0.1 -2.7,-0.4 -0.9,-0.3 -1.6,-0.7 -2.3,-1.3 -0.6,-0.6 -1.2,-1.3 -1.5,-2.1 -0.4,-0.8 -0.6,-1.8 -0.6,-3 0,-1.5 0.3,-2.7 0.9,-3.7 0.6,-1 1.4,-1.8 2.4,-2.4 1,-0.6 2.2,-1.1 3.6,-1.3 1.4,-0.3 2.8,-0.4 4.4,-0.4 h 2.9 v -1 c 0,-0.6 -0.1,-1.2 -0.3,-1.7 -0.2,-0.6 -0.5,-1.1 -0.9,-1.6 -0.4,-0.5 -0.9,-0.8 -1.5,-1.1 -0.6,-0.3 -1.3,-0.4 -2.2,-0.4 -0.7,0 -1.4,0.1 -2,0.2 -0.6,0.1 -1.1,0.4 -1.5,0.6 -0.5,0.2 -0.9,0.5 -1.3,0.8 -0.4,0.3 -0.7,0.6 -1.1,0.9 z m 10.9,9 c -0.9,0 -1.9,0.1 -2.8,0.2 -1,0.1 -1.8,0.3 -2.6,0.6 -0.8,0.3 -1.4,0.8 -1.9,1.3 -0.5,0.6 -0.8,1.3 -0.8,2.2 0,1.3 0.4,2.3 1.2,2.8 0.8,0.6 1.9,0.9 3.2,0.9 1.1,0 2,-0.2 2.7,-0.6 0.7,-0.4 1.4,-0.9 1.8,-1.6 0.5,-0.6 0.8,-1.4 1,-2.1 0.2,-0.8 0.3,-1.6 0.3,-2.3 v -1.4 z"
   id="path225"
   inkscape:connector-curvature="0" />
	<path
   d="m 636,1051.5 h 3.9 v 3.5 h 0.1 c 0.5,-1.2 1.3,-2.2 2.5,-3 1.2,-0.8 2.6,-1.1 4.2,-1.1 1,0 1.9,0.2 2.8,0.5 0.9,0.3 1.7,0.9 2.4,1.6 0.7,0.7 1.2,1.6 1.6,2.7 0.4,1.1 0.6,2.4 0.6,3.9 v 14.6 h -3.9 v -13.4 c 0,-1.1 -0.1,-2 -0.4,-2.7 -0.3,-0.8 -0.6,-1.4 -1,-1.8 -0.4,-0.5 -0.9,-0.8 -1.5,-1 -0.6,-0.2 -1.1,-0.3 -1.7,-0.3 -0.8,0 -1.6,0.1 -2.2,0.4 -0.7,0.3 -1.3,0.7 -1.8,1.4 -0.5,0.6 -0.9,1.4 -1.2,2.4 -0.3,1 -0.4,2.1 -0.4,3.4 v 11.7 h -4 z"
   id="path227"
   inkscape:connector-curvature="0" />
	<path
   d="m 660,1038 h 3.9 v 23.4 l 8.8,-9.8 h 5.4 l -9.5,10.3 10.4,12.4 h -5.5 l -9.5,-11.8 v 11.8 h -4 z"
   id="path229"
   inkscape:connector-curvature="0" />
</g>
<g
   id="g1140"
   transform="matrix(0.9600515,0,0,0.9600515,1214.709,744.14438)"><g
     id="g1081"
     style="fill:#57a4ff"><path
       id="path1045"
       d="m 445.32812,304 -13.33593,-64 h -56 l 8,64 z m 0,0"
       inkscape:connector-curvature="0" /><path
       id="path1047"
       d="m 170.65625,304 -5.32813,64 h 74.66407 v -64 z m 0,0"
       inkscape:connector-curvature="0" /><path
       id="path1049"
       d="m 309.35547,304 h -0.0274 l 5.32813,64 h 77.33594 l -8,-64 z m 0,0"
       inkscape:connector-curvature="0" /><path
       id="path1051"
       d="M 170.63281,304 H 95.992188 l -8,64 h 77.335932 l 5.32813,-64 z m 0,0"
       inkscape:connector-curvature="0" /><path
       id="path1053"
       d="m 309.35547,304 h 74.63672 l -8,-64 h -72 l 5.33594,64 z m 0,0"
       inkscape:connector-curvature="0" /><path
       id="path1055"
       d="M 103.99219,240 H 47.992188 L 34.65625,304 h 61.335938 z m 0,0"
       inkscape:connector-curvature="0" /><path
       id="path1057"
       d="m 239.99219,304 v 64 h 74.66406 l -5.32813,-64 z m 0,0"
       inkscape:connector-curvature="0" /><path
       id="path1059"
       d="m 239.99219,368 h -74.66407 l -5.33593,64 h 80 z m 0,0"
       inkscape:connector-curvature="0" /><path
       id="path1061"
       d="m 87.992188,368 -8,64 h 80.000002 l 5.33593,-64 z m 0,0"
       inkscape:connector-curvature="0" /><path
       id="path1063"
       d="m 309.32812,304 -5.33593,-64 h -64 v 64 z m 0,0"
       inkscape:connector-curvature="0" /><path
       id="path1065"
       d="m 458.65625,368 h -66.66406 l 8,64 h 72 z m 0,0"
       inkscape:connector-curvature="0" /><path
       id="path1067"
       d="m 445.32812,304 h -61.33593 l 8,64 h 66.66406 z m 0,0"
       inkscape:connector-curvature="0" /><path
       id="path1069"
       d="m 21.328125,368 h 66.664063 l 8,-64 H 34.65625 Z m 0,0"
       inkscape:connector-curvature="0" /><path
       id="path1071"
       d="m 7.992188,432 h 72 l 8,-64 H 21.328125 Z m 0,0"
       inkscape:connector-curvature="0" /><path
       id="path1073"
       d="m 391.99219,368 h -77.33594 l 5.33594,64 h 80 z m 0,0"
       inkscape:connector-curvature="0" /><path
       id="path1075"
       d="m 170.63281,304 h 0.0234 l 5.33594,-64 h -72 l -8.000002,64 z m 0,0"
       inkscape:connector-curvature="0" /><path
       id="path1077"
       d="m 239.99219,304 v -64 h -64 l -5.33594,64 z m 0,0"
       inkscape:connector-curvature="0" /><path
       id="path1079"
       d="m 314.63281,368 h -74.64062 v 64 h 80 l -5.33594,-64 z m 0,0"
       inkscape:connector-curvature="0" /></g><path
     id="path1083"
     d="M 439.82422,238.39844 C 439.06641,234.67578 435.79297,232.00391 431.99219,232 H 47.992188 c -3.796876,0.004 -7.070313,2.67578 -7.832032,6.39844 l -40,192 c -0.480468,2.35547 0.125,4.79687 1.640625,6.66015 C 3.320312,438.91797 5.59375,440 7.992188,440 H 191.99219 v 40 h 96 v -40 h 184 c 2.40234,0 4.67578,-1.08203 6.19531,-2.94141 1.51563,-1.86328 2.11719,-4.30468 1.63672,-6.66015 z M 322.01953,360 l -4,-48 h 58.91016 l 6,48 z m 62.91016,16 6,48 h -63.57422 l -4,-48 z M 97.058594,360 103.05859,312 h 58.91016 l -4,48 z m 59.574216,16 -4,48 H 89.058594 l 6,-48 z M 80.929688,360 H 31.195312 L 41.203125,312 H 86.960938 Z M 300.63281,296 h -52.64062 v -48 h 48.64062 z m 12.04688,-48 h 56.25 l 6,48 h -58.25 z m -80.6875,48 h -52.63672 l 4,-48 h 48.63672 z m -68.6875,0 h -58.2461 l 6,-48 h 56.2461 z m 14.71484,16 h 53.97266 v 48 h -57.97266 z m 69.97266,0 h 53.97656 l 4,48 h -57.97656 z m 145.0664,0 h 45.75782 l 9.97656,48 h -49.73438 z m 42.39844,-16 h -44.39844 l -6,-48 h 40.42969 z M 54.496094,248 h 40.433594 l -6,48 H 44.496094 Z M 27.832031,376 h 51.097657 l -6,48 H 17.824219 Z m 140.847659,48 4,-48 h 59.3125 v 48 z m 103.3125,40 h -64 v -24 h 64 z m -24,-40 v -48 h 59.3125 l 4,48 z m 159.0664,0 -6,-48 h 51.09375 l 10.00782,48 z m 0,0"
     inkscape:connector-curvature="0"
     style="fill:#1e81ce" /><path
     id="path1085"
     d="m 239.99219,176 c 35.34765,0 64,-28.65234 64,-64 0,-35.347656 -28.65235,-64 -64,-64 -35.34375,0 -64,28.652344 -64,64 0.043,35.32812 28.67187,63.96094 64,64 z m 0,-112 c 26.51172,0 48,21.492188 48,48 0,26.50781 -21.48828,48 -48,48 -26.50782,0 -48,-21.49219 -48,-48 0.0273,-26.5 21.5039,-47.972656 48,-48 z m 0,0"
     inkscape:connector-curvature="0"
     style="fill:#1e81ce" /><path
     id="path1087"
     d="m 231.99219,0 h 16 v 32 h -16 z m 0,0"
     inkscape:connector-curvature="0"
     style="fill:#1e81ce" /><path
     id="path1089"
     d="m 155.14844,38.457031 11.3125,-11.3125 22.6289,22.625 -11.3164,11.316407 z m 0,0"
     inkscape:connector-curvature="0"
     style="fill:#1e81ce" /><path
     id="path1091"
     d="m 127.99219,104 h 32 v 16 h -32 z m 0,0"
     inkscape:connector-curvature="0"
     style="fill:#1e81ce" /><path
     id="path1093"
     d="m 155.14453,185.53516 22.62891,-22.625 11.3125,11.3125 -22.62891,22.6289 z m 0,0"
     inkscape:connector-curvature="0"
     style="fill:#1e81ce" /><path
     id="path1095"
     d="m 231.99219,192 h 16 v 32 h -16 z m 0,0"
     inkscape:connector-curvature="0"
     style="fill:#1e81ce" /><path
     id="path1097"
     d="m 290.90625,174.23047 11.3125,-11.3125 22.62891,22.625 -11.3125,11.3164 z m 0,0"
     inkscape:connector-curvature="0"
     style="fill:#1e81ce" /><path
     id="path1099"
     d="m 319.99219,104 h 32 v 16 h -32 z m 0,0"
     inkscape:connector-curvature="0"
     style="fill:#1e81ce" /><path
     id="path1101"
     d="m 290.91016,49.769531 22.6289,-22.628906 11.3125,11.3125 -22.6289,22.628906 z m 0,0"
     inkscape:connector-curvature="0"
     style="fill:#1e81ce" /></g></svg>