<?xml version="1.0" encoding="utf-8"?>
<!-- Generator: Adobe Illustrator 21.0.2, SVG Export Plug-In . SVG Version: 6.00 Build 0)  -->
<svg version="1.1" id="Layer_1" xmlns="http://www.w3.org/2000/svg" xmlns:xlink="http://www.w3.org/1999/xlink" x="0px" y="0px"
	 viewBox="0 0 3179 1237.8" style="enable-background:new 0 0 3179 1237.8;" xml:space="preserve">
<style type="text/css">
	.st0{fill:#C7C9C7;}
	.st1{fill:#AFB7BC;}
	.st2{fill:#CDCACE;}
	.st3{fill:#4499D4;}
	.st4{fill:#64A9D9;}
	.st5{fill:#3F8EC9;}
	.st6{fill:#2C7FBA;}
	.st7{fill:#FDB62D;}
	.st8{fill:#020202;}
	.st9{fill:#EDE9E8;}
	.st10{fill:#DFD7D5;}
	.st11{fill:#8FE1FF;}
	.st12{fill:#73BCFF;}
	.st13{fill:#3A96FF;}
	.st14{fill:#9B9B9B;}
	.st15{fill:#E8EDEE;}
	.st16{fill:#FFFFFF;}
	.st17{fill:#E15649;}
	.st18{fill:#556080;}
	.st19{fill:#C7CBC7;}
	.st20{fill:#9B9B9B;stroke:#979797;}
	.st21{fill:#949493;}
	.st22{font-family:'Helvetica-Bold';}
	.st23{font-size:13.6713px;}
</style>
<g id="Layer_4">
	<g id="Layer_2_1_">
		<rect x="1511.8" y="133.3" class="st0" width="1667.2" height="46.5"/>
		<rect x="2557" y="548.1" class="st1" width="20.1" height="64.7"/>
		<path class="st0" d="M2345.2,548l1.1-48l-53.5-1.3l-1.6,65.2c-0.5,21.8,19.4,39.9,44.3,40.5l85,2l1.1-46.5l-65.2-1.6
			C2350.2,558.2,2345.1,553.6,2345.2,548z"/>
		
			<rect x="1879" y="539.3" transform="matrix(1 -2.767029e-03 2.767029e-03 1 -1.5613 5.2173)" class="st1" width="11.5" height="55.1"/>
		
			<rect x="1133.9" y="121.2" transform="matrix(1 -2.766756e-03 2.766756e-03 1 -0.4072 3.1696)" class="st1" width="23" height="55.1"/>
		<rect x="1363.6" y="305.2" class="st1" width="13.1" height="69.7"/>
		<path class="st0" d="M1284.7,552.5l-0.7-48l-53.5,0.8l1,65.2c0.3,21.8,20.9,39.1,45.9,38.7l85-1.3l-0.7-46.5l-65.2,1
			C1290,562.5,1284.8,558.1,1284.7,552.5z"/>
		
			<rect x="2577.3" y="555.6" transform="matrix(1 -2.767092e-03 2.767092e-03 1 -1.6038 7.1462)" class="st1" width="8.9" height="55.1"/>
		<path class="st0" d="M1664.6,532.7l0-48l-53.5,0.1l0.1,65.2c0,21.8,20.3,39.4,45.3,39.4l85-0.1l0-46.5l-65.2,0.1
			C1669.8,542.8,1664.6,538.3,1664.6,532.7z"/>
		<rect x="2419.4" y="553.6" class="st1" width="14.4" height="56.7"/>
		<rect x="1873.6" y="528.1" class="st1" width="10" height="73.5"/>
		
			<rect x="1865.8" y="539.4" transform="matrix(1 -2.767029e-03 2.767029e-03 1 -1.5616 5.1809)" class="st1" width="11.5" height="55.1"/>
		
			<rect x="1734.9" y="538.2" transform="matrix(1 -2.767110e-03 2.767110e-03 1 -1.5587 4.8141)" class="st1" width="8.1" height="55.1"/>
		<rect x="1120.2" y="112" class="st1" width="20.1" height="73.5"/>
		
			<rect x="235.8" y="438.9" transform="matrix(1 -2.766756e-03 2.766756e-03 1 -1.2897 0.6861)" class="st1" width="23" height="55.1"/>
		
			<rect x="224.4" y="438.9" transform="matrix(1 -2.766756e-03 2.766756e-03 1 -1.2897 0.6545)" class="st1" width="23" height="55.1"/>
	</g>
	<g id="Page-1_3_">
		<g id="cable-line_1_">
			<path id="Shape_2_" class="st2" d="M2676.2,221.7c-20.7,17.6-47.1,46.2-55.6,82.3c-4.2,17.8-2.9,31.3,3.8,40.1
				c9.8,12.9,29.4,13.9,43.7,14.5c14.3,0.7,22.3,1.4,24.1,7.6c2.8,9.6,0.3,21.9-7.4,36.7l-12.9,24.8l53.9-9.8l12.9-24.8
				c12.9-24.9,17.2-46.8,12.4-63.5c-0.9-3.1-2.3-5.9-4.1-8.3c-8.8-11.6-26.7-12.5-41.1-13.1c-12.5-0.6-21.4-1-25.6-6.5
				c-3-3.9-3.3-10.4-1-20.3c4.5-19.1,15.8-30.5,23.9-37.4c39.3-33.5,115.8-53.1,142.2-57.9l-7,13.9l46.6-9.1l7.3-14.5l20.5,8
				l15.4-15.7l-22.5-8.8l53.6-21.2l3.1-14.5l-41.5,16.4l30.1-22.9l-6.7-8.9l-29.1,22.1l7.3-14.6l-46.6,9.1l-5.6,11.1
				C2853,139.9,2746.8,161.5,2676.2,221.7z"/>
		</g>
	</g>
	<g id="Page-1_4_">
		<g id="cable-line_2_">
			<path id="Shape_5_" class="st2" d="M1976.9,227.2c-20.7,17.6-47.1,46.2-55.6,82.3c-4.2,17.8-2.9,31.3,3.8,40.1
				c9.8,12.9,29.4,13.9,43.7,14.5c14.3,0.7,22.3,1.4,24.1,7.6c2.8,9.6,0.3,21.9-7.4,36.7l-12.9,24.8l53.9-9.8l12.9-24.8
				c12.9-24.9,17.2-46.8,12.4-63.5c-0.9-3.1-2.3-5.9-4.1-8.3c-8.8-11.6-26.7-12.5-41.1-13.1c-12.5-0.6-21.4-1-25.6-6.5
				c-3-3.9-3.3-10.4-1-20.3c4.5-19.1,15.8-30.5,23.9-37.4c39.3-33.5,115.8-53.1,142.2-57.9l-7,13.9l46.6-9.1l7.3-14.5l20.5,8
				l15.4-15.7l-22.5-8.8l53.6-21.2l3.1-14.5l-41.5,16.4l30.1-22.9l-6.7-8.9l-29.1,22.1l7.3-14.6l-46.6,9.1l-5.6,11.1
				C2153.7,145.5,2047.5,167.1,1976.9,227.2z"/>
		</g>
	</g>
	<rect x="235.9" y="425.7" class="st1" width="20.1" height="73.5"/>
</g>
<g id="Layer_1_1_">
	<g id="Layer_2_2_">
		<g id="Layer_3_2_">
		</g>
	</g>
	<g id="Layer_3">
		<path class="st3" d="M225.7,444.3h-88.3c-43.7,0-79.2,35.5-79.2,79.2s35.5,79.2,79.2,79.2s79.2-35.5,79.2-79.2
			c0-12.7-3.1-25.3-9-36.6h18.1V444.3z"/>
		<circle class="st4" cx="137.3" cy="523.5" r="48.7"/>
		<path class="st5" d="M100.6,453.4l-22-6.6c-7.7-2.3-15.7,2.1-18,9.7c-0.8,2.7-0.8,5.6,0,8.4l6.6,22
			C74.7,472.5,86.3,460.9,100.6,453.4z"/>
		<path class="st5" d="M174.1,593.6l22,6.6c7.7,2.3,15.7-2.1,17.9-9.7c0.8-2.7,0.8-5.6,0-8.3l-6.6-22
			C200,574.6,188.4,586.1,174.1,593.6z"/>
		<circle class="st6" cx="137.3" cy="523.5" r="36.5"/>
		<path class="st3" d="M94.8,608.8v-18.6c-21.8-13.9-35.5-37.8-36.5-63.7h-0.1v82.3H46v6.1h60.9v-6.1H94.8z"/>
		<path class="st5" d="M94.8,598.2v-8c-21.8-13.9-35.5-37.8-36.5-63.7h-0.1v36.7C64.4,575.9,75.9,592.4,94.8,598.2L94.8,598.2z"/>
		<path class="st6" d="M198.3,444.3h6.1V487h-6.1V444.3z"/>
		<path class="st6" d="M58.2,596.6h36.5v6.1H58.2V596.6z"/>
		<path class="st6" d="M70.4,456.5h6.1v6.1h-6.1V456.5z"/>
		<path class="st6" d="M198.3,584.5h6.1v6.1h-6.1V584.5z"/>
		<path class="st4" d="M73.4,523.5h-6.1c0.1-38.7,31.4-70,70-70v6.1C102,459.6,73.5,488.2,73.4,523.5z"/>
		<path class="st4" d="M143.5,453.4h6.1v6.1h-6.1V453.4z"/>
		<path class="st6" d="M116,523.5h15.2c0-1.6,0.6-3.1,1.8-4.3l-10.8-10.7c-2.7-2.7-6.5-4-10.3-3.4l-6.7,0.9
			c-4.7,8.5-5.8,18.5-3.1,27.8l4-5.4C108.5,525.3,112.1,523.5,116,523.5L116,523.5z"/>
		<path class="st6" d="M137.3,500.6v16.9c1.6,0,3.1,0.6,4.3,1.8l10.8-10.7c2.7-2.7,4-6.5,3.4-10.3l-0.9-6.7
			c-8.3-4.6-18-5.7-27.1-3.2l2.8,1.4C134.7,491.8,137.3,496,137.3,500.6L137.3,500.6z"/>
		<path class="st6" d="M137.3,544.8v-15.2c-1.6,0-3.1-0.6-4.3-1.8l-10.8,10.8c-2.7,2.7-4,6.5-3.4,10.3l0.9,6.7
			c8.5,4.7,18.5,5.7,27.8,3l-5.4-4C139.2,552.3,137.3,548.7,137.3,544.8L137.3,544.8z"/>
		<path class="st6" d="M172.4,513.3l-4,5.4c-2.3,3.1-5.9,4.9-9.7,4.9h-15.2c0,1.6-0.6,3.1-1.8,4.3l10.8,10.7c2.7,2.7,6.5,4,10.3,3.4
			l6.7-0.9C174.1,532.6,175.2,522.6,172.4,513.3L172.4,513.3z"/>
		<path class="st7" d="M122.3,508.5l10.8,10.7c1.1-1.1,2.7-1.8,4.3-1.8v-16.9c0-4.6-2.6-8.8-6.7-10.9l-2.8-1.4
			c-9.6,2.6-17.7,9-22.4,17.7l6.7-0.9C115.7,504.5,119.6,505.8,122.3,508.5z"/>
		<path class="st7" d="M152.4,508.5l-10.8,10.7c1.1,1.1,1.8,2.7,1.8,4.3h15.2c3.8,0,7.4-1.8,9.7-4.9l4-5.4
			c-2.7-9.3-9-17.2-17.5-21.8l0.9,6.7C156.4,501.9,155.2,505.8,152.4,508.5z"/>
		<path class="st7" d="M122.3,538.6l10.8-10.8c-1.1-1.1-1.8-2.7-1.8-4.3H116c-3.8,0-7.4,1.8-9.7,4.9l-4,5.4
			c2.7,9.3,9,17.2,17.5,21.8l-0.9-6.7C118.3,545.2,119.6,541.3,122.3,538.6L122.3,538.6z"/>
		<path class="st7" d="M152.4,538.6l-10.8-10.8c-1.1,1.1-2.7,1.8-4.3,1.8v15.2c0,3.8,1.8,7.4,4.9,9.7l5.4,4
			c9.3-2.7,17.2-9,21.8-17.5l-6.7,0.9C159,542.6,155.2,541.3,152.4,538.6z"/>
		<circle class="st7" cx="137.3" cy="523.5" r="6.1"/>
		<path class="st5" d="M169.5,487c4,3.5,7.4,7.6,10,12.2h33.2c-1.4-4.2-3.1-8.3-5.1-12.2H169.5z"/>
		<path class="st8" d="M222.6,441.3h-85.3c-12.9,0-25.5,3.1-37,8.9l-20.8-6.3c-9.3-2.8-19,2.5-21.8,11.7c-1,3.3-1,6.7,0,10l6.3,20.8
			c-5.8,11.5-8.9,24.1-8.9,37c0,0.9,0,1.8,0.1,2.7c0,0.1-0.1,0.2-0.1,0.3v82.3h-9.2v6.1h60.9v-6.1h-9.1v-13.3
			c23.8,13.1,52.4,13.6,76.6,1.4l20.8,6.3c9.3,2.8,19-2.5,21.8-11.7c1-3.3,1-6.7,0-10l-6.2-20.8c11.2-22.1,11.8-48,1.7-70.6h10.2
			v9.1h6.1v-67h-6.1L222.6,441.3z M63.6,463.9c-1.8-6,1.6-12.3,7.6-14.2c2.1-0.6,4.4-0.6,6.6,0l15.2,4.6l-1.4,0.9l-0.5,0.3
			c-8.6,5.8-16,13.3-21.8,21.8l-0.3,0.5c-0.3,0.5-0.6,0.9-0.9,1.4L63.6,463.9z M91.7,608.8H61.2v-6.1h30.5V608.8z M91.7,596.6H61.2
			v-42.1c0.8,1.8,1.6,3.7,2.5,5.4l0.2,0.2c0.8,1.6,1.7,3.2,2.6,4.8c0.1,0.2,0.2,0.4,0.3,0.5c0.9,1.5,1.9,3.1,2.9,4.5
			c0.2,0.4,0.5,0.7,0.8,1.1c0.8,1.1,1.7,2.3,2.5,3.4c0.3,0.4,0.6,0.8,0.8,1.1c1,1.2,2.1,2.5,3.2,3.6c0.5,0.5,0.9,1,1.4,1.5
			c0.8,0.8,1.7,1.8,2.6,2.5c0.5,0.5,1.1,1.1,1.7,1.6c1,0.9,2.1,1.8,3.1,2.6c0.5,0.5,1.1,0.8,1.6,1.3c1.3,1,2.6,2,4,2.9l0.2,0.2
			L91.7,596.6z M211.2,583.2c1.8,6.1-1.6,12.3-7.7,14.2c-2.1,0.6-4.4,0.6-6.6,0l-15.2-4.6c0.5-0.3,0.9-0.6,1.4-0.9l0.5-0.3
			c8.6-5.8,16-13.3,21.8-21.8l0.3-0.5c0.3-0.5,0.6-0.9,0.9-1.4L211.2,583.2z M213.5,523.5c0,12.5-3.1,24.8-9,35.8
			c-0.7,1.4-1.5,2.7-2.3,4c-0.4,0.5-0.7,1.1-1.1,1.7c-0.5,0.8-1.1,1.5-1.6,2.3c-0.8,1.1-1.5,2.1-2.4,3.1c-0.5,0.5-0.8,1.1-1.3,1.7
			c-0.6,0.8-1.3,1.5-2,2.3l-0.9,1c-1.2,1.3-2.5,2.6-3.8,3.8l-1,0.9c-0.8,0.7-1.5,1.3-2.3,2c-0.5,0.5-1.1,0.9-1.7,1.3
			c-1,0.8-2.1,1.6-3.1,2.4c-0.8,0.5-1.5,1.1-2.3,1.6c-0.5,0.4-1.1,0.7-1.7,1.1c-1.3,0.8-2.6,1.5-4,2.3
			c-24.6,13.2-54.4,11.8-77.6-3.6c-0.6-0.5-1.3-0.8-1.9-1.3s-1.1-0.8-1.6-1.1c-0.5-0.4-1.2-0.9-1.8-1.5c-0.9-0.8-1.8-1.5-2.8-2.3
			c-0.5-0.5-1-0.8-1.5-1.3s-1.1-1.1-1.6-1.5c-0.5-0.5-0.9-0.8-1.3-1.3c-0.5-0.5-1-1.1-1.5-1.6c-0.5-0.5-0.9-1-1.4-1.5
			c-0.5-0.5-0.8-1-1.3-1.5c-0.8-1-1.7-2.1-2.5-3.1c-0.2-0.2-0.3-0.5-0.5-0.7c-0.7-0.9-1.3-1.8-2-2.8c-0.2-0.3-0.4-0.6-0.6-0.9
			c-0.6-0.9-1.1-1.8-1.8-2.8l-0.5-0.8c-0.6-1.1-1.3-2.3-1.8-3.5l-0.1-0.2c-4.8-9.7-7.4-20.1-7.8-31c0-1-0.1-2-0.1-2.9
			c0-12.5,3.1-24.8,9-35.9c0.8-1.4,1.5-2.7,2.3-4c0.3-0.5,0.7-1.1,1.1-1.7c0.5-0.8,1.1-1.5,1.6-2.3c0.8-1.1,1.5-2.1,2.4-3.1
			c0.5-0.5,0.8-1.1,1.3-1.7c0.6-0.8,1.3-1.5,2-2.3l0.9-1c1.2-1.3,2.5-2.6,3.8-3.8l1-0.9c0.8-0.7,1.5-1.3,2.3-2
			c0.5-0.5,1.1-0.9,1.7-1.3c1-0.8,2.1-1.6,3.1-2.4c0.8-0.5,1.5-1.1,2.3-1.6c0.5-0.4,1.1-0.7,1.7-1.1c1.3-0.8,2.6-1.5,4-2.3
			c11-5.9,23.3-9,35.9-9h60.9v36.6h-27.5v0.2c-21.8-18.5-54.5-15.9-73.1,6c-18.5,21.8-15.9,54.5,6,73.1c21.8,18.5,54.5,15.9,73.1-6
			c16.5-19.4,16.5-47.9-0.1-67.2h29C210.8,500.5,213.5,511.9,213.5,523.5L213.5,523.5z M183.1,523.5c0,25.2-20.5,45.7-45.7,45.7
			c-25.2,0-45.7-20.5-45.7-45.7c0-25.2,20.5-45.7,45.7-45.7C162.6,477.8,183.1,498.3,183.1,523.5
			C183.1,523.5,183.1,523.5,183.1,523.5L183.1,523.5z M222.6,483.9h-18.2v-36.6h18.2V483.9z"/>
		<path class="st8" d="M168.2,498.7c-0.7-0.8-1.4-1.7-2.1-2.5c-0.2-0.2-0.3-0.3-0.5-0.5c-0.6-0.6-1.3-1.2-2-1.8
			c-0.3-0.2-0.6-0.5-0.9-0.8c-0.5-0.5-1.1-0.8-1.7-1.3c-0.5-0.5-0.9-0.8-1.5-1.1c-0.5-0.3-0.9-0.5-1.4-0.8c-0.6-0.4-1.1-0.8-1.8-1.1
			c-0.1,0-0.1-0.1-0.2-0.1c-0.2-0.2-0.5-0.2-0.8-0.4c-0.8-0.5-1.8-0.9-2.7-1.3c-0.4-0.2-0.8-0.3-1.1-0.5c-0.8-0.3-1.6-0.6-2.4-0.8
			c-0.5-0.2-0.9-0.2-1.4-0.4c-0.8-0.2-1.5-0.5-2.3-0.6c-0.5-0.2-1.1-0.2-1.6-0.3c-0.8-0.2-1.5-0.2-2.2-0.3c-0.6-0.1-1.2-0.1-1.8-0.2
			c-0.6-0.1-1.3-0.1-2-0.1c-0.2,0-0.4,0-0.6,0c-0.6,0-1.1,0.1-1.7,0.1c-0.5,0-0.9,0-1.4,0.1c-1,0.1-2,0.2-3,0.4l-0.7,0.1
			c-1.1,0.2-2.3,0.5-3.4,0.8c-0.1,0-0.2,0-0.2,0.1h-0.1c-1.1,0.3-2.4,0.7-3.5,1.1l-0.3,0.1c-1.1,0.5-2.2,0.9-3.4,1.5
			c-0.1,0.1-0.2,0.1-0.3,0.2c-1.1,0.5-2.1,1.1-3.1,1.8l-0.4,0.2c-0.9,0.6-1.8,1.3-2.8,1.9c-0.2,0.2-0.3,0.2-0.5,0.4
			c-0.8,0.6-1.5,1.3-2.3,2c-0.2,0.2-0.5,0.5-0.7,0.6c-0.6,0.6-1.2,1.2-1.8,1.9l-0.9,1c-0.5,0.5-0.9,1.1-1.3,1.8
			c-0.4,0.6-0.8,0.9-1.1,1.4c-0.3,0.5-0.7,1.1-1,1.7c-0.3,0.5-0.7,1-0.9,1.5l-0.1,0.2c-0.7,1.3-1.3,2.7-1.9,4.1
			c-0.2,0.4-0.3,0.8-0.4,1.1c-0.4,1.1-0.8,2.1-1.1,3.2c-0.2,0.5-0.2,0.8-0.3,1.3c-0.2,1.1-0.5,2.2-0.6,3.4c-0.1,0.4-0.2,0.8-0.2,1.2
			c-0.2,1.5-0.3,3.1-0.3,4.6c0,1.1,0.1,2.3,0.2,3.5c0,0.5,0.1,0.8,0.2,1.3c0.1,0.7,0.2,1.4,0.3,2.1c0.2,0.8,0.3,1.7,0.5,2.5
			c0.2,0.6,0.3,1.1,0.5,1.8v0.1c0.3,1.1,0.7,2.1,1.1,3.2c0.1,0.2,0.1,0.3,0.2,0.5c0.5,1.1,0.9,2.2,1.5,3.2c0.1,0.1,0.1,0.2,0.2,0.2
			c0.6,1.1,1.2,2.1,1.9,3.2c0,0.1,0.1,0.1,0.1,0.2c0.7,1,1.4,2,2.1,2.9l0.2,0.2c0.7,0.8,1.5,1.7,2.2,2.5c0.2,0.2,0.2,0.3,0.4,0.5
			c0.6,0.7,1.4,1.3,2.1,1.9c0.3,0.2,0.5,0.5,0.8,0.8c0.5,0.5,1.1,0.9,1.7,1.3c0.6,0.5,0.9,0.7,1.4,1.1c0.5,0.3,0.9,0.6,1.4,0.8
			c0.6,0.4,1.1,0.8,1.8,1.1l0.2,0.1c1.3,0.7,2.7,1.3,4.1,1.9c0.4,0.2,0.8,0.3,1.1,0.4c1.1,0.4,2.1,0.8,3.2,1.1
			c0.5,0.2,0.8,0.2,1.3,0.3c1.1,0.2,2.2,0.5,3.4,0.6c0.4,0.1,0.8,0.2,1.2,0.2c1.5,0.2,3.1,0.3,4.6,0.3c1.1,0,2.3-0.1,3.4-0.2
			c0.5,0,0.8-0.1,1.3-0.2c0.7-0.1,1.4-0.2,2.1-0.3c0.8-0.2,1.7-0.3,2.5-0.5c0.6-0.2,1.1-0.3,1.8-0.5h0.1c1.1-0.3,2.1-0.7,3.2-1.1
			c0.2-0.1,0.3-0.1,0.5-0.2c1.1-0.5,2.1-0.9,3.2-1.5l0.2-0.2c1.1-0.5,2.1-1.1,3.1-1.8c0.1,0,0.2-0.1,0.2-0.1c1-0.6,1.9-1.4,2.9-2.1
			l0.2-0.2c0.8-0.7,1.6-1.4,2.4-2.1c0.2-0.2,0.4-0.3,0.5-0.5c0.6-0.6,1.2-1.3,1.8-1.9c0.3-0.3,0.6-0.6,0.8-0.9
			c0.4-0.5,0.8-1.1,1.2-1.6c0.5-0.5,0.8-1,1.1-1.5c0.2-0.4,0.5-0.8,0.8-1.2c0.4-0.6,0.8-1.3,1.2-1.9c0-0.1,0-0.1,0.1-0.2
			c0.7-1.3,1.3-2.7,1.9-4.1c0.2-0.4,0.3-0.8,0.5-1.1c0.4-1.1,0.8-2.1,1.1-3.2c0.2-0.5,0.2-0.8,0.3-1.3c0.2-1.1,0.5-2.2,0.6-3.4
			c0.1-0.4,0.2-0.8,0.2-1.2c0.2-1.5,0.3-3.1,0.3-4.6c0-1.1-0.1-2.3-0.2-3.4c0-0.5-0.1-0.8-0.2-1.3c-0.1-0.7-0.2-1.4-0.3-2.1
			c-0.2-0.8-0.3-1.7-0.5-2.5c-0.2-0.6-0.3-1.1-0.5-1.8v-0.1c-0.3-1.1-0.7-2.1-1.1-3.2c-0.1-0.2-0.1-0.3-0.2-0.5
			c-0.5-1.1-1-2.1-1.5-3.2c-0.1-0.1-0.1-0.2-0.2-0.2c-0.6-1.1-1.2-2.1-1.8-3.2c0-0.1-0.1-0.1-0.1-0.2c-0.7-1-1.4-2-2.1-2.9
			C168.3,499,168.2,498.9,168.2,498.7L168.2,498.7z M136.7,490.1c0.8,0,1.8,0,2.6,0.1c0.5,0,0.9,0,1.3,0.1c1.2,0.1,2.5,0.3,3.6,0.5
			c0.3,0.1,0.6,0.2,0.9,0.2c0.9,0.2,1.8,0.5,2.7,0.8c0.4,0.2,0.8,0.3,1.2,0.5c0.8,0.3,1.5,0.6,2.3,1l0.7,0.4l0.7,5.1
			c0.4,2.8-0.5,5.7-2.6,7.7l-9,9c-0.1-0.1-0.2-0.1-0.3-0.2l-0.2-0.1l-0.4-0.2v-14.3c0-0.9-0.1-1.8-0.2-2.7c0-0.2-0.1-0.5-0.2-0.7
			c-0.2-0.7-0.3-1.3-0.6-1.9c-0.1-0.2-0.2-0.4-0.2-0.6c-0.3-0.8-0.7-1.5-1.1-2.3c-0.1-0.2-0.2-0.3-0.3-0.5c-0.4-0.5-0.8-1.1-1.3-1.6
			c-0.1-0.1-0.2-0.2-0.2-0.3H136.7L136.7,490.1z M135,521.7c0.2-0.2,0.4-0.5,0.6-0.6c0.2-0.2,0.4-0.3,0.5-0.4
			c0.9-0.5,2.1-0.3,2.9,0.4c0.3,0.2,0.5,0.5,0.7,0.7c0.8,1,0.8,2.5,0,3.4c-0.2,0.3-0.5,0.5-0.7,0.7c-0.8,0.7-2,0.8-2.9,0.4
			c-0.2-0.1-0.4-0.2-0.5-0.4c-0.2-0.2-0.5-0.4-0.6-0.6c-0.2-0.2-0.3-0.4-0.4-0.6c-0.3-0.8-0.3-1.6,0-2.4
			C134.7,522.2,134.8,521.9,135,521.7L135,521.7z M112,501.7c0.9-1,1.8-2,2.8-2.9c0.2-0.2,0.3-0.3,0.5-0.5c2.3-2,4.9-3.8,7.7-5.1
			l0.2-0.1c1.5-0.7,2.9-1.2,4.4-1.7l1.8,0.9c3.1,1.5,5.1,4.7,5.1,8.2V515l-0.5,0.2l-0.2,0.1l-0.3,0.2l-9-9c-0.7-0.6-1.4-1.2-2.1-1.8
			l-0.4-0.2c-0.8-0.5-1.5-0.8-2.3-1.2l-0.4-0.2c-0.8-0.3-1.7-0.6-2.6-0.8h-0.2c-0.8-0.2-1.8-0.2-2.6-0.2c-0.1,0-0.2,0-0.2,0h-0.2
			c-0.4,0-0.8,0-1.1,0.1c-0.2,0-0.4,0-0.5,0C111.8,501.9,111.9,501.9,112,501.7L112,501.7z M104.6,525.8c-0.2,0.2-0.4,0.4-0.5,0.6
			c-0.1-1-0.2-1.9-0.2-2.9c0-1.2,0.1-2.5,0.2-3.7c0-0.3,0.1-0.6,0.2-0.9c0.2-0.9,0.3-1.8,0.5-2.7c0.1-0.4,0.2-0.7,0.3-1.1
			c0.2-0.8,0.5-1.6,0.7-2.4c0.2-0.4,0.3-0.8,0.5-1.2c0.2-0.7,0.5-1.4,0.9-2.1c0.2-0.2,0.2-0.5,0.4-0.8l5.1-0.7
			c2.8-0.4,5.7,0.5,7.7,2.6l9,9c-0.1,0.1-0.1,0.2-0.2,0.3L129,520c-0.1,0.2-0.2,0.3-0.2,0.4h-12.7c-0.6,0-1.1,0-1.8,0.1
			c-0.2,0-0.4,0.1-0.6,0.1c-0.4,0.1-0.8,0.1-1.1,0.2c-0.2,0.1-0.5,0.2-0.7,0.2c-0.2,0.1-0.7,0.2-1,0.3c-0.2,0.1-0.5,0.2-0.7,0.3
			c-0.3,0.2-0.6,0.2-0.9,0.4c-0.3,0.2-0.5,0.2-0.7,0.4s-0.5,0.3-0.8,0.5c-0.3,0.2-0.5,0.3-0.7,0.5s-0.5,0.4-0.8,0.5
			c-0.2,0.2-0.4,0.4-0.6,0.5c-0.2,0.2-0.5,0.4-0.7,0.6C104.9,525.4,104.7,525.5,104.6,525.8L104.6,525.8z M119,537.8
			c-0.1,0.2-0.2,0.3-0.3,0.5c-0.2,0.3-0.5,0.6-0.7,1c-0.1,0.2-0.2,0.4-0.3,0.5c-0.2,0.3-0.4,0.6-0.5,1c-0.1,0.2-0.2,0.5-0.2,0.6
			c-0.1,0.2-0.3,0.6-0.4,1c-0.2,0.3-0.2,0.5-0.2,0.7c-0.1,0.2-0.2,0.6-0.2,1c-0.1,0.3-0.1,0.5-0.2,0.8c-0.1,0.3-0.2,0.6-0.2,1
			c-0.1,0.3,0,0.5,0,0.8s-0.1,0.6-0.1,1c0,0.4,0.1,0.5,0.1,0.8s0,0.5,0.1,0.8l-0.2-0.2c-1-0.8-1.9-1.7-2.8-2.7l-0.5-0.5
			c-1.9-2.1-3.5-4.5-4.8-7c-0.1-0.2-0.2-0.2-0.2-0.4c-0.6-1.2-1.1-2.5-1.5-3.7c0-0.1-0.1-0.2-0.1-0.2l3.1-4.1
			c1.8-2.3,4.4-3.7,7.3-3.7h12.7c0.1,0.2,0.2,0.3,0.2,0.4l0.1,0.2c0,0.1,0.1,0.2,0.2,0.3l-9,9C119.8,536.9,119.4,537.3,119,537.8
			L119,537.8L119,537.8z M139.6,556.9c-1.1,0.1-2.2,0.1-3.4,0.1c-0.5,0-0.8,0-1.3-0.1c-1.1-0.1-2.1-0.2-3.2-0.4
			c-0.2-0.1-0.5-0.1-0.8-0.2c-1.3-0.2-2.7-0.6-4-1c-0.3-0.1-0.5-0.2-0.8-0.3c-1-0.4-2-0.8-3-1.2l-0.6-0.3l-0.7-5.1
			c-0.4-2.8,0.5-5.7,2.6-7.7l9-9l0.3,0.2l0.2,0.1c0.2,0.1,0.3,0.2,0.5,0.2v12.7c0,0.6,0,1.1,0.1,1.8c0,0.2,0.1,0.4,0.1,0.6
			c0.1,0.4,0.2,0.8,0.2,1.1c0.1,0.2,0.2,0.5,0.2,0.7c0.1,0.3,0.2,0.7,0.3,1c0.1,0.2,0.2,0.5,0.3,0.7c0.1,0.2,0.2,0.6,0.4,0.9
			c0.2,0.3,0.2,0.5,0.4,0.7s0.3,0.5,0.5,0.8c0.2,0.3,0.3,0.5,0.5,0.7s0.4,0.5,0.5,0.8c0.2,0.2,0.4,0.4,0.5,0.6
			c0.2,0.2,0.4,0.5,0.6,0.7c0.2,0.2,0.4,0.4,0.6,0.5c0.2,0.2,0.4,0.4,0.6,0.5C140.1,556.9,139.9,556.9,139.6,556.9L139.6,556.9z
			 M162.7,545.4c-0.8,0.9-1.7,1.8-2.6,2.7l-0.5,0.5c-2.1,1.9-4.5,3.5-7,4.8l-0.4,0.2c-1.2,0.6-2.5,1.1-3.7,1.5
			c-0.1,0-0.2,0.1-0.2,0.1l-4.1-3.1c-2.3-1.8-3.7-4.4-3.7-7.3v-12.6c0.2-0.1,0.3-0.1,0.4-0.2l0.2-0.1c0.1-0.1,0.2-0.1,0.3-0.2l9,9
			c0.7,0.6,1.4,1.2,2.1,1.8l0.3,0.2c0.8,0.5,1.5,0.8,2.3,1.2l0.4,0.2c0.8,0.3,1.7,0.6,2.5,0.8h0.2c0.8,0.2,1.8,0.2,2.7,0.2h0.2
			c0.6,0,1.2,0,1.8-0.2C162.9,545.2,162.8,545.3,162.7,545.4L162.7,545.4z M170.1,521.3c0.2-0.2,0.4-0.4,0.5-0.6
			c0.1,0.9,0.2,1.9,0.2,2.8c0,1.2-0.1,2.5-0.2,3.7c0,0.3-0.1,0.6-0.2,0.9c-0.2,0.9-0.2,1.8-0.5,2.7c-0.1,0.4-0.2,0.8-0.3,1.1
			c-0.2,0.8-0.5,1.6-0.7,2.4c-0.2,0.4-0.3,0.8-0.5,1.2c-0.2,0.7-0.5,1.4-0.8,2.1l-0.4,0.8l-5.1,0.7c-2.8,0.4-5.7-0.5-7.7-2.6l-9-9
			c0.1-0.1,0.1-0.2,0.2-0.3l0.1-0.2c0.1-0.2,0.2-0.3,0.2-0.5h12.7c0.6,0,1.1,0,1.8-0.1c0.2,0,0.4-0.1,0.6-0.1
			c0.4-0.1,0.8-0.2,1.1-0.2c0.2-0.1,0.5-0.2,0.7-0.2c0.3-0.1,0.7-0.2,1-0.3c0.2-0.1,0.5-0.2,0.7-0.3s0.6-0.2,0.9-0.4
			c0.3-0.2,0.5-0.2,0.7-0.4s0.5-0.3,0.8-0.5c0.2-0.2,0.5-0.3,0.7-0.5s0.5-0.4,0.8-0.5c0.2-0.2,0.4-0.4,0.6-0.5
			c0.2-0.2,0.5-0.4,0.7-0.6S170.1,521.5,170.1,521.3L170.1,521.3z M169.1,512.8l-3.1,4.1c-1.8,2.3-4.4,3.7-7.3,3.7H146
			c-0.1-0.2-0.2-0.3-0.2-0.5l-0.1-0.2c-0.1-0.1-0.1-0.2-0.2-0.3l9-9c0.4-0.4,0.8-0.8,1.1-1.3c0.2-0.2,0.2-0.4,0.4-0.5
			c0.2-0.3,0.5-0.6,0.6-0.9c0.2-0.3,0.2-0.5,0.4-0.6c0.2-0.2,0.3-0.6,0.5-0.9c0.2-0.3,0.2-0.5,0.3-0.7c0.1-0.2,0.2-0.6,0.4-0.9
			c0.1-0.3,0.2-0.5,0.2-0.8c0.1-0.3,0.2-0.6,0.2-0.9c0.1-0.3,0.1-0.5,0.2-0.8c0.1-0.2,0.2-0.6,0.2-0.9c0-0.3,0-0.5,0-0.8
			c0-0.2,0-0.6,0-1c-0.1-0.3-0.1-0.5-0.1-0.8s0-0.5-0.1-0.8l0.2,0.2c0.9,0.8,1.8,1.7,2.7,2.6c0.2,0.2,0.3,0.4,0.5,0.5
			c1.9,2.1,3.5,4.5,4.8,7c0.1,0.2,0.2,0.2,0.2,0.4c0.6,1.2,1.1,2.5,1.5,3.7C168.9,512.6,168.9,512.7,169.1,512.8L169.1,512.8z"/>
		<path class="st8" d="M70.4,456.5h6.1v6.1h-6.1V456.5z"/>
		<path class="st8" d="M198.3,584.5h6.1v6.1h-6.1V584.5z"/>
		<path class="st8" d="M137.3,459.6v-6.1c-38.7,0.1-70,31.4-70,70h6.1C73.5,488.2,102.1,459.6,137.3,459.6z"/>
		<path class="st8" d="M143.5,453.4h6.1v6.1h-6.1V453.4z"/>
	</g>
</g>
<polygon class="st9" points="512,877.8 512,1077.6 467.9,1107.6 45,1107.6 0,1077.6 0,877.8 "/>
<polygon class="st10" points="512,877.8 512,1077.6 467.9,1107.6 271,1107.6 271,877.8 "/>
<path class="st11" d="M512,1077.6v75l-34.5,27h-443l-34.5-27v-75c1.2,0.9,2.1,1.8,3.3,2.4c10.5,4.8,23.1,2.7,31.2-5.4
	c22.2-22.5,59.8-22.5,82,0c10.8,10.8,28.2,10.8,39,0c22.2-22.5,58.8-22.5,81,0c9.3,9.3,23.7,10.5,34.5,3.9c1.5-1.2,3-2.4,4.5-3.9
	c22.2-22.5,58.8-22.5,81,0c10.5,10.5,28.5,10.5,39,0c22.2-22.5,59.8-22.5,82,0c7.5,7.5,18.6,9.9,28.5,6.6
	C508.4,1080.3,510.2,1078.8,512,1077.6z"/>
<g>
	<path class="st12" d="M512,1077.6v75l-34.5,27H271v-101.1c1.5-1.2,3-2.4,4.5-3.9c22.2-22.5,58.8-22.5,81,0
		c10.5,10.5,28.5,10.5,39,0c22.2-22.5,59.8-22.5,82,0c7.5,7.5,18.6,9.9,28.5,6.6C508.4,1080.3,510.2,1078.8,512,1077.6z"/>
	<path class="st12" d="M512,1152.6c0,0,0,81,0,85.2H0c0,0,0-80.4,0-85.2c1.2,0.9,2.1,1.8,3.3,2.4c10.5,4.8,23.1,2.7,31.2-5.4
		c22.2-22.5,59.8-22.5,82,0c10.8,10.8,28.2,10.8,39,0c22.2-22.5,58.8-22.5,81,0c9.3,9.3,23.7,10.5,34.5,3.9c1.5-1.2,3-2.4,4.5-3.9
		c22.2-22.5,58.8-22.5,81,0c10.5,10.5,28.5,10.5,39,0c22.2-22.5,59.8-22.5,82,0c7.5,7.5,18.6,9.9,28.5,6.6
		C508.4,1155.3,510.2,1153.8,512,1152.6z"/>
</g>
<path class="st13" d="M512,1152.6c0,0,0,81,0,85.2H271v-84.3c1.5-1.2,3-2.4,4.5-3.9c22.2-22.5,58.8-22.5,81,0
	c10.5,10.5,28.5,10.5,39,0c22.2-22.5,59.8-22.5,82,0c7.5,7.5,18.6,9.9,28.5,6.6C508.4,1155.3,510.2,1153.8,512,1152.6z"/>
<rect x="731.4" y="-221.5" transform="matrix(1.283240e-02 -0.9999 0.9999 1.283240e-02 601.8873 896.728)" class="st0" width="47.3" height="730"/>
<rect x="51" y="629.6" class="st0" width="46.5" height="508.7"/>
<g id="Page-1_2_">
	<g id="pump_1_">
		<path id="Shape_1_" class="st14" d="M2542.7,601.6c0,3.2,2,5.8,4.5,5.8l5.2,0c2.5,0,4.5-2.6,4.5-5.8l-0.1-36.4
			c0-3.2-2-5.8-4.5-5.8l-5.2,0c-2.5,0-4.5,2.6-4.5,5.8l0,0.8l-11.6,0l0-2.2c1.5-0.9,2.6-2.9,2.6-5.2l0-6.6c0-3.2-2-5.8-4.5-5.8
			l-0.6,0l0-4.1c0-3.2-2-5.8-4.5-5.8l-2.6,0c-2.5,0-4.5,2.6-4.5,5.8l0,4.1l-3.9,0l0-14.9l3.2,0c3.9,0,7.1-4.1,7.1-9.1l-0.1-62.8
			c0-5-3.2-9.1-7.1-9.1l-41.3,0.1c-3.9,0-7.1,4.1-7.1,9.1l0.1,62.8c0,5,3.2,9.1,7.1,9.1l3.2,0l0,14.9l-3.9,0l0-4.1
			c0-3.2-2-5.8-4.5-5.8l-2.6,0c-2.5,0-4.5,2.6-4.5,5.8l0,4.1l-0.6,0c-2.5,0-4.5,2.6-4.5,5.8l0,6.6c0,2.3,1.1,4.3,2.6,5.2l0,2.2
			l-11.6,0l0-0.8c0-3.2-2-5.8-4.5-5.8l-5.2,0c-2.5,0-4.5,2.6-4.5,5.8l0.1,36.4c0,3.2,2,5.8,4.5,5.8l5.2,0c2.5,0,4.5-2.6,4.5-5.8
			l0-0.8l11.6,0l0,0.8c0,3.2,2,5.8,4.5,5.8l62-0.1c2.5,0,4.5-2.6,4.5-5.8l0-0.8l11.6,0L2542.7,601.6z M2474.7,526.5
			c-1.8,0-3.2-1.8-3.2-4.1l-0.1-53.7l6.5,0l0.1,57.9L2474.7,526.5z M2481.8,526.5l-0.1-57.9l6.5,0l0.1,57.9L2481.8,526.5z
			 M2492.2,526.5l-0.1-57.9l6.5,0l0.1,57.9L2492.2,526.5z M2502.5,526.5l-0.1-57.9l0.6,0c1.1,0,1.9-1.1,1.9-2.5
			c0-1.4-0.9-2.5-1.9-2.5l-31.6,0.1l0-4.1c0-2.3,1.4-4.1,3.2-4.1l41.3-0.1c1.8,0,3.2,1.8,3.2,4.1l0,4.1l-8.4,0
			c-1.1,0-1.9,1.1-1.9,2.5l0.1,60.4L2502.5,526.5z M2512.8,526.5l-0.1-57.9l6.5,0l0.1,53.7c0,2.3-1.4,4.1-3.2,4.1L2512.8,526.5z
			 M2466.4,546.4l0-4.1c0-0.5,0.3-0.8,0.6-0.8l2.6,0c0.4,0,0.6,0.4,0.6,0.8l0,4.1L2466.4,546.4z M2481.9,546.4l0-14.9l27.1-0.1
			l0,14.9L2481.9,546.4z M2520.6,546.3l0-4.1c0-0.5,0.3-0.8,0.6-0.8l2.6,0c0.4,0,0.6,0.4,0.6,0.8l0,4.1L2520.6,546.3z M2444.6,601.8
			c0,0.5-0.3,0.8-0.6,0.8l-5.2,0c-0.4,0-0.6-0.4-0.6-0.8l-0.1-36.4c0-0.5,0.3-0.8,0.6-0.8l5.2,0c0.4,0,0.6,0.4,0.6,0.8l0,9.9
			c0,1.4,0.9,2.5,1.9,2.5c1.1,0,1.9-1.1,1.9-2.5l0-4.1l11.6,0l0.1,24.8l-11.6,0l0-10.7c0-1.4-0.9-2.5-1.9-2.5
			c-1.1,0-1.9,1.1-1.9,2.5L2444.6,601.8z M2527.2,601.7c0,0.5-0.3,0.8-0.6,0.8l-62,0.1c-0.4,0-0.6-0.4-0.6-0.8l-0.1-37.2l44.5-0.1
			c1.1,0,1.9-1.1,1.9-2.5c0-1.4-0.9-2.5-1.9-2.5l-46.5,0.1c-0.4,0-0.6-0.4-0.6-0.8l0-6.6c0-0.5,0.3-0.8,0.6-0.8l67.1-0.1
			c0.4,0,0.6,0.4,0.6,0.8l0,6.6c0,0.5-0.3,0.8-0.6,0.8l-12.9,0c-1.1,0-1.9,1.1-1.9,2.5c0,1.4,0.9,2.5,1.9,2.5l11,0L2527.2,601.7z
			 M2542.6,585.1l0,10.7l-11.6,0l-0.1-24.8l11.6,0l0,4.1c0,1.4,0.9,2.5,1.9,2.5c1.1,0,1.9-1.1,1.9-2.5l0-9.9c0-0.5,0.3-0.8,0.6-0.8
			l5.2,0c0.4,0,0.6,0.4,0.6,0.8l0.1,36.4c0,0.5-0.3,0.8-0.6,0.8l-5.2,0c-0.4,0-0.6-0.4-0.6-0.8l0-16.5c0-1.4-0.9-2.5-1.9-2.5
			C2543.5,582.6,2542.6,583.7,2542.6,585.1z"/>
	</g>
</g>
<g id="Layer_3_3_">
	<path class="st3" d="M2588.5,598.5l66.2,0.2c32.8,0.1,59.4-28.6,59.5-64c0.1-35.4-26.4-64.2-59.2-64.3c-32.8-0.1-59.4,28.6-59.5,64
		c0,10.3,2.2,20.5,6.6,29.7l-13.6,0L2588.5,598.5z"/>
	
		<ellipse transform="matrix(2.407446e-03 -1 1 2.407446e-03 2114.0408 3188.0652)" class="st4" cx="2654.9" cy="534.5" rx="39.5" ry="36.5"/>
	<path class="st5" d="M2682.3,591.4l16.5,5.4c5.7,1.9,11.8-1.6,13.5-7.8c0.6-2.2,0.6-4.5,0-6.8l-4.9-17.8
		C2701.8,575.9,2693,585.3,2682.3,591.4z"/>
	<path class="st5" d="M2627.5,477.6l-16.5-5.4c-5.7-1.9-11.8,1.6-13.5,7.8c-0.6,2.2-0.6,4.5,0,6.7l4.9,17.8
		C2608,493,2616.8,483.7,2627.5,477.6z"/>
	
		<ellipse transform="matrix(2.407446e-03 -1 1 2.407446e-03 2114.0408 3188.0652)" class="st6" cx="2654.9" cy="534.5" rx="29.6" ry="27.4"/>
	<path class="st3" d="M2687,465.5l0,15.1c16.3,11.3,26.5,30.7,27.2,51.6l0.1,0l0.2-66.7l9.1,0l0-4.9l-45.6-0.1l0,4.9L2687,465.5z"/>
	<path class="st5" d="M2687,474l0,6.5c16.3,11.3,26.5,30.7,27.2,51.6l0.1,0l0.1-29.7C2709.7,492.2,2701.1,478.8,2687,474L2687,474z"
		/>
	<path class="st6" d="M2609.1,598.5l-4.6,0l0.1-34.6l4.6,0L2609.1,598.5z"/>
	<path class="st6" d="M2714.4,475.4l-27.4-0.1l0-5l27.4,0.1L2714.4,475.4z"/>
	<path class="st6" d="M2704.9,588.9l-4.5,0l0-5l4.5,0L2704.9,588.9z"/>
	<path class="st6" d="M2609.4,485l-4.6,0l0-5l4.6,0L2609.4,485z"/>
	<path class="st4" d="M2702.8,534.6l4.6,0c-0.1,31.3-23.7,56.7-52.6,56.6l0-5C2681.2,586.3,2702.7,563.2,2702.8,534.6z"/>
	<path class="st4" d="M2650.2,591.2l-4.6,0l0-5l4.6,0L2650.2,591.2z"/>
	<path class="st6" d="M2670.9,534.5l-11.4,0c0,1.3-0.5,2.5-1.3,3.5l8.1,8.7c2,2.2,4.9,3.2,7.7,2.8l5-0.7c3.5-6.9,4.4-14.9,2.4-22.5
		l-3,4.3C2676.5,533.1,2673.8,534.5,2670.9,534.5L2670.9,534.5z"/>
	<path class="st6" d="M2654.9,553.1l0-13.7c-1.2,0-2.4-0.5-3.2-1.4l-8.1,8.7c-2,2.2-3,5.3-2.6,8.4l0.7,5.4
		c6.2,3.7,13.5,4.7,20.3,2.7l-2.1-1.1C2656.8,560.2,2654.8,556.7,2654.9,553.1L2654.9,553.1z"/>
	<path class="st6" d="M2654.9,517.2l0,12.4c1.2,0,2.4,0.5,3.2,1.4l8.1-8.7c2-2.2,3-5.3,2.6-8.4l-0.7-5.4c-6.4-3.8-13.8-4.7-20.8-2.5
		l4,3.2C2653.6,511.2,2654.9,514.1,2654.9,517.2L2654.9,517.2z"/>
	<path class="st6" d="M2628.6,542.7l3-4.3c1.7-2.5,4.4-4,7.3-4l11.4,0c0-1.3,0.5-2.5,1.3-3.5l-8.1-8.7c-2-2.2-4.9-3.2-7.7-2.8
		l-5,0.7C2627.4,527.1,2626.5,535.1,2628.6,542.7L2628.6,542.7z"/>
	<path class="st7" d="M2666.2,546.7l-8.1-8.7c-0.9,0.9-2,1.4-3.2,1.4l0,13.7c0,3.7,1.9,7.1,5,8.8l2.1,1.1
		c7.2-2.1,13.3-7.2,16.9-14.3l-5,0.7C2671.1,550,2668.2,548.9,2666.2,546.7z"/>
	<path class="st7" d="M2643.6,546.7l8.1-8.7c-0.9-0.9-1.3-2.2-1.3-3.5l-11.4,0c-2.9,0-5.6,1.5-7.3,4l-3,4.3c2,7.5,6.7,13.9,13,17.7
		l-0.7-5.4C2640.6,552,2641.5,548.8,2643.6,546.7z"/>
	<path class="st7" d="M2666.2,522.3l-8.1,8.7c0.9,0.9,1.3,2.2,1.3,3.5l11.4,0c2.9,0,5.6-1.5,7.3-4l3-4.3c-2-7.5-6.7-13.9-13-17.7
		l0.7,5.4C2669.2,517,2668.3,520.1,2666.2,522.3L2666.2,522.3z"/>
	<path class="st7" d="M2643.6,522.2l8.1,8.8c0.9-0.9,2-1.4,3.2-1.4l0-12.4c0-3.1-1.4-6-3.7-7.9l-4-3.2c-7,2.2-12.9,7.3-16.4,14.1
		l5-0.7C2638.7,519,2641.6,520,2643.6,522.2z"/>
	
		<ellipse transform="matrix(2.407446e-03 -1 1 2.407446e-03 2114.0408 3188.0652)" class="st7" cx="2654.9" cy="534.5" rx="5" ry="4.6"/>
	<path class="st5" d="M2630.7,564c-3-2.9-5.5-6.2-7.5-9.9l-24.9-0.1c1,3.4,2.3,6.7,3.8,9.9L2630.7,564z"/>
	<path class="st8" d="M2590.8,601l63.9,0.2c9.6,0,19.1-2.4,27.8-7.1l15.6,5.1c6.9,2.3,14.2-2,16.3-9.5c0.8-2.7,0.8-5.5,0-8.1
		l-4.7-16.9c4.4-9.3,6.7-19.5,6.7-30c0-0.7,0-1.5-0.1-2.2c0-0.1,0.1-0.2,0.1-0.2l0.2-66.7l6.9,0l0-4.9l-45.6-0.1l0,4.9l6.8,0l0,10.7
		c-17.8-10.7-39.2-11.1-57.4-1.3l-15.6-5.1c-6.9-2.3-14.2,2-16.3,9.5c-0.8,2.7-0.8,5.5,0,8.1l4.6,16.9c-8.4,17.9-8.9,38.8-1.4,57.2
		l-7.6,0l0-7.4l-4.6,0l-0.1,54.3l4.6,0L2590.8,601z M2710.1,582.9c1.4,4.8-1.2,10-5.7,11.5c-1.6,0.5-3.3,0.5-4.9,0l-11.4-3.8l1-0.7
		l0.3-0.2c6.4-4.7,12-10.7,16.4-17.6l0.2-0.4c0.2-0.4,0.5-0.7,0.7-1.1L2710.1,582.9z M2689.3,465.5l22.9,0.1l0,5l-22.9-0.1
		L2689.3,465.5z M2689.3,475.3l22.9,0.1l-0.1,34.1c-0.6-1.5-1.2-3-1.8-4.4l-0.1-0.2c-0.6-1.3-1.3-2.6-1.9-3.9
		c-0.1-0.1-0.2-0.3-0.2-0.4c-0.7-1.2-1.4-2.5-2.2-3.7c-0.2-0.3-0.4-0.6-0.6-0.9c-0.6-0.9-1.3-1.9-1.9-2.7c-0.2-0.3-0.5-0.6-0.6-0.9
		c-0.7-1-1.5-2-2.4-2.9c-0.3-0.4-0.7-0.8-1-1.2c-0.6-0.7-1.3-1.4-1.9-2.1c-0.4-0.4-0.9-0.9-1.3-1.3c-0.7-0.7-1.5-1.4-2.3-2.1
		c-0.4-0.4-0.8-0.7-1.2-1.1c-1-0.8-1.9-1.6-3-2.4l-0.2-0.1L2689.3,475.3z M2599.7,486c-1.4-4.9,1.2-10,5.8-11.5
		c1.6-0.5,3.3-0.5,4.9,0l11.4,3.8c-0.3,0.2-0.7,0.5-1,0.7l-0.3,0.2c-6.4,4.7-12,10.7-16.4,17.6l-0.2,0.4c-0.2,0.4-0.5,0.7-0.7,1.1
		L2599.7,486z M2597.8,534.3c0-10.1,2.3-20.1,6.8-29c0.5-1.1,1.1-2.2,1.7-3.2c0.3-0.4,0.5-0.9,0.8-1.4c0.4-0.6,0.8-1.2,1.2-1.9
		c0.6-0.9,1.2-1.7,1.8-2.5c0.3-0.4,0.6-0.9,1-1.4c0.5-0.6,1-1.2,1.5-1.9l0.7-0.8c0.9-1.1,1.9-2.1,2.9-3.1l0.7-0.7
		c0.6-0.6,1.2-1.1,1.7-1.6c0.4-0.4,0.8-0.7,1.3-1.1c0.7-0.7,1.6-1.3,2.4-1.9c0.6-0.4,1.2-0.9,1.7-1.3c0.4-0.3,0.8-0.6,1.3-0.9
		c1-0.6,2-1.2,3-1.9c18.5-10.6,40.8-9.5,58.2,3.1c0.5,0.4,1,0.7,1.4,1.1c0.5,0.4,0.8,0.6,1.2,0.9c0.4,0.3,0.9,0.7,1.4,1.2
		c0.7,0.6,1.4,1.2,2.1,1.9c0.3,0.4,0.7,0.7,1.1,1.1c0.3,0.4,0.8,0.9,1.2,1.2c0.4,0.4,0.7,0.7,1,1.1c0.3,0.4,0.7,0.9,1.1,1.3
		s0.7,0.8,1,1.2c0.3,0.4,0.6,0.8,1,1.2c0.6,0.8,1.3,1.7,1.8,2.5c0.1,0.2,0.2,0.4,0.4,0.6c0.5,0.7,1,1.5,1.5,2.3
		c0.2,0.2,0.3,0.5,0.5,0.7c0.5,0.7,0.9,1.5,1.3,2.3l0.3,0.6c0.5,0.9,1,1.9,1.4,2.9l0.1,0.1c3.5,7.8,5.5,16.3,5.8,25.1
		c0,0.8,0.1,1.6,0.1,2.4c0,10.1-2.3,20.1-6.8,29c-0.6,1.1-1.1,2.2-1.7,3.2c-0.2,0.4-0.5,0.9-0.8,1.4c-0.4,0.6-0.8,1.2-1.2,1.9
		c-0.6,0.9-1.2,1.7-1.8,2.5c-0.3,0.4-0.6,0.9-1,1.4c-0.5,0.6-1,1.2-1.5,1.9l-0.7,0.8c-0.9,1.1-1.9,2.1-2.9,3.1l-0.7,0.7
		c-0.6,0.6-1.2,1.1-1.7,1.6c-0.4,0.4-0.8,0.7-1.3,1.1c-0.7,0.7-1.6,1.3-2.4,1.9c-0.6,0.4-1.2,0.9-1.7,1.3c-0.4,0.3-0.8,0.6-1.3,0.9
		c-1,0.6-2,1.2-3,1.9c-8.3,4.8-17.5,7.2-26.9,7.2l-45.6-0.1l0.1-29.7l20.6,0l0-0.1c16.3,15.1,40.9,12.9,54.8-4.7s12-44.2-4.3-59.2
		c-16.3-15.1-40.9-12.9-54.8,4.7c-12.4,15.7-12.4,38.8-0.1,54.4l-21.7-0.1C2599.8,553,2597.8,543.8,2597.8,534.3L2597.8,534.3z
		 M2620.6,534.4c0-20.4,15.4-37,34.4-36.9c18.9,0,34.2,16.7,34.1,37.1c0,20.4-15.4,37-34.3,36.9
		C2635.9,571.5,2620.6,554.9,2620.6,534.4C2620.6,534.4,2620.6,534.4,2620.6,534.4L2620.6,534.4z M2590.9,566.4l13.7,0l-0.1,29.7
		l-13.7,0L2590.9,566.4z"/>
	<path class="st8" d="M2631.7,554.5c0.5,0.7,1,1.4,1.6,2c0.1,0.1,0.2,0.2,0.3,0.4c0.5,0.5,1,1,1.5,1.5c0.2,0.2,0.5,0.4,0.7,0.7
		c0.4,0.4,0.8,0.7,1.3,1.1c0.4,0.4,0.7,0.6,1.1,0.9c0.4,0.2,0.7,0.4,1,0.7c0.5,0.3,0.9,0.6,1.3,0.9c0.1,0,0.1,0.1,0.1,0.1
		c0.2,0.1,0.4,0.2,0.6,0.3c0.6,0.4,1.3,0.7,2,1.1c0.3,0.1,0.6,0.2,0.9,0.4c0.6,0.2,1.2,0.5,1.8,0.7c0.3,0.1,0.7,0.2,1,0.3
		c0.6,0.2,1.1,0.4,1.7,0.5c0.4,0.1,0.8,0.1,1.2,0.3c0.6,0.1,1.1,0.2,1.7,0.3c0.5,0.1,0.9,0.1,1.4,0.1c0.5,0.1,1,0.1,1.5,0.1
		c0.2,0,0.3,0,0.5,0c0.5,0,0.9-0.1,1.3-0.1c0.3,0,0.7,0,1-0.1c0.7-0.1,1.5-0.2,2.2-0.3l0.5-0.1c0.9-0.2,1.7-0.4,2.5-0.6
		c0.1,0,0.1,0,0.2-0.1l0.1,0c0.9-0.2,1.8-0.6,2.6-0.9l0.2-0.1c0.9-0.4,1.7-0.7,2.5-1.2c0.1-0.1,0.1-0.1,0.2-0.1
		c0.8-0.4,1.6-0.9,2.4-1.4l0.3-0.2c0.7-0.5,1.4-1.1,2.1-1.5c0.1-0.1,0.2-0.2,0.4-0.3c0.6-0.5,1.2-1.1,1.7-1.6
		c0.2-0.2,0.3-0.4,0.5-0.5c0.5-0.5,0.9-1,1.3-1.5l0.7-0.8c0.3-0.4,0.7-0.9,1-1.4c0.3-0.5,0.6-0.7,0.8-1.1c0.2-0.4,0.5-0.9,0.7-1.4
		c0.2-0.4,0.5-0.8,0.7-1.2l0.1-0.1c0.5-1.1,1-2.2,1.4-3.3c0.1-0.3,0.2-0.6,0.3-0.9c0.3-0.9,0.6-1.7,0.8-2.6c0.1-0.4,0.2-0.7,0.2-1.1
		c0.2-0.9,0.3-1.8,0.5-2.7c0.1-0.3,0.1-0.6,0.1-1c0.1-1.2,0.2-2.5,0.2-3.7c0-0.9-0.1-1.9-0.1-2.9c0-0.4-0.1-0.7-0.1-1.1
		c-0.1-0.6-0.2-1.1-0.2-1.7c-0.1-0.7-0.2-1.4-0.4-2c-0.1-0.5-0.2-0.9-0.3-1.4l0-0.1c-0.2-0.9-0.5-1.7-0.9-2.6
		c-0.1-0.1-0.1-0.2-0.1-0.4c-0.3-0.9-0.7-1.8-1.1-2.6c-0.1-0.1-0.1-0.1-0.1-0.2c-0.5-0.9-0.9-1.7-1.4-2.6c0-0.1-0.1-0.1-0.1-0.1
		c-0.5-0.8-1-1.6-1.6-2.4l-0.1-0.2c-0.5-0.7-1.1-1.4-1.7-2c-0.1-0.1-0.2-0.2-0.3-0.4c-0.5-0.6-1-1.1-1.5-1.6
		c-0.2-0.2-0.4-0.4-0.6-0.6c-0.4-0.4-0.9-0.7-1.3-1.1c-0.5-0.4-0.7-0.6-1-0.9c-0.3-0.2-0.7-0.5-1-0.7c-0.5-0.3-0.9-0.6-1.3-0.9
		l-0.1-0.1c-1-0.6-2-1.1-3-1.6c-0.3-0.1-0.6-0.2-0.9-0.3c-0.8-0.3-1.6-0.6-2.4-0.9c-0.3-0.1-0.6-0.2-1-0.3c-0.9-0.2-1.7-0.4-2.5-0.5
		c-0.3-0.1-0.6-0.1-0.9-0.1c-1.1-0.1-2.3-0.3-3.4-0.3c-0.9,0-1.7,0.1-2.6,0.1c-0.3,0-0.6,0.1-1,0.1c-0.5,0.1-1,0.2-1.6,0.2
		c-0.6,0.1-1.3,0.2-1.8,0.4c-0.5,0.1-0.9,0.2-1.3,0.4l-0.1,0c-0.8,0.2-1.6,0.6-2.4,0.9c-0.1,0.1-0.2,0.1-0.3,0.1
		c-0.8,0.4-1.6,0.7-2.4,1.2l-0.2,0.1c-0.8,0.4-1.6,0.9-2.4,1.5c-0.1,0-0.1,0.1-0.1,0.1c-0.7,0.5-1.4,1.1-2.2,1.7l-0.2,0.2
		c-0.6,0.6-1.2,1.1-1.8,1.7c-0.1,0.1-0.3,0.2-0.4,0.4c-0.5,0.5-0.9,1.1-1.4,1.5c-0.2,0.2-0.5,0.5-0.6,0.7c-0.3,0.4-0.6,0.9-0.9,1.3
		c-0.3,0.4-0.6,0.8-0.9,1.2c-0.2,0.3-0.4,0.6-0.6,1c-0.3,0.5-0.6,1.1-0.9,1.5c0,0.1,0,0.1-0.1,0.1c-0.5,1.1-1,2.2-1.4,3.3
		c-0.1,0.3-0.2,0.6-0.3,0.9c-0.3,0.9-0.6,1.7-0.8,2.6c-0.1,0.4-0.2,0.7-0.2,1.1c-0.2,0.9-0.3,1.8-0.5,2.7c-0.1,0.3-0.1,0.6-0.1,1
		c-0.1,1.2-0.2,2.5-0.2,3.7c0,0.9,0.1,1.9,0.1,2.8c0,0.4,0.1,0.7,0.1,1.1c0.1,0.6,0.2,1.1,0.2,1.7c0.1,0.7,0.2,1.4,0.4,2
		c0.1,0.5,0.2,0.9,0.3,1.4l0,0.1c0.2,0.9,0.5,1.7,0.9,2.6c0.1,0.1,0.1,0.2,0.1,0.4c0.3,0.9,0.7,1.7,1.1,2.6c0.1,0.1,0.1,0.1,0.1,0.2
		c0.5,0.9,0.9,1.7,1.4,2.6c0,0.1,0.1,0.1,0.1,0.1c0.5,0.8,1,1.6,1.6,2.4C2631.6,554.3,2631.7,554.4,2631.7,554.5L2631.7,554.5z
		 M2655.3,561.6c-0.6,0-1.3,0-2-0.1c-0.3,0-0.7,0-1-0.1c-0.9-0.1-1.8-0.3-2.7-0.4c-0.2-0.1-0.5-0.1-0.7-0.2c-0.7-0.2-1.4-0.4-2-0.6
		c-0.3-0.1-0.6-0.2-0.9-0.4c-0.6-0.2-1.1-0.5-1.7-0.8l-0.5-0.3l-0.5-4.1c-0.3-2.3,0.4-4.7,2-6.3l6.7-7.2c0.1,0.1,0.2,0.1,0.2,0.1
		l0.1,0.1l0.3,0.1l0,11.6c0,0.7,0.1,1.4,0.2,2.2c0,0.2,0.1,0.4,0.1,0.6c0.1,0.6,0.2,1.1,0.5,1.6c0.1,0.2,0.1,0.3,0.2,0.5
		c0.2,0.6,0.5,1.2,0.9,1.9c0.1,0.1,0.2,0.2,0.2,0.4c0.3,0.4,0.6,0.9,1,1.3c0.1,0.1,0.1,0.2,0.2,0.2L2655.3,561.6L2655.3,561.6z
		 M2656.7,536c-0.1,0.2-0.3,0.4-0.5,0.5c-0.1,0.1-0.3,0.2-0.4,0.3c-0.7,0.4-1.6,0.2-2.2-0.3c-0.2-0.1-0.4-0.4-0.5-0.6
		c-0.6-0.8-0.6-2,0-2.8c0.1-0.2,0.3-0.4,0.5-0.6c0.6-0.6,1.5-0.7,2.2-0.3c0.2,0.1,0.3,0.2,0.4,0.3c0.2,0.1,0.3,0.3,0.5,0.5
		c0.1,0.1,0.2,0.3,0.3,0.5c0.2,0.6,0.2,1.3,0,1.9C2656.9,535.6,2656.8,535.8,2656.7,536L2656.7,536z M2673.9,552.2
		c-0.7,0.8-1.4,1.6-2.1,2.4c-0.1,0.1-0.2,0.2-0.3,0.4c-1.7,1.6-3.7,3-5.8,4.1l-0.1,0.1c-1.1,0.6-2.2,1-3.3,1.4l-1.3-0.7
		c-2.3-1.2-3.8-3.8-3.8-6.6l0-11.6l0.3-0.1l0.1-0.1l0.2-0.1l6.7,7.3c0.5,0.5,1,1,1.6,1.4l0.3,0.2c0.6,0.4,1.1,0.7,1.7,1l0.3,0.1
		c0.6,0.2,1.3,0.5,2,0.6l0.1,0c0.6,0.1,1.3,0.2,2,0.2c0.1,0,0.1,0,0.2,0l0.1,0c0.3,0,0.6,0,0.9-0.1c0.1,0,0.3,0,0.4,0
		C2674,552.1,2673.9,552.1,2673.9,552.2L2673.9,552.2z M2679.5,532.7c0.1-0.2,0.3-0.3,0.4-0.5c0.1,0.8,0.1,1.6,0.1,2.4
		c0,1-0.1,2-0.2,3c0,0.2-0.1,0.5-0.1,0.7c-0.1,0.7-0.2,1.5-0.3,2.2c-0.1,0.3-0.1,0.6-0.2,0.9c-0.2,0.6-0.3,1.3-0.5,1.9
		c-0.1,0.3-0.2,0.7-0.3,1c-0.2,0.6-0.4,1.1-0.7,1.7c-0.1,0.2-0.2,0.4-0.3,0.6l-3.8,0.5c-2.1,0.3-4.3-0.4-5.8-2.1l-6.7-7.3
		c0.1-0.1,0.1-0.2,0.1-0.2l0.1-0.1c0.1-0.1,0.1-0.2,0.1-0.3l9.5,0c0.5,0,0.9,0,1.3-0.1c0.2,0,0.3-0.1,0.5-0.1
		c0.3-0.1,0.6-0.1,0.9-0.2c0.2-0.1,0.3-0.1,0.5-0.2c0.2-0.1,0.5-0.1,0.7-0.2c0.2-0.1,0.3-0.1,0.5-0.2c0.2-0.1,0.5-0.2,0.7-0.3
		s0.3-0.2,0.5-0.3c0.2-0.1,0.4-0.2,0.6-0.4s0.3-0.2,0.5-0.4c0.2-0.1,0.4-0.3,0.6-0.4c0.2-0.2,0.3-0.3,0.5-0.4
		c0.2-0.2,0.3-0.3,0.5-0.5C2679.2,533,2679.4,532.9,2679.5,532.7L2679.5,532.7z M2668.7,523c0.1-0.1,0.2-0.2,0.2-0.4
		c0.2-0.2,0.3-0.5,0.5-0.8c0.1-0.1,0.2-0.3,0.2-0.4c0.1-0.2,0.3-0.5,0.4-0.8c0.1-0.2,0.1-0.4,0.2-0.5c0.1-0.2,0.2-0.5,0.3-0.8
		c0.1-0.2,0.1-0.4,0.1-0.6c0.1-0.2,0.1-0.5,0.2-0.8c0.1-0.2,0.1-0.4,0.1-0.6c0.1-0.2,0.1-0.5,0.1-0.8c0.1-0.2,0-0.4,0-0.6
		s0.1-0.5,0.1-0.8s-0.1-0.4-0.1-0.6s0-0.4-0.1-0.7l0.2,0.2c0.7,0.7,1.4,1.4,2.1,2.2l0.3,0.4c1.4,1.7,2.6,3.7,3.6,5.7
		c0.1,0.1,0.1,0.2,0.1,0.3c0.5,1,0.8,2,1.1,3c0,0.1,0.1,0.1,0.1,0.2l-2.3,3.3c-1.3,1.9-3.3,3-5.5,3l-9.5,0c-0.1-0.1-0.1-0.2-0.1-0.3
		l-0.1-0.1c0-0.1-0.1-0.2-0.1-0.2l6.7-7.2C2668.1,523.7,2668.4,523.4,2668.7,523L2668.7,523L2668.7,523z M2653.2,507.4
		c0.9-0.1,1.7-0.1,2.5-0.1c0.3,0,0.6,0,1,0.1c0.8,0.1,1.6,0.2,2.4,0.3c0.2,0.1,0.4,0.1,0.6,0.1c1,0.2,2,0.5,3,0.8
		c0.2,0.1,0.4,0.2,0.6,0.2c0.7,0.3,1.5,0.6,2.2,1l0.5,0.2l0.5,4.1c0.3,2.3-0.4,4.7-2,6.3l-6.7,7.2l-0.2-0.1l-0.1-0.1
		c-0.1-0.1-0.2-0.1-0.3-0.1l0-10.3c0-0.5,0-0.9-0.1-1.4c0-0.2-0.1-0.3-0.1-0.5c-0.1-0.3-0.1-0.6-0.2-0.9c-0.1-0.2-0.1-0.4-0.2-0.6
		c-0.1-0.2-0.1-0.6-0.2-0.8c-0.1-0.2-0.2-0.4-0.2-0.6c-0.1-0.2-0.2-0.5-0.3-0.7c-0.1-0.2-0.2-0.4-0.3-0.6c-0.1-0.2-0.2-0.4-0.3-0.7
		s-0.2-0.4-0.3-0.6c-0.1-0.2-0.3-0.4-0.4-0.6c-0.2-0.2-0.3-0.3-0.4-0.5c-0.1-0.2-0.3-0.4-0.5-0.6c-0.2-0.2-0.3-0.3-0.5-0.4
		c-0.2-0.1-0.3-0.3-0.5-0.4C2652.9,507.4,2653.1,507.4,2653.2,507.4L2653.2,507.4z M2635.9,516.7c0.6-0.7,1.3-1.5,2-2.2l0.4-0.4
		c1.6-1.5,3.4-2.8,5.3-3.8l0.3-0.2c0.9-0.5,1.8-0.9,2.8-1.2c0.1,0,0.1-0.1,0.2-0.1l3,2.5c1.7,1.4,2.7,3.6,2.7,5.9l0,10.2
		c-0.1,0.1-0.2,0.1-0.3,0.1l-0.1,0.1c-0.1,0.1-0.2,0.1-0.2,0.1l-6.7-7.3c-0.5-0.5-1-1-1.6-1.4l-0.2-0.2c-0.6-0.4-1.1-0.7-1.7-1
		l-0.3-0.1c-0.6-0.2-1.3-0.5-1.9-0.6l-0.2,0c-0.6-0.1-1.3-0.2-2-0.2l-0.1,0c-0.5,0-0.9,0-1.4,0.1
		C2635.8,516.9,2635.9,516.8,2635.9,516.7L2635.9,516.7z M2630.3,536.2c-0.1,0.2-0.3,0.3-0.4,0.5c-0.1-0.7-0.1-1.6-0.1-2.3
		c0-1,0.1-2,0.2-3c0-0.2,0.1-0.5,0.1-0.7c0.1-0.7,0.2-1.4,0.3-2.2c0.1-0.3,0.1-0.6,0.2-0.9c0.2-0.6,0.3-1.3,0.5-1.9
		c0.1-0.3,0.2-0.7,0.3-1c0.2-0.6,0.4-1.1,0.6-1.7l0.3-0.6l3.8-0.5c2.1-0.3,4.3,0.4,5.8,2.1l6.7,7.3c-0.1,0.1-0.1,0.2-0.1,0.2
		l-0.1,0.1c-0.1,0.1-0.1,0.2-0.1,0.4l-9.5,0c-0.5,0-0.9,0-1.3,0.1c-0.2,0-0.3,0.1-0.5,0.1c-0.3,0.1-0.6,0.1-0.9,0.2
		c-0.2,0.1-0.3,0.1-0.5,0.2c-0.2,0.1-0.5,0.1-0.7,0.2c-0.2,0.1-0.3,0.2-0.5,0.2c-0.2,0.1-0.5,0.2-0.7,0.3c-0.2,0.1-0.3,0.2-0.5,0.3
		s-0.4,0.2-0.6,0.4c-0.2,0.1-0.3,0.2-0.5,0.4s-0.4,0.3-0.6,0.4c-0.2,0.2-0.3,0.3-0.5,0.4c-0.2,0.1-0.3,0.3-0.5,0.5
		C2630.4,536,2630.4,536.1,2630.3,536.2L2630.3,536.2z M2631.1,543.1l2.3-3.3c1.3-1.9,3.3-3,5.5-3l9.5,0c0.1,0.1,0.1,0.2,0.1,0.4
		l0.1,0.1c0.1,0.1,0.1,0.2,0.1,0.2l-6.7,7.2c-0.3,0.3-0.6,0.7-0.9,1.1c-0.1,0.1-0.2,0.3-0.3,0.4c-0.2,0.2-0.3,0.5-0.5,0.7
		c-0.1,0.2-0.2,0.4-0.3,0.5c-0.1,0.2-0.2,0.5-0.3,0.7c-0.1,0.2-0.1,0.4-0.2,0.6c-0.1,0.2-0.2,0.5-0.3,0.7c-0.1,0.2-0.1,0.4-0.2,0.6
		c-0.1,0.2-0.1,0.5-0.2,0.7c-0.1,0.2-0.1,0.4-0.1,0.6c-0.1,0.2-0.1,0.5-0.1,0.7c0,0.2,0,0.4,0,0.6s0,0.5,0,0.8
		c0.1,0.2,0.1,0.4,0.1,0.6c0,0.2,0,0.4,0.1,0.7l-0.2-0.2c-0.7-0.7-1.4-1.4-2-2.1c-0.1-0.1-0.2-0.3-0.4-0.4c-1.4-1.7-2.6-3.7-3.6-5.7
		c-0.1-0.1-0.1-0.2-0.2-0.3c-0.5-1-0.8-2-1.1-3C2631.2,543.3,2631.2,543.2,2631.1,543.1L2631.1,543.1z"/>
	<path class="st8" d="M2704.9,588.9l-4.5,0l0-5l4.5,0L2704.9,588.9z"/>
	<path class="st8" d="M2609.4,485l-4.6,0l0-5l4.6,0L2609.4,485z"/>
	<path class="st8" d="M2654.8,586.3l0,5c29,0,52.5-25.3,52.6-56.6l-4.6,0C2702.7,563.2,2681.2,586.3,2654.8,586.3z"/>
	<path class="st8" d="M2650.2,591.2l-4.6,0l0-5l4.6,0L2650.2,591.2z"/>
</g>
<rect x="2673.4" y="437.4" class="st1" width="55.1" height="23"/>
<rect x="2662.1" y="418.3" class="st1" width="73.5" height="20.1"/>
<rect x="2297.6" y="136.7" class="st0" width="46.5" height="395.9"/>
<rect x="1615.8" y="134.9" class="st0" width="46.5" height="395.9"/>
<path class="st15" d="M551.1,44.4c1-23.7-18.8-43.5-44.4-44.4c-25.6-0.9-47,17.5-48,41.2c-1,23.7,18.8,43.5,44.4,44.4
	C528.6,86.5,550.1,68.1,551.1,44.4"/>
<path class="st16" d="M536.8,43.9c0.7-16.5-13-30.1-30.8-30.7c-17.8-0.6-32.6,12.1-33.2,28.5c-0.7,16.5,13,30.1,30.8,30.7
	C521.4,73.1,536.1,60.4,536.8,43.9"/>
<path class="st17" d="M481.9,63.5c5.5,5.1,13.2,8.7,21.7,9c8.5,0.3,16.5-2.7,22.4-7.5c-5.5-5.1-13.2-8.7-21.7-9
	C495.7,55.7,487.8,58.7,481.9,63.5"/>
<path class="st18" d="M504.7,46.1c-1.1,0-1.8-0.4-2.4-1.1c-1.4-1.4-1.3-3.3,0.2-4.6l11.1-9.5c1.5-1.3,3.6-1.2,5,0.2
	c1.4,1.4,1.3,3.3-0.2,4.6l-11.1,9.5C506.5,45.9,505.8,46.2,504.7,46.1"/>
<path class="st19" d="M500,83.2c-3.3,0-6.7-0.6-10-2.4l-0.3,37.3l20.1,0.1l0.3-37.3C506.7,82.7,503.4,83.2,500,83.2"/>
<g>
	<path class="st18" d="M536.6,40.6l-6.8-0.2c-2.1-0.1-3.6,1.2-3.7,3.2c-0.1,2,1.3,3.3,3.4,3.4l6.8,0.2c0-1,0.5-2.3,0.5-3.3
		C536.9,43,536.9,41.6,536.6,40.6"/>
	<path class="st18" d="M506.1,13.2c-1.1,0-2.5-0.1-3.6,0.2l-0.3,6.3c-0.1,2,1.3,3.3,3.4,3.4c2.1,0.1,3.6-1.2,3.7-3.2l0.3-6.3
		C508.6,13.3,507.1,13.2,506.1,13.2"/>
	<path class="st18" d="M480.1,38.7l-6.8-0.2c0,1-0.5,2.3-0.5,3.3c0,1-0.1,2.3,0.2,3.3l6.8,0.2c2.1,0.1,3.6-1.2,3.7-3.2
		C483.6,40.1,482.2,38.7,480.1,38.7"/>
</g>
<g id="Page-1_1_">
	<path id="Shape_4_" class="st14" d="M1298,309.6c-0.8-4.8-4.1-12-16-16.1c-6.2-2.1-14.1-3.3-22.8-3.3c-8.7,0-16.6,1.1-22.8,3.2
		c-12.2,4.1-16.1,11.4-17.4,16.2h-27.2v-50.8c0.5-0.6,50.3-22.3,55.2-24.1v23.8c0,2.4,6,4.4,13.3,4.4c7.3,0,13.3-2,13.3-4.4v-23.4
		c26.3,10.4,49.5,20.7,51.2,23.7v50.8H1298z M1269.9,429.8h-22.8c1.2-3.6,3.9-7.6,8.5-9.3c1.9-0.7,4.7-0.7,6.6-0.1
		C1266.8,422.1,1269.1,426.2,1269.9,429.8z M1292.4,448.7h-67.8c-5.5,0-10.2-3.4-12-8.2c31.2,0,54.3,0,69.4,0c5.3,0,12.8,0,22.4,0
		C1302.7,445.2,1297.9,448.7,1292.4,448.7z"/>
	
		<g id="motor" transform="translate(154.000000, 351.500000) rotate(90.000000) translate(-154.000000, -351.500000) translate(-138.500000, 197.500000)">
		<path id="Shape_3_" class="st14" d="M393.4-865.8H343c-3,0-5.3-2.8-5.3-6.2v-12.8h-13.4c-0.1,0-0.2,0-0.2,0h-12.8v12.8
			c0,3.4-2.4,6.2-5.3,6.2h-50.4c-3,0-5.3-2.8-5.3-6.2v-13.2c-28.3-4-50.3-31.8-50.3-65.5s22-61.6,50.3-65.5v-8.1h-4.3
			c-3,0-5.3-2.8-5.3-6.2v-18.9c0-3.4,2.4-6.2,5.3-6.2h69.6c3,0,5.3,2.8,5.3,6.2v18.9c0,3.4-2.4,6.2-5.3,6.2h-4.3v7.6H324
			c0.1,0,0.2,0,0.2,0h68.9c15,0,27.5,13,29.4,29.8h11.3c3,0,5.3,2.8,5.3,6.2v60.4c0,3.4-2.4,6.2-5.3,6.2h-11.3
			c-1.7,14.5-11.4,26.1-23.7,28.9v13.4C398.7-868.5,396.3-865.8,393.4-865.8z M348.4-878.1H388v-6.6h-39.7V-878.1z M260.9-878.1
			h39.7v-6.6h-39.7V-878.1z M343-897h50.1c10.4,0,18.9-9.8,18.9-21.8v-63.8c0-12-8.5-21.8-18.9-21.8H332c5.4,17,8.2,35.1,8.2,53.7
			s-2.7,36.7-8.2,53.7H343z M313.8-897h6.8c5.9-16.9,8.9-35,8.9-53.7c0-18.7-3-36.8-8.9-53.7h-6.8c5.4,17,8.2,35.1,8.2,53.7
			S319.2-914.1,313.8-897z M257.1-897h45.2c5.9-16.9,8.9-35,8.9-53.7s-3-36.8-8.9-53.7h-45.2c-25.7,0-46.6,24.1-46.6,53.7
			S231.5-897,257.1-897z M422.8-926.5h5.7v-48.1h-5.7V-926.5z M260.9-1016.7h39.7v-7.6h-39.7V-1016.7z M251.2-1036.6h58.9v-6.6
			h-58.9V-1036.6z"/>
	</g>
	<path id="Path" class="st20" d="M1270.5,349.5v-7c0-1.9,1.3-3.5,2.9-3.5h47.1c1.6,0,2.9,1.6,2.9,3.5l0,7H1270.5z"/>
	<path id="Path_1_" class="st20" d="M1193.5,330.3v-7c0-1.9,1.3-3.5,2.9-3.5h47.1c1.6,0,2.9,1.6,2.9,3.5l0,7H1193.5z"/>
</g>
<path class="st0" d="M1233.6,181.5l-0.1,48l53.5,0.1l0.2-65.2c0.1-21.8-20.2-39.4-45.2-39.5l-85-0.2l-0.1,46.5l65.2,0.2
	C1228.4,171.4,1233.6,175.9,1233.6,181.5z"/>
<rect x="1231.2" y="211.6" class="st1" width="55.1" height="23"/>
<rect x="1222" y="203.3" class="st1" width="73.5" height="20.1"/>
<path class="st0" d="M1479.7,190l0.4,48l-45,0.3l-0.5-65.2c-0.2-21.8,16.8-39.5,37.8-39.7l71.5-0.5l0.3,46.5l-54.9,0.4
	C1483.9,179.9,1479.6,184.4,1479.7,190z"/>
<path class="st0" d="M1424.7,314.2h-48v53.5h65.2c21.8,0,39.4-20.3,39.4-45.3v-85h-46.5v65.2C1434.8,309,1430.3,314.2,1424.7,314.2z
	"/>
<rect x="1430.1" y="218.3" class="st1" width="55.1" height="23"/>
<rect x="1420.9" y="229.8" class="st1" width="73.5" height="20.1"/>
<rect x="1222" y="498.3" class="st1" width="73.5" height="20.1"/>
<rect x="2308.8" y="460.7" transform="matrix(1.548729e-02 -0.9999 0.9999 1.548729e-02 1785.5143 2808.3372)" class="st1" width="20.1" height="73.5"/>
<rect x="2291.3" y="504.5" class="st1" width="55.1" height="14.8"/>
<g id="Layer_3_1_">
	<path class="st3" d="M1892.8,583.5l66.2,0.2c32.8,0.1,59.4-28.6,59.5-64c0.1-35.4-26.4-64.2-59.2-64.3c-32.8-0.1-59.4,28.6-59.5,64
		c0,10.3,2.2,20.5,6.6,29.7l-13.6,0L1892.8,583.5z"/>
	
		<ellipse transform="matrix(2.407446e-03 -1 1 2.407446e-03 1434.9709 2477.45)" class="st4" cx="1959.2" cy="519.5" rx="39.5" ry="36.5"/>
	<path class="st5" d="M1986.6,576.4l16.5,5.4c5.7,1.9,11.8-1.6,13.5-7.8c0.6-2.2,0.6-4.5,0-6.8l-4.9-17.8
		C2006.1,561,1997.3,570.4,1986.6,576.4z"/>
	<path class="st5" d="M1931.8,462.7l-16.5-5.4c-5.7-1.9-11.8,1.6-13.5,7.8c-0.6,2.2-0.6,4.5,0,6.7l4.9,17.8
		C1912.3,478.1,1921.1,468.7,1931.8,462.7z"/>
	
		<ellipse transform="matrix(2.407446e-03 -1 1 2.407446e-03 1434.9709 2477.45)" class="st6" cx="1959.2" cy="519.5" rx="29.6" ry="27.4"/>
	<path class="st3" d="M1991.3,450.5l0,15.1c16.3,11.3,26.5,30.7,27.2,51.6l0.1,0l0.2-66.7l9.1,0l0-4.9l-45.6-0.1l0,4.9L1991.3,450.5
		z"/>
	<path class="st5" d="M1991.3,459.1l0,6.5c16.3,11.3,26.5,30.7,27.2,51.6l0.1,0l0.1-29.7C2014,477.3,2005.4,463.8,1991.3,459.1
		L1991.3,459.1z"/>
	<path class="st6" d="M1913.4,583.6l-4.6,0l0.1-34.6l4.6,0L1913.4,583.6z"/>
	<path class="st6" d="M2018.7,460.4l-27.4-0.1l0-5l27.4,0.1L2018.7,460.4z"/>
	<path class="st6" d="M2009.2,573.9l-4.5,0l0-5l4.5,0L2009.2,573.9z"/>
	<path class="st6" d="M1913.7,470.1l-4.6,0l0-5l4.6,0L1913.7,470.1z"/>
	<path class="st4" d="M2007.1,519.6l4.6,0c-0.1,31.3-23.7,56.7-52.6,56.6l0-5C1985.5,571.3,2007,548.2,2007.1,519.6z"/>
	<path class="st4" d="M1954.5,576.3l-4.6,0l0-5l4.6,0L1954.5,576.3z"/>
	<path class="st6" d="M1975.2,519.5l-11.4,0c0,1.3-0.5,2.5-1.3,3.5l8.1,8.7c2,2.2,4.9,3.2,7.7,2.8l5-0.7c3.5-6.9,4.4-14.9,2.4-22.5
		l-3,4.3C1980.8,518.1,1978.1,519.6,1975.2,519.5L1975.2,519.5z"/>
	<path class="st6" d="M1959.2,538.1l0-13.7c-1.2,0-2.4-0.5-3.2-1.4l-8.1,8.7c-2,2.2-3,5.3-2.6,8.4l0.7,5.4
		c6.2,3.7,13.5,4.7,20.3,2.7l-2.1-1.1C1961.1,545.2,1959.1,541.8,1959.2,538.1L1959.2,538.1z"/>
	<path class="st6" d="M1959.2,502.3l0,12.4c1.2,0,2.4,0.5,3.2,1.4l8.1-8.7c2-2.2,3-5.3,2.6-8.4l-0.7-5.4c-6.4-3.8-13.8-4.7-20.8-2.5
		l4,3.2C1957.9,496.2,1959.2,499.2,1959.2,502.3L1959.2,502.3z"/>
	<path class="st6" d="M1932.9,527.8l3-4.3c1.7-2.5,4.4-4,7.3-4l11.4,0c0-1.3,0.5-2.5,1.3-3.5l-8.1-8.7c-2-2.2-4.9-3.2-7.7-2.8
		l-5,0.7C1931.7,512.1,1930.8,520.2,1932.9,527.8L1932.9,527.8z"/>
	<path class="st7" d="M1970.5,531.8l-8.1-8.7c-0.9,0.9-2,1.4-3.2,1.4l0,13.7c0,3.7,1.9,7.1,5,8.8l2.1,1.1
		c7.2-2.1,13.3-7.2,16.9-14.3l-5,0.7C1975.4,535,1972.5,533.9,1970.5,531.8z"/>
	<path class="st7" d="M1947.9,531.7l8.1-8.7c-0.9-0.9-1.3-2.2-1.3-3.5l-11.4,0c-2.9,0-5.6,1.5-7.3,4l-3,4.3c2,7.5,6.7,13.9,13,17.7
		l-0.7-5.4C1944.9,537,1945.8,533.9,1947.9,531.7z"/>
	<path class="st7" d="M1970.5,507.3l-8.1,8.7c0.9,0.9,1.3,2.2,1.3,3.5l11.4,0c2.9,0,5.6-1.5,7.3-4l3-4.3c-2-7.5-6.7-13.9-13-17.7
		l0.7,5.4C1973.5,502,1972.6,505.1,1970.5,507.3L1970.5,507.3z"/>
	<path class="st7" d="M1947.9,507.3l8.1,8.8c0.9-0.9,2-1.4,3.2-1.4l0-12.4c0-3.1-1.4-6-3.7-7.9l-4-3.2c-7,2.2-12.9,7.3-16.4,14.1
		l5-0.7C1943,504,1945.9,505.1,1947.9,507.3z"/>
	
		<ellipse transform="matrix(2.407446e-03 -1 1 2.407446e-03 1434.9709 2477.45)" class="st7" cx="1959.2" cy="519.5" rx="5" ry="4.6"/>
	<path class="st5" d="M1935,549.1c-3-2.9-5.5-6.2-7.5-9.9l-24.9-0.1c1,3.4,2.3,6.7,3.8,9.9L1935,549.1z"/>
	<path class="st8" d="M1895.1,586l63.9,0.2c9.6,0,19.1-2.4,27.8-7.1l15.6,5.1c6.9,2.3,14.2-2,16.3-9.5c0.8-2.7,0.8-5.5,0-8.1
		l-4.7-16.9c4.4-9.3,6.7-19.5,6.7-30c0-0.7,0-1.5-0.1-2.2c0-0.1,0.1-0.2,0.1-0.2l0.2-66.7l6.9,0l0-4.9l-45.6-0.1l0,4.9l6.8,0l0,10.7
		c-17.8-10.7-39.2-11.1-57.4-1.3l-15.6-5.1c-6.9-2.3-14.2,2-16.3,9.5c-0.8,2.7-0.8,5.5,0,8.1l4.6,16.9c-8.4,17.9-8.9,38.8-1.4,57.2
		l-7.6,0l0-7.4l-4.6,0l-0.1,54.3l4.6,0L1895.1,586z M2014.4,568c1.4,4.8-1.2,10-5.7,11.5c-1.6,0.5-3.3,0.5-4.9,0l-11.4-3.8l1-0.7
		l0.3-0.2c6.4-4.7,12-10.7,16.4-17.6l0.2-0.4c0.2-0.4,0.5-0.7,0.7-1.1L2014.4,568z M1993.6,450.5l22.9,0.1l0,5l-22.9-0.1
		L1993.6,450.5z M1993.6,460.4l22.9,0.1l-0.1,34.1c-0.6-1.5-1.2-3-1.8-4.4l-0.1-0.2c-0.6-1.3-1.3-2.6-1.9-3.9
		c-0.1-0.1-0.2-0.3-0.2-0.4c-0.7-1.2-1.4-2.5-2.2-3.7c-0.2-0.3-0.4-0.6-0.6-0.9c-0.6-0.9-1.3-1.9-1.9-2.7c-0.2-0.3-0.5-0.6-0.6-0.9
		c-0.7-1-1.5-2-2.4-2.9c-0.3-0.4-0.7-0.8-1-1.2c-0.6-0.7-1.3-1.4-1.9-2.1c-0.4-0.4-0.9-0.9-1.3-1.3c-0.7-0.7-1.5-1.4-2.3-2.1
		c-0.4-0.4-0.8-0.7-1.2-1.1c-1-0.8-1.9-1.6-3-2.4l-0.2-0.1L1993.6,460.4z M1904,471c-1.4-4.9,1.2-10,5.8-11.5c1.6-0.5,3.3-0.5,4.9,0
		l11.4,3.8c-0.3,0.2-0.7,0.5-1,0.7l-0.3,0.2c-6.4,4.7-12,10.7-16.4,17.6l-0.2,0.4c-0.2,0.4-0.5,0.7-0.7,1.1L1904,471z M1902.1,519.4
		c0-10.1,2.3-20.1,6.8-29c0.5-1.1,1.1-2.2,1.7-3.2c0.3-0.4,0.5-0.9,0.8-1.4c0.4-0.6,0.8-1.2,1.2-1.9c0.6-0.9,1.2-1.7,1.8-2.5
		c0.3-0.4,0.6-0.9,1-1.4c0.5-0.6,1-1.2,1.5-1.9l0.7-0.8c0.9-1.1,1.9-2.1,2.9-3.1l0.7-0.7c0.6-0.6,1.2-1.1,1.7-1.6
		c0.4-0.4,0.8-0.7,1.3-1.1c0.7-0.7,1.6-1.3,2.4-1.9c0.6-0.4,1.2-0.9,1.7-1.3c0.4-0.3,0.8-0.6,1.3-0.9c1-0.6,2-1.2,3-1.9
		c18.5-10.6,40.8-9.5,58.2,3.1c0.5,0.4,1,0.7,1.4,1.1s0.8,0.6,1.2,0.9c0.4,0.3,0.9,0.7,1.4,1.2c0.7,0.6,1.4,1.2,2.1,1.9
		c0.3,0.4,0.7,0.7,1.1,1.1c0.3,0.4,0.8,0.9,1.2,1.2s0.7,0.7,1,1.1c0.3,0.4,0.7,0.9,1.1,1.3s0.7,0.8,1,1.2c0.3,0.4,0.6,0.8,1,1.2
		c0.6,0.8,1.3,1.7,1.8,2.5c0.1,0.2,0.2,0.4,0.4,0.6c0.5,0.7,1,1.5,1.5,2.3c0.2,0.2,0.3,0.5,0.5,0.7c0.5,0.7,0.9,1.5,1.3,2.3l0.3,0.6
		c0.5,0.9,1,1.9,1.4,2.9l0.1,0.1c3.5,7.8,5.5,16.3,5.8,25.1c0,0.8,0.1,1.6,0.1,2.4c0,10.1-2.3,20.1-6.8,29c-0.6,1.1-1.1,2.2-1.7,3.2
		c-0.2,0.4-0.5,0.9-0.8,1.4c-0.4,0.6-0.8,1.2-1.2,1.9c-0.6,0.9-1.2,1.7-1.8,2.5c-0.3,0.4-0.6,0.9-1,1.4c-0.5,0.6-1,1.2-1.5,1.9
		l-0.7,0.8c-0.9,1.1-1.9,2.1-2.9,3.1l-0.7,0.7c-0.6,0.6-1.2,1.1-1.7,1.6c-0.4,0.4-0.8,0.7-1.3,1.1c-0.7,0.7-1.6,1.3-2.4,1.9
		c-0.6,0.4-1.2,0.9-1.7,1.3c-0.4,0.3-0.8,0.6-1.3,0.9c-1,0.6-2,1.2-3,1.9c-8.3,4.8-17.5,7.2-26.9,7.2l-45.6-0.1l0.1-29.7l20.6,0
		l0-0.1c16.3,15.1,40.9,12.9,54.8-4.7s12-44.2-4.3-59.2c-16.3-15.1-40.9-12.9-54.8,4.7c-12.4,15.7-12.4,38.8-0.1,54.4l-21.7-0.1
		C1904.1,538.1,1902.1,528.8,1902.1,519.4L1902.1,519.4z M1924.9,519.4c0-20.4,15.4-37,34.4-36.9c18.9,0,34.2,16.7,34.1,37.1
		c0,20.4-15.4,37-34.3,36.9C1940.2,556.5,1924.9,539.9,1924.9,519.4C1924.9,519.5,1924.9,519.4,1924.9,519.4L1924.9,519.4z
		 M1895.2,551.4l13.7,0l-0.1,29.7l-13.7,0L1895.2,551.4z"/>
	<path class="st8" d="M1936,539.6c0.5,0.7,1,1.4,1.6,2c0.1,0.1,0.2,0.2,0.3,0.4c0.5,0.5,1,1,1.5,1.5c0.2,0.2,0.5,0.4,0.7,0.7
		c0.4,0.4,0.8,0.7,1.3,1.1c0.4,0.4,0.7,0.6,1.1,0.9c0.4,0.2,0.7,0.4,1,0.7c0.5,0.3,0.9,0.6,1.3,0.9c0.1,0,0.1,0.1,0.1,0.1
		c0.2,0.1,0.4,0.2,0.6,0.3c0.6,0.4,1.3,0.7,2,1.1c0.3,0.1,0.6,0.2,0.9,0.4c0.6,0.2,1.2,0.5,1.8,0.7c0.3,0.1,0.7,0.2,1,0.3
		c0.6,0.2,1.1,0.4,1.7,0.5c0.4,0.1,0.8,0.1,1.2,0.3c0.6,0.1,1.1,0.2,1.7,0.3c0.5,0.1,0.9,0.1,1.4,0.1c0.5,0.1,1,0.1,1.5,0.1
		c0.2,0,0.3,0,0.5,0c0.5,0,0.9-0.1,1.3-0.1c0.3,0,0.7,0,1-0.1c0.7-0.1,1.5-0.2,2.2-0.3l0.5-0.1c0.9-0.2,1.7-0.4,2.5-0.6
		c0.1,0,0.1,0,0.2-0.1l0.1,0c0.9-0.2,1.8-0.6,2.6-0.9l0.2-0.1c0.9-0.4,1.7-0.7,2.5-1.2c0.1-0.1,0.1-0.1,0.2-0.1
		c0.8-0.4,1.6-0.9,2.4-1.4l0.3-0.2c0.7-0.5,1.4-1.1,2.1-1.5c0.1-0.1,0.2-0.2,0.4-0.3c0.6-0.5,1.2-1.1,1.7-1.6
		c0.2-0.2,0.3-0.4,0.5-0.5c0.5-0.5,0.9-1,1.3-1.5l0.7-0.8c0.3-0.4,0.7-0.9,1-1.4c0.3-0.5,0.6-0.7,0.8-1.1c0.2-0.4,0.5-0.9,0.7-1.4
		c0.2-0.4,0.5-0.8,0.7-1.2l0.1-0.1c0.5-1.1,1-2.2,1.4-3.3c0.1-0.3,0.2-0.6,0.3-0.9c0.3-0.9,0.6-1.7,0.8-2.6c0.1-0.4,0.2-0.7,0.2-1.1
		c0.2-0.9,0.3-1.8,0.5-2.7c0.1-0.3,0.1-0.6,0.1-1c0.1-1.2,0.2-2.5,0.2-3.7c0-0.9-0.1-1.9-0.1-2.9c0-0.4-0.1-0.7-0.1-1.1
		c-0.1-0.6-0.2-1.1-0.2-1.7c-0.1-0.7-0.2-1.4-0.4-2c-0.1-0.5-0.2-0.9-0.3-1.4l0-0.1c-0.2-0.9-0.5-1.7-0.9-2.6
		c-0.1-0.1-0.1-0.2-0.1-0.4c-0.3-0.9-0.7-1.8-1.1-2.6c-0.1-0.1-0.1-0.1-0.1-0.2c-0.5-0.9-0.9-1.7-1.4-2.6c0-0.1-0.1-0.1-0.1-0.1
		c-0.5-0.8-1-1.6-1.6-2.4l-0.1-0.2c-0.5-0.7-1.1-1.4-1.7-2c-0.1-0.1-0.2-0.2-0.3-0.4c-0.5-0.6-1-1.1-1.5-1.6
		c-0.2-0.2-0.4-0.4-0.6-0.6c-0.4-0.4-0.9-0.7-1.3-1.1c-0.5-0.4-0.7-0.6-1-0.9c-0.3-0.2-0.7-0.5-1-0.7c-0.5-0.3-0.9-0.6-1.3-0.9
		l-0.1-0.1c-1-0.6-2-1.1-3-1.6c-0.3-0.1-0.6-0.2-0.9-0.3c-0.8-0.3-1.6-0.6-2.4-0.9c-0.3-0.1-0.6-0.2-1-0.3c-0.9-0.2-1.7-0.4-2.5-0.5
		c-0.3-0.1-0.6-0.1-0.9-0.1c-1.1-0.1-2.3-0.3-3.4-0.3c-0.9,0-1.7,0.1-2.6,0.1c-0.3,0-0.6,0.1-1,0.1c-0.5,0.1-1,0.2-1.6,0.2
		c-0.6,0.1-1.3,0.2-1.8,0.4c-0.5,0.1-0.9,0.2-1.3,0.4l-0.1,0c-0.8,0.2-1.6,0.6-2.4,0.9c-0.1,0.1-0.2,0.1-0.3,0.1
		c-0.8,0.4-1.6,0.7-2.4,1.2l-0.2,0.1c-0.8,0.4-1.6,0.9-2.4,1.5c-0.1,0-0.1,0.1-0.1,0.1c-0.7,0.5-1.4,1.1-2.2,1.7l-0.2,0.2
		c-0.6,0.6-1.2,1.1-1.8,1.7c-0.1,0.1-0.3,0.2-0.4,0.4c-0.5,0.5-0.9,1.1-1.4,1.5c-0.2,0.2-0.5,0.5-0.6,0.7c-0.3,0.4-0.6,0.9-0.9,1.3
		c-0.3,0.4-0.6,0.8-0.9,1.2c-0.2,0.3-0.4,0.6-0.6,1c-0.3,0.5-0.6,1.1-0.9,1.5c0,0.1,0,0.1-0.1,0.1c-0.5,1.1-1,2.2-1.4,3.3
		c-0.1,0.3-0.2,0.6-0.3,0.9c-0.3,0.9-0.6,1.7-0.8,2.6c-0.1,0.4-0.2,0.7-0.2,1.1c-0.2,0.9-0.3,1.8-0.5,2.7c-0.1,0.3-0.1,0.6-0.1,1
		c-0.1,1.2-0.2,2.5-0.2,3.7c0,0.9,0.1,1.9,0.1,2.8c0,0.4,0.1,0.7,0.1,1.1c0.1,0.6,0.2,1.1,0.2,1.7c0.1,0.7,0.2,1.4,0.4,2
		c0.1,0.5,0.2,0.9,0.3,1.4l0,0.1c0.2,0.9,0.5,1.7,0.9,2.6c0.1,0.1,0.1,0.2,0.1,0.4c0.3,0.9,0.7,1.7,1.1,2.6c0.1,0.1,0.1,0.1,0.1,0.2
		c0.5,0.9,0.9,1.7,1.4,2.6c0,0.1,0.1,0.1,0.1,0.1c0.5,0.8,1,1.6,1.6,2.4C1936,539.4,1936,539.4,1936,539.6L1936,539.6z
		 M1959.6,546.6c-0.6,0-1.3,0-2-0.1c-0.3,0-0.7,0-1-0.1c-0.9-0.1-1.8-0.3-2.7-0.4c-0.2-0.1-0.5-0.1-0.7-0.2c-0.7-0.2-1.4-0.4-2-0.6
		c-0.3-0.1-0.6-0.2-0.9-0.4c-0.6-0.2-1.1-0.5-1.7-0.8l-0.5-0.3l-0.5-4.1c-0.3-2.3,0.4-4.7,2-6.3l6.7-7.2c0.1,0.1,0.2,0.1,0.2,0.1
		l0.1,0.1l0.3,0.1l0,11.6c0,0.7,0.1,1.4,0.2,2.2c0,0.2,0.1,0.4,0.1,0.6c0.1,0.6,0.2,1.1,0.5,1.6c0.1,0.2,0.1,0.3,0.2,0.5
		c0.2,0.6,0.5,1.2,0.9,1.9c0.1,0.1,0.2,0.2,0.2,0.4c0.3,0.4,0.6,0.9,1,1.3c0.1,0.1,0.1,0.2,0.2,0.2L1959.6,546.6L1959.6,546.6z
		 M1961,521c-0.1,0.2-0.3,0.4-0.5,0.5c-0.1,0.1-0.3,0.2-0.4,0.3c-0.7,0.4-1.6,0.2-2.2-0.3c-0.2-0.1-0.4-0.4-0.5-0.6
		c-0.6-0.8-0.6-2,0-2.8c0.1-0.2,0.3-0.4,0.5-0.6c0.6-0.6,1.5-0.7,2.2-0.3c0.2,0.1,0.3,0.2,0.4,0.3c0.2,0.1,0.3,0.3,0.5,0.5
		c0.1,0.1,0.2,0.3,0.3,0.5c0.2,0.6,0.2,1.3,0,1.9C1961.2,520.6,1961.1,520.8,1961,521L1961,521z M1978.2,537.2
		c-0.7,0.8-1.4,1.6-2.1,2.4c-0.1,0.1-0.2,0.2-0.3,0.4c-1.7,1.6-3.7,3-5.8,4.1l-0.1,0.1c-1.1,0.6-2.2,1-3.3,1.4l-1.3-0.7
		c-2.3-1.2-3.8-3.8-3.8-6.6l0-11.6l0.3-0.1l0.1-0.1l0.2-0.1l6.7,7.3c0.5,0.5,1,1,1.6,1.4l0.3,0.2c0.6,0.4,1.1,0.7,1.7,1l0.3,0.1
		c0.6,0.2,1.3,0.5,2,0.6l0.1,0c0.6,0.1,1.3,0.2,2,0.2c0.1,0,0.1,0,0.2,0l0.1,0c0.3,0,0.6,0,0.9-0.1c0.1,0,0.3,0,0.4,0
		C1978.3,537.1,1978.2,537.1,1978.2,537.2L1978.2,537.2z M1983.8,517.8c0.1-0.2,0.3-0.3,0.4-0.5c0.1,0.8,0.1,1.6,0.1,2.4
		c0,1-0.1,2-0.2,3c0,0.2-0.1,0.5-0.1,0.7c-0.1,0.7-0.2,1.5-0.3,2.2c-0.1,0.3-0.1,0.6-0.2,0.9c-0.2,0.6-0.3,1.3-0.5,1.9
		c-0.1,0.3-0.2,0.7-0.3,1c-0.2,0.6-0.4,1.1-0.7,1.7c-0.1,0.2-0.2,0.4-0.3,0.6l-3.8,0.5c-2.1,0.3-4.3-0.4-5.8-2.1l-6.7-7.3
		c0.1-0.1,0.1-0.2,0.1-0.2l0.1-0.1c0.1-0.1,0.1-0.2,0.1-0.3l9.5,0c0.5,0,0.9,0,1.3-0.1c0.2,0,0.3-0.1,0.5-0.1
		c0.3-0.1,0.6-0.1,0.9-0.2c0.2-0.1,0.3-0.1,0.5-0.2c0.2-0.1,0.5-0.1,0.7-0.2c0.2-0.1,0.3-0.1,0.5-0.2c0.2-0.1,0.5-0.2,0.7-0.3
		c0.2-0.1,0.3-0.2,0.5-0.3c0.2-0.1,0.4-0.2,0.6-0.4s0.3-0.2,0.5-0.4c0.2-0.1,0.4-0.3,0.6-0.4c0.2-0.2,0.3-0.3,0.5-0.4
		c0.2-0.2,0.3-0.3,0.5-0.5C1983.5,518.1,1983.7,518,1983.8,517.8L1983.8,517.8z M1973,508c0.1-0.1,0.2-0.2,0.2-0.4
		c0.2-0.2,0.3-0.5,0.5-0.8c0.1-0.1,0.2-0.3,0.2-0.4c0.1-0.2,0.3-0.5,0.4-0.8c0.1-0.2,0.1-0.4,0.2-0.5c0.1-0.2,0.2-0.5,0.3-0.8
		c0.1-0.2,0.1-0.4,0.1-0.6c0.1-0.2,0.1-0.5,0.2-0.8c0.1-0.2,0.1-0.4,0.1-0.6c0.1-0.2,0.1-0.5,0.1-0.8c0.1-0.2,0-0.4,0-0.6
		c0-0.2,0.1-0.5,0.1-0.8c0-0.3-0.1-0.4-0.1-0.6c0-0.2,0-0.4-0.1-0.7l0.2,0.2c0.7,0.7,1.4,1.4,2.1,2.2l0.3,0.4
		c1.4,1.7,2.6,3.7,3.6,5.7c0.1,0.1,0.1,0.2,0.1,0.3c0.5,1,0.8,2,1.1,3c0,0.1,0.1,0.1,0.1,0.2l-2.3,3.3c-1.3,1.9-3.3,3-5.5,3l-9.5,0
		c-0.1-0.1-0.1-0.2-0.1-0.3l-0.1-0.1c0-0.1-0.1-0.2-0.1-0.2l6.7-7.2C1972.4,508.7,1972.7,508.4,1973,508L1973,508L1973,508z
		 M1957.5,492.4c0.9-0.1,1.7-0.1,2.5-0.1c0.3,0,0.6,0,1,0.1c0.8,0.1,1.6,0.2,2.4,0.3c0.2,0.1,0.4,0.1,0.6,0.1c1,0.2,2,0.5,3,0.8
		c0.2,0.1,0.4,0.2,0.6,0.2c0.7,0.3,1.5,0.6,2.2,1l0.5,0.2l0.5,4.1c0.3,2.3-0.4,4.7-2,6.3l-6.7,7.2l-0.2-0.1l-0.1-0.1
		c-0.1-0.1-0.2-0.1-0.3-0.1l0-10.3c0-0.5,0-0.9-0.1-1.4c0-0.2-0.1-0.3-0.1-0.5c-0.1-0.3-0.1-0.6-0.2-0.9c-0.1-0.2-0.1-0.4-0.2-0.6
		c-0.1-0.2-0.1-0.6-0.2-0.8c-0.1-0.2-0.2-0.4-0.2-0.6c-0.1-0.2-0.2-0.5-0.3-0.7c-0.1-0.2-0.2-0.4-0.3-0.6s-0.2-0.4-0.3-0.7
		c-0.1-0.2-0.2-0.4-0.3-0.6s-0.3-0.4-0.4-0.6c-0.2-0.2-0.3-0.3-0.4-0.5c-0.1-0.2-0.3-0.4-0.5-0.6c-0.2-0.2-0.3-0.3-0.5-0.4
		c-0.2-0.1-0.3-0.3-0.5-0.4C1957.2,492.4,1957.4,492.4,1957.5,492.4L1957.5,492.4z M1940.2,501.8c0.6-0.7,1.3-1.5,2-2.2l0.4-0.4
		c1.6-1.5,3.4-2.8,5.3-3.8l0.3-0.2c0.9-0.5,1.8-0.9,2.8-1.2c0.1,0,0.1-0.1,0.2-0.1l3,2.5c1.7,1.4,2.7,3.6,2.7,5.9l0,10.2
		c-0.1,0.1-0.2,0.1-0.3,0.1l-0.1,0.1c-0.1,0.1-0.2,0.1-0.2,0.1l-6.7-7.3c-0.5-0.5-1-1-1.6-1.4l-0.2-0.2c-0.6-0.4-1.1-0.7-1.7-1
		l-0.3-0.1c-0.6-0.2-1.3-0.5-1.9-0.6l-0.2,0c-0.6-0.1-1.3-0.2-2-0.2l-0.1,0c-0.5,0-0.9,0-1.4,0.1
		C1940.1,502,1940.2,501.8,1940.2,501.8L1940.2,501.8z M1934.6,521.3c-0.1,0.2-0.3,0.3-0.4,0.5c-0.1-0.7-0.1-1.6-0.1-2.3
		c0-1,0.1-2,0.2-3c0-0.2,0.1-0.5,0.1-0.7c0.1-0.7,0.2-1.4,0.3-2.2c0.1-0.3,0.1-0.6,0.2-0.9c0.2-0.6,0.3-1.3,0.5-1.9
		c0.1-0.3,0.2-0.7,0.3-1c0.2-0.6,0.4-1.1,0.6-1.7l0.3-0.6l3.8-0.5c2.1-0.3,4.3,0.4,5.8,2.1l6.7,7.3c-0.1,0.1-0.1,0.2-0.1,0.2
		l-0.1,0.1c-0.1,0.1-0.1,0.2-0.1,0.4l-9.5,0c-0.5,0-0.9,0-1.3,0.1c-0.2,0-0.3,0.1-0.5,0.1c-0.3,0.1-0.6,0.1-0.9,0.2
		c-0.2,0.1-0.3,0.1-0.5,0.2c-0.2,0.1-0.5,0.1-0.7,0.2c-0.2,0.1-0.3,0.2-0.5,0.2c-0.2,0.1-0.5,0.2-0.7,0.3c-0.2,0.1-0.3,0.2-0.5,0.3
		c-0.2,0.1-0.4,0.2-0.6,0.4c-0.2,0.1-0.3,0.2-0.5,0.4s-0.4,0.3-0.6,0.4c-0.2,0.2-0.3,0.3-0.5,0.4c-0.2,0.1-0.3,0.3-0.5,0.5
		S1934.7,521.1,1934.6,521.3L1934.6,521.3z M1935.4,528.1l2.3-3.3c1.3-1.9,3.3-3,5.5-3l9.5,0c0.1,0.1,0.1,0.2,0.1,0.4l0.1,0.1
		c0.1,0.1,0.1,0.2,0.1,0.2l-6.7,7.2c-0.3,0.3-0.6,0.7-0.9,1.1c-0.1,0.1-0.2,0.3-0.3,0.4c-0.2,0.2-0.3,0.5-0.5,0.7
		c-0.1,0.2-0.2,0.4-0.3,0.5c-0.1,0.2-0.2,0.5-0.3,0.7c-0.1,0.2-0.1,0.4-0.2,0.6c-0.1,0.2-0.2,0.5-0.3,0.7c-0.1,0.2-0.1,0.4-0.2,0.6
		c-0.1,0.2-0.1,0.5-0.2,0.7c-0.1,0.2-0.1,0.4-0.1,0.6c-0.1,0.2-0.1,0.5-0.1,0.7c0,0.2,0,0.4,0,0.6c0,0.2,0,0.5,0,0.8
		c0.1,0.2,0.1,0.4,0.1,0.6c0,0.2,0,0.4,0.1,0.7l-0.2-0.2c-0.7-0.7-1.4-1.4-2-2.1c-0.1-0.1-0.2-0.3-0.4-0.4c-1.4-1.7-2.6-3.7-3.6-5.7
		c-0.1-0.1-0.1-0.2-0.2-0.3c-0.5-1-0.8-2-1.1-3C1935.5,528.3,1935.5,528.3,1935.4,528.1L1935.4,528.1z"/>
	<path class="st8" d="M2009.2,573.9l-4.5,0l0-5l4.5,0L2009.2,573.9z"/>
	<path class="st8" d="M1913.7,470.1l-4.6,0l0-5l4.6,0L1913.7,470.1z"/>
	<path class="st8" d="M1959.1,571.3l0,5c29,0,52.5-25.3,52.6-56.6l-4.6,0C2007,548.2,1985.5,571.3,1959.1,571.3z"/>
	<path class="st8" d="M1954.5,576.3l-4.6,0l0-5l4.6,0L1954.5,576.3z"/>
</g>
<g id="Page-1_5_">
	<g id="pump_2_">
		<path id="Shape_6_" class="st14" d="M1851.2,583.4c0,3.2,2,5.8,4.5,5.8l5.2,0c2.5,0,4.5-2.6,4.5-5.8l-0.1-36.4
			c0-3.2-2-5.8-4.5-5.8l-5.2,0c-2.5,0-4.5,2.6-4.5,5.8l0,0.8l-11.6,0l0-2.2c1.5-0.9,2.6-2.9,2.6-5.2l0-6.6c0-3.2-2-5.8-4.5-5.8
			l-0.6,0l0-4.1c0-3.2-2-5.8-4.5-5.8l-2.6,0c-2.5,0-4.5,2.6-4.5,5.8l0,4.1l-3.9,0l0-14.9l3.2,0c3.9,0,7.1-4.1,7.1-9.1l-0.1-62.8
			c0-5-3.2-9.1-7.1-9.1l-41.3,0.1c-3.9,0-7.1,4.1-7.1,9.1l0.1,62.8c0,5,3.2,9.1,7.1,9.1l3.2,0l0,14.9l-3.9,0l0-4.1
			c0-3.2-2-5.8-4.5-5.8l-2.6,0c-2.5,0-4.5,2.6-4.5,5.8l0,4.1l-0.6,0c-2.5,0-4.5,2.6-4.5,5.8l0,6.6c0,2.3,1.1,4.3,2.6,5.2l0,2.2
			l-11.6,0l0-0.8c0-3.2-2-5.8-4.5-5.8l-5.2,0c-2.5,0-4.5,2.6-4.5,5.8l0.1,36.4c0,3.2,2,5.8,4.5,5.8l5.2,0c2.5,0,4.5-2.6,4.5-5.8
			l0-0.8l11.6,0l0,0.8c0,3.2,2,5.8,4.5,5.8l62-0.1c2.5,0,4.5-2.6,4.5-5.8l0-0.8l11.6,0L1851.2,583.4z M1783.3,508.3
			c-1.8,0-3.2-1.8-3.2-4.1l-0.1-53.7l6.5,0l0.1,57.9L1783.3,508.3z M1790.4,508.3l-0.1-57.9l6.5,0l0.1,57.9L1790.4,508.3z
			 M1800.7,508.3l-0.1-57.9l6.5,0l0.1,57.9L1800.7,508.3z M1811,508.3l-0.1-57.9l0.6,0c1.1,0,1.9-1.1,1.9-2.5c0-1.4-0.9-2.5-1.9-2.5
			l-31.6,0.1l0-4.1c0-2.3,1.4-4.1,3.2-4.1l41.3-0.1c1.8,0,3.2,1.8,3.2,4.1l0,4.1l-8.4,0c-1.1,0-1.9,1.1-1.9,2.5l0.1,60.4L1811,508.3
			z M1821.4,508.2l-0.1-57.9l6.5,0l0.1,53.7c0,2.3-1.4,4.1-3.2,4.1L1821.4,508.2z M1774.9,528.2l0-4.1c0-0.5,0.3-0.8,0.6-0.8l2.6,0
			c0.4,0,0.6,0.4,0.6,0.8l0,4.1L1774.9,528.2z M1790.4,528.2l0-14.9l27.1-0.1l0,14.9L1790.4,528.2z M1829.2,528.1l0-4.1
			c0-0.5,0.3-0.8,0.6-0.8l2.6,0c0.4,0,0.6,0.4,0.6,0.8l0,4.1L1829.2,528.1z M1753.1,583.6c0,0.5-0.3,0.8-0.6,0.8l-5.2,0
			c-0.4,0-0.6-0.4-0.6-0.8l-0.1-36.4c0-0.5,0.3-0.8,0.6-0.8l5.2,0c0.4,0,0.6,0.4,0.6,0.8l0,9.9c0,1.4,0.9,2.5,1.9,2.5
			c1.1,0,1.9-1.1,1.9-2.5l0-4.1l11.6,0l0.1,24.8l-11.6,0l0-10.7c0-1.4-0.9-2.5-1.9-2.5c-1.1,0-1.9,1.1-1.9,2.5L1753.1,583.6z
			 M1835.7,583.5c0,0.5-0.3,0.8-0.6,0.8l-62,0.1c-0.4,0-0.6-0.4-0.6-0.8l-0.1-37.2l44.5-0.1c1.1,0,1.9-1.1,1.9-2.5
			c0-1.4-0.9-2.5-1.9-2.5l-46.5,0.1c-0.4,0-0.6-0.4-0.6-0.8l0-6.6c0-0.5,0.3-0.8,0.6-0.8l67.1-0.1c0.4,0,0.6,0.4,0.6,0.8l0,6.6
			c0,0.5-0.3,0.8-0.6,0.8l-12.9,0c-1.1,0-1.9,1.1-1.9,2.5c0,1.4,0.9,2.5,1.9,2.5l11,0L1835.7,583.5z M1851.2,566.9l0,10.7l-11.6,0
			l-0.1-24.8l11.6,0l0,4.1c0,1.4,0.9,2.5,1.9,2.5s1.9-1.1,1.9-2.5l0-9.9c0-0.5,0.3-0.8,0.6-0.8l5.2,0c0.4,0,0.6,0.4,0.6,0.8
			l0.1,36.4c0,0.5-0.3,0.8-0.6,0.8l-5.2,0c-0.4,0-0.6-0.4-0.6-0.8l0-16.5c0-1.4-0.9-2.5-1.9-2.5
			C1852,564.4,1851.2,565.5,1851.2,566.9z"/>
	</g>
</g>
<rect x="1978" y="422.8" class="st1" width="55.1" height="23"/>
<rect x="1969.2" y="417.8" class="st1" width="73.5" height="20.1"/>
<rect x="1609.5" y="475.4" class="st1" width="55.1" height="23"/>
<rect x="1600.3" y="465.4" class="st1" width="73.5" height="20.1"/>
<g id="Page-1">
	<g id="ph-meter">
		<path id="Shape" class="st14" d="M847.8,19c-0.9,0-1.6,0.9-1.6,1.9v7.2h-6.9v-7.2c0-1.1-0.7-1.9-1.6-1.9c-0.9,0-1.6,0.9-1.6,1.9
			v19.3c0,1.1,0.7,1.9,1.6,1.9c0.9,0,1.6-0.9,1.6-1.9V32h6.9v8.3c0,1.1,0.7,1.9,1.6,1.9c0.9,0,1.6-0.9,1.6-1.9V20.9
			C849.4,19.9,848.7,19,847.8,19z"/>
		<path id="Shape_13_" class="st14" d="M832.8,19h-8.4c-0.9,0-1.6,0.9-1.6,1.9v9.1v10.2c0,1.1,0.7,1.9,1.6,1.9s1.6-0.9,1.6-1.9V32
			h6.8c0.9,0,1.6-0.9,1.6-1.9v-9.1C834.3,19.9,833.6,19,832.8,19z M831.2,28.1H826v-5.3h5.2V28.1z"/>
		<path id="Shape_12_" class="st14" d="M860.3,1.7h-48.4c-0.9,0-1.6,0.9-1.6,1.9v12.7c0,1.1,0.7,1.9,1.6,1.9c0.9,0,1.6-0.9,1.6-1.9
			V5.5h45.3v51.1l-14,14.2h-17.2l-14-14.2V25c0-1.1-0.7-1.9-1.6-1.9c-0.9,0-1.6,0.9-1.6,1.9v32.5c0,0.6,0.2,1.1,0.6,1.5l14.5,14.7
			v28.6c0,1.1,0.7,1.9,1.6,1.9h1.8v16.4c0,1.1,0.7,1.9,1.6,1.9H842c0.9,0,1.6-0.9,1.6-1.9v-16.4h1.8c0.9,0,1.6-0.9,1.6-1.9V73.6
			L861.3,59c0.4-0.4,0.6-0.9,0.6-1.5V3.6C861.9,2.6,861.2,1.7,860.3,1.7z M840.4,118.6h-8.6v-14.5h8.6V118.6z M843.7,100.3h-15.2
			V74.7h15.2V100.3z"/>
		<path id="Shape_11_" class="st14" d="M853.6,10.9h-35.1c-0.9,0-1.6,0.9-1.6,1.9v35.6c0,1.1,0.7,1.9,1.6,1.9h35.1
			c0.9,0,1.6-0.9,1.6-1.9V12.8C855.2,11.7,854.5,10.9,853.6,10.9z M852.1,46.4h-31.9V14.7h31.9V46.4z"/>
		<path id="Shape_10_" class="st14" d="M828.2,52.5c-2.9,0-5.3,2.9-5.3,6.5c0,3.6,2.4,6.5,5.3,6.5s5.3-2.9,5.3-6.5
			C833.5,55.5,831.1,52.5,828.2,52.5z M828.2,61.7c-1.2,0-2.2-1.2-2.2-2.7s1-2.7,2.2-2.7c1.2,0,2.2,1.2,2.2,2.7
			S829.4,61.7,828.2,61.7z"/>
		<path id="Shape_9_" class="st14" d="M844,52.5c-2.9,0-5.3,2.9-5.3,6.5c0,3.6,2.4,6.5,5.3,6.5s5.3-2.9,5.3-6.5
			C849.4,55.5,847,52.5,844,52.5z M844,61.7c-1.2,0-2.2-1.2-2.2-2.7s1-2.7,2.2-2.7c1.2,0,2.2,1.2,2.2,2.7S845.2,61.7,844,61.7z"/>
		<path id="Shape_8_" class="st14" d="M839.4,85.2c-0.9,0-1.6,0.9-1.6,1.9v7c0,1.1,0.7,1.9,1.6,1.9s1.6-0.9,1.6-1.9v-7
			C841,86,840.3,85.2,839.4,85.2z"/>
		<path id="Shape_7_" class="st14" d="M839.4,78c-0.9,0-1.6,0.9-1.6,1.9v2c0,1.1,0.7,1.9,1.6,1.9s1.6-0.9,1.6-1.9v-2
			C841,78.8,840.3,78,839.4,78z"/>
	</g>
</g>
<g>
	<path class="st21" d="M1021,176.8l-48-0.3c-3.8,0-6.8-3.1-6.8-6.9l0.3-48c0-3.8,3.1-6.8,6.9-6.8l48,0.3c3.8,0,6.8,3.1,6.8,6.9
		l-0.3,48C1027.9,173.7,1024.8,176.8,1021,176.8"/>
	<g>
		<path class="st21" d="M860,175.8l-48-0.3c-3.8,0-6.8-3.1-6.8-6.9l0.3-48c0-3.8,3.1-6.8,6.9-6.8l48,0.3c3.8,0,6.8,3.1,6.8,6.9
			l-0.3,48C866.8,172.7,863.7,175.8,860,175.8"/>
	</g>
	<g>
		<path class="st21" d="M702.1,173.9l-48-0.3c-3.8,0-6.8-3.1-6.8-6.9l0.3-48c0-3.8,3.1-6.8,6.9-6.8l48,0.3c3.8,0,6.8,3.1,6.8,6.9
			l-0.3,48C709,170.8,705.9,173.9,702.1,173.9"/>
	</g>
</g>
<g id="Page-1_6_">
	<g id="ph-meter_1_" transform="translate(22.000000, 0.000000)">
		<path id="Shape_77_" class="st14" d="M685.3,3.2h-52.6C631.8,3.2,631,4,631,5v12.3c0,1,0.8,1.8,1.7,1.8s1.7-0.8,1.7-1.8V6.9h49.2
			v49.4L668.4,70h-18.7l-15.2-13.8V25.7c0-1-0.8-1.8-1.7-1.8s-1.7,0.8-1.7,1.8v31.4c0,0.5,0.2,1.1,0.6,1.4l15.7,14.2v27.6
			c0,1,0.8,1.8,1.7,1.8h1.9V118c0,1,0.8,1.8,1.7,1.8h12.7c0.9,0,1.7-0.8,1.7-1.8v-15.8h1.9c0.9,0,1.7-0.8,1.7-1.8V72.7l15.7-14.2
			c0.4-0.3,0.6-0.9,0.6-1.4V5C687,4,686.3,3.2,685.3,3.2z M663.7,116.2h-9.3v-14h9.3V116.2z M667.3,98.5h-16.6V73.7h16.6V98.5z"/>
		<path id="Shape_76_" class="st14" d="M678.1,12H640c-0.9,0-1.7,0.8-1.7,1.8v34.4c0,1,0.8,1.8,1.7,1.8h38.1c0.9,0,1.7-0.8,1.7-1.8
			V13.9C679.8,12.8,679,12,678.1,12z M676.4,46.4h-34.7V15.7h34.7V46.4z"/>
		<path id="Shape_75_" class="st14" d="M650.4,52.3c-3.2,0-5.8,2.8-5.8,6.3c0,3.5,2.6,6.3,5.8,6.3c3.2,0,5.8-2.8,5.8-6.3
			C656.2,55.1,653.6,52.3,650.4,52.3z M650.4,61.1c-1.3,0-2.4-1.2-2.4-2.6c0-1.4,1.1-2.6,2.4-2.6s2.4,1.2,2.4,2.6
			C652.8,60,651.7,61.1,650.4,61.1z"/>
		<path id="Shape_74_" class="st14" d="M667.6,52.3c-3.2,0-5.8,2.8-5.8,6.3c0,3.5,2.6,6.3,5.8,6.3c3.2,0,5.8-2.8,5.8-6.3
			C673.4,55.1,670.8,52.3,667.6,52.3z M667.6,61.1c-1.3,0-2.4-1.2-2.4-2.6c0-1.4,1.1-2.6,2.4-2.6s2.4,1.2,2.4,2.6
			C670,60,668.9,61.1,667.6,61.1z"/>
		<path id="Shape_73_" class="st14" d="M662.6,83.8c-0.9,0-1.7,0.8-1.7,1.8v6.8c0,1,0.8,1.8,1.7,1.8s1.7-0.8,1.7-1.8v-6.8
			C664.3,84.7,663.6,83.8,662.6,83.8z"/>
		<path id="Shape_72_" class="st14" d="M662.6,76.9c-0.9,0-1.7,0.8-1.7,1.8v1.9c0,1,0.8,1.8,1.7,1.8s1.7-0.8,1.7-1.8v-1.9
			C664.3,77.7,663.6,76.9,662.6,76.9z"/>
	</g>
	<text transform="matrix(0.9234 0 0 1 667.1143 35.5339)" class="st14 st22 st23">ORP</text>
</g>
<g id="Page-1_7_">
	<g id="gauge_5_">
		<path id="Shape_16_" class="st14" d="M997.1,16.7c-18.4-0.3-33.6,14.4-33.8,32.8c-0.2,18.3,14.6,33.5,33,33.7
			c18.4,0.3,33.6-14.4,33.8-32.8C1030.4,32.1,1015.6,16.9,997.1,16.7z M996.4,79.9c-16.6-0.2-30-13.9-29.8-30.4s13.9-29.8,30.5-29.5
			c16.6,0.2,30,13.9,29.8,30.4S1013,80.1,996.4,79.9z"/>
		<path id="Shape_15_" class="st14" d="M1029.9,22.3c-6.3-7.4-14.9-12.6-24.4-14.5l0.1-6.3l-16.4-0.2L989,7.6
			c-9.5,1.7-18.3,6.6-24.8,13.8c-6.9,7.7-10.7,17.6-10.8,27.9c-0.1,9.9,3.2,19.6,9.4,27.4c5.8,7.3,14,12.5,22.9,14.9l-0.2,15.4
			l20.8,0.3l0.2-15.4c9.1-2.1,17.3-7.1,23.3-14.2c6.4-7.6,10-17.2,10.1-27.1C1040.2,40.2,1036.6,30.2,1029.9,22.3z M1027.4,75.5
			c-5.8,6.9-13.9,11.6-22.7,13.4l-1.3,0.3l-0.2,14.8l-14.3-0.2l0.2-14.8l-1.3-0.3c-8.8-2-16.7-7-22.4-14.1
			c-5.7-7.2-8.8-16.1-8.7-25.3c0.1-9.5,3.7-18.7,10-25.8c6.3-7,14.8-11.6,24.2-13l1.4-0.2l0.1-5.8l9.9,0.1l-0.1,5.8l1.4,0.2
			c9.3,1.6,17.8,6.5,23.8,13.7c6.2,7.3,9.5,16.6,9.4,26.1C1036.7,59.7,1033.3,68.6,1027.4,75.5z"/>
		<polygon id="Rectangle-path_21_" class="st14" points="991.9,90.7 1000.6,90.9 1000.6,94.1 991.8,94 		"/>
		<polygon id="Rectangle-path_20_" class="st14" points="991.8,97.3 1000.6,97.4 1000.5,100.7 991.8,100.6 		"/>
		<path id="Shape_14_" class="st14" d="M997,24.3c-14.2-0.2-25.9,11.1-26.1,25.2l0,1.6l9.3,0.1l0-3.3l-6-0.1
			c0.4-4.7,2.2-8.9,5.1-12.3l5.3,5.4l2.4-2.3l-5.4-5.5c3.7-3.3,8.4-5.4,13.7-5.7l-0.1,7l3.3,0l0.1-7c5.2,0.5,9.9,2.7,13.5,6.1
			l-5.5,5.3l2.3,2.3l5.4-5.3c2.7,3.5,4.5,7.8,4.8,12.4l-6-0.1l0,3.3l9.3,0.1l0-1.6C1022.7,36.2,1011.3,24.5,997,24.3z"/>
		<path id="Shape_25_" class="st14" d="M998.3,57.2l0.2-19.3l-3.3,0L995,57.2c-3.1,0.7-5.5,3.5-5.6,6.8c0,3.9,3.1,7.1,7,7.2
			c3.9,0.1,7.2-3.1,7.2-7C1003.7,60.9,1001.4,58,998.3,57.2z M996.5,67.9c-2.1,0-3.8-1.8-3.8-3.9c0-2.1,1.8-3.8,3.9-3.8
			c2.1,0,3.8,1.8,3.8,3.9C1000.4,66.3,998.6,67.9,996.5,67.9z"/>
		<polygon id="Rectangle-path_19_" class="st14" points="975.8,55.6 980.2,55.7 980.2,58.9 975.8,58.9 		"/>
		<polygon id="Rectangle-path_18_" class="st14" points="1013.1,56.2 1017.5,56.2 1017.5,59.5 1013.1,59.4 		"/>
	</g>
</g>
<path class="st19" d="M996.3,101.2c-3.7-0.1-7.4-0.4-11.2-1.1l-0.2,14.8l22.3,0.4l0.2-14.8C1003.8,101.1,1000,101.3,996.3,101.2"/>
<path class="st0" d="M361.2,172.2l0.4,48l-45,0.3l-0.5-65.2c-0.2-21.8,16.8-39.5,37.8-39.7l71.5-0.5l0.3,46.5l-54.9,0.4
	C365.4,162.1,361.2,166.6,361.2,172.2z"/>
<rect x="315.1" y="218.3" class="st0" width="46.5" height="146.6"/>
<path class="st0" d="M304.8,440.5h-48V494H322c21.8,0,39.4-20.3,39.4-45.3v-85h-46.5v65.2C314.9,435.3,310.4,440.5,304.8,440.5z"/>
<g>
	<path class="st21" d="M525,170.9l-48-0.3c-3.8,0-6.8-3.1-6.8-6.9l0.3-48c0-3.8,3.1-6.8,6.9-6.8l48,0.3c3.8,0,6.8,3.1,6.8,6.9
		l-0.3,48C531.9,167.9,528.8,171,525,170.9"/>
</g>
<rect x="299.6" y="208.3" class="st1" width="73.5" height="15.8"/>
<rect x="310.6" y="198.3" class="st0" width="53.5" height="10"/>
<rect x="35.7" y="621.5" class="st1" width="73.5" height="20.1"/>
<rect x="48.9" y="614.8" class="st1" width="55.1" height="23"/>
</svg>
