<?xml version="1.0" encoding="UTF-8" standalone="no"?>
<!-- Generator: Adobe Illustrator 22.0.0, SVG Export Plug-In . SVG Version: 6.00 Build 0)  -->

<svg
   xmlns:dc="http://purl.org/dc/elements/1.1/"
   xmlns:cc="http://creativecommons.org/ns#"
   xmlns:rdf="http://www.w3.org/1999/02/22-rdf-syntax-ns#"
   xmlns:svg="http://www.w3.org/2000/svg"
   xmlns="http://www.w3.org/2000/svg"
   xmlns:sodipodi="http://sodipodi.sourceforge.net/DTD/sodipodi-0.dtd"
   xmlns:inkscape="http://www.inkscape.org/namespaces/inkscape"
   version="1.1"
   id="Layer_1"
   x="0px"
   y="0px"
   viewBox="0 0 2676.1 1204.9"
   xml:space="preserve"
   sodipodi:docname="Smaart pump.svg"
   width="2676.1001"
   height="1204.9"
   inkscape:version="0.92.3 (unknown)"><metadata
   id="metadata362"><rdf:RDF><cc:Work
       rdf:about=""><dc:format>image/svg+xml</dc:format><dc:type
         rdf:resource="http://purl.org/dc/dcmitype/StillImage" /><dc:title></dc:title></cc:Work></rdf:RDF></metadata><defs
   id="defs360" /><sodipodi:namedview
   pagecolor="#ffffff"
   bordercolor="#666666"
   borderopacity="1"
   objecttolerance="10"
   gridtolerance="10"
   guidetolerance="10"
   inkscape:pageopacity="0"
   inkscape:pageshadow="2"
   inkscape:window-width="1839"
   inkscape:window-height="1050"
   id="namedview358"
   showgrid="false"
   fit-margin-top="0"
   fit-margin-left="0"
   fit-margin-right="0"
   fit-margin-bottom="0"
   inkscape:zoom="0.10162117"
   inkscape:cx="218.70076"
   inkscape:cy="618.37928"
   inkscape:window-x="81"
   inkscape:window-y="30"
   inkscape:window-maximized="1"
   inkscape:current-layer="Layer_1" />
<style
   type="text/css"
   id="style2">
	.st0{fill:#4499D4;}
	.st1{fill:#64A9D9;}
	.st2{fill:#3F8EC9;}
	.st3{fill:#2C7FBA;}
	.st4{fill:#FDB62D;}
	.st5{fill:#020202;}
	.st6{fill:#EDE9E8;}
	.st7{fill:#DFD7D5;}
	.st8{fill:#8FE1FF;}
	.st9{fill:#73BCFF;}
	.st10{fill:#3A96FF;}
	.st11{fill:#C7C9C7;}
	.st12{fill:#E8EDEE;}
	.st13{fill:#FFFFFF;}
	.st14{fill:#E15649;}
	.st15{fill:#556080;}
	.st16{fill:#C7CBC7;}
	.st17{fill:#949493;}
	.st18{fill:#AFB7BC;}
</style>
<g
   id="Layer_1_1_"
   transform="translate(-236.4,-211)">
	<g
   id="Layer_2_2_">
		<g
   id="Layer_3_2_">
		</g>
	</g>
	<g
   id="Layer_3">
		<path
   class="st0"
   d="m 842.4,708.6 h -94.6 c -46.8,0 -84.8,39.8 -84.8,88.9 0,49.1 38,88.9 84.8,88.9 46.8,0 84.8,-39.8 84.8,-88.9 0,-14.3 -3.3,-28.4 -9.6,-41.1 h 19.4 z"
   id="path6"
   inkscape:connector-curvature="0"
   style="fill:#4499d4" />
		<ellipse
   class="st1"
   cx="747.79999"
   cy="797.5"
   rx="52.200001"
   ry="54.700001"
   id="ellipse8"
   style="fill:#64a9d9" />
		<path
   class="st2"
   d="m 708.4,718.8 -23.5,-7.4 c -8.2,-2.6 -16.8,2.3 -19.3,10.8 -0.9,3 -0.9,6.3 0,9.4 l 7.1,24.7 c 8,-16 20.5,-29.1 35.7,-37.5 z"
   id="path10"
   inkscape:connector-curvature="0"
   style="fill:#3f8ec9" />
		<path
   class="st2"
   d="m 787.2,876.2 23.5,7.4 c 8.2,2.6 16.8,-2.3 19.2,-10.8 0.9,-3 0.9,-6.3 0,-9.3 l -7.1,-24.7 c -7.9,16 -20.4,29 -35.6,37.4 z"
   id="path12"
   inkscape:connector-curvature="0"
   style="fill:#3f8ec9" />
		<ellipse
   class="st3"
   cx="747.79999"
   cy="797.5"
   rx="39.099998"
   ry="41"
   id="ellipse14"
   style="fill:#2c7fba" />
		<path
   class="st0"
   d="m 702.2,893.2 v -20.9 c -23.4,-15.6 -38,-42.4 -39,-71.4 h -0.1 v 92.3 h -13 v 6.8 h 65.2 v -6.8 z"
   id="path16"
   inkscape:connector-curvature="0"
   style="fill:#4499d4" />
		<path
   class="st2"
   d="m 702.2,881.4 v -8.9 c -23.4,-15.6 -38,-42.4 -39,-71.4 h -0.1 v 41.2 c 6.6,13.9 18.9,32.5 39.1,39.1 z"
   id="path18"
   inkscape:connector-curvature="0"
   style="fill:#3f8ec9" />
		<path
   class="st3"
   d="m 813,708.6 h 6.6 v 47.9 H 813 Z"
   id="path20"
   inkscape:connector-curvature="0"
   style="fill:#2c7fba" />
		<path
   class="st3"
   d="m 663.1,879.5 h 39.1 v 6.9 h -39.1 z"
   id="path22"
   inkscape:connector-curvature="0"
   style="fill:#2c7fba" />
		<path
   class="st3"
   d="m 676.1,722.3 h 6.5 v 6.9 h -6.5 z"
   id="path24"
   inkscape:connector-curvature="0"
   style="fill:#2c7fba" />
		<path
   class="st3"
   d="m 813,865.9 h 6.6 v 6.9 H 813 Z"
   id="path26"
   inkscape:connector-curvature="0"
   style="fill:#2c7fba" />
		<path
   class="st1"
   d="m 679.3,797.5 h -6.6 c 0.1,-43.4 33.6,-78.6 75,-78.6 v 6.9 c -37.7,0 -68.3,32.1 -68.4,71.7 z"
   id="path28"
   inkscape:connector-curvature="0"
   style="fill:#64a9d9" />
		<path
   class="st1"
   d="m 754.4,718.9 h 6.6 v 6.9 h -6.6 z"
   id="path30"
   inkscape:connector-curvature="0"
   style="fill:#64a9d9" />
		<path
   class="st3"
   d="m 725,797.5 h 16.3 c 0,-1.8 0.7,-3.5 1.9,-4.8 l -11.6,-12 c -2.9,-3 -7,-4.5 -11.1,-3.9 l -7.1,1 c -5,9.5 -6.2,20.7 -3.3,31.2 l 4.3,-6 c 2.6,-3.5 6.4,-5.5 10.6,-5.5 z"
   id="path32"
   inkscape:connector-curvature="0"
   style="fill:#2c7fba" />
		<path
   class="st3"
   d="m 747.8,771.7 v 18.9 c 1.7,0 3.4,0.7 4.6,2 l 11.6,-12 c 2.9,-3 4.3,-7.3 3.7,-11.6 l -1,-7.5 c -8.9,-5.2 -19.3,-6.4 -29,-3.6 l 3,1.5 c 4.3,2.5 7.1,7.3 7.1,12.3 z"
   id="path34"
   inkscape:connector-curvature="0"
   style="fill:#2c7fba" />
		<path
   class="st3"
   d="m 747.8,821.4 v -17.1 c -1.7,0 -3.4,-0.7 -4.6,-2 l -11.6,12.1 c -2.9,3 -4.3,7.3 -3.7,11.6 l 1,7.5 c 9.1,5.2 19.8,6.4 29.8,3.4 l -5.7,-4.5 c -3.2,-2.6 -5.2,-6.7 -5.2,-11 z"
   id="path36"
   inkscape:connector-curvature="0"
   style="fill:#2c7fba" />
		<path
   class="st3"
   d="m 785.4,786 -4.3,6 c -2.5,3.4 -6.3,5.5 -10.4,5.5 h -16.3 c 0,1.8 -0.7,3.5 -1.9,4.8 l 11.6,12 c 2.9,3 7,4.5 11.1,3.9 l 7.1,-1 c 4.9,-9.5 6,-20.7 3.1,-31.2 z"
   id="path38"
   inkscape:connector-curvature="0"
   style="fill:#2c7fba" />
		<path
   class="st4"
   d="m 731.7,780.6 11.6,12 c 1.2,-1.3 2.9,-2 4.6,-2 v -18.9 c 0,-5.2 -2.8,-9.9 -7.2,-12.2 l -3,-1.5 c -10.3,2.9 -18.9,10.1 -24,19.9 l 7.1,-1 c 3.9,-0.8 8,0.7 10.9,3.7 z"
   id="path40"
   inkscape:connector-curvature="0"
   style="fill:#fdb62d" />
		<path
   class="st4"
   d="m 764,780.6 -11.6,12 c 1.2,1.3 1.9,3 1.9,4.8 h 16.3 c 4.1,0 8,-2.1 10.4,-5.5 l 4.3,-6 c -2.9,-10.4 -9.7,-19.3 -18.7,-24.5 l 1,7.5 c 0.6,4.3 -0.7,8.7 -3.6,11.7 z"
   id="path42"
   inkscape:connector-curvature="0"
   style="fill:#fdb62d" />
		<path
   class="st4"
   d="m 731.7,814.5 11.6,-12.1 c -1.2,-1.3 -1.9,-3 -1.9,-4.8 H 725 c -4.1,0 -8,2.1 -10.4,5.5 l -4.3,6 c 2.9,10.4 9.7,19.3 18.7,24.5 l -1,-7.5 c -0.6,-4.3 0.8,-8.6 3.7,-11.6 z"
   id="path44"
   inkscape:connector-curvature="0"
   style="fill:#fdb62d" />
		<path
   class="st4"
   d="m 764,814.5 -11.6,-12.1 c -1.2,1.3 -2.9,2 -4.6,2 v 17.1 c 0,4.3 2,8.3 5.2,10.9 l 5.7,4.5 c 9.9,-3 18.4,-10.1 23.4,-19.6 l -7.1,1 c -4,0.6 -8.1,-0.8 -11,-3.8 z"
   id="path46"
   inkscape:connector-curvature="0"
   style="fill:#fdb62d" />
		<ellipse
   class="st4"
   cx="747.79999"
   cy="797.5"
   rx="6.5999999"
   ry="6.9000001"
   id="ellipse48"
   style="fill:#fdb62d" />
		<path
   class="st2"
   d="m 782.3,756.5 c 4.3,4 7.9,8.5 10.7,13.7 h 35.5 c -1.5,-4.7 -3.3,-9.3 -5.4,-13.7 z"
   id="path50"
   inkscape:connector-curvature="0"
   style="fill:#3f8ec9" />
		<path
   class="st5"
   d="m 839.1,705.2 h -91.3 c -13.8,0 -27.3,3.4 -39.6,10 l -22.3,-7 c -9.9,-3.1 -20.3,2.8 -23.3,13.2 -1.1,3.7 -1.1,7.6 0,11.3 l 6.7,23.4 c -6.2,12.9 -9.5,27.1 -9.5,41.5 0,1 0,2.1 0.1,3 0,0.1 -0.1,0.3 -0.1,0.3 v 92.3 H 650 v 6.8 h 65.2 v -6.8 h -9.8 v -14.9 c 25.4,14.7 56.1,15.2 82,1.5 l 22.3,7 c 9.9,3.1 20.3,-2.8 23.3,-13.2 1.1,-3.7 1.1,-7.6 0,-11.3 l -6.6,-23.4 c 12,-24.8 12.6,-53.8 1.8,-79.2 h 10.9 v 10.2 h 6.6 v -75.2 h -6.6 z m -170.3,25.4 c -2,-6.7 1.7,-13.8 8.1,-15.9 2.3,-0.7 4.8,-0.7 7.1,0 l 16.3,5.2 -1.5,1 -0.5,0.3 c -9.2,6.5 -17.1,14.9 -23.4,24.5 l -0.3,0.5 c -0.3,0.5 -0.7,1 -1,1.5 z m 30.1,162.6 h -32.6 v -6.9 h 32.6 z m 0,-13.7 h -32.6 v -47.3 c 0.8,2.1 1.7,4.1 2.6,6.1 l 0.2,0.3 c 0.9,1.8 1.8,3.6 2.8,5.4 0.1,0.2 0.2,0.4 0.3,0.6 1,1.7 2.1,3.4 3.1,5.1 0.2,0.4 0.6,0.8 0.8,1.2 0.9,1.3 1.8,2.6 2.7,3.8 0.3,0.4 0.7,0.9 0.9,1.2 1.1,1.4 2.2,2.8 3.4,4 0.5,0.6 1,1.1 1.5,1.6 0.9,0.9 1.8,2 2.8,2.8 0.6,0.6 1.2,1.2 1.8,1.8 1.1,1 2.2,2 3.4,2.9 0.6,0.5 1.1,0.9 1.7,1.5 1.4,1.1 2.8,2.2 4.3,3.3 l 0.2,0.2 z m 128,-15 c 2,6.8 -1.7,13.8 -8.2,15.9 -2.3,0.7 -4.8,0.7 -7.1,0 l -16.3,-5.2 c 0.5,-0.3 1,-0.7 1.5,-1 l 0.5,-0.3 c 9.2,-6.5 17.1,-14.9 23.4,-24.5 l 0.3,-0.5 c 0.3,-0.5 0.7,-1 1,-1.5 z m 2.4,-67 c 0,14 -3.3,27.9 -9.6,40.2 -0.7,1.5 -1.6,3 -2.5,4.5 -0.4,0.6 -0.7,1.2 -1.1,1.9 -0.6,0.9 -1.1,1.7 -1.7,2.6 -0.8,1.2 -1.6,2.4 -2.5,3.5 -0.5,0.6 -0.9,1.3 -1.4,1.9 -0.7,0.9 -1.4,1.7 -2.1,2.6 l -1,1.1 c -1.3,1.5 -2.7,2.9 -4.1,4.3 l -1.1,1 c -0.8,0.8 -1.6,1.5 -2.5,2.2 -0.6,0.5 -1.1,1 -1.8,1.5 -1.1,0.9 -2.2,1.8 -3.4,2.7 -0.8,0.6 -1.6,1.2 -2.5,1.8 -0.6,0.4 -1.1,0.8 -1.8,1.2 -1.4,0.9 -2.8,1.7 -4.3,2.6 -26.3,14.8 -58.2,13.2 -83.1,-4 -0.7,-0.5 -1.4,-0.9 -2.1,-1.5 -0.7,-0.5 -1.1,-0.9 -1.7,-1.3 -0.6,-0.4 -1.3,-1 -2,-1.6 -1,-0.9 -2,-1.7 -3,-2.6 -0.5,-0.5 -1.1,-0.9 -1.6,-1.5 -0.5,-0.5 -1.1,-1.2 -1.7,-1.7 -0.6,-0.5 -1,-0.9 -1.4,-1.5 -0.5,-0.5 -1.1,-1.2 -1.6,-1.8 -0.6,-0.6 -1,-1.1 -1.5,-1.7 -0.5,-0.6 -0.9,-1.1 -1.4,-1.7 -0.9,-1.1 -1.8,-2.3 -2.6,-3.4 -0.2,-0.3 -0.3,-0.5 -0.6,-0.8 -0.7,-1 -1.4,-2.1 -2.1,-3.2 -0.2,-0.3 -0.4,-0.7 -0.7,-1 -0.7,-1 -1.2,-2.1 -1.9,-3.2 l -0.5,-0.9 c -0.7,-1.3 -1.4,-2.6 -2,-4 l -0.1,-0.2 c -5.1,-10.8 -8,-22.6 -8.4,-34.7 0,-1.1 -0.1,-2.2 -0.1,-3.3 0,-14 3.3,-27.9 9.6,-40.2 0.8,-1.5 1.6,-3 2.5,-4.5 0.3,-0.6 0.7,-1.3 1.1,-1.9 0.6,-0.9 1.1,-1.7 1.7,-2.6 0.8,-1.2 1.6,-2.4 2.5,-3.5 0.5,-0.6 0.9,-1.2 1.4,-1.9 0.7,-0.9 1.4,-1.7 2.1,-2.6 l 1,-1.1 c 1.3,-1.5 2.7,-2.9 4.1,-4.3 l 1.1,-1 c 0.8,-0.8 1.6,-1.5 2.5,-2.2 0.6,-0.5 1.1,-1 1.8,-1.5 1.1,-0.9 2.2,-1.8 3.4,-2.7 0.8,-0.6 1.6,-1.2 2.5,-1.8 0.6,-0.4 1.1,-0.8 1.8,-1.2 1.4,-0.9 2.8,-1.7 4.3,-2.6 11.8,-6.6 24.9,-10.1 38.4,-10.1 h 65.2 V 753 h -29.4 v 0.2 c -23.4,-20.8 -58.4,-17.8 -78.2,6.7 -19.8,24.5 -17,61.2 6.4,82 23.4,20.8 58.4,17.8 78.2,-6.7 17.6,-21.8 17.6,-53.7 -0.1,-75.4 h 31 c 5.8,11.8 8.6,24.7 8.6,37.7 z m -32.5,0 c 0,28.3 -21.9,51.2 -49,51.2 -27,0 -48.9,-23 -48.9,-51.3 0,-28.3 21.9,-51.2 48.9,-51.2 27.1,0 49,23 49,51.3 0,-0.1 0,0 0,0 z m 42.3,-44.4 H 819.6 V 712 h 19.5 z"
   id="path52"
   inkscape:connector-curvature="0"
   style="fill:#020202" />
		<path
   class="st5"
   d="m 780.9,769.7 c -0.7,-0.9 -1.5,-1.9 -2.3,-2.8 -0.2,-0.2 -0.3,-0.3 -0.5,-0.5 -0.7,-0.7 -1.4,-1.4 -2.1,-2.1 -0.3,-0.3 -0.7,-0.6 -1,-0.9 -0.6,-0.5 -1.1,-0.9 -1.8,-1.5 -0.6,-0.5 -1,-0.9 -1.6,-1.2 -0.6,-0.3 -1,-0.6 -1.5,-0.9 -0.7,-0.4 -1.2,-0.9 -1.9,-1.2 -0.1,0 -0.1,-0.1 -0.2,-0.1 -0.2,-0.2 -0.6,-0.3 -0.8,-0.4 -0.9,-0.5 -1.9,-1 -2.9,-1.5 -0.4,-0.2 -0.8,-0.3 -1.2,-0.5 -0.8,-0.3 -1.7,-0.7 -2.5,-0.9 -0.5,-0.2 -1,-0.3 -1.5,-0.4 -0.8,-0.3 -1.6,-0.5 -2.5,-0.7 -0.6,-0.2 -1.1,-0.2 -1.7,-0.3 -0.8,-0.2 -1.6,-0.3 -2.4,-0.3 -0.7,-0.1 -1.3,-0.1 -2,-0.2 -0.7,-0.1 -1.4,-0.1 -2.1,-0.1 -0.2,0 -0.4,0 -0.7,0 -0.7,0 -1.2,0.1 -1.8,0.1 -0.5,0 -1,0 -1.5,0.1 -1.1,0.1 -2.1,0.3 -3.2,0.4 l -0.7,0.1 c -1.2,0.3 -2.5,0.5 -3.6,0.9 -0.1,0 -0.2,0 -0.2,0.1 h -0.1 c -1.2,0.3 -2.5,0.8 -3.8,1.3 l -0.3,0.1 c -1.2,0.5 -2.4,1 -3.6,1.6 -0.1,0.1 -0.2,0.1 -0.3,0.2 -1.1,0.6 -2.2,1.3 -3.4,2 l -0.4,0.3 c -1,0.7 -2,1.5 -3,2.1 -0.2,0.2 -0.3,0.3 -0.6,0.4 -0.8,0.7 -1.6,1.5 -2.5,2.2 -0.2,0.3 -0.5,0.5 -0.7,0.7 -0.7,0.7 -1.3,1.4 -1.9,2.1 l -1,1.1 c -0.5,0.6 -1,1.3 -1.4,2 -0.4,0.7 -0.8,1 -1.1,1.5 -0.3,0.5 -0.7,1.2 -1.1,1.9 -0.3,0.6 -0.7,1.1 -1,1.7 l -0.1,0.2 c -0.7,1.5 -1.4,3 -2.1,4.6 -0.2,0.4 -0.3,0.9 -0.4,1.3 -0.4,1.2 -0.8,2.4 -1.1,3.6 -0.2,0.5 -0.2,0.9 -0.3,1.5 -0.2,1.2 -0.5,2.5 -0.7,3.8 -0.1,0.4 -0.2,0.9 -0.2,1.4 -0.2,1.7 -0.3,3.4 -0.3,5.2 0,1.3 0.1,2.6 0.2,4 0,0.5 0.1,0.9 0.2,1.5 0.1,0.8 0.2,1.5 0.3,2.3 0.2,0.9 0.3,1.9 0.6,2.8 0.2,0.7 0.3,1.3 0.5,2 v 0.1 c 0.3,1.2 0.7,2.4 1.2,3.6 0.1,0.2 0.1,0.3 0.2,0.5 0.5,1.2 1,2.5 1.6,3.6 0.1,0.1 0.1,0.2 0.2,0.3 0.7,1.2 1.3,2.4 2.1,3.6 0,0.1 0.1,0.1 0.1,0.2 0.7,1.1 1.5,2.2 2.3,3.3 l 0.2,0.3 c 0.7,0.9 1.6,1.9 2.4,2.8 0.2,0.2 0.2,0.3 0.4,0.5 0.7,0.8 1.5,1.5 2.2,2.1 0.3,0.3 0.6,0.6 0.9,0.9 0.6,0.5 1.2,1 1.8,1.5 0.7,0.5 1,0.8 1.5,1.2 0.5,0.3 1,0.7 1.5,0.9 0.7,0.4 1.2,0.9 1.9,1.2 l 0.2,0.1 c 1.4,0.8 2.9,1.5 4.3,2.1 0.4,0.2 0.8,0.3 1.2,0.4 1.1,0.4 2.3,0.9 3.4,1.2 0.5,0.2 0.9,0.3 1.4,0.3 1.2,0.3 2.4,0.5 3.6,0.7 0.4,0.1 0.8,0.2 1.3,0.2 1.6,0.2 3.3,0.3 4.9,0.3 1.2,0 2.5,-0.1 3.7,-0.2 0.5,0 0.9,-0.1 1.4,-0.2 0.7,-0.1 1.5,-0.3 2.2,-0.3 0.9,-0.2 1.8,-0.3 2.6,-0.6 0.7,-0.2 1.2,-0.3 1.9,-0.5 h 0.1 c 1.1,-0.3 2.3,-0.8 3.4,-1.3 0.2,-0.1 0.3,-0.1 0.5,-0.2 1.1,-0.5 2.3,-1 3.4,-1.6 l 0.2,-0.2 c 1.1,-0.6 2.3,-1.3 3.4,-2.1 0.1,0 0.2,-0.1 0.2,-0.1 1.1,-0.7 2.1,-1.5 3.1,-2.3 l 0.2,-0.3 c 0.9,-0.8 1.7,-1.5 2.5,-2.4 0.2,-0.2 0.4,-0.3 0.6,-0.5 0.7,-0.7 1.3,-1.5 2,-2.1 0.3,-0.3 0.7,-0.7 0.9,-1 0.4,-0.6 0.8,-1.2 1.3,-1.8 0.5,-0.6 0.8,-1.1 1.2,-1.7 0.2,-0.4 0.6,-0.9 0.8,-1.4 0.4,-0.7 0.9,-1.5 1.3,-2.1 0,-0.1 0,-0.1 0.1,-0.2 0.7,-1.5 1.4,-3 2.1,-4.6 0.2,-0.4 0.3,-0.9 0.5,-1.3 0.4,-1.2 0.8,-2.4 1.1,-3.6 0.2,-0.5 0.2,-0.9 0.3,-1.5 0.2,-1.3 0.5,-2.5 0.7,-3.8 0.1,-0.4 0.2,-0.9 0.2,-1.4 0.2,-1.7 0.3,-3.4 0.3,-5.2 0,-1.3 -0.1,-2.6 -0.2,-3.9 0,-0.5 -0.1,-0.9 -0.2,-1.5 -0.1,-0.8 -0.2,-1.5 -0.3,-2.3 -0.2,-0.9 -0.3,-1.9 -0.6,-2.8 -0.2,-0.7 -0.3,-1.3 -0.5,-2 V 785 c -0.3,-1.2 -0.7,-2.4 -1.2,-3.6 -0.1,-0.2 -0.1,-0.3 -0.2,-0.5 -0.5,-1.2 -1.1,-2.4 -1.6,-3.6 -0.1,-0.1 -0.1,-0.2 -0.2,-0.3 -0.7,-1.2 -1.3,-2.4 -2,-3.6 0,-0.1 -0.1,-0.1 -0.1,-0.2 -0.7,-1.1 -1.5,-2.2 -2.3,-3.3 0.2,0 0.2,-0.1 0.2,-0.2 z M 747.1,760 c 0.9,0 1.9,0 2.8,0.1 0.5,0 1,0 1.4,0.1 1.3,0.1 2.6,0.3 3.9,0.6 0.3,0.1 0.7,0.2 1,0.3 1,0.3 2,0.5 2.9,0.9 0.4,0.2 0.9,0.3 1.3,0.5 0.8,0.3 1.6,0.7 2.5,1.1 l 0.7,0.4 0.7,5.7 c 0.4,3.2 -0.6,6.4 -2.8,8.7 l -9.6,10.1 c -0.1,-0.1 -0.2,-0.1 -0.3,-0.2 l -0.2,-0.1 -0.4,-0.2 v -16.1 c 0,-1 -0.1,-2 -0.2,-3 0,-0.3 -0.1,-0.5 -0.2,-0.8 -0.2,-0.8 -0.3,-1.5 -0.7,-2.1 -0.1,-0.3 -0.2,-0.4 -0.2,-0.7 -0.3,-0.9 -0.7,-1.7 -1.2,-2.6 -0.1,-0.2 -0.2,-0.3 -0.3,-0.5 -0.4,-0.6 -0.9,-1.3 -1.4,-1.8 -0.1,-0.1 -0.2,-0.3 -0.2,-0.3 h 0.5 z m -1.8,35.5 c 0.2,-0.3 0.4,-0.5 0.7,-0.7 0.2,-0.2 0.4,-0.3 0.6,-0.4 1,-0.5 2.3,-0.3 3.1,0.4 0.3,0.2 0.6,0.5 0.7,0.8 0.9,1.1 0.9,2.8 0,3.9 -0.2,0.3 -0.5,0.6 -0.7,0.8 -0.8,0.8 -2.1,0.9 -3.1,0.4 -0.2,-0.1 -0.4,-0.3 -0.6,-0.4 -0.2,-0.2 -0.5,-0.4 -0.7,-0.7 -0.2,-0.2 -0.3,-0.4 -0.4,-0.7 -0.3,-0.9 -0.3,-1.8 0,-2.7 0,-0.2 0.2,-0.5 0.4,-0.7 z M 720.7,773 c 1,-1.1 2,-2.2 3,-3.3 0.2,-0.2 0.3,-0.3 0.5,-0.5 2.5,-2.2 5.2,-4.2 8.2,-5.7 l 0.2,-0.1 c 1.6,-0.8 3.1,-1.4 4.8,-1.9 l 1.9,1 c 3.3,1.7 5.4,5.2 5.4,9.2 v 16.1 l -0.5,0.2 -0.2,0.1 -0.3,0.2 -9.6,-10.1 c -0.7,-0.7 -1.5,-1.4 -2.3,-2 l -0.4,-0.3 c -0.8,-0.5 -1.6,-0.9 -2.5,-1.4 l -0.4,-0.2 c -0.9,-0.3 -1.8,-0.7 -2.8,-0.9 h -0.2 c -0.9,-0.2 -1.9,-0.3 -2.8,-0.3 -0.1,0 -0.2,0 -0.2,0 h -0.2 c -0.4,0 -0.8,0 -1.2,0.1 -0.2,0 -0.4,0 -0.6,0 0,0 0.1,0 0.2,-0.2 z m -8,27 c -0.2,0.3 -0.4,0.4 -0.6,0.7 -0.1,-1.1 -0.2,-2.1 -0.2,-3.3 0,-1.4 0.1,-2.8 0.2,-4.1 0,-0.3 0.1,-0.7 0.2,-1 0.2,-1 0.3,-2.1 0.5,-3 0.1,-0.4 0.2,-0.8 0.3,-1.2 0.2,-0.9 0.5,-1.8 0.7,-2.7 0.2,-0.4 0.3,-0.9 0.5,-1.4 0.2,-0.8 0.6,-1.5 1,-2.3 0.2,-0.3 0.2,-0.6 0.4,-0.9 l 5.4,-0.8 c 3,-0.4 6.2,0.6 8.3,2.9 L 739,793 c -0.1,0.1 -0.1,0.3 -0.2,0.3 l -0.1,0.2 c -0.1,0.2 -0.2,0.3 -0.2,0.4 h -13.6 c -0.7,0 -1.2,0 -1.9,0.1 -0.2,0 -0.4,0.1 -0.7,0.1 -0.4,0.1 -0.8,0.1 -1.2,0.3 -0.2,0.1 -0.5,0.2 -0.7,0.3 -0.2,0.1 -0.7,0.2 -1.1,0.3 -0.2,0.1 -0.5,0.2 -0.7,0.3 -0.3,0.2 -0.7,0.3 -1,0.4 -0.3,0.2 -0.5,0.3 -0.7,0.4 -0.2,0.2 -0.6,0.3 -0.9,0.5 -0.3,0.2 -0.5,0.3 -0.7,0.5 -0.2,0.2 -0.6,0.4 -0.8,0.6 -0.2,0.3 -0.4,0.4 -0.7,0.6 -0.2,0.3 -0.5,0.4 -0.7,0.7 -0.1,0.6 -0.2,0.8 -0.4,1 z m 15.4,13.5 c -0.1,0.2 -0.2,0.3 -0.3,0.5 -0.2,0.3 -0.5,0.7 -0.7,1.1 -0.1,0.2 -0.2,0.4 -0.3,0.6 -0.2,0.3 -0.4,0.7 -0.6,1.1 -0.1,0.3 -0.2,0.5 -0.2,0.7 -0.1,0.3 -0.3,0.7 -0.4,1.1 -0.2,0.3 -0.2,0.5 -0.2,0.8 -0.1,0.3 -0.2,0.7 -0.2,1.1 -0.1,0.3 -0.1,0.5 -0.2,0.9 -0.1,0.3 -0.2,0.7 -0.2,1.1 -0.1,0.3 0,0.6 0,0.9 0,0.3 -0.1,0.7 -0.1,1.1 0,0.4 0.1,0.6 0.1,0.9 0,0.3 0,0.6 0.1,0.9 l -0.2,-0.3 c -1.1,-0.9 -2.1,-1.9 -3,-3 l -0.5,-0.6 c -2.1,-2.4 -3.8,-5.1 -5.2,-7.9 -0.1,-0.2 -0.2,-0.3 -0.2,-0.4 -0.7,-1.4 -1.1,-2.8 -1.6,-4.1 0,-0.1 -0.1,-0.2 -0.1,-0.3 l 3.3,-4.6 c 1.9,-2.6 4.8,-4.1 7.8,-4.1 h 13.6 c 0.1,0.2 0.2,0.3 0.2,0.4 l 0.1,0.2 c 0,0.1 0.1,0.3 0.2,0.3 l -9.6,10.1 c -0.7,0.5 -1.1,0.9 -1.6,1.5 z m 22.2,21.5 c -1.2,0.1 -2.4,0.1 -3.6,0.1 -0.5,0 -0.9,0 -1.4,-0.1 -1.1,-0.1 -2.3,-0.3 -3.4,-0.4 -0.2,-0.1 -0.6,-0.1 -0.8,-0.2 -1.4,-0.3 -2.9,-0.7 -4.3,-1.1 -0.3,-0.1 -0.6,-0.3 -0.8,-0.3 -1.1,-0.4 -2.1,-0.9 -3.2,-1.4 l -0.7,-0.3 -0.7,-5.7 c -0.4,-3.2 0.6,-6.4 2.8,-8.7 l 9.6,-10.1 0.3,0.2 0.2,0.1 c 0.2,0.1 0.3,0.2 0.5,0.2 v 14.3 c 0,0.7 0,1.3 0.1,2 0,0.3 0.1,0.4 0.1,0.7 0.1,0.4 0.2,0.9 0.2,1.3 0.1,0.3 0.2,0.5 0.2,0.8 0.1,0.3 0.2,0.8 0.3,1.1 0.1,0.3 0.2,0.5 0.3,0.8 0.1,0.3 0.2,0.7 0.4,1 0.2,0.3 0.2,0.5 0.4,0.8 0.2,0.3 0.3,0.6 0.5,0.9 0.2,0.3 0.3,0.5 0.5,0.8 0.2,0.3 0.4,0.6 0.6,0.9 0.2,0.3 0.4,0.4 0.6,0.7 0.2,0.3 0.4,0.5 0.7,0.8 0.2,0.3 0.4,0.4 0.7,0.6 0.2,0.2 0.4,0.4 0.7,0.6 -0.3,-0.4 -0.6,-0.4 -0.8,-0.4 z M 775,822 c -0.9,1 -1.8,2.1 -2.8,3 l -0.6,0.6 c -2.3,2.1 -4.8,4 -7.5,5.3 l -0.4,0.3 c -1.3,0.7 -2.6,1.2 -3.9,1.7 -0.1,0 -0.2,0.1 -0.2,0.1 l -4.3,-3.4 c -2.5,-2 -3.9,-5 -3.9,-8.2 v -14.2 c 0.2,-0.1 0.3,-0.1 0.4,-0.2 l 0.2,-0.1 c 0.1,-0.1 0.2,-0.1 0.3,-0.2 l 9.6,10.1 c 0.7,0.7 1.5,1.4 2.3,2 l 0.3,0.3 c 0.8,0.5 1.6,0.9 2.5,1.4 l 0.4,0.2 c 0.9,0.3 1.8,0.7 2.7,0.9 h 0.2 c 0.9,0.2 1.9,0.3 2.9,0.3 h 0.2 c 0.7,0 1.3,0 2,-0.2 -0.3,0.1 -0.4,0.2 -0.4,0.3 z m 7.9,-27 c 0.2,-0.3 0.4,-0.4 0.6,-0.7 0.1,1 0.2,2.1 0.2,3.2 0,1.4 -0.1,2.8 -0.2,4.1 0,0.3 -0.1,0.7 -0.2,1 -0.2,1 -0.2,2 -0.5,3 -0.1,0.4 -0.2,0.9 -0.3,1.2 -0.2,0.9 -0.5,1.8 -0.7,2.7 -0.2,0.4 -0.3,0.9 -0.5,1.4 -0.2,0.8 -0.6,1.5 -0.9,2.3 l -0.4,0.9 -5.4,0.8 c -3,0.4 -6.2,-0.6 -8.3,-2.9 l -9.6,-10.1 c 0.1,-0.1 0.1,-0.3 0.2,-0.3 l 0.1,-0.2 c 0.1,-0.2 0.2,-0.3 0.2,-0.5 h 13.6 c 0.7,0 1.2,0 1.9,-0.1 0.2,0 0.4,-0.1 0.7,-0.1 0.4,-0.1 0.8,-0.2 1.2,-0.3 0.2,-0.1 0.5,-0.2 0.7,-0.3 0.3,-0.1 0.7,-0.2 1.1,-0.3 0.2,-0.1 0.5,-0.3 0.7,-0.3 0.2,0 0.7,-0.3 1,-0.4 0.3,-0.2 0.5,-0.3 0.7,-0.4 0.2,-0.2 0.6,-0.3 0.9,-0.5 0.2,-0.2 0.5,-0.3 0.7,-0.5 0.2,-0.2 0.6,-0.4 0.8,-0.6 0.2,-0.3 0.4,-0.4 0.7,-0.6 0.2,-0.2 0.5,-0.4 0.7,-0.7 0.2,-0.4 0.2,-0.6 0.3,-0.8 z m -1.1,-9.5 -3.3,4.6 c -1.9,2.6 -4.8,4.1 -7.8,4.1 h -13.6 c -0.1,-0.2 -0.2,-0.3 -0.2,-0.5 l -0.1,-0.2 c -0.1,-0.1 -0.1,-0.3 -0.2,-0.3 l 9.6,-10.1 c 0.4,-0.4 0.9,-0.9 1.2,-1.5 0.2,-0.2 0.2,-0.4 0.4,-0.6 0.2,-0.3 0.5,-0.7 0.7,-1 0.2,-0.3 0.2,-0.5 0.4,-0.7 0.2,-0.3 0.3,-0.7 0.5,-1 0.2,-0.3 0.2,-0.5 0.3,-0.8 0.1,-0.3 0.2,-0.7 0.4,-1 0.1,-0.3 0.2,-0.5 0.2,-0.9 0.1,-0.3 0.2,-0.7 0.2,-1 0.1,-0.3 0.1,-0.6 0.2,-0.9 0.1,-0.3 0.2,-0.7 0.2,-1 0,-0.3 0,-0.6 0,-0.9 0,-0.3 0,-0.7 0,-1.1 -0.1,-0.3 -0.1,-0.6 -0.1,-0.9 0,-0.3 0,-0.6 -0.1,-0.9 l 0.2,0.3 c 1,0.9 2,1.9 2.9,2.9 0.2,0.2 0.3,0.4 0.6,0.6 2.1,2.4 3.8,5.1 5.2,7.9 0.1,0.2 0.2,0.3 0.2,0.4 0.7,1.4 1.1,2.8 1.6,4.1 0.2,0.1 0.2,0.2 0.4,0.4 z"
   id="path54"
   inkscape:connector-curvature="0"
   style="fill:#020202" />
		<path
   class="st5"
   d="m 676.1,722.3 h 6.5 v 6.9 h -6.5 z"
   id="path56"
   inkscape:connector-curvature="0"
   style="fill:#020202" />
		<path
   class="st5"
   d="m 813,865.9 h 6.6 v 6.9 H 813 Z"
   id="path58"
   inkscape:connector-curvature="0"
   style="fill:#020202" />
		<path
   class="st5"
   d="m 747.8,725.7 v -6.9 c -41.4,0.1 -75,35.3 -75,78.6 h 6.6 c 0,-39.5 30.7,-71.6 68.4,-71.7 z"
   id="path60"
   inkscape:connector-curvature="0"
   style="fill:#020202" />
		<path
   class="st5"
   d="m 754.4,718.9 h 6.6 v 6.9 h -6.6 z"
   id="path62"
   inkscape:connector-curvature="0"
   style="fill:#020202" />
	</g>
</g>
<polygon
   class="st6"
   points="694.8,1199.4 280.9,1200.3 236.8,1172.6 236.4,987.6 737.5,986.5 737.9,1171.5 "
   id="polygon66"
   style="fill:#ede9e8"
   transform="translate(-236.4,-211)" />
<polygon
   class="st7"
   points="694.8,1199.4 502.1,1199.8 501.6,987 737.5,986.5 737.9,1171.5 "
   id="polygon68"
   style="fill:#dfd7d5"
   transform="translate(-236.4,-211)" />
<path
   class="st8"
   d="m 501.5,960.5 0.2,69.4 L 468,1055 34.4,1055.9 0.6,1031 0.4,961.6 c 1.2,0.8 2.1,1.7 3.2,2.2 10.3,4.4 22.6,2.5 30.5,-5.1 21.7,-20.9 58.5,-21 80.3,-0.2 10.6,10 27.6,9.9 38.2,-0.1 21.7,-20.9 57.5,-21 79.3,-0.2 9.1,8.6 23.2,9.7 33.8,3.5 1.5,-1.1 2.9,-2.2 4.4,-3.6 21.7,-20.9 57.5,-21 79.3,-0.2 10.3,9.7 27.9,9.7 38.2,-0.1 21.7,-20.9 58.5,-21 80.3,-0.2 7.4,6.9 18.2,9.1 27.9,6.1 2.2,-0.6 4,-2 5.7,-3.2 z"
   id="path70"
   inkscape:connector-curvature="0"
   style="fill:#8fe1ff" />
<g
   id="g76"
   transform="translate(-236.4,-211)">
	<path
   class="st9"
   d="m 737.9,1171.5 0.2,69.4 -33.7,25.1 -202.1,0.4 -0.2,-93.6 c 1.5,-1.1 2.9,-2.2 4.4,-3.6 21.7,-20.9 57.5,-21 79.3,-0.2 10.3,9.7 27.9,9.7 38.2,-0.1 21.7,-20.9 58.5,-21 80.3,-0.2 7.4,6.9 18.2,9.1 27.9,6.1 2.2,-0.7 4,-2.1 5.7,-3.3 z"
   id="path72"
   inkscape:connector-curvature="0"
   style="fill:#73bcff" />
	<path
   class="st9"
   d="m 738.1,1241 c 0,0 0.2,75 0.2,78.9 l -501.1,1 c 0,0 -0.2,-74.4 -0.2,-78.9 1.2,0.8 2.1,1.7 3.2,2.2 10.3,4.4 22.6,2.5 30.5,-5.1 21.7,-20.9 58.5,-21 80.3,-0.2 10.6,10 27.6,9.9 38.2,-0.1 21.7,-20.9 57.5,-21 79.3,-0.2 9.1,8.6 23.2,9.7 33.8,3.5 1.5,-1.1 2.9,-2.2 4.4,-3.6 21.7,-20.9 57.5,-21 79.3,-0.2 10.3,9.7 27.9,9.7 38.2,-0.1 21.7,-20.9 58.5,-21 80.3,-0.2 7.4,6.9 18.2,9.1 27.9,6.1 2.2,-0.6 3.9,-2 5.7,-3.1 z"
   id="path74"
   inkscape:connector-curvature="0"
   style="fill:#73bcff" />
</g>
<path
   class="st10"
   d="m 501.7,1030 c 0,0 0.2,75 0.2,78.9 l -235.9,0.5 -0.2,-78.1 c 1.5,-1.1 2.9,-2.2 4.4,-3.6 21.7,-20.9 57.5,-21 79.3,-0.2 10.3,9.7 27.9,9.7 38.2,-0.1 21.7,-20.9 58.5,-21 80.3,-0.2 7.4,6.9 18.2,9.1 27.9,6.1 2.3,-0.8 4,-2.2 5.8,-3.3 z"
   id="path78"
   inkscape:connector-curvature="0"
   style="fill:#3a96ff" />
<rect
   x="416.19998"
   y="688.79999"
   class="st11"
   width="57.299999"
   height="11.2"
   id="rect80"
   style="fill:#c7c9c7" />
<rect
   x="1338.2999"
   y="682.90002"
   class="st11"
   width="57.299999"
   height="11.2"
   id="rect82"
   style="fill:#c7c9c7" />
<g
   id="Layer_3_3_"
   transform="translate(-236.4,-211)">
	<path
   class="st0"
   d="m 1627.1,894.1 -1.5,-99.1 c -0.7,-49.1 -39.3,-88.3 -86.1,-87.5 -46.8,0.8 -84.2,41.2 -83.5,90.3 0.7,49.1 39.3,88.3 86.1,87.5 13.6,-0.2 27,-3.9 39,-10.7 l 0.3,20.3 z"
   id="path84"
   inkscape:connector-curvature="0"
   style="fill:#4499d4" />
	<ellipse
   class="st1"
   cx="1540.8"
   cy="796.40002"
   rx="52.200001"
   ry="54.700001"
   id="ellipse86"
   style="fill:#64a9d9" />
	<path
   class="st2"
   d="m 1615.3,753.9 6.7,-24.8 c 2.3,-8.6 -2.5,-17.6 -10.6,-20 -2.9,-0.9 -6,-0.8 -8.9,0.1 L 1579,717 c 15.3,8.1 28,21 36.3,36.9 z"
   id="path88"
   inkscape:connector-curvature="0"
   style="fill:#3f8ec9" />
	<path
   class="st2"
   d="m 1466.4,838.8 -6.7,24.8 c -2.3,8.6 2.5,17.6 10.6,19.9 2.9,0.9 6,0.8 8.9,-0.1 l 23.4,-7.8 c -15.4,-8 -28,-20.9 -36.2,-36.8 z"
   id="path90"
   inkscape:connector-curvature="0"
   style="fill:#3f8ec9" />
	<ellipse
   class="st3"
   cx="1540.8"
   cy="796.40002"
   rx="39.099998"
   ry="41"
   id="ellipse92"
   style="fill:#2c7fba" />
	<path
   class="st0"
   d="m 1448.8,750.1 19.9,-0.3 c 14.6,-24.7 39.8,-40.5 67.5,-42 v -0.1 l -88.1,1.4 -0.2,-13.7 -6.5,0.1 1,68.3 6.5,-0.1 z"
   id="path94"
   inkscape:connector-curvature="0"
   style="fill:#4499d4" />
	<path
   class="st2"
   d="m 1460.1,749.9 8.5,-0.1 c 14.6,-24.7 39.8,-40.5 67.5,-42 v -0.1 l -39.3,0.6 c -13.2,7.1 -30.8,20.3 -36.7,41.6 z"
   id="path96"
   inkscape:connector-curvature="0"
   style="fill:#3f8ec9" />
	<path
   class="st3"
   d="m 1626.6,863.3 0.1,6.9 -45.7,0.7 -0.1,-6.9 z"
   id="path98"
   inkscape:connector-curvature="0"
   style="fill:#2c7fba" />
	<path
   class="st3"
   d="m 1461.2,708.8 0.6,41 -6.6,0.1 -0.6,-41 z"
   id="path100"
   inkscape:connector-curvature="0"
   style="fill:#2c7fba" />
	<path
   class="st3"
   d="m 1611.4,720 0.1,6.8 -6.6,0.1 -0.1,-6.8 z"
   id="path102"
   inkscape:connector-curvature="0"
   style="fill:#2c7fba" />
	<path
   class="st3"
   d="m 1476.6,865.8 0.1,6.9 -6.6,0.1 -0.1,-6.9 z"
   id="path104"
   inkscape:connector-curvature="0"
   style="fill:#2c7fba" />
	<path
   class="st1"
   d="m 1539.7,724.6 -0.1,-6.9 c 41.4,-0.6 75.5,34 76.1,77.3 l -6.6,0.1 c -0.5,-39.5 -31.6,-71.1 -69.4,-70.5 z"
   id="path106"
   inkscape:connector-curvature="0"
   style="fill:#64a9d9" />
	<path
   class="st1"
   d="m 1615.9,802 0.1,6.9 -6.6,0.1 -0.1,-6.9 z"
   id="path108"
   inkscape:connector-curvature="0"
   style="fill:#64a9d9" />
	<path
   class="st3"
   d="m 1540.4,772.5 0.3,17.1 c 1.7,0 3.4,0.6 4.6,1.9 l 11.3,-12.3 c 2.8,-3.1 4.2,-7.4 3.5,-11.7 L 1559,760 c -9.2,-5.1 -19.9,-6.2 -29.8,-2.9 l 5.8,4.4 c 3.4,2.6 5.4,6.6 5.4,11 z"
   id="path110"
   inkscape:connector-curvature="0"
   style="fill:#2c7fba" />
	<path
   class="st3"
   d="m 1565.4,795.9 -18,0.3 c 0,1.8 -0.6,3.5 -1.8,4.8 l 11.7,11.9 c 2.9,3 7,4.4 11.1,3.7 l 7.1,-1.1 c 4.8,-9.4 5.8,-20.3 3,-30.5 l -1.4,3.2 c -2.4,4.7 -6.9,7.7 -11.7,7.7 z"
   id="path112"
   inkscape:connector-curvature="0"
   style="fill:#2c7fba" />
	<path
   class="st3"
   d="m 1518,796.7 16.3,-0.3 c 0,-1.8 0.6,-3.5 1.8,-4.8 l -11.7,-11.9 c -2.9,-3 -7,-4.4 -11.1,-3.7 l -7.1,1.1 c -4.9,9.6 -5.8,20.8 -2.7,31.3 l 4.2,-6.1 c 2.4,-3.4 6.2,-5.5 10.3,-5.6 z"
   id="path114"
   inkscape:connector-curvature="0"
   style="fill:#2c7fba" />
	<path
   class="st3"
   d="m 1552.4,835.5 -5.8,-4.4 c -3.3,-2.5 -5.3,-6.5 -5.4,-10.8 l -0.3,-17.1 c -1.7,0 -3.4,-0.6 -4.6,-1.9 l -11.3,12.3 c -2.8,3.1 -4.2,7.4 -3.5,11.7 l 1.1,7.5 c 9.1,5 19.8,6 29.8,2.7 z"
   id="path116"
   inkscape:connector-curvature="0"
   style="fill:#2c7fba" />
	<path
   class="st4"
   d="m 1556.7,779.2 -11.3,12.3 c 1.2,1.3 1.9,3 2,4.8 l 18,-0.3 c 4.9,-0.1 9.4,-3.1 11.5,-7.8 l 1.4,-3.2 c -2.9,-10.7 -9.9,-19.7 -19.3,-24.9 l 1.1,7.5 c 0.7,4.2 -0.6,8.5 -3.4,11.6 z"
   id="path118"
   inkscape:connector-curvature="0"
   style="fill:#fdb62d" />
	<path
   class="st4"
   d="m 1557.2,813 -11.7,-11.9 c -1.2,1.3 -2.8,2 -4.6,2.1 l 0.3,17.1 c 0.1,4.3 2.1,8.3 5.4,10.8 l 5.8,4.4 c 9.9,-3.2 18.2,-10.4 23.1,-20 l -7.1,1.1 c -4.1,0.8 -8.3,-0.5 -11.2,-3.6 z"
   id="path120"
   inkscape:connector-curvature="0"
   style="fill:#fdb62d" />
	<path
   class="st4"
   d="m 1524.4,779.7 11.7,11.9 c 1.2,-1.3 2.8,-2 4.6,-2.1 l -0.3,-17.1 c -0.1,-4.3 -2.1,-8.3 -5.4,-10.8 l -5.8,-4.4 c -9.9,3.2 -18.2,10.4 -23.1,20 l 7.1,-1.1 c 4.1,-0.8 8.3,0.6 11.2,3.6 z"
   id="path122"
   inkscape:connector-curvature="0"
   style="fill:#fdb62d" />
	<path
   class="st4"
   d="m 1524.9,813.6 11.4,-12.3 c -1.2,-1.3 -1.9,-3 -2,-4.8 l -16.3,0.3 c -4.1,0.1 -7.9,2.2 -10.3,5.7 l -4.2,6.1 c 3,10.4 10,19.1 19.1,24.2 l -1.1,-7.5 c -0.8,-4.3 0.6,-8.6 3.4,-11.7 z"
   id="path124"
   inkscape:connector-curvature="0"
   style="fill:#fdb62d" />
	<ellipse
   class="st4"
   cx="1540.8"
   cy="796.40002"
   rx="6.5999999"
   ry="6.9000001"
   id="ellipse126"
   style="fill:#fdb62d" />
	<path
   class="st2"
   d="m 1580.4,831.8 c -3.7,4.5 -8,8.4 -12.9,11.5 l 0.6,37.2 c 4.5,-1.6 8.8,-3.6 13,-5.9 z"
   id="path128"
   inkscape:connector-curvature="0"
   style="fill:#3f8ec9" />
	<path
   class="st5"
   d="m 1630.3,890.6 -1.4,-95.7 c -0.2,-14.4 -3.7,-28.6 -10.1,-41.4 l 6.4,-23.5 c 2.8,-10.5 -2.9,-21.3 -12.9,-24.2 -3.5,-1.1 -7.2,-1 -10.7,0.2 l -22.2,7.4 c -12.4,-6.3 -26,-9.5 -39.8,-9.3 -1,0 -2,0 -2.9,0.1 -0.1,0 -0.2,-0.1 -0.3,-0.1 l -88.1,1.4 -0.2,-10.3 -6.5,0.1 1,68.3 6.5,-0.1 -0.2,-10.2 14.2,-0.2 c -13.6,26.9 -13.6,59 -0.2,86 l -6.4,23.5 c -2.8,10.5 2.9,21.3 12.9,24.2 3.5,1.1 7.2,1 10.7,-0.2 l 22.2,-7.3 c 23.8,12.2 51.5,12.4 75.6,0.7 l 0.2,11.4 -9.8,0.2 0.1,6.9 71.8,-1.2 -0.1,-6.9 z m -26.9,-178.1 c 6.4,-2.2 13.2,1.6 15.3,8.3 0.7,2.4 0.7,5 0.1,7.4 l -4.7,17.2 -1,-1.5 -0.3,-0.5 c -6.4,-9.5 -14.5,-17.7 -23.7,-24.1 l -0.5,-0.3 c -0.5,-0.3 -1,-0.7 -1.5,-1 z m -154.7,34.1 -0.5,-34.2 6.6,-0.1 0.5,34.2 z m 13.1,-0.2 -0.5,-34.2 45.1,-0.7 c -2,0.9 -3.9,1.9 -5.8,2.8 l -0.2,0.2 c -1.7,1 -3.4,1.9 -5.1,3 -0.2,0.1 -0.4,0.3 -0.6,0.4 -1.6,1.1 -3.2,2.2 -4.8,3.3 -0.4,0.3 -0.7,0.6 -1.1,0.9 -1.2,1 -2.4,1.9 -3.6,2.9 -0.4,0.4 -0.8,0.7 -1.1,1 -1.3,1.1 -2.6,2.4 -3.8,3.7 -0.6,0.5 -1.1,1 -1.5,1.6 -0.9,1 -1.9,1.9 -2.7,3 -0.6,0.6 -1.1,1.3 -1.7,1.9 -1,1.1 -1.9,2.4 -2.7,3.6 -0.5,0.6 -0.9,1.2 -1.4,1.8 -1,1.5 -2.1,3 -3,4.5 l -0.2,0.3 z m 16.3,133.9 c -6.4,2.2 -13.2,-1.6 -15.3,-8.3 -0.7,-2.4 -0.7,-5 -0.1,-7.4 l 4.7,-17.2 c 0.3,0.5 0.7,1 1,1.5 l 0.3,0.5 c 6.4,9.5 14.5,17.7 23.7,24.1 l 0.5,0.3 c 0.5,0.3 1,0.7 1.5,1 z m 64,1.5 c -13.4,0.2 -26.6,-3 -38.4,-9.4 -1.5,-0.7 -2.9,-1.6 -4.3,-2.5 -0.6,-0.4 -1.2,-0.8 -1.8,-1.2 -0.8,-0.6 -1.7,-1.2 -2.5,-1.8 -1.2,-0.8 -2.3,-1.7 -3.4,-2.6 -0.6,-0.5 -1.2,-0.9 -1.8,-1.4 -0.8,-0.7 -1.7,-1.4 -2.5,-2.2 l -1.1,-1 c -1.4,-1.4 -2.8,-2.8 -4.2,-4.2 l -1,-1.1 c -0.8,-0.8 -1.4,-1.7 -2.2,-2.5 -0.5,-0.6 -1,-1.2 -1.4,-1.9 -0.9,-1.1 -1.8,-2.3 -2.6,-3.5 -0.6,-0.9 -1.2,-1.7 -1.8,-2.6 -0.4,-0.6 -0.8,-1.2 -1.2,-1.9 -0.8,-1.4 -1.7,-2.9 -2.5,-4.4 -14.5,-27.4 -13.5,-60.8 2.6,-87.1 0.5,-0.7 0.9,-1.5 1.4,-2.2 0.5,-0.7 0.8,-1.2 1.2,-1.8 0.4,-0.6 1,-1.4 1.5,-2.1 0.8,-1 1.6,-2.1 2.4,-3.1 0.5,-0.5 0.9,-1.1 1.4,-1.7 0.5,-0.5 1.1,-1.2 1.6,-1.8 0.5,-0.6 0.9,-1 1.4,-1.5 0.5,-0.5 1.1,-1.1 1.7,-1.7 0.6,-0.6 1.1,-1 1.6,-1.6 0.6,-0.5 1.1,-1 1.6,-1.5 1.1,-1 2.2,-1.9 3.2,-2.8 0.2,-0.2 0.5,-0.4 0.7,-0.6 1,-0.8 1.9,-1.5 3,-2.3 0.3,-0.3 0.6,-0.4 1,-0.7 1,-0.7 1.9,-1.3 3,-2 l 0.8,-0.5 c 1.2,-0.7 2.4,-1.5 3.7,-2.1 l 0.2,-0.1 c 10.3,-5.5 21.4,-8.7 33,-9.3 1.1,0 2.1,-0.1 3.1,-0.1 13.4,-0.2 26.6,3 38.5,9.4 1.5,0.8 2.9,1.6 4.3,2.5 0.6,0.3 1.2,0.8 1.8,1.2 0.8,0.6 1.7,1.2 2.5,1.8 1.2,0.8 2.3,1.7 3.4,2.6 0.6,0.5 1.2,0.9 1.8,1.4 0.8,0.7 1.7,1.4 2.5,2.2 l 1.1,1 c 1.4,1.4 2.8,2.8 4.2,4.2 l 1,1.1 c 0.8,0.8 1.4,1.7 2.2,2.5 0.5,0.6 1,1.2 1.4,1.9 0.9,1.1 1.8,2.3 2.6,3.5 0.6,0.9 1.2,1.7 1.8,2.6 0.4,0.6 0.8,1.2 1.2,1.9 0.8,1.4 1.7,2.9 2.5,4.4 6.5,12.3 10,26 10.2,40.1 l 1,68.3 -39.2,0.6 -0.5,-30.9 h -0.2 c 19.5,-24.8 16.1,-61.5 -7.6,-81.9 -23.7,-20.4 -58.7,-16.8 -78.1,8 -19.5,24.8 -16.1,61.5 7.6,81.9 21,18.1 51.5,17.6 71.9,-1.3 l 0.5,32.5 c -11.2,5.9 -23.4,9.1 -35.8,9.3 z m -0.5,-34.1 c -27,0.4 -49.2,-22.2 -49.6,-50.5 -0.4,-28.3 21.1,-51.6 48.2,-52 27,-0.4 49.2,22.2 49.6,50.4 0.4,28.3 -21.2,51.6 -48.2,52.1 0,0 0,0 0,0 z m 43,43.6 -0.3,-20.5 39.2,-0.6 0.3,20.5 z"
   id="path130"
   inkscape:connector-curvature="0"
   style="fill:#020202" />
	<path
   class="st5"
   d="m 1567.9,830.6 c 0.9,-0.8 1.8,-1.6 2.6,-2.5 0.2,-0.2 0.3,-0.3 0.5,-0.5 0.6,-0.7 1.3,-1.5 1.9,-2.3 0.2,-0.3 0.6,-0.7 0.9,-1 0.5,-0.6 0.9,-1.2 1.4,-1.9 0.5,-0.6 0.8,-1 1.1,-1.7 0.3,-0.6 0.6,-1 0.9,-1.6 0.4,-0.7 0.8,-1.3 1.1,-2 0,-0.1 0.1,-0.1 0.1,-0.2 0.2,-0.3 0.2,-0.6 0.4,-0.9 0.5,-1 1,-2 1.3,-3 0.2,-0.4 0.3,-0.9 0.5,-1.3 0.3,-0.9 0.6,-1.8 0.9,-2.7 0.2,-0.5 0.2,-1 0.4,-1.6 0.2,-0.9 0.5,-1.7 0.6,-2.6 0.2,-0.6 0.1,-1.2 0.3,-1.8 0.2,-0.9 0.2,-1.6 0.3,-2.5 0.1,-0.7 0.1,-1.4 0.1,-2.1 0.1,-0.7 0.1,-1.5 0,-2.2 0,-0.3 0,-0.4 0,-0.7 0,-0.7 -0.1,-1.3 -0.1,-1.9 0,-0.5 0,-1 -0.1,-1.5 -0.1,-1.1 -0.3,-2.2 -0.5,-3.3 l -0.1,-0.8 c -0.3,-1.3 -0.5,-2.6 -0.9,-3.8 0,-0.1 0,-0.2 -0.1,-0.3 v -0.1 c -0.3,-1.3 -0.8,-2.7 -1.3,-3.9 l -0.1,-0.3 c -0.5,-1.3 -1,-2.5 -1.6,-3.8 -0.1,-0.1 -0.1,-0.2 -0.2,-0.3 -0.6,-1.2 -1.3,-2.3 -1.9,-3.5 l -0.3,-0.4 c -0.7,-1 -1.4,-2 -2.1,-3.1 -0.2,-0.2 -0.3,-0.3 -0.4,-0.6 -0.7,-0.8 -1.4,-1.7 -2.2,-2.5 -0.2,-0.3 -0.5,-0.5 -0.7,-0.8 -0.7,-0.7 -1.3,-1.4 -2.1,-1.9 l -1.1,-1 c -0.6,-0.5 -1.2,-1 -1.9,-1.4 -0.7,-0.4 -1,-0.8 -1.5,-1.2 -0.5,-0.4 -1.2,-0.8 -1.8,-1.1 -0.6,-0.3 -1.1,-0.8 -1.7,-1 l -0.2,-0.1 c -1.4,-0.8 -2.9,-1.4 -4.4,-2.1 -0.4,-0.2 -0.8,-0.3 -1.2,-0.4 -1.2,-0.4 -2.3,-0.8 -3.5,-1.1 -0.5,-0.2 -0.9,-0.2 -1.4,-0.3 -1.2,-0.2 -2.4,-0.5 -3.6,-0.6 -0.4,-0.1 -0.8,-0.2 -1.3,-0.2 -1.6,-0.1 -3.3,-0.3 -4.9,-0.3 -1.2,0 -2.5,0.1 -3.8,0.2 -0.5,0 -0.9,0.1 -1.4,0.2 -0.7,0.1 -1.5,0.3 -2.2,0.4 -0.9,0.2 -1.8,0.4 -2.6,0.6 -0.7,0.2 -1.2,0.4 -1.9,0.5 h -0.1 c -1.1,0.4 -2.3,0.8 -3.4,1.3 -0.2,0.1 -0.3,0.1 -0.5,0.2 -1.1,0.5 -2.4,1.1 -3.4,1.8 -0.1,0.1 -0.2,0.1 -0.2,0.2 -1.1,0.7 -2.3,1.4 -3.4,2.2 -0.1,0 -0.1,0.1 -0.2,0.1 -1.1,0.8 -2.1,1.6 -3.1,2.5 l -0.2,0.2 c -0.9,0.8 -1.8,1.7 -2.6,2.5 -0.2,0.2 -0.3,0.3 -0.5,0.4 -0.7,0.7 -1.4,1.6 -2,2.4 -0.2,0.3 -0.6,0.6 -0.8,1 -0.5,0.6 -1,1.3 -1.4,1.9 -0.5,0.7 -0.7,1 -1.1,1.6 -0.3,0.5 -0.6,1 -0.9,1.6 -0.4,0.7 -0.8,1.3 -1.1,2 l -0.1,0.2 c -0.7,1.5 -1.3,3 -2,4.6 -0.2,0.4 -0.3,0.9 -0.4,1.3 -0.4,1.2 -0.8,2.4 -1.1,3.6 -0.2,0.5 -0.2,0.9 -0.3,1.5 -0.2,1.3 -0.5,2.5 -0.6,3.8 -0.1,0.4 -0.2,0.9 -0.1,1.4 -0.1,1.7 -0.3,3.4 -0.3,5.2 0,1.3 0.1,2.6 0.2,3.9 0,0.5 0.1,0.9 0.2,1.5 0.1,0.8 0.3,1.5 0.4,2.3 0.2,0.9 0.4,1.9 0.6,2.7 0.2,0.7 0.3,1.3 0.5,2 v 0.1 c 0.3,1.2 0.8,2.4 1.3,3.6 0.1,0.2 0.1,0.3 0.2,0.5 0.5,1.2 1,2.4 1.6,3.6 l 0.2,0.3 c 0.6,1.2 1.3,2.4 2,3.5 0,0.1 0.1,0.2 0.1,0.2 0.7,1.1 1.5,2.1 2.3,3.2 l 0.2,0.3 c 0.8,0.9 1.5,1.8 2.3,2.6 0.2,0.2 0.3,0.4 0.5,0.6 0.7,0.7 1.4,1.4 2.1,2 0.3,0.3 0.7,0.7 1,0.9 0.6,0.4 1.2,0.8 1.7,1.3 0.6,0.5 1.1,0.8 1.7,1.3 0.4,0.3 0.8,0.6 1.3,0.8 0.7,0.4 1.4,0.9 2.1,1.3 0.1,0 0.1,0 0.2,0.1 1.4,0.8 2.9,1.4 4.4,2.1 0.4,0.2 0.8,0.3 1.2,0.5 1.2,0.4 2.3,0.8 3.5,1.1 0.5,0.2 0.9,0.2 1.4,0.3 1.2,0.2 2.4,0.5 3.6,0.6 0.4,0.1 0.8,0.2 1.3,0.2 1.6,0.1 3.3,0.3 4.9,0.3 1.2,0 2.5,-0.1 3.7,-0.2 0.5,0 0.9,-0.1 1.4,-0.2 0.7,-0.1 1.5,-0.3 2.2,-0.4 0.9,-0.2 1.8,-0.4 2.6,-0.6 0.7,-0.2 1.2,-0.4 1.9,-0.5 h 0.1 c 1.1,-0.4 2.3,-0.8 3.4,-1.3 0.2,-0.1 0.3,-0.1 0.5,-0.2 1.1,-0.5 2.3,-1.2 3.4,-1.8 0.1,-0.1 0.2,-0.1 0.2,-0.2 1.1,-0.7 2.3,-1.4 3.4,-2.1 0.1,0 0.1,-0.1 0.2,-0.1 1.1,-0.8 2.1,-1.6 3.1,-2.5 0.2,-0.2 0.3,-0.3 0.5,-0.3 z m 8.7,-35.6 c 0,0.9 0,2 0,2.9 0,0.5 0,1 -0.1,1.5 -0.1,1.4 -0.3,2.8 -0.5,4 -0.1,0.3 -0.2,0.7 -0.2,1 -0.2,1 -0.5,2.1 -0.8,3 -0.2,0.4 -0.3,1 -0.5,1.4 -0.3,0.9 -0.6,1.7 -1,2.6 l -0.4,0.8 -5.4,0.9 c -3,0.5 -6.2,-0.5 -8.3,-2.8 l -9.7,-9.9 c 0.1,-0.1 0.1,-0.3 0.2,-0.3 l 0.1,-0.2 0.2,-0.4 15.3,-0.3 c 1,0 1.9,-0.1 2.9,-0.3 0.2,0 0.5,-0.1 0.7,-0.2 0.7,-0.2 1.4,-0.4 2,-0.7 0.2,-0.1 0.4,-0.2 0.7,-0.3 0.8,-0.4 1.6,-0.8 2.4,-1.3 0.2,-0.1 0.3,-0.3 0.5,-0.4 0.6,-0.4 1.2,-1 1.7,-1.5 0.1,-0.1 0.2,-0.2 0.3,-0.3 z m -33.9,-1.3 c 0.2,0.2 0.5,0.4 0.7,0.7 0.2,0.2 0.3,0.4 0.4,0.6 0.5,1 0.4,2.4 -0.4,3.3 -0.2,0.3 -0.5,0.6 -0.7,0.8 -1.1,1 -2.6,1 -3.7,0.1 -0.3,-0.2 -0.6,-0.5 -0.7,-0.8 -0.8,-0.8 -0.9,-2.2 -0.5,-3.3 0.1,-0.3 0.2,-0.4 0.4,-0.6 0.2,-0.3 0.4,-0.5 0.6,-0.7 0.2,-0.2 0.4,-0.4 0.6,-0.4 0.8,-0.4 1.7,-0.4 2.5,0 0.3,-0.1 0.6,0.1 0.8,0.3 z m 21,-26.2 c 1.1,1 2.2,2 3.2,3.1 0.2,0.2 0.3,0.3 0.5,0.5 2.2,2.5 4.1,5.4 5.5,8.5 l 0.1,0.2 c 0.8,1.6 1.4,3.2 1.9,5 l -1,2 c -1.6,3.5 -4.9,5.8 -8.7,5.8 l -15.3,0.3 -0.2,-0.5 -0.1,-0.2 -0.2,-0.3 9.4,-10.2 c 0.6,-0.8 1.3,-1.6 1.9,-2.4 l 0.2,-0.4 c 0.5,-0.9 0.9,-1.7 1.3,-2.6 l 0.2,-0.4 c 0.3,-1 0.6,-1.9 0.8,-2.9 v -0.2 c 0.1,-0.9 0.2,-2 0.2,-2.9 0,-0.1 0,-0.2 0,-0.3 v -0.2 c 0,-0.4 0,-0.9 -0.1,-1.3 0,-0.2 0,-0.4 0,-0.6 0.3,-0.2 0.3,-0.1 0.4,0 z m -25.8,-7.9 c -0.2,-0.2 -0.4,-0.4 -0.7,-0.6 1.1,-0.1 2,-0.2 3.1,-0.2 1.3,0 2.6,0 3.9,0.2 0.3,0 0.7,0.1 1,0.2 1,0.2 2,0.3 2.9,0.5 0.4,0.1 0.7,0.2 1.2,0.3 0.8,0.2 1.7,0.5 2.6,0.7 0.4,0.2 0.9,0.3 1.3,0.5 0.7,0.2 1.5,0.6 2.2,1 0.2,0.2 0.6,0.2 0.8,0.4 l 0.8,5.7 c 0.5,3.2 -0.5,6.5 -2.7,8.7 l -9.4,10.2 c -0.1,-0.1 -0.2,-0.1 -0.3,-0.2 l -0.2,-0.1 c -0.2,-0.1 -0.3,-0.2 -0.4,-0.2 l -0.2,-14.3 c 0,-0.7 0,-1.3 -0.1,-2 0,-0.3 -0.1,-0.4 -0.1,-0.7 -0.1,-0.4 -0.1,-0.9 -0.3,-1.3 -0.1,-0.3 -0.2,-0.5 -0.3,-0.8 -0.1,-0.3 -0.2,-0.8 -0.3,-1.1 -0.1,-0.3 -0.2,-0.5 -0.3,-0.8 -0.2,-0.3 -0.3,-0.7 -0.4,-1 -0.2,-0.3 -0.3,-0.5 -0.4,-0.8 -0.2,-0.3 -0.3,-0.6 -0.5,-0.9 -0.2,-0.3 -0.3,-0.5 -0.5,-0.8 -0.2,-0.3 -0.4,-0.6 -0.6,-0.9 -0.2,-0.3 -0.4,-0.4 -0.6,-0.7 -0.2,-0.3 -0.4,-0.5 -0.7,-0.8 -0.4,0.1 -0.6,0 -0.8,-0.2 z m -12.7,16.4 c -0.2,-0.1 -0.3,-0.3 -0.5,-0.3 -0.3,-0.3 -0.7,-0.5 -1.1,-0.8 -0.2,-0.1 -0.4,-0.3 -0.6,-0.3 -0.3,-0.2 -0.7,-0.4 -1.1,-0.6 -0.2,-0.1 -0.5,-0.2 -0.7,-0.2 -0.2,-0.1 -0.7,-0.3 -1.1,-0.4 -0.3,-0.2 -0.5,-0.2 -0.7,-0.2 -0.2,-0.1 -0.7,-0.2 -1.1,-0.2 -0.3,-0.1 -0.5,-0.1 -0.8,-0.2 -0.3,-0.1 -0.7,-0.2 -1.1,-0.2 -0.3,-0.1 -0.6,0 -0.8,0 -0.2,0 -0.7,-0.1 -1.1,-0.1 -0.4,0 -0.6,0.1 -0.8,0.1 -0.2,0 -0.6,0 -0.9,0.1 l 0.2,-0.3 c 0.9,-1.1 1.8,-2.2 2.8,-3.1 l 0.6,-0.5 c 2.3,-2.2 4.8,-4 7.5,-5.5 0.2,-0.1 0.2,-0.2 0.4,-0.2 1.3,-0.7 2.6,-1.2 3.9,-1.8 0.1,0 0.2,-0.1 0.2,-0.1 l 4.4,3.4 c 2.5,1.9 4,4.9 4.1,8.1 l 0.2,14.3 c -0.2,0.1 -0.3,0.2 -0.4,0.2 l -0.2,0.1 c -0.1,0 -0.2,0.1 -0.3,0.2 l -9.7,-9.9 c -0.3,-0.7 -0.7,-1.1 -1.3,-1.6 z m -20.1,23.5 c -0.1,-1.3 -0.1,-2.5 -0.1,-3.8 0,-0.5 0,-0.9 0.1,-1.5 0.1,-1.2 0.2,-2.4 0.4,-3.6 0.1,-0.3 0.1,-0.6 0.2,-0.9 0.2,-1.5 0.6,-3 1,-4.5 0.1,-0.3 0.2,-0.6 0.3,-0.9 0.4,-1.1 0.8,-2.2 1.3,-3.4 l 0.3,-0.7 5.4,-0.9 c 3,-0.5 6.2,0.5 8.3,2.8 l 9.7,9.9 -0.2,0.3 -0.1,0.2 c -0.1,0.2 -0.2,0.3 -0.2,0.5 l -13.6,0.2 c -0.7,0 -1.2,0 -1.9,0.1 -0.2,0 -0.4,0.1 -0.7,0.1 -0.4,0.1 -0.8,0.2 -1.2,0.3 -0.2,0.1 -0.5,0.2 -0.7,0.3 -0.3,0.1 -0.7,0.2 -1.1,0.4 -0.2,0.1 -0.5,0.3 -0.7,0.4 -0.2,0.1 -0.7,0.3 -1,0.4 -0.3,0.2 -0.5,0.3 -0.7,0.4 -0.2,0.1 -0.6,0.4 -0.9,0.5 -0.3,0.2 -0.5,0.4 -0.7,0.5 -0.2,0.2 -0.6,0.4 -0.8,0.6 -0.2,0.3 -0.4,0.4 -0.6,0.6 -0.2,0.2 -0.5,0.4 -0.7,0.7 -0.2,0.3 -0.4,0.4 -0.6,0.7 -0.2,0.3 -0.4,0.4 -0.6,0.7 0.1,0.1 0.1,-0.1 0.1,-0.4 z m 12.7,25.7 c -1,-0.9 -2,-1.9 -2.9,-2.9 l -0.6,-0.6 c -2.1,-2.4 -3.8,-5 -5.2,-7.8 l -0.3,-0.4 c -0.7,-1.4 -1.2,-2.7 -1.7,-4.1 0,-0.1 -0.1,-0.2 -0.1,-0.3 l 3.2,-4.6 c 1.8,-2.6 4.7,-4.2 7.7,-4.3 l 13.5,-0.2 c 0.1,0.2 0.1,0.3 0.2,0.4 l 0.1,0.2 c 0.1,0.1 0.1,0.3 0.2,0.3 l -9.4,10.2 c -0.6,0.8 -1.3,1.6 -1.9,2.4 l -0.2,0.3 c -0.5,0.9 -0.9,1.7 -1.3,2.6 l -0.2,0.4 c -0.3,1 -0.6,1.9 -0.8,2.9 v 0.3 c -0.1,0.9 -0.2,2 -0.2,3 v 0.2 c 0,0.7 0,1.4 0.2,2.1 0,0.1 -0.2,0 -0.3,-0.1 z m 25.9,7.9 c 0.2,0.2 0.4,0.4 0.7,0.6 -1,0.1 -2,0.2 -3,0.2 -1.3,0 -2.6,0 -3.9,-0.2 -0.3,0 -0.7,-0.1 -1,-0.2 -1,-0.2 -1.9,-0.2 -2.9,-0.5 -0.4,-0.1 -0.8,-0.2 -1.2,-0.3 -0.8,-0.2 -1.7,-0.5 -2.6,-0.7 -0.4,-0.2 -0.9,-0.3 -1.3,-0.5 -0.7,-0.2 -1.5,-0.6 -2.2,-0.9 l -0.8,-0.4 -0.8,-5.7 c -0.5,-3.2 0.5,-6.5 2.7,-8.7 l 9.5,-10.2 c 0.1,0.1 0.2,0.1 0.3,0.2 l 0.2,0.1 c 0.2,0.1 0.3,0.2 0.5,0.2 l 0.2,14.3 c 0,0.7 0,1.3 0.1,2 0,0.3 0.1,0.4 0.1,0.7 0.1,0.4 0.2,0.9 0.3,1.3 0.1,0.3 0.2,0.5 0.3,0.8 0.1,0.3 0.2,0.8 0.3,1.1 0.1,0.3 0.3,0.5 0.3,0.8 0,0.3 0.3,0.7 0.4,1 0.2,0.3 0.3,0.5 0.4,0.8 0.1,0.3 0.3,0.6 0.5,0.9 0.2,0.3 0.3,0.5 0.5,0.8 0.2,0.3 0.4,0.6 0.6,0.9 0.2,0.3 0.4,0.4 0.6,0.7 0.2,0.3 0.4,0.5 0.7,0.8 0.2,-0.1 0.3,0 0.5,0.1 z m 9.1,-1.3 -4.4,-3.4 c -2.5,-1.9 -4,-4.9 -4.1,-8.1 l -0.2,-14.3 c 0.2,-0.1 0.3,-0.2 0.5,-0.2 l 0.2,-0.1 c 0.1,-0.1 0.2,-0.1 0.3,-0.2 l 9.7,9.9 c 0.4,0.4 0.9,0.9 1.4,1.3 0.2,0.2 0.4,0.3 0.6,0.4 0.3,0.3 0.7,0.5 1,0.7 0.3,0.2 0.5,0.2 0.7,0.4 0.2,0.2 0.7,0.3 1,0.5 0.3,0.2 0.5,0.2 0.7,0.3 0.2,0.1 0.7,0.2 1,0.4 0.3,0.1 0.5,0.2 0.8,0.2 0.3,0.1 0.7,0.2 1,0.2 0.3,0.1 0.6,0.1 0.8,0.2 0.2,0.1 0.7,0.2 1,0.2 0.3,0 0.6,0 0.8,0 0.2,0 0.7,0 1.1,0 0.3,-0.1 0.6,-0.1 0.8,-0.1 0.2,0 0.6,0 0.9,-0.1 l -0.2,0.3 c -0.9,1 -1.8,2.1 -2.7,3.1 -0.2,0.2 -0.4,0.4 -0.6,0.6 -2.3,2.2 -4.8,4 -7.5,5.5 -0.2,0.1 -0.2,0.2 -0.4,0.3 -1.3,0.7 -2.6,1.2 -3.9,1.8 -0.1,0 -0.1,0 -0.3,0.2 z"
   id="path132"
   inkscape:connector-curvature="0"
   style="fill:#020202" />
	<path
   class="st5"
   d="m 1611.4,720 0.1,6.8 -6.6,0.1 -0.1,-6.8 z"
   id="path134"
   inkscape:connector-curvature="0"
   style="fill:#020202" />
	<path
   class="st5"
   d="m 1476.6,865.8 0.1,6.9 -6.6,0.1 -0.1,-6.9 z"
   id="path136"
   inkscape:connector-curvature="0"
   style="fill:#020202" />
	<path
   class="st5"
   d="m 1609.3,795.2 6.6,-0.1 c -0.7,-43.4 -34.8,-78 -76.1,-77.3 l 0.1,6.9 c 37.6,-0.7 68.7,31 69.4,70.5 z"
   id="path138"
   inkscape:connector-curvature="0"
   style="fill:#020202" />
	<path
   class="st5"
   d="m 1615.9,802 0.1,6.9 -6.6,0.1 -0.1,-6.9 z"
   id="path140"
   inkscape:connector-curvature="0"
   style="fill:#020202" />
</g>
<rect
   x="650.5"
   y="491.59998"
   class="st11"
   width="536.40002"
   height="53.099998"
   id="rect143"
   style="fill:#c7c9c7" />
<polygon
   class="st11"
   points="657.3,987.9 657.1,927.5 702.6,927.4 702.8,987.8 "
   id="polygon145"
   style="fill:#c7c9c7"
   transform="translate(-236.4,-211)" />
<path
   class="st12"
   d="m 803,404 c 0,-27.7 -21.3,-50 -47.7,-50 -26.4,0 -47.7,22.3 -47.7,50 0,27.7 21.3,50 47.7,50 26.4,0 47.7,-22.4 47.7,-50"
   id="path147"
   inkscape:connector-curvature="0"
   style="fill:#e8edee" />
<path
   class="st13"
   d="m 788.3,404 c 0,-19.2 -14.7,-34.6 -33,-34.6 -18.3,0 -33,15.4 -33,34.6 0,19.2 14.7,34.6 33,34.6 18.3,0 33,-15.4 33,-34.6"
   id="path149"
   inkscape:connector-curvature="0"
   style="fill:#ffffff" />
<path
   class="st14"
   d="m 732.6,429 c 5.9,5.8 13.9,9.6 22.7,9.6 8.8,0 16.9,-3.8 22.7,-9.6 -5.9,-5.8 -13.9,-9.6 -22.7,-9.6 -8.8,-0.1 -16.8,3.8 -22.7,9.6"
   id="path151"
   inkscape:connector-curvature="0"
   style="fill:#e15649" />
<path
   class="st15"
   d="m 755.3,407.8 c -1.1,0 -1.8,-0.4 -2.6,-1.2 -1.5,-1.5 -1.5,-3.8 0,-5.4 l 11,-11.5 c 1.5,-1.5 3.7,-1.5 5.1,0 1.5,1.5 1.5,3.8 0,5.4 l -11,11.5 c -0.6,0.8 -1.4,1.2 -2.5,1.2"
   id="path153"
   inkscape:connector-curvature="0"
   style="fill:#556080" />
<path
   class="st16"
   d="m 755.3,454.2 c -3.7,0 -7.3,-0.5 -11,-1.8 v 29.1 h 22 v -29.1 c -3.6,1.4 -7.3,1.8 -11,1.8"
   id="path155"
   inkscape:connector-curvature="0"
   style="fill:#c7cbc7" />
<g
   id="g163"
   transform="translate(-236.4,-211)">
	<path
   class="st15"
   d="m 1024.4,611.1 h -7 c -2.2,0 -3.7,1.5 -3.7,3.8 0,2.3 1.5,3.8 3.7,3.8 h 7 c 0,-1.2 0.4,-2.7 0.4,-3.8 -0.1,-1.1 -0.1,-2.6 -0.4,-3.8"
   id="path157"
   inkscape:connector-curvature="0"
   style="fill:#556080" />
	<path
   class="st15"
   d="m 991.7,580.4 c -1.1,0 -2.6,0 -3.7,0.4 v 7.3 c 0,2.3 1.5,3.8 3.7,3.8 2.2,0 3.7,-1.5 3.7,-3.8 v -7.3 c -1.1,-0.4 -2.6,-0.4 -3.7,-0.4"
   id="path159"
   inkscape:connector-curvature="0"
   style="fill:#556080" />
	<path
   class="st15"
   d="m 966.1,611.1 h -7 c 0,1.2 -0.4,2.7 -0.4,3.8 0,1.2 0,2.7 0.4,3.8 h 7 c 2.2,0 3.7,-1.5 3.7,-3.8 0,-2.3 -1.5,-3.8 -3.7,-3.8"
   id="path161"
   inkscape:connector-curvature="0"
   style="fill:#556080" />
</g>
<g
   id="g167"
   transform="translate(-236.4,-211)">
	<path
   class="st17"
   d="m 1017.4,761.7 h -51.3 c -4,0 -7.3,-3.5 -7.3,-7.7 v -53.8 c 0,-4.2 3.3,-7.7 7.3,-7.7 h 51.3 c 4,0 7.3,3.5 7.3,7.7 V 754 c 0,4.2 -3.3,7.7 -7.3,7.7"
   id="path165"
   inkscape:connector-curvature="0"
   style="fill:#949493" />
</g>
<path
   class="st12"
   d="m 1127.6,406.3 c 0,-27.7 -21.3,-50 -47.7,-50 -26.4,0 -47.7,22.3 -47.7,50 0,27.7 21.3,50 47.7,50 26.4,0 47.7,-22.4 47.7,-50"
   id="path169"
   inkscape:connector-curvature="0"
   style="fill:#e8edee" />
<path
   class="st13"
   d="m 1112.9,406.3 c 0,-19.2 -14.7,-34.6 -33,-34.6 -18.3,0 -33,15.4 -33,34.6 0,19.2 14.7,34.6 33,34.6 18.3,0 33,-15.4 33,-34.6"
   id="path171"
   inkscape:connector-curvature="0"
   style="fill:#ffffff" />
<path
   class="st14"
   d="m 1057.2,431.3 c 5.9,5.8 13.9,9.6 22.7,9.6 8.8,0 16.9,-3.8 22.7,-9.6 -5.9,-5.8 -13.9,-9.6 -22.7,-9.6 -8.8,0 -16.9,3.8 -22.7,9.6"
   id="path173"
   inkscape:connector-curvature="0"
   style="fill:#e15649" />
<path
   class="st15"
   d="m 1079.9,410.1 c -1.1,0 -1.8,-0.4 -2.6,-1.2 -1.5,-1.5 -1.5,-3.8 0,-5.4 l 11,-11.5 c 1.5,-1.5 3.7,-1.5 5.1,0 1.4,1.5 1.5,3.8 0,5.4 l -11,11.5 c -0.7,0.8 -1.4,1.2 -2.5,1.2"
   id="path175"
   inkscape:connector-curvature="0"
   style="fill:#556080" />
<path
   class="st16"
   d="m 1079.9,456.6 c -3.7,0 -7.3,-0.5 -11,-1.9 v 29.7 h 22 v -29.7 c -3.7,1.4 -7.3,1.9 -11,1.9"
   id="path177"
   inkscape:connector-curvature="0"
   style="fill:#c7cbc7" />
<g
   id="g185"
   transform="translate(-236.4,-211)">
	<path
   class="st15"
   d="m 1348.9,613.4 h -7 c -2.2,0 -3.7,1.5 -3.7,3.8 0,2.3 1.5,3.8 3.7,3.8 h 7 c 0,-1.2 0.4,-2.7 0.4,-3.8 0,-1.1 0,-2.6 -0.4,-3.8"
   id="path179"
   inkscape:connector-curvature="0"
   style="fill:#556080" />
	<path
   class="st15"
   d="m 1316.3,582.7 c -1.1,0 -2.6,0 -3.7,0.4 v 7.3 c 0,2.3 1.5,3.8 3.7,3.8 2.2,0 3.7,-1.5 3.7,-3.8 v -7.3 c -1.1,-0.4 -2.6,-0.4 -3.7,-0.4"
   id="path181"
   inkscape:connector-curvature="0"
   style="fill:#556080" />
	<path
   class="st15"
   d="m 1290.6,613.4 h -7 c 0,1.2 -0.4,2.7 -0.4,3.8 0,1.2 0,2.7 0.4,3.8 h 7 c 2.2,0 3.7,-1.5 3.7,-3.8 0,-2.3 -1.5,-3.8 -3.7,-3.8"
   id="path183"
   inkscape:connector-curvature="0"
   style="fill:#556080" />
</g>
<g
   id="g189"
   transform="translate(-236.4,-211)">
	<path
   class="st17"
   d="m 1342,762.9 h -51.3 c -4,0 -7.3,-3.5 -7.3,-7.7 v -53.8 c 0,-4.2 3.3,-7.7 7.3,-7.7 h 51.3 c 4,0 7.3,3.5 7.3,7.7 v 53.8 c 0,4.2 -3.3,7.7 -7.3,7.7"
   id="path187"
   inkscape:connector-curvature="0"
   style="fill:#949493" />
</g>
<g
   id="Layer_4_2_"
   transform="translate(-236.4,-211)">
	<g
   id="Layer_2_4_">
		<rect
   x="856.29999"
   y="688.59998"
   class="st18"
   width="21.5"
   height="82.5"
   id="rect191"
   style="fill:#afb7bc" />
		<rect
   x="876.79999"
   y="699.09998"
   class="st11"
   width="10.7"
   height="60"
   id="rect193"
   style="fill:#c7c9c7" />
		<rect
   x="845.70001"
   y="700.20001"
   class="st18"
   width="24.6"
   height="61.799999"
   id="rect195"
   style="fill:#afb7bc" />
	</g>
</g>
<polygon
   class="st6"
   points="2864.3,471 2411.6,469 2363.6,435.2 2364.5,211 2912.5,213.3 2911.7,437.5 "
   id="polygon199"
   style="fill:#ede9e8"
   transform="translate(-236.4,-211)" />
<polygon
   class="st7"
   points="2864.3,471 2653.6,470.1 2654.6,212.2 2912.5,213.3 2911.7,437.5 "
   id="polygon201"
   style="fill:#dfd7d5"
   transform="translate(-236.4,-211)" />
<path
   class="st8"
   d="m 2675.3,226.5 -0.3,84.2 -37.1,30.1 -474.2,-2 -36.8,-30.5 0.3,-84.2 c 1.3,1 2.2,2 3.5,2.7 11.2,5.4 24.7,3.1 33.4,-5.9 23.9,-25.1 64.1,-25 87.8,0.4 11.5,12.2 30.1,12.2 41.8,0.2 23.9,-25.1 63,-25 86.7,0.4 9.9,10.5 25.3,11.9 36.9,4.5 1.6,-1.3 3.2,-2.7 4.8,-4.4 23.9,-25.1 63,-25 86.7,0.4 11.2,11.8 30.5,11.9 41.8,0.2 23.9,-25.1 64.1,-25 87.8,0.4 8,8.5 19.9,11.2 30.5,7.5 2.5,-1 4.4,-2.6 6.4,-4 z"
   id="path203"
   inkscape:connector-curvature="0"
   style="fill:#8fe1ff" />
<g
   id="g209"
   transform="translate(-236.4,-211)">
	<path
   class="st9"
   d="m 2911.7,437.5 -0.3,84.2 -37.1,30.1 -221.1,-0.9 0.4,-113.5 c 1.6,-1.3 3.2,-2.7 4.8,-4.4 23.9,-25.1 63,-25 86.7,0.4 11.2,11.8 30.5,11.9 41.8,0.2 23.9,-25.1 64.1,-25 87.8,0.4 8,8.5 19.9,11.2 30.5,7.5 2.6,-1 4.5,-2.6 6.5,-4 z"
   id="path205"
   inkscape:connector-curvature="0"
   style="fill:#73bcff" />
	<path
   class="st9"
   d="m 2911.3,521.7 c 0,0 -0.4,90.9 -0.4,95.6 l -548.1,-2.4 c 0,0 0.4,-90.2 0.4,-95.6 1.3,1 2.2,2 3.5,2.7 11.2,5.4 24.7,3.1 33.4,-5.9 23.9,-25.1 64.1,-25 87.8,0.4 11.5,12.2 30.1,12.2 41.8,0.2 23.9,-25.1 63,-25 86.7,0.4 9.9,10.5 25.3,11.9 36.9,4.5 1.6,-1.3 3.2,-2.7 4.8,-4.4 23.9,-25.1 63,-25 86.7,0.4 11.2,11.8 30.5,11.9 41.8,0.2 23.9,-25.1 64.1,-25 87.8,0.4 8,8.5 19.9,11.2 30.5,7.5 2.6,-1 4.5,-2.7 6.4,-4 z"
   id="path207"
   inkscape:connector-curvature="0"
   style="fill:#73bcff" />
</g>
<path
   class="st10"
   d="m 2674.9,310.7 c 0,0 -0.4,90.9 -0.4,95.6 l -258,-1.1 0.4,-94.6 c 1.6,-1.3 3.2,-2.7 4.8,-4.4 23.9,-25.1 63,-25 86.7,0.4 11.2,11.8 30.5,11.9 41.8,0.2 23.9,-25.1 64.1,-25 87.8,0.4 8,8.5 19.9,11.2 30.5,7.5 2.6,-1 4.5,-2.7 6.4,-4 z"
   id="path211"
   inkscape:connector-curvature="0"
   style="fill:#3a96ff" />
<rect
   x="404.69998"
   y="696.79999"
   class="st18"
   width="78.699997"
   height="22.4"
   id="rect213"
   style="fill:#afb7bc" />
<g
   id="Layer_4_6_"
   transform="translate(-236.4,-211)">
	<g
   id="Layer_2_1_">
		<rect
   x="1410.2"
   y="687.40002"
   class="st18"
   width="21.5"
   height="82.5"
   id="rect215"
   style="fill:#afb7bc" />
		<rect
   x="1430.8"
   y="697.90002"
   class="st11"
   width="10.7"
   height="60"
   id="rect217"
   style="fill:#c7c9c7" />
		<rect
   x="1399.6"
   y="699.09998"
   class="st18"
   width="24.6"
   height="61.799999"
   id="rect219"
   style="fill:#afb7bc" />
	</g>
</g>
<polygon
   class="st6"
   points="1617.6,1189.3 1203.7,1190.2 1159.6,1162.5 1159.1,977.5 1660.2,976.5 1660.7,1161.5 "
   id="polygon223"
   style="fill:#ede9e8"
   transform="translate(-236.4,-211)" />
<polygon
   class="st7"
   points="1617.6,1189.3 1424.9,1189.7 1424.4,977 1660.2,976.5 1660.7,1161.5 "
   id="polygon225"
   style="fill:#dfd7d5"
   transform="translate(-236.4,-211)" />
<path
   class="st8"
   d="m 1424.3,950.5 0.2,69.4 -33.7,25.1 -433.6,0.9 -33.8,-24.9 -0.2,-69.4 c 1.2,0.8 2.1,1.7 3.2,2.2 10.3,4.4 22.6,2.5 30.5,-5.1 21.7,-20.9 58.5,-21 80.3,-0.2 10.6,10 27.6,9.9 38.2,-0.1 21.7,-20.9 57.5,-21 79.3,-0.2 9.1,8.6 23.2,9.7 33.8,3.5 1.5,-1.1 2.9,-2.2 4.4,-3.6 21.7,-20.9 57.5,-21 79.3,-0.2 10.3,9.7 27.9,9.7 38.2,-0.1 21.7,-20.9 58.5,-21 80.3,-0.2 7.4,6.9 18.2,9.1 27.9,6.1 2.2,-0.7 3.9,-2.1 5.7,-3.2 z"
   id="path227"
   inkscape:connector-curvature="0"
   style="fill:#8fe1ff" />
<g
   id="g233"
   transform="translate(-236.4,-211)">
	<path
   class="st9"
   d="m 1660.7,1161.5 0.2,69.4 -33.7,25.1 -202.1,0.4 -0.2,-93.6 c 1.5,-1.1 2.9,-2.2 4.4,-3.6 21.7,-20.9 57.5,-21 79.3,-0.2 10.3,9.7 27.9,9.7 38.2,-0.1 21.7,-20.9 58.5,-21 80.3,-0.2 7.4,6.9 18.2,9.1 27.9,6.1 2.2,-0.8 3.9,-2.2 5.7,-3.3 z"
   id="path229"
   inkscape:connector-curvature="0"
   style="fill:#73bcff" />
	<path
   class="st9"
   d="m 1660.8,1230.9 c 0,0 0.2,75 0.2,78.9 l -501.1,1 c 0,0 -0.2,-74.4 -0.2,-78.9 1.2,0.8 2.1,1.7 3.2,2.2 10.3,4.4 22.6,2.5 30.5,-5.1 21.7,-20.9 58.5,-21 80.3,-0.2 10.6,10 27.6,9.9 38.2,-0.1 21.7,-20.9 57.5,-21 79.3,-0.2 9.1,8.6 23.2,9.7 33.8,3.5 1.5,-1.1 2.9,-2.2 4.4,-3.6 21.7,-20.9 57.5,-21 79.3,-0.2 10.3,9.7 27.9,9.7 38.2,-0.1 21.7,-20.9 58.5,-21 80.3,-0.2 7.4,6.9 18.2,9.1 27.9,6.1 2.2,-0.6 4,-2 5.7,-3.1 z"
   id="path231"
   inkscape:connector-curvature="0"
   style="fill:#73bcff" />
</g>
<path
   class="st10"
   d="m 1424.4,1019.9 c 0,0 0.2,75 0.2,78.9 l -235.9,0.5 -0.2,-78.1 c 1.5,-1.1 2.9,-2.2 4.4,-3.6 21.7,-20.9 57.5,-21 79.3,-0.2 10.3,9.7 27.9,9.7 38.2,-0.1 21.7,-20.9 58.5,-21 80.3,-0.2 7.4,6.9 18.2,9.1 27.9,6.1 2.3,-0.8 4.1,-2.2 5.8,-3.3 z"
   id="path235"
   inkscape:connector-curvature="0"
   style="fill:#3a96ff" />
<polygon
   class="st11"
   points="1580,977.8 1579.9,921.2 1625.4,921.1 1625.6,977.7 "
   id="polygon237"
   style="fill:#c7c9c7"
   transform="translate(-236.4,-211)" />
<rect
   x="1327.4"
   y="694.09998"
   class="st18"
   width="78.699997"
   height="18.5"
   id="rect239"
   style="fill:#afb7bc" />
<rect
   x="1045.7999"
   y="133.60001"
   class="st11"
   width="1081.7"
   height="59.700001"
   id="rect241"
   style="fill:#c7c9c7" />
<rect
   x="903.5321"
   y="215.92743"
   transform="rotate(-0.13689253)"
   class="st11"
   width="55.600159"
   height="299.60086"
   id="rect243"
   style="fill:#c7c9c7;stroke-width:1.00000286" />
<path
   class="st11"
   d="m 961,206.4 v 61.7 h -59.1 v -83.9 c 0,-28 22.5,-50.7 50,-50.7 h 93.9 v 59.8 h -72.1 c -7.1,0.1 -12.7,5.9 -12.7,13.1 z"
   id="path245"
   inkscape:connector-curvature="0"
   style="fill:#c7c9c7" />
<g
   id="g275"
   transform="translate(-236.4,-211)">
	<path
   d="m 2431.4,649.7 c -1.3,-1.9 -2.9,-3.3 -4.9,-4.3 -2,-1 -4,-1.5 -6.2,-1.5 -2.6,0 -4.9,0.5 -7,1.6 -2.1,1.1 -3.9,2.6 -5.4,4.4 -1.5,1.8 -2.6,4.1 -3.5,6.6 -0.8,2.5 -1.2,5.2 -1.2,8.1 0,2.7 0.4,5.2 1.2,7.6 0.8,2.4 1.9,4.5 3.4,6.3 1.5,1.8 3.3,3.3 5.4,4.3 2.1,1.1 4.5,1.6 7.2,1.6 2.6,0 4.9,-0.6 6.9,-1.8 2,-1.2 3.7,-2.9 5.1,-5 l 5.2,4.4 c -0.3,0.5 -1,1.3 -1.8,2.3 -0.9,1 -2,2 -3.4,3 -1.4,1 -3.1,1.8 -5.2,2.6 -2,0.7 -4.3,1.1 -7,1.1 -3.6,0 -6.9,-0.8 -9.8,-2.3 -2.9,-1.5 -5.4,-3.6 -7.5,-6 -2.1,-2.5 -3.6,-5.3 -4.7,-8.5 -1.1,-3.1 -1.6,-6.3 -1.6,-9.5 0,-3.9 0.6,-7.6 1.8,-10.9 1.2,-3.3 2.8,-6.2 4.9,-8.6 2.1,-2.4 4.6,-4.3 7.5,-5.7 2.9,-1.4 6.2,-2 9.7,-2 3,0 6,0.6 8.9,1.9 2.9,1.3 5.3,3.3 7.2,6 z"
   id="path247"
   inkscape:connector-curvature="0" />
	<path
   d="m 2442.1,672.6 c 0,-2.5 0.4,-4.8 1.3,-7 0.8,-2.2 2,-4.1 3.5,-5.7 1.5,-1.6 3.2,-2.9 5.2,-3.9 2,-0.9 4.1,-1.4 6.4,-1.4 2.3,0 4.4,0.5 6.4,1.4 2,0.9 3.7,2.2 5.2,3.9 1.5,1.6 2.6,3.5 3.5,5.7 0.8,2.2 1.3,4.5 1.3,7 0,2.5 -0.4,4.8 -1.3,7 -0.8,2.2 -2,4.1 -3.5,5.7 -1.5,1.6 -3.2,2.9 -5.2,3.8 -2,0.9 -4.1,1.4 -6.4,1.4 -2.3,0 -4.4,-0.5 -6.4,-1.4 -2,-0.9 -3.7,-2.2 -5.2,-3.8 -1.5,-1.6 -2.6,-3.5 -3.5,-5.7 -0.9,-2.2 -1.3,-4.5 -1.3,-7 z m 6.2,0 c 0,1.7 0.2,3.3 0.7,4.8 0.5,1.5 1.1,2.7 2,3.7 0.9,1 1.9,1.8 3.2,2.4 1.3,0.6 2.7,0.9 4.2,0.9 1.6,0 3,-0.3 4.2,-0.9 1.3,-0.6 2.3,-1.4 3.2,-2.4 0.9,-1 1.5,-2.3 2,-3.7 0.5,-1.5 0.7,-3.1 0.7,-4.8 0,-1.7 -0.2,-3.3 -0.7,-4.8 -0.5,-1.5 -1.1,-2.7 -2,-3.7 -0.9,-1 -1.9,-1.8 -3.2,-2.4 -1.3,-0.6 -2.7,-0.9 -4.2,-0.9 -1.6,0 -3,0.3 -4.2,0.9 -1.3,0.6 -2.3,1.4 -3.2,2.4 -0.9,1 -1.5,2.3 -2,3.7 -0.4,1.4 -0.7,3 -0.7,4.8 z"
   id="path249"
   inkscape:connector-curvature="0" />
	<path
   d="m 2482.5,635.2 h 5.8 v 54.4 h -5.8 z"
   id="path251"
   inkscape:connector-curvature="0" />
	<path
   d="m 2498.1,635.2 h 5.8 v 54.4 h -5.8 z"
   id="path253"
   inkscape:connector-curvature="0" />
	<path
   d="m 2517.6,674.9 c 0,1.5 0.3,2.8 0.9,4.1 0.6,1.2 1.3,2.3 2.3,3.1 0.9,0.9 2.1,1.5 3.3,2 1.3,0.5 2.5,0.7 3.9,0.7 1.8,0 3.4,-0.5 4.7,-1.4 1.3,-0.9 2.6,-2.2 3.7,-3.7 l 4.4,3.7 c -3.2,4.7 -7.8,7 -13.6,7 -2.4,0 -4.6,-0.5 -6.6,-1.4 -2,-0.9 -3.6,-2.2 -5,-3.8 -1.4,-1.6 -2.4,-3.5 -3.1,-5.7 -0.7,-2.2 -1.1,-4.5 -1.1,-7.1 0,-2.5 0.4,-4.9 1.2,-7.1 0.8,-2.2 1.9,-4.1 3.3,-5.7 1.4,-1.6 3.1,-2.9 5,-3.8 1.9,-0.9 4.1,-1.4 6.4,-1.4 2.7,0 5,0.5 6.9,1.6 1.9,1.1 3.4,2.4 4.6,4.1 1.2,1.7 2.1,3.6 2.6,5.8 0.5,2.1 0.8,4.3 0.8,6.5 v 2.3 h -24.6 z m 18.4,-5.2 c 0,-1.4 -0.2,-2.8 -0.6,-4 -0.4,-1.2 -0.9,-2.2 -1.7,-3.1 -0.7,-0.9 -1.7,-1.6 -2.8,-2.1 -1.1,-0.5 -2.4,-0.8 -3.9,-0.8 -1.4,0 -2.7,0.3 -3.9,0.9 -1.2,0.6 -2.2,1.4 -3,2.3 -0.8,1 -1.5,2 -1.9,3.2 -0.5,1.2 -0.7,2.3 -0.7,3.5 h 18.5 z"
   id="path255"
   inkscape:connector-curvature="0" />
	<path
   d="m 2571.2,664.6 c -1.1,-1.2 -2.2,-2.2 -3.4,-2.8 -1.2,-0.6 -2.6,-1 -4.2,-1 -1.6,0 -3,0.3 -4.2,1 -1.2,0.6 -2.2,1.5 -3,2.7 -0.8,1.1 -1.4,2.4 -1.8,3.9 -0.4,1.5 -0.6,3 -0.6,4.6 0,1.6 0.2,3.1 0.7,4.5 0.5,1.4 1.1,2.7 2,3.7 0.9,1.1 1.9,1.9 3.1,2.5 1.2,0.6 2.6,0.9 4.1,0.9 1.6,0 3,-0.3 4.2,-1 1.2,-0.6 2.2,-1.6 3.2,-2.8 l 4.1,4.6 c -1.5,1.9 -3.3,3.2 -5.3,4 -2,0.8 -4.1,1.2 -6.4,1.2 -2.4,0 -4.5,-0.4 -6.5,-1.3 -2,-0.9 -3.7,-2.1 -5.1,-3.6 -1.4,-1.6 -2.5,-3.4 -3.3,-5.6 -0.8,-2.2 -1.2,-4.6 -1.2,-7.2 0,-2.6 0.4,-5.1 1.2,-7.3 0.8,-2.2 1.9,-4.1 3.3,-5.7 1.4,-1.6 3.1,-2.8 5.1,-3.7 2,-0.9 4.2,-1.3 6.6,-1.3 2.2,0 4.4,0.4 6.4,1.3 2.1,0.9 3.8,2.2 5.3,4.1 z"
   id="path257"
   inkscape:connector-curvature="0" />
	<path
   d="m 2596.9,661.1 h -8.4 v 15.5 c 0,1 0,1.9 0.1,2.8 0,0.9 0.2,1.8 0.5,2.5 0.3,0.7 0.7,1.3 1.3,1.8 0.6,0.5 1.4,0.7 2.6,0.7 0.7,0 1.4,-0.1 2.1,-0.2 0.7,-0.1 1.4,-0.4 2,-0.8 v 5.9 c -0.7,0.4 -1.6,0.7 -2.7,0.9 -1.1,0.2 -2,0.3 -2.6,0.3 -2.2,0 -4,-0.3 -5.2,-1 -1.2,-0.7 -2.1,-1.6 -2.7,-2.7 -0.6,-1.1 -0.9,-2.3 -1,-3.7 -0.1,-1.4 -0.2,-2.7 -0.2,-4.1 v -17.8 h -6.7 v -5.6 h 6.7 V 646 h 5.8 v 9.6 h 8.4 z"
   id="path259"
   inkscape:connector-curvature="0" />
	<path
   d="m 2603.5,643.3 c 0,-1.3 0.4,-2.4 1.3,-3.3 0.8,-0.9 1.8,-1.4 3,-1.4 1.2,0 2.2,0.5 3,1.4 0.8,0.9 1.3,2.1 1.3,3.3 0,1.2 -0.4,2.4 -1.3,3.3 -0.8,0.9 -1.8,1.4 -3,1.4 -1.2,0 -2.2,-0.5 -3,-1.4 -0.9,-0.9 -1.3,-2.1 -1.3,-3.3 z m 1.4,12.2 h 5.8 v 34.1 h -5.8 z"
   id="path261"
   inkscape:connector-curvature="0" />
	<path
   d="m 2618.5,672.6 c 0,-2.5 0.4,-4.8 1.3,-7 0.8,-2.2 2,-4.1 3.5,-5.7 1.5,-1.6 3.2,-2.9 5.2,-3.9 2,-0.9 4.1,-1.4 6.4,-1.4 2.3,0 4.4,0.5 6.4,1.4 2,0.9 3.7,2.2 5.2,3.9 1.5,1.6 2.6,3.5 3.5,5.7 0.8,2.2 1.3,4.5 1.3,7 0,2.5 -0.4,4.8 -1.3,7 -0.8,2.2 -2,4.1 -3.5,5.7 -1.5,1.6 -3.2,2.9 -5.2,3.8 -2,0.9 -4.1,1.4 -6.4,1.4 -2.3,0 -4.4,-0.5 -6.4,-1.4 -2,-0.9 -3.7,-2.2 -5.2,-3.8 -1.5,-1.6 -2.6,-3.5 -3.5,-5.7 -0.9,-2.2 -1.3,-4.5 -1.3,-7 z m 6.2,0 c 0,1.7 0.2,3.3 0.7,4.8 0.5,1.5 1.1,2.7 2,3.7 0.9,1 1.9,1.8 3.2,2.4 1.3,0.6 2.7,0.9 4.2,0.9 1.6,0 3,-0.3 4.2,-0.9 1.3,-0.6 2.3,-1.4 3.2,-2.4 0.9,-1 1.5,-2.3 2,-3.7 0.5,-1.5 0.7,-3.1 0.7,-4.8 0,-1.7 -0.2,-3.3 -0.7,-4.8 -0.5,-1.5 -1.1,-2.7 -2,-3.7 -0.9,-1 -1.9,-1.8 -3.2,-2.4 -1.3,-0.6 -2.7,-0.9 -4.2,-0.9 -1.6,0 -3,0.3 -4.2,0.9 -1.3,0.6 -2.3,1.4 -3.2,2.4 -0.9,1 -1.5,2.3 -2,3.7 -0.5,1.4 -0.7,3 -0.7,4.8 z"
   id="path263"
   inkscape:connector-curvature="0" />
	<path
   d="m 2658.4,655.5 h 5.8 v 5.3 h 0.1 c 0.7,-1.8 2,-3.3 3.8,-4.4 1.8,-1.1 3.9,-1.7 6.3,-1.7 1.5,0 2.9,0.3 4.2,0.8 1.4,0.5 2.5,1.3 3.6,2.3 1,1.1 1.8,2.4 2.4,4.1 0.6,1.7 0.9,3.6 0.9,5.9 v 22 h -5.8 v -20.2 c 0,-1.6 -0.2,-2.9 -0.6,-4.1 -0.4,-1.2 -0.9,-2 -1.6,-2.7 -0.6,-0.7 -1.4,-1.2 -2.2,-1.5 -0.8,-0.3 -1.7,-0.5 -2.6,-0.5 -1.2,0 -2.3,0.2 -3.4,0.6 -1,0.4 -1.9,1.1 -2.7,2.1 -0.8,0.9 -1.4,2.1 -1.8,3.6 -0.4,1.4 -0.6,3.1 -0.6,5.1 v 17.6 h -5.8 z"
   id="path265"
   inkscape:connector-curvature="0" />
	<path
   d="m 2715.3,679 c 1.1,1.9 2.6,3.3 4.3,4.1 1.7,0.9 3.6,1.3 5.4,1.3 1,0 2.1,-0.2 3.2,-0.5 1.1,-0.4 2.1,-0.9 2.9,-1.6 0.9,-0.7 1.6,-1.6 2.2,-2.7 0.6,-1.1 0.8,-2.3 0.8,-3.7 0,-2 -0.6,-3.5 -1.7,-4.5 -1.1,-1 -2.5,-1.9 -4.2,-2.6 -1.7,-0.7 -3.5,-1.4 -5.4,-2 -2,-0.6 -3.8,-1.5 -5.4,-2.7 -1.7,-1.2 -3.1,-2.7 -4.2,-4.6 -1.1,-1.9 -1.7,-4.6 -1.7,-7.9 0,-1.5 0.3,-3.1 0.9,-4.8 0.6,-1.7 1.5,-3.2 2.8,-4.6 1.3,-1.4 2.9,-2.6 4.8,-3.5 2,-0.9 4.3,-1.4 7.1,-1.4 2.5,0 4.9,0.4 7.2,1.2 2.3,0.8 4.3,2.3 6,4.7 l -5.1,5.1 c -0.8,-1.3 -1.9,-2.4 -3.3,-3.2 -1.4,-0.8 -3,-1.2 -4.9,-1.2 -1.7,0 -3.2,0.3 -4.3,0.8 -1.1,0.5 -2.1,1.2 -2.8,1.9 -0.7,0.7 -1.2,1.6 -1.5,2.6 -0.3,0.9 -0.4,1.8 -0.4,2.5 0,2.2 0.6,3.8 1.7,5 1.1,1.2 2.5,2.1 4.2,2.8 1.7,0.7 3.5,1.4 5.4,1.9 2,0.6 3.8,1.4 5.4,2.4 1.7,1 3.1,2.4 4.2,4.2 1.1,1.8 1.7,4.2 1.7,7.2 0,2.4 -0.4,4.7 -1.3,6.6 -0.8,2 -2,3.6 -3.4,5 -1.4,1.3 -3.1,2.4 -5.1,3.1 -2,0.7 -4,1.1 -6.2,1.1 -2.9,0 -5.7,-0.6 -8.4,-1.7 -2.6,-1.2 -4.7,-2.9 -6.3,-5.3 z"
   id="path267"
   inkscape:connector-curvature="0" />
	<path
   d="m 2775.7,689.6 h -5.8 v -5.3 h -0.1 c -0.7,1.8 -2,3.3 -3.8,4.4 -1.8,1.1 -3.9,1.7 -6.3,1.7 -1.5,0 -2.9,-0.3 -4.3,-0.8 -1.3,-0.5 -2.5,-1.3 -3.5,-2.3 -1,-1.1 -1.8,-2.4 -2.4,-4.1 -0.6,-1.7 -0.9,-3.6 -0.9,-5.9 v -22 h 5.8 v 20.2 c 0,1.6 0.2,2.9 0.6,4.1 0.4,1.1 0.9,2 1.6,2.7 0.6,0.7 1.4,1.2 2.2,1.5 0.8,0.3 1.7,0.5 2.6,0.5 1.2,0 2.3,-0.2 3.4,-0.6 1.1,-0.4 1.9,-1.1 2.7,-2.1 0.8,-0.9 1.4,-2.1 1.8,-3.6 0.4,-1.4 0.6,-3.1 0.6,-5.1 v -17.6 h 5.8 z"
   id="path269"
   inkscape:connector-curvature="0" />
	<path
   d="m 2784.5,655.5 h 5.4 v 5.3 h 0.1 c 0.1,-0.5 0.5,-1.1 1,-1.8 0.5,-0.7 1.2,-1.4 2.1,-2.1 0.8,-0.6 1.8,-1.2 3,-1.7 1.1,-0.5 2.4,-0.7 3.8,-0.7 2.3,0 4.2,0.5 5.8,1.6 1.6,1.1 2.8,2.6 3.8,4.8 1,-2.1 2.4,-3.7 4.2,-4.8 1.8,-1.1 3.7,-1.6 5.5,-1.6 2.4,0 4.3,0.4 5.8,1.3 1.5,0.9 2.7,2 3.6,3.4 0.9,1.4 1.5,3 1.8,4.8 0.3,1.8 0.5,3.7 0.5,5.6 v 19.9 h -5.8 v -19 c 0,-1.3 -0.1,-2.5 -0.2,-3.7 -0.2,-1.2 -0.5,-2.3 -0.9,-3.2 -0.5,-0.9 -1.1,-1.6 -2,-2.2 -0.9,-0.6 -2,-0.8 -3.4,-0.8 -2.8,0 -4.8,1 -6,2.9 -1.2,1.9 -1.8,4.4 -1.8,7.4 v 18.6 h -5.8 v -17.9 c 0,-1.6 -0.1,-3.1 -0.2,-4.5 -0.2,-1.3 -0.5,-2.5 -0.9,-3.5 -0.5,-1 -1.1,-1.8 -1.9,-2.3 -0.8,-0.6 -2,-0.8 -3.4,-0.8 -1,0 -2,0.2 -3,0.7 -1,0.5 -1.8,1.1 -2.6,2.1 -0.7,0.9 -1.3,2.1 -1.8,3.5 -0.4,1.4 -0.6,3.1 -0.6,5 v 17.7 h -5.8 v -34 z"
   id="path271"
   inkscape:connector-curvature="0" />
	<path
   d="m 2839.7,655.5 h 5.8 v 4.9 h 0.1 c 1.1,-1.8 2.7,-3.2 4.6,-4.2 2,-1 4,-1.5 6.1,-1.5 2.4,0 4.5,0.5 6.4,1.4 1.9,0.9 3.6,2.2 4.9,3.8 1.4,1.6 2.4,3.5 3.1,5.7 0.7,2.2 1.1,4.5 1.1,7 0,2.5 -0.4,4.9 -1.1,7.1 -0.7,2.2 -1.8,4.1 -3.1,5.7 -1.4,1.6 -3,2.9 -4.9,3.8 -1.9,0.9 -4.1,1.4 -6.4,1.4 -2.2,0 -4.3,-0.5 -6.2,-1.5 -1.9,-1 -3.4,-2.4 -4.5,-4.2 h -0.1 v 25.2 h -5.8 z m 16,5.2 c -1.6,0 -3,0.3 -4.2,0.9 -1.3,0.6 -2.3,1.4 -3.2,2.4 -0.9,1 -1.5,2.3 -2,3.7 -0.5,1.5 -0.7,3.1 -0.7,4.8 0,1.7 0.2,3.3 0.7,4.8 0.5,1.5 1.1,2.7 2,3.7 0.9,1 1.9,1.8 3.2,2.4 1.3,0.6 2.7,0.9 4.2,0.9 1.6,0 3,-0.3 4.2,-0.9 1.3,-0.6 2.3,-1.4 3.2,-2.4 0.9,-1 1.5,-2.3 2,-3.7 0.5,-1.5 0.7,-3.1 0.7,-4.8 0,-1.7 -0.2,-3.3 -0.7,-4.8 -0.5,-1.5 -1.1,-2.7 -2,-3.7 -0.9,-1 -1.9,-1.8 -3.2,-2.4 -1.3,-0.6 -2.7,-0.9 -4.2,-0.9 z"
   id="path273"
   inkscape:connector-curvature="0" />
</g>
<g
   id="g293"
   transform="translate(-236.4,-211)">
	<path
   d="m 1269.6,1329.7 h 15.9 c 2,0 3.8,0.3 5.5,0.8 1.7,0.5 3.2,1.3 4.4,2.3 1.2,1 2.2,2.4 2.9,4 0.7,1.6 1.1,3.5 1.1,5.7 0,2.9 -0.7,5.3 -2.2,7.2 -1.5,1.8 -3.4,3.2 -5.7,4.1 v 0.1 c 1.4,0.1 2.7,0.5 3.9,1.2 1.2,0.7 2.3,1.6 3.1,2.7 0.9,1.1 1.6,2.4 2.1,3.9 0.5,1.5 0.8,3.1 0.8,4.8 0,2.3 -0.4,4.3 -1.3,6.1 -0.8,1.8 -2,3.2 -3.5,4.4 -1.5,1.2 -3.2,2.1 -5.1,2.7 -1.9,0.6 -4,0.9 -6.3,0.9 h -15.7 v -50.9 z m 6.2,21.2 h 8.5 c 1.2,0 2.3,-0.1 3.3,-0.4 1,-0.3 1.9,-0.7 2.7,-1.3 0.8,-0.6 1.4,-1.4 1.8,-2.4 0.5,-1 0.7,-2.1 0.7,-3.5 0,-2 -0.6,-3.8 -1.7,-5.3 -1.2,-1.5 -3,-2.2 -5.5,-2.2 h -9.8 z m 0,23.7 h 9.1 c 0.9,0 2,-0.1 3.1,-0.3 1.1,-0.2 2.2,-0.6 3.2,-1.3 1,-0.6 1.8,-1.5 2.5,-2.6 0.7,-1.1 1,-2.6 1,-4.4 0,-3 -0.9,-5.3 -2.7,-6.8 -1.8,-1.5 -4.2,-2.3 -7.2,-2.3 h -9.2 v 17.7 z"
   id="path277"
   inkscape:connector-curvature="0" />
	<path
   d="m 1307.5,1363.6 c 0,-2.5 0.4,-4.8 1.3,-7 0.8,-2.2 2,-4.1 3.5,-5.7 1.5,-1.6 3.2,-2.9 5.2,-3.9 2,-0.9 4.1,-1.4 6.4,-1.4 2.3,0 4.4,0.5 6.4,1.4 2,0.9 3.7,2.2 5.2,3.9 1.5,1.6 2.6,3.5 3.5,5.7 0.8,2.2 1.3,4.5 1.3,7 0,2.5 -0.4,4.8 -1.3,7 -0.8,2.2 -2,4.1 -3.5,5.7 -1.5,1.6 -3.2,2.9 -5.2,3.8 -2,0.9 -4.1,1.4 -6.4,1.4 -2.3,0 -4.4,-0.5 -6.4,-1.4 -2,-0.9 -3.7,-2.2 -5.2,-3.8 -1.5,-1.6 -2.6,-3.5 -3.5,-5.7 -0.9,-2.1 -1.3,-4.5 -1.3,-7 z m 6.2,0 c 0,1.7 0.2,3.3 0.7,4.8 0.5,1.5 1.1,2.7 2,3.7 0.9,1 1.9,1.8 3.2,2.4 1.3,0.6 2.7,0.9 4.2,0.9 1.6,0 3,-0.3 4.2,-0.9 1.3,-0.6 2.3,-1.4 3.2,-2.4 0.9,-1 1.5,-2.3 2,-3.7 0.5,-1.5 0.7,-3.1 0.7,-4.8 0,-1.7 -0.2,-3.3 -0.7,-4.8 -0.5,-1.5 -1.1,-2.7 -2,-3.7 -0.9,-1 -1.9,-1.8 -3.2,-2.4 -1.3,-0.6 -2.7,-0.9 -4.2,-0.9 -1.6,0 -3,0.3 -4.2,0.9 -1.3,0.6 -2.3,1.4 -3.2,2.4 -0.9,1 -1.5,2.3 -2,3.7 -0.5,1.5 -0.7,3.1 -0.7,4.8 z"
   id="path279"
   inkscape:connector-curvature="0" />
	<path
   d="m 1347.4,1346.6 h 5.8 v 5.3 h 0.1 c 0.4,-0.9 0.9,-1.7 1.6,-2.5 0.6,-0.7 1.4,-1.4 2.2,-1.9 0.8,-0.5 1.7,-0.9 2.6,-1.3 0.9,-0.3 1.9,-0.5 2.9,-0.5 0.9,0 1.8,0.1 2.6,0.4 l -0.3,7 c -0.5,-0.1 -1,-0.3 -1.4,-0.4 -0.5,-0.1 -1,-0.1 -1.4,-0.1 -2.9,0 -5,0.9 -6.5,2.7 -1.5,1.8 -2.3,4.5 -2.3,8.3 v 17.1 h -5.8 v -34.1 z"
   id="path281"
   inkscape:connector-curvature="0" />
	<path
   d="m 1374.7,1366 c 0,1.5 0.3,2.8 0.9,4.1 0.6,1.3 1.3,2.3 2.3,3.1 1,0.9 2.1,1.5 3.3,2 1.3,0.5 2.5,0.7 3.9,0.7 1.8,0 3.4,-0.5 4.7,-1.4 1.3,-0.9 2.6,-2.2 3.7,-3.7 l 4.4,3.7 c -3.2,4.7 -7.8,7 -13.6,7 -2.4,0 -4.6,-0.5 -6.6,-1.4 -2,-0.9 -3.6,-2.2 -5,-3.8 -1.4,-1.6 -2.4,-3.5 -3.1,-5.7 -0.7,-2.2 -1.1,-4.5 -1.1,-7.1 0,-2.5 0.4,-4.9 1.2,-7.1 0.8,-2.2 1.9,-4.1 3.3,-5.7 1.4,-1.6 3.1,-2.9 5,-3.8 1.9,-0.9 4.1,-1.4 6.3,-1.4 2.7,0 5,0.5 6.9,1.6 1.9,1.1 3.4,2.4 4.6,4.1 1.2,1.7 2.1,3.6 2.6,5.8 0.5,2.2 0.8,4.3 0.8,6.5 v 2.3 h -24.5 z m 18.4,-5.2 c 0,-1.4 -0.2,-2.8 -0.6,-4 -0.4,-1.2 -0.9,-2.2 -1.7,-3.1 -0.7,-0.9 -1.7,-1.6 -2.8,-2.1 -1.1,-0.5 -2.4,-0.8 -3.9,-0.8 -1.4,0 -2.7,0.3 -3.9,0.9 -1.2,0.6 -2.2,1.4 -3,2.3 -0.8,1 -1.5,2 -1.9,3.2 -0.5,1.2 -0.7,2.3 -0.7,3.5 h 18.5 z"
   id="path283"
   inkscape:connector-curvature="0" />
	<path
   d="m 1402.6,1346.6 h 6.5 l 6.9,25.5 h 0.1 l 7.4,-25.5 h 6.2 l 7.8,25.5 h 0.1 l 6.5,-25.5 h 6.2 l -9.9,34.1 h -5.9 l -8.1,-25.5 h -0.1 l -7.4,25.5 h -6.2 z"
   id="path285"
   inkscape:connector-curvature="0" />
	<path
   d="m 1459.9,1366 c 0,1.5 0.3,2.8 0.9,4.1 0.6,1.3 1.3,2.3 2.3,3.1 0.9,0.9 2.1,1.5 3.3,2 1.3,0.5 2.5,0.7 3.9,0.7 1.8,0 3.4,-0.5 4.7,-1.4 1.3,-0.9 2.6,-2.2 3.7,-3.7 l 4.4,3.7 c -3.2,4.7 -7.8,7 -13.6,7 -2.4,0 -4.6,-0.5 -6.6,-1.4 -2,-0.9 -3.6,-2.2 -5,-3.8 -1.4,-1.6 -2.4,-3.5 -3.1,-5.7 -0.7,-2.2 -1.1,-4.5 -1.1,-7.1 0,-2.5 0.4,-4.9 1.2,-7.1 0.8,-2.2 1.9,-4.1 3.3,-5.7 1.4,-1.6 3.1,-2.9 5,-3.8 1.9,-0.9 4.1,-1.4 6.4,-1.4 2.7,0 5,0.5 6.9,1.6 1.9,1.1 3.4,2.4 4.6,4.1 1.2,1.7 2.1,3.6 2.6,5.8 0.5,2.1 0.8,4.3 0.8,6.5 v 2.3 h -24.6 z m 18.4,-5.2 c 0,-1.4 -0.2,-2.8 -0.6,-4 -0.4,-1.2 -0.9,-2.2 -1.7,-3.1 -0.7,-0.9 -1.7,-1.6 -2.8,-2.1 -1.1,-0.5 -2.4,-0.8 -3.9,-0.8 -1.4,0 -2.7,0.3 -3.9,0.9 -1.2,0.6 -2.2,1.4 -3,2.3 -0.8,1 -1.5,2 -1.9,3.2 -0.5,1.2 -0.7,2.3 -0.7,3.5 h 18.5 z"
   id="path287"
   inkscape:connector-curvature="0" />
	<path
   d="m 1491.9,1326.3 h 5.8 v 54.4 h -5.8 z"
   id="path289"
   inkscape:connector-curvature="0" />
	<path
   d="m 1507.5,1326.3 h 5.8 v 54.4 h -5.8 z"
   id="path291"
   inkscape:connector-curvature="0" />
</g>
<g
   id="g311"
   transform="translate(-236.4,-211)">
	<path
   d="m 322.7,1396.7 c -3.5,0 -6.7,-0.7 -9.7,-2.1 -2.9,-1.4 -5.5,-3.3 -7.5,-5.7 -2.1,-2.4 -3.7,-5.2 -4.9,-8.5 -1.2,-3.3 -1.8,-6.8 -1.8,-10.6 0,-3.8 0.6,-7.3 1.8,-10.6 1.2,-3.3 2.8,-6.1 4.9,-8.5 2.1,-2.4 4.6,-4.3 7.5,-5.7 2.9,-1.4 6.2,-2.1 9.7,-2.1 3.5,0 6.7,0.7 9.7,2.1 2.9,1.4 5.5,3.3 7.5,5.7 2.1,2.4 3.7,5.2 4.9,8.5 1.2,3.3 1.8,6.8 1.8,10.6 0,3.8 -0.6,7.3 -1.8,10.6 -1.2,3.3 -2.8,6.1 -4.9,8.5 -2.1,2.4 -4.6,4.3 -7.5,5.7 -3,1.4 -6.2,2.1 -9.7,2.1 z m 0,-6.5 c 2.6,0 5,-0.5 7.1,-1.6 2.1,-1.1 3.9,-2.5 5.4,-4.4 1.5,-1.8 2.7,-4 3.5,-6.4 0.8,-2.5 1.2,-5.1 1.2,-7.9 0,-2.8 -0.4,-5.4 -1.2,-7.9 -0.8,-2.5 -2,-4.6 -3.5,-6.4 -1.5,-1.8 -3.3,-3.3 -5.4,-4.4 -2.1,-1.1 -4.5,-1.6 -7.1,-1.6 -2.6,0 -5,0.5 -7.1,1.6 -2.1,1.1 -3.9,2.5 -5.4,4.4 -1.5,1.8 -2.7,4 -3.5,6.4 -0.8,2.5 -1.2,5.1 -1.2,7.9 0,2.8 0.4,5.4 1.2,7.9 0.8,2.5 2,4.6 3.5,6.4 1.5,1.8 3.3,3.3 5.4,4.4 2.1,1.1 4.5,1.6 7.1,1.6 z"
   id="path295"
   inkscape:connector-curvature="0" />
	<path
   d="m 354.1,1361.3 h 5.8 v 4.9 h 0.1 c 1.1,-1.8 2.7,-3.2 4.6,-4.2 2,-1 4,-1.5 6.1,-1.5 2.4,0 4.5,0.5 6.4,1.4 1.9,0.9 3.6,2.2 4.9,3.8 1.3,1.6 2.4,3.5 3.1,5.7 0.7,2.2 1.1,4.5 1.1,7 0,2.5 -0.4,4.9 -1.1,7.1 -0.7,2.2 -1.8,4.1 -3.1,5.7 -1.4,1.6 -3,2.9 -4.9,3.8 -1.9,0.9 -4.1,1.4 -6.4,1.4 -2.2,0 -4.3,-0.5 -6.2,-1.5 -1.9,-1 -3.4,-2.4 -4.5,-4.2 h -0.1 v 25.2 h -5.8 z m 15.9,5.2 c -1.6,0 -3,0.3 -4.2,0.9 -1.3,0.6 -2.3,1.4 -3.2,2.4 -0.9,1 -1.5,2.3 -2,3.7 -0.5,1.5 -0.7,3.1 -0.7,4.8 0,1.7 0.2,3.3 0.7,4.8 0.5,1.5 1.1,2.7 2,3.7 0.9,1 1.9,1.8 3.2,2.4 1.3,0.6 2.7,0.9 4.2,0.9 1.5,0 3,-0.3 4.2,-0.9 1.3,-0.6 2.3,-1.4 3.2,-2.4 0.9,-1 1.5,-2.3 2,-3.7 0.5,-1.5 0.7,-3.1 0.7,-4.8 0,-1.7 -0.2,-3.3 -0.7,-4.8 -0.5,-1.5 -1.1,-2.7 -2,-3.7 -0.9,-1 -1.9,-1.8 -3.2,-2.4 -1.2,-0.6 -2.6,-0.9 -4.2,-0.9 z"
   id="path297"
   inkscape:connector-curvature="0" />
	<path
   d="m 398.1,1380.7 c 0,1.5 0.3,2.8 0.9,4.1 0.6,1.3 1.3,2.3 2.3,3.1 0.9,0.9 2.1,1.5 3.3,2 1.3,0.5 2.5,0.7 3.9,0.7 1.8,0 3.4,-0.5 4.7,-1.4 1.3,-0.9 2.6,-2.2 3.7,-3.7 l 4.4,3.7 c -3.2,4.7 -7.8,7 -13.6,7 -2.4,0 -4.6,-0.5 -6.6,-1.4 -2,-0.9 -3.6,-2.2 -5,-3.8 -1.4,-1.6 -2.4,-3.5 -3.1,-5.7 -0.7,-2.2 -1.1,-4.5 -1.1,-7.1 0,-2.5 0.4,-4.9 1.2,-7.1 0.8,-2.2 1.9,-4.1 3.3,-5.7 1.4,-1.6 3.1,-2.9 5,-3.8 1.9,-0.9 4.1,-1.4 6.4,-1.4 2.7,0 5,0.5 6.9,1.6 1.9,1.1 3.4,2.4 4.6,4.1 1.2,1.7 2.1,3.6 2.6,5.8 0.5,2.1 0.8,4.3 0.8,6.5 v 2.3 h -24.6 z m 18.4,-5.2 c 0,-1.4 -0.2,-2.8 -0.6,-4 -0.4,-1.2 -0.9,-2.2 -1.7,-3.1 -0.7,-0.9 -1.7,-1.6 -2.8,-2.1 -1.1,-0.5 -2.4,-0.8 -3.9,-0.8 -1.4,0 -2.7,0.3 -3.9,0.9 -1.2,0.6 -2.2,1.4 -3,2.3 -0.8,1 -1.5,2 -1.9,3.2 -0.5,1.2 -0.7,2.3 -0.7,3.5 h 18.5 z"
   id="path299"
   inkscape:connector-curvature="0" />
	<path
   d="m 429.7,1361.3 h 5.8 v 5.3 h 0.1 c 0.7,-1.8 2,-3.3 3.8,-4.4 1.8,-1.1 3.9,-1.7 6.3,-1.7 1.5,0 2.9,0.3 4.2,0.8 1.3,0.5 2.5,1.3 3.6,2.3 1,1.1 1.8,2.4 2.4,4.1 0.6,1.7 0.9,3.6 0.9,5.9 v 22 H 451 v -20.2 c 0,-1.6 -0.2,-2.9 -0.6,-4.1 -0.4,-1.2 -0.9,-2 -1.6,-2.7 -0.6,-0.7 -1.4,-1.2 -2.2,-1.5 -0.8,-0.3 -1.7,-0.5 -2.6,-0.5 -1.2,0 -2.3,0.2 -3.4,0.6 -1.1,0.4 -1.9,1.1 -2.7,2.1 -0.8,0.9 -1.4,2.1 -1.8,3.6 -0.4,1.4 -0.6,3.1 -0.6,5.1 v 17.6 h -5.8 z"
   id="path301"
   inkscape:connector-curvature="0" />
	<path
   d="m 479.4,1344.4 h 6.5 l 10.1,40.8 h 0.1 l 10.8,-40.8 h 7.1 l 10.8,40.8 h 0.1 l 10.1,-40.8 h 6.5 l -13.3,51 h -6.6 l -11.1,-41.6 h -0.1 l -11,41.6 h -6.6 z"
   id="path303"
   inkscape:connector-curvature="0" />
	<path
   d="m 547.4,1380.7 c 0,1.5 0.3,2.8 0.9,4.1 0.6,1.3 1.3,2.3 2.3,3.1 0.9,0.9 2.1,1.5 3.3,2 1.3,0.5 2.5,0.7 3.9,0.7 1.8,0 3.4,-0.5 4.7,-1.4 1.3,-0.9 2.6,-2.2 3.7,-3.7 l 4.4,3.7 c -3.2,4.7 -7.8,7 -13.6,7 -2.4,0 -4.6,-0.5 -6.6,-1.4 -2,-0.9 -3.6,-2.2 -5,-3.8 -1.4,-1.6 -2.4,-3.5 -3.1,-5.7 -0.7,-2.2 -1.1,-4.5 -1.1,-7.1 0,-2.5 0.4,-4.9 1.2,-7.1 0.8,-2.2 1.9,-4.1 3.3,-5.7 1.4,-1.6 3.1,-2.9 5,-3.8 1.9,-0.9 4.1,-1.4 6.4,-1.4 2.7,0 5,0.5 6.9,1.6 1.9,1.1 3.4,2.4 4.6,4.1 1.2,1.7 2.1,3.6 2.6,5.8 0.5,2.1 0.8,4.3 0.8,6.5 v 2.3 h -24.6 z m 18.4,-5.2 c 0,-1.4 -0.2,-2.8 -0.6,-4 -0.4,-1.2 -0.9,-2.2 -1.7,-3.1 -0.7,-0.9 -1.7,-1.6 -2.8,-2.1 -1.1,-0.5 -2.4,-0.8 -3.9,-0.8 -1.4,0 -2.7,0.3 -3.9,0.9 -1.2,0.6 -2.2,1.4 -3,2.3 -0.8,1 -1.5,2 -1.9,3.2 -0.5,1.2 -0.7,2.3 -0.7,3.5 h 18.5 z"
   id="path305"
   inkscape:connector-curvature="0" />
	<path
   d="m 579.5,1341 h 5.8 v 54.4 h -5.8 z"
   id="path307"
   inkscape:connector-curvature="0" />
	<path
   d="m 595.1,1341 h 5.8 v 54.4 h -5.8 z"
   id="path309"
   inkscape:connector-curvature="0" />
</g>
<path
   class="st12"
   d="m 2169.9,902.7 c 0.9,-23.9 -17.7,-43.8 -41.8,-44.7 -24,-0.9 -44.2,17.6 -45.1,41.4 -0.9,23.9 17.7,43.8 41.8,44.7 24.1,0.9 44.2,-17.6 45.1,-41.4"
   id="path313"
   inkscape:connector-curvature="0"
   style="fill:#e8edee" />
<path
   class="st13"
   d="m 2156.5,902.2 c 0.6,-16.6 -12.2,-30.3 -28.9,-31 -16.7,-0.6 -30.6,12.1 -31.2,28.7 -0.6,16.6 12.2,30.3 28.9,31 16.7,0.6 30.6,-12.2 31.2,-28.7"
   id="path315"
   inkscape:connector-curvature="0"
   style="fill:#ffffff" />
<path
   class="st14"
   d="m 2104.9,921.8 c 5.2,5.2 12.4,8.8 20.4,9.1 8,0.3 15.5,-2.7 21,-7.5 -5.2,-5.2 -12.4,-8.8 -20.4,-9.1 -7.9,-0.3 -15.4,2.7 -21,7.5"
   id="path317"
   inkscape:connector-curvature="0"
   style="fill:#e15649" />
<path
   class="st15"
   d="m 2126.4,904.3 c -1,0 -1.7,-0.4 -2.3,-1.1 -1.3,-1.4 -1.2,-3.4 0.2,-4.6 l 10.4,-9.6 c 1.4,-1.3 3.4,-1.2 4.7,0.2 1.3,1.4 1.2,3.4 -0.2,4.6 l -10.4,9.6 c -0.8,0.7 -1.4,1 -2.4,0.9"
   id="path319"
   inkscape:connector-curvature="0"
   style="fill:#556080" />
<path
   class="st16"
   d="m 2124.8,944.3 c -3.3,0 -6.7,-0.4 -10,-1.6 l -0.2,24.1 20.1,0.2 0.2,-24.1 c -3.4,1.1 -6.7,1.4 -10.1,1.4"
   id="path321"
   inkscape:connector-curvature="0"
   style="fill:#c7cbc7" />
<g
   id="g329"
   transform="translate(-236.4,-211)">
	<path
   class="st15"
   d="m 2392.7,1109.8 -6.3,-0.2 c -2,-0.1 -3.4,1.2 -3.5,3.2 -0.1,2 1.2,3.4 3.2,3.4 l 6.3,0.2 c 0,-1 0.4,-2.3 0.5,-3.3 0.1,-0.9 0.1,-2.2 -0.2,-3.3"
   id="path323"
   inkscape:connector-curvature="0"
   style="fill:#556080" />
	<path
   class="st15"
   d="m 2364,1082.2 c -1,0 -2.3,-0.1 -3.4,0.2 l -0.2,6.3 c -0.1,2 1.2,3.4 3.2,3.4 2,0.1 3.4,-1.2 3.5,-3.2 l 0.2,-6.3 c -0.9,-0.3 -2.3,-0.4 -3.3,-0.4"
   id="path325"
   inkscape:connector-curvature="0"
   style="fill:#556080" />
	<path
   class="st15"
   d="m 2339.6,1107.8 -6.3,-0.2 c 0,1 -0.4,2.3 -0.5,3.3 0,1 -0.1,2.3 0.2,3.3 l 6.3,0.2 c 2,0.1 3.4,-1.2 3.5,-3.2 0.1,-1.9 -1.2,-3.3 -3.2,-3.4"
   id="path327"
   inkscape:connector-curvature="0"
   style="fill:#556080" />
</g>
<g
   id="g333"
   transform="translate(-236.4,-211)">
	<path
   class="st17"
   d="m 2384.8,1237.4 -46.8,0.3 c -3.7,0 -6.7,-2.9 -6.7,-6.6 l -0.3,-46.4 c 0,-3.6 3,-6.7 6.6,-6.7 l 46.8,-0.3 c 3.7,0 6.7,2.9 6.7,6.6 l 0.3,46.4 c 0.1,3.7 -2.9,6.7 -6.6,6.7"
   id="path331"
   inkscape:connector-curvature="0"
   style="fill:#949493" />
</g>
<g
   id="g355"
   transform="translate(-236.4,-211)">
	<path
   d="m 2430.8,1187.2 h 26.9 v 5.4 h -21.1 v 13.3 h 19.7 v 5.4 h -19.7 v 18.4 h -5.8 z"
   id="path335"
   inkscape:connector-curvature="0" />
	<path
   d="m 2464.6,1184.3 h 5.4 v 45.4 h -5.4 z"
   id="path337"
   inkscape:connector-curvature="0" />
	<path
   d="m 2477.3,1215.4 c 0,-2.1 0.4,-4 1.2,-5.8 0.8,-1.8 1.9,-3.4 3.2,-4.7 1.4,-1.4 3,-2.4 4.8,-3.2 1.9,-0.8 3.8,-1.2 6,-1.2 2.1,0 4.1,0.4 6,1.2 1.9,0.8 3.5,1.9 4.8,3.2 1.4,1.4 2.5,2.9 3.2,4.7 0.7,1.8 1.2,3.7 1.2,5.8 0,2.1 -0.4,4 -1.2,5.8 -0.8,1.8 -1.9,3.4 -3.2,4.7 -1.4,1.3 -3,2.4 -4.8,3.2 -1.9,0.8 -3.9,1.2 -6,1.2 -2.1,0 -4.1,-0.4 -6,-1.2 -1.9,-0.8 -3.5,-1.8 -4.8,-3.2 -1.4,-1.3 -2.5,-2.9 -3.2,-4.7 -0.8,-1.7 -1.2,-3.7 -1.2,-5.8 z m 5.8,0 c 0,1.4 0.2,2.8 0.7,4 0.4,1.2 1.1,2.3 1.9,3.1 0.8,0.9 1.8,1.5 3,2 1.2,0.5 2.5,0.8 3.9,0.8 1.5,0 2.8,-0.2 3.9,-0.8 1.2,-0.5 2.2,-1.2 3,-2 0.8,-0.9 1.4,-1.9 1.9,-3.1 0.4,-1.2 0.7,-2.5 0.7,-4 0,-1.4 -0.2,-2.8 -0.7,-4 -0.4,-1.2 -1.1,-2.3 -1.9,-3.1 -0.8,-0.9 -1.8,-1.5 -3,-2 -1.2,-0.5 -2.5,-0.8 -3.9,-0.8 -1.5,0 -2.8,0.2 -3.9,0.8 -1.2,0.5 -2.2,1.2 -3,2 -0.8,0.9 -1.4,1.9 -1.9,3.1 -0.5,1.3 -0.7,2.6 -0.7,4 z"
   id="path339"
   inkscape:connector-curvature="0" />
	<path
   d="m 2511.1,1201.2 h 6.1 l 6.4,21.2 h 0.1 l 6.9,-21.2 h 5.8 l 7.3,21.2 h 0.1 l 6.1,-21.2 h 5.8 l -9.3,28.4 h -5.5 l -7.6,-21.2 h -0.1 l -6.9,21.2 h -5.8 z"
   id="path341"
   inkscape:connector-curvature="0" />
	<path
   d="m 2580,1220.8 c 1,1.6 2.4,2.7 4,3.5 1.6,0.8 3.3,1.1 5,1.1 1,0 2,-0.1 3,-0.4 1,-0.3 1.9,-0.8 2.8,-1.4 0.8,-0.6 1.5,-1.3 2,-2.2 0.5,-0.9 0.8,-1.9 0.8,-3.1 0,-1.6 -0.5,-2.9 -1.6,-3.8 -1,-0.9 -2.3,-1.6 -3.9,-2.2 -1.6,-0.6 -3.2,-1.1 -5.1,-1.7 -1.9,-0.6 -3.5,-1.3 -5.1,-2.2 -1.6,-1 -2.9,-2.2 -3.9,-3.9 -1,-1.6 -1.6,-3.8 -1.6,-6.6 0,-1.2 0.3,-2.6 0.8,-4 0.5,-1.4 1.4,-2.7 2.6,-3.8 1.2,-1.2 2.7,-2.1 4.5,-2.9 1.8,-0.8 4,-1.2 6.6,-1.2 2.3,0 4.6,0.3 6.7,1 2.1,0.6 4,1.9 5.6,3.9 l -4.7,4.3 c -0.7,-1.1 -1.8,-2 -3.1,-2.7 -1.3,-0.7 -2.8,-1 -4.5,-1 -1.6,0 -3,0.2 -4,0.6 -1,0.4 -1.9,1 -2.6,1.6 -0.7,0.6 -1.1,1.4 -1.4,2.1 -0.3,0.8 -0.4,1.5 -0.4,2.1 0,1.8 0.5,3.2 1.6,4.1 1.1,0.9 2.3,1.7 3.9,2.3 1.6,0.6 3.2,1.1 5.1,1.6 1.8,0.5 3.5,1.2 5.1,2 1.6,0.9 2.9,2 3.9,3.5 1,1.5 1.6,3.5 1.6,6 0,2 -0.4,3.9 -1.2,5.5 -0.8,1.6 -1.8,3 -3.2,4.1 -1.3,1.1 -2.9,2 -4.7,2.6 -1.8,0.6 -3.8,0.9 -5.8,0.9 -2.7,0 -5.3,-0.5 -7.8,-1.4 -2.5,-0.9 -4.4,-2.4 -5.9,-4.4 z"
   id="path343"
   inkscape:connector-curvature="0" />
	<path
   d="m 2615,1217.4 c 0,1.2 0.3,2.4 0.8,3.4 0.5,1 1.3,1.9 2.1,2.6 0.9,0.7 1.9,1.3 3.1,1.7 1.2,0.4 2.4,0.6 3.6,0.6 1.7,0 3.2,-0.4 4.4,-1.2 1.2,-0.8 2.4,-1.8 3.4,-3.1 l 4.1,3.1 c -3,3.9 -7.3,5.8 -12.7,5.8 -2.3,0 -4.3,-0.4 -6.1,-1.1 -1.8,-0.8 -3.4,-1.8 -4.7,-3.2 -1.3,-1.3 -2.2,-2.9 -2.9,-4.7 -0.7,-1.8 -1,-3.8 -1,-5.9 0,-2.1 0.4,-4.1 1.1,-5.9 0.7,-1.8 1.8,-3.4 3.1,-4.7 1.3,-1.3 2.9,-2.4 4.7,-3.1 1.8,-0.7 3.8,-1.1 5.9,-1.1 2.5,0 4.7,0.4 6.4,1.3 1.7,0.9 3.2,2 4.3,3.5 1.1,1.5 1.9,3 2.4,4.8 0.5,1.8 0.8,3.6 0.8,5.4 v 1.9 H 2615 Z m 17.2,-4.3 c 0,-1.2 -0.2,-2.3 -0.6,-3.3 -0.3,-1 -0.9,-1.9 -1.5,-2.6 -0.7,-0.7 -1.5,-1.3 -2.6,-1.7 -1,-0.4 -2.2,-0.6 -3.6,-0.6 -1.3,0 -2.6,0.2 -3.7,0.8 -1.1,0.5 -2,1.2 -2.8,2 -0.8,0.8 -1.4,1.7 -1.8,2.7 -0.4,1 -0.6,2 -0.6,2.9 h 17.2 z"
   id="path345"
   inkscape:connector-curvature="0" />
	<path
   d="m 2644.6,1201.2 h 5.4 v 4.4 h 0.1 c 0.7,-1.5 1.9,-2.8 3.6,-3.7 1.7,-0.9 3.6,-1.4 5.9,-1.4 1.4,0 2.7,0.2 4,0.6 1.3,0.4 2.4,1.1 3.3,2 0.9,0.9 1.7,2 2.3,3.4 0.6,1.4 0.8,3 0.8,4.9 v 18.3 h -5.4 v -16.8 c 0,-1.3 -0.2,-2.5 -0.5,-3.4 -0.4,-0.9 -0.8,-1.7 -1.5,-2.3 -0.6,-0.6 -1.3,-1 -2.1,-1.3 -0.8,-0.3 -1.6,-0.4 -2.4,-0.4 -1.1,0 -2.2,0.2 -3.1,0.5 -1,0.4 -1.8,0.9 -2.5,1.7 -0.7,0.8 -1.3,1.8 -1.7,3 -0.4,1.2 -0.6,2.6 -0.6,4.3 v 14.6 h -5.4 v -28.4 z"
   id="path347"
   inkscape:connector-curvature="0" />
	<path
   d="m 2693.4,1208.4 c -0.6,-0.8 -1.4,-1.5 -2.4,-2 -1,-0.5 -2.1,-0.8 -3.5,-0.8 -1.3,0 -2.4,0.3 -3.4,0.8 -0.9,0.5 -1.4,1.3 -1.4,2.4 0,0.8 0.3,1.5 0.8,2 0.5,0.5 1.2,0.9 1.9,1.3 0.7,0.4 1.5,0.6 2.4,0.7 0.8,0.2 1.6,0.3 2.2,0.4 1.2,0.3 2.3,0.6 3.3,1 1,0.4 1.9,0.9 2.7,1.6 0.7,0.6 1.3,1.4 1.8,2.3 0.4,0.9 0.6,2 0.6,3.4 0,1.6 -0.3,3 -1,4.1 -0.7,1.1 -1.6,2.1 -2.7,2.8 -1.1,0.7 -2.3,1.2 -3.7,1.6 -1.4,0.3 -2.8,0.5 -4.2,0.5 -2.4,0 -4.5,-0.4 -6.3,-1.1 -1.8,-0.7 -3.4,-2 -4.8,-4 l 4.1,-3.4 c 0.9,0.9 1.9,1.7 3,2.3 1.1,0.7 2.4,1 4,1 0.7,0 1.4,-0.1 2.1,-0.2 0.7,-0.1 1.3,-0.4 1.9,-0.7 0.5,-0.3 1,-0.7 1.3,-1.1 0.3,-0.5 0.5,-1 0.5,-1.6 0,-0.8 -0.3,-1.5 -0.8,-2 -0.5,-0.5 -1.1,-0.9 -1.8,-1.2 -0.7,-0.3 -1.5,-0.5 -2.2,-0.7 -0.8,-0.2 -1.5,-0.3 -2.1,-0.5 -1.2,-0.3 -2.3,-0.6 -3.3,-1 -1,-0.4 -2,-0.8 -2.8,-1.4 -0.8,-0.6 -1.5,-1.4 -1.9,-2.3 -0.5,-0.9 -0.7,-2.1 -0.7,-3.4 0,-1.5 0.3,-2.8 0.9,-3.9 0.6,-1.1 1.5,-2 2.5,-2.7 1,-0.7 2.2,-1.3 3.5,-1.6 1.3,-0.4 2.6,-0.5 4,-0.5 1.9,0 3.8,0.4 5.6,1.1 1.8,0.7 3.2,1.9 4.2,3.6 z"
   id="path349"
   inkscape:connector-curvature="0" />
	<path
   d="m 2703.6,1215.4 c 0,-2.1 0.4,-4 1.2,-5.8 0.8,-1.8 1.9,-3.4 3.2,-4.7 1.4,-1.4 3,-2.4 4.8,-3.2 1.9,-0.8 3.8,-1.2 6,-1.2 2.1,0 4.1,0.4 6,1.2 1.9,0.8 3.5,1.9 4.8,3.2 1.4,1.4 2.5,2.9 3.2,4.7 0.7,1.8 1.2,3.7 1.2,5.8 0,2.1 -0.4,4 -1.2,5.8 -0.8,1.8 -1.9,3.4 -3.2,4.7 -1.4,1.3 -3,2.4 -4.8,3.2 -1.9,0.8 -3.9,1.2 -6,1.2 -2.1,0 -4.1,-0.4 -6,-1.2 -1.9,-0.8 -3.5,-1.8 -4.8,-3.2 -1.4,-1.3 -2.5,-2.9 -3.2,-4.7 -0.8,-1.7 -1.2,-3.7 -1.2,-5.8 z m 5.8,0 c 0,1.4 0.2,2.8 0.7,4 0.4,1.2 1.1,2.3 1.9,3.1 0.8,0.9 1.8,1.5 3,2 1.2,0.5 2.5,0.8 3.9,0.8 1.5,0 2.8,-0.2 3.9,-0.8 1.2,-0.5 2.2,-1.2 3,-2 0.8,-0.9 1.4,-1.9 1.9,-3.1 0.4,-1.2 0.7,-2.5 0.7,-4 0,-1.4 -0.2,-2.8 -0.7,-4 -0.4,-1.2 -1.1,-2.3 -1.9,-3.1 -0.8,-0.9 -1.8,-1.5 -3,-2 -1.2,-0.5 -2.5,-0.8 -3.9,-0.8 -1.5,0 -2.8,0.2 -3.9,0.8 -1.2,0.5 -2.2,1.2 -3,2 -0.8,0.9 -1.4,1.9 -1.9,3.1 -0.4,1.3 -0.7,2.6 -0.7,4 z"
   id="path351"
   inkscape:connector-curvature="0" />
	<path
   d="m 2741,1201.2 h 5.4 v 4.4 h 0.1 c 0.4,-0.8 0.8,-1.5 1.5,-2.1 0.6,-0.6 1.3,-1.1 2,-1.6 0.7,-0.5 1.6,-0.8 2.4,-1 0.8,-0.2 1.8,-0.4 2.7,-0.4 0.9,0 1.7,0.1 2.4,0.4 l -0.2,5.8 c -0.4,-0.1 -0.9,-0.2 -1.3,-0.3 -0.4,-0.1 -0.9,-0.1 -1.3,-0.1 -2.7,0 -4.7,0.7 -6.1,2.2 -1.4,1.5 -2.1,3.8 -2.1,6.9 v 14.3 h -5.4 v -28.5 z"
   id="path353"
   inkscape:connector-curvature="0" />
</g>
</svg>