<?xml version="1.0" encoding="UTF-8" standalone="no"?>
<!-- Generator: Adobe Illustrator 22.0.0, SVG Export Plug-In . SVG Version: 6.00 Build 0)  -->

<svg
   xmlns:dc="http://purl.org/dc/elements/1.1/"
   xmlns:cc="http://creativecommons.org/ns#"
   xmlns:rdf="http://www.w3.org/1999/02/22-rdf-syntax-ns#"
   xmlns:svg="http://www.w3.org/2000/svg"
   xmlns="http://www.w3.org/2000/svg"
   xmlns:sodipodi="http://sodipodi.sourceforge.net/DTD/sodipodi-0.dtd"
   xmlns:inkscape="http://www.inkscape.org/namespaces/inkscape"
   version="1.1"
   id="Layer_1"
   x="0px"
   y="0px"
   viewBox="0 0 2927.1313 1343.8"
   xml:space="preserve"
   sodipodi:docname="softt.svg"
   width="2927.1313"
   height="1343.8"
   inkscape:version="0.92.3 (unknown)"><metadata
   id="metadata423"><rdf:RDF><cc:Work
       rdf:about=""><dc:format>image/svg+xml</dc:format><dc:type
         rdf:resource="http://purl.org/dc/dcmitype/StillImage" /><dc:title></dc:title></cc:Work></rdf:RDF></metadata><defs
   id="defs421" /><sodipodi:namedview
   pagecolor="#ffffff"
   bordercolor="#666666"
   borderopacity="1"
   objecttolerance="10"
   gridtolerance="10"
   guidetolerance="10"
   inkscape:pageopacity="0"
   inkscape:pageshadow="2"
   inkscape:window-width="1839"
   inkscape:window-height="1050"
   id="namedview419"
   showgrid="false"
   fit-margin-top="0"
   fit-margin-left="0"
   fit-margin-right="0"
   fit-margin-bottom="0"
   inkscape:zoom="0.10162117"
   inkscape:cx="308.21316"
   inkscape:cy="686.89994"
   inkscape:window-x="81"
   inkscape:window-y="30"
   inkscape:window-maximized="1"
   inkscape:current-layer="Layer_1" />
<style
   type="text/css"
   id="style2">
	.st0{fill:#4499D4;}
	.st1{fill:#64A9D9;}
	.st2{fill:#3F8EC9;}
	.st3{fill:#2C7FBA;}
	.st4{fill:#FDB62D;}
	.st5{fill:#020202;}
	.st6{fill:#EDE9E8;}
	.st7{fill:#DFD7D5;}
	.st8{fill:#8FE1FF;}
	.st9{fill:#73BCFF;}
	.st10{fill:#3A96FF;}
	.st11{fill:#707070;}
	.st12{fill:#C7C9C7;}
	.st13{fill:#E8EDEE;}
	.st14{fill:#FFFFFF;}
	.st15{fill:#E15649;}
	.st16{fill:#556080;}
	.st17{fill:#C7CBC7;}
	.st18{fill:#9B9B9B;}
	.st19{fill:#949493;}
</style>
<g
   id="Layer_1_1_"
   transform="translate(-149.36867,-141.8)">
	<g
   id="Layer_2_2_">
		<g
   id="Layer_3_2_">
		</g>
	</g>
	<g
   id="Layer_3">
		<path
   class="st0"
   d="m 913,1022.1 88.3,-0.5 c 43.7,-0.3 79,-36 78.7,-79.7 -0.3,-43.7 -36,-79 -79.7,-78.7 -43.7,0.3 -79,36 -78.7,79.7 0.1,12.7 3.2,25.3 9.2,36.6 l -18.1,0.1 z"
   id="path6"
   inkscape:connector-curvature="0"
   style="fill:#4499d4" />
		<circle
   class="st1"
   cx="1000.8"
   cy="942.29999"
   r="48.700001"
   id="circle8"
   style="fill:#64a9d9" />
		<path
   class="st2"
   d="m 1038,1012.3 22,6.5 c 7.7,2.3 15.7,-2.2 17.9,-9.8 0.8,-2.7 0.8,-5.6 -0.1,-8.4 l -6.7,-21.9 c -7.3,14.3 -18.9,26 -33.1,33.6 z"
   id="path10"
   inkscape:connector-curvature="0"
   style="fill:#3f8ec9" />
		<path
   class="st2"
   d="m 963.6,872.5 -22,-6.5 c -7.7,-2.3 -15.7,2.2 -17.9,9.8 -0.8,2.7 -0.8,5.6 0.1,8.3 l 6.7,21.9 c 7.3,-14.3 18.9,-26 33.1,-33.5 z"
   id="path12"
   inkscape:connector-curvature="0"
   style="fill:#3f8ec9" />
		<circle
   class="st3"
   cx="1000.8"
   cy="942.29999"
   r="36.5"
   id="circle14"
   style="fill:#2c7fba" />
		<path
   class="st0"
   d="m 1042.9,856.8 0.1,18.6 c 21.9,13.8 35.7,37.6 36.9,63.4 h 0.1 l -0.5,-82.3 12.2,-0.1 v -6.1 l -60.9,0.4 v 6.1 z"
   id="path16"
   inkscape:connector-curvature="0"
   style="fill:#4499d4" />
		<path
   class="st2"
   d="m 1042.9,867.4 v 8 c 21.9,13.8 35.7,37.6 36.9,63.4 h 0.1 l -0.2,-36.7 c -6.3,-12.5 -17.9,-29 -36.8,-34.7 z"
   id="path18"
   inkscape:connector-curvature="0"
   style="fill:#3f8ec9" />
		<path
   class="st3"
   d="m 940.4,1021.9 h -6.1 L 934,979.2 h 6.1 z"
   id="path20"
   inkscape:connector-curvature="0"
   style="fill:#2c7fba" />
		<path
   class="st3"
   d="M 1079.5,868.8 1043,869 v -6.1 l 36.5,-0.2 z"
   id="path22"
   inkscape:connector-curvature="0"
   style="fill:#2c7fba" />
		<path
   class="st3"
   d="m 1068.2,1009 h -6.1 v -6.1 h 6.1 z"
   id="path24"
   inkscape:connector-curvature="0"
   style="fill:#2c7fba" />
		<path
   class="st3"
   d="m 939.5,881.8 h -6.1 v -6.1 h 6.1 z"
   id="path26"
   inkscape:connector-curvature="0"
   style="fill:#2c7fba" />
		<path
   class="st1"
   d="m 1064.8,941.9 h 6.1 c 0.2,38.7 -31,70.2 -69.6,70.5 v -6.1 c 35.2,-0.3 63.6,-29 63.5,-64.4 z"
   id="path28"
   inkscape:connector-curvature="0"
   style="fill:#64a9d9" />
		<path
   class="st1"
   d="M 995.1,1012.5 H 989 v -6.1 h 6.1 z"
   id="path30"
   inkscape:connector-curvature="0"
   style="fill:#64a9d9" />
		<path
   class="st3"
   d="m 1022.1,942.2 -15.2,0.1 c 0,1.6 -0.6,3.1 -1.7,4.3 l 10.9,10.7 c 2.7,2.7 6.5,3.9 10.4,3.4 l 6.7,-1 c 4.6,-8.5 5.7,-18.5 2.9,-27.8 l -4,5.4 c -2.5,3.1 -6.1,4.9 -10,4.9 z"
   id="path32"
   inkscape:connector-curvature="0"
   style="fill:#2c7fba" />
		<path
   class="st3"
   d="m 1000.9,965.3 -0.1,-16.9 c -1.6,0 -3.1,-0.6 -4.3,-1.7 l -10.7,10.8 c -2.7,2.7 -3.9,6.5 -3.4,10.4 l 1,6.7 c 8.3,4.5 18,5.6 27.1,3.1 l -2.8,-1.4 c -4.1,-2.3 -6.7,-6.5 -6.8,-11 z"
   id="path34"
   inkscape:connector-curvature="0"
   style="fill:#2c7fba" />
		<path
   class="st3"
   d="m 1000.7,921 0.1,15.2 c 1.6,0 3.1,0.6 4.3,1.7 l 10.7,-10.9 c 2.7,-2.7 3.9,-6.5 3.4,-10.4 l -1,-6.7 c -8.5,-4.6 -18.5,-5.6 -27.8,-2.8 l 5.4,4 c 3,2.5 4.8,6.1 4.9,9.9 z"
   id="path36"
   inkscape:connector-curvature="0"
   style="fill:#2c7fba" />
		<path
   class="st3"
   d="m 965.8,952.8 4,-5.4 c 2.3,-3.1 5.9,-4.9 9.7,-5 l 15.2,-0.1 c 0,-1.6 0.6,-3.1 1.7,-4.3 l -10.9,-10.7 c -2.7,-2.7 -6.5,-3.9 -10.4,-3.4 l -6.7,1 c -4.4,8.6 -5.4,18.6 -2.6,27.9 z"
   id="path38"
   inkscape:connector-curvature="0"
   style="fill:#2c7fba" />
		<path
   class="st4"
   d="m 1016,957.3 -10.9,-10.7 c -1.1,1.2 -2.7,1.8 -4.3,1.8 l 0.1,16.9 c 0,4.6 2.7,8.8 6.8,10.8 l 2.8,1.4 c 9.6,-2.7 17.6,-9.1 22.3,-17.8 l -6.7,1 c -3.6,0.6 -7.4,-0.7 -10.1,-3.4 z"
   id="path40"
   inkscape:connector-curvature="0"
   style="fill:#fdb62d" />
		<path
   class="st4"
   d="m 985.8,957.5 10.7,-10.8 c -1.2,-1.1 -1.8,-2.7 -1.8,-4.3 l -15.2,0.1 c -3.8,0 -7.4,1.9 -9.7,5 l -4,5.4 c 2.7,9.3 9.1,17.1 17.6,21.7 l -1,-6.7 c -0.5,-3.8 0.7,-7.7 3.4,-10.4 z"
   id="path42"
   inkscape:connector-curvature="0"
   style="fill:#fdb62d" />
		<path
   class="st4"
   d="m 1015.8,927.1 -10.7,10.9 c 1.2,1.1 1.8,2.7 1.8,4.3 l 15.2,-0.1 c 3.8,0 7.4,-1.9 9.7,-5 l 4,-5.4 c -2.7,-9.3 -9.1,-17.1 -17.6,-21.7 l 1,6.7 c 0.5,3.8 -0.7,7.6 -3.4,10.3 z"
   id="path44"
   inkscape:connector-curvature="0"
   style="fill:#fdb62d" />
		<path
   class="st4"
   d="m 985.6,927.3 10.9,10.7 c 1.1,-1.2 2.7,-1.8 4.3,-1.8 l -0.1,-15.2 c 0,-3.8 -1.9,-7.4 -5,-9.7 l -5.4,-4 c -9.3,2.7 -17.1,9.1 -21.7,17.6 l 6.7,-1 c 3.7,-0.5 7.5,0.8 10.3,3.4 z"
   id="path46"
   inkscape:connector-curvature="0"
   style="fill:#fdb62d" />
		<circle
   class="st4"
   cx="1000.8"
   cy="942.29999"
   r="6.0999999"
   id="circle48"
   style="fill:#fdb62d" />
		<path
   class="st2"
   d="m 968.8,979.1 c -4,-3.5 -7.4,-7.5 -10.1,-12.1 l -33.2,0.2 c 1.4,4.2 3.1,8.3 5.1,12.2 z"
   id="path50"
   inkscape:connector-curvature="0"
   style="fill:#3f8ec9" />
		<path
   class="st5"
   d="m 916,1025.1 85.3,-0.5 c 12.9,-0.1 25.5,-3.2 36.9,-9.1 l 20.9,6.2 c 9.3,2.7 19,-2.6 21.7,-11.9 1,-3.3 1,-6.7 -0.1,-10 l -6.4,-20.8 c 5.8,-11.5 8.7,-24.2 8.7,-37.1 0,-0.9 0,-1.8 -0.1,-2.7 0,-0.1 0.1,-0.2 0.1,-0.3 l -0.5,-82.3 9.2,-0.1 v -6.1 l -60.9,0.4 v 6.1 l 9.1,-0.1 0.1,13.3 c -23.8,-13 -52.5,-13.2 -76.6,-0.9 L 942.5,863 c -9.3,-2.7 -19,2.6 -21.7,11.9 -1,3.3 -1,6.7 0.1,10 l 6.3,20.8 c -11.1,22.1 -11.5,48 -1.3,70.6 l -10.2,0.1 -0.1,-9.1 h -6.1 l 0.4,67 h 6.1 z m 158.9,-23.5 c 1.9,6 -1.5,12.3 -7.5,14.2 -2.1,0.6 -4.4,0.6 -6.6,0 l -15.3,-4.5 1.4,-0.9 0.5,-0.3 c 8.5,-5.9 15.9,-13.4 21.7,-22 l 0.3,-0.5 c 0.3,-0.5 0.6,-0.9 0.9,-1.4 z m -29,-144.8 30.5,-0.2 v 6.1 l -30.5,0.2 z m 0.1,12.2 30.5,-0.2 0.3,42.1 c -0.8,-1.8 -1.6,-3.7 -2.5,-5.4 l -0.2,-0.2 c -0.9,-1.6 -1.7,-3.2 -2.6,-4.8 -0.1,-0.2 -0.2,-0.4 -0.3,-0.5 -0.9,-1.5 -1.9,-3.1 -2.9,-4.5 -0.2,-0.4 -0.5,-0.7 -0.8,-1.1 -0.8,-1.1 -1.7,-2.3 -2.5,-3.4 -0.3,-0.4 -0.6,-0.8 -0.8,-1.1 -1,-1.2 -2.1,-2.4 -3.2,-3.6 -0.5,-0.5 -0.9,-1 -1.4,-1.4 -0.8,-0.8 -1.7,-1.8 -2.6,-2.5 -0.5,-0.5 -1.2,-1.1 -1.7,-1.6 -1,-0.9 -2.1,-1.7 -3.2,-2.6 -0.5,-0.5 -1.1,-0.8 -1.6,-1.3 -1.3,-1 -2.6,-2 -4,-2.9 l -0.2,-0.2 z m -119.4,14.1 c -1.9,-6 1.5,-12.3 7.6,-14.2 2.1,-0.6 4.4,-0.6 6.6,0 l 15.3,4.5 c -0.5,0.3 -0.9,0.6 -1.4,0.9 l -0.5,0.3 c -8.5,5.9 -15.9,13.4 -21.7,22 l -0.3,0.5 c -0.3,0.5 -0.6,0.9 -0.9,1.4 z m -2,59.7 c -0.1,-12.5 2.9,-24.8 8.7,-35.8 0.7,-1.4 1.4,-2.7 2.3,-4 0.4,-0.5 0.7,-1.1 1.1,-1.7 0.5,-0.8 1.1,-1.5 1.6,-2.3 0.8,-1.1 1.5,-2.2 2.4,-3.2 0.5,-0.5 0.8,-1.2 1.3,-1.7 0.6,-0.8 1.3,-1.5 2,-2.3 l 0.9,-1 c 1.2,-1.3 2.5,-2.6 3.8,-3.9 l 1,-0.9 c 0.8,-0.7 1.5,-1.3 2.3,-2 0.5,-0.5 1.1,-0.9 1.7,-1.3 1,-0.8 2.1,-1.6 3.1,-2.4 0.8,-0.5 1.5,-1.1 2.3,-1.6 0.5,-0.4 1.1,-0.7 1.7,-1.1 1.3,-0.8 2.6,-1.5 4,-2.3 24.5,-13.3 54.3,-12.1 77.6,3.1 0.6,0.5 1.3,0.8 1.9,1.3 0.6,0.5 1.1,0.8 1.6,1.1 0.5,0.4 1.2,0.9 1.8,1.4 0.9,0.8 1.8,1.5 2.8,2.3 0.5,0.5 1,0.8 1.5,1.3 0.5,0.5 1.1,1.1 1.6,1.5 0.5,0.5 0.9,0.8 1.3,1.3 0.5,0.5 1,1.1 1.5,1.6 0.5,0.5 0.9,1 1.4,1.5 0.5,0.5 0.8,1 1.3,1.5 0.8,1 1.7,2.1 2.5,3 0.2,0.2 0.3,0.5 0.5,0.7 0.7,0.9 1.3,1.8 2,2.8 0.2,0.3 0.4,0.6 0.6,0.9 0.6,0.9 1.2,1.8 1.8,2.8 l 0.5,0.8 c 0.6,1.1 1.3,2.3 1.9,3.5 l 0.1,0.2 c 4.8,9.6 7.6,20.1 8,30.9 0,1 0.1,2 0.1,2.9 0.1,12.5 -2.9,24.8 -8.7,35.9 -0.8,1.4 -1.4,2.7 -2.3,4 -0.3,0.5 -0.7,1.2 -1.1,1.7 -0.5,0.8 -1.1,1.5 -1.6,2.3 -0.8,1.1 -1.5,2.2 -2.4,3.2 -0.5,0.5 -0.8,1.1 -1.3,1.7 -0.6,0.8 -1.3,1.5 -2,2.3 l -0.9,1 c -1.2,1.3 -2.5,2.6 -3.8,3.9 l -1,0.9 c -0.8,0.7 -1.5,1.3 -2.3,2 -0.5,0.5 -1.1,0.9 -1.7,1.3 -1,0.8 -2.1,1.6 -3.1,2.4 -0.8,0.5 -1.5,1.1 -2.3,1.6 -0.5,0.4 -1.1,0.7 -1.7,1.1 -1.3,0.8 -2.6,1.5 -4,2.3 -11,6 -23.2,9.1 -35.8,9.2 l -60.9,0.4 -0.2,-36.6 27.5,-0.2 v -0.2 c 21.9,18.4 54.6,15.5 73.1,-6.4 18.4,-21.9 15.5,-54.6 -6.4,-73.1 -21.9,-18.4 -54.6,-15.5 -73.1,6.4 -16.4,19.5 -16.2,48 0.5,67.2 l -29,0.2 c -5.1,-10.4 -7.9,-21.8 -8,-33.4 z m 30.5,-0.2 c -0.2,-25.2 20.2,-45.8 45.5,-45.9 25.2,-0.2 45.8,20.2 45.9,45.5 0.2,25.2 -20.2,45.8 -45.4,45.9 -25.3,0.1 -45.9,-20.2 -46,-45.5 0,0.1 0,0 0,0 z m -39.3,39.9 18.2,-0.1 0.2,36.6 -18.2,0.1 z"
   id="path52"
   inkscape:connector-curvature="0"
   style="fill:#020202" />
		<path
   class="st5"
   d="m 970.1,967.3 c 0.7,0.8 1.4,1.7 2.2,2.4 0.2,0.2 0.3,0.3 0.5,0.5 0.6,0.6 1.3,1.2 2,1.8 0.3,0.2 0.6,0.5 0.9,0.8 0.5,0.5 1.1,0.8 1.7,1.3 0.5,0.5 0.9,0.8 1.5,1.1 0.5,0.3 0.9,0.5 1.4,0.8 0.6,0.4 1.2,0.8 1.8,1.1 0.1,0 0.1,0.1 0.2,0.1 0.2,0.2 0.5,0.2 0.8,0.4 0.8,0.5 1.8,0.9 2.7,1.3 0.4,0.2 0.8,0.3 1.2,0.5 0.8,0.3 1.6,0.6 2.4,0.8 0.5,0.2 0.9,0.2 1.4,0.4 0.8,0.2 1.5,0.5 2.3,0.6 0.5,0.1 1.1,0.1 1.6,0.3 0.8,0.1 1.5,0.2 2.2,0.3 0.6,0.1 1.2,0.1 1.8,0.1 0.6,0 1.3,0.1 2,0.1 0.2,0 0.4,0 0.6,0 0.6,0 1.1,-0.1 1.7,-0.1 0.5,0 0.9,0 1.4,-0.1 1,-0.1 2,-0.2 3,-0.4 l 0.7,-0.1 c 1.1,-0.2 2.3,-0.5 3.4,-0.8 0.1,0 0.2,0 0.2,-0.1 h 0.1 c 1.1,-0.3 2.4,-0.7 3.5,-1.2 l 0.3,-0.1 c 1.1,-0.5 2.2,-0.9 3.4,-1.5 0.1,-0.1 0.2,-0.1 0.3,-0.2 1.1,-0.5 2.1,-1.2 3.1,-1.8 l 0.4,-0.2 c 0.9,-0.6 1.8,-1.3 2.7,-1.9 0.2,-0.2 0.3,-0.2 0.5,-0.4 0.8,-0.6 1.5,-1.3 2.3,-2 0.2,-0.2 0.5,-0.5 0.7,-0.6 0.6,-0.6 1.2,-1.2 1.8,-1.9 l 0.9,-1 c 0.5,-0.5 0.9,-1.2 1.3,-1.8 0.4,-0.6 0.8,-0.9 1.1,-1.4 0.3,-0.5 0.7,-1.1 1,-1.7 0.3,-0.5 0.7,-1 0.9,-1.5 l 0.1,-0.2 c 0.7,-1.3 1.3,-2.7 1.9,-4.1 0.2,-0.4 0.3,-0.8 0.4,-1.2 0.4,-1.1 0.8,-2.1 1.1,-3.2 0.2,-0.5 0.2,-0.8 0.3,-1.3 0.2,-1.1 0.4,-2.2 0.6,-3.4 0.1,-0.4 0.1,-0.8 0.1,-1.2 0.1,-1.5 0.3,-3.1 0.3,-4.6 0,-1.1 -0.1,-2.3 -0.2,-3.5 0,-0.5 -0.1,-0.8 -0.2,-1.3 -0.1,-0.7 -0.2,-1.4 -0.3,-2.1 -0.2,-0.8 -0.3,-1.7 -0.6,-2.4 -0.2,-0.6 -0.3,-1.1 -0.5,-1.8 v -0.1 c -0.3,-1.1 -0.7,-2.1 -1.2,-3.2 -0.1,-0.2 -0.1,-0.3 -0.2,-0.5 -0.5,-1.1 -0.9,-2.2 -1.6,-3.2 -0.1,-0.1 -0.1,-0.2 -0.2,-0.2 -0.6,-1.1 -1.2,-2.1 -1.9,-3.2 0,-0.1 -0.1,-0.1 -0.1,-0.2 -0.7,-1 -1.4,-2 -2.2,-2.9 l -0.2,-0.2 c -0.7,-0.8 -1.5,-1.7 -2.2,-2.4 -0.2,-0.2 -0.2,-0.3 -0.4,-0.5 -0.6,-0.7 -1.4,-1.3 -2.1,-1.9 -0.3,-0.2 -0.5,-0.5 -0.8,-0.8 -0.5,-0.5 -1.2,-0.9 -1.7,-1.3 -0.6,-0.5 -0.9,-0.7 -1.4,-1.1 -0.5,-0.3 -0.9,-0.6 -1.4,-0.8 -0.6,-0.4 -1.2,-0.8 -1.8,-1.1 l -0.2,-0.1 c -1.3,-0.7 -2.7,-1.3 -4.1,-1.9 -0.4,-0.2 -0.8,-0.3 -1.2,-0.4 -1.1,-0.4 -2.1,-0.8 -3.2,-1.1 -0.5,-0.2 -0.8,-0.2 -1.3,-0.3 -1.2,-0.2 -2.2,-0.4 -3.4,-0.6 -0.4,-0.1 -0.8,-0.1 -1.2,-0.1 -1.5,-0.1 -3.1,-0.3 -4.6,-0.3 -1.1,0 -2.3,0.1 -3.4,0.2 -0.5,0 -0.8,0.1 -1.3,0.2 -0.7,0.1 -1.4,0.2 -2.1,0.3 -0.8,0.2 -1.7,0.3 -2.4,0.6 -0.6,0.2 -1.1,0.3 -1.8,0.5 h -0.1 c -1.1,0.3 -2.1,0.7 -3.2,1.2 -0.2,0.1 -0.3,0.1 -0.5,0.2 -1.1,0.5 -2.1,0.9 -3.2,1.5 l -0.2,0.2 c -1.1,0.5 -2.1,1.2 -3.1,1.9 -0.1,0 -0.2,0.1 -0.2,0.1 -1,0.6 -1.9,1.4 -2.9,2.1 l -0.2,0.2 c -0.8,0.7 -1.6,1.4 -2.4,2.2 -0.2,0.2 -0.4,0.3 -0.5,0.5 -0.6,0.6 -1.2,1.3 -1.8,1.9 -0.3,0.3 -0.6,0.6 -0.8,0.9 -0.4,0.5 -0.8,1.1 -1.2,1.6 -0.5,0.5 -0.8,1 -1.1,1.5 -0.2,0.4 -0.5,0.8 -0.8,1.2 -0.4,0.6 -0.8,1.3 -1.2,1.9 0,0.1 0,0.1 -0.1,0.2 -0.7,1.3 -1.3,2.7 -1.9,4.1 -0.2,0.4 -0.3,0.8 -0.5,1.2 -0.4,1.1 -0.8,2.1 -1.1,3.2 -0.2,0.5 -0.2,0.8 -0.3,1.3 -0.2,1.2 -0.4,2.2 -0.6,3.4 -0.1,0.4 -0.1,0.8 -0.1,1.2 -0.1,1.5 -0.3,3.1 -0.3,4.6 0,1.1 0.1,2.3 0.2,3.4 0,0.5 0.1,0.8 0.2,1.3 0.1,0.7 0.2,1.4 0.3,2.1 0.2,0.8 0.3,1.7 0.6,2.4 0.2,0.6 0.3,1.1 0.5,1.8 v 0.1 c 0.3,1.1 0.7,2.1 1.2,3.2 0.1,0.2 0.1,0.3 0.2,0.5 0.5,1.1 1,2.1 1.6,3.2 0.1,0.1 0.1,0.2 0.2,0.2 0.6,1.1 1.2,2.1 1.9,3.2 0,0.1 0.1,0.1 0.1,0.2 0.7,1 1.4,2 2.2,2.9 -0.3,0 -0.2,0.1 -0.2,0.2 z m 31.6,8.5 c -0.8,0 -1.8,0 -2.6,-0.1 -0.5,0 -0.9,0 -1.3,-0.1 -1.2,-0.1 -2.5,-0.3 -3.6,-0.5 -0.3,-0.1 -0.6,-0.1 -0.9,-0.2 -0.9,-0.2 -1.8,-0.4 -2.7,-0.7 -0.4,-0.2 -0.8,-0.3 -1.2,-0.5 -0.8,-0.3 -1.5,-0.6 -2.3,-1 l -0.7,-0.4 -0.7,-5.1 c -0.4,-2.8 0.5,-5.7 2.6,-7.8 l 8.9,-9 c 0.1,0.1 0.2,0.1 0.3,0.2 l 0.2,0.1 0.4,0.2 0.1,14.3 c 0,0.9 0.1,1.8 0.2,2.7 0,0.2 0.1,0.5 0.2,0.7 0.2,0.7 0.3,1.3 0.6,1.9 0.1,0.2 0.2,0.4 0.2,0.6 0.3,0.8 0.7,1.5 1.2,2.3 0.1,0.2 0.2,0.3 0.3,0.5 0.4,0.5 0.8,1.1 1.3,1.6 0.1,0.1 0.2,0.2 0.2,0.3 z m 1.5,-31.6 c -0.2,0.2 -0.4,0.5 -0.6,0.6 -0.2,0.2 -0.4,0.3 -0.5,0.4 -0.9,0.5 -2.1,0.3 -2.9,-0.4 -0.3,-0.2 -0.5,-0.5 -0.7,-0.7 -0.8,-1 -0.9,-2.4 0,-3.4 0.2,-0.3 0.5,-0.5 0.7,-0.7 0.8,-0.7 2,-0.9 2.9,-0.4 0.2,0.1 0.4,0.2 0.5,0.4 0.2,0.2 0.5,0.4 0.6,0.6 0.2,0.2 0.3,0.4 0.4,0.6 0.3,0.8 0.3,1.6 0,2.4 -0.1,0.1 -0.3,0.3 -0.4,0.6 z m 23.1,19.8 c -0.9,1 -1.8,2 -2.8,2.9 -0.2,0.2 -0.3,0.3 -0.5,0.5 -2.3,2 -4.9,3.8 -7.6,5.1 l -0.2,0.1 c -1.5,0.7 -2.9,1.2 -4.4,1.7 l -1.8,-0.9 c -3.1,-1.5 -5.1,-4.6 -5.1,-8.2 l -0.1,-14.3 0.5,-0.2 0.2,-0.1 0.3,-0.2 9,8.9 c 0.7,0.6 1.4,1.2 2.2,1.7 l 0.4,0.2 c 0.8,0.5 1.5,0.8 2.3,1.2 l 0.4,0.2 c 0.8,0.3 1.7,0.6 2.6,0.8 h 0.2 c 0.8,0.1 1.8,0.2 2.6,0.2 0.1,0 0.2,0 0.2,0 h 0.2 c 0.4,0 0.8,0 1.1,-0.1 0.2,0 0.4,0 0.5,0 -0.1,0.4 -0.1,0.4 -0.2,0.5 z m 7.3,-24.1 c 0.2,-0.2 0.4,-0.4 0.5,-0.6 0.1,1 0.2,1.9 0.2,2.9 0,1.2 -0.1,2.5 -0.2,3.7 0,0.3 -0.1,0.6 -0.1,0.9 -0.1,0.9 -0.3,1.8 -0.4,2.7 -0.1,0.4 -0.1,0.7 -0.3,1.1 -0.2,0.8 -0.4,1.6 -0.7,2.4 -0.2,0.4 -0.3,0.8 -0.5,1.2 -0.2,0.7 -0.5,1.4 -0.9,2.1 -0.2,0.2 -0.2,0.5 -0.4,0.8 l -5.1,0.7 c -2.8,0.4 -5.7,-0.5 -7.8,-2.6 l -9,-8.9 c 0.1,-0.1 0.1,-0.2 0.2,-0.3 l 0.1,-0.2 c 0.1,-0.2 0.2,-0.3 0.2,-0.4 l 12.7,-0.1 c 0.6,0 1.1,0 1.8,-0.1 0.2,0 0.4,-0.1 0.6,-0.1 0.4,-0.1 0.8,-0.1 1.1,-0.2 0.2,-0.1 0.5,-0.2 0.7,-0.2 0.2,-0.1 0.7,-0.2 1,-0.3 0.2,-0.1 0.5,-0.2 0.7,-0.3 0.3,-0.2 0.6,-0.2 0.9,-0.4 0.3,-0.2 0.5,-0.2 0.7,-0.4 0.2,-0.2 0.5,-0.3 0.8,-0.5 0.3,-0.2 0.5,-0.3 0.7,-0.5 0.2,-0.2 0.5,-0.4 0.8,-0.5 0.2,-0.2 0.4,-0.4 0.6,-0.5 0.2,-0.2 0.5,-0.4 0.7,-0.6 0.1,-0.4 0.2,-0.6 0.4,-0.8 z M 1019.1,928 c 0.1,-0.2 0.2,-0.3 0.3,-0.5 0.2,-0.3 0.5,-0.6 0.7,-1 0.1,-0.2 0.2,-0.4 0.3,-0.5 0.2,-0.3 0.4,-0.6 0.5,-1 0.1,-0.2 0.2,-0.5 0.2,-0.6 0.1,-0.2 0.3,-0.6 0.4,-1 0.2,-0.3 0.2,-0.5 0.1,-0.7 0.1,-0.2 0.1,-0.6 0.2,-1 0.1,-0.3 0.1,-0.5 0.1,-0.8 0.1,-0.3 0.1,-0.6 0.1,-1 0.1,-0.3 0,-0.5 0,-0.8 0,-0.2 0.1,-0.6 0.1,-1 0,-0.4 -0.1,-0.5 -0.1,-0.8 0,-0.3 0,-0.5 -0.1,-0.8 l 0.2,0.2 c 1,0.8 1.9,1.7 2.8,2.7 l 0.5,0.5 c 1.9,2.1 3.6,4.5 4.9,7 0.1,0.2 0.2,0.2 0.2,0.4 0.6,1.2 1.1,2.4 1.6,3.7 0,0.1 0.1,0.2 0.1,0.2 l -3,4.1 c -1.7,2.3 -4.4,3.7 -7.3,3.7 l -12.7,0.1 c -0.1,-0.2 -0.2,-0.3 -0.2,-0.4 l -0.1,-0.2 c 0,-0.1 -0.1,-0.2 -0.2,-0.3 l 8.9,-9 c 0.7,-0.3 1,-0.7 1.5,-1.2 z m -20.8,-19.1 c 1.1,-0.1 2.2,-0.1 3.4,-0.1 0.5,0 0.8,0 1.3,0.1 1.1,0.1 2.1,0.2 3.2,0.4 0.2,0.1 0.5,0.1 0.8,0.1 1.3,0.2 2.7,0.6 4,1 0.3,0.1 0.5,0.2 0.8,0.3 1,0.4 2,0.8 3,1.2 l 0.6,0.3 0.7,5.1 c 0.4,2.8 -0.5,5.7 -2.6,7.8 l -8.9,9 -0.3,-0.2 -0.2,-0.1 c -0.2,-0.1 -0.3,-0.2 -0.5,-0.2 l -0.1,-12.7 c 0,-0.6 0,-1.1 -0.1,-1.8 0,-0.2 -0.1,-0.4 -0.1,-0.6 -0.1,-0.4 -0.2,-0.8 -0.2,-1.1 -0.1,-0.2 -0.2,-0.5 -0.2,-0.7 -0.1,-0.3 -0.2,-0.7 -0.3,-1 -0.1,-0.2 -0.2,-0.5 -0.3,-0.7 -0.1,-0.2 -0.2,-0.6 -0.4,-0.9 -0.2,-0.3 -0.2,-0.5 -0.4,-0.7 -0.2,-0.2 -0.3,-0.5 -0.5,-0.8 -0.2,-0.3 -0.3,-0.5 -0.5,-0.7 -0.2,-0.2 -0.4,-0.5 -0.5,-0.8 -0.2,-0.2 -0.4,-0.4 -0.5,-0.6 -0.1,-0.2 -0.4,-0.5 -0.6,-0.7 -0.2,-0.2 -0.4,-0.4 -0.6,-0.5 -0.2,-0.2 -0.4,-0.4 -0.6,-0.5 0.1,0.1 0.4,0.1 0.6,0.1 z m -23,11.8 c 0.8,-0.9 1.7,-1.8 2.6,-2.7 l 0.5,-0.5 c 2.1,-1.9 4.5,-3.6 7,-4.8 l 0.4,-0.2 c 1.2,-0.6 2.4,-1.1 3.7,-1.6 0.1,0 0.2,-0.1 0.2,-0.1 l 4.1,3 c 2.3,1.7 3.7,4.4 3.7,7.3 l 0.1,12.6 c -0.2,0.1 -0.3,0.1 -0.4,0.2 L 997,934 c -0.1,0.1 -0.2,0.1 -0.3,0.2 l -9,-8.9 c -0.7,-0.6 -1.4,-1.2 -2.2,-1.7 l -0.3,-0.2 c -0.8,-0.5 -1.5,-0.8 -2.3,-1.2 l -0.4,-0.2 c -0.8,-0.3 -1.7,-0.6 -2.5,-0.8 h -0.2 C 979,921.1 978,921 977.1,921 h -0.2 c -0.6,0 -1.2,0 -1.8,0.2 0.1,-0.3 0.1,-0.5 0.2,-0.5 z m -7.3,24.1 c -0.2,0.2 -0.4,0.4 -0.5,0.6 -0.1,-0.9 -0.2,-1.9 -0.2,-2.8 0,-1.2 0.1,-2.5 0.2,-3.7 0,-0.3 0.1,-0.6 0.1,-0.9 0.1,-0.9 0.2,-1.8 0.4,-2.7 0.1,-0.4 0.1,-0.8 0.3,-1.1 0.2,-0.8 0.4,-1.6 0.7,-2.4 0.2,-0.4 0.3,-0.8 0.5,-1.2 0.2,-0.7 0.5,-1.4 0.8,-2.1 l 0.4,-0.8 5.1,-0.7 c 2.8,-0.4 5.7,0.5 7.8,2.6 l 9,9 c -0.1,0.1 -0.1,0.2 -0.2,0.3 l -0.1,0.2 c -0.1,0.2 -0.2,0.3 -0.2,0.5 l -12.7,0.1 c -0.6,0 -1.1,0 -1.8,0.1 -0.2,0 -0.4,0.1 -0.6,0.1 -0.4,0.1 -0.8,0.2 -1.1,0.2 -0.2,0.1 -0.5,0.2 -0.7,0.2 -0.3,0.1 -0.7,0.2 -1,0.3 -0.2,0.1 -0.5,0.2 -0.7,0.3 -0.2,0.1 -0.6,0.2 -0.9,0.4 -0.3,0.2 -0.5,0.2 -0.7,0.4 -0.2,0.2 -0.5,0.3 -0.8,0.5 -0.2,0.2 -0.5,0.3 -0.7,0.5 -0.2,0.2 -0.5,0.4 -0.8,0.5 -0.2,0.2 -0.4,0.4 -0.6,0.5 -0.2,0.2 -0.5,0.4 -0.7,0.6 -0.1,0.1 -0.2,0.3 -0.3,0.5 z m 1.2,8.5 3,-4.1 c 1.7,-2.3 4.4,-3.7 7.3,-3.7 l 12.7,-0.1 c 0.1,0.2 0.2,0.3 0.2,0.5 l 0.1,0.2 c 0.1,0.1 0.1,0.2 0.2,0.3 l -8.9,9 c -0.4,0.4 -0.8,0.8 -1.1,1.3 -0.2,0.2 -0.2,0.4 -0.4,0.5 -0.2,0.3 -0.5,0.6 -0.6,0.9 -0.2,0.3 -0.2,0.5 -0.4,0.6 -0.2,0.2 -0.3,0.6 -0.5,0.9 -0.2,0.3 -0.2,0.5 -0.3,0.7 -0.1,0.2 -0.2,0.6 -0.4,0.9 -0.1,0.3 -0.2,0.5 -0.2,0.8 0,0.3 -0.1,0.6 -0.2,0.9 -0.1,0.3 -0.1,0.5 -0.1,0.8 -0.1,0.2 -0.1,0.6 -0.1,0.9 0,0.3 0,0.5 0,0.8 0,0.3 0,0.6 0,1 0.1,0.3 0.1,0.5 0.1,0.8 0,0.2 0,0.5 0.1,0.8 l -0.2,-0.2 c -0.9,-0.8 -1.8,-1.7 -2.7,-2.6 -0.2,-0.2 -0.3,-0.4 -0.5,-0.5 -1.9,-2.1 -3.6,-4.5 -4.9,-7 -0.1,-0.2 -0.2,-0.2 -0.2,-0.4 -0.6,-1.2 -1.1,-2.4 -1.6,-3.7 -0.3,-0.1 -0.3,-0.2 -0.4,-0.3 z"
   id="path54"
   inkscape:connector-curvature="0"
   style="fill:#020202" />
		<path
   class="st5"
   d="m 1068.2,1009 h -6.1 v -6.1 h 6.1 z"
   id="path56"
   inkscape:connector-curvature="0"
   style="fill:#020202" />
		<path
   class="st5"
   d="m 939.5,881.8 h -6.1 v -6.1 h 6.1 z"
   id="path58"
   inkscape:connector-curvature="0"
   style="fill:#020202" />
		<path
   class="st5"
   d="m 1001.2,1006.3 v 6.1 c 38.7,-0.3 69.8,-31.8 69.6,-70.5 h -6.1 c 0.2,35.4 -28.3,64.1 -63.5,64.4 z"
   id="path60"
   inkscape:connector-curvature="0"
   style="fill:#020202" />
		<path
   class="st5"
   d="M 995.1,1012.5 H 989 v -6.1 h 6.1 z"
   id="path62"
   inkscape:connector-curvature="0"
   style="fill:#020202" />
	</g>
</g>
<polygon
   class="st6"
   points="149.4,957.8 149.4,758 661.4,758 661.4,957.8 617.3,987.8 194.4,987.8 "
   id="polygon66"
   style="fill:#ede9e8"
   transform="translate(-149.36867,-141.8)" />
<polygon
   class="st7"
   points="420.4,758 661.4,758 661.4,957.8 617.3,987.8 420.4,987.8 "
   id="polygon68"
   style="fill:#dfd7d5"
   transform="translate(-149.36867,-141.8)" />
<path
   class="st8"
   d="m 512.03133,816 v 75 l -34.5,27 H 34.531328 L 0.03132807,891 v -75 c 1.20000003,0.9 2.10000003,1.8 3.30000003,2.4 10.4999999,4.8 23.0999999,2.7 31.1999999,-5.4 22.2,-22.5 59.8,-22.5 82.000002,0 10.8,10.8 28.2,10.8 39,0 22.2,-22.5 58.8,-22.5 81,0 9.3,9.3 23.7,10.5 34.5,3.9 1.5,-1.2 3,-2.4 4.5,-3.9 22.2,-22.5 58.8,-22.5 81,0 10.5,10.5 28.5,10.5 39,0 22.2,-22.5 59.8,-22.5 82,0 7.5,7.5 18.6,9.9 28.5,6.6 2.4,-0.9 4.2,-2.4 6,-3.6 z"
   id="path70"
   inkscape:connector-curvature="0"
   style="fill:#8fe1ff" />
<g
   id="g76"
   transform="translate(-149.36867,-141.8)">
	<path
   class="st9"
   d="m 661.4,957.8 v 75 l -34.5,27 H 420.4 V 958.7 c 1.5,-1.2 3,-2.4 4.5,-3.9 22.2,-22.5 58.8,-22.5 81,0 10.5,10.5 28.5,10.5 39,0 22.2,-22.5 59.8,-22.5 82,0 7.5,7.5 18.6,9.9 28.5,6.6 2.4,-0.9 4.2,-2.4 6,-3.6 z"
   id="path72"
   inkscape:connector-curvature="0"
   style="fill:#73bcff" />
	<path
   class="st9"
   d="m 661.4,1032.8 c 0,0 0,81 0,85.2 h -512 c 0,0 0,-80.4 0,-85.2 1.2,0.9 2.1,1.8 3.3,2.4 10.5,4.8 23.1,2.7 31.2,-5.4 22.2,-22.5 59.8,-22.5 82,0 10.8,10.8 28.2,10.8 39,0 22.2,-22.5 58.8,-22.5 81,0 9.3,9.3 23.7,10.5 34.5,3.9 1.5,-1.2 3,-2.4 4.5,-3.9 22.2,-22.5 58.8,-22.5 81,0 10.5,10.5 28.5,10.5 39,0 22.2,-22.5 59.8,-22.5 82,0 7.5,7.5 18.6,9.9 28.5,6.6 2.4,-0.9 4.2,-2.4 6,-3.6 z"
   id="path74"
   inkscape:connector-curvature="0"
   style="fill:#73bcff" />
</g>
<path
   class="st10"
   d="m 512.03133,891 c 0,0 0,81 0,85.2 h -241 v -84.3 c 1.5,-1.2 3,-2.4 4.5,-3.9 22.2,-22.5 58.8,-22.5 81,0 10.5,10.5 28.5,10.5 39,0 22.2,-22.5 59.8,-22.5 82,0 7.5,7.5 18.6,9.9 28.5,6.6 2.4,-0.9 4.2,-2.4 6,-3.6 z"
   id="path78"
   inkscape:connector-curvature="0"
   style="fill:#3a96ff" />
<g
   transform="translate(-148.36867,-140.8)"
   id="g90">
	<g
   id="g88">
		<g
   id="g86">
			<path
   class="st11"
   d="m 1808.8,692.1 v 8.5 c 0,9.4 5.2,17.1 11.6,17.1 h 0.3 l 8.5,211.4 c -0.1,0.6 -0.1,1.2 -0.1,1.9 0,1.1 0.1,2.1 0.3,3 l 2,49.9 c 0.6,13.7 8.1,23.9 17.4,23.9 h 151.8 c 9.3,0 16.8,-10.2 17.4,-24.7 l 2,-49.2 c 0.2,-0.9 0.3,-1.9 0.3,-2.9 0,-0.7 -0.1,-1.4 -0.1,-2.1 l 1.2,-30.6 c 0,-0.5 0.1,-0.9 0.1,-1.4 0,-0.1 0,-0.1 0,-0.2 l 7.2,-179 h 0.3 c 6.4,0 11.6,-7.7 11.6,-17.1 v -8.5 m -30.2,196.3 h -33.5 c -3.5,0 -5.8,3.4 -5.8,8.5 0,5.1 2.3,8.5 5.8,8.5 h 32.8 l -0.7,17.1 h -20.5 c -3.5,0 -5.8,3.4 -5.8,8.5 0,5.1 2.3,8.5 5.8,8.5 h 19.8 l -0.7,17.1 h -7.5 c -3.5,0 -5.8,3.4 -5.8,8.5 0,5.1 2.3,8.5 5.8,8.5 h 6.8 l -0.4,9.4 c 0,4.3 -2.9,7.7 -5.8,7.7 h -151.8 c -2.9,0 -5.8,-3.4 -5.8,-7.7 l -0.4,-9.4 h 29.9 c 3.5,0 5.8,-3.4 5.8,-8.5 0,-5.1 -2.3,-8.5 -5.8,-8.5 H 1842 l -0.7,-17.1 h 19.7 c 3.5,0 5.8,-3.4 5.8,-8.5 0,-5.1 -2.3,-8.5 -5.8,-8.5 h -20.3 l -0.7,-17.1 h 9.4 c 3.5,0 5.8,-3.4 5.8,-8.5 0,-5.1 -2.3,-8.5 -5.8,-8.5 h -10.1 l -6.7,-170.7 h 184.9 z M 2029,700.7 h -5.8 -197 -5.8 V 666.6 H 2029 Z m 11.6,-25.6 v -8.5 c 0,-9.4 -5.2,-17.1 -11.6,-17.1 h -208.6 c -6.4,0 -11.6,7.7 -11.6,17.1 v 8.5"
   id="path80"
   inkscape:connector-curvature="0"
   style="fill:#707070" />
			<path
   class="st11"
   d="m 1878.4,820.1 h 92.7 c 3.5,0 5.8,-3.4 5.8,-8.5 v -68.3 c 0,-5.1 -2.3,-8.5 -5.8,-8.5 h -92.7 c -3.5,0 -5.8,3.4 -5.8,8.5 v 68.3 c 0,5.1 2.3,8.5 5.8,8.5 z m 5.8,-68.2 h 81.1 v 51.2 h -81.1 z"
   id="path82"
   inkscape:connector-curvature="0"
   style="fill:#707070" />
			<path
   class="st11"
   d="m 1947.9,768.9 h -46.4 c -3.5,0 -5.8,3.4 -5.8,8.5 0,5.1 2.3,8.5 5.8,8.5 h 46.4 c 3.5,0 5.8,-3.4 5.8,-8.5 0,-5.1 -2.3,-8.5 -5.8,-8.5 z"
   id="path84"
   inkscape:connector-curvature="0"
   style="fill:#707070" />
		</g>
	</g>
</g>
<rect
   x="1001.0314"
   y="516.29999"
   class="st12"
   width="213.89999"
   height="49.599998"
   id="rect92"
   style="fill:#c7c9c7" />
<rect
   x="1891.2313"
   y="520.20001"
   class="st12"
   width="252.8"
   height="46.5"
   id="rect94"
   style="fill:#c7c9c7" />
<path
   class="st13"
   d="m 2082.5313,450.4 c 0.9,-24.6 -18.2,-45.3 -42.8,-46.2 -24.6,-0.9 -45.3,18.2 -46.2,42.8 -0.9,24.6 18.2,45.3 42.8,46.2 24.7,0.9 45.3,-18.2 46.2,-42.8"
   id="path96"
   inkscape:connector-curvature="0"
   style="fill:#e8edee" />
<path
   class="st14"
   d="m 2068.8313,449.8 c 0.7,-17.1 -12.5,-31.3 -29.6,-32 -17.1,-0.7 -31.3,12.5 -32,29.6 -0.7,17.1 12.5,31.3 29.6,32 17.2,0.7 31.4,-12.5 32,-29.6"
   id="path98"
   inkscape:connector-curvature="0"
   style="fill:#ffffff" />
<path
   class="st15"
   d="m 2016.0313,470.1 c 5.3,5.3 12.7,9.1 20.9,9.4 8.2,0.3 15.9,-2.8 21.6,-7.7 -5.3,-5.3 -12.7,-9.1 -20.9,-9.4 -8.3,-0.4 -16,2.8 -21.6,7.7"
   id="path100"
   inkscape:connector-curvature="0"
   style="fill:#e15649" />
<path
   class="st16"
   d="m 2037.9313,452.1 c -1,0 -1.7,-0.4 -2.4,-1.1 -1.3,-1.4 -1.2,-3.5 0.2,-4.8 l 10.7,-9.9 c 1.4,-1.3 3.5,-1.2 4.8,0.2 1.3,1.4 1.2,3.5 -0.2,4.8 l -10.7,9.9 c -0.7,0.6 -1.4,0.9 -2.4,0.9"
   id="path102"
   inkscape:connector-curvature="0"
   style="fill:#556080" />
<path
   class="st17"
   d="m 2036.0313,493.2 c -3.4,0 -6.8,-0.4 -10.3,-1.4 l -0.2,21.9 20.6,0.2 0.2,-21.9 c -3.4,0.9 -6.8,1.2 -10.3,1.2"
   id="path104"
   inkscape:connector-curvature="0"
   style="fill:#c7cbc7" />
<g
   id="g112"
   transform="translate(-149.36867,-141.8)">
	<path
   class="st16"
   d="m 2218,588.2 -6.5,-0.2 c -2.1,-0.1 -3.5,1.2 -3.6,3.3 -0.1,2.1 1.2,3.5 3.3,3.6 l 6.5,0.2 c 0,-1 0.4,-2.4 0.5,-3.4 0.1,-1.1 0.1,-2.5 -0.2,-3.5"
   id="path106"
   inkscape:connector-curvature="0"
   style="fill:#556080" />
	<path
   class="st16"
   d="m 2188.6,559.6 c -1,0 -2.4,-0.1 -3.4,0.2 l -0.2,6.5 c -0.1,2.1 1.2,3.5 3.3,3.6 2.1,0.1 3.5,-1.2 3.6,-3.3 l 0.2,-6.5 c -1.1,-0.4 -2.5,-0.4 -3.5,-0.5"
   id="path108"
   inkscape:connector-curvature="0"
   style="fill:#556080" />
	<path
   class="st16"
   d="m 2163.6,586.1 -6.5,-0.2 c 0,1 -0.4,2.4 -0.5,3.4 0,1 -0.1,2.4 0.2,3.4 l 6.5,0.2 c 2.1,0.1 3.5,-1.2 3.6,-3.3 0.1,-2 -1.2,-3.4 -3.3,-3.5"
   id="path110"
   inkscape:connector-curvature="0"
   style="fill:#556080" />
</g>
<g
   id="Page-1_1_"
   transform="translate(-149.36867,-141.8)">
	<path
   id="Shape_8_"
   class="st18"
   d="m 1585.4,811.6 h -24.7 c -47.7,-9.3 -96.2,-9.7 -144.1,-1.4 l -7.8,1.4 h -20.3 c -3.7,-0.1 -6.9,1.8 -8.1,4.8 -1.2,3 -0.2,6.2 2.7,8.2 9.8,6.6 26.1,20.2 26.1,37.9 0.7,49.1 6,98 15.7,145.8 l 1,4.9 c 1.2,5.3 6.5,9 12.6,9 0.1,0 33.6,0 100.5,0 6.2,0 11.8,-3.7 13,-9.1 l 1,-4.9 c 10.3,-52.8 15.6,-106.8 15.7,-160.3 h 4.2 c 2.3,0 4.2,1.6 4.2,3.6 v 47.9 c 0,16.9 0.7,30.6 8.4,46.1 1.5,3 8,7.7 11.7,7.7 5.1,0 9.2,-3.6 9.2,-8 V 829.7 c -0.1,-10 -9.5,-18.1 -21,-18.1 z m -64.4,1.6 c -7,3.1 -18,5.6 -32.1,5.6 -14.5,0 -26.2,-2.7 -33.3,-6.2 21.9,-1.6 43.7,-1.4 65.4,0.6 z m 23.7,193.8 -1,4.8 c -0.4,1.9 -2.3,3.1 -4.6,3.2 h -100.4 c -2.3,0.2 -4.1,-1.3 -4.5,-3.1 l -1,-4.9 c -2.5,-12.5 -4.7,-25 -6.7,-37.6 12.2,4.2 29.7,9.3 43,9.3 11.9,0 21.5,-2.2 29.9,-4 7.3,-1.6 14.2,-3.2 21.6,-3.2 9.9,0.4 19.7,1.6 29.3,3.5 -1.7,10.6 -3.5,21.3 -5.6,32 z m 6.7,-39.4 c -9.9,-1.9 -20,-3.1 -30.2,-3.5 -8.7,0 -16.1,1.7 -24,3.4 -8.3,1.9 -16.9,3.8 -27.8,3.8 -13.9,0 -34.3,-6.7 -44.2,-10.3 -4.6,-32.7 -7.2,-65.7 -7.6,-98.6 0,-0.2 0,-0.3 -0.1,-0.5 -0.1,-5 -1.1,-9.7 -3,-14.1 h 15.6 v 25.4 c 0,12.8 11,23.4 25.2,25.2 v 40.2 c 0,6 5.6,10.9 12.6,10.9 h 41.9 c 6.9,0 12.6,-4.9 12.6,-10.9 v -40.2 c 14.2,-1.8 25.2,-12.4 25.2,-25.2 v -25.4 h 12.6 c 0,40 -3,80.1 -8.8,119.8 z M 1450.1,847.9 h 89.1 v 25.4 c 0,10 -9.4,18.2 -21,18.2 h -58.7 c -11.6,0 -21,-8.1 -21,-18.2 v -25.4 z m 64,50.8 v 39.9 c 0,2 -1.9,3.6 -4.2,3.6 H 1468 c -2.3,0 -4.2,-1.6 -4.2,-3.6 v -39.9 z m 83.9,46.5 c 0,0.7 -1.3,0.9 -1.7,0.3 -7.3,-14.7 -10.9,-30.2 -10.9,-46.1 v -47.9 c 0,-6 -5.6,-10.9 -12.6,-10.9 h -8.4 -21 -109.1 -21 -2.6 c -5.9,-9.2 -14.6,-16.5 -22.4,-21.8 h 20.7 c 0.3,0 0.6,0 0.9,-0.1 l 8.2,-1.4 c 8.5,-1.5 17.1,-2.7 25.6,-3.6 7.6,7.5 25.2,12.4 45.1,12.4 19.3,0 36.3,-4.5 44.2,-11.5 8.7,1.1 17.4,2.5 26.1,4.2 0.6,0.1 0.8,0.1 0.9,0.1 h 25.2 c 6.9,0 12.6,4.9 12.6,10.9 v 115.4 z"
   inkscape:connector-curvature="0"
   style="fill:#9b9b9b" />
	<g
   id="bus">
		<path
   id="Shape_7_"
   class="st18"
   d="m 1492.5,615.7 c -0.9,-0.9 -2.2,-1.4 -3.5,-1.4 -1.3,0 -2.5,0.5 -3.5,1.4 -1,0.9 -1.4,2.1 -1.4,3.3 0,1.2 0.5,2.4 1.4,3.3 0.9,0.9 2.2,1.4 3.5,1.4 1.3,0 2.5,-0.5 3.5,-1.4 0.9,-0.9 1.4,-2.1 1.4,-3.3 0,-1.2 -0.5,-2.4 -1.4,-3.3 z"
   inkscape:connector-curvature="0"
   style="fill:#9b9b9b" />
		<path
   id="Shape_6_"
   class="st18"
   d="m 1602.1,658.2 v -12.8 c 0,-6.9 -6,-12.5 -13.3,-12.5 h -8.4 c -2.1,-10.6 -11.9,-18.6 -23.8,-18.6 h -47.2 c -2.7,0 -4.8,2 -4.8,4.5 0,2.5 2.2,4.5 4.8,4.5 h 47.2 c 8,0 14.5,6.1 14.5,13.6 v 13.6 h -46.4 v -13.6 c 0,-2.5 -2.2,-4.5 -4.8,-4.5 H 1456 c -2.7,0 -4.8,2 -4.8,4.5 v 13.6 h -46.4 v -13.6 c 0,-7.5 6.5,-13.6 14.5,-13.6 h 48.6 c 2.7,0 4.8,-2 4.8,-4.5 0,-2.5 -2.2,-4.5 -4.8,-4.5 h -48.6 c -11.8,0 -21.7,8 -23.8,18.6 h -8.4 c -7.3,0 -13.3,5.6 -13.3,12.5 v 12.8 c -5.6,1.9 -9.7,6.9 -9.7,12.8 v 17 c 0,7.5 6.5,13.6 14.5,13.6 8,0 14.5,-6.1 14.5,-13.6 v -17 c 0,-5.9 -4,-11 -9.7,-12.8 v -12.8 c 0,-1.9 1.6,-3.4 3.6,-3.4 h 8 v 150.8 c 0,9.1 5.8,17 14,20.6 v 16.2 c 0,9.5 8.2,17.3 18.4,17.3 10.1,0 18.4,-7.7 18.4,-17.3 v -14.1 h 84.1 v 14.1 c 0,9.5 8.2,17.3 18.4,17.3 10.2,0 18.4,-7.7 18.4,-17.3 v -16.2 c 8.2,-3.6 14,-11.5 14,-20.6 V 642 h 8 c 2,0 3.6,1.5 3.6,3.4 v 12.8 c -5.6,1.9 -9.7,6.9 -9.7,12.8 v 17 c 0,7.5 6.5,13.6 14.5,13.6 8,0 14.5,-6.1 14.5,-13.6 v -17 c 0.2,-5.8 -3.9,-10.9 -9.5,-12.8 z m -218.6,29.9 c 0,2.5 -2.2,4.5 -4.8,4.5 -2.6,0 -4.8,-2 -4.8,-4.5 v -17 c 0,-2.5 2.2,-4.5 4.8,-4.5 2.6,0 4.8,2 4.8,4.5 z m 138.6,-28.3 -15.1,14.1 c -1.9,1.8 -1.9,4.6 0,6.4 0.9,0.9 2.2,1.3 3.4,1.3 1.2,0 2.5,-0.4 3.4,-1.3 l 21.9,-20.6 h 28.5 l -71.5,67.1 v -67.1 h 29.4 z m -61.2,-18.2 h 54.2 v 9.1 h -54.2 z m 1.5,79.3 c -1.9,-1.8 -5,-1.8 -6.8,0 l -30.1,28.2 h -3.1 l -15,-14 75.6,-71 v 85.1 h -43.9 l 23.2,-21.8 c 2,-1.8 2,-4.7 0.1,-6.5 z m -57.6,-61.1 h 69.2 l -69.2,65 z m 31.5,169.8 c 0,4.5 -3.9,8.2 -8.7,8.2 -4.8,0 -8.7,-3.7 -8.7,-8.2 v -14.1 h 0.5 16.9 z m 120.9,0 c 0,4.5 -3.9,8.2 -8.7,8.2 -4.8,0 -8.7,-3.7 -8.7,-8.2 v -14.1 h 16.9 0.5 z m 13.9,-36.8 c 0,7.5 -6.5,13.6 -14.5,13.6 h -137.3 c -8,0 -14.5,-6.1 -14.5,-13.6 v -47.4 l 12.2,11.5 c 0.9,0.9 2.1,1.3 3.4,1.3 h 135 c 1.3,0 2.5,-0.5 3.4,-1.3 l 12.2,-11.5 v 47.4 z m 0,-60.3 -17.7,16.6 h -60.7 v -9.4 l 78.3,-73.6 v 66.4 z m 31,-44.4 c 0,2.5 -2.2,4.5 -4.8,4.5 -2.6,0 -4.8,-2 -4.8,-4.5 v -17 c 0,-2.5 2.2,-4.5 4.8,-4.5 2.6,0 4.8,2 4.8,4.5 z"
   inkscape:connector-curvature="0"
   style="fill:#9b9b9b" />
		<path
   id="Shape_3_"
   class="st18"
   d="m 1431.7,768.6 c -7.9,0 -14.4,6.2 -14.4,13.7 0,7.6 6.5,13.7 14.4,13.7 7.9,0 14.4,-6.2 14.4,-13.7 0,-7.5 -6.4,-13.7 -14.4,-13.7 z m 0,18.3 c -2.6,0 -4.8,-2.1 -4.8,-4.6 0,-2.5 2.2,-4.6 4.8,-4.6 2.6,0 4.8,2.1 4.8,4.6 0,2.6 -2.1,4.6 -4.8,4.6 z"
   inkscape:connector-curvature="0"
   style="fill:#9b9b9b" />
		<path
   id="Shape_4_"
   class="st18"
   d="m 1544.2,768.6 c -7.9,0 -14.4,6.2 -14.4,13.7 0,7.6 6.5,13.7 14.4,13.7 7.9,0 14.4,-6.2 14.4,-13.7 0,-7.5 -6.5,-13.7 -14.4,-13.7 z m 0,18.3 c -2.6,0 -4.8,-2.1 -4.8,-4.6 0,-2.5 2.2,-4.6 4.8,-4.6 2.6,0 4.8,2.1 4.8,4.6 0,2.6 -2.2,4.6 -4.8,4.6 z"
   inkscape:connector-curvature="0"
   style="fill:#9b9b9b" />
		<path
   id="Shape_5_"
   class="st18"
   d="m 1513,768.6 h -50.1 c -2.7,0 -4.8,2 -4.8,4.6 v 18.3 c 0,2.5 2.2,4.6 4.8,4.6 h 50.1 c 2.7,0 4.8,-2 4.8,-4.6 v -18.3 c 0,-2.5 -2.1,-4.6 -4.8,-4.6 z m -4.8,18.3 h -40.5 v -9.2 h 40.5 z"
   inkscape:connector-curvature="0"
   style="fill:#9b9b9b" />
	</g>
</g>
<g
   id="Page-1_6_"
   transform="translate(-149.36867,-141.8)">
	<g
   id="gauge_5_">
		<path
   id="Shape_28_"
   class="st18"
   d="m 1209.9,541.9 c -20.4,-0.3 -37.1,14.3 -37.4,32.4 -0.2,18.1 16.1,33.1 36.5,33.4 20.4,0.3 37.1,-14.3 37.4,-32.4 0.2,-18.2 -16.1,-33.2 -36.5,-33.4 z m -0.8,62.5 c -18.4,-0.2 -33.1,-13.8 -32.9,-30.1 0.2,-16.4 15.3,-29.5 33.7,-29.2 18.4,0.2 33.1,13.8 32.9,30.1 -0.2,16.4 -15.4,29.5 -33.7,29.2 z"
   inkscape:connector-curvature="0"
   style="fill:#9b9b9b" />
		<path
   id="Shape_27_"
   class="st18"
   d="m 1246.1,547.5 c -6.9,-7.4 -16.5,-12.4 -27,-14.4 l 0.1,-6.2 -18.2,-0.2 -0.1,6.2 c -10.5,1.7 -20.2,6.5 -27.3,13.7 -7.6,7.6 -11.8,17.4 -11.9,27.6 -0.1,9.8 3.6,19.4 10.4,27.1 6.5,7.2 15.4,12.4 25.3,14.7 l -0.2,15.3 23,0.3 0.2,-15.3 c 10,-2.1 19.1,-7 25.7,-14.1 7.1,-7.5 11,-17 11.1,-26.8 0.2,-10.2 -3.8,-20.1 -11.1,-27.9 z m -2.7,52.6 c -6.4,6.8 -15.3,11.5 -25.1,13.3 l -1.4,0.3 -0.2,14.6 -15.7,-0.2 0.2,-14.6 -1.4,-0.3 c -9.7,-2 -18.5,-6.9 -24.7,-13.9 -6.3,-7.1 -9.8,-16 -9.6,-25 0.1,-9.4 4,-18.5 11,-25.5 6.9,-7 16.4,-11.5 26.7,-12.8 l 1.5,-0.2 0.1,-5.7 10.9,0.1 -0.1,5.7 1.5,0.2 c 10.2,1.6 19.6,6.4 26.3,13.5 6.8,7.2 10.5,16.4 10.4,25.8 -0.3,9 -3.9,17.8 -10.4,24.7 z"
   inkscape:connector-curvature="0"
   style="fill:#9b9b9b" />
		
			<rect
   id="Rectangle-path_21_"
   x="1207.3"
   y="612"
   transform="matrix(0.01315054,-0.9999,0.9999,0.01315054,576.2274,1817.5663)"
   class="st18"
   width="3.2"
   height="9.6999998"
   style="fill:#9b9b9b" />
		
			<rect
   id="Rectangle-path_20_"
   x="1207.2"
   y="618.5"
   transform="matrix(0.01315054,-0.9999,0.9999,0.01315054,569.6693,1823.8705)"
   class="st18"
   width="3.2"
   height="9.6999998"
   style="fill:#9b9b9b" />
		<path
   id="Shape_26_"
   class="st18"
   d="m 1209.8,549.4 c -15.7,-0.2 -28.6,11 -28.8,25 v 1.6 l 10.3,0.1 v -3.2 l -6.6,-0.1 c 0.4,-4.6 2.5,-8.8 5.6,-12.2 l 5.9,5.4 2.6,-2.3 -6,-5.5 c 4.1,-3.3 9.3,-5.3 15.1,-5.6 l -0.1,7 h 3.6 l 0.1,-7 c 5.8,0.5 11,2.7 15,6 l -6.1,5.3 2.5,2.3 6,-5.2 c 3,3.4 4.9,7.7 5.3,12.3 l -6.6,-0.1 v 3.2 l 10.3,0.1 v -1.6 c 0.2,-13.7 -12.4,-25.3 -28.1,-25.5 z"
   inkscape:connector-curvature="0"
   style="fill:#9b9b9b" />
		<path
   id="Shape_25_"
   class="st18"
   d="m 1211.2,582 0.3,-19.1 h -3.6 l -0.3,19.1 c -3.5,0.7 -6.1,3.4 -6.1,6.7 -0.1,3.9 3.4,7.1 7.8,7.1 4.3,0.1 7.9,-3 8,-6.9 -0.1,-3.3 -2.6,-6.1 -6.1,-6.9 z m -2,10.6 c -2.3,0 -4.2,-1.8 -4.2,-3.8 0,-2.1 2,-3.8 4.3,-3.7 2.3,0 4.2,1.8 4.2,3.8 0,2 -1.9,3.7 -4.3,3.7 z"
   inkscape:connector-curvature="0"
   style="fill:#9b9b9b" />
		
			<rect
   id="Rectangle-path_19_"
   x="1187.2"
   y="579.59998"
   transform="matrix(0.01315054,-0.9999,0.9999,0.01315054,591.1653,1763.0983)"
   class="st18"
   width="3.2"
   height="4.8000002"
   style="fill:#9b9b9b" />
		
			<rect
   id="Rectangle-path_18_"
   x="1228.3"
   y="580.20001"
   transform="matrix(0.01315054,-0.9999,0.9999,0.01315054,631.2416,1804.7878)"
   class="st18"
   width="3.2"
   height="4.8000002"
   style="fill:#9b9b9b" />
	</g>
</g>
<path
   class="st17"
   d="m 1059.5313,487.8 c -4.1,-0.1 -8.2,-0.6 -12.3,-2 l -0.5,27.7 24.7,0.5 0.5,-27.7 c -4.1,1.2 -8.3,1.6 -12.4,1.5"
   id="path132"
   inkscape:connector-curvature="0"
   style="fill:#c7cbc7" />
<g
   id="Page-1_2_"
   transform="translate(-149.36867,-141.8)">
	<g
   id="gauge_2_">
		<path
   id="Shape_12_"
   class="st18"
   d="m 1724.3,538.8 c -20.4,0 -36.9,14.8 -36.9,32.9 0,18.1 16.6,32.9 36.9,32.9 20.3,0 36.9,-14.8 36.9,-32.9 0,-18.1 -16.6,-32.9 -36.9,-32.9 z m 0,62.6 c -18.4,0 -33.3,-13.3 -33.3,-29.7 0,-16.4 14.9,-29.7 33.3,-29.7 18.4,0 33.3,13.3 33.3,29.7 0,16.4 -15,29.7 -33.3,29.7 z"
   inkscape:connector-curvature="0"
   style="fill:#9b9b9b" />
		<path
   id="Shape_11_"
   class="st18"
   d="m 1760.5,544 c -7,-7.3 -16.6,-12.2 -27.2,-14 v -6.2 h -18.2 v 6.2 c -10.5,1.8 -20.1,6.8 -27.2,14 -7.5,7.7 -11.6,17.6 -11.6,27.8 0,9.8 3.8,19.4 10.8,27 6.5,7.1 15.6,12.2 25.5,14.4 v 15.3 h 23 v -15.3 c 10,-2.2 19,-7.3 25.5,-14.4 7,-7.6 10.8,-17.2 10.8,-27 0.2,-10.3 -3.9,-20.1 -11.4,-27.8 z m -2,52.7 c -6.3,6.9 -15.2,11.7 -24.9,13.6 l -1.4,0.3 v 14.6 h -15.7 v -14.6 l -1.4,-0.3 c -9.7,-1.9 -18.6,-6.7 -24.9,-13.6 -6.4,-7 -10,-15.8 -10,-24.9 0,-9.4 3.8,-18.5 10.7,-25.7 6.8,-7 16.2,-11.7 26.5,-13.2 l 1.5,-0.2 V 527 h 10.9 v 5.7 l 1.5,0.2 c 10.3,1.5 19.7,6.1 26.5,13.2 6.9,7.1 10.7,16.2 10.7,25.7 0,9 -3.6,17.9 -10,24.9 z"
   inkscape:connector-curvature="0"
   style="fill:#9b9b9b" />
		<rect
   id="Rectangle-path_5_"
   x="1719.4"
   y="612.20001"
   class="st18"
   width="9.6999998"
   height="3.2"
   style="fill:#9b9b9b" />
		<rect
   id="Rectangle-path_4_"
   x="1719.4"
   y="618.70001"
   class="st18"
   width="9.6999998"
   height="3.2"
   style="fill:#9b9b9b" />
		<path
   id="Shape_10_"
   class="st18"
   d="m 1724.3,546.4 c -15.7,0 -28.5,11.4 -28.5,25.4 v 1.6 h 10.3 v -3.2 h -6.6 c 0.4,-4.6 2.3,-8.8 5.4,-12.2 l 5.9,5.3 2.6,-2.3 -6,-5.4 c 4,-3.3 9.3,-5.5 15,-5.8 v 7 h 3.6 v -7 c 5.8,0.4 11,2.5 15,5.8 l -6,5.4 2.6,2.3 5.9,-5.3 c 3.1,3.4 5,7.6 5.4,12.2 h -6.6 v 3.2 h 10.3 v -1.6 c 0.1,-14 -12.6,-25.4 -28.3,-25.4 z"
   inkscape:connector-curvature="0"
   style="fill:#9b9b9b" />
		<path
   id="Shape_9_"
   class="st18"
   d="m 1726.1,579 v -19.1 h -3.6 V 579 c -3.5,0.7 -6.1,3.5 -6.1,6.8 0,3.9 3.5,7 7.9,7 4.4,0 7.9,-3.1 7.9,-7 -0.1,-3.3 -2.6,-6.1 -6.1,-6.8 z m -1.8,10.6 c -2.3,0 -4.2,-1.7 -4.2,-3.8 0,-2.1 1.9,-3.8 4.2,-3.8 2.3,0 4.2,1.7 4.2,3.8 0,2.1 -1.9,3.8 -4.2,3.8 z"
   inkscape:connector-curvature="0"
   style="fill:#9b9b9b" />
		<rect
   id="Rectangle-path_3_"
   x="1701.3"
   y="577.70001"
   class="st18"
   width="4.8000002"
   height="3.2"
   style="fill:#9b9b9b" />
		<rect
   id="Rectangle-path_2_"
   x="1742.4"
   y="577.70001"
   class="st18"
   width="4.8000002"
   height="3.2"
   style="fill:#9b9b9b" />
	</g>
</g>
<path
   class="st17"
   d="m 1573.7313,486.9 c -4.1,0.1 -8.2,-0.3 -12.4,-1.5 l 0.5,27.7 24.7,-0.4 -0.5,-27.7 c -4.1,1.4 -8.2,1.9 -12.3,1.9"
   id="path144"
   inkscape:connector-curvature="0"
   style="fill:#c7cbc7" />
<g
   id="g148"
   transform="translate(-149.36867,-141.8)">
	<path
   class="st19"
   d="m 1233.7,712.6 -48,0.5 c -3.8,0 -6.9,-3 -6.9,-6.8 l -0.5,-48 c 0,-3.8 3,-6.9 6.8,-6.9 l 48,-0.5 c 3.8,0 6.9,3 6.9,6.8 l 0.5,48 c 0,3.7 -3.1,6.9 -6.8,6.9"
   id="path146"
   inkscape:connector-curvature="0"
   style="fill:#949493" />
</g>
<rect
   x="1462.4314"
   y="516.10004"
   class="st12"
   width="198"
   height="46.5"
   id="rect150"
   style="fill:#c7c9c7" />
<polygon
   class="st6"
   points="2508.6,341.6 2508.6,141.8 3020.6,141.8 3020.6,341.6 2976.5,371.6 2553.6,371.6 "
   id="polygon152"
   style="fill:#ede9e8"
   transform="translate(-149.36867,-141.8)" />
<polygon
   class="st7"
   points="2779.6,141.8 3020.6,141.8 3020.6,341.6 2976.5,371.6 2779.6,371.6 "
   id="polygon154"
   style="fill:#dfd7d5"
   transform="translate(-149.36867,-141.8)" />
<path
   class="st8"
   d="m 2871.2313,199.8 v 75 l -34.5,27 h -443 l -34.5,-27 v -75 c 1.2,0.9 2.1,1.8 3.3,2.4 10.5,4.8 23.1,2.7 31.2,-5.4 22.2,-22.5 59.8,-22.5 82,0 10.8,10.8 28.2,10.8 39,0 22.2,-22.5 58.8,-22.5 81,0 9.3,9.3 23.7,10.5 34.5,3.9 1.5,-1.2 3,-2.4 4.5,-3.9 22.2,-22.5 58.8,-22.5 81,0 10.5,10.5 28.5,10.5 39,0 22.2,-22.5 59.8,-22.5 82,0 7.5,7.5 18.6,9.9 28.5,6.6 2.4,-0.9 4.2,-2.4 6,-3.6 z"
   id="path156"
   inkscape:connector-curvature="0"
   style="fill:#8fe1ff" />
<g
   id="g162"
   transform="translate(-149.36867,-141.8)">
	<path
   class="st9"
   d="m 3020.6,341.6 v 75 l -34.5,27 H 2779.6 V 342.5 c 1.5,-1.2 3,-2.4 4.5,-3.9 22.2,-22.5 58.8,-22.5 81,0 10.5,10.5 28.5,10.5 39,0 22.2,-22.5 59.8,-22.5 82,0 7.5,7.5 18.6,9.9 28.5,6.6 2.4,-0.9 4.2,-2.4 6,-3.6 z"
   id="path158"
   inkscape:connector-curvature="0"
   style="fill:#73bcff" />
	<path
   class="st9"
   d="m 3020.6,416.6 c 0,0 0,81 0,85.2 h -512 c 0,0 0,-80.4 0,-85.2 1.2,0.9 2.1,1.8 3.3,2.4 10.5,4.8 23.1,2.7 31.2,-5.4 22.2,-22.5 59.8,-22.5 82,0 10.8,10.8 28.2,10.8 39,0 22.2,-22.5 58.8,-22.5 81,0 9.3,9.3 23.7,10.5 34.5,3.9 1.5,-1.2 3,-2.4 4.5,-3.9 22.2,-22.5 58.8,-22.5 81,0 10.5,10.5 28.5,10.5 39,0 22.2,-22.5 59.8,-22.5 82,0 7.5,7.5 18.6,9.9 28.5,6.6 2.4,-0.9 4.2,-2.4 6,-3.6 z"
   id="path160"
   inkscape:connector-curvature="0"
   style="fill:#73bcff" />
</g>
<path
   class="st10"
   d="m 2871.2313,274.8 c 0,0 0,81 0,85.2 h -241 v -84.3 c 1.5,-1.2 3,-2.4 4.5,-3.9 22.2,-22.5 58.8,-22.5 81,0 10.5,10.5 28.5,10.5 39,0 22.2,-22.5 59.8,-22.5 82,0 7.5,7.5 18.6,9.9 28.5,6.6 2.4,-0.9 4.2,-2.4 6,-3.6 z"
   id="path164"
   inkscape:connector-curvature="0"
   style="fill:#3a96ff" />
<g
   id="g168"
   transform="translate(-149.36867,-141.8)">
	<path
   class="st19"
   d="m 1747.4,709.7 -48,0.2 c -3.8,0 -6.9,-3.1 -6.9,-6.8 l -0.2,-48 c 0,-3.8 3.1,-6.9 6.8,-6.9 l 48,-0.2 c 3.8,0 6.9,3.1 6.9,6.8 l 0.2,48 c 0,3.8 -3.1,6.9 -6.8,6.9"
   id="path166"
   inkscape:connector-curvature="0"
   style="fill:#949493" />
</g>
<g
   id="g172"
   transform="translate(-149.36867,-141.8)">
	<path
   class="st19"
   d="m 2208.2,716.9 -48,0.3 c -3.8,0 -6.9,-3 -6.9,-6.8 l -0.3,-48 c 0,-3.8 3,-6.9 6.8,-6.9 l 48,-0.3 c 3.8,0 6.9,3 6.9,6.8 l 0.3,48 c 0,3.8 -3,6.9 -6.8,6.9"
   id="path170"
   inkscape:connector-curvature="0"
   style="fill:#949493" />
</g>
<rect
   x="512.03137"
   y="834"
   class="st12"
   width="248"
   height="47.299999"
   id="rect174"
   style="fill:#c7c9c7" />
<path
   class="st13"
   d="m 686.33133,760.8 c 0.9,-24.6 -18.2,-45.3 -42.8,-46.2 -24.6,-0.9 -45.3,18.2 -46.2,42.8 -0.9,24.6 18.2,45.3 42.8,46.2 24.6,0.9 45.2,-18.2 46.2,-42.8"
   id="path176"
   inkscape:connector-curvature="0"
   style="fill:#e8edee" />
<path
   class="st14"
   d="m 672.63133,760.3 c 0.7,-17.1 -12.5,-31.3 -29.6,-32 -17.1,-0.7 -31.3,12.5 -32,29.6 -0.7,17.1 12.5,31.3 29.6,32 17.1,0.7 31.3,-12.5 32,-29.6"
   id="path178"
   inkscape:connector-curvature="0"
   style="fill:#ffffff" />
<path
   class="st15"
   d="m 619.73133,780.5 c 5.3,5.3 12.7,9.1 20.9,9.4 8.2,0.3 15.9,-2.8 21.6,-7.7 -5.3,-5.3 -12.7,-9.1 -20.9,-9.4 -8.3,-0.3 -15.9,2.8 -21.6,7.7"
   id="path180"
   inkscape:connector-curvature="0"
   style="fill:#e15649" />
<path
   class="st16"
   d="m 641.73133,762.5 c -1,0 -1.7,-0.4 -2.4,-1.1 -1.3,-1.4 -1.2,-3.5 0.2,-4.8 l 10.7,-9.9 c 1.4,-1.3 3.5,-1.2 4.8,0.2 1.3,1.4 1.2,3.5 -0.2,4.8 l -10.7,9.9 c -0.7,0.6 -1.4,1 -2.4,0.9"
   id="path182"
   inkscape:connector-curvature="0"
   style="fill:#556080" />
<path
   class="st17"
   d="m 639.83133,803.6 c -3.4,0 -6.8,-0.4 -10.3,-1.4 l -0.2,21.9 20.6,0.2 0.2,-21.9 c -3.5,0.9 -6.9,1.2 -10.3,1.2"
   id="path184"
   inkscape:connector-curvature="0"
   style="fill:#c7cbc7" />
<g
   id="g192"
   transform="translate(-149.36867,-141.8)">
	<path
   class="st16"
   d="m 821.8,898.6 -6.5,-0.2 c -2.1,-0.1 -3.5,1.2 -3.6,3.3 -0.1,2.1 1.2,3.5 3.3,3.6 l 6.5,0.2 c 0,-1 0.4,-2.4 0.5,-3.4 0,-1.1 0.1,-2.4 -0.2,-3.5"
   id="path186"
   inkscape:connector-curvature="0"
   style="fill:#556080" />
	<path
   class="st16"
   d="m 792.4,870.1 c -1,0 -2.4,-0.1 -3.4,0.2 l -0.2,6.5 c -0.1,2.1 1.2,3.5 3.3,3.6 2.1,0.1 3.5,-1.2 3.6,-3.3 l 0.2,-6.5 c -1.1,-0.4 -2.5,-0.5 -3.5,-0.5"
   id="path188"
   inkscape:connector-curvature="0"
   style="fill:#556080" />
	<path
   class="st16"
   d="m 767.4,896.6 -6.5,-0.2 c 0,1 -0.4,2.4 -0.5,3.4 0,1 -0.1,2.4 0.2,3.4 l 6.5,0.2 c 2.1,0.1 3.5,-1.2 3.6,-3.3 0,-2 -1.3,-3.5 -3.3,-3.5"
   id="path190"
   inkscape:connector-curvature="0"
   style="fill:#556080" />
</g>
<g
   id="g196"
   transform="translate(-149.36867,-141.8)">
	<path
   class="st19"
   d="m 811.9,1027.4 -48,0.3 c -3.8,0 -6.9,-3 -6.9,-6.8 l -0.3,-48 c 0,-3.8 3,-6.9 6.8,-6.9 l 48,-0.3 c 3.8,0 6.9,3 6.9,6.8 l 0.3,48 c 0.1,3.7 -3,6.8 -6.8,6.9"
   id="path194"
   inkscape:connector-curvature="0"
   style="fill:#949493" />
</g>
<rect
   x="888.9314"
   y="611.20001"
   class="st12"
   width="46.5"
   height="96.400002"
   id="rect198"
   style="fill:#c7c9c7" />
<path
   class="st12"
   d="M 935.03133,575.6 V 626 h -45.9 v -68.4 c 0,-22.9 17.5,-41.3 38.9,-41.3 h 72.99997 v 48.8 h -56.09997 c -5.5,0 -9.9,4.7 -9.9,10.5 z"
   id="path200"
   inkscape:connector-curvature="0"
   style="fill:#c7c9c7" />
<rect
   x="1427.2313"
   y="669.90002"
   class="st12"
   width="30"
   height="219"
   id="rect202"
   style="fill:#c7c9c7" />
<path
   class="st12"
   d="m 2259.4313,96.8 v 50.4 h -46.4 V 78.8 c 0,-22.9 17.6,-41.3 39.2,-41.3 h 73.7 v 48.7 h -56.6 c -5.5,0 -9.9,4.7 -9.9,10.6 z"
   id="path204"
   inkscape:connector-curvature="0"
   style="fill:#c7c9c7" />
<rect
   x="2213.0312"
   y="131.8"
   class="st12"
   width="46.5"
   height="371"
   id="rect206"
   style="fill:#c7c9c7" />
<rect
   x="2278.1313"
   y="37.399998"
   class="st12"
   width="81.099998"
   height="48.799999"
   id="rect208"
   style="fill:#c7c9c7" />
<path
   class="st12"
   d="m 2212.1313,497 v -58.5 h 47.4 v 79.4 c 0,26.5 -18,47.9 -40.2,47.9 h -75.3 c 0,-15.4 0,-30.8 0,-46.2 19.8,-0.3 39.7,-0.6 59.5,-0.9 2.9,-2 3.7,-2 6.1,-6.9 3.2,-6.5 2.4,-11 2.5,-14.8 z"
   id="path210"
   inkscape:connector-curvature="0"
   style="fill:#c7c9c7" />
<g
   id="g240"
   transform="translate(-149.36867,-141.8)">
	<path
   d="m 208.7,1150.6 c -1.3,-1.9 -2.9,-3.3 -4.9,-4.3 -2,-1 -4,-1.5 -6.2,-1.5 -2.6,0 -4.9,0.5 -7,1.6 -2.1,1.1 -3.9,2.6 -5.4,4.4 -1.5,1.8 -2.6,4.1 -3.5,6.6 -0.8,2.5 -1.2,5.2 -1.2,8.1 0,2.7 0.4,5.2 1.2,7.6 0.8,2.4 1.9,4.5 3.4,6.3 1.5,1.8 3.3,3.3 5.4,4.3 2.1,1.1 4.5,1.6 7.2,1.6 2.6,0 4.9,-0.6 6.9,-1.8 2,-1.2 3.7,-2.9 5.1,-5 l 5.2,4.4 c -0.3,0.5 -1,1.3 -1.8,2.3 -0.9,1 -2,2 -3.4,3 -1.4,1 -3.1,1.8 -5.2,2.6 -2,0.7 -4.3,1.1 -7,1.1 -3.6,0 -6.9,-0.8 -9.8,-2.3 -2.9,-1.5 -5.4,-3.6 -7.5,-6 -2.1,-2.5 -3.6,-5.3 -4.7,-8.5 -1.1,-3.1 -1.6,-6.3 -1.6,-9.5 0,-3.9 0.6,-7.6 1.7,-10.9 1.2,-3.3 2.8,-6.2 4.9,-8.6 2.1,-2.4 4.6,-4.3 7.5,-5.7 2.9,-1.3 6.2,-2 9.7,-2 3,0 6,0.6 8.9,1.9 2.9,1.3 5.3,3.3 7.2,6 z"
   id="path212"
   inkscape:connector-curvature="0" />
	<path
   d="m 219.4,1173.5 c 0,-2.5 0.4,-4.8 1.3,-7 0.9,-2.2 2,-4.1 3.5,-5.7 1.5,-1.6 3.2,-2.9 5.2,-3.9 2,-0.9 4.1,-1.4 6.4,-1.4 2.3,0 4.4,0.5 6.4,1.4 2,0.9 3.7,2.2 5.2,3.9 1.5,1.6 2.6,3.5 3.5,5.7 0.9,2.2 1.3,4.5 1.3,7 0,2.5 -0.4,4.8 -1.3,7 -0.8,2.2 -2,4.1 -3.5,5.7 -1.5,1.6 -3.2,2.9 -5.2,3.8 -2,0.9 -4.1,1.4 -6.4,1.4 -2.3,0 -4.4,-0.5 -6.4,-1.4 -2,-0.9 -3.7,-2.2 -5.2,-3.8 -1.5,-1.6 -2.6,-3.5 -3.5,-5.7 -0.9,-2.1 -1.3,-4.5 -1.3,-7 z m 6.2,0 c 0,1.7 0.2,3.3 0.7,4.8 0.5,1.5 1.1,2.7 2,3.7 0.9,1 1.9,1.8 3.2,2.4 1.3,0.6 2.7,0.9 4.2,0.9 1.5,0 3,-0.3 4.2,-0.9 1.3,-0.6 2.3,-1.4 3.2,-2.4 0.9,-1 1.5,-2.3 2,-3.7 0.5,-1.5 0.7,-3.1 0.7,-4.8 0,-1.7 -0.2,-3.3 -0.7,-4.8 -0.5,-1.5 -1.1,-2.7 -2,-3.7 -0.9,-1 -1.9,-1.8 -3.2,-2.4 -1.3,-0.6 -2.7,-0.9 -4.2,-0.9 -1.5,0 -3,0.3 -4.2,0.9 -1.3,0.6 -2.3,1.4 -3.2,2.4 -0.9,1 -1.5,2.3 -2,3.7 -0.5,1.5 -0.7,3.1 -0.7,4.8 z"
   id="path214"
   inkscape:connector-curvature="0" />
	<path
   d="m 259.8,1136.2 h 5.8 v 54.4 h -5.8 z"
   id="path216"
   inkscape:connector-curvature="0" />
	<path
   d="m 275.3,1136.2 h 5.8 v 54.4 h -5.8 z"
   id="path218"
   inkscape:connector-curvature="0" />
	<path
   d="m 294.8,1175.9 c 0,1.5 0.3,2.8 0.9,4.1 0.6,1.3 1.3,2.3 2.3,3.1 0.9,0.9 2.1,1.5 3.3,2 1.3,0.5 2.5,0.7 3.9,0.7 1.8,0 3.4,-0.5 4.7,-1.4 1.3,-0.9 2.6,-2.2 3.7,-3.7 l 4.4,3.7 c -3.2,4.7 -7.8,7 -13.6,7 -2.4,0 -4.6,-0.5 -6.6,-1.4 -2,-0.9 -3.6,-2.2 -5,-3.8 -1.4,-1.6 -2.4,-3.5 -3.1,-5.7 -0.7,-2.2 -1.1,-4.5 -1.1,-7.1 0,-2.5 0.4,-4.9 1.2,-7.1 0.8,-2.2 1.9,-4.1 3.3,-5.7 1.4,-1.6 3.1,-2.9 5,-3.8 1.9,-0.9 4.1,-1.4 6.4,-1.4 2.7,0 5,0.5 6.9,1.6 1.9,1.1 3.4,2.4 4.6,4.1 1.2,1.7 2.1,3.6 2.6,5.8 0.5,2.1 0.8,4.3 0.8,6.5 v 2.3 h -24.6 z m 18.4,-5.2 c 0,-1.4 -0.2,-2.8 -0.6,-4 -0.4,-1.2 -0.9,-2.2 -1.7,-3.1 -0.7,-0.9 -1.7,-1.6 -2.8,-2.1 -1.1,-0.5 -2.4,-0.8 -3.9,-0.8 -1.4,0 -2.7,0.3 -3.9,0.9 -1.2,0.6 -2.2,1.4 -3,2.3 -0.8,1 -1.5,2 -1.9,3.2 -0.5,1.2 -0.7,2.3 -0.7,3.5 h 18.5 z"
   id="path220"
   inkscape:connector-curvature="0" />
	<path
   d="m 348.4,1165.6 c -1.1,-1.2 -2.2,-2.2 -3.4,-2.8 -1.2,-0.6 -2.6,-1 -4.2,-1 -1.6,0 -3,0.3 -4.2,1 -1.2,0.6 -2.2,1.5 -3,2.7 -0.8,1.1 -1.4,2.4 -1.8,3.9 -0.4,1.5 -0.6,3 -0.6,4.6 0,1.6 0.2,3.1 0.7,4.5 0.5,1.4 1.1,2.7 2,3.7 0.9,1.1 1.9,1.9 3.1,2.5 1.2,0.6 2.6,0.9 4.1,0.9 1.6,0 3,-0.3 4.2,-1 1.2,-0.6 2.2,-1.6 3.2,-2.8 l 4.1,4.6 c -1.5,1.9 -3.3,3.2 -5.3,4 -2,0.8 -4.1,1.2 -6.4,1.2 -2.4,0 -4.5,-0.4 -6.5,-1.3 -2,-0.9 -3.7,-2.1 -5.1,-3.6 -1.4,-1.6 -2.5,-3.4 -3.3,-5.6 -0.8,-2.2 -1.2,-4.6 -1.2,-7.2 0,-2.6 0.4,-5.1 1.2,-7.3 0.8,-2.2 1.9,-4.1 3.3,-5.7 1.4,-1.6 3.1,-2.8 5.1,-3.7 2,-0.9 4.2,-1.3 6.6,-1.3 2.2,0 4.4,0.4 6.4,1.3 2.1,0.9 3.8,2.2 5.3,4.1 z"
   id="path222"
   inkscape:connector-curvature="0" />
	<path
   d="m 374.1,1162.1 h -8.4 v 15.5 c 0,1 0,1.9 0.1,2.8 0,0.9 0.2,1.8 0.5,2.5 0.3,0.7 0.7,1.3 1.3,1.8 0.6,0.5 1.4,0.7 2.6,0.7 0.7,0 1.4,-0.1 2.1,-0.2 0.7,-0.1 1.4,-0.4 2,-0.8 v 5.9 c -0.7,0.4 -1.6,0.7 -2.7,0.9 -1.1,0.2 -2,0.3 -2.6,0.3 -2.2,0 -4,-0.3 -5.2,-1 -1.2,-0.7 -2.1,-1.6 -2.7,-2.7 -0.6,-1.1 -0.9,-2.3 -1,-3.7 -0.1,-1.4 -0.2,-2.7 -0.2,-4.1 v -17.8 h -6.7 v -5.6 h 6.7 v -9.6 h 5.8 v 9.6 h 8.4 z"
   id="path224"
   inkscape:connector-curvature="0" />
	<path
   d="m 380.8,1144.2 c 0,-1.3 0.4,-2.4 1.3,-3.3 0.8,-0.9 1.8,-1.4 3,-1.4 1.2,0 2.2,0.5 3,1.4 0.8,0.9 1.3,2.1 1.3,3.3 0,1.2 -0.4,2.4 -1.3,3.3 -0.8,0.9 -1.8,1.4 -3,1.4 -1.2,0 -2.2,-0.5 -3,-1.4 -0.9,-0.8 -1.3,-2 -1.3,-3.3 z m 1.3,12.3 h 5.8 v 34.1 h -5.8 z"
   id="path226"
   inkscape:connector-curvature="0" />
	<path
   d="m 395.7,1173.5 c 0,-2.5 0.4,-4.8 1.3,-7 0.9,-2.2 2,-4.1 3.5,-5.7 1.5,-1.6 3.2,-2.9 5.2,-3.9 2,-0.9 4.1,-1.4 6.4,-1.4 2.3,0 4.4,0.5 6.4,1.4 2,0.9 3.7,2.2 5.2,3.9 1.5,1.6 2.6,3.5 3.5,5.7 0.9,2.2 1.3,4.5 1.3,7 0,2.5 -0.4,4.8 -1.3,7 -0.8,2.2 -2,4.1 -3.5,5.7 -1.5,1.6 -3.2,2.9 -5.2,3.8 -2,0.9 -4.1,1.4 -6.4,1.4 -2.3,0 -4.4,-0.5 -6.4,-1.4 -2,-0.9 -3.7,-2.2 -5.2,-3.8 -1.5,-1.6 -2.6,-3.5 -3.5,-5.7 -0.9,-2.1 -1.3,-4.5 -1.3,-7 z m 6.2,0 c 0,1.7 0.2,3.3 0.7,4.8 0.5,1.5 1.1,2.7 2,3.7 0.9,1 1.9,1.8 3.2,2.4 1.3,0.6 2.7,0.9 4.2,0.9 1.5,0 3,-0.3 4.2,-0.9 1.3,-0.6 2.3,-1.4 3.2,-2.4 0.9,-1 1.5,-2.3 2,-3.7 0.5,-1.5 0.7,-3.1 0.7,-4.8 0,-1.7 -0.2,-3.3 -0.7,-4.8 -0.5,-1.5 -1.1,-2.7 -2,-3.7 -0.9,-1 -1.9,-1.8 -3.2,-2.4 -1.3,-0.6 -2.7,-0.9 -4.2,-0.9 -1.5,0 -3,0.3 -4.2,0.9 -1.3,0.6 -2.3,1.4 -3.2,2.4 -0.9,1 -1.5,2.3 -2,3.7 -0.4,1.5 -0.7,3.1 -0.7,4.8 z"
   id="path228"
   inkscape:connector-curvature="0" />
	<path
   d="m 435.7,1156.5 h 5.8 v 5.3 h 0.1 c 0.7,-1.8 2,-3.3 3.8,-4.4 1.8,-1.1 3.9,-1.7 6.3,-1.7 1.5,0 2.9,0.3 4.2,0.8 1.3,0.5 2.5,1.3 3.6,2.3 1,1.1 1.8,2.4 2.4,4.1 0.6,1.7 0.9,3.6 0.9,5.9 v 22 H 457 v -20.2 c 0,-1.6 -0.2,-2.9 -0.6,-4.1 -0.4,-1.2 -0.9,-2 -1.6,-2.7 -0.6,-0.7 -1.4,-1.2 -2.2,-1.5 -0.8,-0.3 -1.7,-0.5 -2.6,-0.5 -1.2,0 -2.3,0.2 -3.4,0.6 -1.1,0.4 -1.9,1.1 -2.7,2.1 -0.8,0.9 -1.4,2.1 -1.8,3.6 -0.4,1.4 -0.6,3.1 -0.6,5.1 v 17.6 h -5.8 z"
   id="path230"
   inkscape:connector-curvature="0" />
	<path
   d="m 492.6,1180 c 1.1,1.9 2.6,3.3 4.3,4.1 1.7,0.9 3.6,1.3 5.4,1.3 1,0 2.1,-0.2 3.2,-0.5 1.1,-0.4 2.1,-0.9 2.9,-1.6 0.9,-0.7 1.6,-1.6 2.2,-2.7 0.6,-1.1 0.8,-2.3 0.8,-3.7 0,-2 -0.6,-3.5 -1.7,-4.5 -1.1,-1 -2.5,-1.9 -4.2,-2.6 -1.7,-0.7 -3.5,-1.4 -5.4,-2 -2,-0.6 -3.8,-1.5 -5.4,-2.7 -1.7,-1.2 -3.1,-2.7 -4.2,-4.6 -1.1,-1.9 -1.7,-4.6 -1.7,-7.9 0,-1.5 0.3,-3.1 0.9,-4.8 0.6,-1.7 1.5,-3.2 2.8,-4.6 1.3,-1.4 2.9,-2.6 4.8,-3.5 2,-0.9 4.3,-1.4 7.1,-1.4 2.5,0 4.9,0.4 7.2,1.2 2.3,0.8 4.3,2.3 6,4.7 l -5.1,5.1 c -0.8,-1.3 -1.9,-2.4 -3.3,-3.2 -1.4,-0.8 -3,-1.2 -4.9,-1.2 -1.7,0 -3.2,0.3 -4.3,0.8 -1.1,0.5 -2.1,1.2 -2.8,1.9 -0.7,0.8 -1.2,1.6 -1.5,2.6 -0.3,0.9 -0.4,1.8 -0.4,2.5 0,2.2 0.6,3.8 1.7,5 1.1,1.2 2.5,2.1 4.2,2.8 1.7,0.7 3.5,1.4 5.4,1.9 2,0.6 3.8,1.4 5.4,2.4 1.7,1 3.1,2.4 4.2,4.2 1.1,1.8 1.7,4.2 1.7,7.2 0,2.4 -0.4,4.7 -1.3,6.6 -0.8,2 -2,3.6 -3.4,5 -1.4,1.3 -3.1,2.4 -5.1,3.1 -1.9,0.7 -4,1.1 -6.2,1.1 -2.9,0 -5.7,-0.6 -8.4,-1.7 -2.6,-1.2 -4.7,-2.9 -6.3,-5.3 z"
   id="path232"
   inkscape:connector-curvature="0" />
	<path
   d="m 553,1190.6 h -5.8 v -5.3 H 547 c -0.7,1.8 -2,3.3 -3.8,4.4 -1.8,1.1 -3.9,1.7 -6.3,1.7 -1.5,0 -2.9,-0.3 -4.3,-0.8 -1.3,-0.5 -2.5,-1.3 -3.5,-2.3 -1,-1.1 -1.8,-2.4 -2.4,-4.1 -0.6,-1.7 -0.9,-3.6 -0.9,-5.9 v -22 h 5.8 v 20.2 c 0,1.6 0.2,2.9 0.6,4.1 0.4,1.1 0.9,2 1.6,2.7 0.6,0.7 1.4,1.2 2.2,1.5 0.8,0.3 1.7,0.5 2.6,0.5 1.2,0 2.3,-0.2 3.4,-0.6 1.1,-0.4 1.9,-1.1 2.7,-2.1 0.8,-0.9 1.4,-2.1 1.8,-3.6 0.4,-1.4 0.6,-3.1 0.6,-5.1 v -17.6 h 5.8 v 34.3 z"
   id="path234"
   inkscape:connector-curvature="0" />
	<path
   d="m 561.8,1156.5 h 5.4 v 5.3 h 0.1 c 0.1,-0.5 0.5,-1.1 1,-1.8 0.5,-0.7 1.2,-1.4 2.1,-2.1 0.8,-0.6 1.8,-1.2 3,-1.7 1.1,-0.5 2.4,-0.7 3.8,-0.7 2.3,0 4.2,0.5 5.8,1.6 1.6,1.1 2.8,2.6 3.8,4.8 1,-2.1 2.4,-3.7 4.2,-4.8 1.8,-1.1 3.6,-1.6 5.5,-1.6 2.4,0 4.3,0.4 5.8,1.3 1.5,0.9 2.7,2 3.6,3.4 0.9,1.4 1.5,3 1.8,4.8 0.3,1.8 0.5,3.7 0.5,5.6 v 19.9 h -5.8 v -19 c 0,-1.3 -0.1,-2.5 -0.2,-3.7 -0.2,-1.2 -0.5,-2.3 -0.9,-3.2 -0.5,-0.9 -1.1,-1.6 -2,-2.2 -0.9,-0.6 -2,-0.8 -3.4,-0.8 -2.8,0 -4.8,1 -6,2.9 -1.2,1.9 -1.8,4.4 -1.8,7.4 v 18.6 h -5.8 v -17.9 c 0,-1.6 -0.1,-3.1 -0.2,-4.5 -0.2,-1.3 -0.5,-2.5 -0.9,-3.5 -0.5,-1 -1.1,-1.8 -1.9,-2.3 -0.8,-0.6 -2,-0.8 -3.4,-0.8 -1,0 -2,0.2 -3,0.7 -1,0.5 -1.8,1.1 -2.6,2.1 -0.7,0.9 -1.3,2.1 -1.7,3.5 -0.4,1.4 -0.6,3.1 -0.6,5 v 17.7 h -5.8 v -34 z"
   id="path236"
   inkscape:connector-curvature="0" />
	<path
   d="m 617,1156.5 h 5.8 v 4.9 h 0.1 c 1.1,-1.8 2.7,-3.2 4.6,-4.2 2,-1 4,-1.5 6.1,-1.5 2.4,0 4.5,0.5 6.4,1.4 1.9,0.9 3.6,2.2 4.9,3.8 1.3,1.6 2.4,3.5 3.1,5.7 0.7,2.2 1.1,4.5 1.1,7 0,2.5 -0.4,4.9 -1.1,7.1 -0.7,2.2 -1.8,4.1 -3.1,5.7 -1.4,1.6 -3,2.9 -4.9,3.8 -1.9,0.9 -4.1,1.4 -6.4,1.4 -2.2,0 -4.3,-0.5 -6.2,-1.5 -1.9,-1 -3.4,-2.4 -4.5,-4.2 h -0.1 v 25.2 H 617 Z m 15.9,5.2 c -1.6,0 -3,0.3 -4.2,0.9 -1.3,0.6 -2.3,1.4 -3.2,2.4 -0.9,1 -1.5,2.3 -2,3.7 -0.5,1.5 -0.7,3.1 -0.7,4.8 0,1.7 0.2,3.3 0.7,4.8 0.5,1.5 1.1,2.7 2,3.7 0.9,1 1.9,1.8 3.2,2.4 1.3,0.6 2.7,0.9 4.2,0.9 1.5,0 3,-0.3 4.2,-0.9 1.3,-0.6 2.3,-1.4 3.2,-2.4 0.9,-1 1.5,-2.3 2,-3.7 0.5,-1.5 0.7,-3.1 0.7,-4.8 0,-1.7 -0.2,-3.3 -0.7,-4.8 -0.5,-1.5 -1.1,-2.7 -2,-3.7 -0.9,-1 -1.9,-1.8 -3.2,-2.4 -1.2,-0.6 -2.6,-0.9 -4.2,-0.9 z"
   id="path238"
   inkscape:connector-curvature="0" />
</g>
<g
   id="g262"
   transform="translate(-149.36867,-141.8)">
	<path
   d="m 1408.2,1109.1 c 0.9,1.6 2.1,2.7 3.6,3.4 1.5,0.7 3,1.1 4.5,1.1 0.9,0 1.7,-0.2 2.6,-0.5 0.9,-0.3 1.7,-0.8 2.5,-1.3 0.7,-0.6 1.3,-1.3 1.8,-2.2 0.5,-0.9 0.7,-1.9 0.7,-3.1 0,-1.6 -0.5,-2.9 -1.4,-3.8 -0.9,-0.9 -2.1,-1.6 -3.5,-2.2 -1.4,-0.6 -2.9,-1.1 -4.5,-1.7 -1.6,-0.5 -3.2,-1.3 -4.5,-2.2 -1.3,-0.9 -2.5,-2.2 -3.5,-3.9 -0.9,-1.6 -1.4,-3.8 -1.4,-6.6 0,-1.2 0.2,-2.6 0.7,-4 0.5,-1.4 1.2,-2.7 2.3,-3.8 1,-1.2 2.4,-2.1 4,-2.9 1.6,-0.8 3.6,-1.2 5.9,-1.2 2.1,0 4.1,0.3 6,1 1.9,0.6 3.6,1.9 5,3.9 l -4.2,4.3 c -0.6,-1.1 -1.6,-2 -2.8,-2.7 -1.2,-0.7 -2.5,-1 -4,-1 -1.4,0 -2.6,0.2 -3.6,0.6 -1,0.4 -1.7,1 -2.3,1.6 -0.6,0.7 -1,1.4 -1.2,2.1 -0.2,0.8 -0.4,1.5 -0.4,2.1 0,1.8 0.5,3.2 1.4,4.1 0.9,1 2.1,1.7 3.5,2.3 1.4,0.6 2.9,1.1 4.5,1.6 1.6,0.5 3.1,1.2 4.5,2 1.4,0.9 2.5,2 3.5,3.5 0.9,1.5 1.4,3.5 1.4,6 0,2 -0.4,3.9 -1.1,5.5 -0.7,1.6 -1.6,3 -2.8,4.1 -1.2,1.1 -2.6,2 -4.2,2.6 -1.6,0.6 -3.3,0.9 -5.2,0.9 -2.4,0 -4.8,-0.5 -7,-1.4 -2.2,-1 -3.9,-2.4 -5.2,-4.4 z"
   id="path242"
   inkscape:connector-curvature="0" />
	<path
   d="m 1434.6,1103.8 c 0,-2.1 0.4,-4 1.1,-5.8 0.7,-1.8 1.7,-3.4 2.9,-4.7 1.2,-1.4 2.7,-2.4 4.3,-3.2 1.7,-0.8 3.4,-1.2 5.3,-1.2 1.9,0 3.7,0.4 5.3,1.2 1.7,0.8 3.1,1.9 4.3,3.2 1.2,1.4 2.2,2.9 2.9,4.7 0.7,1.8 1.1,3.7 1.1,5.8 0,2.1 -0.4,4 -1.1,5.9 -0.7,1.8 -1.7,3.4 -2.9,4.7 -1.2,1.3 -2.7,2.4 -4.3,3.2 -1.7,0.8 -3.4,1.2 -5.3,1.2 -1.9,0 -3.7,-0.4 -5.3,-1.2 -1.7,-0.8 -3.1,-1.8 -4.3,-3.2 -1.2,-1.4 -2.2,-2.9 -2.9,-4.7 -0.8,-1.9 -1.1,-3.8 -1.1,-5.9 z m 5.1,0 c 0,1.4 0.2,2.8 0.6,4 0.4,1.2 1,2.3 1.7,3.1 0.7,0.9 1.6,1.5 2.6,2 1,0.5 2.2,0.8 3.5,0.8 1.3,0 2.5,-0.2 3.5,-0.8 1,-0.5 1.9,-1.2 2.6,-2 0.7,-0.9 1.3,-1.9 1.7,-3.1 0.4,-1.2 0.6,-2.5 0.6,-4 0,-1.4 -0.2,-2.8 -0.6,-4 -0.4,-1.2 -1,-2.3 -1.7,-3.1 -0.7,-0.9 -1.6,-1.5 -2.6,-2 -1,-0.5 -2.2,-0.8 -3.5,-0.8 -1.3,0 -2.5,0.2 -3.5,0.8 -1,0.5 -1.9,1.2 -2.6,2 -0.7,0.9 -1.3,1.9 -1.7,3.1 -0.4,1.2 -0.6,2.6 -0.6,4 z"
   id="path244"
   inkscape:connector-curvature="0" />
	<path
   d="m 1469.8,1094.3 h -5.5 v -4.7 h 5.5 v -6.4 c 0,-3.8 0.7,-6.6 2,-8.5 1.3,-1.9 3.6,-2.8 6.8,-2.8 0.5,0 1.1,0 1.7,0.1 0.6,0 1.2,0.2 1.9,0.4 l -0.5,4.8 c -0.5,-0.2 -0.9,-0.3 -1.4,-0.4 -0.4,-0.1 -0.9,-0.1 -1.4,-0.1 -0.9,0 -1.6,0.2 -2.2,0.5 -0.6,0.3 -1,0.7 -1.3,1.3 -0.3,0.6 -0.5,1.2 -0.6,2 -0.1,0.8 -0.1,1.7 -0.1,2.7 v 6.5 h 5.8 v 4.7 h -5.8 v 23.8 h -4.9 z"
   id="path246"
   inkscape:connector-curvature="0" />
	<path
   d="m 1499.6,1094.3 h -7 v 12.9 c 0,0.8 0,1.6 0.1,2.4 0.1,0.8 0.2,1.5 0.4,2.1 0.2,0.6 0.6,1.1 1.1,1.5 0.5,0.4 1.2,0.6 2.1,0.6 0.6,0 1.2,-0.1 1.8,-0.2 0.6,-0.1 1.2,-0.3 1.7,-0.7 v 4.9 c -0.6,0.4 -1.3,0.6 -2.2,0.8 -0.9,0.1 -1.6,0.2 -2.1,0.2 -1.9,0 -3.3,-0.3 -4.3,-0.9 -1,-0.6 -1.8,-1.3 -2.3,-2.2 -0.5,-0.9 -0.8,-2 -0.9,-3.1 -0.1,-1.1 -0.1,-2.3 -0.1,-3.5 v -14.8 h -5.6 v -4.7 h 5.6 v -8 h 4.9 v 8 h 7 v 4.7 z"
   id="path248"
   inkscape:connector-curvature="0" />
	<path
   d="m 1522.1,1075.5 h 24 v 5.4 h -18.8 v 13.3 h 17.5 v 5.4 h -17.5 v 18.4 h -5.2 z"
   id="path250"
   inkscape:connector-curvature="0" />
	<path
   d="m 1551.1,1079.4 c 0,-1.1 0.4,-2 1.1,-2.8 0.7,-0.8 1.5,-1.2 2.5,-1.2 1,0 1.8,0.4 2.5,1.2 0.7,0.8 1.1,1.7 1.1,2.8 0,1.1 -0.4,2 -1.1,2.8 -0.7,0.8 -1.5,1.2 -2.5,1.2 -1,0 -1.8,-0.4 -2.5,-1.2 -0.8,-0.8 -1.1,-1.7 -1.1,-2.8 z m 1.1,10.2 h 4.9 v 28.4 h -4.9 z"
   id="path252"
   inkscape:connector-curvature="0" />
	<path
   d="m 1565.2,1072.7 h 4.9 v 45.4 h -4.9 z"
   id="path254"
   inkscape:connector-curvature="0" />
	<path
   d="m 1591.5,1094.3 h -7 v 12.9 c 0,0.8 0,1.6 0.1,2.4 0.1,0.8 0.2,1.5 0.4,2.1 0.2,0.6 0.6,1.1 1.1,1.5 0.5,0.4 1.2,0.6 2.1,0.6 0.6,0 1.2,-0.1 1.8,-0.2 0.6,-0.1 1.2,-0.3 1.7,-0.7 v 4.9 c -0.6,0.4 -1.3,0.6 -2.2,0.8 -0.9,0.1 -1.6,0.2 -2.1,0.2 -1.9,0 -3.3,-0.3 -4.3,-0.9 -1,-0.6 -1.8,-1.3 -2.3,-2.2 -0.5,-0.9 -0.8,-2 -0.9,-3.1 -0.1,-1.1 -0.1,-2.3 -0.1,-3.5 v -14.8 h -5.6 v -4.7 h 5.6 v -8 h 4.9 v 8 h 7 v 4.7 z"
   id="path256"
   inkscape:connector-curvature="0" />
	<path
   d="m 1601.4,1105.8 c 0,1.2 0.2,2.4 0.7,3.4 0.5,1 1.1,1.9 1.9,2.6 0.8,0.7 1.7,1.3 2.8,1.7 1,0.4 2.1,0.6 3.2,0.6 1.5,0 2.8,-0.4 3.9,-1.2 1.1,-0.8 2.1,-1.8 3.1,-3.1 l 3.7,3.1 c -2.7,3.9 -6.5,5.8 -11.3,5.8 -2,0 -3.8,-0.4 -5.5,-1.1 -1.6,-0.8 -3,-1.8 -4.2,-3.2 -1.1,-1.3 -2,-2.9 -2.6,-4.7 -0.6,-1.8 -0.9,-3.8 -0.9,-5.9 0,-2.1 0.3,-4.1 1,-5.9 0.7,-1.8 1.6,-3.4 2.8,-4.7 1.2,-1.3 2.6,-2.4 4.2,-3.2 1.6,-0.8 3.4,-1.1 5.3,-1.1 2.3,0 4.2,0.4 5.8,1.3 1.6,0.9 2.9,2 3.9,3.4 1,1.4 1.7,3 2.2,4.8 0.4,1.8 0.7,3.6 0.7,5.4 v 1.9 h -20.7 z m 15.3,-4.3 c 0,-1.2 -0.2,-2.3 -0.5,-3.3 -0.3,-1 -0.8,-1.9 -1.4,-2.6 -0.6,-0.7 -1.4,-1.3 -2.3,-1.7 -0.9,-0.4 -2,-0.6 -3.2,-0.6 -1.2,0 -2.3,0.2 -3.3,0.8 -1,0.6 -1.8,1.2 -2.5,1.9 -0.7,0.8 -1.2,1.7 -1.6,2.7 -0.4,1 -0.6,2 -0.6,2.9 h 15.4 z"
   id="path258"
   inkscape:connector-curvature="0" />
	<path
   d="m 1627.8,1089.6 h 4.9 v 4.4 h 0.1 c 0.3,-0.8 0.8,-1.4 1.3,-2.1 0.5,-0.6 1.1,-1.1 1.8,-1.6 0.7,-0.4 1.4,-0.8 2.2,-1 0.8,-0.3 1.6,-0.4 2.4,-0.4 0.8,0 1.5,0.1 2.2,0.4 l -0.2,5.8 c -0.4,-0.1 -0.8,-0.2 -1.2,-0.3 -0.4,-0.1 -0.8,-0.1 -1.2,-0.1 -2.4,0 -4.2,0.7 -5.5,2.2 -1.3,1.5 -1.9,3.8 -1.9,6.9 v 14.3 h -4.9 z"
   id="path260"
   inkscape:connector-curvature="0" />
</g>
<path
   class="st13"
   d="m 86.931328,1200.2 c 0.9,-23.9 -17.7,-43.8 -41.8,-44.7 -24,-0.9 -44.19999993,17.6 -45.09999993,41.4 -0.9,23.9 17.69999993,43.8 41.79999993,44.7 24,1 44.1,-17.5 45.1,-41.4"
   id="path264"
   inkscape:connector-curvature="0"
   style="fill:#e8edee" />
<path
   class="st14"
   d="m 73.531328,1199.7 c 0.6,-16.6 -12.2,-30.3 -28.9,-31 -16.7,-0.7 -30.6,12.1 -31.2,28.7 -0.6,16.6 12.2,30.3 28.9,31 16.7,0.7 30.6,-12.1 31.2,-28.7"
   id="path266"
   inkscape:connector-curvature="0"
   style="fill:#ffffff" />
<path
   class="st15"
   d="m 21.931328,1219.3 c 5.2,5.2 12.4,8.8 20.4,9.1 8,0.3 15.5,-2.7 21,-7.5 -5.2,-5.2 -12.4,-8.8 -20.4,-9.1 -8,-0.3 -15.5,2.8 -21,7.5"
   id="path268"
   inkscape:connector-curvature="0"
   style="fill:#e15649" />
<path
   class="st16"
   d="m 43.331328,1201.9 c -1,0 -1.7,-0.4 -2.3,-1.1 -1.3,-1.4 -1.2,-3.4 0.2,-4.6 l 10.4,-9.6 c 1.4,-1.3 3.4,-1.2 4.7,0.2 1.3,1.4 1.2,3.4 -0.2,4.6 l -10.4,9.6 c -0.7,0.6 -1.4,0.9 -2.4,0.9"
   id="path270"
   inkscape:connector-curvature="0"
   style="fill:#556080" />
<path
   class="st17"
   d="m 41.831328,1241.8 c -3.3,0 -6.7,-0.4 -10,-1.6 l -0.2,24.1 20.1,0.2 0.2,-24.1 c -3.4,1.1 -6.8,1.4 -10.1,1.4"
   id="path272"
   inkscape:connector-curvature="0"
   style="fill:#c7cbc7" />
<g
   id="g280"
   transform="translate(-149.36867,-141.8)">
	<path
   class="st16"
   d="m 222.7,1338.2 -6.3,-0.2 c -2,-0.1 -3.4,1.2 -3.5,3.2 -0.1,2 1.2,3.4 3.2,3.4 l 6.3,0.2 c 0,-1 0.4,-2.3 0.5,-3.3 0,-1 0.1,-2.3 -0.2,-3.3"
   id="path274"
   inkscape:connector-curvature="0"
   style="fill:#556080" />
	<path
   class="st16"
   d="m 194,1310.6 c -1,0 -2.3,-0.1 -3.4,0.2 l -0.2,6.3 c -0.1,2 1.2,3.4 3.2,3.4 2,0.1 3.4,-1.2 3.5,-3.2 l 0.2,-6.3 c -1,-0.4 -2.3,-0.4 -3.3,-0.4"
   id="path276"
   inkscape:connector-curvature="0"
   style="fill:#556080" />
	<path
   class="st16"
   d="m 169.6,1336.2 -6.3,-0.2 c 0,1 -0.4,2.3 -0.5,3.3 0,1 -0.1,2.3 0.2,3.3 l 6.3,0.2 c 2,0.1 3.4,-1.2 3.5,-3.2 0.1,-2 -1.2,-3.4 -3.2,-3.4"
   id="path278"
   inkscape:connector-curvature="0"
   style="fill:#556080" />
</g>
<g
   id="g284"
   transform="translate(-149.36867,-141.8)">
	<path
   class="st19"
   d="M 214.8,1465.7 168,1466 c -3.7,0 -6.7,-2.9 -6.7,-6.6 L 161,1413 c 0,-3.6 3,-6.7 6.6,-6.7 l 46.8,-0.3 c 3.7,0 6.7,2.9 6.7,6.6 l 0.3,46.4 c 0.1,3.7 -2.9,6.7 -6.6,6.7"
   id="path282"
   inkscape:connector-curvature="0"
   style="fill:#949493" />
</g>
<g
   id="Page-1_4_"
   transform="translate(-149.36867,-141.8)">
	<g
   id="gauge_3_">
		<path
   id="Shape_20_"
   class="st18"
   d="m 916,1319.8 c -19.9,-0.3 -36.2,13.8 -36.4,31.4 -0.2,17.6 15.7,32.1 35.6,32.3 19.9,0.3 36.2,-13.8 36.4,-31.4 0.2,-17.5 -15.8,-32 -35.6,-32.3 z m -0.8,60.6 c -17.9,-0.2 -32.3,-13.3 -32.1,-29.1 0.2,-15.8 15,-28.5 32.9,-28.3 17.9,0.2 32.3,13.3 32.1,29.1 -0.3,15.8 -15,28.5 -32.9,28.3 z"
   inkscape:connector-curvature="0"
   style="fill:#9b9b9b" />
		<path
   id="Shape_19_"
   class="st18"
   d="m 951.2,1325.2 c -6.8,-7.1 -16.1,-12 -26.3,-13.9 l 0.1,-6 -17.7,-0.2 -0.1,6 c -10.3,1.6 -19.7,6.3 -26.7,13.2 -7.4,7.4 -11.5,16.9 -11.7,26.7 -0.1,9.5 3.5,18.8 10.2,26.2 6.3,7 15,12 24.7,14.3 l -0.2,14.8 22.4,0.3 0.2,-14.8 c 9.7,-2 18.6,-6.8 25.1,-13.6 6.9,-7.2 10.7,-16.5 10.9,-26 0.2,-9.8 -3.7,-19.4 -10.9,-27 z m -2.6,51 c -6.3,6.6 -15,11.2 -24.5,12.8 l -1.4,0.2 -0.2,14.2 -15.4,-0.2 0.2,-14.2 -1.4,-0.3 c -9.5,-1.9 -18,-6.7 -24.1,-13.5 -6.2,-6.9 -9.5,-15.5 -9.4,-24.2 0.1,-9.1 3.9,-17.9 10.8,-24.7 6.7,-6.7 16,-11.1 26,-12.4 l 1.5,-0.2 0.1,-5.5 10.6,0.1 -0.1,5.5 1.5,0.2 c 10,1.5 19.1,6.2 25.7,13.1 6.6,7 10.2,15.9 10.1,25 -0.1,8.9 -3.6,17.4 -10,24.1 z"
   inkscape:connector-curvature="0"
   style="fill:#9b9b9b" />
		
			<rect
   id="Rectangle-path_13_"
   x="913.40002"
   y="1387.7"
   transform="matrix(0.01304608,-0.9999,0.9999,0.01304608,-489.2087,2289.1497)"
   class="st18"
   width="3.0999999"
   height="9.3999996"
   style="fill:#9b9b9b" />
		
			<rect
   id="Rectangle-path_12_"
   x="913.40002"
   y="1393.9"
   transform="matrix(0.01304608,-0.9999,0.9999,0.01304608,-495.5565,2295.2512)"
   class="st18"
   width="3.0999999"
   height="9.3999996"
   style="fill:#9b9b9b" />
		<path
   id="Shape_18_"
   class="st18"
   d="m 915.9,1327.1 c -15.3,-0.2 -27.9,10.6 -28.1,24.2 v 1.6 l 10,0.1 v -3.1 l -6.4,-0.1 c 0.4,-4.5 2.4,-8.5 5.4,-11.8 l 5.7,5.2 2.5,-2.2 -5.8,-5.3 c 4,-3.2 9.1,-5.2 14.7,-5.5 l -0.1,6.7 h 3.5 l 0.1,-6.7 c 5.6,0.4 10.7,2.6 14.6,5.8 l -5.9,5.1 2.5,2.2 5.9,-5 c 3,3.3 4.8,7.4 5.1,11.9 l -6.4,-0.1 v 3.1 l 10,0.1 v -1.6 c 0.3,-13.2 -12,-24.4 -27.3,-24.6 z"
   inkscape:connector-curvature="0"
   style="fill:#9b9b9b" />
		<path
   id="Shape_17_"
   class="st18"
   d="m 917.2,1358.7 0.2,-18.5 h -3.5 l -0.2,18.5 c -3.4,0.7 -6,3.3 -6,6.5 0,3.7 3.4,6.8 7.6,6.9 4.2,0.1 7.7,-2.9 7.8,-6.7 0,-3.3 -2.5,-6 -5.9,-6.7 z m -1.9,10.2 c -2.3,0 -4.1,-1.7 -4.1,-3.7 0,-2 1.9,-3.6 4.2,-3.6 2.3,0 4.1,1.7 4.1,3.7 0,2 -1.9,3.6 -4.2,3.6 z"
   inkscape:connector-curvature="0"
   style="fill:#9b9b9b" />
		
			<rect
   id="Rectangle-path_11_"
   x="893.79999"
   y="1356.3"
   transform="matrix(0.01304608,-0.9999,0.9999,0.01304608,-474.907,2236.2734)"
   class="st18"
   width="3.0999999"
   height="4.6999998"
   style="fill:#9b9b9b" />
		
			<rect
   id="Rectangle-path_10_"
   x="934"
   y="1356.9"
   transform="matrix(0.01304608,-0.9999,0.9999,0.01304608,-435.8001,2276.9417)"
   class="st18"
   width="3.0999999"
   height="4.6999998"
   style="fill:#9b9b9b" />
	</g>
</g>
<path
   class="st17"
   d="m 765.63133,1262.9 c -4,-0.1 -8,-0.6 -12,-1.9 l -0.5,26.9 24.1,0.4 0.5,-26.9 c -4.1,1.3 -8.1,1.6 -12.1,1.5"
   id="path296"
   inkscape:connector-curvature="0"
   style="fill:#c7cbc7" />
<g
   id="g300"
   transform="translate(-149.36867,-141.8)">
	<path
   class="st19"
   d="m 939.1,1485.1 -46.8,0.5 c -3.7,0 -6.7,-2.9 -6.7,-6.6 l -0.5,-46.4 c 0,-3.6 2.9,-6.7 6.6,-6.7 l 46.8,-0.5 c 3.7,0 6.7,2.9 6.7,6.6 l 0.5,46.4 c 0.1,3.6 -2.9,6.6 -6.6,6.7"
   id="path298"
   inkscape:connector-curvature="0"
   style="fill:#949493" />
</g>
<g
   id="g322"
   transform="translate(-149.36867,-141.8)">
	<path
   d="m 288,1415 h 26.9 v 5.4 h -21.1 v 13.3 h 19.7 v 5.4 h -19.7 v 18.4 H 288 Z"
   id="path302"
   inkscape:connector-curvature="0" />
	<path
   d="m 321.7,1412.1 h 5.4 v 45.4 h -5.4 z"
   id="path304"
   inkscape:connector-curvature="0" />
	<path
   d="m 334.4,1443.2 c 0,-2.1 0.4,-4 1.2,-5.8 0.8,-1.8 1.9,-3.4 3.2,-4.7 1.4,-1.4 3,-2.4 4.8,-3.2 1.9,-0.8 3.9,-1.2 6,-1.2 2.1,0 4.1,0.4 6,1.2 1.9,0.8 3.5,1.9 4.8,3.2 1.4,1.4 2.4,2.9 3.2,4.7 0.8,1.8 1.2,3.7 1.2,5.8 0,2.1 -0.4,4 -1.2,5.8 -0.8,1.8 -1.9,3.4 -3.2,4.7 -1.4,1.3 -3,2.4 -4.8,3.2 -1.9,0.8 -3.9,1.2 -6,1.2 -2.1,0 -4.1,-0.4 -6,-1.2 -1.9,-0.8 -3.5,-1.8 -4.8,-3.2 -1.4,-1.3 -2.4,-2.9 -3.2,-4.7 -0.8,-1.7 -1.2,-3.7 -1.2,-5.8 z m 5.8,0 c 0,1.4 0.2,2.8 0.7,4 0.4,1.2 1.1,2.3 1.9,3.1 0.8,0.9 1.8,1.5 3,2 1.2,0.5 2.5,0.8 3.9,0.8 1.5,0 2.8,-0.2 3.9,-0.8 1.2,-0.5 2.2,-1.2 3,-2 0.8,-0.9 1.4,-1.9 1.9,-3.1 0.4,-1.2 0.7,-2.5 0.7,-4 0,-1.4 -0.2,-2.8 -0.7,-4 -0.4,-1.2 -1.1,-2.3 -1.9,-3.1 -0.8,-0.9 -1.8,-1.5 -3,-2 -1.2,-0.5 -2.5,-0.8 -3.9,-0.8 -1.5,0 -2.8,0.2 -3.9,0.8 -1.2,0.5 -2.2,1.2 -3,2 -0.8,0.9 -1.4,1.9 -1.9,3.1 -0.4,1.3 -0.7,2.6 -0.7,4 z"
   id="path306"
   inkscape:connector-curvature="0" />
	<path
   d="m 368.3,1429 h 6.1 l 6.4,21.2 h 0.1 l 6.9,-21.2 h 5.8 l 7.3,21.2 h 0.1 l 6.1,-21.2 h 5.8 l -9.3,28.4 h -5.5 l -7.6,-21.2 h -0.1 l -6.9,21.2 h -5.8 z"
   id="path308"
   inkscape:connector-curvature="0" />
	<path
   d="m 437.1,1448.6 c 1,1.6 2.4,2.7 4,3.5 1.6,0.7 3.3,1.1 5,1.1 1,0 2,-0.1 3,-0.4 1,-0.3 1.9,-0.8 2.8,-1.4 0.8,-0.6 1.5,-1.3 2,-2.2 0.5,-0.9 0.8,-1.9 0.8,-3.1 0,-1.6 -0.5,-2.9 -1.6,-3.8 -1,-0.9 -2.3,-1.6 -3.9,-2.2 -1.6,-0.6 -3.2,-1.1 -5.1,-1.7 -1.8,-0.5 -3.5,-1.3 -5.1,-2.2 -1.6,-1 -2.9,-2.2 -3.9,-3.9 -1,-1.6 -1.6,-3.8 -1.6,-6.6 0,-1.2 0.3,-2.6 0.8,-4 0.5,-1.4 1.4,-2.7 2.6,-3.8 1.2,-1.2 2.7,-2.1 4.5,-2.9 1.8,-0.8 4,-1.2 6.6,-1.2 2.3,0 4.6,0.3 6.7,1 2.1,0.6 4,1.9 5.6,3.9 l -4.7,4.3 c -0.7,-1.1 -1.8,-2 -3.1,-2.7 -1.3,-0.7 -2.8,-1 -4.5,-1 -1.6,0 -3,0.2 -4,0.6 -1.1,0.4 -1.9,1 -2.6,1.6 -0.6,0.7 -1.1,1.4 -1.4,2.1 -0.3,0.8 -0.4,1.5 -0.4,2.1 0,1.8 0.5,3.2 1.6,4.1 1,1 2.3,1.7 3.9,2.3 1.6,0.6 3.2,1.1 5.1,1.6 1.8,0.5 3.5,1.2 5.1,2 1.6,0.9 2.9,2 3.9,3.5 1,1.5 1.6,3.5 1.6,6 0,2 -0.4,3.9 -1.2,5.5 -0.8,1.6 -1.8,3 -3.2,4.1 -1.3,1.1 -2.9,2 -4.7,2.6 -1.8,0.6 -3.8,0.9 -5.8,0.9 -2.7,0 -5.3,-0.5 -7.8,-1.4 -2.5,-1 -4.4,-2.4 -5.9,-4.4 z"
   id="path310"
   inkscape:connector-curvature="0" />
	<path
   d="m 472.2,1445.2 c 0,1.2 0.3,2.4 0.8,3.4 0.5,1 1.3,1.9 2.1,2.6 0.9,0.7 1.9,1.3 3.1,1.7 1.2,0.4 2.4,0.6 3.6,0.6 1.7,0 3.2,-0.4 4.4,-1.2 1.2,-0.8 2.4,-1.8 3.4,-3.1 l 4.1,3.1 c -3,3.9 -7.3,5.8 -12.7,5.8 -2.3,0 -4.3,-0.4 -6.1,-1.1 -1.8,-0.8 -3.4,-1.8 -4.7,-3.2 -1.3,-1.3 -2.2,-2.9 -2.9,-4.7 -0.7,-1.8 -1,-3.8 -1,-5.9 0,-2.1 0.4,-4.1 1.1,-5.9 0.7,-1.8 1.8,-3.4 3.1,-4.7 1.3,-1.3 2.9,-2.4 4.7,-3.1 1.8,-0.7 3.8,-1.1 5.9,-1.1 2.5,0 4.7,0.4 6.4,1.3 1.7,0.9 3.2,2 4.3,3.5 1.1,1.4 1.9,3 2.4,4.8 0.5,1.8 0.8,3.6 0.8,5.4 v 1.9 h -22.8 z m 17.2,-4.3 c 0,-1.2 -0.2,-2.3 -0.6,-3.3 -0.3,-1 -0.9,-1.9 -1.5,-2.6 -0.7,-0.7 -1.5,-1.3 -2.6,-1.7 -1,-0.4 -2.2,-0.6 -3.6,-0.6 -1.3,0 -2.6,0.2 -3.7,0.8 -1.1,0.5 -2,1.2 -2.8,2 -0.8,0.8 -1.4,1.7 -1.8,2.7 -0.4,1 -0.6,2 -0.6,2.9 h 17.2 z"
   id="path312"
   inkscape:connector-curvature="0" />
	<path
   d="m 501.7,1429 h 5.4 v 4.4 h 0.1 c 0.7,-1.5 1.9,-2.8 3.6,-3.7 1.7,-0.9 3.6,-1.4 5.9,-1.4 1.4,0 2.7,0.2 4,0.6 1.3,0.4 2.4,1.1 3.3,2 0.9,0.9 1.7,2 2.3,3.4 0.6,1.4 0.8,3 0.8,4.9 v 18.3 h -5.4 v -16.8 c 0,-1.3 -0.2,-2.5 -0.5,-3.4 -0.4,-0.9 -0.8,-1.7 -1.5,-2.3 -0.6,-0.6 -1.3,-1 -2.1,-1.3 -0.8,-0.3 -1.6,-0.4 -2.4,-0.4 -1.1,0 -2.2,0.2 -3.1,0.5 -0.9,0.3 -1.8,0.9 -2.5,1.7 -0.7,0.8 -1.3,1.8 -1.7,3 -0.4,1.2 -0.6,2.6 -0.6,4.3 v 14.6 h -5.4 V 1429 Z"
   id="path314"
   inkscape:connector-curvature="0" />
	<path
   d="m 550.6,1436.1 c -0.6,-0.8 -1.4,-1.5 -2.4,-2 -0.9,-0.5 -2.1,-0.8 -3.5,-0.8 -1.3,0 -2.4,0.3 -3.4,0.8 -0.9,0.5 -1.4,1.3 -1.4,2.4 0,0.8 0.3,1.5 0.8,2 0.5,0.5 1.2,0.9 1.9,1.3 0.7,0.3 1.5,0.6 2.4,0.7 0.8,0.2 1.6,0.3 2.2,0.4 1.2,0.3 2.3,0.6 3.3,1 1,0.4 1.9,0.9 2.7,1.6 0.7,0.6 1.3,1.4 1.8,2.3 0.4,0.9 0.6,2 0.6,3.4 0,1.6 -0.3,3 -1,4.1 -0.7,1.1 -1.6,2.1 -2.7,2.8 -1.1,0.7 -2.3,1.2 -3.7,1.6 -1.4,0.3 -2.8,0.5 -4.2,0.5 -2.4,0 -4.5,-0.4 -6.3,-1.1 -1.8,-0.7 -3.4,-2 -4.8,-4 l 4.1,-3.4 c 0.9,0.9 1.9,1.7 3,2.3 1.1,0.7 2.4,1 4,1 0.7,0 1.4,-0.1 2.1,-0.2 0.7,-0.1 1.3,-0.4 1.9,-0.7 0.5,-0.3 1,-0.7 1.3,-1.1 0.3,-0.5 0.5,-1 0.5,-1.6 0,-0.8 -0.3,-1.5 -0.8,-2 -0.5,-0.5 -1.1,-0.9 -1.8,-1.2 -0.7,-0.3 -1.5,-0.5 -2.2,-0.7 -0.8,-0.2 -1.5,-0.3 -2.1,-0.5 -1.2,-0.3 -2.3,-0.6 -3.3,-1 -1,-0.4 -2,-0.8 -2.8,-1.4 -0.8,-0.6 -1.5,-1.4 -1.9,-2.3 -0.5,-0.9 -0.7,-2.1 -0.7,-3.4 0,-1.5 0.3,-2.8 0.9,-3.9 0.6,-1.1 1.5,-2 2.5,-2.7 1,-0.7 2.2,-1.3 3.5,-1.6 1.3,-0.4 2.6,-0.5 4,-0.5 1.9,0 3.8,0.4 5.6,1.1 1.8,0.7 3.2,1.9 4.2,3.6 z"
   id="path316"
   inkscape:connector-curvature="0" />
	<path
   d="m 560.8,1443.2 c 0,-2.1 0.4,-4 1.2,-5.8 0.8,-1.8 1.9,-3.4 3.2,-4.7 1.4,-1.4 3,-2.4 4.8,-3.2 1.9,-0.8 3.9,-1.2 6,-1.2 2.1,0 4.1,0.4 6,1.2 1.9,0.8 3.5,1.9 4.8,3.2 1.4,1.4 2.4,2.9 3.2,4.7 0.8,1.8 1.2,3.7 1.2,5.8 0,2.1 -0.4,4 -1.2,5.8 -0.8,1.8 -1.9,3.4 -3.2,4.7 -1.4,1.3 -3,2.4 -4.8,3.2 -1.9,0.8 -3.9,1.2 -6,1.2 -2.1,0 -4.1,-0.4 -6,-1.2 -1.9,-0.8 -3.5,-1.8 -4.8,-3.2 -1.4,-1.3 -2.4,-2.9 -3.2,-4.7 -0.8,-1.7 -1.2,-3.7 -1.2,-5.8 z m 5.8,0 c 0,1.4 0.2,2.8 0.7,4 0.4,1.2 1.1,2.3 1.9,3.1 0.8,0.9 1.8,1.5 3,2 1.2,0.5 2.5,0.8 3.9,0.8 1.5,0 2.8,-0.2 3.9,-0.8 1.2,-0.5 2.2,-1.2 3,-2 0.8,-0.9 1.4,-1.9 1.9,-3.1 0.4,-1.2 0.7,-2.5 0.7,-4 0,-1.4 -0.2,-2.8 -0.7,-4 -0.4,-1.2 -1.1,-2.3 -1.9,-3.1 -0.8,-0.9 -1.8,-1.5 -3,-2 -1.2,-0.5 -2.5,-0.8 -3.9,-0.8 -1.5,0 -2.8,0.2 -3.9,0.8 -1.2,0.5 -2.2,1.2 -3,2 -0.8,0.9 -1.4,1.9 -1.9,3.1 -0.5,1.3 -0.7,2.6 -0.7,4 z"
   id="path318"
   inkscape:connector-curvature="0" />
	<path
   d="m 598.1,1429 h 5.4 v 4.4 h 0.1 c 0.4,-0.8 0.8,-1.5 1.5,-2.1 0.7,-0.6 1.3,-1.1 2,-1.6 0.7,-0.4 1.6,-0.8 2.4,-1 0.9,-0.3 1.8,-0.4 2.7,-0.4 0.9,0 1.7,0.1 2.4,0.4 l -0.2,5.8 c -0.4,-0.1 -0.9,-0.2 -1.3,-0.3 -0.4,-0.1 -0.9,-0.1 -1.3,-0.1 -2.7,0 -4.7,0.7 -6.1,2.2 -1.4,1.5 -2.1,3.8 -2.1,6.9 v 14.3 h -5.4 V 1429 Z"
   id="path320"
   inkscape:connector-curvature="0" />
</g>
<g
   id="g360"
   transform="translate(-149.36867,-141.8)">
	<path
   d="m 1012.6,1421.5 h 15.1 c 2.7,0 5,0.4 6.8,1.1 1.8,0.7 3.2,1.7 4.2,2.8 1,1.1 1.7,2.4 2.1,3.8 0.4,1.4 0.6,2.8 0.6,4.1 0,1.3 -0.2,2.7 -0.6,4.1 -0.4,1.4 -1.1,2.7 -2.1,3.8 -1,1.1 -2.4,2.1 -4.2,2.8 -1.8,0.7 -4,1.1 -6.8,1.1 h -9.3 v 18.7 h -5.8 z m 5.8,18.8 h 7.6 c 1.1,0 2.2,-0.1 3.4,-0.3 1.1,-0.2 2.1,-0.5 3,-1 0.9,-0.5 1.6,-1.2 2.1,-2.1 0.5,-0.9 0.8,-2.1 0.8,-3.5 0,-1.4 -0.3,-2.6 -0.8,-3.5 -0.5,-0.9 -1.2,-1.6 -2.1,-2.1 -0.9,-0.5 -1.9,-0.8 -3,-1 -1.1,-0.2 -2.2,-0.3 -3.4,-0.3 h -7.6 z"
   id="path324"
   inkscape:connector-curvature="0" />
	<path
   d="m 1047.1,1435.6 h 5.4 v 4.4 h 0.1 c 0.4,-0.8 0.8,-1.5 1.5,-2.1 0.7,-0.6 1.3,-1.1 2,-1.6 0.7,-0.4 1.6,-0.8 2.4,-1 0.9,-0.3 1.8,-0.4 2.7,-0.4 0.9,0 1.7,0.1 2.4,0.4 l -0.2,5.8 c -0.4,-0.1 -0.9,-0.2 -1.3,-0.3 -0.4,-0.1 -0.9,-0.1 -1.3,-0.1 -2.7,0 -4.7,0.7 -6.1,2.2 -1.4,1.5 -2.1,3.8 -2.1,6.9 v 14.3 h -5.4 v -28.5 z"
   id="path326"
   inkscape:connector-curvature="0" />
	<path
   d="m 1072.5,1451.8 c 0,1.2 0.3,2.4 0.8,3.4 0.5,1 1.3,1.9 2.1,2.6 0.9,0.7 1.9,1.3 3.1,1.7 1.2,0.4 2.4,0.6 3.6,0.6 1.7,0 3.2,-0.4 4.4,-1.2 1.2,-0.8 2.4,-1.8 3.4,-3.1 l 4.1,3.1 c -3,3.9 -7.3,5.8 -12.7,5.8 -2.3,0 -4.3,-0.4 -6.1,-1.1 -1.8,-0.8 -3.4,-1.8 -4.7,-3.2 -1.3,-1.3 -2.2,-2.9 -2.9,-4.7 -0.7,-1.8 -1,-3.8 -1,-5.9 0,-2.1 0.4,-4.1 1.1,-5.9 0.7,-1.8 1.8,-3.4 3.1,-4.7 1.3,-1.3 2.9,-2.4 4.7,-3.1 1.8,-0.7 3.8,-1.1 5.9,-1.1 2.5,0 4.7,0.4 6.4,1.3 1.7,0.9 3.2,2 4.3,3.5 1.1,1.4 1.9,3 2.4,4.8 0.5,1.8 0.8,3.6 0.8,5.4 v 1.9 h -22.8 z m 17.2,-4.3 c 0,-1.2 -0.2,-2.3 -0.6,-3.3 -0.3,-1 -0.9,-1.9 -1.5,-2.6 -0.7,-0.7 -1.5,-1.3 -2.6,-1.7 -1,-0.4 -2.2,-0.6 -3.6,-0.6 -1.3,0 -2.6,0.2 -3.7,0.8 -1.1,0.5 -2,1.2 -2.8,2 -0.8,0.8 -1.4,1.7 -1.8,2.7 -0.4,1 -0.6,2 -0.6,2.9 h 17.2 z"
   id="path328"
   inkscape:connector-curvature="0" />
	<path
   d="m 1117.3,1442.7 c -0.6,-0.8 -1.4,-1.5 -2.4,-2 -0.9,-0.5 -2.1,-0.8 -3.5,-0.8 -1.3,0 -2.4,0.3 -3.4,0.8 -0.9,0.5 -1.4,1.3 -1.4,2.4 0,0.8 0.3,1.5 0.8,2 0.5,0.5 1.2,0.9 1.9,1.3 0.7,0.3 1.5,0.6 2.4,0.7 0.8,0.2 1.6,0.3 2.2,0.4 1.2,0.3 2.3,0.6 3.3,1 1,0.4 1.9,0.9 2.7,1.6 0.7,0.6 1.3,1.4 1.8,2.3 0.4,0.9 0.6,2 0.6,3.4 0,1.6 -0.3,3 -1,4.1 -0.7,1.1 -1.6,2.1 -2.7,2.8 -1.1,0.7 -2.3,1.2 -3.7,1.6 -1.4,0.3 -2.8,0.5 -4.2,0.5 -2.4,0 -4.5,-0.4 -6.3,-1.1 -1.8,-0.7 -3.4,-2 -4.8,-4 l 4.1,-3.4 c 0.9,0.9 1.9,1.7 3,2.3 1.1,0.7 2.4,1 4,1 0.7,0 1.4,-0.1 2.1,-0.2 0.7,-0.1 1.3,-0.4 1.9,-0.7 0.5,-0.3 1,-0.7 1.3,-1.1 0.3,-0.5 0.5,-1 0.5,-1.6 0,-0.8 -0.3,-1.5 -0.8,-2 -0.5,-0.5 -1.1,-0.9 -1.8,-1.2 -0.7,-0.3 -1.5,-0.5 -2.2,-0.7 -0.8,-0.2 -1.5,-0.3 -2.1,-0.5 -1.2,-0.3 -2.3,-0.6 -3.3,-1 -1,-0.4 -2,-0.8 -2.8,-1.4 -0.8,-0.6 -1.5,-1.4 -1.9,-2.3 -0.5,-0.9 -0.7,-2.1 -0.7,-3.4 0,-1.5 0.3,-2.8 0.9,-3.9 0.6,-1.1 1.5,-2 2.5,-2.7 1,-0.7 2.2,-1.3 3.5,-1.6 1.3,-0.4 2.6,-0.5 4,-0.5 1.9,0 3.8,0.4 5.6,1.1 1.8,0.7 3.2,1.9 4.2,3.6 z"
   id="path330"
   inkscape:connector-curvature="0" />
	<path
   d="m 1144.1,1442.7 c -0.6,-0.8 -1.4,-1.5 -2.4,-2 -0.9,-0.5 -2.1,-0.8 -3.5,-0.8 -1.3,0 -2.4,0.3 -3.4,0.8 -0.9,0.5 -1.4,1.3 -1.4,2.4 0,0.8 0.3,1.5 0.8,2 0.5,0.5 1.2,0.9 1.9,1.3 0.7,0.3 1.5,0.6 2.4,0.7 0.8,0.2 1.6,0.3 2.2,0.4 1.2,0.3 2.3,0.6 3.3,1 1,0.4 1.9,0.9 2.7,1.6 0.7,0.6 1.3,1.4 1.8,2.3 0.4,0.9 0.6,2 0.6,3.4 0,1.6 -0.3,3 -1,4.1 -0.7,1.1 -1.6,2.1 -2.7,2.8 -1.1,0.7 -2.3,1.2 -3.7,1.6 -1.4,0.3 -2.8,0.5 -4.2,0.5 -2.4,0 -4.5,-0.4 -6.3,-1.1 -1.8,-0.7 -3.4,-2 -4.8,-4 l 4.1,-3.4 c 0.9,0.9 1.9,1.7 3,2.3 1.1,0.7 2.4,1 4,1 0.7,0 1.4,-0.1 2.1,-0.2 0.7,-0.1 1.3,-0.4 1.9,-0.7 0.5,-0.3 1,-0.7 1.3,-1.1 0.3,-0.5 0.5,-1 0.5,-1.6 0,-0.8 -0.3,-1.5 -0.8,-2 -0.5,-0.5 -1.1,-0.9 -1.8,-1.2 -0.7,-0.3 -1.5,-0.5 -2.2,-0.7 -0.8,-0.2 -1.5,-0.3 -2.1,-0.5 -1.2,-0.3 -2.3,-0.6 -3.3,-1 -1,-0.4 -2,-0.8 -2.8,-1.4 -0.8,-0.6 -1.5,-1.4 -1.9,-2.3 -0.5,-0.9 -0.7,-2.1 -0.7,-3.4 0,-1.5 0.3,-2.8 0.9,-3.9 0.6,-1.1 1.5,-2 2.5,-2.7 1,-0.7 2.2,-1.3 3.5,-1.6 1.3,-0.4 2.6,-0.5 4,-0.5 1.9,0 3.8,0.4 5.6,1.1 1.8,0.7 3.2,1.9 4.2,3.6 z"
   id="path332"
   inkscape:connector-curvature="0" />
	<path
   d="m 1181.1,1464 h -5.4 v -4.4 h -0.1 c -0.7,1.5 -1.9,2.8 -3.6,3.7 -1.7,0.9 -3.6,1.4 -5.9,1.4 -1.4,0 -2.7,-0.2 -4,-0.6 -1.2,-0.4 -2.3,-1.1 -3.3,-2 -0.9,-0.9 -1.7,-2 -2.3,-3.4 -0.6,-1.4 -0.8,-3 -0.8,-4.9 v -18.3 h 5.4 v 16.8 c 0,1.3 0.2,2.5 0.5,3.4 0.4,0.9 0.8,1.7 1.5,2.3 0.7,0.6 1.3,1 2.1,1.3 0.8,0.3 1.6,0.4 2.4,0.4 1.1,0 2.2,-0.2 3.1,-0.5 1,-0.4 1.8,-0.9 2.5,-1.7 0.7,-0.8 1.3,-1.8 1.7,-3 0.4,-1.2 0.6,-2.6 0.6,-4.3 v -14.6 h 5.4 v 28.4 z"
   id="path334"
   inkscape:connector-curvature="0" />
	<path
   d="m 1189.3,1435.6 h 5.4 v 4.4 h 0.1 c 0.4,-0.8 0.8,-1.5 1.5,-2.1 0.7,-0.6 1.3,-1.1 2,-1.6 0.7,-0.4 1.6,-0.8 2.4,-1 0.9,-0.3 1.8,-0.4 2.7,-0.4 0.9,0 1.7,0.1 2.4,0.4 l -0.2,5.8 c -0.4,-0.1 -0.9,-0.2 -1.3,-0.3 -0.4,-0.1 -0.9,-0.1 -1.3,-0.1 -2.7,0 -4.7,0.7 -6.1,2.2 -1.4,1.5 -2.1,3.8 -2.1,6.9 v 14.3 h -5.4 v -28.5 z"
   id="path336"
   inkscape:connector-curvature="0" />
	<path
   d="m 1214.7,1451.8 c 0,1.2 0.3,2.4 0.8,3.4 0.5,1 1.3,1.9 2.1,2.6 0.9,0.7 1.9,1.3 3.1,1.7 1.2,0.4 2.4,0.6 3.6,0.6 1.7,0 3.2,-0.4 4.4,-1.2 1.2,-0.8 2.4,-1.8 3.4,-3.1 l 4.1,3.1 c -3,3.9 -7.3,5.8 -12.7,5.8 -2.3,0 -4.3,-0.4 -6.1,-1.1 -1.8,-0.8 -3.4,-1.8 -4.7,-3.2 -1.3,-1.3 -2.2,-2.9 -2.9,-4.7 -0.7,-1.8 -1,-3.8 -1,-5.9 0,-2.1 0.4,-4.1 1.1,-5.9 0.7,-1.8 1.8,-3.4 3.1,-4.7 1.3,-1.3 2.9,-2.4 4.7,-3.1 1.8,-0.7 3.8,-1.1 5.9,-1.1 2.5,0 4.7,0.4 6.4,1.3 1.7,0.9 3.2,2 4.3,3.5 1.1,1.4 1.9,3 2.4,4.8 0.5,1.8 0.8,3.6 0.8,5.4 v 1.9 h -22.8 z m 17.2,-4.3 c 0,-1.2 -0.2,-2.3 -0.6,-3.3 -0.3,-1 -0.9,-1.9 -1.5,-2.6 -0.7,-0.7 -1.5,-1.3 -2.6,-1.7 -1,-0.4 -2.2,-0.6 -3.6,-0.6 -1.3,0 -2.6,0.2 -3.7,0.8 -1.1,0.5 -2,1.2 -2.8,2 -0.8,0.8 -1.4,1.7 -1.8,2.7 -0.4,1 -0.6,2 -0.6,2.9 h 17.2 z"
   id="path338"
   inkscape:connector-curvature="0" />
	<path
   d="m 1271.4,1426.9 h -13.8 v -5.4 h 33.4 v 5.4 h -13.8 v 37.1 h -5.8 z"
   id="path340"
   inkscape:connector-curvature="0" />
	<path
   d="m 1290.2,1435.6 h 5.4 v 4.4 h 0.1 c 0.4,-0.8 0.8,-1.5 1.5,-2.1 0.7,-0.6 1.3,-1.1 2,-1.6 0.7,-0.4 1.6,-0.8 2.4,-1 0.9,-0.3 1.8,-0.4 2.7,-0.4 0.9,0 1.7,0.1 2.4,0.4 l -0.2,5.8 c -0.4,-0.1 -0.9,-0.2 -1.3,-0.3 -0.4,-0.1 -0.9,-0.1 -1.3,-0.1 -2.7,0 -4.7,0.7 -6.1,2.2 -1.4,1.5 -2.1,3.8 -2.1,6.9 v 14.3 h -5.4 v -28.5 z"
   id="path342"
   inkscape:connector-curvature="0" />
	<path
   d="m 1312.7,1439.1 c 1.5,-1.4 3.3,-2.5 5.3,-3.2 2,-0.7 4,-1 6,-1 2.1,0 3.9,0.3 5.4,0.8 1.5,0.5 2.8,1.2 3.7,2.1 1,0.9 1.7,1.9 2.1,3 0.5,1.1 0.7,2.3 0.7,3.6 v 14.5 c 0,1 0,1.9 0.1,2.8 0,0.8 0.1,1.6 0.2,2.4 h -4.8 c -0.1,-1.4 -0.2,-2.9 -0.2,-4.3 h -0.1 c -1.2,1.8 -2.6,3.1 -4.3,3.9 -1.7,0.8 -3.6,1.1 -5.7,1.1 -1.3,0 -2.6,-0.2 -3.8,-0.5 -1.2,-0.4 -2.3,-0.9 -3.2,-1.6 -0.9,-0.7 -1.6,-1.6 -2.1,-2.7 -0.5,-1.1 -0.8,-2.3 -0.8,-3.7 0,-1.8 0.4,-3.4 1.2,-4.6 0.8,-1.2 2,-2.2 3.4,-3 1.4,-0.8 3.1,-1.3 5,-1.7 1.9,-0.3 4,-0.5 6.1,-0.5 h 4 v -1.2 c 0,-0.7 -0.1,-1.4 -0.4,-2.2 -0.3,-0.7 -0.7,-1.4 -1.3,-2 -0.6,-0.6 -1.3,-1 -2.1,-1.4 -0.8,-0.3 -1.9,-0.5 -3,-0.5 -1,0 -2,0.1 -2.8,0.3 -0.8,0.2 -1.5,0.5 -2.1,0.8 -0.6,0.3 -1.2,0.7 -1.8,1 -0.5,0.4 -1,0.8 -1.5,1.1 z m 15.4,11.2 c -1.3,0 -2.6,0.1 -4,0.2 -1.4,0.1 -2.6,0.4 -3.7,0.8 -1.1,0.4 -2,1 -2.7,1.7 -0.7,0.7 -1.1,1.6 -1.1,2.8 0,1.6 0.6,2.8 1.7,3.5 1.1,0.7 2.6,1.1 4.5,1.1 1.5,0 2.8,-0.2 3.8,-0.8 1,-0.5 1.9,-1.1 2.5,-2 0.6,-0.8 1.1,-1.7 1.4,-2.7 0.3,-1 0.4,-2 0.4,-2.9 v -1.8 h -2.8 z"
   id="path344"
   inkscape:connector-curvature="0" />
	<path
   d="m 1344,1435.6 h 5.4 v 4.4 h 0.1 c 0.7,-1.5 1.9,-2.8 3.6,-3.7 1.7,-0.9 3.6,-1.4 5.9,-1.4 1.4,0 2.7,0.2 4,0.6 1.3,0.4 2.4,1.1 3.3,2 0.9,0.9 1.7,2 2.3,3.4 0.6,1.4 0.8,3 0.8,4.9 v 18.3 h -5.4 v -16.8 c 0,-1.3 -0.2,-2.5 -0.5,-3.4 -0.4,-0.9 -0.8,-1.7 -1.5,-2.3 -0.6,-0.6 -1.3,-1 -2.1,-1.3 -0.8,-0.3 -1.6,-0.4 -2.4,-0.4 -1.1,0 -2.2,0.2 -3.1,0.5 -0.9,0.3 -1.8,0.9 -2.5,1.7 -0.7,0.8 -1.3,1.8 -1.7,3 -0.4,1.2 -0.6,2.6 -0.6,4.3 v 14.6 h -5.4 v -28.4 z"
   id="path346"
   inkscape:connector-curvature="0" />
	<path
   d="m 1392.9,1442.7 c -0.6,-0.8 -1.4,-1.5 -2.4,-2 -0.9,-0.5 -2.1,-0.8 -3.5,-0.8 -1.3,0 -2.4,0.3 -3.4,0.8 -0.9,0.5 -1.4,1.3 -1.4,2.4 0,0.8 0.3,1.5 0.8,2 0.5,0.5 1.2,0.9 1.9,1.3 0.7,0.3 1.5,0.6 2.4,0.7 0.8,0.2 1.6,0.3 2.2,0.4 1.2,0.3 2.3,0.6 3.3,1 1,0.4 1.9,0.9 2.7,1.6 0.7,0.6 1.3,1.4 1.8,2.3 0.4,0.9 0.6,2 0.6,3.4 0,1.6 -0.3,3 -1,4.1 -0.7,1.1 -1.6,2.1 -2.7,2.8 -1.1,0.7 -2.3,1.2 -3.7,1.6 -1.4,0.3 -2.8,0.5 -4.2,0.5 -2.4,0 -4.5,-0.4 -6.3,-1.1 -1.8,-0.7 -3.4,-2 -4.8,-4 l 4.1,-3.4 c 0.9,0.9 1.9,1.7 3,2.3 1.1,0.7 2.4,1 4,1 0.7,0 1.4,-0.1 2.1,-0.2 0.7,-0.1 1.3,-0.4 1.9,-0.7 0.5,-0.3 1,-0.7 1.3,-1.1 0.3,-0.5 0.5,-1 0.5,-1.6 0,-0.8 -0.3,-1.5 -0.8,-2 -0.5,-0.5 -1.1,-0.9 -1.8,-1.2 -0.7,-0.3 -1.5,-0.5 -2.2,-0.7 -0.8,-0.2 -1.5,-0.3 -2.1,-0.5 -1.2,-0.3 -2.3,-0.6 -3.3,-1 -1,-0.4 -2,-0.8 -2.8,-1.4 -0.8,-0.6 -1.5,-1.4 -1.9,-2.3 -0.5,-0.9 -0.7,-2.1 -0.7,-3.4 0,-1.5 0.3,-2.8 0.9,-3.9 0.6,-1.1 1.5,-2 2.5,-2.7 1,-0.7 2.2,-1.3 3.5,-1.6 1.3,-0.4 2.6,-0.5 4,-0.5 1.9,0 3.8,0.4 5.6,1.1 1.8,0.7 3.2,1.9 4.2,3.6 z"
   id="path348"
   inkscape:connector-curvature="0" />
	<path
   d="m 1433.2,1464 h -5.4 v -4.1 h -0.1 c -1,1.5 -2.5,2.7 -4.3,3.5 -1.8,0.8 -3.7,1.3 -5.7,1.3 -2.2,0 -4.2,-0.4 -6,-1.1 -1.8,-0.8 -3.3,-1.8 -4.6,-3.2 -1.3,-1.4 -2.2,-2.9 -2.9,-4.7 -0.7,-1.8 -1,-3.8 -1,-5.9 0,-2.1 0.3,-4.1 1,-5.9 0.7,-1.8 1.7,-3.4 2.9,-4.7 1.3,-1.3 2.8,-2.4 4.6,-3.1 1.8,-0.8 3.8,-1.1 6,-1.1 2.1,0 4,0.4 5.8,1.3 1.8,0.9 3.2,2 4.2,3.5 h 0.1 v -21 h 5.4 z m -14.9,-4.3 c 1.5,0 2.8,-0.2 3.9,-0.8 1.2,-0.5 2.2,-1.2 3,-2 0.8,-0.9 1.4,-1.9 1.9,-3.1 0.4,-1.2 0.7,-2.5 0.7,-4 0,-1.4 -0.2,-2.8 -0.7,-4 -0.4,-1.2 -1.1,-2.3 -1.9,-3.1 -0.8,-0.9 -1.8,-1.5 -3,-2 -1.2,-0.5 -2.5,-0.8 -3.9,-0.8 -1.5,0 -2.8,0.2 -3.9,0.8 -1.2,0.5 -2.2,1.2 -3,2 -0.8,0.9 -1.4,1.9 -1.9,3.1 -0.4,1.2 -0.7,2.5 -0.7,4 0,1.4 0.2,2.8 0.7,4 0.4,1.2 1.1,2.3 1.9,3.1 0.8,0.9 1.8,1.5 3,2 1.2,0.5 2.5,0.8 3.9,0.8 z"
   id="path350"
   inkscape:connector-curvature="0" />
	<path
   d="m 1466.8,1464 h -5.4 v -4.4 h -0.1 c -0.7,1.5 -1.9,2.8 -3.6,3.7 -1.7,0.9 -3.6,1.4 -5.9,1.4 -1.4,0 -2.7,-0.2 -4,-0.6 -1.2,-0.4 -2.3,-1.1 -3.3,-2 -0.9,-0.9 -1.7,-2 -2.3,-3.4 -0.6,-1.4 -0.8,-3 -0.8,-4.9 v -18.3 h 5.4 v 16.8 c 0,1.3 0.2,2.5 0.5,3.4 0.4,0.9 0.8,1.7 1.5,2.3 0.7,0.6 1.3,1 2.1,1.3 0.8,0.3 1.6,0.4 2.4,0.4 1.1,0 2.2,-0.2 3.1,-0.5 1,-0.4 1.8,-0.9 2.5,-1.7 0.7,-0.8 1.3,-1.8 1.7,-3 0.4,-1.2 0.6,-2.6 0.6,-4.3 v -14.6 h 5.4 v 28.4 z"
   id="path352"
   inkscape:connector-curvature="0" />
	<path
   d="m 1495.6,1443.1 c -1,-1 -2.1,-1.8 -3.2,-2.4 -1.1,-0.5 -2.4,-0.8 -4,-0.8 -1.5,0 -2.8,0.3 -3.9,0.8 -1.1,0.5 -2,1.3 -2.8,2.2 -0.7,0.9 -1.3,2 -1.7,3.2 -0.4,1.2 -0.6,2.5 -0.6,3.8 0,1.3 0.2,2.6 0.7,3.8 0.4,1.2 1.1,2.2 1.9,3.1 0.8,0.9 1.8,1.6 2.9,2.1 1.1,0.5 2.4,0.8 3.8,0.8 1.5,0 2.8,-0.3 3.9,-0.8 1.1,-0.5 2.1,-1.3 3,-2.4 l 3.9,3.8 c -1.4,1.6 -3.1,2.7 -4.9,3.4 -1.9,0.7 -3.9,1 -6,1 -2.2,0 -4.2,-0.4 -6.1,-1.1 -1.8,-0.7 -3.4,-1.7 -4.7,-3 -1.3,-1.3 -2.4,-2.9 -3.1,-4.7 -0.7,-1.8 -1.1,-3.8 -1.1,-6 0,-2.2 0.4,-4.2 1.1,-6.1 0.7,-1.8 1.7,-3.4 3.1,-4.7 1.3,-1.3 2.9,-2.3 4.7,-3.1 1.8,-0.7 3.9,-1.1 6.1,-1.1 2.1,0 4.1,0.4 6,1.1 1.9,0.7 3.6,1.9 5,3.4 z"
   id="path354"
   inkscape:connector-curvature="0" />
	<path
   d="m 1508.3,1451.8 c 0,1.2 0.3,2.4 0.8,3.4 0.5,1 1.3,1.9 2.1,2.6 0.9,0.7 1.9,1.3 3.1,1.7 1.2,0.4 2.4,0.6 3.6,0.6 1.7,0 3.2,-0.4 4.4,-1.2 1.2,-0.8 2.4,-1.8 3.4,-3.1 l 4.1,3.1 c -3,3.9 -7.3,5.8 -12.7,5.8 -2.3,0 -4.3,-0.4 -6.1,-1.1 -1.8,-0.8 -3.4,-1.8 -4.7,-3.2 -1.3,-1.3 -2.2,-2.9 -2.9,-4.7 -0.7,-1.8 -1,-3.8 -1,-5.9 0,-2.1 0.4,-4.1 1.1,-5.9 0.7,-1.8 1.8,-3.4 3.1,-4.7 1.3,-1.3 2.9,-2.4 4.7,-3.1 1.8,-0.7 3.8,-1.1 5.9,-1.1 2.5,0 4.7,0.4 6.4,1.3 1.7,0.9 3.2,2 4.3,3.5 1.1,1.4 1.9,3 2.4,4.8 0.5,1.8 0.8,3.6 0.8,5.4 v 1.9 h -22.8 z m 17.2,-4.3 c 0,-1.2 -0.2,-2.3 -0.6,-3.3 -0.3,-1 -0.9,-1.9 -1.5,-2.6 -0.7,-0.7 -1.5,-1.3 -2.6,-1.7 -1.1,-0.4 -2.2,-0.6 -3.6,-0.6 -1.3,0 -2.6,0.2 -3.7,0.8 -1.1,0.5 -2,1.2 -2.8,2 -0.8,0.8 -1.4,1.7 -1.8,2.7 -0.4,1 -0.6,2 -0.6,2.9 h 17.2 z"
   id="path356"
   inkscape:connector-curvature="0" />
	<path
   d="m 1537.8,1435.6 h 5.4 v 4.4 h 0.1 c 0.4,-0.8 0.8,-1.5 1.5,-2.1 0.6,-0.6 1.3,-1.1 2,-1.6 0.7,-0.5 1.6,-0.8 2.4,-1 0.8,-0.2 1.8,-0.4 2.7,-0.4 0.9,0 1.7,0.1 2.4,0.4 l -0.2,5.8 c -0.4,-0.1 -0.9,-0.2 -1.3,-0.3 -0.4,-0.1 -0.9,-0.1 -1.3,-0.1 -2.7,0 -4.7,0.7 -6.1,2.2 -1.4,1.5 -2.1,3.8 -2.1,6.9 v 14.3 h -5.4 v -28.5 z"
   id="path358"
   inkscape:connector-curvature="0" />
</g>
<g
   id="g380"
   transform="translate(-149.36867,-141.8)">
	<path
   d="m 1812.1,1024.5 h 15.9 c 2,0 3.8,0.3 5.5,0.8 1.7,0.5 3.2,1.3 4.4,2.3 1.2,1 2.2,2.4 2.9,4 0.7,1.6 1.1,3.5 1.1,5.7 0,2.9 -0.7,5.3 -2.2,7.2 -1.5,1.8 -3.4,3.2 -5.7,4.1 v 0.1 c 1.4,0.1 2.7,0.5 3.9,1.2 1.2,0.7 2.3,1.6 3.1,2.7 0.9,1.1 1.6,2.4 2.1,3.9 0.5,1.5 0.8,3.1 0.8,4.8 0,2.3 -0.4,4.3 -1.3,6.1 -0.8,1.8 -2,3.2 -3.5,4.4 -1.5,1.2 -3.2,2.1 -5.1,2.7 -1.9,0.6 -4,0.9 -6.3,0.9 H 1812 v -50.9 z m 6.2,21.2 h 8.5 c 1.2,0 2.3,-0.1 3.3,-0.4 1,-0.3 1.9,-0.7 2.7,-1.3 0.8,-0.6 1.4,-1.4 1.8,-2.4 0.5,-1 0.7,-2.1 0.7,-3.5 0,-2 -0.6,-3.8 -1.7,-5.3 -1.2,-1.5 -3,-2.2 -5.5,-2.2 h -9.8 z m 0,23.7 h 9.1 c 0.9,0 2,-0.1 3.1,-0.3 1.1,-0.2 2.2,-0.6 3.2,-1.3 1,-0.6 1.8,-1.5 2.5,-2.6 0.7,-1.1 1,-2.6 1,-4.4 0,-3 -0.9,-5.3 -2.7,-6.8 -1.8,-1.5 -4.2,-2.3 -7.2,-2.3 h -9.2 v 17.7 z"
   id="path362"
   inkscape:connector-curvature="0" />
	<path
   d="m 1851.6,1045.5 c 1.6,-1.7 3.5,-2.9 5.7,-3.8 2.2,-0.8 4.3,-1.3 6.5,-1.3 2.2,0 4.2,0.3 5.8,0.9 1.6,0.6 2.9,1.5 4,2.5 1,1.1 1.8,2.3 2.3,3.6 0.5,1.4 0.7,2.8 0.7,4.3 v 17.4 c 0,1.2 0,2.3 0.1,3.3 0,1 0.1,2 0.2,2.9 h -5.2 c -0.1,-1.7 -0.2,-3.5 -0.2,-5.2 h -0.1 c -1.3,2.2 -2.8,3.8 -4.6,4.7 -1.8,0.9 -3.8,1.4 -6.2,1.4 -1.4,0 -2.8,-0.2 -4.1,-0.6 -1.3,-0.4 -2.4,-1.1 -3.4,-1.9 -1,-0.9 -1.7,-1.9 -2.3,-3.2 -0.6,-1.3 -0.8,-2.7 -0.8,-4.4 0,-2.2 0.4,-4.1 1.3,-5.5 0.9,-1.5 2.1,-2.7 3.6,-3.6 1.5,-0.9 3.3,-1.6 5.4,-2 2.1,-0.4 4.2,-0.6 6.6,-0.6 h 4.3 v -1.4 c 0,-0.9 -0.2,-1.7 -0.5,-2.6 -0.3,-0.9 -0.8,-1.6 -1.4,-2.3 -0.6,-0.7 -1.4,-1.2 -2.3,-1.7 -0.9,-0.4 -2,-0.6 -3.2,-0.6 -1.1,0 -2.1,0.1 -2.9,0.4 -0.8,0.2 -1.6,0.5 -2.3,0.9 -0.7,0.4 -1.3,0.8 -1.9,1.3 -0.6,0.5 -1.1,0.9 -1.6,1.4 z m 16.4,13.6 c -1.4,0 -2.8,0.1 -4.2,0.3 -1.4,0.2 -2.8,0.5 -4,1 -1.2,0.5 -2.2,1.2 -2.9,2 -0.7,0.8 -1.1,2 -1.1,3.3 0,2 0.6,3.4 1.8,4.2 1.2,0.9 2.8,1.3 4.8,1.3 1.6,0 3,-0.3 4.1,-0.9 1.1,-0.6 2,-1.4 2.7,-2.3 0.7,-1 1.2,-2 1.5,-3.2 0.3,-1.2 0.5,-2.3 0.5,-3.5 v -2.2 z"
   id="path364"
   inkscape:connector-curvature="0" />
	<path
   d="m 1915.8,1075.2 c 0,2.6 -0.4,5 -1.2,7.1 -0.8,2.1 -1.9,4 -3.4,5.5 -1.5,1.6 -3.2,2.8 -5.3,3.6 -2.1,0.9 -4.4,1.3 -6.9,1.3 -2.9,0 -5.6,-0.5 -8.1,-1.4 -2.4,-0.9 -4.8,-2.5 -7,-4.8 l 4,-5.5 c 1.5,1.8 3.2,3.2 4.9,4.1 1.8,0.9 3.8,1.4 6,1.4 2.2,0 4,-0.3 5.4,-1 1.4,-0.7 2.6,-1.6 3.4,-2.7 0.8,-1.1 1.4,-2.4 1.8,-3.8 0.3,-1.4 0.5,-2.8 0.5,-4.3 v -5 h -0.2 c -1.1,2.1 -2.6,3.6 -4.6,4.6 -1.9,1 -3.9,1.5 -6.1,1.5 -2.2,0 -4.3,-0.4 -6.3,-1.3 -1.9,-0.9 -3.6,-2.1 -5,-3.7 -1.4,-1.6 -2.5,-3.4 -3.2,-5.5 -0.8,-2.1 -1.2,-4.5 -1.2,-6.9 0,-2.5 0.4,-4.8 1.1,-7 0.7,-2.2 1.8,-4.1 3.1,-5.7 1.4,-1.6 3,-2.9 4.9,-3.8 1.9,-0.9 4.1,-1.4 6.4,-1.4 2.1,0 4.1,0.5 6.1,1.5 2,1 3.5,2.4 4.6,4.2 h 0.1 v -4.9 h 5.8 v 33.9 z m -15.9,-28.7 c -1.6,0 -3,0.3 -4.2,0.9 -1.3,0.6 -2.3,1.4 -3.2,2.4 -0.9,1 -1.5,2.3 -2,3.7 -0.5,1.5 -0.7,3.1 -0.7,4.8 0,3.5 0.9,6.2 2.7,8.3 1.8,2.1 4.3,3.1 7.4,3.1 3.1,0 5.6,-1 7.4,-3.1 1.8,-2.1 2.7,-4.9 2.7,-8.3 0,-1.7 -0.2,-3.3 -0.7,-4.8 -0.5,-1.5 -1.1,-2.7 -2,-3.7 -0.9,-1 -1.9,-1.8 -3.2,-2.4 -1.2,-0.6 -2.6,-0.9 -4.2,-0.9 z"
   id="path366"
   inkscape:connector-curvature="0" />
	<path
   d="m 1944.1,1024.5 h 28.8 v 6.5 h -22.6 v 16 h 21.1 v 6.5 h -21.1 v 22 h -6.2 z"
   id="path368"
   inkscape:connector-curvature="0" />
	<path
   d="m 1978.9,1029.1 c 0,-1.3 0.4,-2.4 1.3,-3.3 0.8,-0.9 1.8,-1.4 3,-1.4 1.2,0 2.2,0.5 3,1.4 0.8,0.9 1.3,2.1 1.3,3.3 0,1.2 -0.4,2.4 -1.3,3.3 -0.8,0.9 -1.8,1.4 -3,1.4 -1.2,0 -2.2,-0.5 -3,-1.4 -0.8,-0.9 -1.3,-2 -1.3,-3.3 z m 1.4,12.2 h 5.8 v 34.1 h -5.8 z"
   id="path370"
   inkscape:connector-curvature="0" />
	<path
   d="m 1995.9,1021 h 5.8 v 54.4 h -5.8 z"
   id="path372"
   inkscape:connector-curvature="0" />
	<path
   d="m 2027.4,1047 h -8.4 v 15.5 c 0,1 0,1.9 0.1,2.8 0,0.9 0.2,1.8 0.5,2.5 0.3,0.7 0.7,1.3 1.3,1.8 0.6,0.5 1.4,0.7 2.6,0.7 0.7,0 1.4,-0.1 2.1,-0.2 0.7,-0.1 1.4,-0.4 2,-0.8 v 5.9 c -0.7,0.4 -1.6,0.7 -2.7,0.9 -1.1,0.2 -2,0.3 -2.6,0.3 -2.2,0 -4,-0.3 -5.2,-1 -1.2,-0.7 -2.1,-1.6 -2.7,-2.7 -0.6,-1.1 -0.9,-2.3 -1,-3.7 -0.1,-1.4 -0.2,-2.7 -0.2,-4.1 V 1047 h -6.7 v -5.6 h 6.7 v -9.6 h 5.8 v 9.6 h 8.4 z"
   id="path374"
   inkscape:connector-curvature="0" />
	<path
   d="m 2039.3,1060.8 c 0,1.5 0.3,2.8 0.9,4.1 0.6,1.3 1.3,2.3 2.3,3.1 0.9,0.9 2.1,1.5 3.3,2 1.3,0.5 2.5,0.7 3.9,0.7 1.8,0 3.4,-0.5 4.7,-1.4 1.3,-0.9 2.6,-2.2 3.7,-3.7 l 4.4,3.7 c -3.2,4.7 -7.8,7 -13.6,7 -2.4,0 -4.6,-0.5 -6.6,-1.4 -2,-0.9 -3.6,-2.2 -5,-3.8 -1.4,-1.6 -2.4,-3.5 -3.1,-5.7 -0.7,-2.2 -1.1,-4.5 -1.1,-7.1 0,-2.5 0.4,-4.9 1.2,-7.1 0.8,-2.2 1.9,-4.1 3.3,-5.7 1.4,-1.6 3.1,-2.9 5,-3.8 1.9,-0.9 4.1,-1.4 6.4,-1.4 2.7,0 5,0.5 6.9,1.6 1.9,1.1 3.4,2.4 4.6,4.1 1.2,1.7 2.1,3.6 2.6,5.8 0.5,2.1 0.8,4.3 0.8,6.5 v 2.3 h -24.6 z m 18.4,-5.2 c 0,-1.4 -0.2,-2.8 -0.6,-4 -0.4,-1.2 -0.9,-2.2 -1.7,-3.1 -0.7,-0.9 -1.7,-1.6 -2.8,-2.1 -1.1,-0.5 -2.4,-0.8 -3.9,-0.8 -1.4,0 -2.7,0.3 -3.9,0.9 -1.2,0.6 -2.2,1.4 -3,2.3 -0.8,1 -1.5,2 -1.9,3.2 -0.5,1.2 -0.7,2.3 -0.7,3.5 h 18.5 z"
   id="path376"
   inkscape:connector-curvature="0" />
	<path
   d="m 2070.9,1041.3 h 5.8 v 5.3 h 0.1 c 0.4,-0.9 0.9,-1.7 1.6,-2.5 0.6,-0.7 1.4,-1.4 2.2,-1.9 0.8,-0.5 1.7,-0.9 2.6,-1.3 1,-0.3 1.9,-0.5 2.9,-0.5 0.9,0 1.8,0.1 2.6,0.4 l -0.3,7 c -0.5,-0.1 -1,-0.3 -1.4,-0.4 -0.5,-0.1 -1,-0.1 -1.4,-0.1 -2.9,0 -5,0.9 -6.5,2.7 -1.5,1.8 -2.3,4.5 -2.3,8.3 v 17.1 h -5.8 v -34.1 z"
   id="path378"
   inkscape:connector-curvature="0" />
</g>
<g
   id="g416"
   transform="translate(-149.36867,-141.8)">
	<path
   d="m 2510.3,527.7 h 28.8 v 6.5 h -22.6 v 16 h 21.1 v 6.5 h -21.1 v 22 h -6.2 z"
   id="path382"
   inkscape:connector-curvature="0" />
	<path
   d="m 2545.1,532.3 c 0,-1.3 0.4,-2.4 1.3,-3.3 0.8,-0.9 1.8,-1.4 3,-1.4 1.2,0 2.2,0.5 3,1.4 0.8,0.9 1.3,2.1 1.3,3.3 0,1.2 -0.4,2.4 -1.3,3.3 -0.8,0.9 -1.8,1.4 -3,1.4 -1.2,0 -2.2,-0.5 -3,-1.4 -0.9,-0.9 -1.3,-2 -1.3,-3.3 z m 1.4,12.3 h 5.8 v 34.1 h -5.8 z"
   id="path384"
   inkscape:connector-curvature="0" />
	<path
   d="m 2562,524.3 h 5.8 v 54.4 h -5.8 z"
   id="path386"
   inkscape:connector-curvature="0" />
	<path
   d="m 2593.6,550.2 h -8.4 v 15.5 c 0,1 0,1.9 0.1,2.8 0,0.9 0.2,1.8 0.5,2.5 0.3,0.7 0.7,1.3 1.3,1.8 0.6,0.5 1.4,0.7 2.6,0.7 0.7,0 1.4,-0.1 2.1,-0.2 0.7,-0.1 1.4,-0.4 2,-0.8 v 5.9 c -0.7,0.4 -1.6,0.7 -2.7,0.9 -1.1,0.2 -2,0.3 -2.6,0.3 -2.2,0 -4,-0.3 -5.2,-1 -1.2,-0.7 -2.1,-1.6 -2.7,-2.7 -0.6,-1.1 -0.9,-2.3 -1,-3.7 -0.1,-1.4 -0.2,-2.7 -0.2,-4.1 v -17.8 h -6.7 v -5.6 h 6.7 V 535 h 5.8 v 9.6 h 8.4 z"
   id="path388"
   inkscape:connector-curvature="0" />
	<path
   d="m 2605.5,564 c 0,1.5 0.3,2.8 0.9,4.1 0.6,1.3 1.3,2.3 2.3,3.1 1,0.9 2.1,1.5 3.3,2 1.3,0.5 2.5,0.7 3.9,0.7 1.8,0 3.4,-0.5 4.7,-1.4 1.3,-0.9 2.6,-2.2 3.7,-3.7 l 4.4,3.7 c -3.2,4.7 -7.8,7 -13.6,7 -2.4,0 -4.6,-0.5 -6.6,-1.4 -2,-0.9 -3.6,-2.2 -5,-3.8 -1.4,-1.6 -2.4,-3.5 -3.1,-5.7 -0.7,-2.2 -1.1,-4.5 -1.1,-7.1 0,-2.5 0.4,-4.9 1.2,-7.1 0.8,-2.2 1.9,-4.1 3.3,-5.7 1.4,-1.6 3.1,-2.9 5,-3.8 1.9,-0.9 4.1,-1.4 6.3,-1.4 2.7,0 5,0.5 6.9,1.6 1.9,1.1 3.4,2.4 4.6,4.1 1.2,1.7 2.1,3.6 2.6,5.8 0.5,2.2 0.8,4.3 0.8,6.5 v 2.3 h -24.5 z m 18.4,-5.2 c 0,-1.4 -0.2,-2.8 -0.6,-4 -0.4,-1.2 -0.9,-2.2 -1.7,-3.1 -0.7,-0.9 -1.7,-1.6 -2.8,-2.1 -1.1,-0.5 -2.4,-0.8 -3.9,-0.8 -1.4,0 -2.7,0.3 -3.9,0.9 -1.2,0.6 -2.2,1.4 -3,2.3 -0.8,1 -1.5,2 -1.9,3.2 -0.5,1.2 -0.7,2.3 -0.7,3.5 h 18.5 z"
   id="path390"
   inkscape:connector-curvature="0" />
	<path
   d="m 2637.1,544.6 h 5.8 v 5.3 h 0.1 c 0.4,-0.9 0.9,-1.7 1.6,-2.5 0.6,-0.7 1.4,-1.4 2.2,-1.9 0.8,-0.5 1.7,-0.9 2.6,-1.3 0.9,-0.3 1.9,-0.5 2.9,-0.5 0.9,0 1.8,0.1 2.6,0.4 l -0.3,7 c -0.5,-0.1 -1,-0.3 -1.4,-0.4 -0.5,-0.1 -1,-0.1 -1.4,-0.1 -2.9,0 -5,0.9 -6.5,2.7 -1.5,1.8 -2.3,4.5 -2.3,8.3 v 17.1 h -5.8 v -34.1 z"
   id="path392"
   inkscape:connector-curvature="0" />
	<path
   d="m 2664.3,564 c 0,1.5 0.3,2.8 0.9,4.1 0.6,1.3 1.3,2.3 2.3,3.1 1,0.9 2.1,1.5 3.3,2 1.3,0.5 2.5,0.7 3.9,0.7 1.8,0 3.4,-0.5 4.7,-1.4 1.3,-0.9 2.6,-2.2 3.7,-3.7 l 4.4,3.7 c -3.2,4.7 -7.8,7 -13.6,7 -2.4,0 -4.6,-0.5 -6.6,-1.4 -2,-0.9 -3.6,-2.2 -5,-3.8 -1.4,-1.6 -2.4,-3.5 -3.1,-5.7 -0.7,-2.2 -1.1,-4.5 -1.1,-7.1 0,-2.5 0.4,-4.9 1.2,-7.1 0.8,-2.2 1.9,-4.1 3.3,-5.7 1.4,-1.6 3.1,-2.9 5,-3.8 1.9,-0.9 4.1,-1.4 6.3,-1.4 2.7,0 5,0.5 6.9,1.6 1.9,1.1 3.4,2.4 4.6,4.1 1.2,1.7 2.1,3.6 2.6,5.8 0.5,2.2 0.8,4.3 0.8,6.5 v 2.3 h -24.5 z m 18.4,-5.2 c 0,-1.4 -0.2,-2.8 -0.6,-4 -0.4,-1.2 -0.9,-2.2 -1.7,-3.1 -0.7,-0.9 -1.7,-1.6 -2.8,-2.1 -1.1,-0.5 -2.4,-0.8 -3.9,-0.8 -1.4,0 -2.7,0.3 -3.9,0.9 -1.2,0.6 -2.2,1.4 -3,2.3 -0.8,1 -1.5,2 -1.9,3.2 -0.5,1.2 -0.7,2.3 -0.7,3.5 h 18.5 z"
   id="path394"
   inkscape:connector-curvature="0" />
	<path
   d="m 2726.7,578.7 h -5.8 v -4.9 h -0.1 c -1.1,1.8 -2.7,3.2 -4.6,4.2 -2,1 -4,1.5 -6.1,1.5 -2.4,0 -4.5,-0.5 -6.4,-1.4 -1.9,-0.9 -3.6,-2.2 -4.9,-3.8 -1.4,-1.6 -2.4,-3.5 -3.1,-5.7 -0.7,-2.2 -1.1,-4.5 -1.1,-7.1 0,-2.5 0.4,-4.9 1.1,-7.1 0.7,-2.2 1.8,-4.1 3.1,-5.7 1.4,-1.6 3,-2.9 4.9,-3.8 1.9,-0.9 4.1,-1.4 6.4,-1.4 2.2,0 4.3,0.5 6.2,1.5 1.9,1 3.4,2.4 4.5,4.2 h 0.1 V 524 h 5.8 z m -15.9,-5.2 c 1.6,0 3,-0.3 4.2,-0.9 1.3,-0.6 2.3,-1.4 3.2,-2.4 0.9,-1 1.5,-2.3 2,-3.7 0.5,-1.5 0.7,-3.1 0.7,-4.8 0,-1.7 -0.2,-3.3 -0.7,-4.8 -0.5,-1.5 -1.1,-2.7 -2,-3.7 -0.9,-1 -1.9,-1.8 -3.2,-2.4 -1.3,-0.6 -2.7,-0.9 -4.2,-0.9 -1.6,0 -3,0.3 -4.2,0.9 -1.3,0.6 -2.3,1.4 -3.2,2.4 -0.9,1 -1.5,2.3 -2,3.7 -0.5,1.5 -0.7,3.1 -0.7,4.8 0,1.7 0.2,3.3 0.7,4.8 0.5,1.5 1.1,2.7 2,3.7 0.9,1 1.9,1.8 3.2,2.4 1.2,0.6 2.6,0.9 4.2,0.9 z"
   id="path396"
   inkscape:connector-curvature="0" />
	<path
   d="m 2749.2,527.7 h 6.5 l 10.1,40.8 h 0.1 l 10.8,-40.8 h 7.1 l 10.8,40.8 h 0.1 l 10.1,-40.8 h 6.5 l -13.3,51 h -6.6 l -11.1,-41.6 h -0.1 l -11,41.6 h -6.6 z"
   id="path398"
   inkscape:connector-curvature="0" />
	<path
   d="m 2813,548.7 c 1.6,-1.7 3.5,-2.9 5.7,-3.8 2.2,-0.8 4.3,-1.3 6.5,-1.3 2.2,0 4.2,0.3 5.8,0.9 1.6,0.6 2.9,1.5 4,2.5 1,1.1 1.8,2.3 2.3,3.6 0.5,1.4 0.7,2.8 0.7,4.3 v 17.4 c 0,1.2 0,2.3 0.1,3.3 0,1 0.1,2 0.2,2.9 h -5.2 c -0.1,-1.7 -0.2,-3.5 -0.2,-5.2 h -0.1 c -1.3,2.2 -2.8,3.8 -4.6,4.7 -1.8,0.9 -3.8,1.4 -6.2,1.4 -1.4,0 -2.8,-0.2 -4.1,-0.6 -1.3,-0.4 -2.4,-1.1 -3.4,-1.9 -1,-0.9 -1.7,-1.9 -2.3,-3.2 -0.6,-1.3 -0.8,-2.7 -0.8,-4.4 0,-2.2 0.4,-4.1 1.3,-5.5 0.9,-1.5 2.1,-2.7 3.6,-3.6 1.5,-0.9 3.3,-1.6 5.4,-2 2.1,-0.4 4.2,-0.6 6.6,-0.6 h 4.3 v -1.4 c 0,-0.9 -0.2,-1.7 -0.5,-2.6 -0.3,-0.9 -0.8,-1.6 -1.4,-2.3 -0.6,-0.7 -1.4,-1.2 -2.3,-1.7 -0.9,-0.4 -2,-0.6 -3.2,-0.6 -1.1,0 -2.1,0.1 -2.9,0.4 -0.8,0.2 -1.6,0.5 -2.3,0.9 -0.7,0.4 -1.3,0.8 -1.9,1.3 -0.6,0.5 -1.1,0.9 -1.6,1.4 z m 16.4,13.6 c -1.4,0 -2.8,0.1 -4.2,0.3 -1.4,0.2 -2.8,0.5 -4,1 -1.2,0.5 -2.2,1.2 -2.9,2 -0.7,0.8 -1.1,2 -1.1,3.3 0,2 0.6,3.4 1.8,4.2 1.2,0.9 2.8,1.3 4.8,1.3 1.6,0 3,-0.3 4.1,-0.9 1.1,-0.6 2,-1.4 2.7,-2.3 0.7,-1 1.2,-2 1.5,-3.2 0.3,-1.2 0.5,-2.3 0.5,-3.5 v -2.2 z"
   id="path400"
   inkscape:connector-curvature="0" />
	<path
   d="m 2862.9,550.2 h -8.4 v 15.5 c 0,1 0,1.9 0.1,2.8 0,0.9 0.2,1.8 0.5,2.5 0.3,0.7 0.7,1.3 1.3,1.8 0.6,0.5 1.4,0.7 2.6,0.7 0.7,0 1.4,-0.1 2.1,-0.2 0.7,-0.1 1.4,-0.4 2,-0.8 v 5.9 c -0.7,0.4 -1.6,0.7 -2.7,0.9 -1.1,0.2 -2,0.3 -2.6,0.3 -2.2,0 -4,-0.3 -5.2,-1 -1.2,-0.7 -2.1,-1.6 -2.7,-2.7 -0.6,-1.1 -0.9,-2.3 -1,-3.7 -0.1,-1.4 -0.2,-2.7 -0.2,-4.1 v -17.8 h -6.7 v -5.6 h 6.7 V 535 h 5.8 v 9.6 h 8.4 z"
   id="path402"
   inkscape:connector-curvature="0" />
	<path
   d="m 2874.8,564 c 0,1.5 0.3,2.8 0.9,4.1 0.6,1.3 1.3,2.3 2.3,3.1 1,0.9 2.1,1.5 3.3,2 1.3,0.5 2.5,0.7 3.9,0.7 1.8,0 3.4,-0.5 4.7,-1.4 1.3,-0.9 2.6,-2.2 3.7,-3.7 l 4.4,3.7 c -3.2,4.7 -7.8,7 -13.6,7 -2.4,0 -4.6,-0.5 -6.6,-1.4 -2,-0.9 -3.6,-2.2 -5,-3.8 -1.4,-1.6 -2.4,-3.5 -3.1,-5.7 -0.7,-2.2 -1.1,-4.5 -1.1,-7.1 0,-2.5 0.4,-4.9 1.2,-7.1 0.8,-2.2 1.9,-4.1 3.3,-5.7 1.4,-1.6 3.1,-2.9 5,-3.8 1.9,-0.9 4.1,-1.4 6.3,-1.4 2.7,0 5,0.5 6.9,1.6 1.9,1.1 3.4,2.4 4.6,4.1 1.2,1.7 2.1,3.6 2.6,5.8 0.5,2.2 0.8,4.3 0.8,6.5 v 2.3 h -24.5 z m 18.4,-5.2 c 0,-1.4 -0.2,-2.8 -0.6,-4 -0.4,-1.2 -0.9,-2.2 -1.7,-3.1 -0.7,-0.9 -1.7,-1.6 -2.8,-2.1 -1.1,-0.5 -2.4,-0.8 -3.9,-0.8 -1.4,0 -2.7,0.3 -3.9,0.9 -1.2,0.6 -2.2,1.4 -3,2.3 -0.8,1 -1.5,2 -1.9,3.2 -0.5,1.2 -0.7,2.3 -0.7,3.5 h 18.5 z"
   id="path404"
   inkscape:connector-curvature="0" />
	<path
   d="m 2906.5,544.6 h 5.8 v 5.3 h 0.1 c 0.4,-0.9 0.9,-1.7 1.6,-2.5 0.6,-0.7 1.4,-1.4 2.2,-1.9 0.8,-0.5 1.7,-0.9 2.6,-1.3 1,-0.3 1.9,-0.5 2.9,-0.5 0.9,0 1.8,0.1 2.6,0.4 l -0.3,7 c -0.5,-0.1 -1,-0.3 -1.4,-0.4 -0.5,-0.1 -1,-0.1 -1.4,-0.1 -2.9,0 -5,0.9 -6.5,2.7 -1.5,1.8 -2.3,4.5 -2.3,8.3 v 17.1 h -5.8 v -34.1 z"
   id="path406"
   inkscape:connector-curvature="0" />
	<path
   d="m 2959.5,534.2 h -14.8 v -6.5 h 35.8 v 6.5 h -14.8 v 44.5 h -6.2 z"
   id="path408"
   inkscape:connector-curvature="0" />
	<path
   d="m 2978.6,548.7 c 1.6,-1.7 3.5,-2.9 5.7,-3.8 2.2,-0.8 4.3,-1.3 6.5,-1.3 2.2,0 4.2,0.3 5.8,0.9 1.6,0.6 2.9,1.5 4,2.5 1,1.1 1.8,2.3 2.3,3.6 0.5,1.4 0.7,2.8 0.7,4.3 v 17.4 c 0,1.2 0,2.3 0.1,3.3 0,1 0.1,2 0.2,2.9 h -5.2 c -0.1,-1.7 -0.2,-3.5 -0.2,-5.2 h -0.1 c -1.3,2.2 -2.8,3.8 -4.6,4.7 -1.8,0.9 -3.8,1.4 -6.2,1.4 -1.4,0 -2.8,-0.2 -4.1,-0.6 -1.3,-0.4 -2.4,-1.1 -3.4,-1.9 -1,-0.9 -1.7,-1.9 -2.3,-3.2 -0.6,-1.3 -0.8,-2.7 -0.8,-4.4 0,-2.2 0.4,-4.1 1.3,-5.5 0.9,-1.5 2.1,-2.7 3.6,-3.6 1.5,-0.9 3.3,-1.6 5.4,-2 2.1,-0.4 4.2,-0.6 6.6,-0.6 h 4.3 v -1.4 c 0,-0.9 -0.2,-1.7 -0.5,-2.6 -0.3,-0.9 -0.8,-1.6 -1.4,-2.3 -0.6,-0.7 -1.4,-1.2 -2.3,-1.7 -0.9,-0.4 -2,-0.6 -3.2,-0.6 -1.1,0 -2.1,0.1 -2.9,0.4 -0.8,0.2 -1.6,0.5 -2.3,0.9 -0.7,0.4 -1.3,0.8 -1.9,1.3 -0.6,0.5 -1.1,0.9 -1.6,1.4 z m 16.4,13.6 c -1.4,0 -2.8,0.1 -4.2,0.3 -1.4,0.2 -2.8,0.5 -4,1 -1.2,0.5 -2.2,1.2 -2.9,2 -0.7,0.8 -1.1,2 -1.1,3.3 0,2 0.6,3.4 1.8,4.2 1.2,0.9 2.8,1.3 4.8,1.3 1.6,0 3,-0.3 4.1,-0.9 1.1,-0.6 2,-1.4 2.7,-2.3 0.7,-1 1.2,-2 1.5,-3.2 0.3,-1.2 0.5,-2.3 0.5,-3.5 v -2.2 z"
   id="path410"
   inkscape:connector-curvature="0" />
	<path
   d="m 3012.1,544.6 h 5.8 v 5.3 h 0.1 c 0.7,-1.8 2,-3.3 3.8,-4.4 1.8,-1.1 3.9,-1.7 6.3,-1.7 1.5,0 2.9,0.3 4.2,0.8 1.4,0.5 2.5,1.3 3.6,2.3 1,1.1 1.8,2.4 2.4,4.1 0.6,1.7 0.9,3.6 0.9,5.9 v 22 h -5.8 v -20.2 c 0,-1.6 -0.2,-2.9 -0.6,-4.1 -0.4,-1.2 -0.9,-2 -1.6,-2.7 -0.6,-0.7 -1.4,-1.2 -2.2,-1.5 -0.8,-0.3 -1.7,-0.5 -2.6,-0.5 -1.2,0 -2.3,0.2 -3.4,0.6 -1,0.4 -1.9,1.1 -2.7,2.1 -0.8,0.9 -1.4,2.1 -1.8,3.6 -0.4,1.4 -0.6,3.1 -0.6,5.1 v 17.6 h -5.8 z"
   id="path412"
   inkscape:connector-curvature="0" />
	<path
   d="m 3048.1,524.3 h 5.8 v 35.1 l 13.2,-14.8 h 8.1 l -14.3,15.5 15.6,18.6 h -8.3 L 3053.9,561 v 17.7 h -5.8 z"
   id="path414"
   inkscape:connector-curvature="0" />
</g>
</svg>