<?xml version="1.0" encoding="iso-8859-1"?>
<!-- Generator: Adobe Illustrator 19.0.0, SVG Export Plug-In . SVG Version: 6.00 Build 0)  -->
<svg version="1.1" id="Capa_1" xmlns="http://www.w3.org/2000/svg" xmlns:xlink="http://www.w3.org/1999/xlink" x="0px" y="0px"
	 viewBox="0 0 512 512" style="enable-background:new 0 0 512 512;" xml:space="preserve">
<g>
	<path style="fill:#1689FC;" d="M226,482H75c-8.291,0-15-6.709-15-15s6.709-15,15-15h151c8.291,0,15,6.709,15,15
		S234.291,482,226,482z"/>
	<path style="fill:#1689FC;" d="M271,345v92c0,8.399-6.599,15-15,15s-15-6.601-15-15v-92c0-8.401,6.599-15,15-15
		S271,336.599,271,345z"/>
</g>
<g>
	<path style="fill:#136EF1;" d="M452,467c0,8.291-6.709,15-15,15H286c-8.291,0-15-6.709-15-15s6.709-15,15-15h151
		C445.291,452,452,458.709,452,467z"/>
	<path style="fill:#136EF1;" d="M271,345v92c0,8.399-6.599,15-15,15V330C264.401,330,271,336.599,271,345z"/>
</g>
<g>
	<path style="fill:#00C8C8;" d="M256,422c-24.901,0-45,20.099-45,45c0,24.899,20.099,45,45,45s45-20.101,45-45
		C301,442.099,280.901,422,256,422z"/>
	<path style="fill:#00C8C8;" d="M45,512c-24.814,0-45-20.186-45-45s20.186-45,45-45s45,20.186,45,45S69.814,512,45,512z"/>
</g>
<path style="fill:#E1F1FA;" d="M45,482c-8.271,0-15-6.729-15-15s6.729-15,15-15s15,6.729,15,15S53.271,482,45,482z"/>
<path style="fill:#B674F2;" d="M446.499,184.499l-180-180C263.8,1.5,259.9,0,256,0s-7.8,1.5-10.499,4.499l-180,180
	C61,188.699,59.801,195,62.2,200.7c2.4,5.7,7.8,9.3,13.8,9.3h45v135c0,8.399,6.599,15,15,15h240c8.401,0,15-6.601,15-15V210h45
	c6,0,11.4-3.6,13.801-9.3C452.199,195,451,188.699,446.499,184.499z"/>
<path style="fill:#8F4CD6;" d="M449.801,200.7C447.4,206.4,442,210,436,210h-45v135c0,8.399-6.599,15-15,15H256V0
	c3.9,0,7.8,1.5,10.499,4.499l180,180C451,188.699,452.199,195,449.801,200.7z"/>
<path style="fill:#E1F1FA;" d="M286,240h-60c-8.401,0-15,6.599-15,15v105h90V255C301,246.599,294.401,240,286,240z"/>
<path style="fill:#BFE1FF;" d="M301,255v105h-45V240h30C294.401,240,301,246.599,301,255z"/>
<path style="fill:#00A1B2;" d="M467,512c-24.814,0-45-20.186-45-45s20.186-45,45-45s45,20.186,45,45S491.814,512,467,512z"/>
<path style="fill:#BFE1FF;" d="M467,482c-8.271,0-15-6.729-15-15s6.729-15,15-15s15,6.729,15,15S475.271,482,467,482z"/>
<path style="fill:#00A1B2;" d="M301,467c0,24.899-20.099,45-45,45v-90C280.901,422,301,442.099,301,467z"/>
<path style="fill:#E1F1FA;" d="M256,482c-8.271,0-15-6.729-15-15s6.729-15,15-15s15,6.729,15,15S264.271,482,256,482z"/>
<path style="fill:#BFE1FF;" d="M271,467c0-8.271-6.729-15-15-15v30C264.271,482,271,475.271,271,467z"/>
<g>
</g>
<g>
</g>
<g>
</g>
<g>
</g>
<g>
</g>
<g>
</g>
<g>
</g>
<g>
</g>
<g>
</g>
<g>
</g>
<g>
</g>
<g>
</g>
<g>
</g>
<g>
</g>
<g>
</g>
</svg>
